<?xml version="1.0" encoding="utf-8"?>
<!-- Generator: Adobe Illustrator 24.1.1, SVG Export Plug-In . SVG Version: 6.00 Build 0)  -->
<svg version="1.1" id="Layer_1" xmlns="http://www.w3.org/2000/svg" xmlns:xlink="http://www.w3.org/1999/xlink" x="0px" y="0px"
	 viewBox="0 0 511 511" style="enable-background:new 0 0 511 511;" xml:space="preserve">
<style type="text/css">
	.st0{fill:#CBE558;}
</style>
<path class="st0" d="M362.2,115.4L219.8,257.8l-73-73L77.6,254l142.1,142.1l211.6-211.6L362.2,115.4z"/>
<path d="M219.8,403.3c-1.9,0-3.7-0.8-5.1-2.1L72.5,259.1c-1.3-1.3-2.1-3.2-2.1-5.1c0-1.9,0.8-3.7,2.1-5.1l69.2-69.2
	c2.8-2.8,7.4-2.8,10.2,0l67.9,67.9l137.4-137.4c1.3-1.3,3.2-2.1,5.1-2.1s3.7,0.8,5.1,2.1l69.2,69.2c2.8,2.8,2.8,7.4,0,10.2
	l-92.1,92.1c-2.8,2.8-7.4,2.8-10.2,0c-2.8-2.8-2.8-7.4,0-10.2l87-87l-59-59L224.8,262.9c-1.3,1.3-3.2,2.1-5.1,2.1
	c-1.9,0-3.7-0.8-5.1-2.1L146.8,195l-59,59l132,132l73.7-73.7c2.8-2.8,7.4-2.8,10.2,0c2.8,2.8,2.8,7.4,0,10.2l-78.8,78.8
	C223.5,402.6,221.7,403.3,219.8,403.3z"/>
<path d="M319,304.2c-1.9,0-3.7-0.8-5.1-2.1c-1.3-1.3-2.1-3.2-2.1-5.1c0-1.9,0.8-3.7,2.1-5.1c1.3-1.3,3.2-2.1,5.1-2.1
	c1.9,0,3.7,0.8,5.1,2.1c1.3,1.3,2.1,3.2,2.1,5.1c0,1.9-0.8,3.7-2.1,5.1C322.7,303.5,320.9,304.2,319,304.2z"/>
</svg>
