<?xml version="1.0" encoding="iso-8859-1"?>
<!-- Generator: Adobe Illustrator 19.0.0, SVG Export Plug-In . SVG Version: 6.00 Build 0)  -->
<svg version="1.1" id="Capa_1" xmlns="http://www.w3.org/2000/svg" xmlns:xlink="http://www.w3.org/1999/xlink" x="0px" y="0px"
	 viewBox="0 0 512.147 512.147" style="enable-background:new 0 0 512.147 512.147;" xml:space="preserve">
<path style="fill:#FFC107;" d="M240.118,176.088v-96l160,160l-160,160v-96h-23.456c-75.058,0.021-144.807,38.723-184.544,102.4
	l-16,25.6l8.192-65.472C37.954,257.797,130.448,176.139,240.118,176.088z"/>
<path d="M16.118,448.088c-1.821-0.009-3.627-0.323-5.344-0.928c-7.128-2.464-11.567-9.57-10.656-17.056l8.32-65.472
	c14.005-110.754,104.319-196.177,215.68-204V80.088c-0.016-8.837,7.135-16.013,15.971-16.029c4.26-0.008,8.348,1.684,11.357,4.701
	l160,160c6.256,6.24,6.269,16.371,0.029,22.627c-0.01,0.01-0.019,0.019-0.029,0.029l-160,160c-6.24,6.256-16.371,6.269-22.627,0.029
	c-3.016-3.009-4.708-7.096-4.701-11.357v-80h-7.456c-69.532-0.228-134.21,35.612-170.88,94.688l-16,25.792
	C26.84,445.275,21.669,448.121,16.118,448.088z M256.118,118.712v57.376c0,8.837-7.163,16-16,16
	c-101.581,0.136-187.226,75.761-199.936,176.544l0,0c44.237-51.338,108.712-80.764,176.48-80.544h23.456c8.837,0,16,7.163,16,16
	v57.376l121.376-121.376L256.118,118.712z"/>
<path d="M336.118,416.088c-8.837,0.016-16.013-7.135-16.029-15.971c-0.008-4.26,1.684-8.348,4.701-11.357l148.704-148.672
	L324.79,91.416c-6.256-6.256-6.256-16.4,0-22.656c6.256-6.256,16.4-6.256,22.656,0l160,160c6.256,6.24,6.269,16.371,0.029,22.627
	c-0.01,0.01-0.019,0.019-0.029,0.029l-160,160C344.44,414.414,340.365,416.095,336.118,416.088z"/>
<g>
</g>
<g>
</g>
<g>
</g>
<g>
</g>
<g>
</g>
<g>
</g>
<g>
</g>
<g>
</g>
<g>
</g>
<g>
</g>
<g>
</g>
<g>
</g>
<g>
</g>
<g>
</g>
<g>
</g>
</svg>
