<?xml version="1.0" encoding="utf-8"?>
<!-- Generator: Adobe Illustrator 24.3.0, SVG Export Plug-In . SVG Version: 6.00 Build 0)  -->
<svg version="1.1" id="Capa_1" xmlns="http://www.w3.org/2000/svg" xmlns:xlink="http://www.w3.org/1999/xlink" x="0px" y="0px"
	 viewBox="0 0 512 512" style="enable-background:new 0 0 512 512;" xml:space="preserve">
<style type="text/css">
	.st0{fill:#365E7D;}
	.st1{fill:#2B4D66;}
	.st2{fill:#F1D0A5;}
	.st3{fill:#F1B986;}
	.st4{fill:#ECF4FF;}
	.st5{fill:#DDEAFB;}
	.st6{fill:#78C2A4;}
	.st7{fill:#66B394;}
	.st8{fill:#E0F8C5;}
	.st9{fill:#CCF49F;}
	.st10{fill:#F6E266;}
	.st11{fill:#ECBE6B;}
</style>
<g>
	<path class="st0" d="M409.8,156.4H102.2c-7.6,0-13.8-6.2-13.8-13.8V84.7c0-7.6,6.2-13.8,13.8-13.8h307.5c7.6,0,13.8,6.2,13.8,13.8
		v57.9C423.6,150.2,417.4,156.4,409.8,156.4z"/>
	<path class="st1" d="M409.8,70.9h-18.1c7.6,0,13.8,6.2,13.8,13.8v57.9c0,7.6-6.2,13.8-13.8,13.8h18.1c7.6,0,13.8-6.2,13.8-13.8
		V84.7C423.6,77.1,417.4,70.9,409.8,70.9z"/>
	<path class="st2" d="M348.1,215.3l59.5,57.8c15.5,15.1,18,39.2,5.7,57.1l-28.1,41.1c-3.4,4.9-5.2,10.8-5.2,16.8v31.3h-44.5V285.2
		v-59.9L348.1,215.3z"/>
	<g>
		<path class="st3" d="M376.2,311.9c-1.6,0-3.1-0.6-4.3-1.8l-51.7-53.8c-2.3-2.4-2.2-6.1,0.2-8.4c2.4-2.3,6.1-2.2,8.4,0.2l51.7,53.8
			c2.3,2.4,2.2,6.1-0.2,8.4C379.1,311.4,377.6,311.9,376.2,311.9z"/>
	</g>
	<path class="st3" d="M407.6,273.1l-59.5-57.8l-10.5,8.3l50.9,49.5c15.5,15.1,18,39.2,5.7,57.1l-28.1,41.1
		c-3.4,4.9-5.2,10.8-5.2,16.8v31.3h19.1V388c0-6,1.8-11.8,5.2-16.8l28.1-41.1C425.6,312.3,423.2,288.2,407.6,273.1z"/>
	<path class="st4" d="M382.5,120H129.5c-4,0-7.2-3.2-7.2-7.2v-9.6c0-4,3.2-7.2,7.2-7.2h252.9c4,0,7.2,3.2,7.2,7.2v9.6
		C389.7,116.7,386.4,120,382.5,120z"/>
	<path class="st5" d="M382.5,96H363c4,0,7.2,3.2,7.2,7.2v9.6c0,4-3.2,7.2-7.2,7.2h19.4c4,0,7.2-3.2,7.2-7.2v-9.6
		C389.7,99.2,386.4,96,382.5,96z"/>
	<path class="st6" d="M168.9,120v243.7c0,4.2,3.4,7.6,7.6,7.6h164.1c4.2,0,7.6-3.4,7.6-7.6V120H168.9z"/>
	<path class="st7" d="M333.1,120v243.7c0,4.2-3.4,7.6-7.6,7.6h15c4.2,0,7.6-3.4,7.6-7.6V120H333.1z"/>
	<g>
		<g>
			<path class="st8" d="M321,351.3h-1.5c-3.3,0-5.9-2.6-5.9-5.9s2.6-5.9,5.9-5.9h1.5c3.3,0,5.9,2.6,5.9,5.9S324.2,351.3,321,351.3z"
				/>
		</g>
		<g>
			<path class="st8" d="M197.6,351.3h-1.5c-3.3,0-5.9-2.6-5.9-5.9s2.6-5.9,5.9-5.9h1.5c3.3,0,5.9,2.6,5.9,5.9
				S200.9,351.3,197.6,351.3z"/>
		</g>
	</g>
	<path class="st8" d="M191.2,120v194.9c0,0.7,0.5,1.2,1.2,1.2c17.2,0.6,31.1,14.5,31.7,31.7c0,0.7,0.6,1.2,1.2,1.2h66.6
		c0.7,0,1.2-0.5,1.2-1.2c0.6-17.6,15.1-31.7,32.9-31.7V120H191.2z"/>
	<path class="st9" d="M303.4,120c2.9,4.3,4.5,9.4,4.5,14.7v161.2c0,10-5.7,19.2-14.6,23.7c-10.8,5.4-18.2,16.5-18.2,29.4h16.9
		c0.7,0,1.2-0.5,1.2-1.2c0.6-17.6,15.1-31.7,32.9-31.7V120L303.4,120z"/>
	<path class="st2" d="M319.4,419.4l-0.7-34.2c-0.1-4.9-1-9.7-2.6-14.3c-4.5-12.9-2-27.3,6.7-37.8c1.8-2.2,2.1-5.3,0.7-7.9
		l-27.7-53.6c-2.8-5.5-1.8-12.2,2.7-16.6c5.6-5.5,14.6-5.3,20,0.3l51.7,53.8l-13.4,53.8l-7,56.6L319.4,419.4z"/>
	<g>
		<g>
			<path class="st0" d="M244.6,238.3c-1.2,0-2.5-0.1-3.8-0.3c-9.7-1.6-19.6-10.1-19.7-23.1c-0.1-8.1,0.7-12.7,5.5-20
				c1.8-2.7,5.5-3.5,8.2-1.7c2.7,1.8,3.5,5.5,1.7,8.2c-3.3,5-3.6,7-3.5,13.5c0,6.8,5.1,10.7,9.8,11.5c2.3,0.4,8.1,0.6,10.6-6.5
				c3.5-9.9,6.2-15.5,9.4-19.6c3.8-4.9,10.4-7.1,17.3-5.8c7.4,1.4,13.4,6.6,15.4,13.5c4,13.2-2.4,26.1-2.7,26.6
				c-1.5,2.9-5,4.1-7.9,2.6c-2.9-1.5-4.1-5-2.6-7.9c0.1-0.2,4.5-9.4,1.9-17.9c-1-3.2-3.9-4.8-6.3-5.3c-2.4-0.5-4.7,0.1-5.7,1.5
				c-2.9,3.7-5.5,10.3-7.6,16.3C261.3,232.8,253.6,238.3,244.6,238.3L244.6,238.3z"/>
		</g>
		<g>
			<path class="st0" d="M299.3,220.8h-81.5c-3.3,0-5.9-2.6-5.9-5.9c0-3.3,2.6-5.9,5.9-5.9h81.5c3.3,0,5.9,2.6,5.9,5.9
				C305.2,218.1,302.6,220.8,299.3,220.8z"/>
		</g>
		<g>
			<path class="st0" d="M258.5,298.8c-3.3,0-5.9-2.6-5.9-5.9v-15.4c0-3.3,2.6-5.9,5.9-5.9c3.3,0,5.9,2.6,5.9,5.9v15.4
				C264.5,296.1,261.8,298.8,258.5,298.8z"/>
		</g>
		<g>
			<path class="st0" d="M258.5,159c-3.3,0-5.9-2.6-5.9-5.9v-15.4c0-3.3,2.6-5.9,5.9-5.9c3.3,0,5.9,2.6,5.9,5.9V153
				C264.5,156.3,261.8,159,258.5,159z"/>
		</g>
	</g>
	<path class="st10" d="M393.7,463.1h-84.8c-4.5,0-8.1-3.6-8.1-8.1v-27.5c0-4.5,3.6-8.1,8.1-8.1h84.8c4.5,0,8.1,3.6,8.1,8.1V455
		C401.8,459.5,398.2,463.1,393.7,463.1z"/>
	<path class="st11" d="M394.7,419.4h-15.8c3.9,0,7.1,4.1,7.1,9.2v25.3c0,5.1-3.2,9.2-7.1,9.2h15.8c3.9,0,7.1-4.1,7.1-9.2v-25.3
		C401.8,423.5,398.6,419.4,394.7,419.4L394.7,419.4z"/>
</g>
</svg>
