<svg id="Capa_1" enable-background="new 0 0 512.002 512.002" height="512" viewBox="0 0 512.002 512.002" width="512" xmlns="http://www.w3.org/2000/svg"><g id="XMLID_1694_"><g id="XMLID_814_"><g id="XMLID_818_"><path id="XMLID_899_" d="m429.453 194.002h-128.452c-5.523 0-10 4.477-10 10s4.477 10 10 10h89v43c0 22.607-18.393 41-41 41h-186c-22.607 0-41-18.393-41-41v-43h89c5.523 0 10-4.477 10-10s-4.477-10-10-10h-128.452c-5.523 0-10 4.477-10 10s4.477 10 10 10h19.452v43c0 29.628 21.236 54.379 49.284 59.859l-39.904 183.01c-.645 2.957.085 6.047 1.982 8.403 1.898 2.357 4.762 3.728 7.788 3.728h43.387c4.704 0 8.771-3.278 9.771-7.874l22.766-104.626h117.851l22.766 104.626c1 4.596 5.068 7.874 9.771 7.874h43.387c3.026 0 5.89-1.37 7.788-3.728 1.898-2.357 2.627-5.446 1.982-8.403l-39.905-183.01c28.048-5.48 49.284-30.231 49.284-59.859v-43h19.452c5.523 0 10-4.477 10-10 .002-5.523-4.475-10-9.998-10zm-272.973 298h-22.914l37.94-174h22.835zm44.947-112.5 13.382-61.5h82.384l13.382 61.5zm154.095 112.5-37.861-174h22.835l37.94 174z"/><path id="XMLID_908_" d="m453.004 128.002c-5.523 0-10 4.477-10 10 0 6.617-5.383 12-12 12s-12-5.383-12-12c0-5.523-4.477-10-10-10h-17.454c-4.21-12.761-16.238-22-30.391-22-6.682 0-12.889 2.061-18.026 5.577-3.557-3.445-8.393-5.577-13.724-5.577h-24.5c-5.331 0-10.167 2.132-13.724 5.577-5.137-3.516-11.345-5.577-18.026-5.577-6.647 0-12.826 2.039-17.948 5.522-3.564-3.491-8.435-5.652-13.806-5.652h-24.5c-5.37 0-10.24 2.161-13.804 5.65-5.121-3.482-11.3-5.52-17.946-5.52-6.647 0-12.826 2.039-17.948 5.521-3.564-3.491-8.435-5.652-13.805-5.652h-24.5c-10.89 0-19.75 8.86-19.75 19.75v2.38h-50.155c-5.523 0-10 4.477-10 10s4.477 10 10 10h50.154v2.12c0 10.89 8.86 19.75 19.75 19.75h24.5c5.293 0 10.095-2.104 13.645-5.506 5.154 3.551 11.391 5.636 18.109 5.636 6.717 0 12.954-2.085 18.107-5.634 3.549 3.4 8.351 5.504 13.643 5.504h24.5c5.293 0 10.095-2.104 13.645-5.506 5.154 3.551 11.391 5.636 18.109 5.636 6.682 0 12.889-2.061 18.026-5.577 3.557 3.445 8.392 5.577 13.724 5.577h24.5c5.331 0 10.167-2.132 13.724-5.577 5.137 3.516 11.345 5.577 18.026 5.577 14.153 0 26.181-9.239 30.391-22h9.054c4.208 12.763 16.246 22 30.4 22 17.645 0 32-14.355 32-32 0-5.522-4.477-9.999-10-9.999zm-299.852 21.869h-24v-24h24zm32.003.131c-6.617 0-12-5.383-12-12s5.383-12 12-12 12 5.383 12 12-5.383 12-12 12zm56-.131h-24v-24h24zm32.004.131c-6.617 0-12-5.383-12-12s5.383-12 12-12 12 5.383 12 12-5.383 12-12 12zm56 0h-24v-24h24zm32 0c-6.617 0-12-5.383-12-12s5.383-12 12-12 12 5.383 12 12-5.383 12-12 12z"/><path id="XMLID_914_" d="m332.843 67.446c-2.516 4.917-.57 10.941 4.346 13.458 1.458.746 3.014 1.1 4.547 1.1 3.635 0 7.141-1.988 8.91-5.446 6.427-12.558 6.427-27.553 0-40.111-3.507-6.853-3.507-15.036 0-21.889 2.516-4.917.57-10.941-4.346-13.458-4.916-2.516-10.941-.57-13.457 4.346-6.427 12.558-6.427 27.553 0 40.111 3.506 6.853 3.506 15.036 0 21.889z"/><path id="XMLID_915_" d="m247.226 67.446c-2.516 4.917-.57 10.941 4.346 13.458 1.459.746 3.014 1.1 4.547 1.1 3.635 0 7.141-1.988 8.91-5.446 6.427-12.558 6.427-27.553 0-40.111-3.507-6.853-3.507-15.036 0-21.889 2.516-4.917.57-10.941-4.346-13.458-4.914-2.516-10.941-.57-13.457 4.346-6.427 12.558-6.427 27.553 0 40.111 3.507 6.853 3.507 15.036 0 21.889z"/><path id="XMLID_916_" d="m161.609 67.446c-2.516 4.917-.57 10.941 4.346 13.458 1.459.746 3.014 1.1 4.547 1.1 3.635 0 7.141-1.988 8.91-5.446 6.427-12.558 6.427-27.553 0-40.111-3.507-6.853-3.507-15.036 0-21.889 2.516-4.917.57-10.941-4.346-13.458-4.915-2.516-10.941-.57-13.458 4.346-6.427 12.558-6.427 27.553 0 40.111 3.508 6.853 3.508 15.036.001 21.889z"/><path id="XMLID_917_" d="m263.071 211.072c1.86-1.86 2.93-4.44 2.93-7.07s-1.07-5.21-2.93-7.07-4.44-2.93-7.07-2.93-5.21 1.07-7.07 2.93-2.93 4.44-2.93 7.07 1.07 5.21 2.93 7.07 4.44 2.93 7.07 2.93 5.21-1.071 7.07-2.93z"/></g></g></g></svg>