<svg id="Capa_1" enable-background="new 0 0 512.006 512.006" height="512" viewBox="0 0 512.006 512.006" width="512" xmlns="http://www.w3.org/2000/svg"><g><g><g clip-rule="evenodd" fill-rule="evenodd"><path d="m114.131 82.823h30v45h-30z" fill="#ff80ab"/><circle cx="196.63" cy="105.323" fill="#fdd8a8" r="22.5"/><path d="m264.13 97.823c0-8.25-6.75-15-14.999-15h-15.001c-8.25 0-15 6.75-15 15v15.001c0 8.25 6.75 14.999 15 14.999h15.001c8.25 0 14.999-6.75 14.999-14.999z" fill="#ff80ab"/><ellipse cx="331.254" cy="105.324" fill="#fdd8a8" rx="37.125" ry="22.5"/><path d="m422.003 157.823h-332.001c-8.25 0-15 6.75-15 15v30.001c0 8.25 6.755 15 15 15h332.002c8.244 0 15-6.756 15-15v-30.001c-.001-8.245-6.751-15-15.001-15z" fill="#bfbec1"/><path d="m422.003 217.823h-332.001v41.248c0 32.175 25.828 58.61 57.775 59.592.614.022 1.23.032 1.849.032h30.068 152.617 30.068c.618 0 1.235-.01 1.849-.032 31.947-.983 57.775-27.418 57.775-59.592z" fill="#ff80ab"/><path d="m148.548 444.5 31.146-125.805h-30.068c-.619 0-1.235-.01-1.849-.032l-46.009 185.837h31.925l7.427-30 200.448.001c-3.404-9.63-3.408-20.372.003-30.001z" fill="#bfbec1"/><path d="m325.9 474.501h15.669c-3.404-9.63-3.408-20.372.003-30.001h-15.677c-2.516 9.79-2.517 20.211.005 30.001z" fill="#9c9c9f"/><path d="m387.999 414.678-23.771-96.012c-.614.019-1.23.029-1.849.029h-30.068l25.755 104.031c8.695-6.145 19.337-9.009 29.933-8.048z" fill="#bfbec1"/><path d="m429.008 459.5c0-24.852-20.131-44.957-44.919-45-25.052 0-45.081 20.222-45.081 45 0 24.707 20.001 45 45 45 24.853 0 45-20.147 45-45zm-60 0c0-8.284 6.716-15 15-15s15 6.716 15 15-6.716 15-15 15-15-6.716-15-15z" fill="#bfbec1"/><circle cx="384.008" cy="459.5" fill="#ff80ab" r="15"/><path d="m112.502 157.823h-22.5c-8.25 0-15 6.75-15 15v30.001c0 8.25 6.755 15 15 15h22.5c-8.244 0-15-6.75-15-15v-30.001c0-8.25 6.75-15 15-15z" fill="#9c9c9f"/><path d="m112.502 217.823h-22.5v41.248c0 32.175 25.828 58.61 57.775 59.592.614.022 1.23.032 1.849.032h22.384c-32.74-.064-59.508-26.874-59.508-59.624z" fill="#ff4081"/><path d="m163.732 318.695h-14.106c-.619 0-1.235-.01-1.849-.032l-46.009 185.837h15.963z" fill="#9c9c9f"/><path d="m364.236 318.695-.007-.029c-.576.018-1.153.027-1.733.029zm23.763 95.983c-10.602-.963-21.27 1.925-29.934 8.048l-25.755-104.031h15.034l20.548 82.998c5.156-1.434 10.592-2.198 16.208-2.193l.141.002z" fill="#9c9c9f"/><path d="m391.528 415.129c-27.363-4.605-52.52 16.4-52.52 44.371 0 27.959 25.139 48.963 52.494 44.375-49.549-8.3-49.596-80.431.026-88.746z" fill="#9c9c9f"/><path d="m387.758 444.972c-9.42-2.424-18.75 4.67-18.75 14.527s9.33 16.952 18.75 14.528c-14.902-3.835-14.902-25.22 0-29.055z" fill="#ff4081"/><path d="m114.131 105.324h30v22.5h-30z" fill="#ff4081"/><path d="m219.13 105.323c0-4.098-1.096-7.94-3.011-11.25-3.89 6.725-11.161 11.25-19.489 11.25s-15.599-4.525-19.489-11.25c-1.914 3.309-3.011 7.152-3.011 11.25 0 12.427 10.074 22.5 22.5 22.5s22.5-10.073 22.5-22.5z" fill="#ffc477"/><path d="m264.13 97.823c0-1.293-.166-2.55-.478-3.75-1.676 6.451-7.565 11.25-14.522 11.25h-15c-6.957 0-12.846-4.799-14.522-11.25-.312 1.2-.478 2.456-.478 3.75v15.001c0 8.25 6.75 14.999 15 14.999h15.001c8.25 0 14.999-6.75 14.999-14.999z" fill="#ff4081"/><path d="m368.378 105.324c0-4.098-1.809-7.94-4.968-11.25-6.419 6.725-18.415 11.25-32.157 11.25-13.741 0-25.738-4.525-32.157-11.25-3.159 3.31-4.968 7.152-4.968 11.25 0 12.426 16.621 22.5 37.125 22.5s37.125-10.074 37.125-22.5z" fill="#ffc477"/></g><g><path d="m308.754 52.5h-15v-22.5h15zm-45 0h-15v-22.5h15zm-44.999 0h-15v-22.5h15zm-44.999 0h-15v-22.5h15zm134.998-37.5h-15v-15h15zm-45 0h-15v-15h15zm-44.999 0h-15v-15h15zm-44.999 0h-15v-15h15z" fill="#bfbec1"/></g><g><path d="m362.38 296.201v-15c8.488 0 16.352-5.031 20.03-12.817l13.563 6.408c-6.146 13.006-19.333 21.409-33.593 21.409zm37.124-39.232h-15v-14.999h15z" fill="#fff"/></g><g><path d="m414.504 195.329h-37.5v-15h37.5zm-52.5 0h-15v-15h15z" fill="#fff"/></g><g><path d="m112.502 240.329h15v15h-15z" fill="#fff"/></g></g><g><path d="m248.503 225.329v-15h-158.501c-4.135 0-7.5-3.364-7.5-7.5v-30c0-4.136 3.364-7.5 7.5-7.5h37.5v-15h-37.5c-12.406 0-22.5 10.094-22.5 22.5v30c0 12.406 10.093 22.5 22.5 22.5z"/><path d="m422.004 150.329h-279.502v15h279.502c4.136 0 7.5 3.364 7.5 7.5v30c0 4.136-3.364 7.5-7.5 7.5h-158.501v15h158.501c12.406 0 22.5-10.094 22.5-22.5v-30c0-12.406-10.094-22.5-22.5-22.5z"/><path d="m185.564 326.201h140.878l18.749 75.731 14.561-3.605-17.856-72.126h16.472l17.042 68.832 14.561-3.605-16.385-66.18c31.695-5.351 55.92-32.977 55.92-66.171v-18.748h-15v18.748c0 28.741-23.383 52.124-52.124 52.124h-212.756c-28.741 0-52.124-23.383-52.124-52.124v-18.748h-15v18.748c0 33.194 24.225 60.82 55.92 66.171l-46.237 186.758h47.378l7.427-30h172.082v-15h-183.821l-7.427 30h-16.473l42.287-170.805h16.472l-31.146 125.805h180.107v-15h-160.94z"/><path d="m384.008 407.006c-28.948 0-52.5 23.552-52.5 52.5s23.552 52.5 52.5 52.5 52.5-23.552 52.5-52.5-23.552-52.5-52.5-52.5zm0 90c-20.678 0-37.5-16.822-37.5-37.5s16.822-37.5 37.5-37.5 37.5 16.822 37.5 37.5-16.823 37.5-37.5 37.5z"/><path d="m384.008 437.006c-12.406 0-22.5 10.094-22.5 22.5s10.094 22.5 22.5 22.5 22.5-10.094 22.5-22.5-10.094-22.5-22.5-22.5zm0 30c-4.136 0-7.5-3.364-7.5-7.5s3.364-7.5 7.5-7.5 7.5 3.364 7.5 7.5-3.365 7.5-7.5 7.5z"/><path d="m106.631 135.329h45v-22.5h15.948c3.339 12.925 15.097 22.5 29.051 22.5 7.842 0 14.988-3.028 20.338-7.972 4.13 4.872 10.289 7.972 17.161 7.972h15.001c12.406 0 22.499-10.093 22.499-22.499h16.354c4.835 13.079 22.113 22.5 43.27 22.5s38.436-9.421 43.271-22.5h62.479v-15h-62.479c-4.835-13.079-22.114-22.5-43.271-22.5s-38.435 9.421-43.27 22.5h-16.353v-.001c0-12.406-10.093-22.5-22.499-22.5h-15.001c-6.872 0-13.031 3.101-17.161 7.972-5.351-4.944-12.496-7.972-20.338-7.972-13.953 0-25.712 9.575-29.051 22.5h-15.948v-22.5h-45v22.501h-31.63v15h31.629zm224.623-44.999c16.956 0 29.625 7.919 29.625 15s-12.669 15-29.625 15c-16.955 0-29.624-7.919-29.624-15s12.669-15 29.624-15zm-104.624 7.499c0-4.136 3.364-7.5 7.5-7.5h15.001c4.135 0 7.499 3.364 7.499 7.5v15.001c0 4.135-3.364 7.499-7.499 7.499h-15.001c-4.135 0-7.5-3.364-7.5-7.499zm-30-7.5c8.271 0 15 6.729 15 15s-6.729 15-15 15-15-6.729-15-15 6.729-15 15-15zm-74.999 0h15v30h-15z"/><path d="m263.503 260.766h15v15h-15z"/><path d="m233.503 260.766h15v15h-15z"/></g></g></svg>