<svg id="Layer_1" height="512" viewBox="0 0 512 512" width="512" xmlns="http://www.w3.org/2000/svg" data-name="Layer 1"><path d="m389.227 305.986a83.137 83.137 0 0 1 -20.28 2.49h-155.736a83.384 83.384 0 0 1 -83.428-83.437v-.89h322.6v.89a83.462 83.462 0 0 1 -63.156 80.947z" fill="#486c8b"/><path d="m129.783 180.34h322.602v43.809h-322.602z" fill="#5784a0"/><path d="m204.581 383.674-8.819 31.29-21.3 75.518h-33.379l51.859-184.482v-.01a83.1 83.1 0 0 0 20.269 2.49h12.58z" fill="#486c8b"/><path d="m159.782 225.038v-.889h-30v.889a83.384 83.384 0 0 0 83.428 83.438h30a83.384 83.384 0 0 1 -83.428-83.438z" fill="#598baa"/><path d="m129.783 180.34h29.999v43.809h-29.999z" fill="#71a3bc"/><path d="m192.942 305.986v.014l-51.859 184.482h20l51.166-182.02a83.059 83.059 0 0 1 -19.307-2.476z" fill="#598baa"/><path d="m377.567 383.674-21.167-75.048v-.15h12.55a83.137 83.137 0 0 0 20.28-2.49l51.848 184.5h-33.378l-21.329-75.628z" fill="#486c8b"/><path d="m386.367 414.854-.38.11h-190.225l8.819-31.29h172.986z" fill="#5784a0"/><path d="m305.659 100.542h25.029v53.379h-25.029z" fill="#a2d4a8"/><path d="m243.07 100.542h25.039v53.379h-25.039z" fill="#f94730"/><path d="m181.042 100.542h25.029v53.379h-25.029z" fill="#ea836f"/><path d="m88.824 112.621h55.709v29.209h-55.709z" fill="#4d7695"/><path d="m88.824 112.621v29.21h-14.6a14.605 14.605 0 1 1 0-29.21z" fill="#598baa"/><path d="m349.728 108.731a18.5 18.5 0 1 1 -18.49 18.5 18.5 18.5 0 0 1 18.49-18.5z" fill="#fad076"/><circle cx="287.159" cy="127.231" fill="#fad076" r="18.5"/><circle cx="224.571" cy="127.231" fill="#fad076" r="18.5"/><path d="m144.094 121.486h36.94v12h-36.94z" fill="#b0b5ca"/><path d="m421.262 133.486h-27.554a6 6 0 0 1 0-12h27.554a6 6 0 1 1 0 12z" fill="#b0b5ca"/><g fill="#d4e1f4"><path d="m218.869 81.6a6 6 0 0 1 -6-6c0-9.208 4.736-14.141 8.193-17.744 3.025-3.15 4.851-5.052 4.851-9.432s-1.826-6.282-4.85-9.432c-3.458-3.6-8.194-8.535-8.194-17.743a6 6 0 1 1 12 0c0 4.38 1.826 6.282 4.85 9.432 3.458 3.6 8.194 8.535 8.194 17.743s-4.736 14.141-8.194 17.743c-3.024 3.15-4.85 5.052-4.85 9.433a6 6 0 0 1 -6 6z"/><path d="m261.812 81.6a6 6 0 0 1 -6-6c0-9.208 4.735-14.141 8.193-17.744 3.025-3.15 4.851-5.052 4.851-9.432s-1.826-6.282-4.851-9.432c-3.457-3.6-8.193-8.535-8.193-17.743a6 6 0 0 1 12 0c0 4.38 1.826 6.282 4.85 9.432 3.458 3.6 8.194 8.535 8.194 17.743s-4.736 14.141-8.194 17.743c-3.024 3.15-4.85 5.052-4.85 9.433a6 6 0 0 1 -6 6z"/><path d="m303.712 81.6a6 6 0 0 1 -6-6c0-9.208 4.736-14.141 8.193-17.744 3.025-3.15 4.85-5.052 4.85-9.432s-1.825-6.282-4.85-9.432c-3.457-3.6-8.193-8.535-8.193-17.743a6 6 0 0 1 12 0c0 4.38 1.826 6.282 4.85 9.432 3.458 3.6 8.193 8.535 8.193 17.743s-4.735 14.141-8.193 17.743c-3.024 3.15-4.85 5.052-4.85 9.433a6 6 0 0 1 -6 6z"/><path d="m346.655 81.6a6 6 0 0 1 -6-6c0-9.208 4.735-14.141 8.193-17.744 3.025-3.15 4.85-5.052 4.85-9.432s-1.825-6.282-4.85-9.432c-3.458-3.6-8.193-8.535-8.193-17.743a6 6 0 0 1 12 0c0 4.38 1.825 6.282 4.85 9.432 3.458 3.6 8.193 8.535 8.193 17.743s-4.735 14.141-8.193 17.743c-3.025 3.15-4.85 5.052-4.85 9.433a6 6 0 0 1 -6 6z"/></g><path d="m273.07 257.884h-83.613a6 6 0 1 1 0-12h83.613a6 6 0 0 1 0 12z" fill="#f4f8fc"/><path d="m169.07 257.884h-4.807a6 6 0 1 1 0-12h4.807a6 6 0 0 1 0 12z" fill="#f4f8fc"/><path d="m368.227 100.542h25.039v53.379h-25.039z" fill="#4aa853"/></svg>