<?xml version="1.0" encoding="utf-8"?>
<!-- Generator: Adobe Illustrator 24.3.0, SVG Export Plug-In . SVG Version: 6.00 Build 0)  -->
<svg version="1.1" id="Layer_1" xmlns="http://www.w3.org/2000/svg" xmlns:xlink="http://www.w3.org/1999/xlink" x="0px" y="0px"
	 viewBox="0 0 512 512" style="enable-background:new 0 0 512 512;" xml:space="preserve">
<style type="text/css">
	.st0{fill:#56788B;}
	.st1{fill:#415E6F;}
	.st2{fill:#D9F0F4;}
	.st3{fill:#BAE1E5;}
	.st4{fill:#4DD4F7;}
	.st5{fill:#00C2F3;}
	.st6{fill:#FFFFFF;}
	.st7{fill:#FF6B81;}
	.st8{fill:#FBDF63;}
	.st9{fill:#FFA402;}
	.st10{fill:#90ABBD;}
</style>
<g>
	<g>
		<g>
			<path class="st0" d="M383.4,101.7v308.7c0,22.5-18.3,40.8-40.7,40.8H169.1c-22.5,0-40.7-18.3-40.7-40.8V101.7
				c0-22.5,18.3-40.8,40.7-40.8h173.5C365.1,60.9,383.4,79.2,383.4,101.7z"/>
			<path class="st1" d="M383.4,101.7v308.7c0,22.5-18.3,40.8-40.7,40.8h-15.2c22.5,0,40.7-18.3,40.7-40.8V101.7
				c0-22.5-18.3-40.8-40.7-40.8h15.2C365.1,60.9,383.4,79.2,383.4,101.7z"/>
			<path class="st2" d="M360.5,100.7v310.6c0,10-8.1,18.1-18.1,18.1H169.3c-10,0-18.1-8.1-18.1-18.1V100.7c0-10,8.1-18.1,18.1-18.1
				h18.1c2.5,0,4.7,1.6,5.4,4l4.5,13.9c1.1,3.5,4.3,5.8,7.9,5.8h101.3c3.6,0,6.8-2.3,7.9-5.8l4.5-13.9c0.8-2.4,3-4,5.4-4h18.1
				C352.4,82.6,360.5,90.7,360.5,100.7L360.5,100.7z"/>
			<path class="st3" d="M360.5,100.7v310.6c0,10-8.1,18.1-18.1,18.1h-15.2c10,0,18.1-8.1,18.1-18.1V100.7c0-10-8.1-18.1-18.1-18.1
				h15.2C352.4,82.6,360.5,90.7,360.5,100.7L360.5,100.7z"/>
			<path class="st1" d="M286.8,77.6h-61.9c-3.2,0-5.7,2.6-5.7,5.7s2.6,5.7,5.7,5.7h61.9c3.2,0,5.7-2.6,5.7-5.7S290,77.6,286.8,77.6z
				"/>
			<path class="st0" d="M286.8,392.2h-61.9c-3.2,0-5.7,2.6-5.7,5.7s2.6,5.7,5.7,5.7h61.9c3.2,0,5.7-2.6,5.7-5.7
				S290,392.2,286.8,392.2z"/>
			<path class="st4" d="M191.8,152.9v57.6c0,9.6-7.8,17.5-17.5,17.5h-74.1l-30.1,22.9c-1,0.8-2.2,1.2-3.5,1.2
				c-0.9,0-1.7-0.2-2.5-0.6c-1.9-1-3.2-2.9-3.2-5.1v-93.5c0-9.6,7.8-17.5,17.5-17.5h96C183.9,135.4,191.8,143.2,191.8,152.9
				L191.8,152.9z"/>
			<path class="st5" d="M191.8,152.9v57.6c0,9.6-7.8,17.5-17.5,17.5h-15.2c9.6,0,17.5-7.8,17.5-17.5v-57.6c0-9.6-7.8-17.5-17.5-17.5
				h15.2C183.9,135.4,191.8,143.2,191.8,152.9z"/>
			<g>
				<path class="st6" d="M156.8,162.6H95.9c-3.2,0-5.7,2.6-5.7,5.7c0,3.2,2.6,5.7,5.7,5.7h60.9c3.2,0,5.7-2.6,5.7-5.7
					C162.5,165.2,159.9,162.6,156.8,162.6z"/>
				<path class="st6" d="M149.2,188.5H95.9c-3.2,0-5.7,2.6-5.7,5.7c0,3.2,2.6,5.7,5.7,5.7h53.3c3.2,0,5.7-2.6,5.7-5.7
					C154.9,191.1,152.3,188.5,149.2,188.5z"/>
			</g>
		</g>
	</g>
	<g>
		<path class="st7" d="M408.1,200.6c-3.5-3.5-8.3-5.5-13.3-5.5c-5,0-9.7,2-13.3,5.5l-8.6,8.6c-2.2,2.2-2.2,5.9,0,8.1l18.5,18.5
			c1.1,1.1,2.5,1.7,4,1.7s3-0.6,4-1.7l8.6-8.6C415.4,219.8,415.4,207.9,408.1,200.6z"/>
		<path class="st7" d="M314.8,323.7L285,294c-1.1-1.1-2.5-1.7-4-1.7c-1.5,0-3,0.6-4,1.7c-10.4,10.4-10.4,27.4,0,37.8
			c5.1,5.1,11.8,7.8,18.9,7.8c7.1,0,13.9-2.8,18.9-7.8C317,329.6,317,326,314.8,323.7L314.8,323.7z"/>
		<path class="st8" d="M345.1,360.8c-1.1,0.3-2.2,0.4-3.2,0.4c-3.7,0-7.2-1.4-9.9-4.1l-10.8-10.8l-69.4-69.4
			c-3.5-3.5-4.9-8.4-3.8-13.2c1.1-4.8,4.6-8.6,9.2-10.1l25.8-8.7l27.5-27.5c10.8-10.8,25.2-16.8,40.5-16.8
			c12.7,0,24.8,4.1,34.7,11.7c2,1.5,3.9,3.2,5.7,5c10.8,10.8,16.8,25.2,16.8,40.5c0,15.3-6,29.7-16.8,40.5L364,325.8l-8.7,25.8
			c0,0,0,0,0,0C353.6,356.3,349.8,359.7,345.1,360.8L345.1,360.8z"/>
		<path class="st9" d="M355.2,351.6c-1.6,4.7-5.4,8.1-10.2,9.2c-1.1,0.3-2.2,0.4-3.2,0.4c-3.7,0-7.2-1.4-9.9-4.1l-10.7-10.7
			c2.7,2.6,6.2,4,9.8,4c1.1,0,2.2-0.1,3.2-0.4c4.8-1.1,8.6-4.6,10.2-9.2c0,0,0,0,0,0l8.7-25.8l27.5-27.5
			c10.8-10.8,16.8-25.2,16.8-40.5c0-12.7-4.1-24.8-11.7-34.8c2,1.5,3.9,3.2,5.7,5c10.8,10.8,16.8,25.2,16.8,40.5
			c0,15.3-6,29.7-16.8,40.5L364,325.8L355.2,351.6C355.2,351.6,355.2,351.6,355.2,351.6L355.2,351.6z"/>
	</g>
	<g>
		<path class="st7" d="M299.6,181.6c-9.5,0-17.1,7.7-17.1,17.1c0,3.2,2.6,5.7,5.7,5.7s5.7-2.6,5.7-5.7c0-3.2,2.6-5.7,5.7-5.7
			c3.2,0,5.7-2.6,5.7-5.7C305.4,184.2,302.8,181.6,299.6,181.6z"/>
		<path class="st7" d="M299.6,157.5c-22.7,0-41.2,18.5-41.2,41.2c0,3.2,2.6,5.7,5.7,5.7s5.7-2.6,5.7-5.7c0-16.4,13.4-29.8,29.8-29.8
			c3.2,0,5.7-2.6,5.7-5.7C305.4,160.1,302.8,157.5,299.6,157.5z"/>
		<path class="st7" d="M409.9,326.2c9.5,0,17.1-7.7,17.1-17.1c0-3.2-2.6-5.7-5.7-5.7s-5.7,2.6-5.7,5.7c0,3.2-2.6,5.7-5.7,5.7
			c-3.2,0-5.7,2.6-5.7,5.7S406.7,326.2,409.9,326.2z"/>
		<path class="st7" d="M445.4,303.3c-3.2,0-5.7,2.6-5.7,5.7c0,16.4-13.4,29.8-29.8,29.8c-3.2,0-5.7,2.6-5.7,5.7
			c0,3.2,2.6,5.7,5.7,5.7c22.7,0,41.2-18.5,41.2-41.2C451.1,305.9,448.6,303.3,445.4,303.3z"/>
	</g>
	<g>
		<path class="st10" d="M191,342.4h24.5c3.2,0,5.7-2.6,5.7-5.7s-2.6-5.7-5.7-5.7H191c-3.2,0-5.7,2.6-5.7,5.7S187.8,342.4,191,342.4z
			"/>
		<path class="st10" d="M230.7,357.7H191c-3.2,0-5.7,2.6-5.7,5.7c0,3.2,2.6,5.7,5.7,5.7h39.7c3.2,0,5.7-2.6,5.7-5.7
			C236.4,360.2,233.9,357.7,230.7,357.7L230.7,357.7z"/>
	</g>
</g>
</svg>
