<svg height="512pt" viewBox="0 -15 512.001 512" width="512pt" xmlns="http://www.w3.org/2000/svg"><path d="m165.652344 475.003906h-33.832032c-7.457031 0-13.5-6.042968-13.5-13.5v-36.597656h60.832032v36.597656c0 7.457032-6.042969 13.5-13.5 13.5zm0 0" fill="#5a5a5a"/><path d="m159.113281 424.90625v36.570312c0 7.472657-6.054687 13.527344-13.523437 13.527344h20.039062c7.46875 0 13.523438-6.054687 13.523438-13.527344v-36.570312zm0 0" fill="#444"/><path d="m380.179688 475.003906h-33.832032c-7.457031 0-13.5-6.042968-13.5-13.5v-36.597656h60.832032v36.597656c0 7.457032-6.042969 13.5-13.5 13.5zm0 0" fill="#5a5a5a"/><path d="m373.640625 424.90625v36.570312c0 7.472657-6.054687 13.527344-13.527344 13.527344h20.039063c7.46875 0 13.527344-6.054687 13.527344-13.527344v-36.570312zm0 0" fill="#444"/><path d="m409.011719 436.496094h-306.023438c-11.066406 0-20.039062-8.96875-20.039062-20.039063v-388.902343c0-11.066407 8.972656-20.039063 20.039062-20.039063h306.023438c11.066406 0 20.039062 8.972656 20.039062 20.039063v388.902343c0 11.070313-8.972656 20.039063-20.039062 20.039063zm0 0" fill="#7ca1b1"/><path d="m409.011719 7.515625h-31.929688v367.292969c0 11.070312-8.972656 20.039062-20.039062 20.039062h-274.09375v21.613282c0 11.066406 8.972656 20.039062 20.039062 20.039062h306.023438c11.066406 0 20.039062-8.972656 20.039062-20.039062v-388.90625c0-11.066407-8.972656-20.039063-20.039062-20.039063zm0 0" fill="#678d98"/><path d="m102.988281 290.644531h306.023438c11.066406 0 20.039062-8.972656 20.039062-20.039062v-212.414063h-346.101562v212.414063c0 11.066406 8.972656 20.039062 20.039062 20.039062zm0 0" fill="#5a5a5a"/><path d="m429.050781 270.605469v-212.414063h-51.96875v232.453125h31.929688c11.066406 0 20.039062-8.972656 20.039062-20.039062zm0 0" fill="#444"/><path d="m82.949219 97.265625h346.105469v157.386719h-346.105469zm0 0" fill="#d5f3f7"/><path d="m377.082031 97.265625h51.96875v157.386719h-51.96875zm0 0" fill="#a7e8f1"/><path d="m49.484375 194.035156h-33.949219c-4.429687 0-8.019531-3.589844-8.019531-8.019531v-80.140625c0-4.429688 3.589844-8.023438 8.019531-8.023438h33.949219c4.429687 0 8.019531 3.59375 8.019531 8.023438v80.140625c0 4.429687-3.589844 8.019531-8.019531 8.019531zm0 0" fill="#9c9c9c"/><path d="m49.46875 97.851562h-12.703125v73.117188c0 4.441406-3.597656 8.039062-8.035156 8.039062h-21.214844v6.992188c0 4.4375 3.597656 8.035156 8.035156 8.035156h33.917969c4.4375 0 8.035156-3.597656 8.035156-8.035156v-80.109375c0-4.4375-3.597656-8.039063-8.035156-8.039063zm0 0" fill="#838383"/><path d="m496.464844 194.035156h-33.949219c-4.429687 0-8.019531-3.589844-8.019531-8.019531v-80.140625c0-4.429688 3.589844-8.023438 8.019531-8.023438h33.949219c4.429687 0 8.019531 3.59375 8.019531 8.023438v80.140625c0 4.429687-3.589844 8.019531-8.019531 8.019531zm0 0" fill="#9c9c9c"/><path d="m496.449219 97.851562h-12.703125v73.117188c0 4.441406-3.597656 8.039062-8.035156 8.039062h-21.214844v6.992188c0 4.4375 3.597656 8.035156 8.035156 8.035156h33.917969c4.4375 0 8.035156-3.597656 8.035156-8.035156v-80.109375c0-4.4375-3.597656-8.039063-8.035156-8.039063zm0 0" fill="#838383"/><path d="m185.621094 369.800781h-46.140625c-12.152344 0-22-9.851562-22-22v-12.078125c0-2.757812 2.238281-5 5-5h46.140625c12.152344 0 22 9.851563 22 22v12.078125c0 2.761719-2.238282 5-5 5zm0 0" fill="#ffd500"/><path d="m326.378906 369.800781h46.140625c12.152344 0 22-9.851562 22-22v-12.078125c0-2.757812-2.238281-5-5-5h-46.140625c-12.152344 0-22 9.851563-22 22v12.078125c0 2.761719 2.238282 5 5 5zm0 0" fill="#ffd500"/><path d="m169.277344 330.742188c2.25 3.453124 3.558594 7.574218 3.558594 12.003906v12.023437c0 2.769531-2.242188 5.011719-5.007813 5.011719h-46.089844c-.234375 0-.46875-.011719-.699219-.019531 3.933594 6.039062 10.738282 10.039062 18.484376 10.039062h46.089843c2.765625 0 5.007813-2.246093 5.007813-5.011719v-12.023437c0-11.9375-9.492188-21.65625-21.34375-22.023437zm0 0" fill="#fbc700"/><path d="m389.511719 330.722656h-12.777344v7.015625c0 12.171875-9.867187 22.042969-22.042969 22.042969h-33.3125v5.007812c0 2.769532 2.242188 5.011719 5.007813 5.011719h46.089843c12.175782 0 22.042969-9.871093 22.042969-22.042969v-12.023437c0-2.769531-2.242187-5.011719-5.007812-5.011719zm0 0" fill="#fbc700"/><path d="m289.175781 410.210938h-66.351562c-1.164063 0-2.105469-.941407-2.105469-2.105469v-19.832031c0-1.164063.941406-2.109376 2.105469-2.109376h66.351562c1.164063 0 2.105469.945313 2.105469 2.109376v19.832031c0 1.164062-.941406 2.105469-2.105469 2.105469zm0 0" fill="#e7e7e7"/><path d="m289.171875 386.164062h-14.695313c1.167969 0 2.113282.945313 2.113282 2.113282v19.824218c0 1.164063-.945313 2.109376-2.113282 2.109376h14.695313c1.167969 0 2.109375-.945313 2.109375-2.109376v-19.824218c0-1.167969-.941406-2.113282-2.109375-2.113282zm0 0" fill="#cecece"/><path d="m496.449219 90.339844h-9.457031c-.269532-14.960938-12.515626-27.050782-27.539063-27.050782h-22.886719v-35.734374c0-15.191407-12.363281-27.554688-27.554687-27.554688h-306.023438c-15.195312 0-27.554687 12.363281-27.554687 27.554688v35.734374h-22.886719c-15.023437 0-27.269531 12.089844-27.539063 27.050782h-9.457031c-8.574219 0-15.550781 6.976562-15.550781 15.550781v80.109375c0 8.574219 6.976562 15.550781 15.550781 15.550781h33.917969c8.574219 0 15.550781-6.976562 15.550781-15.550781v-80.109375c0-8.574219-6.976562-15.550781-15.550781-15.550781h-9.417969c.265625-6.671875 5.761719-12.023438 12.496094-12.023438h22.886719v278.792969c0 4.152344 3.363281 7.515625 7.515625 7.515625 4.148437 0 7.515625-3.363281 7.515625-7.515625v-61.972656c3.757812 1.929687 8.015625 3.023437 12.523437 3.023437h306.023438c4.507812 0 8.765625-1.09375 12.523437-3.023437v121.324219c0 6.90625-5.617187 12.523437-12.523437 12.523437h-306.023438c-6.90625 0-12.523437-5.617187-12.523437-12.523437v-24.617188c0-4.148438-3.367188-7.515625-7.515625-7.515625-4.152344 0-7.515625 3.367187-7.515625 7.515625v24.617188c0 15.191406 12.359375 27.550781 27.554687 27.550781h7.816407v17.46875c0 11.601562 9.4375 21.042969 21.042968 21.042969h33.78125c11.601563 0 21.039063-9.441407 21.039063-21.042969v-17.46875h138.664062v17.46875c0 11.601562 9.4375 21.042969 21.039063 21.042969h33.78125c11.605468 0 21.042968-9.441407 21.042968-21.042969v-17.46875h7.816407c15.195312 0 27.554687-12.359375 27.554687-27.550781v-338.144532h22.886719c6.734375 0 12.230469 5.351563 12.5 12.023438h-9.417969c-8.574218 0-15.554687 6.976562-15.554687 15.550781v80.109375c0 8.574219 6.980469 15.550781 15.554687 15.550781h33.914063c8.574219 0 15.550781-6.976562 15.550781-15.550781v-80.109375c0-8.574219-6.976562-15.550781-15.550781-15.550781zm-446.980469 15.027344c.289062 0 .519531.234374.519531.523437v80.109375c0 .289062-.234375.523438-.519531.523438h-33.917969c-.289062 0-.523437-.234376-.523437-.523438v-80.109375c0-.289063.234375-.523437.523437-.523437zm122.171875 356.113281c0 3.3125-2.699219 6.011719-6.011719 6.011719h-33.78125c-3.316406 0-6.011718-2.699219-6.011718-6.011719v-17.46875h45.800781v17.46875zm214.523437 0c0 3.3125-2.695312 6.011719-6.011718 6.011719h-33.78125c-3.3125 0-6.011719-2.699219-6.011719-6.011719v-17.46875h45.804687zm35.371094-371.726563h-303.472656c-4.148438 0-7.511719 3.363282-7.511719 7.515625 0 4.148438 3.363281 7.515625 7.511719 7.515625h303.476562v142.351563h-49.644531c-4.152343 0-7.515625 3.363281-7.515625 7.515625s3.363282 7.515625 7.515625 7.515625h49.644531v8.441406c0 6.902344-5.617187 12.523437-12.523437 12.523437h-306.027344c-6.90625 0-12.523437-5.621093-12.523437-12.523437v-8.441406h246.359375c4.152343 0 7.515625-3.363281 7.515625-7.515625s-3.363282-7.515625-7.515625-7.515625h-73.910157l70.894532-59.265625c3.179687-2.65625 3.601562-7.386719.945312-10.566406-2.65625-3.175782-7.386718-3.601563-10.566406-.941407l-84.660156 70.773438h-32.269532l70.894532-59.265625c3.179687-2.65625 3.601562-7.386719.945312-10.5625-2.65625-3.179688-7.386718-3.605469-10.566406-.945313l-84.660156 70.777344h-93.40625v-181.433594h331.070312zm0-39.078125h-331.070312v-23.121093c0-6.90625 5.617187-12.523438 12.523437-12.523438h306.023438c6.90625 0 12.523437 5.617188 12.523437 12.523438zm75.4375 135.324219c0 .289062-.234375.523438-.523437.523438h-33.914063c-.289062 0-.523437-.234376-.523437-.523438v-80.109375c0-.289063.234375-.523437.523437-.523437h33.914063c.289062 0 .523437.234374.523437.523437zm0 0"/><path d="m185.613281 377.316406c6.90625 0 12.523438-5.621094 12.523438-12.527344v-12.023437c0-16.296875-13.257813-29.554687-29.558594-29.554687h-46.089844c-6.90625 0-12.523437 5.617187-12.523437 12.523437v12.023437c0 16.296876 13.257812 29.558594 29.558594 29.558594zm-60.621093-29.558594v-9.519531h43.585937c8.011719 0 14.527344 6.519531 14.527344 14.527344v9.519531h-43.582031c-8.011719 0-14.53125-6.519531-14.53125-14.527344zm0 0"/><path d="m372.476562 377.316406c16.300782 0 29.558594-13.261718 29.558594-29.558594v-12.023437c0-6.90625-5.617187-12.523437-12.523437-12.523437h-46.089844c-16.296875 0-29.558594 13.257812-29.558594 29.554687v12.023437c0 6.90625 5.617188 12.527344 12.523438 12.527344zm-43.585937-24.550781c0-8.011719 6.519531-14.527344 14.53125-14.527344h43.582031v9.519531c0 8.011719-6.515625 14.527344-14.527344 14.527344h-43.585937zm0 0"/><path d="m289.171875 417.726562c5.308594 0 9.625-4.316406 9.625-9.625v-19.824218c0-5.308594-4.316406-9.625-9.625-9.625h-66.34375c-5.308594 0-9.625 4.316406-9.625 9.625v19.824218c0 5.308594 4.316406 9.625 9.625 9.625zm-60.941406-24.046874h55.539062v9.019531h-55.539062zm0 0"/></svg>