<?xml version="1.0" encoding="utf-8"?>
<!-- Generator: Adobe Illustrator 24.3.0, SVG Export Plug-In . SVG Version: 6.00 Build 0)  -->
<svg version="1.1" id="Layer_1" xmlns="http://www.w3.org/2000/svg" xmlns:xlink="http://www.w3.org/1999/xlink" x="0px" y="0px"
	 viewBox="0 0 512 512" style="enable-background:new 0 0 512 512;" xml:space="preserve">
<style type="text/css">
	.st0{fill:#F0915A;}
	.st1{fill:#555A6E;}
	.st2{fill:#463C4B;}
	.st3{fill:#78AF41;}
	.st4{fill:#466932;}
	.st5{fill:#FAB991;}
</style>
<g>
	<g>
		<path class="st0" d="M242.8,92.3c-6.9,0-13.6,2.8-18.5,7.7l-70.9,70.9v65.5h196.4c21.7,0,39.3-17.6,39.3-39.3h26.2V92.3H242.8z"/>
	</g>
	<g>
		<path class="st1" d="M454.6,216.7v-144H435c-10.8,0-19.6,8.8-19.6,19.6v104.8c0,10.8,8.8,19.6,19.6,19.6H454.6z"/>
	</g>
	<g>
		<path class="st2" d="M435,157.8v58.9h19.6v-72h-6.5C440.8,144.7,435,150.6,435,157.8z"/>
	</g>
	<g>
		<path class="st3" d="M402.2,275.6V138.1c0-7.2-5.9-13.1-13.1-13.1H127.2c-7.2,0-13.1,5.9-13.1,13.1v137.5
			c0,7.2,5.9,13.1,13.1,13.1h261.9C396.4,288.7,402.2,282.9,402.2,275.6z"/>
	</g>
	<g>
		<path class="st4" d="M133.8,242.9v-72c0-3.6,2.9-6.5,6.5-6.5c7.2,0,13.1-5.9,13.1-13.1c0-3.6,2.9-6.5,6.5-6.5h196.4
			c3.6,0,6.5,2.9,6.5,6.5c0,7.2,5.9,13.1,13.1,13.1c3.6,0,6.5,2.9,6.5,6.5v72c0,3.6-2.9,6.5-6.5,6.5c-7.2,0-13.1,5.9-13.1,13.1
			c0,3.6-2.9,6.5-6.5,6.5H160c-3.6,0-6.5-2.9-6.5-6.5c0-7.2-5.9-13.1-13.1-13.1C136.7,249.5,133.8,246.5,133.8,242.9z"/>
	</g>
	<g>
		<circle class="st3" cx="258.2" cy="206.9" r="49.1"/>
	</g>
	<g>
		<path class="st5" d="M276.7,100l-61.6,61.6c-5.1,5.1-5.1,13.4,0,18.5l2.2,2.2c15.3,15.3,40.2,15.3,55.6,0l24.6-24.6h52.4
			c21.7,0,39.3-17.6,39.3-39.3V92.3h-93.9C288.3,92.3,281.6,95.1,276.7,100z"/>
	</g>
	<g>
		<path class="st0" d="M216.7,160c7.8,7.8,20.5,7.8,28.4,0c1.8-1.8,1.8-4.7,0-6.5l-10.9-10.9L216.7,160z"/>
	</g>
	<g>
		<path class="st5" d="M258.2,321.5h-59c-6.9,0-13.6,2.8-18.5,7.7l-29.4,29.4l37.1,37.1l18-18c2.5-2.5,5.8-3.8,9.3-3.8h42.6
			c14.5,0,26.2-11.7,26.2-26.2C284.4,333.2,272.6,321.5,258.2,321.5L258.2,321.5z"/>
	</g>
	<g>
		<path class="st0" d="M376.8,320.7c-7.7-7.7-20.1-7.7-27.8,0l-53.2,53.2h-80.3c-3.5,0-6.8,1.4-9.3,3.8l-18,18l28.4,28.4l10.9-10.9
			H304c5.2,0,10.2-2.1,13.9-5.8l58.9-58.9C384.5,340.8,384.5,328.4,376.8,320.7z"/>
	</g>
	<g>
		<path class="st1" d="M214.5,439.3H57.4l82.7-82.7c2.6-2.6,6.7-2.6,9.3,0l69.3,69.3c2.6,2.6,2.6,6.7,0,9.3L214.5,439.3z"/>
	</g>
	<g>
		<path class="st2" d="M188.3,395.7l-43.7,43.7h69.8l4.1-4.1c2.6-2.6,2.6-6.7,0-9.3L188.3,395.7z"/>
	</g>
	<g>
		<path class="st0" d="M258.2,360.8h-6.5c-3.6,0-6.5-2.9-6.5-6.5v-13.1c0-3.6,2.9-6.5,6.5-6.5h6.5c7.2,0,13.1,5.9,13.1,13.1
			C271.3,354.9,265.4,360.8,258.2,360.8z"/>
	</g>
</g>
</svg>
