<svg id="Layer_1" enable-background="new 0 0 512.008 512.008" height="512" viewBox="0 0 512.008 512.008" width="512" xmlns="http://www.w3.org/2000/svg"><g><g><path d="m254.771 239.923 29.036 10.191-100.539 200.98-29.036-10.191z" fill="#ecf5ff"/><g><path d="m91.333 351.508h30.373v138h-30.373z" fill="#ecf5ff" transform="matrix(0 -1 1 0 -313.989 527.028)"/><path d="m37.84 504.508h-23.321c-3.866 0-7-3.134-7-7v-154c0-3.866 3.134-7 7-7h23.321c11.973 0 21.679 9.706 21.679 21.679v124.642c0 11.973-9.706 21.679-21.679 21.679z" fill="#4f6d8f"/><path d="m37.84 336.508h-23.321c-.84 0-1.641.156-2.387.427 9.917 1.992 17.387 10.749 17.387 21.253v124.642c0 10.504-7.47 19.261-17.387 21.253.746.271 1.548.427 2.387.427h23.321c11.973 0 21.679-9.706 21.679-21.679v-124.644c0-11.973-9.706-21.679-21.679-21.679z" fill="#455e7e"/><circle cx="173.519" cy="420.508" fill="#4f6d8f" r="50"/><path d="m173.519 370.508c-5.227 0-10.264.805-15 2.292 20.285 6.372 35 25.32 35 47.708s-14.715 41.336-35 47.708c4.736 1.488 9.773 2.292 15 2.292 27.614 0 50-22.386 50-50s-22.385-50-50-50z" fill="#455e7e"/><circle cx="173.519" cy="420.508" fill="#ecf5ff" r="20"/></g><g><path d="m450.387 300.991-20.433-11.797 32.304-55.952 20.433 11.797c6.285 3.629 8.438 11.665 4.81 17.95l-19.163 33.192c-3.629 6.286-11.666 8.439-17.951 4.81z" fill="#4f6d8f"/><path d="m482.691 245.039-8.505-4.91c.263 2.642-.256 5.386-1.685 7.861l-19.164 33.192c-3.629 6.285-11.665 8.438-17.95 4.81l-2.688-1.552-2.745 4.755 20.433 11.797c6.285 3.629 14.322 1.475 17.95-4.81l19.164-33.192c3.628-6.286 1.475-14.322-4.81-17.951z" fill="#455e7e"/><path d="m401.366 303.668-249.602-144.108c-8.38-4.838-11.251-15.554-6.413-23.934l70.083-121.387 279.949 161.629-70.083 121.387c-4.838 8.38-15.554 11.251-23.934 6.413z" fill="#cbe0fd"/><path d="m471.43 162.038s-78.32 134.844-79.701 136.066l9.637 5.564c8.38 4.838 19.096 1.967 23.934-6.413l70.083-121.387z" fill="#bdd8fc"/><path d="m437.572 218.382-123.857-70.111c-4.778-2.704-10.547-3.013-15.586-.834l-27.498 11.892c-5.087 2.2-10.915 1.863-15.715-.908l-99.632-57.522c-8.38-4.838-11.251-15.554-6.413-23.934l35.042-60.694c4.838-8.38 15.554-11.251 23.934-6.413l293.605 169.513c2.933 1.693 3.938 5.444 2.245 8.377l-14.747 25.542c-1.492 2.584-4.197 4.231-7.177 4.371l-39.476 1.848c-1.65.077-3.288-.313-4.725-1.127z" fill="#bdd8fc"/><path d="m501.452 179.372-18.93-10.929-8.573 14.848c-1.492 2.584-4.197 4.231-7.177 4.371l-39.476 1.848c-1.65.077-3.288-.313-4.725-1.127l-123.856-70.111c-4.778-2.704-10.547-3.013-15.586-.834l-27.498 11.892c-5.087 2.2-10.915 1.863-15.715-.908l-90.565-52.288-.48.831c-4.838 8.38-1.967 19.096 6.413 23.934l99.632 57.522c4.8 2.771 10.628 3.108 15.715.908l27.498-11.892c5.039-2.179 10.808-1.871 15.586.834l123.856 70.111c1.437.814 3.075 1.204 4.725 1.127l39.476-1.848c2.98-.14 5.685-1.786 7.177-4.371l14.747-25.542c1.694-2.932.689-6.683-2.244-8.376z" fill="#9dc7fb"/><path d="m236.792 235.895 11.797-20.433 55.952 32.304-11.797 20.433c-3.629 6.285-11.665 8.438-17.95 4.81l-33.192-19.163c-6.285-3.629-8.439-11.666-4.81-17.951z" fill="#4f6d8f"/><path d="m284.897 236.424c-6.897 11.947-22.173 16.04-34.12 9.142l-14.613-8.437c-2.705 6.067-.443 13.32 5.438 16.715l33.192 19.163c6.285 3.629 14.322 1.475 17.95-4.81l11.797-20.433z" fill="#455e7e"/></g></g><path d="m482.124 225.153c5.559-.26 10.538-3.293 13.321-8.112l14.747-25.542c3.742-6.41 1.428-14.958-4.99-18.622l-174.766-100.901c-3.589-2.072-8.175-.842-10.245 2.745-2.071 3.587-.842 8.174 2.745 10.245l173.581 100.218-14.063 24.357c-.216.374-.602.609-1.032.629l-39.477 1.848c-.244.011-.475-.045-.681-.162l-123.856-70.111c-6.782-3.839-15.104-4.284-22.258-1.191l-27.497 11.892c-2.896 1.253-6.256 1.058-8.988-.519l-99.631-57.522c-2.318-1.338-3.977-3.5-4.67-6.085-.692-2.585-.337-5.285 1.002-7.604l35.041-60.694c2.764-4.784 8.9-6.432 13.688-3.668l88.695 51.208c3.588 2.071 8.175.841 10.245-2.745 2.071-3.587.842-8.174-2.745-10.245l-88.693-51.209c-5.787-3.341-12.53-4.23-18.986-2.5-6.455 1.73-11.851 5.87-15.192 11.658l-35.041 60.693c-3.342 5.788-4.229 12.531-2.5 18.986 1.84 6.868 6.455 12.524 12.748 15.822l-13.77 23.854c-3.344 5.788-4.231 12.53-2.503 18.984 1.729 6.453 5.869 11.848 11.657 15.191l90.334 52.154-8.047 13.938c-2.757 4.774-3.489 10.337-2.063 15.663 1.295 4.833 4.241 8.932 8.342 11.712l-52.281 104.517c-3.493-.665-7.093-1.027-10.776-1.027-23.651 0-44.006 14.357-52.825 34.81h-53.675v-39.631c0-16.089-13.09-29.179-29.179-29.179h-23.321c-7.995 0-14.5 6.505-14.5 14.5v154c0 7.995 6.505 14.5 14.5 14.5h23.321c16.089 0 29.179-13.09 29.179-29.179v-39.631h53.675c8.819 20.453 29.174 34.81 52.825 34.81 31.706 0 57.5-25.794 57.5-57.5 0-11.206-3.234-21.665-8.8-30.516l21.823-43.625c1.853-3.705.352-8.21-3.353-10.063-3.705-1.855-8.21-.353-10.063 3.352l-18.952 37.886c-3.898-3.465-8.264-6.413-12.997-8.726l50.881-101.717 13.474 7.779-16.734 33.452c-1.853 3.705-.352 8.21 3.353 10.063 3.644 1.823 8.189.397 10.063-3.352l16.696-33.374c3.389.844 6.898.81 10.297-.101 5.325-1.427 9.776-4.842 12.533-9.617l8.047-13.939 90.332 52.152c3.931 2.27 8.226 3.348 12.469 3.348 9.223 0 18.257-5.273 22.613-14.071l13.937 8.046c3.242 1.872 6.786 2.762 10.286 2.761 7.139 0 14.091-3.702 17.91-10.316l19.163-33.192c2.757-4.775 3.489-10.337 2.063-15.663-1.427-5.325-4.843-9.776-9.617-12.533l-13.939-8.047 2.903-5.029zm-430.105 257.676c0 7.818-6.36 14.179-14.179 14.179h-22.821v-153h22.821c7.818 0 14.179 6.361 14.179 14.179zm64.53-54.631h-49.53v-15.38h49.529c-.338 2.518-.529 5.081-.529 7.69s.192 5.173.53 7.69zm99.47-7.69c0 23.435-19.065 42.5-42.5 42.5s-42.5-19.065-42.5-42.5 19.065-42.5 42.5-42.5 42.5 19.066 42.5 42.5zm70.23-156.059c-1.519 2.662-5.061 3.609-7.705 2.065l-33.192-19.164c-2.665-1.522-3.611-5.055-2.064-7.705l8.047-13.938 42.962 24.804zm137.21 20.995c-.004.008-.008.016-.012.024l-4.641 8.039c-2.765 4.784-8.902 6.428-13.687 3.666l-249.608-144.11c-4.784-2.763-6.429-8.901-3.666-13.686l13.77-23.855 85.551 49.393c6.824 3.939 15.215 4.423 22.443 1.296l27.496-11.892c2.867-1.238 6.198-1.06 8.915.477l123.857 70.112c2.669 1.511 5.714 2.238 8.77 2.091l14.958-.7-4.506 7.804zm55.482-33.91c2.657 1.517 3.613 5.055 2.064 7.705l-19.163 33.192c-1.556 2.695-5.015 3.621-7.706 2.065l-13.936-8.046 24.803-42.962zm-332.922 168.974c0 15.164 12.337 27.5 27.5 27.5s27.5-12.336 27.5-27.5-12.337-27.5-27.5-27.5-27.5 12.337-27.5 27.5zm40 0c0 6.893-5.607 12.5-12.5 12.5s-12.5-5.607-12.5-12.5 5.607-12.5 12.5-12.5 12.5 5.608 12.5 12.5z" fill="#1e1d21"/></g></svg>