<?xml version="1.0" encoding="iso-8859-1"?>
<!-- Generator: Adobe Illustrator 19.0.0, SVG Export Plug-In . SVG Version: 6.00 Build 0)  -->
<svg version="1.1" id="Capa_1" xmlns="http://www.w3.org/2000/svg" xmlns:xlink="http://www.w3.org/1999/xlink" x="0px" y="0px"
	 viewBox="0 0 480.005 480.005" style="enable-background:new 0 0 480.005 480.005;" xml:space="preserve">
<path style="fill:#AABECE;" d="M8.003,296.003h464v64h-464V296.003z"/>
<path style="fill:#F4F4E6;" d="M56.003,104.003h368v192h-368V104.003z"/>
<path style="fill:#5A6470;" d="M8.003,24.003l24-16l32,32l-40,32L8.003,24.003z"/>
<g>
	<path style="fill:#FCF05A;" d="M112.003,72.003c-0.859,0.001-1.713-0.137-2.528-0.408l-24-8c-4.197-1.396-6.468-5.931-5.072-10.128
		c1.396-4.197,5.931-6.468,10.128-5.072l24,8c4.202,1.366,6.501,5.879,5.135,10.081C118.588,69.791,115.488,72.027,112.003,72.003z"
		/>
	<path style="fill:#FCF05A;" d="M24.003,136.003c-4.418,0-8-3.582-8-8v-32c0-4.418,3.582-8,8-8s8,3.582,8,8v32
		C32.003,132.421,28.421,136.003,24.003,136.003z"/>
</g>
<path style="fill:#5A6470;" d="M472.003,24.003l-24-16l-32,32l40,32L472.003,24.003z"/>
<g>
	<path style="fill:#FCF05A;" d="M368.003,72.003c-4.418,0.003-8.003-3.576-8.006-7.994c-0.003-3.449,2.205-6.511,5.478-7.598l24-8
		c4.197-1.396,8.732,0.875,10.128,5.072s-0.875,8.732-5.072,10.128l-24,8C369.714,71.876,368.861,72.008,368.003,72.003
		L368.003,72.003z"/>
	<path style="fill:#FCF05A;" d="M456.003,136.003c-4.418,0-8-3.582-8-8v-32c0-4.418,3.582-8,8-8s8,3.582,8,8v32
		C464.003,132.421,460.421,136.003,456.003,136.003z"/>
</g>
<g>
	<path style="fill:#DD3E46;" d="M176.003,392.003h16c17.673,0,32,14.327,32,32v48l0,0h-80l0,0v-48
		C144.003,406.33,158.329,392.003,176.003,392.003z"/>
	<path style="fill:#DD3E46;" d="M64.003,392.003h16c17.673,0,32,14.327,32,32v48l0,0h-80l0,0v-48
		C32.003,406.33,46.329,392.003,64.003,392.003z"/>
	<path style="fill:#DD3E46;" d="M400.003,392.003h16c17.673,0,32,14.327,32,32v48l0,0h-80l0,0v-48
		C368.003,406.33,382.329,392.003,400.003,392.003z"/>
	<path style="fill:#DD3E46;" d="M288.003,392.003h16c17.673,0,32,14.327,32,32v48l0,0h-80l0,0v-48
		C256.003,406.33,270.329,392.003,288.003,392.003z"/>
</g>
<path d="M472.003,288.003h-40v-184c0-4.418-3.582-8-8-8h-368c-4.418,0-8,3.582-8,8v184h-40c-4.418,0-8,3.582-8,8v64
	c0,4.418,3.582,8,8,8h464c4.418,0,8-3.582,8-8v-64C480.003,291.584,476.421,288.003,472.003,288.003z M64.003,112.003h352v176h-352
	V112.003z M464.003,352.003h-448v-48h448V352.003z"/>
<path d="M16.411,74.531c0.828,2.483,2.817,4.404,5.328,5.144c2.509,0.741,5.221,0.21,7.264-1.424l40-32
	c3.449-2.761,4.007-7.796,1.246-11.245c-0.184-0.23-0.382-0.45-0.59-0.659l-32-32c-2.697-2.697-6.923-3.116-10.096-1l-24,16
	c-3.001,2.001-4.292,5.762-3.152,9.184L16.411,74.531z M30.987,18.299l21.016,21.04l-24,19.248l-10.48-31.32L30.987,18.299z"/>
<path d="M85.475,63.595l24,8c4.197,1.396,8.732-0.875,10.128-5.072c1.396-4.197-0.875-8.732-5.072-10.128l0,0l-24-8
	c-4.197-1.396-8.732,0.875-10.128,5.072S81.277,62.199,85.475,63.595z"/>
<path d="M16.003,96.003v32c0,4.418,3.582,8,8,8s8-3.582,8-8v-32c0-4.418-3.582-8-8-8S16.003,91.584,16.003,96.003z"/>
<path d="M476.443,17.347l-24-16c-3.173-2.116-7.399-1.697-10.096,1l-32,32c-3.125,3.123-3.126,8.189-0.003,11.314
	c0.209,0.209,0.429,0.406,0.659,0.59l40,32c3.449,2.762,8.483,2.205,11.245-1.244c0.592-0.739,1.048-1.578,1.347-2.476l16-48
	C480.734,23.109,479.443,19.348,476.443,17.347z M452.043,58.587l-24.04-19.248l21.04-21.04l13.44,8.968L452.043,58.587z"/>
<path d="M368.003,72.003c0.859,0.001,1.713-0.137,2.528-0.408l24-8c4.197-1.396,6.468-5.931,5.072-10.128s-5.931-6.468-10.128-5.072
	l0,0l-24,8c-4.202,1.366-6.501,5.879-5.135,10.081C361.417,69.791,364.517,72.027,368.003,72.003L368.003,72.003z"/>
<path d="M464.003,128.003v-32c0-4.418-3.582-8-8-8s-8,3.582-8,8v32c0,4.418,3.582,8,8,8S464.003,132.421,464.003,128.003z"/>
<path d="M224.003,480.003c4.418,0,8-3.582,8-8v-48c-0.026-22.08-17.92-39.974-40-40h-16c-22.08,0.026-39.974,17.92-40,40v48
	c0,4.418,3.582,8,8,8H224.003z M152.003,424.003c0-13.255,10.745-24,24-24h16c13.255,0,24,10.745,24,24v40h-64V424.003z"/>
<path d="M80.003,384.003h-16c-22.08,0.026-39.974,17.92-40,40v48c0,4.418,3.582,8,8,8h80c4.418,0,8-3.582,8-8v-48
	C119.976,401.922,102.083,384.029,80.003,384.003z M104.003,464.003h-64v-40c0-13.255,10.745-24,24-24h16c13.255,0,24,10.745,24,24
	V464.003z"/>
<path d="M368.003,480.003h80c4.418,0,8-3.582,8-8v-48c-0.026-22.08-17.92-39.974-40-40h-16c-22.08,0.026-39.974,17.92-40,40v48
	C360.003,476.421,363.584,480.003,368.003,480.003z M376.003,424.003c0-13.255,10.745-24,24-24h16c13.255,0,24,10.745,24,24v40h-64
	V424.003z"/>
<path d="M336.003,480.003c4.418,0,8-3.582,8-8v-48c-0.026-22.08-17.92-39.974-40-40h-16c-22.08,0.026-39.974,17.92-40,40v48
	c0,4.418,3.582,8,8,8H336.003z M264.003,424.003c0-13.255,10.745-24,24-24h16c13.255,0,24,10.745,24,24v40h-64V424.003z"/>
<g>
</g>
<g>
</g>
<g>
</g>
<g>
</g>
<g>
</g>
<g>
</g>
<g>
</g>
<g>
</g>
<g>
</g>
<g>
</g>
<g>
</g>
<g>
</g>
<g>
</g>
<g>
</g>
<g>
</g>
</svg>
