<svg height="480pt" viewBox="0 -1 480 480" width="480pt" xmlns="http://www.w3.org/2000/svg"><path d="m413.789062 450h66.210938v27.941406h-66.210938zm0 0" fill="#f8ec7d"/><path d="m480 406.898438v43.101562h-66.210938v-43.101562c.003907-11.042969 8.957032-19.996094 20-20h26.210938c11.046875 0 20 8.957031 20 20zm0 0" fill="#e48e66"/><path d="m413.789062 323.109375h66.210938v27.929687h-66.210938zm0 0" fill="#f8ec7d"/><path d="m480 280v43.109375h-66.210938v-43.109375c.003907-11.042969 8.957032-19.996094 20-20h26.210938c11.046875 0 20 8.953125 20 20zm0 0" fill="#e48e66"/><path d="m386.28125 10v170.601562c0 5.519532-4.476562 10-10 10h-272.5625c-5.523438 0-10-4.480468-10-10v-170.601562c0-5.523438 4.476562-10 10-10h272.5625c5.523438 0 10 4.476562 10 10zm0 0" fill="#e48e66"/><path d="m310.339844 450h66.210937v27.941406h-66.210937zm0 0" fill="#f8ec7d"/><path d="m376.550781 406.898438v43.101562h-66.210937v-43.101562c.003906-11.042969 8.957031-19.996094 20-20h26.210937c11.042969 0 20 8.957031 20 20zm0 0" fill="#e48e66"/><path d="m310.339844 323.109375h66.210937v27.929687h-66.210937zm0 0" fill="#f8ec7d"/><path d="m376.550781 280v43.109375h-66.210937v-43.109375c.003906-11.042969 8.957031-19.996094 20-20h26.210937c11.042969 0 20 8.953125 20 20zm0 0" fill="#e48e66"/><path d="m206.898438 450h66.203124v27.941406h-66.203124zm0 0" fill="#f8ec7d"/><path d="m273.101562 406.898438v43.101562h-66.203124v-43.101562c0-11.042969 8.957031-20 20-20h26.203124c11.042969 0 20 8.957031 20 20zm0 0" fill="#e48e66"/><path d="m206.898438 323.109375h66.203124v27.929687h-66.203124zm0 0" fill="#f8ec7d"/><path d="m273.101562 280v43.109375h-66.203124v-43.109375c0-11.046875 8.957031-20 20-20h26.203124c11.042969 0 20 8.953125 20 20zm0 0" fill="#e48e66"/><path d="m103.449219 450h66.210937v27.941406h-66.210937zm0 0" fill="#f8ec7d"/><path d="m169.660156 406.898438v43.101562h-66.210937v-43.101562c0-11.042969 8.957031-20 20-20h26.210937c11.042969.003906 19.996094 8.957031 20 20zm0 0" fill="#e48e66"/><path d="m103.449219 323.109375h66.210937v27.929687h-66.210937zm0 0" fill="#f8ec7d"/><path d="m169.660156 280v43.109375h-66.210937v-43.109375c0-11.046875 8.957031-20 20-20h26.210937c11.042969.003906 19.996094 8.957031 20 20zm0 0" fill="#e48e66"/><path d="m0 450h66.210938v27.941406h-66.210938zm0 0" fill="#f8ec7d"/><path d="m66.210938 406.898438v43.101562h-66.210938v-43.101562c0-11.042969 8.953125-20 20-20h26.210938c11.042968.003906 19.996093 8.957031 20 20zm0 0" fill="#e48e66"/><path d="m0 323.109375h66.210938v27.929687h-66.210938zm0 0" fill="#f8ec7d"/><path d="m66.210938 280v43.109375h-66.210938v-43.109375c0-11.046875 8.953125-20 20-20h26.210938c11.042968.003906 19.996093 8.957031 20 20zm0 0" fill="#e48e66"/><path d="m149.398438 232.039062h-55.679688c-3.3125 0-6-2.683593-6-6 0-3.3125 2.6875-6 6-6h55.679688c3.316406 0 6 2.6875 6 6 0 3.316407-2.683594 6-6 6zm0 0" fill="#6fe3ff"/><path d="m386.28125 232.039062h-214.171875c-3.3125 0-6-2.683593-6-6 0-3.3125 2.6875-6 6-6h214.171875c3.3125 0 6 2.6875 6 6 0 3.316407-2.6875 6-6 6zm0 0" fill="#6fe3ff"/><path d="m273.699219 95.300781-67.398438 49.808594v-99.609375zm0 0" fill="#f8ec7d"/></svg>