<svg viewBox="0 0 512 512" xmlns="http://www.w3.org/2000/svg"><g id="filled_outlind" data-name="filled outlind"><path d="m440 272h-48v32h40a16 16 0 0 1 16 16 16 16 0 0 1 -16 16h-40v32h48a48 48 0 0 0 48-48 48 48 0 0 0 -48-48z" fill="#cbcbcb"/><path d="m232 448h-176l-16-304h208z" fill="#ea9d2d"/><path d="m40 144h208v24h-208z" fill="#c38325"/><path d="m32 192h224v160h-224z" fill="#8f6934"/><path d="m24 112h240v32h-240z" fill="#027226"/><path d="m248 112h-208l16-48 176 16z" fill="#027e2a"/><circle cx="144" cy="272" fill="#cbcbcb" r="48"/><path d="m176 264h240a0 0 0 0 1 0 0v56a120 120 0 0 1 -120 120 120 120 0 0 1 -120-120v-56a0 0 0 0 1 0 0z" fill="#eaeae8"/><path d="m224 264v30.75a185.449 185.449 0 0 0 24.435 92.011l7.565 13.239h-56l-4.363-10.18a242.874 242.874 0 0 1 -19.637-95.671v-30.149z" fill="#fbfdff"/><path d="m134 400h324a0 0 0 0 1 0 0v14a34 34 0 0 1 -34 34h-256a34 34 0 0 1 -34-34v-14a0 0 0 0 1 0 0z" fill="#cbcbcb"/><path d="m176 400a57.94 57.94 0 0 0 16.971 40.971l7.029 7.029h-48l-2.687-4.031a79.264 79.264 0 0 1 -13.313-43.969z" fill="#eaeae8"/><g fill="#fbb540"><path d="m292 232a8 8 0 0 1 -8-8c0-4.875-1.172-6.927-2.946-10.031a34.471 34.471 0 0 1 0-35.938c1.774-3.1 2.946-5.156 2.946-10.031a8 8 0 0 1 16 0 32.224 32.224 0 0 1 -5.054 17.969c-1.774 3.104-2.946 5.156-2.946 10.031s1.172 6.927 2.946 10.031a32.224 32.224 0 0 1 5.054 17.969 8 8 0 0 1 -8 8z"/><path d="m340 232a8 8 0 0 1 -8-8c0-4.875-1.172-6.927-2.946-10.031a34.471 34.471 0 0 1 0-35.938c1.774-3.1 2.946-5.156 2.946-10.031a8 8 0 0 1 16 0 32.224 32.224 0 0 1 -5.054 17.969c-1.774 3.104-2.946 5.156-2.946 10.031s1.172 6.927 2.946 10.031a32.224 32.224 0 0 1 5.054 17.969 8 8 0 0 1 -8 8z"/><path d="m388 232a8 8 0 0 1 -8-8c0-4.875-1.172-6.927-2.946-10.031a34.471 34.471 0 0 1 0-35.938c1.774-3.1 2.946-5.156 2.946-10.031a8 8 0 0 1 16 0 32.224 32.224 0 0 1 -5.054 17.969c-1.774 3.104-2.946 5.156-2.946 10.031s1.172 6.927 2.946 10.031a32.224 32.224 0 0 1 5.054 17.969 8 8 0 0 1 -8 8z"/></g><path d="m440 264h-16a8 8 0 0 0 -8-8h-152v-64a8 8 0 0 0 -8-8h-2.094l1.684-32h8.41a8 8 0 0 0 8-8v-32a8 8 0 0 0 -8-8h-11.056l-13.789-27.578a8 8 0 0 0 -6.431-4.389l-176-16a7.992 7.992 0 0 0 -8.313 5.437l-14.177 42.53h-10.234a8 8 0 0 0 -8 8v32a8 8 0 0 0 8 8h8.41l1.684 32h-2.094a8 8 0 0 0 -8 8v160a8 8 0 0 0 8 8h11.357l4.654 88.421a8 8 0 0 0 7.989 7.579h368a42.047 42.047 0 0 0 42-42v-14a8 8 0 0 0 -8-8h-56.166a127.826 127.826 0 0 0 9.28-16h28.886a56 56 0 0 0 0-112zm-378.414-191.459 165.251 15.022 8.219 16.437h-183.956zm-29.586 63.459v-16h224v16zm207.568 16-1.684 32h-187.768l-1.684-32zm-199.568 192v-144h208v56h-50.323a56.018 56.018 0 1 0 -29.647 66.578 128.142 128.142 0 0 0 2.237 21.422zm140.666-88h-4.666a8 8 0 0 0 -8 8v40a40 40 0 1 1 12.666-48zm-117.076 184-4.211-80h115.021a127.657 127.657 0 0 0 15.768 32h-56.168a8 8 0 0 0 -8 8v14a41.782 41.782 0 0 0 9.052 26zm386.41-32v6a26.029 26.029 0 0 1 -26 26h-256a26.029 26.029 0 0 1 -26-26v-6zm-42-88a111.792 111.792 0 0 1 -26.215 72h-171.57a111.792 111.792 0 0 1 -26.215-72v-48h224zm16 0v-8h8a8 8 0 0 1 0 16h-8.256c.166-2.656.256-5.323.256-8zm16 40h-22.4a127.746 127.746 0 0 0 4.13-16h10.27a24 24 0 0 0 0-48h-8v-16h16a40 40 0 0 1 0 80z"/><path d="m300 168a8 8 0 0 0 -16 0c0 4.875-1.172 6.927-2.946 10.031a34.471 34.471 0 0 0 0 35.938c1.774 3.1 2.946 5.156 2.946 10.031a8 8 0 0 0 16 0 32.224 32.224 0 0 0 -5.054-17.969c-1.774-3.104-2.946-5.156-2.946-10.031s1.172-6.927 2.946-10.031a32.224 32.224 0 0 0 5.054-17.969z"/><path d="m348 168a8 8 0 0 0 -16 0c0 4.875-1.172 6.927-2.946 10.031a34.471 34.471 0 0 0 0 35.938c1.774 3.1 2.946 5.156 2.946 10.031a8 8 0 0 0 16 0 32.224 32.224 0 0 0 -5.054-17.969c-1.774-3.104-2.946-5.156-2.946-10.031s1.172-6.927 2.946-10.031a32.224 32.224 0 0 0 5.054-17.969z"/><path d="m396 168a8 8 0 0 0 -16 0c0 4.875-1.172 6.927-2.946 10.031a34.471 34.471 0 0 0 0 35.938c1.774 3.1 2.946 5.156 2.946 10.031a8 8 0 0 0 16 0 32.224 32.224 0 0 0 -5.054-17.969c-1.774-3.104-2.946-5.156-2.946-10.031s1.172-6.927 2.946-10.031a32.224 32.224 0 0 0 5.054-17.969z"/></g></svg>