<?xml version="1.0" encoding="utf-8"?>
<!-- Generator: Adobe Illustrator 24.3.0, SVG Export Plug-In . SVG Version: 6.00 Build 0)  -->
<svg version="1.1" id="Layer_1" xmlns="http://www.w3.org/2000/svg" xmlns:xlink="http://www.w3.org/1999/xlink" x="0px" y="0px"
	 viewBox="0 0 512 512" style="enable-background:new 0 0 512 512;" xml:space="preserve">
<style type="text/css">
	.st0{fill:#ECCE93;}
	.st1{fill:#EFEFEF;}
	.st2{fill:#E76E54;}
	.st3{fill:#48C8EF;}
	.st4{fill:#FFFFFF;}
	.st5{fill:#77959E;}
</style>
<path class="st0" d="M95.4,76.1h263.8c13.2,0,24,10.7,24,24v323.8c0,13.2-10.7,24-24,24H95.4c-13.2,0-24-10.7-24-24V100.1
	C71.4,86.8,82.1,76.1,95.4,76.1z"/>
<path class="st1" d="M95.4,344.9V100.1h263.8v323.8H174.4L95.4,344.9z"/>
<path class="st2" d="M174.4,344.9v79l-79-79H174.4z"/>
<path class="st2" d="M167.3,112.1v-48h119.9v48c0,13.2-10.7,24-24,24h-72C178.1,136.1,167.3,125.3,167.3,112.1z"/>
<path class="st3" d="M455.2,340c0,59.6-48.3,107.9-107.9,107.9S239.3,399.6,239.3,340S287.6,232,347.2,232S455.2,280.3,455.2,340z"
	/>
<path class="st4" d="M322.5,386.2l-23.2-23.3c-4.7-4.7-4.7-12.3,0-17c4.7-4.7,12.3-4.7,17,0l7.8,7.8l54.3-45.3
	c5.1-4.2,12.7-3.6,16.9,1.5c4.2,5.1,3.6,12.7-1.5,16.9L322.5,386.2z"/>
<g>
	<path class="st5" d="M203.3,160.1h95.9c6.6,0,12,5.4,12,12s-5.4,12-12,12h-95.9c-6.6,0-12-5.4-12-12S196.7,160.1,203.3,160.1z"/>
	<path class="st5" d="M143.4,160.1h24v24h-24V160.1z"/>
	<path class="st5" d="M143.4,208h24v24h-24V208z"/>
	<path class="st5" d="M143.4,256h24v24h-24V256z"/>
	<path class="st5" d="M143.4,304h24v24h-24V304z"/>
	<path class="st5" d="M203.3,208h72c6.6,0,12,5.4,12,12s-5.4,12-12,12h-72c-6.6,0-12-5.4-12-12S196.7,208,203.3,208z"/>
	<path class="st5" d="M203.3,256h24c6.6,0,12,5.4,12,12s-5.4,12-12,12h-24c-6.6,0-12-5.4-12-12S196.7,256,203.3,256z"/>
</g>
</svg>
