<svg id="Layer_1" enable-background="new 0 0 512 512" height="512" viewBox="0 0 512 512" width="512" xmlns="http://www.w3.org/2000/svg"><g><g clip-rule="evenodd" fill-rule="evenodd"><path d="m458.112 233.861c0-18.142-14.825-32.967-32.967-32.967h-68.826c-18.113 0-32.938 14.825-32.938 32.967 0-18.142-14.825-32.967-32.969-32.967h-68.824c-18.115 0-32.94 14.825-32.94 32.967 0-18.142-14.825-32.967-32.967-32.967h-68.827c-18.113 0-32.938 14.825-32.938 32.967v181.278h134.732 134.733 134.731z" fill="#dd636e"/><g fill="#da4a54"><path d="m458.112 233.861c0-18.142-14.825-32.967-32.967-32.967h-29.112c18.113 0 32.939 14.825 32.939 32.967v136.178h29.141v-136.178z"/><path d="m323.381 233.861c0-18.142-14.825-32.967-32.969-32.967h-29.111c18.113 0 32.938 14.825 32.938 32.967v136.178h29.142z"/><path d="m188.648 233.861c0-18.142-14.825-32.967-32.967-32.967h-29.112c18.114 0 32.939 14.825 32.939 32.967v136.178h29.14z"/></g><path d="m53.916 277.232c25.625 0 46.403 20.778 46.403 46.404v86.656h-46.403v-34.413c.113-3.827-2.692-5.783-6.151-6.236-22.734-3.005-40.253-22.451-40.253-46.007 0-25.626 20.778-46.404 46.404-46.404zm404.196 0c-25.625 0-46.403 20.778-46.403 46.404v86.656h46.403v-34.413c-.142-3.827 2.692-5.783 6.151-6.236 22.706-3.005 40.253-22.451 40.253-46.007.001-25.626-20.778-46.404-46.404-46.404z" fill="#e28086"/><path d="m53.916 277.232c25.625 0 46.403 20.778 46.403 46.404v86.656h-29.139v-86.656c0-20.523-13.323-37.957-31.835-44.051 4.593-1.532 9.468-2.353 14.571-2.353zm404.196 0c-5.103 0-9.978.821-14.57 2.353 18.482 6.094 31.834 23.527 31.834 44.051 0 23.556-17.519 43.002-40.253 46.007-3.458.453-6.265 2.409-6.151 6.236v34.413h29.141v-34.413c-.142-3.827 2.692-5.783 6.151-6.236 22.706-3.005 40.253-22.451 40.253-46.007 0-25.626-20.779-46.404-46.405-46.404z" fill="#dd636e"/><path d="m436.144 448.276v26.051c0 5.528-4.535 10.063-10.063 10.063h-42.548c-5.529 0-10.036-4.535-10.036-10.063v-26.051zm-297.641 0v26.051c0 5.528-4.507 10.063-10.034 10.063h-42.55c-5.527 0-10.034-4.535-10.034-10.063v-26.051z" fill="#407093"/><path d="m436.144 448.276v26.051c0 5.528-4.535 10.063-10.063 10.063h-29.112c5.527 0 10.035-4.535 10.035-10.063v-26.051zm-297.641 0v26.051c0 5.528-4.507 10.063-10.034 10.063h-29.114c5.527 0 10.035-4.535 10.035-10.063v-26.051z" fill="#365e7d"/><path d="m458.112 410.292v20.863c0 12.075-9.893 21.969-21.969 21.969h-360.258c-12.104 0-21.969-9.893-21.969-21.969v-20.863z" fill="#d68756"/><path d="m458.112 410.292v20.863c0 12.075-9.893 21.969-21.969 21.969h-29.14c12.103 0 21.968-9.893 21.968-21.969v-20.863z" fill="#c47443"/><path d="m100.319 350.622h311.39v59.67h-311.39z" fill="#da4a54"/><path d="m256 137.794c30.359 0 55.106-24.746 55.106-55.078s-24.747-55.078-55.106-55.078c-30.331 0-55.078 24.746-55.078 55.078 0 30.331 24.747 55.078 55.078 55.078z" fill="#f9f6f6"/><path d="m256 27.639c30.444 0 55.106 24.661 55.106 55.078 0 30.416-24.662 55.078-55.106 55.078-5.046 0-9.921-.681-14.542-1.928 23.357-6.406 40.507-27.751 40.507-53.15 0-25.371-17.149-46.744-40.507-53.15 4.621-1.248 9.496-1.928 14.542-1.928z" fill="#e2d8ec"/><path d="m382.568 350.622h29.141v59.67h-29.141z" fill="#d82e3d"/></g><path d="m61.399 270.258c11.905 1.644 22.536 7.172 30.614 15.279 9.779 9.751 15.789 23.215 15.789 38.098v19.503h73.333v-109.277c0-7.001-2.862-13.351-7.483-17.972-4.62-4.621-10.97-7.483-17.972-7.483h-68.826c-6.973 0-13.351 2.863-17.972 7.483-4.62 4.621-7.483 10.97-7.483 17.972zm389.202 0v-36.398c0-7.001-2.863-13.351-7.483-17.972-4.621-4.621-10.971-7.483-17.972-7.483h-68.826c-7.002 0-13.352 2.863-17.972 7.483-4.62 4.621-7.483 10.97-7.483 17.972v24.378c0 4.139-3.346 7.483-7.483 7.483-4.139 0-7.513-3.345-7.513-7.483v-24.378c0-7.001-2.862-13.351-7.482-17.972-4.621-4.621-10.972-7.483-17.974-7.483h-68.824c-6.974 0-13.353 2.863-17.974 7.483-4.62 4.621-7.482 10.97-7.482 17.972v109.277h119.736v-50.94c0-4.138 3.374-7.483 7.513-7.483 4.138 0 7.483 3.345 7.483 7.483v50.94h73.333v-19.503c0-14.883 6.038-28.347 15.789-38.098 8.078-8.106 18.737-13.634 30.614-15.278zm-127.22-59.811c1.304-1.842 2.777-3.572 4.365-5.159 7.342-7.342 17.433-11.877 28.573-11.877h68.826c11.14 0 21.26 4.535 28.573 11.877 7.342 7.314 11.877 17.433 11.877 28.573v36.398c11.906 1.644 22.536 7.172 30.615 15.279 9.751 9.751 15.789 23.215 15.789 38.098 0 14.882-6.038 28.375-15.789 38.126-8.079 8.079-18.709 13.606-30.615 15.279v33.251 20.863c0 8.107-3.316 15.477-8.646 20.807-3.629 3.657-8.192 6.35-13.323 7.682v14.683c0 4.847-1.956 9.213-5.131 12.416-3.175 3.175-7.568 5.131-12.415 5.131h-42.548c-4.82 0-9.214-1.956-12.389-5.131-3.175-3.203-5.159-7.569-5.159-12.416v-13.691h-219.969v13.691c0 4.847-1.984 9.213-5.159 12.416-3.175 3.175-7.54 5.131-12.387 5.131h-42.55c-4.818 0-9.212-1.956-12.387-5.131-3.175-3.203-5.159-7.569-5.159-12.416v-14.683c-5.103-1.333-9.694-4.025-13.323-7.682-5.329-5.33-8.646-12.7-8.646-20.807v-20.863-33.251c-11.878-1.673-22.536-7.2-30.615-15.279-9.751-9.752-15.789-23.244-15.789-38.126 0-14.883 6.038-28.347 15.789-38.098 8.079-8.107 18.737-13.635 30.615-15.279v-36.398c0-11.14 4.563-21.26 11.877-28.573 7.342-7.342 17.433-11.877 28.573-11.877h68.826c11.141 0 21.26 4.535 28.573 11.877 1.616 1.587 3.061 3.317 4.394 5.159 1.305-1.842 2.778-3.572 4.365-5.159 7.342-7.342 17.434-11.877 28.575-11.877h68.824c11.142 0 21.262 4.535 28.575 11.877 1.617 1.587 3.062 3.317 4.395 5.159zm-21.799-120.219c-4.168 0-7.513-3.373-7.513-7.512s3.345-7.512 7.513-7.512h1.417c-1.587-10.12-6.407-19.191-13.352-26.136-8.589-8.617-20.495-13.946-33.647-13.946-13.124 0-25.03 5.329-33.648 13.946-6.944 6.945-11.736 16.016-13.351 26.136h1.445c4.14 0 7.484 3.373 7.484 7.512s-3.345 7.512-7.484 7.512h-1.445c1.615 10.12 6.407 19.191 13.351 26.136 6.945 6.945 16.016 11.736 26.164 13.351v-1.445c0-4.139 3.345-7.483 7.483-7.483s7.512 3.345 7.512 7.483v1.445c10.12-1.615 19.219-6.406 26.136-13.351 6.944-6.945 11.765-16.016 13.352-26.136zm-53.065-36.057c0-4.139 3.345-7.483 7.483-7.483s7.512 3.345 7.512 7.483v25.03l8.504 7.001c3.175 2.608 3.657 7.342 1.021 10.517-2.607 3.175-7.313 3.657-10.517 1.021l-10.771-8.844c-1.956-1.36-3.231-3.6-3.231-6.179v-28.546zm7.483-34.045c17.291 0 32.939 7.001 44.25 18.34 11.339 11.311 18.34 26.958 18.34 44.25 0 17.291-7.001 32.939-18.34 44.249-11.311 11.338-26.959 18.34-44.25 18.34-17.263 0-32.91-7.002-44.25-18.34-11.339-11.31-18.34-26.958-18.34-44.249 0-17.292 7.001-32.939 18.34-44.25 11.34-11.338 26.987-18.34 44.25-18.34zm172.632 440.51h-47.623v13.691c0 1.389 1.163 2.551 2.524 2.551h42.548c1.389 0 2.551-1.162 2.551-2.551zm-297.612 0h-47.652v13.691c0 1.389 1.162 2.551 2.551 2.551h42.55c1.389 0 2.551-1.162 2.551-2.551zm-23.217-102.503v44.646h63.271c4.139 0 7.483 3.374 7.483 7.512s-3.345 7.483-7.483 7.483h-109.675v13.38c0 3.968 1.645 7.597 4.252 10.205 2.637 2.636 6.265 4.252 10.233 4.252h360.259c3.969 0 7.568-1.616 10.205-4.252 2.636-2.608 4.252-6.236 4.252-10.205v-13.38h-245.568c-4.139 0-7.483-3.345-7.483-7.483s3.345-7.512 7.483-7.512h199.165v-44.646c-98.788 0-197.578 0-296.394 0zm350.309-73.389c-10.743 0-20.466 4.337-27.524 11.395-7.03 7.03-11.395 16.752-11.395 27.497v79.144h31.408v-32.74c0-4.139 3.373-7.484 7.512-7.484 10.743 0 20.467-4.365 27.497-11.395 7.058-7.058 11.396-16.781 11.396-27.524 0-10.744-4.338-20.467-11.396-27.497-7.031-7.059-16.755-11.396-27.498-11.396zm-376.7 11.395c-7.029-7.058-16.753-11.395-27.496-11.395s-20.467 4.337-27.525 11.395c-7.03 7.03-11.396 16.752-11.396 27.497 0 10.743 4.365 20.466 11.396 27.524 7.059 7.03 16.782 11.395 27.525 11.395 4.139 0 7.483 3.345 7.483 7.484v32.74h31.408v-79.144c.001-10.743-4.336-20.466-11.395-27.496z"/></g></svg>