<svg height="512" viewBox="0 0 64 64" width="512" xmlns="http://www.w3.org/2000/svg"><g id="Car_Park-Parking_Lot" data-name="Car Park-Parking Lot"><path d="m38.14 25.77-.28.23h-24.31a2.011 2.011 0 0 0 -1.94 1.5l-1.37 5.3a1 1 0 0 0 .98 1.2h17.78v16h-8a6 6 0 0 0 -12 0h-4a2.006 2.006 0 0 1 -2-2v-8.65a16.13 16.13 0 0 1 1.34-6.42l4.54-8.77a4 4 0 0 1 3.55-2.16h20.7a4.012 4.012 0 0 1 3.07 1.44z" fill="#ee8700"/><path d="m23 50h-2a6 6 0 0 0 -12 0h-2a8 8 0 0 1 16 0z" fill="#cc7400"/><path d="m29 26v8h-17.78a1 1 0 0 1 -.98-1.2l1.37-5.3a2.011 2.011 0 0 1 1.94-1.5z" fill="#d1d3d4"/><path d="m38.14 25.77 6.86 8.23h-16v-8h8.86z" fill="#e6e7e8"/><circle cx="43" cy="50" fill="#57565c" r="6"/><path d="m55 40v2h-5a1 1 0 0 1 -1-1v-2a1 1 0 0 1 1-1h4.65a5.8 5.8 0 0 1 .35 2z" fill="#e6e7e8"/><path d="m55 42v6a2.006 2.006 0 0 1 -2 2h-4a6 6 0 0 0 -12 0h-8v-16h20a5.981 5.981 0 0 1 5.65 4h-4.65a1 1 0 0 0 -1 1v2a1 1 0 0 0 1 1z" fill="#ff9811"/><path d="m61 52v4h-4v-4h2z" fill="#787680"/><circle cx="15" cy="50" fill="#57565c" r="6"/><path d="m51 50h-2a6 6 0 0 0 -12 0h-2a8 8 0 0 1 16 0z" fill="#ee8700"/><path d="m15 57a7 7 0 1 1 7-7 7.008 7.008 0 0 1 -7 7zm0-12a5 5 0 1 0 5 5 5.006 5.006 0 0 0 -5-5z" fill="#3e3d42"/><path d="m43 57a7 7 0 1 1 7-7 7.008 7.008 0 0 1 -7 7zm0-12a5 5 0 1 0 5 5 5.006 5.006 0 0 0 -5-5z" fill="#3e3d42"/><path d="m28 26h2v24h-2z" fill="#cc7400"/><path d="m51 45h4v2h-4z" fill="#ffd422"/><path d="m32 37h4v2h-4z" fill="#ee8700"/><path d="m12 37h4v2h-4z" fill="#cc7400"/><path d="m14 49h2v2h-2z" fill="#3e3d42"/><path d="m42 49h2v2h-2z" fill="#3e3d42"/><path d="m3 45h4v2h-4z" fill="#ff6243"/><path d="m2 55h2v2h-2z" fill="#3e3d42"/><path d="m6 55h56v2h-56z" fill="#3e3d42"/><path d="m57 19h2v33h-2z" fill="#898890"/><path d="m59 25h-9a1 1 0 0 1 -.707-.293l-5-5a1 1 0 0 1 -.293-.707v-5h2v4.586l4.414 4.414h8.586z" fill="#acabb1"/><path d="m59 16v6l-8-8v-6z" fill="#787680"/><path d="m51 8v6h-6-40v-6z" fill="#898890"/></g></svg>