<?xml version="1.0"?>
<svg xmlns="http://www.w3.org/2000/svg" xmlns:xlink="http://www.w3.org/1999/xlink" xmlns:svgjs="http://svgjs.com/svgjs" version="1.1" width="512" height="512" x="0" y="0" viewBox="0 0 512 512.00105" style="enable-background:new 0 0 512 512" xml:space="preserve" class=""><g><path xmlns="http://www.w3.org/2000/svg" d="m448.605469 215.945312-81.058594-85.167968c-4.335937-4.554688-11.535156-4.757813-16.117187-.449219l-32.511719 30.550781c-11.207031 10.535156-26.1875 15.808594-41.5625 15.390625-12.40625-.339843-24.59375 3.304688-34.777344 10.402344l-.082031.054687-24.238282-7.777343c-8.792968-2.777344-18.226562-2.808594-27.042968-.097657-16.085938 4.949219-33.589844.601563-45.492188-11.296874l-29.347656-29.351563c-4.464844-4.464844-11.707031-4.464844-16.171875 0l-86.398437 86.398437c-4.464844 4.464844-4.464844 11.707032 0 16.171876l44.351562 44.351562c5.320312 5.320312 8.308594 12.539062 8.308594 20.0625s2.992187 14.742188 8.3125 20.0625l9.183594 8.996094 10.125-9.417969-34.554688 34.554687c-9.503906 9.503907-9.503906 24.910157 0 34.414063s24.910156 9.503906 34.414062 0l36.03125-36.03125.023438.03125-35.28125 35.277344c-9.503906 9.503906-9.503906 24.914062 0 34.417969 9.503906 9.503906 24.910156 9.503906 34.414062 0l35.371094-35.367188.03125.023438-33.863281 33.863281c-9.503906 9.503906-9.503906 24.910156 0 34.414062 9.503906 9.503907 24.914063 9.503907 34.417969 0l39.5625-39.558593.171875.121093-39.027344 39.023438c-9.503906 9.503906-9.503906 24.914062 0 34.417969 9.503906 9.503906 24.914063 9.503906 34.417969 0l27.558594-27.558594.03125.097656 27.460937 27.460938c9.503906 9.503906 24.914063 9.503906 34.417969 0 9.503906-9.503907 9.503906-24.914063 0-34.417969l-.578125-.574219c9.539062 8.988281 24.546875 8.839844 33.878906-.488281 9.503906-9.503907 9.503906-24.914063 0-34.417969l-12.8125-12.8125.023437-.046875 11.777344 11.777344c9.503906 9.503906 24.914063 9.503906 34.417969 0 9.503906-9.503907 9.503906-24.914063 0-34.417969l-21.59375-21.589844.042969-.078125 21.742187 21.742188c9.503907 9.503906 24.914063 9.503906 34.417969 0 9.503906-9.503907 9.503906-24.910157 0-34.414063l-3.933594-3.933594c8.324219-7.957031 12.78125-18.808593 13.328125-30.308593l1.136719-23.832031c.519531-10.855469 4.957031-21.148438 12.492188-28.976563l34.53125-35.878906c4.25-4.410157 4.269531-11.382813.050781-15.816407zm-91.007813 105.339844.035156-.066406c15.648438 15.699219 29.417969 29.519531 29.433594 29.535156zm0 0" fill="#ce9c49" data-original="#e8cfa5" style="" class=""/><path xmlns="http://www.w3.org/2000/svg" d="m181.894531 103.484375h-21.890625c-3.132812 0-5.671875-2.539063-5.671875-5.675781v-81.671875c0-3.136719 2.539063-5.675781 5.671875-5.675781h149.4375c3.132813 0 5.675782 2.539062 5.675782 5.675781v81.671875c0 3.132812-2.539063 5.675781-5.675782 5.675781zm0 0" fill="#00c260" data-original="#92e7bc" style="" class=""/><path xmlns="http://www.w3.org/2000/svg" d="m456.179688 208.734375-81.058594-85.167969c-8.269532-8.695312-22.113282-9.078125-30.855469-.863281l-32.511719 30.554687c-8.996094 8.449219-21.097656 12.917969-34.113281 12.554688-12.78125-.351562-25.613281 2.992188-36.625 9.453125l-19.609375-6.292969c-10.871094-3.429687-22.375-3.472656-33.273438-.121094-12.410156 3.820313-25.832031.488282-35.015624-8.695312l-29.351563-29.347656c-4.132813-4.136719-9.632813-6.417969-15.480469-6.417969-5.851562 0-11.347656 2.28125-15.484375 6.414063l-86.398437 86.398437c-8.535156 8.539063-8.535156 22.425781 0 30.96875l44.351562 44.347656c3.382813 3.382813 5.246094 7.882813 5.246094 12.667969 0 10.371094 4.042969 20.125 11.375 27.457031.027344.027344.050781.054688.078125.078125l1.988281 1.945313-17.3125 17.3125c-13.566406 13.570312-13.566406 35.644531 0 49.214843 6.574219 6.570313 15.3125 10.191407 24.605469 10.191407.152344 0 .304687-.023438.457031-.023438.265625 8.546875 3.617188 17.015625 10.125 23.527344 6.785156 6.78125 15.695313 10.175781 24.605469 10.175781.421875 0 .839844-.046875 1.261719-.0625.421875 8.308594 3.757812 16.492188 10.089844 22.820313 6.570312 6.570312 15.308593 10.191406 24.605468 10.191406.128906 0 .25-.015625.378906-.019531.195313 8.652344 3.554688 17.242187 10.140626 23.828125 6.785156 6.785156 15.695312 10.175781 24.605468 10.175781s17.820313-3.390625 24.605469-10.175781l20.128906-20.128907 20.128907 20.128907c6.785156 6.785156 15.695312 10.175781 24.605468 10.175781s17.820313-3.390625 24.605469-10.175781c6.980469-6.980469 10.339844-16.207031 10.140625-25.375 8.421875-.347657 16.746094-3.6875 23.160156-10.105469 6.574219-6.570312 10.191406-15.308594 10.191406-24.605469 0-.261719-.03125-.519531-.035156-.78125 8.453125-.328125 16.8125-3.671875 23.25-10.113281 6.671875-6.667969 10.042969-15.394531 10.15625-24.15625 9.238282-.039062 17.917969-3.648438 24.453125-10.183594 12.59375-12.59375 13.476563-32.507812 2.695313-46.152344 5.832031-8.410156 9.238281-18.546874 9.753906-29.40625l1.140625-23.832031c.394531-8.324219 3.796875-16.214843 9.578125-22.21875l34.53125-35.878906c8.148438-8.46875 8.1875-21.769531.085938-30.28125zm-389.253907 177.664063c-5.410156-5.410157-5.410156-14.210938 0-19.621094l44.722657-44.726563c2.703124-2.703125 6.257812-4.054687 9.8125-4.054687 3.550781 0 7.105468 1.351562 9.8125 4.054687 5.410156 5.410157 5.410156 14.214844 0 19.625l-44.726563 44.722657c-2.621094 2.621093-6.105469 4.066406-9.8125 4.066406-3.703125 0-7.1875-1.445313-9.808594-4.066406zm35.1875 33.695312c-5.410156-5.410156-5.410156-14.210938 0-19.621094l44.722657-44.722656c2.707031-2.707031 6.257812-4.058594 9.8125-4.058594 3.554687 0 7.105468 1.351563 9.8125 4.058594 5.410156 5.410156 5.410156 14.210938 0 19.621094l-44.722657 44.722656c-5.414062 5.410156-14.214843 5.414062-19.625 0zm35.957031 32.933594c-5.410156-5.40625-5.410156-14.210938 0-19.621094l44.722657-44.726562c2.703125-2.703126 6.257812-4.054688 9.8125-4.054688 3.550781 0 7.105469 1.351562 9.808593 4.054688 2.621094 2.621093 4.066407 6.105468 4.066407 9.8125 0 3.707031-1.445313 7.191406-4.066407 9.8125l-44.722656 44.726562c-2.621094 2.617188-6.105468 4.0625-9.8125 4.0625-3.703125 0-7.1875-1.445312-9.808594-4.066406zm54.746094 34.003906c-5.410156 5.410156-14.214844 5.410156-19.621094 0-5.410156-5.410156-5.410156-14.214844 0-19.625l44.640626-44.640625c.03125-.03125.070312-.050781.101562-.082031 2.621094-2.621094 6.101562-4.0625 9.804688-4.0625 3.664062 0 7.109374 1.425781 9.71875 3.996094.058593.0625.101562.136718.160156.195312l.144531.144531c5.15625 5.425781 5.101563 14.023438-.222656 19.351563v-.003906zm89.46875 0c-5.410156 5.410156-14.210937 5.410156-19.621094 0l-20.128906-20.128906 9.800782-9.800782s0 0 0-.003906c3.480468-3.476562 6.050781-7.519531 7.746093-11.832031l21.085938 21.078125c.171875.171875.363281.316406.535156.484375l.582031.578125c5.410156 5.410156 5.410156 14.214844 0 19.625zm101.316406-105.324219c-2.617187 2.621094-6.105468 4.066407-9.808593 4.066407-3.707031 0-7.191407-1.445313-9.8125-4.066407l-44.726563-44.722656c-1.050781-1.050781-2.273437-1.824219-3.574218-2.332031-3.792969-1.578125-8.324219-.828125-11.410157 2.253906-4.085937 4.085938-4.085937 10.710938 0 14.796875l44.722657 44.722656c5.410156 5.414063 5.410156 14.214844 0 19.625-5.410157 5.410157-14.210938 5.410157-19.621094 0l-44.726563-44.722656c-4.082031-4.085937-10.707031-4.085937-14.792969 0-4.085937 4.082031-4.085937 10.707031 0 14.792969l.691407.6875c.113281.128906.195312.273437.320312.394531l44.722657 44.726563c2.621093 2.617187 4.066406 6.101562 4.066406 9.808593s-1.445313 7.191407-4.066406 9.8125c-5.320313 5.320313-13.90625 5.378907-19.339844.230469l-43.890625-43.890625c-6.574219-6.574219-15.3125-10.191406-24.605469-10.191406-.003906 0-.007812 0-.007812 0-.003907 0-.007813 0-.011719 0-.121094 0-.242188.015625-.367188.015625-.195312-9-3.765625-17.4375-10.152343-23.828125-7.105469-7.101563-16.539063-10.449219-25.867188-10.113281-.421875-8.304688-3.757812-16.488282-10.089844-22.820313-6.898437-6.898437-16-10.269531-25.0625-10.152344-.257812-8.550781-3.609375-17.027343-10.125-23.542969-13.566406-13.566406-35.640625-13.566406-49.210937 0l-12.617188 12.617188-2.101562-2.058594c-3.359375-3.378906-5.210938-7.863281-5.210938-12.628906 0-10.375-4.039062-20.128906-11.375-27.460938l-44.351562-44.351562c-.378907-.378906-.378907-.996094 0-1.378906l86.398437-86.398438c.378906-.375 1-.375 1.378906.003906l29.347657 29.347657c14.679687 14.679687 36.128906 20.007812 55.964843 13.898437 6.816407-2.097656 14.015626-2.070312 20.773438.0625l6.164062 1.980469-50.851562 49.777344c-10.574219 10.351562-13.625 26.839843-7.425781 40.09375 4.972656 10.628906 15.539062 18.738281 27.574219 21.160156 14.792968 2.984375 27.023437-3.210937 37.328124-9.25 6.347657-3.71875 11.300782-8.738281 15.671876-13.167969 2.949218-2.988281 5.738281-5.8125 8.675781-8.019531 4.367187-3.277344 9.425781-5.1875 14.242187-5.375 4.894532-.199219 10.984375 1.960937 16.863282 4.042969l1.703124.601562c7.886719 2.765625 14.65625 7.074219 20.6875 13.167969l.035157-.035156c2.035156 2.09375 8.789062 8.882812 32.503906 32.683593.214844.261719.398437.542969.644531.789063l44.726563 44.726563c5.40625 5.410156 5.40625 14.210937-.003907 19.621093zm57.417969-157.203125-34.53125 35.878906c-9.292969 9.65625-14.761719 22.347657-15.402343 35.734376l-1.136719 23.828124c-.257813 5.410157-1.609375 10.492188-3.917969 14.949219-19.222656-19.289062-64.640625-64.867187-65.476562-65.703125-8.199219-8.277344-17.828126-14.398437-28.621094-18.183594l-1.648438-.582031c-7.015625-2.484375-15.742187-5.566406-24.660156-5.222656-9.023438.351563-18.253906 3.742187-25.988281 9.550781-4.179688 3.136719-7.648438 6.652344-11.003907 10.050782-3.800781 3.851562-7.390624 7.488281-11.363281 9.816406-9.125 5.347656-15.75 8.171875-22.617187 6.789062-5.566406-1.121094-10.574219-4.859375-12.753906-9.515625-2.460938-5.257812-1.152344-12.105469 3.113281-16.28125l51.375-50.292969c3.734375-3.65625 7.804687-7.023437 12.0625-9.996093.011719-.007813.097656-.066407.105469-.074219 8.289062-5.773438 18.398437-8.796875 28.511718-8.527344 18.558594.5 35.96875-5.960937 49.015625-18.222656l32.511719-30.550781c.386719-.367188 1.003906-.351563 1.371094.039062l81.058594 85.167969c.359374.378906.359374.972656-.003907 1.347656zm0 0" fill="#000000" data-original="#000000" style="" class=""/><path xmlns="http://www.w3.org/2000/svg" d="m288.011719 308.136719c-2.164063-5.355469-8.261719-7.941407-13.621094-5.773438-5.355469 2.167969-7.941406 8.265625-5.773437 13.621094l.152343.378906c1.648438 4.070313 5.566407 6.542969 9.703125 6.542969 1.304688 0 2.632813-.246094 3.917969-.765625 5.355469-2.167969 7.941406-8.265625 5.773437-13.621094zm0 0" fill="#000000" data-original="#000000" style="" class=""/><path xmlns="http://www.w3.org/2000/svg" d="m160.003906 113.945312h149.4375c8.894532 0 16.132813-7.238281 16.132813-16.136718v-81.671875c0-8.898438-7.238281-16.136719-16.136719-16.136719h-149.433594c-8.898437 0-16.136718 7.238281-16.136718 16.136719v81.671875c0 8.898437 7.238281 16.136718 16.136718 16.136718zm4.785156-93.023437h139.863282v72.101563h-139.863282zm0 0" fill="#000000" data-original="#000000" style="" class=""/><path xmlns="http://www.w3.org/2000/svg" d="m210.734375 52.328125c-2.164063-5.355469-8.265625-7.941406-13.621094-5.773437-5.355469 2.164062-7.941406 8.261718-5.773437 13.617187l.140625.347656c1.644531 4.074219 5.5625 6.542969 9.699219 6.542969 1.304687 0 2.632812-.246094 3.917968-.765625 5.355469-2.164063 7.941406-8.261719 5.777344-13.621094zm0 0" fill="#000000" data-original="#000000" style="" class=""/><path xmlns="http://www.w3.org/2000/svg" d="m242.816406 52.328125c-2.167968-5.355469-8.265625-7.941406-13.621094-5.773437-5.355468 2.164062-7.941406 8.261718-5.777343 13.617187l.140625.347656c1.648437 4.074219 5.566406 6.542969 9.703125 6.542969 1.304687 0 2.632812-.246094 3.917969-.765625 5.355468-2.164063 7.941406-8.261719 5.773437-13.621094zm0 0" fill="#000000" data-original="#000000" style="" class=""/><path xmlns="http://www.w3.org/2000/svg" d="m274.894531 52.328125c-2.164062-5.355469-8.261719-7.941406-13.621093-5.773437-5.355469 2.164062-7.941407 8.261718-5.773438 13.617187l.136719.347656c1.648437 4.074219 5.566406 6.542969 9.703125 6.542969 1.304687 0 2.632812-.246094 3.917968-.765625 5.355469-2.164063 7.941407-8.261719 5.777344-13.621094zm0 0" fill="#000000" data-original="#000000" style="" class=""/></g></svg>
