<svg id="Capa_1" enable-background="new 0 0 510 510" height="512" viewBox="0 0 510 510" width="512" xmlns="http://www.w3.org/2000/svg"><g><g id="XMLID_838_"><path id="XMLID_2657_" d="m225 480v30h90l15-60-15-60c-49.6 0-90 40.4-90 90z" fill="#fd676a"/><path id="XMLID_2663_" d="m0 457.5v52.5h97.5l7.5-75-7.5-75c-53.8 0-97.5 43.7-97.5 97.5z" fill="#7ed8f6"/><path id="XMLID_2718_" d="m375 0c-74.4 0-135 60.6-135 135 0 27.2 8.2 53.5 23.2 75.6-7.2 7.2-52.1 52.1-59.4 59.4h171.2c0-.1 15-135 15-135z" fill="#8ee26b"/><path id="XMLID_2662_" d="m195 457.5c0-53.8-43.7-97.5-97.5-97.5v150h97.5c0-17.5 0-35 0-52.5z" fill="#6aa9ff"/><path id="XMLID_2655_" d="m405 480c0-49.6-40.4-90-90-90v120h90c0-10.5 0-19.5 0-30z" fill="#e4336d"/><path id="XMLID_2649_" d="m510 465c-7.3 0-52.7 0-60 0 0-10.5 0-19.5 0-30h30c0-10.1 0-139.9 0-150h30z" fill="#cdf"/><path id="XMLID_2699_" d="m30 322.5c0 37.2 30.3 67.5 67.5 67.5l7.5-67.5-7.5-67.5c-37.2 0-67.5 30.3-67.5 67.5z" fill="#ffcebf"/><path id="XMLID_2661_" d="m255 360c0 33.1 26.9 60 60 60l15-60-15-60c-33.1 0-60 26.9-60 60z" fill="#ffcebf"/><path id="XMLID_2659_" d="m45 45v180h30c0-10.1 0-139.9 0-150h22.5l7.5-15-7.5-15c-17.5 0-35 0-52.5 0z" fill="#e6f2ff"/><path id="XMLID_2660_" d="m375 0v270c74.4 0 135-60.6 135-135s-60.6-135-135-135z" fill="#00cb75"/><path id="XMLID_2720_" d="m360 150h15l15-15-15-15c-5.2 0-9.8 0-15 0z" fill="#e6f2ff"/><path id="XMLID_1_" d="m390 120c-5.2 0-9.8 0-15 0v30h15c0-10.5 0-19.5 0-30z" fill="#cdf"/><path id="XMLID_2656_" d="m315 300v120c33.1 0 60-26.9 60-60s-26.9-60-60-60z" fill="#fcaf9d"/><path id="XMLID_2667_" d="m97.5 255v135c37.2 0 67.5-30.3 67.5-67.5s-30.3-67.5-67.5-67.5z" fill="#fcaf9d"/><path id="XMLID_2653_" d="m210 45c-30.3 0-94.9 0-112.5 0v30h112.5c0-10.5 0-19.5 0-30z" fill="#cdf"/></g><path d="m420 120h30v30h-30z" fill="#cdf"/><path d="m300 120h30v30h-30z" fill="#e6f2ff"/></g></svg>