<?xml version="1.0" encoding="utf-8"?>
<!-- Generator: Adobe Illustrator 24.3.0, SVG Export Plug-In . SVG Version: 6.00 Build 0)  -->
<svg version="1.1" id="Capa_1" xmlns="http://www.w3.org/2000/svg" xmlns:xlink="http://www.w3.org/1999/xlink" x="0px" y="0px"
	 viewBox="0 0 512 512" style="enable-background:new 0 0 512 512;" xml:space="preserve">
<style type="text/css">
	.st0{fill:#FFCBBE;}
	.st1{fill:#EAAC9D;}
	.st2{fill:#DF9380;}
	.st3{fill:#DA387D;}
	.st4{fill:#D80A61;}
	.st5{fill:#F9C6DA;}
	.st6{fill:#EFA5C3;}
</style>
<g>
	<path class="st0" d="M430.5,194.2h-8.7c13,0,23.6-10.6,23.6-23.6v-8.7c0-13-10.6-23.6-23.6-23.6h-22.2c10.4,0,18.8-8.4,18.8-18.8
		v-15.9c0-10.4-8.4-18.8-18.8-18.8h-112c-18.8,0-36.2,6.2-50.2,16.6c-8.6,6.4-19.2,9.7-30,9.7h-56l-41.7,139h65.7
		c17.3,0,32.5,11.7,37,28.4l42.1,157.2c0.9,3.2,3.8,5.5,7.2,5.5c19.2,0,34.8-15.6,34.8-34.8v-78.5c0-12.1,9.8-21.9,21.9-21.9h103.4
		c13,0,23.6-10.6,23.6-23.6v-8.7c0-13-10.6-23.6-23.6-23.6h8.7c13,0,23.6-10.6,23.6-23.6v-8.7C454.1,204.8,443.6,194.2,430.5,194.2
		L430.5,194.2z"/>
	<path class="st1" d="M430.5,194.2h-8.7c13,0,23.6-10.6,23.6-23.6v-8.7c0-13-10.6-23.6-23.6-23.6h-22.2c10.4,0,18.8-8.4,18.8-18.8
		v-15.9c0-10.4-8.4-18.8-18.8-18.8h-13.3c0.1,0.9,0.2,1.9,0.2,2.9v157.5c0,24.8-20.1,45-45,45h-29.8c-26,0-47.1,21.1-47.1,47.1v53.3
		c0,11.7-5.8,22-14.6,28.4l4.5,16.9c0.9,3.2,3.8,5.5,7.2,5.5c19.2,0,34.8-15.6,34.8-34.8v-78.5c0-12.1,9.8-21.9,21.9-21.9h103.4
		c13,0,23.6-10.6,23.6-23.6v-8.7c0-13-10.6-23.6-23.6-23.6h8.7c13,0,23.6-10.6,23.6-23.6v-8.7C454.1,204.8,443.6,194.2,430.5,194.2
		L430.5,194.2z"/>
	<path class="st1" d="M451.1,238.2c-4.1,7.1-11.7,12-20.5,12h-56.9c-3.3,0-6-2.7-6-6c0-3.3,2.7-6,6-6L451.1,238.2L451.1,238.2z
		 M367.6,188.2c0,3.3,2.7,6,6,6h57c0,0,0,0,0,0h-8.7c8.8,0,16.5-4.8,20.5-12h-68.8C370.3,182.3,367.6,184.9,367.6,188.2z
		 M367.6,132.3c0,3.3,2.7,6,6,6h26.1c8,0,14.8-5,17.5-12h-43.6C370.3,126.4,367.6,129,367.6,132.3z"/>
	<g>
		<path class="st2" d="M451.1,238.2h-64.5v6.9c0,1.7-0.1,3.4-0.3,5h44.2C439.3,250.1,447,245.3,451.1,238.2L451.1,238.2z"/>
		<path class="st2" d="M386.6,194.2h44c0,0,0,0,0,0h-8.7c8.8,0,16.5-4.8,20.5-12h-55.8L386.6,194.2L386.6,194.2z"/>
		<path class="st2" d="M399.6,138.3c8,0,14.8-5,17.5-12h-30.6v12H399.6z"/>
	</g>
	<path class="st3" d="M64.4,272.2H145c3.6,0,6.5-2.9,6.5-6.5V111.1H64.4c-3.6,0-6.5,2.9-6.5,6.5v148.2
		C57.9,269.3,60.8,272.2,64.4,272.2L64.4,272.2z"/>
	<path class="st4" d="M119.5,111.1v108.1c0,20.5-16.6,37-37,37H57.9v9.5c0,3.6,2.9,6.5,6.5,6.5H145c3.6,0,6.5-2.9,6.5-6.5V111.1
		L119.5,111.1z"/>
	<circle class="st5" cx="104.7" cy="228.5" r="16.6"/>
	<path class="st6" d="M109.7,244.3c6.7-2.1,11.5-8.4,11.5-15.8c0-2.7-0.6-5.2-1.8-7.5C119.1,230,115.5,238.1,109.7,244.3
		L109.7,244.3z"/>
</g>
</svg>
