<?xml version="1.0" encoding="utf-8"?>
<!-- Generator: Adobe Illustrator 24.3.0, SVG Export Plug-In . SVG Version: 6.00 Build 0)  -->
<svg version="1.1" id="Layer_1" xmlns:svgjs="http://svgjs.com/svgjs"
	 xmlns="http://www.w3.org/2000/svg" xmlns:xlink="http://www.w3.org/1999/xlink" x="0px" y="0px" viewBox="0 0 512 512"
	 style="enable-background:new 0 0 512 512;" xml:space="preserve">
<style type="text/css">
	.st0{fill:#4196F1;}
	.st1{fill:#FFFFFF;}
	.st2{fill:#111111;}
</style>
<g>
	<path class="st0" d="M223,20.2C118.7,33.6,34.5,117.7,20.8,221.9c-9.2,69.6,12.1,134.3,52.3,182.7V471c0,17,17.8,28,33,20.4
		l48.3-24.2c39.2,18.4,84,26.8,131.5,20.4c106-14.1,191-100.4,202.9-206.7C505.8,128.1,376.4,0.4,223,20.2z"/>
	<g>
		<path class="st1" d="M97.8,507.5c-6.7,0-13.4-1.9-19.1-5.5c-10.8-6.7-17.3-18.3-17.3-31v-61.6l-1-1.2
			c-42-53.2-60.2-120-51.2-188.1C23.7,110.6,113.7,20.8,223.3,6.6c11-1.4,22.1-2.1,33-2.1c65.9,0,128,25.4,175,71.5
			c55,54,81.6,129.3,73,206.5c-12.4,111.8-102.7,203.7-214.6,218.7c-10.9,1.4-22,2.2-32.9,2.2c-33.9,0-66.9-6.8-98.2-20.2l-1.9-0.8
			l-42.5,21.2C109.1,506.2,103.4,507.5,97.8,507.5z M256.3,49.8c-9,0-18.1,0.6-27.1,1.8C139.5,63.2,65.8,136.6,54,226.3
			c-7.6,57.8,8.5,114,45.3,158.3c1.8,2.2,2.8,4.9,2.8,7.8v61c0,3.1,1.5,5.8,4.1,7.4l0.1,0.1c1.4,0.9,3,1.3,4.6,1.3
			c1.4,0,2.7-0.3,3.9-1l44.4-22.2c1.7-0.8,3.6-1.3,5.4-1.3c1.8,0,3.6,0.4,5.2,1.2c27.5,12.9,56.8,19.5,87,19.5c0,0,0,0,0,0
			c9,0,18-0.6,26.9-1.8c91.6-12.2,165.6-87.5,175.8-179c7-63.3-14.8-125-59.8-169.2C361.2,70.6,310.3,49.8,256.3,49.8z"/>
		<path class="st2" d="M256.3,9C321,9,382,33.9,428.1,79.2c54,53.1,80.2,127,71.7,202.8c-12.2,109.7-100.8,200-210.7,214.7
			c-10.7,1.4-21.6,2.1-32.4,2.1c-33.3,0-65.7-6.7-96.4-19.8l-3.8-1.6l-3.7,1.9l-40.6,20.3c-4.5,2.2-9.4,3.4-14.3,3.4
			c-5.9,0-11.7-1.7-16.8-4.8c-9.5-5.9-15.1-16-15.1-27.2v-60v-3.1l-1.9-2.5C22.7,353.2,4.9,287.6,13.7,220.7
			C27.9,113.1,116.3,25,223.9,11.1C234.6,9.7,245.6,9,256.3,9 M110.9,466.7c2.1,0,4.1-0.5,6-1.4l44.4-22.2c1-0.5,2.2-0.8,3.4-0.8
			c1.1,0,2.2,0.2,3.3,0.7c28.1,13.2,58.1,19.9,88.9,19.9c9.2,0,18.4-0.6,27.5-1.8c93.7-12.5,169.2-89.4,179.6-182.9
			c7.2-64.7-15.1-127.7-61.1-172.9c-39.3-38.6-91.3-59.8-146.5-59.8c-9.2,0-18.5,0.6-27.7,1.8C136.9,59,61.6,134.1,49.5,225.7
			c-7.8,59.1,8.7,116.5,46.3,161.8c1.1,1.4,1.8,3.1,1.8,4.9v61c0,4.6,2.3,8.7,6.2,11.2l0.1,0.1l0.1,0.1
			C106.1,466,108.5,466.7,110.9,466.7 M256.3,0c-11.1,0-22.4,0.7-33.6,2.2C111.1,16.6,19.5,108,4.8,219.5
			C-4.4,289,14.1,356.8,56.9,411v60c0,14.3,7.3,27.3,19.4,34.8c6.6,4.1,14,6.2,21.5,6.2c6.2,0,12.5-1.5,18.3-4.4l40.6-20.3
			c31.8,13.6,65.7,20.5,100,20.5c11.2,0,22.4-0.7,33.5-2.2C404.2,490.5,496.1,396.8,508.8,283c8.7-78.6-18.4-155.2-74.4-210.2
			C386.5,25.7,323,0,256.3,0L256.3,0z M110.9,457.7c-0.9,0-1.7-0.3-2.3-0.7c-0.9-0.6-2-1.7-2-3.6v-61c0-3.9-1.4-7.7-3.8-10.6
			c-36-43.3-51.8-98.3-44.3-154.9C70,139.2,142.1,67.4,229.7,56.1c8.9-1.2,17.8-1.7,26.6-1.7c52.5,0,102.4,20.2,140.2,57.3
			c44.1,43.3,65.4,103.6,58.5,165.5c-10,89.5-82.2,163.1-171.9,175c-8.8,1.2-17.6,1.7-26.3,1.7c-29.3,0-58.3-6.4-85.1-19
			c-2.2-1.1-4.7-1.6-7.1-1.6c-2.6,0-5.1,0.6-7.4,1.8l-44.4,22.2C112.1,457.5,111.5,457.7,110.9,457.7L110.9,457.7z"/>
	</g>
	<g>
		<path class="st1" d="M138.4,325.3c-2.8,0-5.5-1.6-7-4.2c-0.8-1.5-2-4.4,0-7.9l83.3-118.5l0.1-0.1c1.4-2.5,4.1-4.1,7.1-4.1
			c1.8,0,3.4,0.6,4.9,1.6l55.8,41.8c2.6,2,5.8,3,9.1,3c2.7,0,5.4-0.7,7.8-2.2l0.1-0.1l67.9-48c1.3-0.8,2.7-1.2,4.1-1.2
			c2.8,0,5.4,1.5,7,4c0.9,1.4,2,4.2,0.3,7.7l-67.2,116.3l0,0.1c-1.4,2.8-4.2,4.5-7.3,4.5c-1.5,0-2.9-0.4-4.2-1.2l-74.5-44.7
			c-2.3-1.4-5-2.2-7.8-2.2c-2.3,0-4.7,0.6-6.8,1.6l-0.3,0.1l-68.8,52.5C140.7,325,139.5,325.3,138.4,325.3z"/>
		<path class="st2" d="M371.4,189.1c1.5,0,3.1,0.9,4,2.3c0.8,1.3,0.9,2.8,0.2,4.2l-67.1,116.1l-0.1,0.2l-0.1,0.2
			c-0.9,1.9-2.8,2.6-4.1,2.6c-0.8,0-1.6-0.2-2.4-0.7l-74.5-44.7c-2.9-1.7-6.2-2.7-9.6-2.7c-2.9,0-5.8,0.7-8.3,2l-0.6,0.3l-0.5,0.4
			L140,321.5c-0.6,0.2-1.1,0.3-1.6,0.3c-1.6,0-3.1-1-4-2.4c-0.6-1-1-2.5-0.1-4.3l83.1-118.2l0.2-0.3l0.2-0.3c0.8-1.5,2.3-2.3,4-2.3
			c0.7,0,1.7,0.2,2.8,0.9l55.8,41.8c3.2,2.4,7.2,3.7,11.2,3.7c3.4,0,6.7-0.9,9.6-2.6l0.2-0.1l0.2-0.2l67.7-47.8
			C369.9,189.3,370.6,189.1,371.4,189.1 M371.4,182.1c-2,0-4,0.5-6,1.7l-67.9,48c-1.8,1.1-3.9,1.7-6,1.7c-2.5,0-4.9-0.8-7-2.3
			l-55.8-41.8c-2.1-1.6-4.5-2.3-7-2.3c-4,0-7.9,2.1-10.1,5.9l-83.3,118.5c-4.7,8.3,1.8,17.4,10,17.4c1.7,0,3.5-0.4,5.3-1.3
			l68.8-52.5c1.6-0.8,3.4-1.2,5.2-1.2c2.1,0,4.1,0.6,6,1.7l74.5,44.7c1.9,1.1,3.9,1.7,6,1.7c4.2,0,8.4-2.3,10.4-6.4l67.2-116.4
			C385.9,190.6,379.3,182.1,371.4,182.1L371.4,182.1z"/>
	</g>
</g>
</svg>
