<?xml version="1.0" encoding="utf-8"?>
<!-- Generator: Adobe Illustrator 24.3.0, SVG Export Plug-In . SVG Version: 6.00 Build 0)  -->
<svg version="1.1" id="Layer_1" xmlns:svgjs="http://svgjs.com/svgjs"
	 xmlns="http://www.w3.org/2000/svg" xmlns:xlink="http://www.w3.org/1999/xlink" x="0px" y="0px" viewBox="0 0 512 512"
	 style="enable-background:new 0 0 512 512;" xml:space="preserve">
<style type="text/css">
	.st0{fill:#476066;}
	.st1{fill:#38B4FF;}
	.st2{fill:#87DFF3;}
	.st3{fill:#FFFFFF;}
	.st4{fill:#C2F6FF;}
	.st5{fill:#080601;}
	.st6{fill:#226F8D;}
	.st7{fill:#1A8FB3;}
	.st8{fill:#6BC8FF;}
</style>
<g>
	<g>
		<g>
			<g>
				<path class="st0" d="M99.4,406.2l227.5,15.2c4.2,0.3,7.9-2.9,8.2-7.2L357,87.3c0.3-4.2-2.9-7.9-7.2-8.2L122.3,63.9
					c-4.2-0.3-7.9,2.9-8.2,7.2L92.3,398C92,402.2,95.2,405.9,99.4,406.2L99.4,406.2z"/>
			</g>
			<g>
				<g>
					<g>
						<g>
							<g>
								<path class="st1" d="M76.3,446.1h174.1l61.6-61.3v-274c0-4.3-3.4-7.7-7.7-7.7h-228c-4.3,0-7.7,3.4-7.7,7.7v327.6
									C68.6,442.7,72.1,446.1,76.3,446.1z"/>
							</g>
							<path class="st2" d="M304.4,103.1h-30.8c4.3,0,7.7,3.4,7.7,7.7v274l-0.2,30.9l31-30.9v-274
								C312.1,106.5,308.6,103.1,304.4,103.1z"/>
							<g>
								<path class="st0" d="M269.1,240.4H111.6c-3.2,0-5.8,2.6-5.8,5.8s2.6,5.8,5.8,5.8h157.5c3.2,0,5.8-2.6,5.8-5.8
									S272.3,240.4,269.1,240.4z"/>
								<path class="st0" d="M269.1,280.7H111.6c-3.2,0-5.8,2.6-5.8,5.8c0,3.2,2.6,5.8,5.8,5.8h157.5c3.2,0,5.8-2.6,5.8-5.8
									C274.9,283.3,272.3,280.7,269.1,280.7z"/>
								<path class="st0" d="M111.6,211.7h157.5c3.2,0,5.8-2.6,5.8-5.8s-2.6-5.8-5.8-5.8H111.6c-3.2,0-5.8,2.6-5.8,5.8
									S108.4,211.7,111.6,211.7z"/>
								<path class="st0" d="M139.3,171.4h102c3.2,0,5.8-2.6,5.8-5.8s-2.6-5.8-5.8-5.8h-102c-3.2,0-5.8,2.6-5.8,5.8
									S136.1,171.4,139.3,171.4z"/>
							</g>
							<path class="st3" d="M212.8,395.8c-10.4,0-38.1,0.1-41.6,0.1c-5.3,0-10.6-1.6-12-8.2c-1.2-5.9-9.5-5.1-11.1,0
								c-3.9,12.3-10.7,7.5-14.3-0.8c-3.7-8.4-4.6-17.9-6.3-26.9c-1.2-6.6-11.2-4.8-11.3,1.5c-0.2,8.3-1,16.4-3.1,24.5
								c-2.2,8.3-5.4,16.2-8.6,24.2c-2.8,6.9,8.4,9.9,11.1,3.1c2.9-7,5.7-14.1,7.8-21.3c5.5,13.1,18.3,21.8,29.8,9.1
								c6.1,7.1,15.1,6.5,23.6,6.4c12,0,24.1,0,36.1-0.1C220.3,407.3,220.3,395.7,212.8,395.8z"/>
						</g>
					</g>
				</g>
				<path class="st4" d="M250.5,446.1V392c0-4.3,3.4-7.7,7.7-7.7h53.9L250.5,446.1z"/>
			</g>
		</g>
		<g>
			<path class="st5" d="M423.7,249.3l-25.7,0.1v-39.1c0-7.1,5.7-12.8,12.8-12.9h0c7.1,0,12.9,5.7,12.9,12.8L423.7,249.3L423.7,249.3
				z"/>
			<path class="st3" d="M410.9,446.1c-8-7.9-12.5-18.7-12.5-29.9l0-57c0-0.5,0.4-0.9,0.9-0.9l23.1-0.1c0.5,0,0.9,0.4,0.9,0.9l0,57
				c0,11.2-4.4,21.9-12.3,29.8L410.9,446.1z"/>
			<path class="st6" d="M410.9,419.3L410.9,419.3c-11.1,0.1-20.1-8.9-20.1-20V234.9c0-5.2,4.2-9.5,9.4-9.5l21.3-0.1
				c5.3,0,9.5,4.2,9.5,9.5v164.4C431,410.2,422,419.2,410.9,419.3L410.9,419.3z"/>
			<path class="st7" d="M421.5,225.3l-18.3,0.1c4.6,0.6,8.2,4.6,8.2,9.4v164.4c0,7.6-4.2,14.2-10.4,17.6c2.9,1.6,6.3,2.6,9.9,2.5h0
				c11.1-0.1,20.1-9.1,20.1-20.1V234.8C431,229.5,426.7,225.3,421.5,225.3L421.5,225.3z"/>
			<path class="st3" d="M441.2,248.8l-55.1,0.3c-5.6,0-10.2,4.6-10.2,10.2c0,5.6,4.6,10.1,10.2,10.1l45-0.2v59.7
				c0,5.6,4.6,10.1,10.2,10.1c5.6,0,10.2-4.6,10.2-10.2v-69.8C451.4,253.3,446.8,248.8,441.2,248.8L441.2,248.8z"/>
			<g>
				<path class="st8" d="M441.2,248.8l-29.6,0.1l-0.1,20.3l19.5-0.1v59.7c0,5.6,4.6,10.1,10.2,10.1c5.6,0,10.2-4.6,10.2-10.2v-69.8
					C451.4,253.3,446.8,248.8,441.2,248.8L441.2,248.8z"/>
			</g>
		</g>
	</g>
</g>
</svg>
