<?xml version="1.0" encoding="utf-8"?>
<!-- Generator: Adobe Illustrator 24.3.0, SVG Export Plug-In . SVG Version: 6.00 Build 0)  -->
<svg version="1.1" id="Capa_1" xmlns="http://www.w3.org/2000/svg" xmlns:xlink="http://www.w3.org/1999/xlink" x="0px" y="0px"
	 viewBox="0 0 512 512" style="enable-background:new 0 0 512 512;" xml:space="preserve">
<style type="text/css">
	.st0{fill:#F29F5C;}
	.st1{fill:#D37D42;}
	.st2{fill:#F9C295;}
	.st3{fill:#E59F6A;}
	.st4{fill:#5C9CEE;}
	.st5{fill:#3580D3;}
	.st6{fill:#ED5575;}
	.st7{fill:#CC3A60;}
	.st8{fill:#EBEEF2;}
</style>
<path class="st0" d="M387.2,250.4L376.7,165l-19.7,2.4l0,0l-38.2-21.5c-4.1-2.3-8.8-3.3-13.4-2.9l-60.3,5.6
	c-7.4,0.7-14,4.9-17.8,11.4l-42.5,73.2c-3.1,5.4-0.7,12.3,5.2,14.5l1.7,0.7c3.3,1.3,6.8,2,10.2,2.3l-5.4,4.7l-10.8,9.4l-30.7,26.1
	c-5.5,4.8-6,13-1.3,18.5l3.1,3.6c6.1,7,16.7,7.7,23.7,1.6l11.7,13.4c3.8,4.4,9.4,6.3,14.8,5.6c3.2-0.4,6.4-1.7,9-4l11.7,13.4
	c3.8,4.4,9.4,6.3,14.8,5.6c3.2-0.4,6.4-1.7,9-4l6.4,5.5c6.1,7,16.7,7.7,23.8,1.6l8.6-7.5l72.7-56.6l0.1-0.1l28.7,0L387.2,250.4z"/>
<path class="st1" d="M356,265.6L356,265.6l-72.8,56.7l-8.6,7.5c-7,6.1-17.7,5.4-23.8-1.6l-6.4-5.5c-2.6,2.3-5.8,3.6-9,4
	c-5.4,0.7-10.9-1.3-14.8-5.6l-11.7-13.4c-2.6,2.3-5.8,3.6-9,4c-5.4,0.7-10.9-1.3-14.8-5.6l-11.7-13.4c-6,5.2-14.6,5.4-20.8,1
	c-3.2,4.8-2.9,11.3,1,15.8l3.1,3.6c6.1,7,16.7,7.7,23.7,1.6l11.7,13.4c3.8,4.4,9.4,6.3,14.8,5.6c3.2-0.4,6.4-1.7,9-4l11.7,13.4
	c3.8,4.4,9.4,6.3,14.8,5.6c3.2-0.4,6.4-1.7,9-4l6.4,5.5c6.1,7,16.7,7.7,23.8,1.6l8.6-7.5l72.7-56.6l0.1-0.1l28.7,0l-3.2-25.8
	L356,265.6z"/>
<path class="st2" d="M369.3,302.5l-38.9-33.6l-10.8-9.3l-7.7-6.7l-33.3-28.7l3.8-32.8c1.3-11.1-5.7-21.5-16.4-24.4l-72.6-20.1
	c-7.7-2.1-15.8,1.4-19.4,8.5l-9.1,17.8l-39.2-2.7l-10,85.5l-4.4,37.2l38.2,2.5l0.1,0.1l79.7,68.7l8.7,7.5c7,6.1,17.7,5.3,23.7-1.8
	l11.6-13.5c2.6,2.3,5.8,3.6,9,4c5.4,0.6,10.9-1.3,14.7-5.7l11.6-13.5c2.6,2.3,5.8,3.6,9,4c5.4,0.6,10.9-1.3,14.7-5.7l11.6-13.5
	c7,6.1,17.7,5.3,23.7-1.8l3.1-3.6C375.4,315.5,374.8,307.2,369.3,302.5z"/>
<g>
	<path class="st3" d="M369.3,302.5l-11.9-10.2c3.9,5.1,3.8,12.4-0.6,17.4l-3.3,3.8c-6.4,7.5-17.7,8.3-25.2,1.9L316,329.7
		c-4,4.7-9.9,6.8-15.6,6.1c-3.4-0.4-6.8-1.8-9.6-4.2l-12.3,14.3c-4,4.7-9.9,6.8-15.6,6.1c-3.4-0.4-6.8-1.8-9.6-4.2l-12.3,14.3
		c-2.3,2.7-5.3,4.5-8.5,5.5l5.3,4.5c7,6.1,17.7,5.3,23.7-1.8l11.6-13.5c2.6,2.3,5.8,3.6,9,4c5.4,0.6,10.9-1.3,14.7-5.7l11.6-13.5
		c2.6,2.3,5.8,3.6,9,4c5.4,0.6,10.9-1.3,14.7-5.7l11.6-13.5c7,6.1,17.7,5.3,23.7-1.8l3.1-3.6C375.4,315.5,374.8,307.2,369.3,302.5z"
		/>
	<path class="st3" d="M347.8,321.8l-21.3-18.4c-2.5-2.2-6.4-1.9-8.6,0.6c-2.2,2.5-1.9,6.4,0.6,8.6l21.3,18.4l4-4.7
		c1.6,1.4,3.4,2.4,5.3,3.1C350.5,326.9,350,323.7,347.8,321.8z"/>
	<path class="st3" d="M313.7,344.6c1.5-2.5,1-5.7-1.3-7.7l-19.2-16.5c-2.5-2.2-6.4-1.9-8.6,0.6c-2.2,2.5-1.9,6.4,0.6,8.6l19.2,16.5
		c0,0,0,0,0,0l4-4.6C310,342.9,311.8,344,313.7,344.6z"/>
</g>
<g>
	<path class="st0" d="M151.2,295.7l-4.6,6.1c-5,6.6-3.7,16.1,2.9,21.1l0,0c6.6,5,16.1,3.7,21.1-2.9l4.6-6.1c5-6.6,3.7-16.1-2.9-21.1
		l0,0C165.7,287.8,156.2,289.1,151.2,295.7z"/>
	<path class="st0" d="M179.3,308.6l-8.7,11.5c-5,6.6-3.7,16.1,2.9,21.1l0,0c6.6,5,16.1,3.7,21.1-2.9l8.7-11.5
		c5-6.6,3.7-16.1-2.9-21.1l0,0C193.8,300.6,184.4,301.9,179.3,308.6z"/>
	<path class="st0" d="M206.5,322.6l-11.9,15.7c-5,6.6-3.7,16.1,2.9,21.1l0,0c6.6,5,16.1,3.7,21.1-2.9l11.9-15.7
		c5-6.6,3.7-16.1-2.9-21.1l0,0C221,314.7,211.6,316,206.5,322.6z"/>
	<path class="st0" d="M231.3,339.9l-12.5,16.6c-5,6.6-3.7,16.1,2.9,21.1l0,0c6.6,5,16.1,3.7,21.1-2.9l12.5-16.6
		c5-6.6,3.7-16.1-2.9-21.1l0,0C245.8,332,236.3,333.3,231.3,339.9z"/>
	<path class="st0" d="M357,167.4l-38.2-21.5c-4.1-2.3-8.8-3.3-13.4-2.9l-60.3,5.6c-7.4,0.7-14,4.9-17.8,11.4l-42.5,73.2
		c-3.1,5.4-0.7,12.3,5.2,14.5l1.7,0.7c15.6,5.9,33.2,0.9,43.3-12.3l16.3-21.2c0,0,39.2,45.3,82.3-7.6"/>
</g>
<path class="st4" d="M463,299l-20-162.3c-0.2-1.6-1-3-2.3-4c-1.3-1-2.9-1.4-4.5-1.2l-46.7,5.8c-12.1,1.5-20.8,12.6-19.3,24.7
	l16,130.3c1.4,11.2,11,19.5,22,19.5c0.9,0,1.8-0.1,2.7-0.2l46.7-5.8C461,305.3,463.4,302.3,463,299z"/>
<path class="st5" d="M463,299l-2.2-17.8c-1,1.5-2.6,2.5-4.5,2.7l-49,6c-1,0.1-1.9,0.2-2.9,0.2c-8.2,0-15.7-4.4-19.9-11.2l1.6,13.3
	c1.4,11.2,11,19.5,22,19.5c0.9,0,1.8-0.1,2.7-0.2l46.7-5.8C461,305.3,463.4,302.3,463,299z"/>
<path class="st6" d="M122.5,137.1l-46.7-5.8c-1.6-0.2-3.2,0.2-4.5,1.2c-1.3,1-2.1,2.4-2.3,4L49,299c-0.4,3.3,2,6.4,5.3,6.8l46.7,5.8
	c0.9,0.1,1.8,0.2,2.7,0.2c11,0,20.6-8.2,22-19.5l16-130.3C143.3,149.7,134.7,138.6,122.5,137.1z"/>
<path class="st7" d="M49,299l2.2-17.8c1,1.5,2.6,2.5,4.5,2.7l49,6c1,0.1,1.9,0.2,2.9,0.2c8.2,0,15.7-4.4,19.9-11.2l-1.6,13.3
	c-1.4,11.2-11,19.5-22,19.5c-0.9,0-1.8-0.1-2.7-0.2l-46.7-5.8C51,305.3,48.6,302.3,49,299z"/>
<g>
	<circle class="st8" cx="424.2" cy="273" r="11.7"/>
	<circle class="st8" cx="87.2" cy="273" r="11.7"/>
</g>
</svg>
