<?xml version="1.0" encoding="utf-8"?>
<!-- Generator: Adobe Illustrator 24.3.0, SVG Export Plug-In . SVG Version: 6.00 Build 0)  -->
<svg version="1.1" id="Layer_1" xmlns="http://www.w3.org/2000/svg" xmlns:xlink="http://www.w3.org/1999/xlink" x="0px" y="0px"
	 viewBox="0 0 750 500" style="enable-background:new 0 0 750 500;" xml:space="preserve">
<style type="text/css">
	.st0{fill:#91B3FA;}
	.st1{fill:#BDD0FB;}
	.st2{fill:#F4F7FA;}
	.st3{clip-path:url(#SVGID_2_);fill:url(#SVGID_3_);}
	.st4{opacity:0.5;clip-path:url(#SVGID_2_);}
	.st5{fill:#BEB8F2;}
	.st6{fill:url(#SVGID_4_);}
	.st7{opacity:0.5;clip-path:url(#SVGID_6_);}
	.st8{fill:#FCFDFE;}
	.st9{fill:url(#SVGID_7_);}
	.st10{opacity:0.5;clip-path:url(#SVGID_9_);}
	.st11{fill:url(#SVGID_10_);}
	.st12{fill:#17A3B6;}
	.st13{fill:#102D5B;}
	.st14{opacity:0.15;}
	.st15{fill:url(#SVGID_11_);}
	.st16{fill:#FFFFFF;}
	.st17{opacity:0.3;fill:url(#SVGID_12_);}
	.st18{opacity:0.3;fill:url(#SVGID_13_);}
	.st19{opacity:0.4;}
	.st20{fill:#C2C2C2;}
	.st21{opacity:0.5;fill:#FFFFFF;}
	.st22{fill:url(#SVGID_14_);}
	.st23{fill:url(#SVGID_15_);}
	.st24{fill:url(#SVGID_16_);}
	.st25{fill:#FCB048;}
	.st26{fill:url(#SVGID_17_);}
	.st27{fill:url(#SVGID_18_);}
	.st28{fill:url(#SVGID_19_);}
	.st29{fill:url(#SVGID_20_);}
	.st30{fill:url(#SVGID_21_);}
	.st31{fill:url(#SVGID_22_);}
	.st32{fill:url(#SVGID_23_);}
	.st33{fill:url(#SVGID_24_);}
	.st34{fill:url(#SVGID_25_);}
	.st35{fill:url(#SVGID_26_);}
	.st36{fill:url(#SVGID_27_);}
	.st37{fill:url(#SVGID_28_);}
	.st38{fill:url(#SVGID_29_);}
	.st39{fill:url(#SVGID_30_);}
	.st40{fill:url(#SVGID_31_);}
	.st41{fill:url(#SVGID_32_);}
	.st42{fill:url(#SVGID_33_);}
	.st43{fill:url(#SVGID_34_);}
	.st44{fill:url(#SVGID_35_);}
	.st45{fill:url(#SVGID_36_);}
	.st46{fill:url(#SVGID_37_);}
	.st47{fill:url(#SVGID_38_);}
	.st48{fill:url(#SVGID_39_);}
	.st49{fill:url(#SVGID_40_);}
	.st50{fill:url(#SVGID_41_);}
	.st51{fill:url(#SVGID_42_);}
	.st52{fill:url(#SVGID_43_);}
	.st53{fill:url(#SVGID_44_);}
	.st54{fill:url(#SVGID_45_);}
	.st55{fill:url(#SVGID_46_);}
	.st56{fill:url(#SVGID_47_);}
	.st57{fill:url(#SVGID_48_);}
	.st58{fill:url(#SVGID_49_);}
	.st59{fill:url(#SVGID_50_);}
	.st60{fill:url(#SVGID_51_);}
	.st61{fill:url(#SVGID_52_);}
	.st62{fill:url(#SVGID_53_);}
	.st63{fill:url(#SVGID_54_);}
	.st64{fill:url(#SVGID_55_);}
	.st65{fill:url(#SVGID_56_);}
	.st66{fill:url(#SVGID_57_);}
	.st67{fill:url(#SVGID_58_);}
	.st68{fill:url(#SVGID_59_);}
	.st69{fill:url(#SVGID_60_);}
	.st70{fill:url(#SVGID_61_);}
	.st71{fill:url(#SVGID_62_);}
	.st72{fill:url(#SVGID_63_);}
	.st73{fill:url(#SVGID_64_);}
	.st74{fill:url(#SVGID_65_);}
	.st75{fill:url(#SVGID_66_);}
	.st76{fill:url(#SVGID_67_);}
	.st77{fill:url(#SVGID_68_);}
	.st78{fill:#7D97F4;}
	.st79{fill:url(#SVGID_69_);}
	.st80{opacity:0.38;}
	.st81{fill:url(#SVGID_70_);}
	.st82{fill:url(#SVGID_71_);}
	.st83{fill:url(#SVGID_72_);}
	.st84{fill:url(#SVGID_73_);}
	.st85{fill:url(#SVGID_74_);}
	.st86{opacity:0.82;}
	.st87{fill:url(#SVGID_75_);}
	.st88{fill:url(#SVGID_76_);}
	.st89{fill:url(#SVGID_77_);}
	.st90{fill:url(#SVGID_78_);}
</style>
<g>
	<g>
		<path class="st0" d="M555.2,458.8c0,0-32.7-38.9-27.4-75.7c5.3-36.8,31.9-32.4,43.7-10.6c11.8,21.7,22.4,18.8,15.4-1.7
			c-7-20.4-15.8-33.7-1.3-54.1c14.6-20.3,16.1-29,7.9-47.2c-8.2-18.2-18.4-43.9,14.1-53.1c32.5-9.2,64.9,19,57.4,55.9
			c-7.6,36.9-12.1,40.9-1.7,54.6c10.5,13.7,6.1,19.3,4.6,28.2c-1.5,8.9,14.5,11,14.1-1.6c-0.3-12.5-20.6-42.1-6.8-55.9
			c13.9-13.8,41-14,48,18c7,31.9-15.3,46.3-14.2,57.8c1.1,11.5,13.1-6,23.5,5.8c10.4,11.8-3.6,21-13.9,27.4
			c-10.3,6.4-25.9,17.8-11.1,26.1c14.8,8.3,28.9,0.4,19.8,26H555.2z"/>
		<path class="st1" d="M622.5,243.1c1.1,0.5,2,1.2,2.9,1.9c0.9,0.7,1.7,1.5,2.5,2.4c1.6,1.7,2.9,3.6,4,5.6c2.2,4.1,3.3,8.6,3.7,13.1
			c0.1,0.6,0.1,1.1,0.1,1.7c0,0.6,0.1,1.1,0,1.7l0,1.7l-0.1,1.7l0,0.8l-0.1,0.8l-0.2,1.7c-0.2,1.1-0.3,2.2-0.5,3.4
			c-0.2,1.1-0.4,2.2-0.7,3.3l-0.4,1.6l-0.4,1.6l-1.7,6.4c-2.2,8.5-4.3,16.9-6,25.4c-1.6,8.5-2.8,17.1-2.5,25.6
			c0.1,2.1,0.2,4.2,0.5,6.3c0.3,2.1,0.7,4.2,1.2,6.2c0.6,2,1.2,4,2.1,5.9c1,2.1,1.7,4.4,2.3,6.6c1.1,4.4,1.8,8.8,2.3,13.2
			c0.5,4.4,0.9,8.8,1.2,13.2c0.6,8.7,1.2,17.5,2.5,26c0.2,1.1,0.3,2.1,0.6,3.2c0.2,1.1,0.4,2.1,0.7,3.2c0.2,1.1,0.5,2.1,0.8,3.2
			c0.1,0.5,0.3,1,0.5,1.6c0.2,0.5,0.3,1,0.5,1.5l0.5,1.5c0.2,0.5,0.4,1,0.6,1.5c0.4,1,0.9,2,1.4,3c1.1,1.9,2.3,3.7,3.8,5.3l-0.4,0.3
			c-1.7-1.5-3.1-3.3-4.4-5.2c-1.2-1.9-2.2-3.9-3.1-6c-1.7-4.1-2.9-8.4-3.8-12.8c-1.9-8.7-2.8-17.4-3.8-26.1c-0.5-4.3-1-8.7-1.6-13
			c-0.6-4.3-1.4-8.5-2.6-12.6c-0.6-2-1.3-4-2.2-5.8c-1-2.1-1.8-4.3-2.5-6.5c-0.7-2.2-1.1-4.5-1.5-6.7c-0.4-2.3-0.6-4.5-0.7-6.8
			c-0.4-9,0.8-17.9,2.4-26.6c1.6-8.7,3.8-17.3,6.3-25.8c0.6-2.1,1.2-4.2,1.9-6.3l0.5-1.6l0.4-1.5c0.3-1,0.6-2.1,0.8-3.1
			c0.3-1,0.4-2.1,0.7-3.1l0.3-1.6c0.1-0.5,0.2-1,0.2-1.6c0.3-2.1,0.4-4.2,0.4-6.3c0-2.1-0.2-4.2-0.6-6.3c-0.4-2.1-0.9-4.1-1.7-6.1
			c-0.4-1-0.8-2-1.4-2.9c-0.5-1-1.1-1.9-1.7-2.8c-1.3-1.8-2.7-3.4-4.5-4.8L622.5,243.1z"/>
		<path class="st1" d="M552.8,374.9c1,6.9,2.4,13.7,4.1,20.4c0.9,3.4,1.8,6.7,2.8,10c0.2,0.8,0.5,1.6,0.8,2.5
			c0.3,0.8,0.6,1.6,0.8,2.5c0.6,1.6,1.2,3.3,1.8,4.9c0.7,1.6,1.3,3.2,2,4.8c0.7,1.6,1.4,3.2,2.2,4.7c1.5,3.1,3.2,6.2,5,9.2
			c1.8,3,3.8,5.9,5.9,8.7c2.2,2.8,4.5,5.4,7,8l-0.4,0.4c-2.9-2.2-5.5-4.7-8-7.3c-2.4-2.7-4.6-5.5-6.6-8.5c-1.9-3-3.8-6.1-5.3-9.3
			c-0.8-1.6-1.6-3.2-2.3-4.8c-0.7-1.6-1.4-3.3-2-4.9c-0.6-1.7-1.2-3.3-1.8-5c-0.3-0.8-0.6-1.7-0.8-2.5c-0.2-0.8-0.5-1.7-0.8-2.5
			c-1-3.4-1.8-6.8-2.5-10.2c-1.4-6.9-2.3-13.8-2.5-20.8L552.8,374.9z"/>
	</g>
	<path class="st2" d="M375.2,15.8c-67.4,1.1-171.7,25.4-201.8,87.9c-10.5,21.8-9.8,53.9-8.4,118c0.4,18.8,1.1,46.3,6,80.4
		c10.1,70.8,17,119,43,147.1c65.2,70.3,300.6,68.3,401.2-58.3c54.8-69.1,63.3-167.3,13.1-248.5C573.1,52.9,465.4,14.3,375.2,15.8z"
		/>
	<g>
		<g>
			<defs>
				<path id="SVGID_1_" d="M385.8,459.9l50.7-41.4c0,0-11.7-33.8-39.1-42c-55.9-16.7-37.4-64.6-32.6-85.8c7.2-32-0.4-63.3-37.8-49.1
					c-37.4,14.2-45.1-55.4-26-105.4C319.7,87.4,243.6,26,193.4,128c-29.9,61,19,105.5,38.3,133.9s-18.3,62.8,21.7,84.1
					c34.1,18.2,72.5,20.5,71.3,53.2S339.2,454.7,385.8,459.9z"/>
			</defs>
			<clipPath id="SVGID_2_">
				<use xlink:href="#SVGID_1_"  style="overflow:visible;"/>
			</clipPath>
			
				<linearGradient id="SVGID_3_" gradientUnits="userSpaceOnUse" x1="1513.5082" y1="-1318.6703" x2="1383.1757" y2="-948.251" gradientTransform="matrix(0.7744 -0.6326 0.6326 0.7744 -103.4705 2070.2283)">
				<stop  offset="3.597120e-03" style="stop-color:#E38DDD"/>
				<stop  offset="1" style="stop-color:#9571F6"/>
			</linearGradient>
			<path class="st3" d="M385.8,459.9l50.7-41.4c0,0-11.7-33.8-39.1-42c-55.9-16.7-37.4-64.6-32.6-85.8c7.2-32-0.5-59.4-35.2-52.8
				c-39.3,7.4-47.6-51.7-28.5-101.6C319.7,87.4,243.6,26,193.4,128c-29.9,61,19,105.5,38.3,133.9s-18.3,62.8,21.7,84.1
				c34.1,18.2,72.5,20.5,71.3,53.2S339.2,454.7,385.8,459.9z"/>
			<g class="st4">
				<path class="st5" d="M411.6,446.7l0.9-1.1c-0.7-0.6-65.8-56.3-113.6-131c-44.1-68.8-82.2-168.3-13.2-251.4l-1.1-0.9
					c-30.7,37-43.2,80.2-36.9,128.6c5,38.6,21.8,80.5,50,124.5C345.7,390.3,410.9,446.1,411.6,446.7z"/>
				<path class="st5" d="M251.1,210.9l1-1c-33.3-31.8-60.8-93-61.1-93.6l-1.3,0.6C190,117.5,217.7,179,251.1,210.9z"/>
				<path class="st5" d="M247.9,178.6c17.7-51.9,60.2-68.6,60.6-68.8l-0.5-1.3c-0.4,0.2-43.5,17.1-61.4,69.6L247.9,178.6z"/>
				<path class="st5" d="M332.8,361.7c-29.3-60.2,29.3-128.7,29.9-129.3l-0.9-1c-0.7,0.5-59.7,70.2-30.2,131L332.8,361.7z"/>
				<path class="st5" d="M315,340.6l0.9-1.1c-33.2-26.9-86.6-20.5-87.1-20.4l0.2,1.4C229.5,320.5,282.2,314.1,315,340.6z"/>
				<path class="st5" d="M402.4,436.6c-14.5-20.9,0.8-59.4,1-59.7l-1.3-0.5c-0.7,1.6-15.8,39.5-0.8,61.1L402.4,436.6z"/>
				<path class="st5" d="M386.8,423.6l0.9-1c-15.2-13.2-52.4-11.4-64.6-10.7c-1.7,0.1-3.2,0.2-3.5,0.1l-0.2,1.4
					c0.4,0.1,1.4,0,3.8-0.1C335.3,412.6,372.1,410.8,386.8,423.6z"/>
			</g>
		</g>
		<g>
			
				<linearGradient id="SVGID_4_" gradientUnits="userSpaceOnUse" x1="-2348.7012" y1="-1316.9204" x2="-2211.4119" y2="-956.1814" gradientTransform="matrix(-0.3869 0.9221 0.9221 0.3869 298.1909 2783.9221)">
				<stop  offset="0" style="stop-color:#FFC444"/>
				<stop  offset="0.9964" style="stop-color:#F36F56"/>
			</linearGradient>
			<path class="st6" d="M224,264.3c14.7-2,25,7.9,31.4,16.3c-0.5,1.3-0.4,2.2-0.6,3.7c-1.6,13.1-5.1,18.4-8.7,31.1
				c-0.8,2.7-5.5,10.1-7.6,12.9l-4,5.3c0,0-34.1,0.5-36.5-18.7c-2.4-19.2-34.9-22.8-51.8-26.9c-10.4-2.5-14.4-6.9-18.1-8.5
				c-38.9-16.1-54.9-8.2-64.3-21.2c-10.4-14.4,6-28.1-4.5-44.4c-11.9-18.3-40.8-13.1-48.2-33c-1.3-3.4-2.5-6.9-2.2-11.8
				c0.6-11.9,9.9-18.6,3.7-29.4C0,118,2.7,90.3,26.9,81.2c23.9-9,54.1,21.4,67.4,76.6c13.9,38.2,21.1,41.1,40,44.6
				c13.2,2.5,50.7,0.5,57.2,23C198.1,248,207.2,266.6,224,264.3z"/>
			<g>
				<defs>
					<path id="SVGID_5_" d="M262.8,291.8l-26.8,41.1c0,0-35.5,1.2-38-18.1c-2.4-19.2-34.9-22.8-51.8-26.9
						c-46-10.9-23.5-60.9-81.2-80c-15.3-5.1-46.6-9.3-53.9-27c-8.3-20.3,9.5-27.2,1.5-41.2C0,118,2.7,90.3,26.9,81.2
						c23.9-9,54.1,21.4,67.4,76.6c13.9,38.2,21.1,41.1,40,44.6c13.2,2.5,50.7,0.5,57.2,23c6.6,22.5,15.7,41.1,32.5,38.8
						C249.5,260.7,262.8,291.8,262.8,291.8z"/>
				</defs>
				<clipPath id="SVGID_6_">
					<use xlink:href="#SVGID_5_"  style="overflow:visible;"/>
				</clipPath>
				<g class="st7">
					<path class="st8" d="M248.9,309l-0.4,0.9c-4.8-2.3-9.7-4.8-14.4-7.2c-34.9-18.1-66.8-39-94.6-62.2
						c-23.6-19.7-44.6-41.2-62.6-64.1c-14.4-18.4-26.9-37.7-37.2-57.5C32.6,104.9,26.6,91,21.9,77.4c-0.8-2.4-1.5-4.9-2.2-7.2
						c-0.9-3.2-1.8-6.5-3-9.6l0.9-0.4c1.2,3.1,2.2,6.4,3.1,9.7c0.7,2.4,1.4,4.9,2.2,7.2c4.6,13.6,10.6,27.5,17.8,41.3
						c10.2,19.7,22.7,39,37.1,57.4c17.9,22.8,38.9,44.4,62.5,64c27.8,23.2,59.6,44.1,94.4,62.1C239.3,304.2,244.1,306.7,248.9,309z"
						/>
					<path class="st8" d="M100.7,202.5l-0.7,0.7c-27.4-27.6-94.3-33.3-94.9-33.3l0.1-1C5.9,169,73.1,174.6,100.7,202.5z"/>
					<path class="st8" d="M184.2,272.3l-0.6,0.8c-20.9-16.4-22.2-70.1-22.2-70.6l0.9-0.1C162.3,202.9,163.6,256.2,184.2,272.3z"/>
					<path class="st8" d="M196.9,280.5l-0.4,0.9c-15.4-7.9-41-9.8-72-5.3c-1.6,0.2-1.6,0.2-1.7,0.1l0.4-0.9l-0.2,0.4l0.1-0.5
						c0.1,0,0.7-0.1,1.4-0.2C155.6,270.6,181.3,272.5,196.9,280.5z"/>
					<path class="st8" d="M240.2,304.6l-0.7,0.7c-13.5-13.5-10-43.4-10-43.7l0.9,0.1C230.4,261.9,227,291.4,240.2,304.6z"/>
					<path class="st8" d="M248.5,310.4c-15.5-1.2-32.1,2.1-50.9,10.3l-0.3-0.9c18.9-8.3,35.7-11.7,51.3-10.4L248.5,310.4z"/>
					<path class="st8" d="M46.8,129.8l-0.7,0.7c-14.3-16.3-33.3-29.7-39.5-34.1c-1.5-1.1-2-1.4-2.2-1.6l0.7-0.7
						c0.1,0.1,1,0.7,2.1,1.5C13.4,100,32.4,113.4,46.8,129.8z"/>
					<path class="st8" d="M66.1,160.2l-0.8,0.4c-8.2-19,6.9-59.8,7.6-61.6l0.9,0.3C73.5,99.8,58,141.5,66.1,160.2z"/>
				</g>
			</g>
		</g>
		<g>
			
				<linearGradient id="SVGID_7_" gradientUnits="userSpaceOnUse" x1="3458.5479" y1="-1707.7197" x2="3643.3772" y2="-1403.4431" gradientTransform="matrix(-0.4815 0.8764 0.8764 0.4815 3265.1248 -2132.8738)">
				<stop  offset="0" style="stop-color:#FF9085"/>
				<stop  offset="1" style="stop-color:#FB6FBB"/>
			</linearGradient>
			<path class="st9" d="M339.6,346.6c-2,2.7-15.2-9-39.2-11.1c-6-0.5-38.5-5.6-51.2,15.6c-2.5,4.1-4.9,8.3-7.4,12.4
				c-11.4-1.6-21.9-5.1-18.6-19.9c5.2-22.9-27.9-41.1-42.6-41.9c-18.3-1-60.9-4.2-53.3-39.7c6.3-29.6,16.2-47.7-14.1-66
				c-30.3-18.4-40-46.6-21.8-75.4c19.1-30.3-6.5-77.1,20.9-95.7c47.7-32.5,94.4,44.6,84.5,109.6c-9.9,65,25.9,43.7,52.3,55.8
				c2.4,1.3,6,3.4,9.8,6.7c23.2,20.5,12.6,50.7,23.5,82.4C297.3,322.6,342.9,342,339.6,346.6z"/>
			<g>
				<defs>
					<path id="SVGID_8_" d="M288.6,297.2l-37.9,68c-11.4-1-31.1-5.1-27.3-21.6c5.2-22.9-27.9-41.1-42.6-41.9
						c-18.3-1-60.9-4.2-53.3-39.7c6.3-29.6,16.2-47.7-14.1-66c-30.3-18.4-40-46.6-21.8-75.4c19.1-30.3-6.5-77.1,20.9-95.7
						c47.7-32.5,94.4,44.6,84.5,109.6c-9.9,65,25.9,43.7,52.3,55.8c36,16.5,1.4,62.2,7.9,82.5C262.3,288.8,278.2,294.7,288.6,297.2z
						"/>
				</defs>
				<clipPath id="SVGID_9_">
					<use xlink:href="#SVGID_8_"  style="overflow:visible;"/>
				</clipPath>
				<g class="st10">
					<path class="st8" d="M260.5,323.7l-1.1,1.3C170.4,249.8,120.1,128.8,128,9.3l1.6,0C121.7,128.3,171.9,248.8,260.5,323.7z"/>
					<path class="st8" d="M215.7,278.2l-0.8,1.5c-40.4-21.6-92-2.1-92.5-1.9l-0.5-1.5C122.4,276.1,174.6,256.3,215.7,278.2z"/>
					<path class="st8" d="M244.6,309.4l-1.4,0.9c-24.8-39.7,13.3-120.6,13.7-121.4l1.5,0.7C257.9,190.3,220.3,270.4,244.6,309.4z"/>
					<path class="st8" d="M157.1,179l-1.3,1.1c-22.3-29.5-79.5-33.6-80.1-33.6l0.2-1.7C76.5,144.8,134.4,148.9,157.1,179z"/>
					<path class="st8" d="M135.7,106.5l-1.6,0.1c-1.1-43.5,38-89.1,38.4-89.6l1.2,1.1C173.2,18.6,134.6,63.7,135.7,106.5z"/>
				</g>
			</g>
		</g>
	</g>
	<g>
		<g>
			<linearGradient id="SVGID_10_" gradientUnits="userSpaceOnUse" x1="28.4109" y1="245.2106" x2="109.5082" y2="258.2441">
				<stop  offset="0" style="stop-color:#AA80F9"/>
				<stop  offset="0.9964" style="stop-color:#6165D7"/>
			</linearGradient>
			<path class="st11" d="M630,431.8c0,7.9-5.6,14.7-12.5,15.1l-484.8,29.6c-9.2,0.5-19.6-7.2-19.6-16.4V120.8
				c0-9.2,10.6-16.9,19.8-16.5l484.5,20.7c6.9,0.3,12.5,7,12.5,14.9V431.8z"/>
			<path class="st12" d="M639,432.3c0,7.9-5.6,14.8-12.5,15.2l-490,29c-9.2,0.5-16.8-6.6-16.8-15.8V119.9c0-9.2,7.6-16.5,16.8-16.1
				l490,20.3c6.9,0.3,12.5,7,12.5,15V432.3z"/>
			<g>
				<polygon class="st13" points="639,352.4 119.7,379.1 119.7,441.5 639,411 				"/>
			</g>
			<g>
				<g class="st14">
					
						<linearGradient id="SVGID_11_" gradientUnits="userSpaceOnUse" x1="188.2042" y1="243.0251" x2="411.207" y2="243.0251" gradientTransform="matrix(0.9999 1.510000e-02 -1.510000e-02 0.9999 -16.3454 9.2863)">
						<stop  offset="0" style="stop-color:#FF9085"/>
						<stop  offset="1" style="stop-color:#FB6FBB"/>
					</linearGradient>
					<path class="st15" d="M273,216.5c-0.6,38.7-24.8,58.9-51.8,58.8c-29.4-0.1-53-22.6-52.4-59.7c0.5-35.2,22.7-60.2,55.6-57.8
						C256.4,160.3,273.4,184.9,273,216.5z M203.2,215.8c-0.3,20.2,6.3,34.9,19.2,35.1c12.4,0.2,18.6-12.4,19-33.6
						c0.3-19.2-4.6-34.3-18.2-35.1C209.9,181.4,203.5,196.5,203.2,215.8z M230.5,340.4l93.6-169.5c1.8-3.2,5.3-5.1,9-4.9h0
						c6.9,0.5,10.9,7.9,7.6,14l-92.6,169.5c-1.6,2.9-4.6,4.8-7.9,4.9l-1,0C231.8,354.7,226.9,346.8,230.5,340.4z M390.6,292.6
						c-0.5,35.9-21.3,55.5-44.4,56.5c-24.8,1.1-44.8-18.7-44.6-52.8c0.5-32.4,19.4-56.5,47.5-55.8
						C376.4,241.3,391.1,263.3,390.6,292.6z M331.2,294.9c-0.5,18.7,5.1,31.9,16.1,31.6c10.6-0.3,15.9-12.3,16.2-31.9
						c0.3-17.7-3.7-31.5-15.3-31.6C336.7,262.9,331.4,277.1,331.2,294.9z"/>
				</g>
				<g>
					<path class="st16" d="M277.5,214.7c-0.6,38.7-24.8,58.9-51.8,58.8c-29.4-0.1-53-22.6-52.4-59.7c0.5-35.2,22.7-60.2,55.6-57.8
						C260.9,158.5,278,183.1,277.5,214.7z M207.7,214c-0.3,20.2,6.3,34.9,19.2,35.1c12.4,0.2,18.6-12.4,19-33.6
						c0.3-19.2-4.6-34.3-18.2-35.1C214.5,179.6,208,194.7,207.7,214z M235,338.5l93.6-169.5c1.8-3.2,5.3-5.1,9-4.9h0
						c6.9,0.5,10.9,7.9,7.6,14l-92.6,169.5c-1.6,2.9-4.6,4.8-7.9,4.9l-1,0C236.3,352.9,231.4,345,235,338.5z M395.2,290.8
						c-0.5,35.9-21.3,55.5-44.4,56.5c-24.8,1.1-44.8-18.7-44.6-52.8c0.5-32.4,19.4-56.5,47.5-55.8
						C381,239.5,395.6,261.5,395.2,290.8z M335.7,293.1c-0.5,18.7,5.1,31.9,16.1,31.6c10.6-0.3,15.9-12.3,16.2-31.9
						c0.3-17.7-3.7-31.5-15.3-31.6C341.3,261.1,336,275.3,335.7,293.1z"/>
				</g>
			</g>
			<linearGradient id="SVGID_12_" gradientUnits="userSpaceOnUse" x1="320.1934" y1="48.2488" x2="656.1684" y2="449.3912">
				<stop  offset="0" style="stop-color:#60B7A6"/>
				<stop  offset="0.9964" style="stop-color:#17A3B6"/>
			</linearGradient>
			<path class="st17" d="M626.5,124.1L142.1,104c21.9,64.7,53.2,93.7,80.1,107.9c51.2,27,87.9,1.2,131.8,36.2
				c45,35.9,27.9,80.2,75.3,110.1c35.6,22.4,58.6,5.8,95.6,26.1c27.4,15,44.5,40.5,55.4,66l46.2-2.7c6.9-0.4,12.5-7.2,12.5-15.2
				V139.1C639,131.1,633.4,124.4,626.5,124.1z"/>
			<linearGradient id="SVGID_13_" gradientUnits="userSpaceOnUse" x1="419.9738" y1="363.8358" x2="639.012" y2="363.8358">
				<stop  offset="0" style="stop-color:#AA80F9"/>
				<stop  offset="0.9964" style="stop-color:#6165D7"/>
			</linearGradient>
			<path class="st18" d="M632.2,279.3l-11.8-11.2l-11.2,11.8l-11.8-11.2l-11.2,11.8l-11.8-11.2l-11.2,11.8l-11.8-11.2l-11.2,11.8
				l-11.8-11.2L517,282.3l-11.8-11.2L494,282.9l-11.8-11.2L471,283.5l-11.8-11.2l-11.2,11.8l-15.1-14.3c0,5.7,0,177,0,177
				s-0.6,10.1-12.9,12.8l209-15.3c2.4-0.2,4.6-0.8,6.6-1.9c2.1-2.7,3.4-6.2,3.4-10V272.1L632.2,279.3z"/>
		</g>
		<g>
			<path class="st2" d="M665.3,273.4v161.2c0,9-6.9,16.5-15.9,17.1l-66.1,4.9l-142.9,10.5c12.3-2.7,12.8-12.8,12.8-12.8
				s0-171.3,0-177l15.2,14.3l8-8.3l3.3-3.5l11.8,11.2l11.2-11.8l11.8,11.2l11.2-11.8l11.8,11.2l11.2-11.8l11.8,11.2l11.2-11.8
				l11.8,11.2l11.2-11.8l11.8,11.2l11.2-11.8l11.8,11.2l11.2-11.8l11.8,11.2L665.3,273.4z"/>
			<g class="st19">
				<path class="st20" d="M641.7,367.1l-25.8,1.2c-1.7,0.1-3.1,1.5-3.1,3.3v11.9c0,1.9,1.6,3.4,3.4,3.2l25.8-1.5
					c1.7-0.1,3.1-1.5,3.1-3.2v-11.6C645.1,368.5,643.5,367,641.7,367.1z"/>
				<path class="st20" d="M641.6,390l-25.8,1.5c-1.7,0.1-3.1,1.5-3.1,3.2v12.4c0,1.9,1.6,3.4,3.5,3.2l25.8-1.7c1.7-0.1,3-1.5,3-3.2
					v-12.2C645.1,391.4,643.5,389.9,641.6,390z"/>
				<path class="st20" d="M645.1,334.2v-21.2c0-1.8-1.5-3.3-3.4-3.3l-25.8,0.9c-1.8,0.1-3.1,1.5-3.1,3.3v21.5c0,1.9,1.5,3.3,3.4,3.3
					l25.8-1.2C643.7,337.3,645.1,335.9,645.1,334.2z"/>
			</g>
			<g class="st19">
				<path class="st20" d="M588,369.5l-105.2,4.7c-1.7,0.1-3.1,1.5-3.1,3.3v13.4c0,1.9,1.6,3.4,3.4,3.2l105.2-5.9
					c1.7-0.1,3.1-1.5,3.1-3.2v-12.2C591.4,370.9,589.8,369.4,588,369.5z"/>
				<path class="st20" d="M587.9,393l-105.2,5.9c-1.7,0.1-3.1,1.5-3.1,3.2v13.4c0,1.9,1.6,3.4,3.5,3.2l105.2-6.7
					c1.7-0.1,3-1.5,3-3.2v-12.6C591.4,394.4,589.8,392.9,587.9,393z"/>
				<path class="st20" d="M591.4,336.6v-21.7c0-1.8-1.5-3.3-3.4-3.3l-105.2,3.8c-1.8,0.1-3.1,1.5-3.1,3.3v22.7
					c0,1.9,1.5,3.3,3.4,3.3l105.2-4.7C590,339.8,591.4,338.3,591.4,336.6z"/>
			</g>
			<path class="st21" d="M583.3,456.6l-142.9,10.5c12.3-2.7,12.8-12.8,12.8-12.8s0-171.3,0-177l15.2,14.3l8-8.3
				c6.7,6.1,12.1,15.9,13.6,31.4c5,51.6,29.1,48.2,57.7,50.1c28.5,1.9,41.6,34.9,30.1,60.4C572.4,436.6,574.5,448.1,583.3,456.6z"/>
		</g>
	</g>
	<g>
		<g>
			<linearGradient id="SVGID_14_" gradientUnits="userSpaceOnUse" x1="55.228" y1="458.6177" x2="241.6607" y2="458.6177">
				<stop  offset="0" style="stop-color:#FCB148"/>
				<stop  offset="5.207239e-02" style="stop-color:#FDBA46"/>
				<stop  offset="0.1424" style="stop-color:#FFC244"/>
				<stop  offset="0.3183" style="stop-color:#FFC444"/>
				<stop  offset="0.4849" style="stop-color:#FDB946"/>
				<stop  offset="0.7754" style="stop-color:#F99C4D"/>
				<stop  offset="0.8658" style="stop-color:#F8924F"/>
				<stop  offset="1" style="stop-color:#F8924F"/>
			</linearGradient>
			<path class="st22" d="M69.1,444.4v18c0,5.8,36.3,10.5,81,10.5s81-4.7,81-10.5v-18H69.1z"/>
			<linearGradient id="SVGID_15_" gradientUnits="userSpaceOnUse" x1="149.3012" y1="437.6167" x2="159.1297" y2="519.8958">
				<stop  offset="0" style="stop-color:#FFDB44"/>
				<stop  offset="1" style="stop-color:#FEEF06"/>
			</linearGradient>
			<path class="st23" d="M231.1,444.4c0,5.8-36.3,10.5-81,10.5s-81-4.7-81-10.5c0-5.8,36.3-10.5,81-10.5S231.1,438.6,231.1,444.4z"
				/>
			<linearGradient id="SVGID_16_" gradientUnits="userSpaceOnUse" x1="148.8737" y1="433.9474" x2="151.8923" y2="459.2168">
				<stop  offset="0" style="stop-color:#FFDB44"/>
				<stop  offset="1" style="stop-color:#FEEF06"/>
			</linearGradient>
			<path class="st24" d="M150.1,455.6c-39.6,0-81.1-3.8-81.1-11.1c0-0.4,0.1-1.1,0.5-1.1s0.2,0.6,0.2,1c0,4.6,33,9.8,80.3,9.8
				c47.3,0,80.3-5.2,80.3-9.8c0-0.4,0.1-0.8,0.5-0.8c0.4,0,0.3,0.5,0.3,0.9C231.2,451.8,189.7,455.6,150.1,455.6z"/>
			<g>
				<path class="st25" d="M142.5,445c0.8-0.6,1.6-1.1,2.5-1.6c0.9-0.5,2.1-1,3.5-1.5c1.4-0.4,3.2-0.8,5.3-1.1c2.1-0.3,4.8-0.4,8-0.4
					c3.1,0,6.1,0.1,8.8,0.3c2.7,0.2,5.2,0.5,7.3,1c2.1,0.4,3.8,1,5.1,1.6c1.3,0.6,2.1,1.3,2.3,2.2l9.1,0.1c0.7,0,1.2,0.1,1.7,0.2
					c0.5,0.1,0.8,0.2,0.8,0.4l0,0.8l-11.7-0.1c-0.4,0.9-1.5,1.8-3.1,2.5c-1.7,0.8-3.8,1.4-6.4,2l-4.3-0.6c-0.4-0.1-0.7-0.1-0.9-0.2
					c-0.2-0.1-0.4-0.2-0.4-0.3c0-0.1,0.3-0.3,1-0.5c0.7-0.2,1.4-0.4,2.2-0.7c0.8-0.3,1.6-0.6,2.4-1c0.8-0.4,1.3-0.8,1.6-1.3
					l-27.7-0.3c-0.7,0.5-1.5,1.1-2.4,1.6c-0.9,0.5-2.1,1-3.6,1.4c-1.5,0.4-3.3,0.7-5.6,1c-2.2,0.3-5,0.4-8.4,0.4
					c-2.5,0-5-0.1-7.4-0.3c-2.4-0.2-4.6-0.5-6.4-0.9c-1.9-0.4-3.4-0.9-4.6-1.5c-1.2-0.6-1.9-1.3-2-2.1l-7.5-0.1
					c-0.7,0-1.2-0.1-1.8-0.2c-0.5-0.1-0.8-0.2-0.8-0.4l0-0.8l10.3,0.1c0.5-0.8,1.4-1.5,2.8-2.1c1.4-0.6,3.2-1.1,5.2-1.6l3.4,0.5
					c1,0.1,1.6,0.3,1.6,0.5c0,0.1-0.2,0.2-0.6,0.4c-0.4,0.2-0.9,0.3-1.5,0.6c-0.6,0.2-1.2,0.5-1.7,0.8c-0.6,0.3-1,0.6-1.3,1
					L142.5,445z M117.1,446c0.2,0.5,0.7,0.9,1.4,1.3c0.7,0.4,1.6,0.7,2.6,0.9c1,0.2,2.2,0.4,3.5,0.5c1.3,0.1,2.7,0.2,4.1,0.2
					c1.7,0,3.1-0.1,4.4-0.2c1.2-0.1,2.3-0.3,3.3-0.6c0.9-0.2,1.8-0.5,2.4-0.8c0.7-0.3,1.3-0.6,1.9-1L117.1,446z M177.4,445.3
					c-0.2-0.5-0.7-0.9-1.5-1.3c-0.8-0.4-1.8-0.7-3-0.9c-1.2-0.3-2.6-0.4-4.3-0.6c-1.6-0.1-3.4-0.2-5.3-0.2c-1.7,0-3.2,0.1-4.5,0.2
					c-1.2,0.1-2.3,0.3-3.3,0.6c-0.9,0.2-1.7,0.5-2.3,0.9c-0.6,0.3-1.2,0.7-1.8,1.1L177.4,445.3z"/>
			</g>
			
				<linearGradient id="SVGID_17_" gradientUnits="userSpaceOnUse" x1="-1442.4624" y1="461.2712" x2="-1439.4546" y2="486.4509" gradientTransform="matrix(-1 0 0 -1 -1290.751 917.8388)">
				<stop  offset="3.597120e-03" style="stop-color:#F36F56"/>
				<stop  offset="0.3059" style="stop-color:#F99C4C"/>
				<stop  offset="0.545" style="stop-color:#FDB946"/>
				<stop  offset="0.6817" style="stop-color:#FFC444"/>
				<stop  offset="0.8038" style="stop-color:#FFC244"/>
				<stop  offset="0.8667" style="stop-color:#FEBA46"/>
				<stop  offset="0.916" style="stop-color:#FCAD49"/>
				<stop  offset="0.958" style="stop-color:#F99A4D"/>
				<stop  offset="0.9955" style="stop-color:#F58152"/>
				<stop  offset="1" style="stop-color:#F57E53"/>
			</linearGradient>
			<path class="st26" d="M150.1,435c-36.1,0-73.7,3.2-79.8,9.3c0.2,0.2,0.5,0.4,0.7,0.7c5.1-4.3,36.1-8.6,79.1-8.6
				c44.1,0,75.6,4.5,79.5,8.9c0.2-0.2,0.4-0.5,0.6-0.7C225.2,438.3,186.9,435,150.1,435z"/>
		</g>
		<g>
			<linearGradient id="SVGID_18_" gradientUnits="userSpaceOnUse" x1="32.7031" y1="439.7401" x2="219.1357" y2="439.7401">
				<stop  offset="0" style="stop-color:#FCB148"/>
				<stop  offset="5.207239e-02" style="stop-color:#FDBA46"/>
				<stop  offset="0.1424" style="stop-color:#FFC244"/>
				<stop  offset="0.3183" style="stop-color:#FFC444"/>
				<stop  offset="0.4849" style="stop-color:#FDB946"/>
				<stop  offset="0.7754" style="stop-color:#F99C4D"/>
				<stop  offset="0.8658" style="stop-color:#F8924F"/>
				<stop  offset="1" style="stop-color:#F8924F"/>
			</linearGradient>
			<path class="st27" d="M46.6,425.5v18c0,5.8,36.3,10.5,81,10.5c44.7,0,81-4.7,81-10.5v-18H46.6z"/>
			<linearGradient id="SVGID_19_" gradientUnits="userSpaceOnUse" x1="126.7762" y1="418.7393" x2="136.6047" y2="501.0184">
				<stop  offset="0" style="stop-color:#FFDB44"/>
				<stop  offset="1" style="stop-color:#FEEF06"/>
			</linearGradient>
			<path class="st28" d="M208.6,425.5c0,5.8-36.3,10.5-81,10.5c-44.7,0-81-4.7-81-10.5c0-5.8,36.3-10.5,81-10.5
				C172.3,415,208.6,419.7,208.6,425.5z"/>
			<linearGradient id="SVGID_20_" gradientUnits="userSpaceOnUse" x1="126.3488" y1="415.07" x2="129.3673" y2="440.3392">
				<stop  offset="0" style="stop-color:#FFDB44"/>
				<stop  offset="1" style="stop-color:#FEEF06"/>
			</linearGradient>
			<path class="st29" d="M127.6,436.7c-39.6,0-81.1-3.8-81.1-11.1c0-0.4,0.1-1.1,0.5-1.1c0.4,0,0.2,0.6,0.2,1c0,4.6,33,9.8,80.3,9.8
				s80.3-5.2,80.3-9.8c0-0.4,0.1-0.8,0.5-0.8c0.4,0,0.3,0.5,0.3,0.9C208.7,433,167.2,436.7,127.6,436.7z"/>
			<g>
				<path class="st25" d="M119.9,426.1c0.8-0.6,1.6-1.1,2.5-1.6c0.9-0.5,2.1-1,3.5-1.5c1.4-0.4,3.2-0.8,5.3-1.1
					c2.1-0.3,4.8-0.4,8-0.4c3.1,0,6.1,0.1,8.8,0.3c2.7,0.2,5.2,0.5,7.3,1c2.1,0.4,3.8,1,5.1,1.6c1.3,0.6,2.1,1.3,2.3,2.2l9.1,0.1
					c0.7,0,1.2,0.1,1.7,0.2c0.5,0.1,0.8,0.2,0.8,0.4l0,0.8l-11.7-0.1c-0.4,0.9-1.5,1.8-3.1,2.5c-1.7,0.8-3.8,1.4-6.4,2l-4.3-0.6
					c-0.4-0.1-0.7-0.1-0.9-0.2c-0.2-0.1-0.4-0.2-0.4-0.3c0-0.1,0.3-0.3,1-0.5c0.7-0.2,1.4-0.4,2.2-0.7c0.8-0.3,1.6-0.6,2.4-1
					c0.8-0.4,1.3-0.8,1.6-1.3l-27.7-0.3c-0.7,0.5-1.5,1.1-2.4,1.6c-0.9,0.5-2.1,1-3.6,1.4c-1.5,0.4-3.3,0.7-5.6,1
					c-2.2,0.3-5,0.4-8.4,0.4c-2.5,0-5-0.1-7.4-0.3c-2.4-0.2-4.6-0.5-6.4-0.9c-1.9-0.4-3.4-0.9-4.6-1.5c-1.2-0.6-1.9-1.3-2-2.1
					l-7.5-0.1c-0.7,0-1.2-0.1-1.8-0.2c-0.5-0.1-0.8-0.2-0.8-0.4l0-0.8l10.3,0.1c0.5-0.8,1.4-1.5,2.8-2.1c1.4-0.6,3.2-1.1,5.2-1.6
					l3.4,0.5c1,0.1,1.6,0.3,1.6,0.5c0,0.1-0.2,0.2-0.6,0.4c-0.4,0.2-0.9,0.3-1.5,0.6c-0.6,0.2-1.2,0.5-1.7,0.8c-0.6,0.3-1,0.6-1.3,1
					L119.9,426.1z M94.6,427.1c0.2,0.5,0.7,0.9,1.4,1.3c0.7,0.4,1.6,0.7,2.6,0.9c1,0.2,2.2,0.4,3.5,0.5c1.3,0.1,2.7,0.2,4.1,0.2
					c1.7,0,3.1-0.1,4.4-0.2c1.2-0.1,2.3-0.3,3.3-0.6c0.9-0.2,1.8-0.5,2.4-0.8c0.7-0.3,1.3-0.6,1.9-1L94.6,427.1z M154.9,426.4
					c-0.2-0.5-0.7-0.9-1.5-1.3c-0.8-0.4-1.8-0.7-3-0.9c-1.2-0.3-2.6-0.4-4.3-0.6c-1.6-0.1-3.4-0.2-5.3-0.2c-1.7,0-3.2,0.1-4.5,0.2
					c-1.2,0.1-2.3,0.3-3.3,0.6c-0.9,0.2-1.7,0.5-2.3,0.9c-0.6,0.3-1.2,0.7-1.8,1.1L154.9,426.4z"/>
			</g>
			
				<linearGradient id="SVGID_21_" gradientUnits="userSpaceOnUse" x1="-1419.9373" y1="480.1488" x2="-1416.9294" y2="505.3285" gradientTransform="matrix(-1 0 0 -1 -1290.751 917.8388)">
				<stop  offset="3.597120e-03" style="stop-color:#F36F56"/>
				<stop  offset="0.3059" style="stop-color:#F99C4C"/>
				<stop  offset="0.545" style="stop-color:#FDB946"/>
				<stop  offset="0.6817" style="stop-color:#FFC444"/>
				<stop  offset="0.8038" style="stop-color:#FFC244"/>
				<stop  offset="0.8667" style="stop-color:#FEBA46"/>
				<stop  offset="0.916" style="stop-color:#FCAD49"/>
				<stop  offset="0.958" style="stop-color:#F99A4D"/>
				<stop  offset="0.9955" style="stop-color:#F58152"/>
				<stop  offset="1" style="stop-color:#F57E53"/>
			</linearGradient>
			<path class="st30" d="M127.6,416.1c-36.1,0-73.7,3.2-79.8,9.3c0.2,0.2,0.5,0.4,0.7,0.7c5.1-4.3,36.1-8.6,79.1-8.6
				c44.1,0,75.6,4.5,79.5,8.9c0.2-0.2,0.4-0.5,0.6-0.7C202.7,419.4,164.4,416.1,127.6,416.1z"/>
		</g>
		<g>
			<linearGradient id="SVGID_22_" gradientUnits="userSpaceOnUse" x1="52.139" y1="420.9179" x2="238.5717" y2="420.9179">
				<stop  offset="0" style="stop-color:#FCB148"/>
				<stop  offset="5.207239e-02" style="stop-color:#FDBA46"/>
				<stop  offset="0.1424" style="stop-color:#FFC244"/>
				<stop  offset="0.3183" style="stop-color:#FFC444"/>
				<stop  offset="0.4849" style="stop-color:#FDB946"/>
				<stop  offset="0.7754" style="stop-color:#F99C4D"/>
				<stop  offset="0.8658" style="stop-color:#F8924F"/>
				<stop  offset="1" style="stop-color:#F8924F"/>
			</linearGradient>
			<path class="st31" d="M66,406.7v18c0,5.8,36.3,10.5,81,10.5c44.7,0,81-4.7,81-10.5v-18H66z"/>
			<linearGradient id="SVGID_23_" gradientUnits="userSpaceOnUse" x1="146.2121" y1="399.9171" x2="156.0406" y2="482.1962">
				<stop  offset="0" style="stop-color:#FFDB44"/>
				<stop  offset="1" style="stop-color:#FEEF06"/>
			</linearGradient>
			<path class="st32" d="M228,406.7c0,5.8-36.3,10.5-81,10.5c-44.7,0-81-4.7-81-10.5c0-5.8,36.3-10.5,81-10.5
				C191.8,396.2,228,400.9,228,406.7z"/>
			<linearGradient id="SVGID_24_" gradientUnits="userSpaceOnUse" x1="145.7849" y1="396.2478" x2="148.8033" y2="421.517">
				<stop  offset="0" style="stop-color:#FFDB44"/>
				<stop  offset="1" style="stop-color:#FEEF06"/>
			</linearGradient>
			<path class="st33" d="M147,417.9c-39.6,0-81.1-3.8-81.1-11.1c0-0.4,0.1-1.1,0.5-1.1c0.4,0,0.2,0.6,0.2,1c0,4.6,33,9.8,80.3,9.8
				s80.3-5.2,80.3-9.8c0-0.4,0.1-0.8,0.5-0.8c0.4,0,0.3,0.5,0.3,0.9C228.1,414.1,186.7,417.9,147,417.9z"/>
			<g>
				<path class="st25" d="M139.4,407.3c0.8-0.6,1.6-1.1,2.5-1.6c0.9-0.5,2.1-1,3.5-1.5c1.4-0.4,3.2-0.8,5.3-1.1
					c2.1-0.3,4.8-0.4,8-0.4c3.1,0,6.1,0.1,8.8,0.3c2.7,0.2,5.2,0.5,7.3,1c2.1,0.4,3.8,1,5.1,1.6c1.3,0.6,2.1,1.3,2.3,2.2l9.1,0.1
					c0.7,0,1.2,0.1,1.7,0.2c0.5,0.1,0.8,0.2,0.8,0.4l0,0.8l-11.7-0.1c-0.4,0.9-1.5,1.8-3.1,2.5c-1.7,0.8-3.8,1.4-6.4,2l-4.3-0.6
					c-0.4-0.1-0.7-0.1-0.9-0.2c-0.2-0.1-0.4-0.2-0.4-0.3c0-0.1,0.3-0.3,1-0.5c0.7-0.2,1.4-0.4,2.2-0.7c0.8-0.3,1.6-0.6,2.4-1
					c0.8-0.4,1.3-0.8,1.6-1.3l-27.7-0.3c-0.7,0.5-1.5,1.1-2.4,1.6c-0.9,0.5-2.1,1-3.6,1.4c-1.5,0.4-3.3,0.7-5.6,1
					c-2.2,0.3-5,0.4-8.4,0.4c-2.5,0-5-0.1-7.4-0.3c-2.4-0.2-4.6-0.5-6.4-0.9c-1.9-0.4-3.4-0.9-4.6-1.5c-1.2-0.6-1.9-1.3-2-2.1
					l-7.5-0.1c-0.7,0-1.2-0.1-1.8-0.2c-0.5-0.1-0.8-0.2-0.8-0.4l0-0.8l10.3,0.1c0.5-0.8,1.4-1.5,2.8-2.1c1.4-0.6,3.2-1.1,5.2-1.6
					l3.4,0.5c1,0.1,1.6,0.3,1.6,0.5c0,0.1-0.2,0.2-0.6,0.4c-0.4,0.2-0.9,0.3-1.5,0.6c-0.6,0.2-1.2,0.5-1.7,0.8c-0.6,0.3-1,0.6-1.3,1
					L139.4,407.3z M114,408.3c0.2,0.5,0.7,0.9,1.4,1.3c0.7,0.4,1.6,0.7,2.6,0.9c1,0.2,2.2,0.4,3.5,0.5c1.3,0.1,2.7,0.2,4.1,0.2
					c1.7,0,3.1-0.1,4.4-0.2c1.2-0.1,2.3-0.3,3.3-0.6c0.9-0.2,1.8-0.5,2.4-0.8c0.7-0.3,1.3-0.6,1.9-1L114,408.3z M174.3,407.6
					c-0.2-0.5-0.7-0.9-1.5-1.3c-0.8-0.4-1.8-0.7-3-0.9c-1.2-0.3-2.6-0.4-4.3-0.6c-1.6-0.1-3.4-0.2-5.3-0.2c-1.7,0-3.2,0.1-4.5,0.2
					c-1.2,0.1-2.3,0.3-3.3,0.6c-0.9,0.2-1.7,0.5-2.3,0.9c-0.6,0.3-1.2,0.7-1.8,1.1L174.3,407.6z"/>
			</g>
			
				<linearGradient id="SVGID_25_" gradientUnits="userSpaceOnUse" x1="-1439.3733" y1="498.971" x2="-1436.3655" y2="524.1507" gradientTransform="matrix(-1 0 0 -1 -1290.751 917.8388)">
				<stop  offset="3.597120e-03" style="stop-color:#F36F56"/>
				<stop  offset="0.3059" style="stop-color:#F99C4C"/>
				<stop  offset="0.545" style="stop-color:#FDB946"/>
				<stop  offset="0.6817" style="stop-color:#FFC444"/>
				<stop  offset="0.8038" style="stop-color:#FFC244"/>
				<stop  offset="0.8667" style="stop-color:#FEBA46"/>
				<stop  offset="0.916" style="stop-color:#FCAD49"/>
				<stop  offset="0.958" style="stop-color:#F99A4D"/>
				<stop  offset="0.9955" style="stop-color:#F58152"/>
				<stop  offset="1" style="stop-color:#F57E53"/>
			</linearGradient>
			<path class="st34" d="M147,397.3c-36.1,0-73.7,3.2-79.8,9.3c0.2,0.2,0.5,0.4,0.7,0.7c5.1-4.3,36.1-8.6,79.1-8.6
				c44.1,0,75.6,4.5,79.5,8.9c0.2-0.2,0.4-0.5,0.6-0.7C222.1,400.6,183.8,397.3,147,397.3z"/>
		</g>
		<g>
			<linearGradient id="SVGID_26_" gradientUnits="userSpaceOnUse" x1="63.9335" y1="402.0406" x2="250.366" y2="402.0406">
				<stop  offset="0" style="stop-color:#FCB148"/>
				<stop  offset="5.207239e-02" style="stop-color:#FDBA46"/>
				<stop  offset="0.1424" style="stop-color:#FFC244"/>
				<stop  offset="0.3183" style="stop-color:#FFC444"/>
				<stop  offset="0.4849" style="stop-color:#FDB946"/>
				<stop  offset="0.7754" style="stop-color:#F99C4D"/>
				<stop  offset="0.8658" style="stop-color:#F8924F"/>
				<stop  offset="1" style="stop-color:#F8924F"/>
			</linearGradient>
			<path class="st35" d="M77.8,387.8v18c0,5.8,36.3,10.5,81,10.5c44.7,0,81-4.7,81-10.5v-18H77.8z"/>
			<linearGradient id="SVGID_27_" gradientUnits="userSpaceOnUse" x1="158.0065" y1="381.0396" x2="167.8351" y2="463.3188">
				<stop  offset="0" style="stop-color:#FFDB44"/>
				<stop  offset="1" style="stop-color:#FEEF06"/>
			</linearGradient>
			<ellipse class="st36" cx="158.8" cy="387.8" rx="81" ry="10.5"/>
			<linearGradient id="SVGID_28_" gradientUnits="userSpaceOnUse" x1="157.5791" y1="377.3702" x2="160.5976" y2="402.6396">
				<stop  offset="0" style="stop-color:#FFDB44"/>
				<stop  offset="1" style="stop-color:#FEEF06"/>
			</linearGradient>
			<path class="st37" d="M158.8,399c-39.6,0-81.1-3.8-81.1-11.1c0-0.4,0.1-1.1,0.5-1.1s0.2,0.6,0.2,1c0,4.6,33,9.8,80.3,9.8
				c47.3,0,80.3-5.2,80.3-9.8c0-0.4,0.1-0.8,0.5-0.8s0.3,0.5,0.3,0.9C239.9,395.3,198.4,399,158.8,399z"/>
			<g>
				<path class="st25" d="M151.2,388.4c0.8-0.6,1.6-1.1,2.5-1.6c0.9-0.5,2.1-1,3.5-1.5c1.4-0.4,3.2-0.8,5.3-1.1
					c2.1-0.3,4.8-0.4,8-0.4c3.1,0,6.1,0.1,8.8,0.3c2.7,0.2,5.2,0.5,7.3,1c2.1,0.4,3.8,1,5.1,1.6c1.3,0.6,2.1,1.3,2.3,2.2l9.1,0.1
					c0.7,0,1.2,0.1,1.7,0.2c0.5,0.1,0.8,0.2,0.8,0.4l0,0.8l-11.7-0.1c-0.4,0.9-1.5,1.8-3.1,2.5c-1.7,0.8-3.8,1.4-6.4,2l-4.3-0.6
					c-0.4-0.1-0.7-0.1-0.9-0.2c-0.2-0.1-0.4-0.2-0.4-0.3c0-0.1,0.3-0.3,1-0.5c0.7-0.2,1.4-0.4,2.2-0.7c0.8-0.3,1.6-0.6,2.4-1
					c0.8-0.4,1.3-0.8,1.6-1.3l-27.7-0.3c-0.7,0.5-1.5,1.1-2.4,1.6c-0.9,0.5-2.1,1-3.6,1.4c-1.5,0.4-3.3,0.7-5.6,1
					c-2.2,0.3-5,0.4-8.4,0.4c-2.5,0-5-0.1-7.4-0.3c-2.4-0.2-4.6-0.5-6.4-0.9c-1.9-0.4-3.4-0.9-4.6-1.5c-1.2-0.6-1.9-1.3-2-2.1
					l-7.5-0.1c-0.7,0-1.2-0.1-1.8-0.2c-0.5-0.1-0.8-0.2-0.8-0.4l0-0.8L118,388c0.5-0.8,1.4-1.5,2.8-2.1c1.4-0.6,3.2-1.1,5.2-1.6
					l3.4,0.5c1,0.1,1.6,0.3,1.6,0.5c0,0.1-0.2,0.2-0.6,0.4c-0.4,0.2-0.9,0.3-1.5,0.6c-0.6,0.2-1.2,0.5-1.7,0.8c-0.6,0.3-1,0.6-1.3,1
					L151.2,388.4z M125.8,389.4c0.2,0.5,0.7,0.9,1.4,1.3c0.7,0.4,1.6,0.7,2.6,0.9c1,0.2,2.2,0.4,3.5,0.5c1.3,0.1,2.7,0.2,4.1,0.2
					c1.7,0,3.1-0.1,4.4-0.2c1.2-0.1,2.3-0.3,3.3-0.6c0.9-0.2,1.8-0.5,2.4-0.8c0.7-0.3,1.3-0.6,1.9-1L125.8,389.4z M186.1,388.7
					c-0.2-0.5-0.7-0.9-1.5-1.3c-0.8-0.4-1.8-0.7-3-0.9c-1.2-0.3-2.6-0.4-4.3-0.6c-1.6-0.1-3.4-0.2-5.3-0.2c-1.7,0-3.2,0.1-4.5,0.2
					c-1.2,0.1-2.3,0.3-3.3,0.6c-0.9,0.2-1.7,0.5-2.3,0.9c-0.6,0.3-1.2,0.7-1.8,1.1L186.1,388.7z"/>
			</g>
			
				<linearGradient id="SVGID_29_" gradientUnits="userSpaceOnUse" x1="-1451.1676" y1="517.8484" x2="-1448.1598" y2="543.0281" gradientTransform="matrix(-1 0 0 -1 -1290.751 917.8388)">
				<stop  offset="3.597120e-03" style="stop-color:#F36F56"/>
				<stop  offset="0.3059" style="stop-color:#F99C4C"/>
				<stop  offset="0.545" style="stop-color:#FDB946"/>
				<stop  offset="0.6817" style="stop-color:#FFC444"/>
				<stop  offset="0.8038" style="stop-color:#FFC244"/>
				<stop  offset="0.8667" style="stop-color:#FEBA46"/>
				<stop  offset="0.916" style="stop-color:#FCAD49"/>
				<stop  offset="0.958" style="stop-color:#F99A4D"/>
				<stop  offset="0.9955" style="stop-color:#F58152"/>
				<stop  offset="1" style="stop-color:#F57E53"/>
			</linearGradient>
			<path class="st38" d="M158.8,378.4c-36.1,0-73.7,3.2-79.8,9.3c0.2,0.2,0.5,0.4,0.7,0.7c5.1-4.3,36.1-8.6,79.1-8.6
				c44.1,0,75.6,4.5,79.5,8.9c0.2-0.2,0.4-0.5,0.6-0.7C233.9,381.7,195.6,378.4,158.8,378.4z"/>
		</g>
		<g>
			<linearGradient id="SVGID_30_" gradientUnits="userSpaceOnUse" x1="55.228" y1="381.6738" x2="241.6607" y2="381.6738">
				<stop  offset="0" style="stop-color:#FCB148"/>
				<stop  offset="5.207239e-02" style="stop-color:#FDBA46"/>
				<stop  offset="0.1424" style="stop-color:#FFC244"/>
				<stop  offset="0.3183" style="stop-color:#FFC444"/>
				<stop  offset="0.4849" style="stop-color:#FDB946"/>
				<stop  offset="0.7754" style="stop-color:#F99C4D"/>
				<stop  offset="0.8658" style="stop-color:#F8924F"/>
				<stop  offset="1" style="stop-color:#F8924F"/>
			</linearGradient>
			<path class="st39" d="M69.1,367.4v18c0,5.8,36.3,10.5,81,10.5s81-4.7,81-10.5v-18H69.1z"/>
			<linearGradient id="SVGID_31_" gradientUnits="userSpaceOnUse" x1="149.3011" y1="360.673" x2="159.1297" y2="442.9521">
				<stop  offset="0" style="stop-color:#FFDB44"/>
				<stop  offset="1" style="stop-color:#FEEF06"/>
			</linearGradient>
			<path class="st40" d="M231.1,367.4c0,5.8-36.3,10.5-81,10.5s-81-4.7-81-10.5c0-5.8,36.3-10.5,81-10.5S231.1,361.6,231.1,367.4z"
				/>
			<linearGradient id="SVGID_32_" gradientUnits="userSpaceOnUse" x1="148.8737" y1="357.0035" x2="151.8922" y2="382.2728">
				<stop  offset="0" style="stop-color:#FFDB44"/>
				<stop  offset="1" style="stop-color:#FEEF06"/>
			</linearGradient>
			<path class="st41" d="M150.1,378.7c-39.6,0-81.1-3.8-81.1-11.1c0-0.4,0.1-1.1,0.5-1.1s0.2,0.6,0.2,1c0,4.6,33,9.8,80.3,9.8
				c47.3,0,80.3-5.2,80.3-9.8c0-0.4,0.1-0.8,0.5-0.8c0.4,0,0.3,0.5,0.3,0.9C231.2,374.9,189.7,378.7,150.1,378.7z"/>
			<g>
				<path class="st25" d="M142.5,368c0.8-0.6,1.6-1.1,2.5-1.6c0.9-0.5,2.1-1,3.5-1.5c1.4-0.4,3.2-0.8,5.3-1.1c2.1-0.3,4.8-0.4,8-0.4
					c3.1,0,6.1,0.1,8.8,0.3c2.7,0.2,5.2,0.5,7.3,1c2.1,0.4,3.8,1,5.1,1.6c1.3,0.6,2.1,1.3,2.3,2.2l9.1,0.1c0.7,0,1.2,0.1,1.7,0.2
					c0.5,0.1,0.8,0.2,0.8,0.4l0,0.8l-11.7-0.1c-0.4,0.9-1.5,1.8-3.1,2.5c-1.7,0.8-3.8,1.4-6.4,2l-4.3-0.6c-0.4-0.1-0.7-0.1-0.9-0.2
					c-0.2-0.1-0.4-0.2-0.4-0.3c0-0.1,0.3-0.3,1-0.5c0.7-0.2,1.4-0.4,2.2-0.7c0.8-0.3,1.6-0.6,2.4-1c0.8-0.4,1.3-0.8,1.6-1.3
					l-27.7-0.3c-0.7,0.5-1.5,1.1-2.4,1.6c-0.9,0.5-2.1,1-3.6,1.4c-1.5,0.4-3.3,0.7-5.6,1c-2.2,0.3-5,0.4-8.4,0.4
					c-2.5,0-5-0.1-7.4-0.3c-2.4-0.2-4.6-0.5-6.4-0.9c-1.9-0.4-3.4-0.9-4.6-1.5c-1.2-0.6-1.9-1.3-2-2.1l-7.5-0.1
					c-0.7,0-1.2-0.1-1.8-0.2c-0.5-0.1-0.8-0.2-0.8-0.4l0-0.8l10.3,0.1c0.5-0.8,1.4-1.5,2.8-2.1c1.4-0.6,3.2-1.1,5.2-1.6l3.4,0.5
					c1,0.1,1.6,0.3,1.6,0.5c0,0.1-0.2,0.2-0.6,0.4c-0.4,0.2-0.9,0.3-1.5,0.6c-0.6,0.2-1.2,0.5-1.7,0.8c-0.6,0.3-1,0.6-1.3,1
					L142.5,368z M117.1,369c0.2,0.5,0.7,0.9,1.4,1.3c0.7,0.4,1.6,0.7,2.6,0.9c1,0.2,2.2,0.4,3.5,0.5c1.3,0.1,2.7,0.2,4.1,0.2
					c1.7,0,3.1-0.1,4.4-0.2c1.2-0.1,2.3-0.3,3.3-0.6c0.9-0.2,1.8-0.5,2.4-0.8c0.7-0.3,1.3-0.6,1.9-1L117.1,369z M177.4,368.4
					c-0.2-0.5-0.7-0.9-1.5-1.3c-0.8-0.4-1.8-0.7-3-0.9c-1.2-0.3-2.6-0.4-4.3-0.6c-1.6-0.1-3.4-0.2-5.3-0.2c-1.7,0-3.2,0.1-4.5,0.2
					c-1.2,0.1-2.3,0.3-3.3,0.6c-0.9,0.2-1.7,0.5-2.3,0.9c-0.6,0.3-1.2,0.7-1.8,1.1L177.4,368.4z"/>
			</g>
			
				<linearGradient id="SVGID_33_" gradientUnits="userSpaceOnUse" x1="-1442.4623" y1="538.2152" x2="-1439.4546" y2="563.3948" gradientTransform="matrix(-1 0 0 -1 -1290.751 917.8388)">
				<stop  offset="3.597120e-03" style="stop-color:#F36F56"/>
				<stop  offset="0.3059" style="stop-color:#F99C4C"/>
				<stop  offset="0.545" style="stop-color:#FDB946"/>
				<stop  offset="0.6817" style="stop-color:#FFC444"/>
				<stop  offset="0.8038" style="stop-color:#FFC244"/>
				<stop  offset="0.8667" style="stop-color:#FEBA46"/>
				<stop  offset="0.916" style="stop-color:#FCAD49"/>
				<stop  offset="0.958" style="stop-color:#F99A4D"/>
				<stop  offset="0.9955" style="stop-color:#F58152"/>
				<stop  offset="1" style="stop-color:#F57E53"/>
			</linearGradient>
			<path class="st42" d="M150.1,358.1c-36.1,0-73.7,3.2-79.8,9.3c0.2,0.2,0.5,0.4,0.7,0.7c5.1-4.3,36.1-8.6,79.1-8.6
				c44.1,0,75.6,4.5,79.5,8.9c0.2-0.2,0.4-0.5,0.6-0.7C225.2,361.4,186.9,358.1,150.1,358.1z"/>
		</g>
		<g>
			<linearGradient id="SVGID_34_" gradientUnits="userSpaceOnUse" x1="32.7031" y1="362.7963" x2="219.1357" y2="362.7963">
				<stop  offset="0" style="stop-color:#FCB148"/>
				<stop  offset="5.207239e-02" style="stop-color:#FDBA46"/>
				<stop  offset="0.1424" style="stop-color:#FFC244"/>
				<stop  offset="0.3183" style="stop-color:#FFC444"/>
				<stop  offset="0.4849" style="stop-color:#FDB946"/>
				<stop  offset="0.7754" style="stop-color:#F99C4D"/>
				<stop  offset="0.8658" style="stop-color:#F8924F"/>
				<stop  offset="1" style="stop-color:#F8924F"/>
			</linearGradient>
			<path class="st43" d="M46.6,348.6v18c0,5.8,36.3,10.5,81,10.5c44.7,0,81-4.7,81-10.5v-18H46.6z"/>
			<linearGradient id="SVGID_35_" gradientUnits="userSpaceOnUse" x1="126.7762" y1="341.7954" x2="136.6047" y2="424.0747">
				<stop  offset="0" style="stop-color:#FFDB44"/>
				<stop  offset="1" style="stop-color:#FEEF06"/>
			</linearGradient>
			<ellipse class="st44" cx="127.6" cy="348.6" rx="81" ry="10.5"/>
			<linearGradient id="SVGID_36_" gradientUnits="userSpaceOnUse" x1="126.3488" y1="338.1261" x2="129.3673" y2="363.3954">
				<stop  offset="0" style="stop-color:#FFDB44"/>
				<stop  offset="1" style="stop-color:#FEEF06"/>
			</linearGradient>
			<path class="st45" d="M127.6,359.8c-39.6,0-81.1-3.8-81.1-11.1c0-0.4,0.1-1.1,0.5-1.1c0.4,0,0.2,0.6,0.2,1c0,4.6,33,9.8,80.3,9.8
				s80.3-5.2,80.3-9.8c0-0.4,0.1-0.8,0.5-0.8c0.4,0,0.3,0.5,0.3,0.9C208.7,356,167.2,359.8,127.6,359.8z"/>
			<g>
				<path class="st25" d="M119.9,349.1c0.8-0.6,1.6-1.1,2.5-1.6c0.9-0.5,2.1-1,3.5-1.5c1.4-0.4,3.2-0.8,5.3-1.1
					c2.1-0.3,4.8-0.4,8-0.4c3.1,0,6.1,0.1,8.8,0.3c2.7,0.2,5.2,0.5,7.3,1c2.1,0.4,3.8,1,5.1,1.6c1.3,0.6,2.1,1.3,2.3,2.2l9.1,0.1
					c0.7,0,1.2,0.1,1.7,0.2c0.5,0.1,0.8,0.2,0.8,0.4l0,0.8l-11.7-0.1c-0.4,0.9-1.5,1.8-3.1,2.5c-1.7,0.8-3.8,1.4-6.4,2l-4.3-0.6
					c-0.4-0.1-0.7-0.1-0.9-0.2c-0.2-0.1-0.4-0.2-0.4-0.3c0-0.1,0.3-0.3,1-0.5c0.7-0.2,1.4-0.4,2.2-0.7c0.8-0.3,1.6-0.6,2.4-1
					c0.8-0.4,1.3-0.8,1.6-1.3l-27.7-0.3c-0.7,0.5-1.5,1.1-2.4,1.6c-0.9,0.5-2.1,1-3.6,1.4c-1.5,0.4-3.3,0.7-5.6,1
					c-2.2,0.3-5,0.4-8.4,0.4c-2.5,0-5-0.1-7.4-0.3c-2.4-0.2-4.6-0.5-6.4-0.9c-1.9-0.4-3.4-0.9-4.6-1.5c-1.2-0.6-1.9-1.3-2-2.1
					l-7.5-0.1c-0.7,0-1.2-0.1-1.8-0.2c-0.5-0.1-0.8-0.2-0.8-0.4l0-0.8l10.3,0.1c0.5-0.8,1.4-1.5,2.8-2.1c1.4-0.6,3.2-1.1,5.2-1.6
					l3.4,0.5c1,0.1,1.6,0.3,1.6,0.5c0,0.1-0.2,0.2-0.6,0.4c-0.4,0.2-0.9,0.3-1.5,0.6c-0.6,0.2-1.2,0.5-1.7,0.8c-0.6,0.3-1,0.6-1.3,1
					L119.9,349.1z M94.6,350.2c0.2,0.5,0.7,0.9,1.4,1.3c0.7,0.4,1.6,0.7,2.6,0.9c1,0.2,2.2,0.4,3.5,0.5c1.3,0.1,2.7,0.2,4.1,0.2
					c1.7,0,3.1-0.1,4.4-0.2c1.2-0.1,2.3-0.3,3.3-0.6c0.9-0.2,1.8-0.5,2.4-0.8c0.7-0.3,1.3-0.6,1.9-1L94.6,350.2z M154.9,349.5
					c-0.2-0.5-0.7-0.9-1.5-1.3c-0.8-0.4-1.8-0.7-3-0.9c-1.2-0.3-2.6-0.4-4.3-0.6c-1.6-0.1-3.4-0.2-5.3-0.2c-1.7,0-3.2,0.1-4.5,0.2
					c-1.2,0.1-2.3,0.3-3.3,0.6c-0.9,0.2-1.7,0.5-2.3,0.9c-0.6,0.3-1.2,0.7-1.8,1.1L154.9,349.5z"/>
			</g>
			
				<linearGradient id="SVGID_37_" gradientUnits="userSpaceOnUse" x1="-1419.9373" y1="557.0928" x2="-1416.9294" y2="582.2723" gradientTransform="matrix(-1 0 0 -1 -1290.751 917.8388)">
				<stop  offset="3.597120e-03" style="stop-color:#F36F56"/>
				<stop  offset="0.3059" style="stop-color:#F99C4C"/>
				<stop  offset="0.545" style="stop-color:#FDB946"/>
				<stop  offset="0.6817" style="stop-color:#FFC444"/>
				<stop  offset="0.8038" style="stop-color:#FFC244"/>
				<stop  offset="0.8667" style="stop-color:#FEBA46"/>
				<stop  offset="0.916" style="stop-color:#FCAD49"/>
				<stop  offset="0.958" style="stop-color:#F99A4D"/>
				<stop  offset="0.9955" style="stop-color:#F58152"/>
				<stop  offset="1" style="stop-color:#F57E53"/>
			</linearGradient>
			<path class="st46" d="M127.6,339.2c-36.1,0-73.7,3.2-79.8,9.3c0.2,0.2,0.5,0.4,0.7,0.7c5.1-4.3,36.1-8.6,79.1-8.6
				c44.1,0,75.6,4.5,79.5,8.9c0.2-0.2,0.4-0.5,0.6-0.7C202.7,342.5,164.4,339.2,127.6,339.2z"/>
		</g>
		<g>
			<linearGradient id="SVGID_38_" gradientUnits="userSpaceOnUse" x1="52.139" y1="343.9742" x2="238.5717" y2="343.9742">
				<stop  offset="0" style="stop-color:#FCB148"/>
				<stop  offset="5.207239e-02" style="stop-color:#FDBA46"/>
				<stop  offset="0.1424" style="stop-color:#FFC244"/>
				<stop  offset="0.3183" style="stop-color:#FFC444"/>
				<stop  offset="0.4849" style="stop-color:#FDB946"/>
				<stop  offset="0.7754" style="stop-color:#F99C4D"/>
				<stop  offset="0.8658" style="stop-color:#F8924F"/>
				<stop  offset="1" style="stop-color:#F8924F"/>
			</linearGradient>
			<path class="st47" d="M66,329.7v18c0,5.8,36.3,10.5,81,10.5c44.7,0,81-4.7,81-10.5v-18H66z"/>
			<linearGradient id="SVGID_39_" gradientUnits="userSpaceOnUse" x1="146.2121" y1="322.9732" x2="156.0406" y2="405.2526">
				<stop  offset="0" style="stop-color:#FFDB44"/>
				<stop  offset="1" style="stop-color:#FEEF06"/>
			</linearGradient>
			<ellipse class="st48" cx="147" cy="329.7" rx="81" ry="10.5"/>
			<linearGradient id="SVGID_40_" gradientUnits="userSpaceOnUse" x1="145.7849" y1="319.3039" x2="148.8034" y2="344.5732">
				<stop  offset="0" style="stop-color:#FFDB44"/>
				<stop  offset="1" style="stop-color:#FEEF06"/>
			</linearGradient>
			<path class="st49" d="M147,341c-39.6,0-81.1-3.8-81.1-11.1c0-0.4,0.1-1.1,0.5-1.1c0.4,0,0.2,0.6,0.2,1c0,4.6,33,9.8,80.3,9.8
				s80.3-5.2,80.3-9.8c0-0.4,0.1-0.8,0.5-0.8c0.4,0,0.3,0.5,0.3,0.9C228.1,337.2,186.7,341,147,341z"/>
			<g>
				<path class="st25" d="M139.4,330.3c0.8-0.6,1.6-1.1,2.5-1.6c0.9-0.5,2.1-1,3.5-1.5c1.4-0.4,3.2-0.8,5.3-1.1
					c2.1-0.3,4.8-0.4,8-0.4c3.1,0,6.1,0.1,8.8,0.3c2.7,0.2,5.2,0.5,7.3,1c2.1,0.4,3.8,1,5.1,1.6c1.3,0.6,2.1,1.3,2.3,2.2l9.1,0.1
					c0.7,0,1.2,0.1,1.7,0.2c0.5,0.1,0.8,0.2,0.8,0.4l0,0.8l-11.7-0.1c-0.4,0.9-1.5,1.8-3.1,2.5c-1.7,0.8-3.8,1.4-6.4,2l-4.3-0.6
					c-0.4-0.1-0.7-0.1-0.9-0.2c-0.2-0.1-0.4-0.2-0.4-0.3c0-0.1,0.3-0.3,1-0.5c0.7-0.2,1.4-0.4,2.2-0.7c0.8-0.3,1.6-0.6,2.4-1
					c0.8-0.4,1.3-0.8,1.6-1.3l-27.7-0.3c-0.7,0.5-1.5,1.1-2.4,1.6c-0.9,0.5-2.1,1-3.6,1.4c-1.5,0.4-3.3,0.7-5.6,1
					c-2.2,0.3-5,0.4-8.4,0.4c-2.5,0-5-0.1-7.4-0.3c-2.4-0.2-4.6-0.5-6.4-0.9c-1.9-0.4-3.4-0.9-4.6-1.5c-1.2-0.6-1.9-1.3-2-2.1
					l-7.5-0.1c-0.7,0-1.2-0.1-1.8-0.2c-0.5-0.1-0.8-0.2-0.8-0.4l0-0.8l10.3,0.1c0.5-0.8,1.4-1.5,2.8-2.1c1.4-0.6,3.2-1.1,5.2-1.6
					l3.4,0.5c1,0.1,1.6,0.3,1.6,0.5c0,0.1-0.2,0.2-0.6,0.4c-0.4,0.2-0.9,0.3-1.5,0.6c-0.6,0.2-1.2,0.5-1.7,0.8c-0.6,0.3-1,0.6-1.3,1
					L139.4,330.3z M114,331.3c0.2,0.5,0.7,0.9,1.4,1.3c0.7,0.4,1.6,0.7,2.6,0.9c1,0.2,2.2,0.4,3.5,0.5c1.3,0.1,2.7,0.2,4.1,0.2
					c1.7,0,3.1-0.1,4.4-0.2c1.2-0.1,2.3-0.3,3.3-0.6c0.9-0.2,1.8-0.5,2.4-0.8c0.7-0.3,1.3-0.6,1.9-1L114,331.3z M174.3,330.7
					c-0.2-0.5-0.7-0.9-1.5-1.3c-0.8-0.4-1.8-0.7-3-0.9c-1.2-0.3-2.6-0.4-4.3-0.6c-1.6-0.1-3.4-0.2-5.3-0.2c-1.7,0-3.2,0.1-4.5,0.2
					c-1.2,0.1-2.3,0.3-3.3,0.6c-0.9,0.2-1.7,0.5-2.3,0.9c-0.6,0.3-1.2,0.7-1.8,1.1L174.3,330.7z"/>
			</g>
			
				<linearGradient id="SVGID_41_" gradientUnits="userSpaceOnUse" x1="-1439.3733" y1="575.915" x2="-1436.3655" y2="601.0945" gradientTransform="matrix(-1 0 0 -1 -1290.751 917.8388)">
				<stop  offset="3.597120e-03" style="stop-color:#F36F56"/>
				<stop  offset="0.3059" style="stop-color:#F99C4C"/>
				<stop  offset="0.545" style="stop-color:#FDB946"/>
				<stop  offset="0.6817" style="stop-color:#FFC444"/>
				<stop  offset="0.8038" style="stop-color:#FFC244"/>
				<stop  offset="0.8667" style="stop-color:#FEBA46"/>
				<stop  offset="0.916" style="stop-color:#FCAD49"/>
				<stop  offset="0.958" style="stop-color:#F99A4D"/>
				<stop  offset="0.9955" style="stop-color:#F58152"/>
				<stop  offset="1" style="stop-color:#F57E53"/>
			</linearGradient>
			<path class="st50" d="M147,320.4c-36.1,0-73.7,3.2-79.8,9.3c0.2,0.2,0.5,0.4,0.7,0.7c5.1-4.3,36.1-8.6,79.1-8.6
				c44.1,0,75.6,4.5,79.5,8.9c0.2-0.2,0.4-0.5,0.6-0.7C222.1,323.7,183.8,320.4,147,320.4z"/>
		</g>
		<g>
			<linearGradient id="SVGID_42_" gradientUnits="userSpaceOnUse" x1="42.0297" y1="325.0967" x2="228.4622" y2="325.0967">
				<stop  offset="0" style="stop-color:#FCB148"/>
				<stop  offset="5.207239e-02" style="stop-color:#FDBA46"/>
				<stop  offset="0.1424" style="stop-color:#FFC244"/>
				<stop  offset="0.3183" style="stop-color:#FFC444"/>
				<stop  offset="0.4849" style="stop-color:#FDB946"/>
				<stop  offset="0.7754" style="stop-color:#F99C4D"/>
				<stop  offset="0.8658" style="stop-color:#F8924F"/>
				<stop  offset="1" style="stop-color:#F8924F"/>
			</linearGradient>
			<path class="st51" d="M55.9,310.9v18c0,5.8,36.3,10.5,81,10.5c44.7,0,81-4.7,81-10.5v-18H55.9z"/>
			<linearGradient id="SVGID_43_" gradientUnits="userSpaceOnUse" x1="136.1027" y1="304.0958" x2="145.9313" y2="386.3753">
				<stop  offset="0" style="stop-color:#FFDB44"/>
				<stop  offset="1" style="stop-color:#FEEF06"/>
			</linearGradient>
			<ellipse class="st52" cx="136.9" cy="310.9" rx="81" ry="10.5"/>
			<linearGradient id="SVGID_44_" gradientUnits="userSpaceOnUse" x1="135.6754" y1="300.4265" x2="138.6939" y2="325.6956">
				<stop  offset="0" style="stop-color:#FFDB44"/>
				<stop  offset="1" style="stop-color:#FEEF06"/>
			</linearGradient>
			<path class="st53" d="M136.9,322.1c-39.6,0-81.1-3.8-81.1-11.1c0-0.4,0.1-1.1,0.5-1.1c0.4,0,0.2,0.6,0.2,1c0,4.6,33,9.8,80.3,9.8
				c47.3,0,80.3-5.2,80.3-9.8c0-0.4,0.1-0.8,0.5-0.8c0.4,0,0.3,0.5,0.3,0.9C218,318.3,176.5,322.1,136.9,322.1z"/>
			<g>
				<path class="st25" d="M129.3,311.4c0.8-0.6,1.6-1.1,2.5-1.6c0.9-0.5,2.1-1,3.5-1.5c1.4-0.4,3.2-0.8,5.3-1.1
					c2.1-0.3,4.8-0.4,8-0.4c3.1,0,6.1,0.1,8.8,0.3c2.7,0.2,5.2,0.5,7.3,1c2.1,0.4,3.8,1,5.1,1.6c1.3,0.6,2.1,1.3,2.3,2.2l9.1,0.1
					c0.7,0,1.2,0.1,1.7,0.2c0.5,0.1,0.8,0.2,0.8,0.4l0,0.8l-11.7-0.1c-0.4,0.9-1.5,1.8-3.1,2.5c-1.7,0.8-3.8,1.4-6.4,2l-4.3-0.6
					c-0.4-0.1-0.7-0.1-0.9-0.2c-0.2-0.1-0.4-0.2-0.4-0.3c0-0.1,0.3-0.3,1-0.5c0.7-0.2,1.4-0.4,2.2-0.7c0.8-0.3,1.6-0.6,2.4-1
					c0.8-0.4,1.3-0.8,1.6-1.3l-27.7-0.3c-0.7,0.5-1.5,1.1-2.4,1.6c-0.9,0.5-2.1,1-3.6,1.4c-1.5,0.4-3.3,0.7-5.6,1
					c-2.2,0.3-5,0.4-8.4,0.4c-2.5,0-5-0.1-7.4-0.3c-2.4-0.2-4.6-0.5-6.4-0.9c-1.9-0.4-3.4-0.9-4.6-1.5c-1.2-0.6-1.9-1.3-2-2.1
					l-7.5-0.1c-0.7,0-1.2-0.1-1.8-0.2c-0.5-0.1-0.8-0.2-0.8-0.4l0-0.8l10.3,0.1c0.5-0.8,1.4-1.5,2.8-2.1c1.4-0.6,3.2-1.1,5.2-1.6
					l3.4,0.5c1,0.1,1.6,0.3,1.6,0.5c0,0.1-0.2,0.2-0.6,0.4c-0.4,0.2-0.9,0.3-1.5,0.6c-0.6,0.2-1.2,0.5-1.7,0.8c-0.6,0.3-1,0.6-1.3,1
					L129.3,311.4z M103.9,312.5c0.2,0.5,0.7,0.9,1.4,1.3c0.7,0.4,1.6,0.7,2.6,0.9c1,0.2,2.2,0.4,3.5,0.5c1.3,0.1,2.7,0.2,4.1,0.2
					c1.7,0,3.1-0.1,4.4-0.2c1.2-0.1,2.3-0.3,3.3-0.6c0.9-0.2,1.8-0.5,2.4-0.8c0.7-0.3,1.3-0.6,1.9-1L103.9,312.5z M164.2,311.8
					c-0.2-0.5-0.7-0.9-1.5-1.3c-0.8-0.4-1.8-0.7-3-0.9c-1.2-0.3-2.6-0.4-4.3-0.6c-1.6-0.1-3.4-0.2-5.3-0.2c-1.7,0-3.2,0.1-4.5,0.2
					c-1.2,0.1-2.3,0.3-3.3,0.6c-0.9,0.2-1.7,0.5-2.3,0.9c-0.6,0.3-1.2,0.7-1.8,1.1L164.2,311.8z"/>
			</g>
			
				<linearGradient id="SVGID_45_" gradientUnits="userSpaceOnUse" x1="-1429.2639" y1="594.7924" x2="-1426.2561" y2="619.972" gradientTransform="matrix(-1 0 0 -1 -1290.751 917.8388)">
				<stop  offset="3.597120e-03" style="stop-color:#F36F56"/>
				<stop  offset="0.3059" style="stop-color:#F99C4C"/>
				<stop  offset="0.545" style="stop-color:#FDB946"/>
				<stop  offset="0.6817" style="stop-color:#FFC444"/>
				<stop  offset="0.8038" style="stop-color:#FFC244"/>
				<stop  offset="0.8667" style="stop-color:#FEBA46"/>
				<stop  offset="0.916" style="stop-color:#FCAD49"/>
				<stop  offset="0.958" style="stop-color:#F99A4D"/>
				<stop  offset="0.9955" style="stop-color:#F58152"/>
				<stop  offset="1" style="stop-color:#F57E53"/>
			</linearGradient>
			<path class="st54" d="M136.9,301.5c-36.1,0-73.7,3.2-79.8,9.3c0.2,0.2,0.5,0.4,0.7,0.7c5.1-4.3,36.1-8.6,79.1-8.6
				c44.1,0,75.6,4.5,79.5,8.9c0.2-0.2,0.4-0.5,0.6-0.7C212,304.8,173.7,301.5,136.9,301.5z"/>
		</g>
		<g>
			
				<linearGradient id="SVGID_46_" gradientUnits="userSpaceOnUse" x1="-20.5628" y1="62.5851" x2="165.8706" y2="62.5851" gradientTransform="matrix(0.5796 0.8149 -0.8149 0.5796 284.27 300.9691)">
				<stop  offset="0" style="stop-color:#FCB148"/>
				<stop  offset="5.207239e-02" style="stop-color:#FDBA46"/>
				<stop  offset="0.1424" style="stop-color:#FFC244"/>
				<stop  offset="0.3183" style="stop-color:#FFC444"/>
				<stop  offset="0.4849" style="stop-color:#FDB946"/>
				<stop  offset="0.7754" style="stop-color:#F99C4D"/>
				<stop  offset="0.8658" style="stop-color:#F8924F"/>
				<stop  offset="1" style="stop-color:#F8924F"/>
			</linearGradient>
			<path class="st55" d="M241,323.5l-14.6,10.4c-4.7,3.4,12.5,35.7,38.4,72.1c25.9,36.5,50.8,63.3,55.5,59.9l14.6-10.4L241,323.5z"
				/>
			
				<linearGradient id="SVGID_47_" gradientUnits="userSpaceOnUse" x1="73.5105" y1="41.5863" x2="83.3378" y2="123.8556" gradientTransform="matrix(0.5796 0.8149 -0.8149 0.5796 284.27 300.9691)">
				<stop  offset="0" style="stop-color:#FFDB44"/>
				<stop  offset="1" style="stop-color:#FEEF06"/>
			</linearGradient>
			<path class="st56" d="M334.9,455.6c-4.7,3.4-29.6-23.5-55.5-59.9c-25.9-36.5-43.1-68.8-38.4-72.1c4.7-3.4,29.6,23.5,55.5,59.9
				C322.5,419.9,339.6,452.2,334.9,455.6z"/>
			
				<linearGradient id="SVGID_48_" gradientUnits="userSpaceOnUse" x1="73.0832" y1="37.9188" x2="76.1012" y2="63.1837" gradientTransform="matrix(0.5796 0.8149 -0.8149 0.5796 284.27 300.9691)">
				<stop  offset="0" style="stop-color:#FFDB44"/>
				<stop  offset="1" style="stop-color:#FEEF06"/>
			</linearGradient>
			<path class="st57" d="M278.8,396.1c-23-32.3-43.9-68.3-38-72.5c0.3-0.2,1-0.5,1.2-0.2c0.2,0.3-0.3,0.5-0.6,0.7
				c-3.8,2.7,11.1,32.5,38.6,71.1c27.4,38.6,50.7,62.4,54.5,59.8c0.3-0.2,0.7-0.4,0.9-0.1c0.2,0.3-0.3,0.6-0.6,0.8
				C328.9,459.9,301.8,428.4,278.8,396.1z"/>
			<g>
				<path class="st25" d="M283,383.7c0.9,0.3,1.8,0.7,2.8,1.1c1,0.4,2,1.1,3.2,2c1.2,0.9,2.5,2.2,4,3.7c1.5,1.6,3.1,3.7,5,6.3
					c1.8,2.5,3.4,5,4.9,7.4c1.4,2.4,2.6,4.5,3.4,6.5c0.9,1.9,1.4,3.6,1.7,5.1c0.2,1.4,0.1,2.5-0.4,3.1l5.2,7.5
					c0.4,0.5,0.7,1.1,0.9,1.5c0.2,0.5,0.2,0.8,0.1,0.8l-0.6,0.4l-6.7-9.6c-1,0.2-2.3-0.2-3.9-1.1c-1.6-0.9-3.4-2.3-5.3-4.1l-2-3.8
					c-0.2-0.3-0.3-0.6-0.4-0.9c-0.1-0.3-0.1-0.4,0-0.5c0.1-0.1,0.4,0.1,1,0.5c0.5,0.4,1.2,0.9,1.9,1.4c0.7,0.5,1.4,1,2.2,1.4
					c0.8,0.4,1.4,0.6,2,0.5l-15.8-22.7c-0.9-0.3-1.8-0.6-2.7-1.1c-0.9-0.4-2-1.1-3.2-2.1c-1.2-1-2.6-2.3-4-4
					c-1.5-1.7-3.2-3.9-5.2-6.6c-1.5-2.1-2.8-4.1-4.1-6.2c-1.2-2.1-2.2-4-3-5.8c-0.8-1.8-1.2-3.3-1.4-4.6c-0.2-1.3,0-2.3,0.5-2.8
					l-4.3-6.2c-0.4-0.5-0.7-1-0.9-1.5c-0.2-0.5-0.3-0.8-0.1-0.9l0.6-0.4l5.9,8.4c0.9-0.1,2,0.3,3.3,1.1c1.3,0.8,2.7,1.9,4.3,3.3
					l1.6,3.1c0.5,0.9,0.6,1.5,0.5,1.6c-0.1,0.1-0.3,0-0.7-0.3c-0.4-0.3-0.8-0.6-1.4-0.9c-0.5-0.3-1.1-0.7-1.6-0.9
					c-0.6-0.3-1.1-0.4-1.5-0.4L283,383.7z M267.5,363.6c-0.3,0.5-0.4,1.1-0.2,1.8c0.1,0.8,0.4,1.7,0.8,2.6c0.4,1,1,2,1.6,3.2
					c0.7,1.1,1.4,2.3,2.3,3.4c1,1.4,1.9,2.5,2.7,3.4c0.8,0.9,1.6,1.7,2.3,2.3c0.7,0.6,1.4,1.1,2.1,1.5c0.7,0.4,1.3,0.7,1.9,0.9
					L267.5,363.6z M303,412.3c0.3-0.5,0.4-1.1,0.2-2c-0.1-0.9-0.5-1.9-1-3c-0.5-1.1-1.2-2.4-2-3.8c-0.8-1.4-1.8-2.9-3-4.5
					c-1-1.4-1.9-2.6-2.8-3.5c-0.8-0.9-1.6-1.7-2.4-2.3c-0.7-0.6-1.4-1.1-2.1-1.4c-0.6-0.3-1.3-0.6-1.9-0.8L303,412.3z"/>
			</g>
			
				<linearGradient id="SVGID_49_" gradientUnits="userSpaceOnUse" x1="-1366.1046" y1="856.8484" x2="-1363.0973" y2="882.0234" gradientTransform="matrix(-0.5796 -0.8149 0.8149 -0.5796 -1211.0953 -218.6877)">
				<stop  offset="3.597120e-03" style="stop-color:#F36F56"/>
				<stop  offset="0.3059" style="stop-color:#F99C4C"/>
				<stop  offset="0.545" style="stop-color:#FDB946"/>
				<stop  offset="0.6817" style="stop-color:#FFC444"/>
				<stop  offset="0.8038" style="stop-color:#FFC244"/>
				<stop  offset="0.8667" style="stop-color:#FEBA46"/>
				<stop  offset="0.916" style="stop-color:#FCAD49"/>
				<stop  offset="0.958" style="stop-color:#F99A4D"/>
				<stop  offset="0.9955" style="stop-color:#F58152"/>
				<stop  offset="1" style="stop-color:#F57E53"/>
			</linearGradient>
			<path class="st58" d="M295.6,384.1c-20.9-29.4-45.3-58.3-53.8-59.6c0,0.3-0.1,0.6-0.2,0.9c6.4,1.7,27.9,24.5,52.8,59.5
				c25.5,35.9,40.2,64.3,38.8,69.9c0.3,0,0.6,0,0.9,0.1C336.4,447.2,316.9,414.1,295.6,384.1z"/>
		</g>
	</g>
	<g>
		
			<linearGradient id="SVGID_50_" gradientUnits="userSpaceOnUse" x1="-1229.3365" y1="639.8697" x2="-1201.4015" y2="573.9929" gradientTransform="matrix(-1 0 0 1 -541.016 0)">
			<stop  offset="0" style="stop-color:#09005D"/>
			<stop  offset="1" style="stop-color:#1A0F91"/>
		</linearGradient>
		<path class="st59" d="M625.4,447.5c0,0,1,5.4,1.4,10.8c0.2,2.1-1.4,3.9-3.5,4c-7.1,0.3-22.4,0.9-27.9,0.6c-0.8,0-1.4-0.9-1.1-1.6
			l0,0c0.3-0.6,0.7-1.2,1.4-1.5l25.2-11.6L625.4,447.5z"/>
		
			<linearGradient id="SVGID_51_" gradientUnits="userSpaceOnUse" x1="-1167.2068" y1="447.524" x2="-1158.999" y2="447.524" gradientTransform="matrix(-1 0 0 1 -541.016 0)">
			<stop  offset="0" style="stop-color:#FF928E"/>
			<stop  offset="1" style="stop-color:#FEB3B1"/>
		</linearGradient>
		<path class="st60" d="M626.2,444.4l-0.8,6.5c0,0-4.4,2.1-7.4-0.3l1.8-7.2L626.2,444.4z"/>
		
			<linearGradient id="SVGID_52_" gradientUnits="userSpaceOnUse" x1="-1573.7261" y1="622.9072" x2="-1436.1416" y2="540.9818" gradientTransform="matrix(-1 0 0 1 -541.016 0)">
			<stop  offset="0" style="stop-color:#09005D"/>
			<stop  offset="1" style="stop-color:#1A0F91"/>
		</linearGradient>
		<path class="st61" d="M625.6,322.5c0.3,1.7,1.8,84.4-7.1,121.5c-0.1,0.6,0.2,1.2,0.7,1.5c1.4,0.6,4,1.4,7.2,1.5
			c1,0,1.9-0.6,2.2-1.6c2.5-8.6,14.6-51.7,16.2-92.9c1.8-46,0-1.6,0-1.6l-1-28.4L625.6,322.5z"/>
		
			<linearGradient id="SVGID_53_" gradientUnits="userSpaceOnUse" x1="-1262.3953" y1="625.8521" x2="-1234.4601" y2="559.9753" gradientTransform="matrix(-1 0 0 1 -541.016 0)">
			<stop  offset="0" style="stop-color:#09005D"/>
			<stop  offset="1" style="stop-color:#1A0F91"/>
		</linearGradient>
		<path class="st62" d="M654.4,450.4c0,0,1.5,2.7,3,10c0.3,1.3-0.7,2.6-2,2.7c-2.4,0.2-6,0.5-8.9,0.5c-1.3,0-2.4-1.2-2.2-2.5
			c0.3-2.7,1.3-7,4.4-10.4L654.4,450.4z"/>
		
			<linearGradient id="SVGID_54_" gradientUnits="userSpaceOnUse" x1="-1196.7874" y1="447.1031" x2="-1189.7008" y2="447.1031" gradientTransform="matrix(-1 0 0 1 -541.016 0)">
			<stop  offset="0" style="stop-color:#FF928E"/>
			<stop  offset="1" style="stop-color:#FEB3B1"/>
		</linearGradient>
		<path class="st63" d="M655.8,442l-1.8,9.8c0,0-1.8,1.3-5.3,0.4l0.9-10.5L655.8,442z"/>
		
			<linearGradient id="SVGID_55_" gradientUnits="userSpaceOnUse" x1="-1578.9365" y1="614.156" x2="-1441.3522" y2="532.2307" gradientTransform="matrix(-1 0 0 1 -541.016 0)">
			<stop  offset="0" style="stop-color:#09005D"/>
			<stop  offset="1" style="stop-color:#1A0F91"/>
		</linearGradient>
		<path class="st64" d="M660.6,325.1c7.2,43.7-1.6,107.9-4.5,120.5c-0.2,0.8-0.8,1.4-1.6,1.5c-1.3,0.2-3.5,0.4-5.7-0.2
			c-0.7-0.2-1.3-0.9-1.3-1.7c-0.4-10.2,0.3-72.6-6.4-97.2c-0.3-1.3-1.1-2.3-2.2-3.1l-13.1-9.3l-1-15L660.6,325.1z"/>
		<g>
			
				<linearGradient id="SVGID_56_" gradientUnits="userSpaceOnUse" x1="-1215.3817" y1="309.9876" x2="-1086.2328" y2="217.0435" gradientTransform="matrix(-1 0 0 1 -541.016 0)">
				<stop  offset="0" style="stop-color:#FE7062"/>
				<stop  offset="1" style="stop-color:#FF928E"/>
			</linearGradient>
			<path class="st65" d="M614.5,242.3c21.7-0.4,45.6,5.7,45.6,5.7c6.5,37.7,1.1,81.2,1.1,81.2c-16.8,4.4-35.7-2.7-35.7-2.7
				c-2.8-15.8-15.8-60.1-15.8-60.1c-10.6-1.3-19.3-4.4-26.5-8.4c5.5-6.4,8.1-14.4,9.2-19.2C600.1,241.2,607.8,242.5,614.5,242.3z"/>
			
				<linearGradient id="SVGID_57_" gradientUnits="userSpaceOnUse" x1="-1146.5524" y1="357.9816" x2="-1129.8746" y2="292.9385" gradientTransform="matrix(-1 0 0 1 -541.016 0)">
				<stop  offset="0" style="stop-color:#FF928E"/>
				<stop  offset="1" style="stop-color:#FEB3B1"/>
			</linearGradient>
			<path class="st66" d="M550.5,210.4c2.1-2.6,4.8-1.4,4.8-1.4c3.2,13.5,19.9,24.4,37.1,29.7c-1.1,4.8-3.7,12.9-9.2,19.2
				C554.7,242,550.5,210.4,550.5,210.4z"/>
		</g>
		<g>
			
				<linearGradient id="SVGID_58_" gradientUnits="userSpaceOnUse" x1="8368.4805" y1="1012.2405" x2="8385.1582" y2="947.1974" gradientTransform="matrix(1 0 0 1 -8028.7939 0)">
				<stop  offset="0" style="stop-color:#FF928E"/>
				<stop  offset="1" style="stop-color:#FEB3B1"/>
			</linearGradient>
			<path class="st67" d="M551,211.1c-0.2,0.7,2.4,1.8,3.9-1.1c0.1-1.4,0.9-7.3,0.1-8.5c-4.4-6-13-13.6-13-13.6
				c-1.4,1.4-0.3,2.8-0.3,2.8l4.2,4.3c-0.9,1.6-1.9,2.9-2.4,4.8c-0.4,1.4-0.1,3,0.6,4.3c0.7,1.3,1.7,3,2.7,4.4
				C548.5,211,551,211.1,551,211.1z"/>
			<linearGradient id="SVGID_59_" gradientUnits="userSpaceOnUse" x1="582.7091" y1="162.4152" x2="523.9204" y2="232.0444">
				<stop  offset="0" style="stop-color:#FF928E"/>
				<stop  offset="1" style="stop-color:#FEB3B1"/>
			</linearGradient>
			<path class="st68" d="M547.7,197.9l3.8,3.2l1.2,3.2l-3.4,3.7c0,0-1.1-6.3-2-7.7C546.5,198.9,546.9,198.3,547.7,197.9z"/>
		</g>
		
			<linearGradient id="SVGID_60_" gradientUnits="userSpaceOnUse" x1="-1232.4001" y1="286.3402" x2="-1103.2506" y2="193.3957" gradientTransform="matrix(-1 0 0 1 -541.016 0)">
			<stop  offset="0" style="stop-color:#FE7062"/>
			<stop  offset="1" style="stop-color:#FF928E"/>
		</linearGradient>
		<path class="st69" d="M651.8,269l8.3-21c0,0,20.3,13.8,23.6,31.2c-3.8,0.3-10.8,1.3-17.6,4.7C664.6,275.7,651.8,269,651.8,269z"/>
		<linearGradient id="SVGID_61_" gradientUnits="userSpaceOnUse" x1="616.6065" y1="301.8396" x2="690.4054" y2="290.1652">
			<stop  offset="0" style="stop-color:#FF928E"/>
			<stop  offset="1" style="stop-color:#FEB3B1"/>
		</linearGradient>
		<path class="st70" d="M634.1,288.8c0,0,22.7,12.8,30.4,1.9c1.6-2.3,2-4.5,1.6-6.7c6.8-3.4,13.8-4.4,17.6-4.7
			c1,5.3,0.5,10.9-2.6,16.5c-13.4,24.6-50-1.4-50-1.4L634.1,288.8z"/>
		<g>
			<path class="st13" d="M636.8,305l-12.4-43.3c-0.1-0.5-0.6-0.9-1.1-0.9c-2.2-0.3-8.8-1-16.3-1.6c-9.1-0.8-19.6-1.4-25.9-0.9
				c-0.9,0.1-1.4,1-1,1.8c3.6,7.2,18.3,36.7,25.6,46.3c0.2,0.3,0.6,0.5,1,0.5l28.8-0.3C636.5,306.7,637.1,305.8,636.8,305z"/>
			
				<linearGradient id="SVGID_62_" gradientUnits="userSpaceOnUse" x1="-1137.7999" y1="235.8988" x2="-1144.0142" y2="263.1871" gradientTransform="matrix(-1 0 0 1 -541.016 0)">
				<stop  offset="0" style="stop-color:#E1473D"/>
				<stop  offset="1" style="stop-color:#E9605A"/>
			</linearGradient>
			<path class="st71" d="M605.8,255.4l-9-1.5c-0.5-0.1-0.9,0.4-0.7,0.8l0.9,2.7c0.1,0.2,0.3,0.4,0.5,0.4l8.7,1.2
				c0.4,0.1,0.8-0.3,0.7-0.8l-0.6-2.4C606.3,255.6,606.1,255.4,605.8,255.4z"/>
			
				<linearGradient id="SVGID_63_" gradientUnits="userSpaceOnUse" x1="-1141.0521" y1="247.3455" x2="-1144.0242" y2="265.1775" gradientTransform="matrix(-1 0 0 1 -541.016 0)">
				<stop  offset="0" style="stop-color:#E1473D"/>
				<stop  offset="1" style="stop-color:#E9605A"/>
			</linearGradient>
			<path class="st72" d="M612.5,263l-0.7-3.9c-0.1-0.4-0.4-0.7-0.8-0.7l-18.2-1.8c-0.6-0.1-1.1,0.5-1,1.1l1.2,4.8
				c0.1,0.4,0.4,0.7,0.8,0.7l17.8,0.9C612.2,264.1,612.6,263.6,612.5,263z"/>
			<linearGradient id="SVGID_64_" gradientUnits="userSpaceOnUse" x1="663.8408" y1="253.5766" x2="646.3292" y2="269.8373">
				<stop  offset="0" style="stop-color:#FF928E"/>
				<stop  offset="1" style="stop-color:#FEB3B1"/>
			</linearGradient>
			<path class="st73" d="M633.8,294.6c0,0,1.7-7.1,1-9.6c-0.7-2.5-2-5.8-6.6-5c-4.5,0.7-9.8,2.6-9.8,2.6s0.3,3.3,3.7,2.2l-2.1,1.6
				c0,0,0.3,2.6,3.2,1.2l-2,2.2c0,0,1.2,2.2,3.4,0.8C626.8,289.2,627.8,295.4,633.8,294.6z"/>
		</g>
		
			<linearGradient id="SVGID_65_" gradientUnits="userSpaceOnUse" x1="-1184.4409" y1="236.0603" x2="-1163.4609" y2="236.0603" gradientTransform="matrix(-1 0 0 1 -541.016 0)">
			<stop  offset="0" style="stop-color:#FF928E"/>
			<stop  offset="1" style="stop-color:#FEB3B1"/>
		</linearGradient>
		<path class="st74" d="M636.5,224.7l6.9,19.9c0.1,0.3,0,0.7-0.3,0.9c-1.9,1-8.7,4-16.8-1.1c-0.9-0.5-1.4-1.4-1.6-2.4l-2.2-17.3
			H636.5z"/>
		<g>
			<linearGradient id="SVGID_66_" gradientUnits="userSpaceOnUse" x1="629.3802" y1="192.5118" x2="626.3226" y2="225.0334">
				<stop  offset="0" style="stop-color:#FF928E"/>
				<stop  offset="1" style="stop-color:#FEB3B1"/>
			</linearGradient>
			<path class="st75" d="M621.5,206.3c0,0-7.6,14.3-6.6,20c1,5.8,10.4,5.3,18.6,0.7l5.7-15.4L621.5,206.3z"/>
			
				<linearGradient id="SVGID_67_" gradientUnits="userSpaceOnUse" x1="-6823.6924" y1="-2887.0098" x2="-6817.1338" y2="-2849.604" gradientTransform="matrix(-0.746 -0.6659 -0.6659 0.746 -6360.2007 -2196.3748)">
				<stop  offset="0" style="stop-color:#E1473D"/>
				<stop  offset="1" style="stop-color:#E9605A"/>
			</linearGradient>
			<path class="st76" d="M633.1,219.4c-0.3-0.1-0.5-0.6-0.3-0.9c0.6-0.9,1.7-2.8,2.1-4.5c0,0,1.4-0.9-3.5-2
				c-4.8-1.2-12-2.9-13.5-7.1c-1.5-4,2.4-14.1,8.6-6.1c0.2,0.3,0.7,0.3,0.9,0c1-1.3,3.7-4.1,7.4-2.4c3.5,1.6,3.9,4.1,3.8,5.4
				c0,0.4,0.3,0.7,0.7,0.6c1.8-0.3,6-0.6,7.9,3.7c1.6,3.6,0.6,5.6-0.4,6.5c-0.3,0.3-0.2,0.8,0.3,1c1.2,0.4,2.6,1.3,2.5,4
				c-0.2,3.7-4.4,3.4-5.6,3.2c-0.2,0-0.4,0-0.5,0.2c-1,1.1-5.6,5.9-10.6,6.5c-0.4,0-0.8-0.4-0.6-0.8l2.1-6.2c0.1-0.3,0-0.6-0.3-0.7
				L633.1,219.4z"/>
			<linearGradient id="SVGID_68_" gradientUnits="userSpaceOnUse" x1="636.941" y1="193.2227" x2="633.8834" y2="225.7442">
				<stop  offset="0" style="stop-color:#FF928E"/>
				<stop  offset="1" style="stop-color:#FEB3B1"/>
			</linearGradient>
			<path class="st77" d="M632.2,220.3c0,0,5.4-3.7,5.8-0.6c0.4,3.1-4.9,4.5-7.5,3.4L632.2,220.3z"/>
		</g>
	</g>
	<g>
		<g>
			<path class="st0" d="M62.3,285.3c-0.3,0-0.6-0.1-0.8-0.4l-2.6-3.2c-0.4-0.4-0.3-1.1,0.1-1.5c0.4-0.4,1.1-0.3,1.5,0.1l2.6,3.2
				c0.4,0.4,0.3,1.1-0.1,1.5C62.8,285.2,62.6,285.3,62.3,285.3z"/>
			<path class="st0" d="M153.9,395.3c-0.3,0-0.6-0.1-0.8-0.4l-5.1-6.1c-0.4-0.4-0.3-1.1,0.1-1.5c0.4-0.4,1.1-0.3,1.5,0.1l5.1,6.1
				c0.4,0.4,0.3,1.1-0.1,1.5C154.4,395.2,154.1,395.3,153.9,395.3z M143.7,383.1c-0.3,0-0.6-0.1-0.8-0.4l-5.1-6.1
				c-0.4-0.4-0.3-1.1,0.1-1.5c0.4-0.4,1.1-0.3,1.5,0.1l5.1,6.1c0.4,0.4,0.3,1.1-0.1,1.5C144.2,383,143.9,383.1,143.7,383.1z
				 M133.5,370.9c-0.3,0-0.6-0.1-0.8-0.4l-5.1-6.1c-0.4-0.4-0.3-1.1,0.1-1.5c0.4-0.4,1.1-0.3,1.5,0.1l5.1,6.1
				c0.4,0.4,0.3,1.1-0.1,1.5C134,370.8,133.8,370.9,133.5,370.9z M123.4,358.6c-0.3,0-0.6-0.1-0.8-0.4l-5.1-6.1
				c-0.4-0.4-0.3-1.1,0.1-1.5c0.4-0.4,1.1-0.3,1.5,0.1l5.1,6.1c0.4,0.4,0.3,1.1-0.1,1.5C123.8,358.6,123.6,358.6,123.4,358.6z
				 M113.2,346.4c-0.3,0-0.6-0.1-0.8-0.4l-5.1-6.1c-0.4-0.4-0.3-1.1,0.1-1.5c0.4-0.4,1.1-0.3,1.5,0.1l5.1,6.1
				c0.4,0.4,0.3,1.1-0.1,1.5C113.7,346.3,113.4,346.4,113.2,346.4z M103,334.2c-0.3,0-0.6-0.1-0.8-0.4l-5.1-6.1
				c-0.4-0.4-0.3-1.1,0.1-1.5c0.4-0.4,1.1-0.3,1.5,0.1l5.1,6.1c0.4,0.4,0.3,1.1-0.1,1.5C103.5,334.1,103.3,334.2,103,334.2z
				 M92.9,322c-0.3,0-0.6-0.1-0.8-0.4l-5.1-6.1c-0.4-0.4-0.3-1.1,0.1-1.5c0.4-0.4,1.1-0.3,1.5,0.1l5.1,6.1c0.4,0.4,0.3,1.1-0.1,1.5
				C93.3,321.9,93.1,322,92.9,322z M82.7,309.7c-0.3,0-0.6-0.1-0.8-0.4l-5.1-6.1c-0.4-0.4-0.3-1.1,0.1-1.5c0.4-0.4,1.1-0.3,1.5,0.1
				l5.1,6.1c0.4,0.4,0.3,1.1-0.1,1.5C83.1,309.7,82.9,309.7,82.7,309.7z M72.5,297.5c-0.3,0-0.6-0.1-0.8-0.4l-5.1-6.1
				c-0.4-0.4-0.3-1.1,0.1-1.5c0.4-0.4,1.1-0.3,1.5,0.1l5.1,6.1c0.4,0.4,0.3,1.1-0.1,1.5C73,297.4,72.7,297.5,72.5,297.5z"/>
			<path class="st0" d="M161.6,404.6c-0.3,0-0.6-0.1-0.8-0.4l-2.6-3.2c-0.4-0.4-0.3-1.1,0.1-1.5c0.4-0.4,1.1-0.3,1.5,0.1l2,2.4
				l2.5-1.9c0.5-0.3,1.1-0.2,1.4,0.2c0.3,0.5,0.2,1.1-0.2,1.4l-3.3,2.5C162,404.5,161.8,404.6,161.6,404.6z"/>
			<path class="st0" d="M171.5,397.2c-0.3,0-0.6-0.1-0.8-0.4c-0.3-0.5-0.2-1.1,0.2-1.4l6.6-4.9c0.5-0.3,1.1-0.2,1.4,0.2
				c0.3,0.5,0.2,1.1-0.2,1.4l-6.6,4.9C171.9,397.1,171.7,397.2,171.5,397.2z M184.6,387.4c-0.3,0-0.6-0.1-0.8-0.4
				c-0.3-0.5-0.2-1.1,0.2-1.4l6.6-4.9c0.5-0.3,1.1-0.2,1.4,0.2c0.3,0.5,0.2,1.1-0.2,1.4l-6.6,4.9
				C185.1,387.3,184.9,387.4,184.6,387.4z M197.8,377.5c-0.3,0-0.6-0.1-0.8-0.4c-0.3-0.5-0.2-1.1,0.2-1.4l6.6-4.9
				c0.5-0.3,1.1-0.2,1.4,0.2c0.3,0.5,0.2,1.1-0.2,1.4l-6.6,4.9C198.2,377.5,198,377.5,197.8,377.5z M210.9,367.7
				c-0.3,0-0.6-0.1-0.8-0.4c-0.3-0.5-0.2-1.1,0.2-1.4l6.6-4.9c0.5-0.3,1.1-0.2,1.4,0.2c0.3,0.5,0.2,1.1-0.2,1.4l-6.6,4.9
				C211.4,367.7,211.2,367.7,210.9,367.7z M224.1,357.9c-0.3,0-0.6-0.1-0.8-0.4c-0.3-0.5-0.2-1.1,0.2-1.4l6.6-4.9
				c0.5-0.3,1.1-0.2,1.4,0.2c0.3,0.5,0.2,1.1-0.2,1.4l-6.6,4.9C224.5,357.8,224.3,357.9,224.1,357.9z M237.2,348.1
				c-0.3,0-0.6-0.1-0.8-0.4c-0.3-0.5-0.2-1.1,0.2-1.4l6.6-4.9c0.5-0.3,1.1-0.2,1.4,0.2c0.3,0.5,0.2,1.1-0.2,1.4l-6.6,4.9
				C237.7,348,237.5,348.1,237.2,348.1z M250.4,338.2c-0.3,0-0.6-0.1-0.8-0.4c-0.3-0.5-0.2-1.1,0.2-1.4l6.6-4.9
				c0.5-0.3,1.1-0.2,1.4,0.2c0.3,0.5,0.2,1.1-0.2,1.4L251,338C250.8,338.2,250.6,338.2,250.4,338.2z M263.5,328.4
				c-0.3,0-0.6-0.1-0.8-0.4c-0.3-0.5-0.2-1.1,0.2-1.4l6.6-4.9c0.5-0.3,1.1-0.2,1.4,0.2c0.3,0.5,0.2,1.1-0.2,1.4l-6.6,4.9
				C264,328.3,263.8,328.4,263.5,328.4z"/>
			<path class="st0" d="M276.7,318.6c-0.3,0-0.6-0.1-0.8-0.4c-0.3-0.5-0.2-1.1,0.2-1.4l3.3-2.5c0.3-0.2,0.7-0.3,1.1-0.1l3.7,1.8
				c0.5,0.2,0.7,0.9,0.5,1.4c-0.2,0.5-0.9,0.7-1.4,0.5l-3.2-1.5l-2.8,2.1C277.1,318.5,276.9,318.6,276.7,318.6z"/>
			<path class="st0" d="M366.4,357.2c-0.1,0-0.3,0-0.4-0.1l-6.9-3.3c-0.5-0.2-0.7-0.9-0.5-1.4c0.2-0.5,0.9-0.7,1.4-0.5l6.9,3.3
				c0.5,0.2,0.7,0.9,0.5,1.4C367.1,356.9,366.7,357.2,366.4,357.2z M352.6,350.6c-0.1,0-0.3,0-0.4-0.1l-6.9-3.3
				c-0.5-0.2-0.7-0.9-0.5-1.4c0.2-0.5,0.9-0.7,1.4-0.5l6.9,3.3c0.5,0.2,0.7,0.9,0.5,1.4C353.3,350.4,353,350.6,352.6,350.6z
				 M338.8,344.1c-0.1,0-0.3,0-0.4-0.1l-6.9-3.3c-0.5-0.2-0.7-0.9-0.5-1.4c0.2-0.5,0.9-0.7,1.4-0.5l6.9,3.3c0.5,0.2,0.7,0.9,0.5,1.4
				C339.6,343.8,339.2,344.1,338.8,344.1z M325,337.5c-0.1,0-0.3,0-0.4-0.1l-6.9-3.3c-0.5-0.2-0.7-0.9-0.5-1.4
				c0.2-0.5,0.9-0.7,1.4-0.5l6.9,3.3c0.5,0.2,0.7,0.9,0.5,1.4C325.8,337.3,325.4,337.5,325,337.5z M311.3,331c-0.1,0-0.3,0-0.4-0.1
				l-6.9-3.3c-0.5-0.2-0.7-0.9-0.5-1.4c0.2-0.5,0.9-0.7,1.4-0.5l6.9,3.3c0.5,0.2,0.7,0.9,0.5,1.4C312,330.8,311.7,331,311.3,331z
				 M297.5,324.4c-0.1,0-0.3,0-0.4-0.1l-6.9-3.3c-0.5-0.2-0.7-0.9-0.5-1.4c0.2-0.5,0.9-0.7,1.4-0.5l6.9,3.3c0.5,0.2,0.7,0.9,0.5,1.4
				C298.3,324.2,297.9,324.4,297.5,324.4z"/>
			<path class="st0" d="M377,362.2c-0.1,0-0.3,0-0.4-0.1l-3.7-1.8c-0.5-0.2-0.7-0.9-0.5-1.4c0.2-0.5,0.9-0.7,1.4-0.5l3,1.4l1.9-2.6
				c0.3-0.5,1-0.6,1.4-0.2c0.5,0.3,0.6,1,0.2,1.4l-2.5,3.3C377.6,362.1,377.3,362.2,377,362.2z"/>
			<path class="st0" d="M384.4,352.2c-0.2,0-0.4-0.1-0.6-0.2c-0.5-0.3-0.6-1-0.2-1.4l5-6.7c0.3-0.5,1-0.6,1.4-0.2
				c0.5,0.3,0.6,1,0.2,1.4l-5,6.7C385,352,384.7,352.2,384.4,352.2z M394.3,338.7c-0.2,0-0.4-0.1-0.6-0.2c-0.5-0.3-0.6-1-0.2-1.4
				l5-6.7c0.3-0.5,1-0.6,1.4-0.2c0.5,0.3,0.6,1,0.2,1.4l-5,6.7C395,338.6,394.6,338.7,394.3,338.7z M404.3,325.3
				c-0.2,0-0.4-0.1-0.6-0.2c-0.5-0.3-0.6-1-0.2-1.4l5-6.7c0.3-0.5,1-0.6,1.4-0.2c0.5,0.3,0.6,1,0.2,1.4l-5,6.7
				C404.9,325.1,404.6,325.3,404.3,325.3z M414.2,311.8c-0.2,0-0.4-0.1-0.6-0.2c-0.5-0.3-0.6-1-0.2-1.4l5-6.7c0.3-0.5,1-0.6,1.4-0.2
				c0.5,0.3,0.6,1,0.2,1.4l-5,6.7C414.8,311.7,414.5,311.8,414.2,311.8z M424.2,298.4c-0.2,0-0.4-0.1-0.6-0.2
				c-0.5-0.3-0.6-1-0.2-1.4l5-6.7c0.3-0.5,1-0.6,1.4-0.2c0.5,0.3,0.6,1,0.2,1.4l-5,6.7C424.8,298.2,424.5,298.4,424.2,298.4z
				 M434.1,284.9c-0.2,0-0.4-0.1-0.6-0.2c-0.5-0.3-0.6-1-0.2-1.4l5-6.7c0.3-0.5,1-0.6,1.4-0.2c0.5,0.3,0.6,1,0.2,1.4l-5,6.7
				C434.7,284.8,434.4,284.9,434.1,284.9z M444,271.5c-0.2,0-0.4-0.1-0.6-0.2c-0.5-0.3-0.6-1-0.2-1.4l5-6.7c0.3-0.5,1-0.6,1.4-0.2
				c0.5,0.3,0.6,1,0.2,1.4l-5,6.7C444.7,271.3,444.4,271.5,444,271.5z M454,258c-0.2,0-0.4-0.1-0.6-0.2c-0.5-0.3-0.6-1-0.2-1.4
				l5-6.7c0.3-0.5,1-0.6,1.4-0.2c0.5,0.3,0.6,1,0.2,1.4l-5,6.7C454.6,257.9,454.3,258,454,258z"/>
			<path class="st0" d="M463.9,244.6c-0.2,0-0.4-0.1-0.6-0.2c-0.5-0.3-0.6-1-0.2-1.4l2.5-3.3c0.2-0.2,0.4-0.4,0.7-0.4
				c0.3,0,0.6,0,0.8,0.2l3.2,2.6c0.4,0.4,0.5,1,0.1,1.5c-0.4,0.4-1,0.5-1.5,0.1l-2.4-1.9l-1.8,2.4
				C464.6,244.4,464.2,244.6,463.9,244.6z"/>
			<path class="st0" d="M602.7,352.5c-0.2,0-0.5-0.1-0.7-0.2l-6.7-5.4c-0.4-0.4-0.5-1-0.1-1.5c0.4-0.4,1-0.5,1.5-0.1l6.7,5.4
				c0.4,0.4,0.5,1,0.1,1.5C603.3,352.3,603,352.5,602.7,352.5z M589.4,341.6c-0.2,0-0.5-0.1-0.7-0.2l-6.7-5.4
				c-0.4-0.4-0.5-1-0.1-1.5c0.4-0.4,1-0.5,1.5-0.1l6.7,5.4c0.4,0.4,0.5,1,0.1,1.5C590,341.5,589.7,341.6,589.4,341.6z M576.1,330.7
				c-0.2,0-0.5-0.1-0.7-0.2l-6.7-5.4c-0.4-0.4-0.5-1-0.1-1.5c0.4-0.4,1-0.5,1.5-0.1l6.7,5.4c0.4,0.4,0.5,1,0.1,1.5
				C576.7,330.6,576.4,330.7,576.1,330.7z M562.8,319.9c-0.2,0-0.5-0.1-0.7-0.2l-6.7-5.4c-0.4-0.4-0.5-1-0.1-1.5
				c0.4-0.4,1-0.5,1.5-0.1l6.7,5.4c0.4,0.4,0.5,1,0.1,1.5C563.4,319.8,563.1,319.9,562.8,319.9z M549.5,309c-0.2,0-0.5-0.1-0.7-0.2
				l-6.7-5.4c-0.4-0.4-0.5-1-0.1-1.5c0.4-0.4,1-0.5,1.5-0.1l6.7,5.4c0.4,0.4,0.5,1,0.1,1.5C550.1,308.9,549.8,309,549.5,309z
				 M536.1,298.2c-0.2,0-0.5-0.1-0.7-0.2l-6.7-5.4c-0.4-0.4-0.5-1-0.1-1.5c0.4-0.4,1-0.5,1.5-0.1l6.7,5.4c0.4,0.4,0.5,1,0.1,1.5
				C536.7,298,536.4,298.2,536.1,298.2z M522.8,287.3c-0.2,0-0.5-0.1-0.7-0.2l-6.7-5.4c-0.4-0.4-0.5-1-0.1-1.5
				c0.4-0.4,1-0.5,1.5-0.1l6.7,5.4c0.4,0.4,0.5,1,0.1,1.5C523.4,287.2,523.1,287.3,522.8,287.3z M509.5,276.4
				c-0.2,0-0.5-0.1-0.7-0.2l-6.7-5.4c-0.4-0.4-0.5-1-0.1-1.5c0.4-0.4,1-0.5,1.5-0.1l6.7,5.4c0.4,0.4,0.5,1,0.1,1.5
				C510.1,276.3,509.8,276.4,509.5,276.4z M496.2,265.6c-0.2,0-0.5-0.1-0.7-0.2l-6.7-5.4c-0.4-0.4-0.5-1-0.1-1.5
				c0.4-0.4,1-0.5,1.5-0.1l6.7,5.4c0.4,0.4,0.5,1,0.1,1.5C496.8,265.4,496.5,265.6,496.2,265.6z M482.9,254.7
				c-0.2,0-0.5-0.1-0.7-0.2l-6.7-5.4c-0.4-0.4-0.5-1-0.1-1.5c0.4-0.4,1-0.5,1.5-0.1l6.7,5.4c0.4,0.4,0.5,1,0.1,1.5
				C483.5,254.6,483.2,254.7,482.9,254.7z"/>
			<path class="st0" d="M612.6,360.5c-0.2,0-0.5-0.1-0.7-0.2l-3.2-2.6c-0.4-0.4-0.5-1-0.1-1.5c0.4-0.4,1-0.5,1.5-0.1l2.3,1.9
				l1.7-2.5c0.3-0.5,1-0.6,1.4-0.3c0.5,0.3,0.6,1,0.3,1.4l-2.3,3.4c-0.2,0.2-0.4,0.4-0.7,0.4C612.7,360.5,612.6,360.5,612.6,360.5z"
				/>
			<path class="st0" d="M619.4,350.4c-0.2,0-0.4-0.1-0.6-0.2c-0.5-0.3-0.6-1-0.3-1.4l4.5-6.7c0.3-0.5,1-0.6,1.4-0.3
				c0.5,0.3,0.6,1,0.3,1.4l-4.5,6.7C620.1,350.2,619.7,350.4,619.4,350.4z M628.5,337c-0.2,0-0.4-0.1-0.6-0.2
				c-0.5-0.3-0.6-1-0.3-1.4l4.5-6.7c0.3-0.5,1-0.6,1.4-0.3c0.5,0.3,0.6,1,0.3,1.4l-4.5,6.7C629.1,336.9,628.8,337,628.5,337z
				 M637.5,323.7c-0.2,0-0.4-0.1-0.6-0.2c-0.5-0.3-0.6-1-0.3-1.4l4.5-6.7c0.3-0.5,1-0.6,1.4-0.3c0.5,0.3,0.6,1,0.3,1.4l-4.5,6.7
				C638.2,323.5,637.9,323.7,637.5,323.7z M646.6,310.3c-0.2,0-0.4-0.1-0.6-0.2c-0.5-0.3-0.6-1-0.3-1.4l4.5-6.7
				c0.3-0.5,1-0.6,1.4-0.3c0.5,0.3,0.6,1,0.3,1.4l-4.5,6.7C647.3,310.2,646.9,310.3,646.6,310.3z M655.7,297c-0.2,0-0.4-0.1-0.6-0.2
				c-0.5-0.3-0.6-1-0.3-1.4l4.5-6.7c0.3-0.5,1-0.6,1.4-0.3c0.5,0.3,0.6,1,0.3,1.4l-4.5,6.7C656.3,296.8,656,297,655.7,297z
				 M664.7,283.6c-0.2,0-0.4-0.1-0.6-0.2c-0.5-0.3-0.6-1-0.3-1.4l4.5-6.7c0.3-0.5,1-0.6,1.4-0.3c0.5,0.3,0.6,1,0.3,1.4l-4.5,6.7
				C665.4,283.4,665.1,283.6,664.7,283.6z M673.8,270.2c-0.2,0-0.4-0.1-0.6-0.2c-0.5-0.3-0.6-1-0.3-1.4l4.5-6.7
				c0.3-0.5,1-0.6,1.4-0.3c0.5,0.3,0.6,1,0.3,1.4l-4.5,6.7C674.4,270.1,674.1,270.2,673.8,270.2z M682.9,256.9
				c-0.2,0-0.4-0.1-0.6-0.2c-0.5-0.3-0.6-1-0.3-1.4l4.5-6.7c0.3-0.5,1-0.6,1.4-0.3c0.5,0.3,0.6,1,0.3,1.4l-4.5,6.7
				C683.5,256.7,683.2,256.9,682.9,256.9z"/>
			<path class="st0" d="M691.9,243.5c-0.2,0-0.4-0.1-0.6-0.2c-0.5-0.3-0.6-1-0.3-1.4l2.3-3.4c0.3-0.5,1-0.6,1.4-0.3
				c0.5,0.3,0.6,1,0.3,1.4l-2.3,3.4C692.6,243.4,692.2,243.5,691.9,243.5z"/>
		</g>
		<g>
			
				<ellipse transform="matrix(0.9871 -0.1602 0.1602 0.9871 -44.8173 13.2375)" class="st13" cx="59.7" cy="284.6" rx="12.4" ry="12.4"/>
			<path class="st78" d="M55.1,289.3c0-5.3,4.3-9.6,9.6-9.6c1.2,0,2.4,0.2,3.5,0.7c-1.4-3.6-4.9-6.2-9-6.2c-5.3,0-9.6,4.3-9.6,9.6
				c0,4.1,2.6,7.6,6.2,9C55.3,291.7,55.1,290.5,55.1,289.3z"/>
		</g>
		<g>
			<linearGradient id="SVGID_69_" gradientUnits="userSpaceOnUse" x1="187.0642" y1="358.4408" x2="86.1159" y2="537.3945">
				<stop  offset="0" style="stop-color:#FE7062"/>
				<stop  offset="1" style="stop-color:#FF928E"/>
			</linearGradient>
			<circle class="st79" cx="161.6" cy="403.6" r="16.1"/>
			<g class="st80">
				<path class="st16" d="M155.6,409.6c0-6.9,5.6-12.5,12.5-12.5c1.6,0,3.1,0.3,4.5,0.9c-1.8-4.7-6.3-8-11.7-8
					c-6.9,0-12.5,5.6-12.5,12.5c0,5.3,3.3,9.8,8,11.7C156,412.8,155.6,411.2,155.6,409.6z"/>
			</g>
		</g>
		<g>
			<path class="st78" d="M292.4,315.1c0,6.9-5.6,12.4-12.4,12.4c-6.9,0-12.4-5.6-12.4-12.4c0-6.9,5.6-12.4,12.4-12.4
				C286.9,302.7,292.4,308.2,292.4,315.1z"/>
			<g class="st80">
				<linearGradient id="SVGID_70_" gradientUnits="userSpaceOnUse" x1="269.9099" y1="313.9323" x2="288.5051" y2="313.9323">
					<stop  offset="0" style="stop-color:#9CFFFB"/>
					<stop  offset="1" style="stop-color:#9BFFFA"/>
				</linearGradient>
				<path class="st81" d="M275.4,319.8c0-5.3,4.3-9.6,9.6-9.6c1.2,0,2.4,0.2,3.5,0.7c-1.4-3.6-4.9-6.2-9-6.2c-5.3,0-9.6,4.3-9.6,9.6
					c0,4.1,2.6,7.6,6.2,9C275.6,322.2,275.4,321,275.4,319.8z"/>
			</g>
		</g>
		<g>
			<circle class="st78" cx="377" cy="359.5" r="12.4"/>
			<g class="st80">
				<linearGradient id="SVGID_71_" gradientUnits="userSpaceOnUse" x1="366.8738" y1="358.3252" x2="385.4691" y2="358.3252">
					<stop  offset="0" style="stop-color:#9CFFFB"/>
					<stop  offset="1" style="stop-color:#9BFFFA"/>
				</linearGradient>
				<path class="st82" d="M372.4,364.2c0-5.3,4.3-9.6,9.6-9.6c1.2,0,2.4,0.2,3.5,0.7c-1.4-3.6-4.9-6.2-9-6.2c-5.3,0-9.6,4.3-9.6,9.6
					c0,4.1,2.6,7.6,6.2,9C372.6,366.5,372.4,365.4,372.4,364.2z"/>
			</g>
		</g>
		<g>
			
				<ellipse transform="matrix(0.9239 -0.3827 0.3827 0.9239 -56.4272 196.7621)" class="st78" cx="466.4" cy="240.2" rx="12.4" ry="12.4"/>
			<g class="st80">
				<linearGradient id="SVGID_72_" gradientUnits="userSpaceOnUse" x1="456.2887" y1="239.0795" x2="474.8838" y2="239.0795">
					<stop  offset="0" style="stop-color:#9CFFFB"/>
					<stop  offset="1" style="stop-color:#9BFFFA"/>
				</linearGradient>
				<path class="st83" d="M461.8,244.9c0-5.3,4.3-9.6,9.6-9.6c1.2,0,2.4,0.2,3.5,0.7c-1.4-3.6-4.9-6.2-9-6.2c-5.3,0-9.6,4.3-9.6,9.6
					c0,4.1,2.6,7.6,6.2,9C462,247.3,461.8,246.1,461.8,244.9z"/>
			</g>
		</g>
		<g>
			<circle class="st13" cx="694.2" cy="239.1" r="12.4"/>
			<path class="st78" d="M689.6,243.8c0-5.3,4.3-9.6,9.6-9.6c1.2,0,2.4,0.2,3.5,0.7c-1.4-3.6-4.9-6.2-9-6.2c-5.3,0-9.6,4.3-9.6,9.6
				c0,4.1,2.6,7.6,6.2,9C689.9,246.2,689.6,245,689.6,243.8z"/>
		</g>
		<g>
			<circle class="st78" cx="612.6" cy="359.5" r="12.4"/>
			<path class="st0" d="M608,364.2c0-5.3,4.3-9.6,9.6-9.6c1.2,0,2.4,0.2,3.5,0.7c-1.4-3.6-4.9-6.2-9-6.2c-5.3,0-9.6,4.3-9.6,9.6
				c0,4.1,2.6,7.6,6.2,9C608.2,366.5,608,365.4,608,364.2z"/>
		</g>
	</g>
</g>
<g>
	<g>
		<g>
			<path class="st0" d="M417.1,42.9c0.2,0.6,0,1.2-0.5,1.6c-1.4,0.9-2.8,1.9-4.2,2.9c-0.6,0.4-1.4,0.3-1.8-0.3
				c-0.4-0.6-0.3-1.4,0.3-1.8c1.4-1.1,2.9-2.1,4.3-3c0.6-0.4,1.4-0.2,1.8,0.4C417.1,42.7,417.1,42.8,417.1,42.9z"/>
			<path class="st0" d="M518,68.9c0.2,0.6,0,1.3-0.6,1.6c-0.6,0.3-1.4,0.1-1.8-0.5c-1.7-3.2-3.7-6.3-5.9-9.2
				c-0.4-0.6-0.3-1.4,0.2-1.8c0.6-0.4,1.4-0.3,1.8,0.2c2.3,3,4.3,6.2,6.1,9.5C517.9,68.8,517.9,68.8,518,68.9z M524.4,85.7
				c0,0.1,0,0.1,0.1,0.2c0.9,3.7,1.5,7.4,1.8,11.2c0.1,0.7-0.5,1.3-1.2,1.4c-0.7,0.1-1.3-0.5-1.4-1.2c-0.3-3.6-0.9-7.2-1.8-10.8
				c-0.2-0.7,0.3-1.4,1-1.6C523.5,84.8,524.2,85.1,524.4,85.7z M499.3,46.7c0.2,0.4,0.1,0.9-0.2,1.3c-0.4,0.6-1.3,0.7-1.8,0.2
				c-2.9-2.2-5.9-4.3-9.1-6c-0.6-0.3-0.9-1.1-0.5-1.8c0.3-0.6,1.1-0.9,1.8-0.5c3.3,1.8,6.5,3.9,9.4,6.3
				C499,46.3,499.2,46.5,499.3,46.7z M473.2,33.9c0.1,0.2,0.1,0.5,0,0.8c-0.2,0.7-0.9,1.1-1.6,0.9c-3.5-0.9-7.1-1.6-10.8-1.9
				c-0.7-0.1-1.2-0.7-1.2-1.4c0.1-0.7,0.7-1.2,1.4-1.2c3.7,0.4,7.5,1,11.2,2C472.8,33.2,473.1,33.5,473.2,33.9z M444.3,32.5
				c0,0.1,0.1,0.2,0.1,0.3c0.1,0.7-0.4,1.4-1.1,1.5c-3,0.5-6,1.2-8.9,2c-0.6,0.2-1.2,0.4-1.7,0.5c-0.7,0.2-1.4-0.2-1.6-0.8
				c-0.2-0.7,0.1-1.4,0.8-1.6c0.6-0.2,1.2-0.4,1.8-0.6c3-0.9,6.1-1.6,9.2-2.1C443.5,31.6,444,31.9,444.3,32.5z"/>
			<path class="st0" d="M525.4,114.8c0.1,0.2,0.1,0.5,0.1,0.7c-0.3,1.7-0.7,3.5-1.1,5.2c-0.2,0.7-0.9,1.1-1.6,0.9
				c-0.7-0.2-1.1-0.9-0.9-1.6c0.4-1.6,0.8-3.3,1.1-5c0.1-0.7,0.8-1.2,1.5-1.1C524.8,114.1,525.2,114.4,525.4,114.8z"/>
		</g>
		<g>
			<path class="st0" d="M493.2,162.6c0.2,0.6,0,1.2-0.5,1.6c-1.5,0.9-3,1.8-4.6,2.6c-0.6,0.3-1.4,0.1-1.8-0.5
				c-0.3-0.7-0.1-1.4,0.5-1.8c1.5-0.8,3-1.6,4.4-2.5c0.6-0.4,1.4-0.2,1.8,0.4C493.1,162.5,493.2,162.6,493.2,162.6z"/>
			<path class="st0" d="M472.1,171.5c0,0.1,0,0.1,0.1,0.2c0.2,0.7-0.3,1.4-1,1.6c-3.6,0.9-7.3,1.5-11,1.8c-0.7,0.1-1.3-0.5-1.4-1.2
				c-0.1-0.7,0.5-1.3,1.2-1.4c3.6-0.3,7.1-0.9,10.6-1.7C471.2,170.5,471.8,170.9,472.1,171.5z M443.6,172.5c0.1,0.2,0.1,0.5,0.1,0.7
				c-0.1,0.7-0.8,1.2-1.5,1.1c-3.6-0.6-7.3-1.5-10.8-2.7c-0.7-0.2-1-1-0.8-1.6c0.2-0.7,1-1,1.6-0.8c3.4,1.1,6.9,2,10.4,2.6
				C443,171.7,443.4,172,443.6,172.5z M417,162.1c0.2,0.4,0.1,0.8-0.1,1.2c-0.4,0.6-1.2,0.8-1.8,0.4c-3.1-2-6.1-4.3-8.9-6.7
				c-0.5-0.5-0.6-1.3-0.1-1.8c0.5-0.5,1.3-0.6,1.8-0.1c2.7,2.4,5.5,4.6,8.5,6.5C416.7,161.6,416.9,161.8,417,162.1z M384.6,104.8
				c0.1,0.1,0.1,0.3,0.1,0.4c0.1,3.6,0.5,7.2,1.2,10.7c0.1,0.7-0.3,1.4-1,1.5c-0.7,0.1-1.4-0.3-1.5-1c-0.7-3.6-1.1-7.4-1.2-11.1
				c0-0.7,0.5-1.3,1.3-1.3C383.9,103.9,384.4,104.3,384.6,104.8z M396.6,142.1c0.2,0.6,0,1.2-0.5,1.6c-0.6,0.4-1.4,0.2-1.8-0.4
				c-2.1-3.1-3.9-6.3-5.5-9.7c-0.3-0.6,0-1.4,0.6-1.7c0.6-0.3,1.4,0,1.7,0.6c1.5,3.2,3.3,6.4,5.3,9.4
				C396.5,141.9,396.6,142,396.6,142.1z"/>
			<path class="st0" d="M387.6,82c0.1,0.3,0.1,0.6,0,0.9c-0.5,1.6-0.9,3.3-1.3,4.9c-0.2,0.7-0.9,1.1-1.6,1c-0.7-0.2-1.1-0.9-1-1.6
				c0.4-1.7,0.8-3.4,1.4-5.1c0.2-0.7,0.9-1.1,1.6-0.9C387.2,81.3,387.5,81.6,387.6,82z"/>
		</g>
		<g>
			<path class="st12" d="M404.6,80.8c-0.2,0.3-0.1,0.7,0.1,1l6.8,7.8c-1.4,4.6-2.1,9.5-2,14.5l-8.6,5.8c-0.3,0.2-0.4,0.6-0.3,0.9
				l3.2,12c0.1,0.4,0.4,0.6,0.8,0.6l10.3,0.8c2.3,4.4,5.3,8.3,8.9,11.6l-2,10.2c-0.1,0.4,0.1,0.7,0.4,0.9l10.7,6.3
				c0.3,0.2,0.7,0.1,1-0.1l7.8-6.8c4.6,1.4,9.5,2.1,14.5,2l5.8,8.6c0.2,0.3,0.6,0.4,0.9,0.3l12-3.2c0.4-0.1,0.6-0.4,0.6-0.8
				l0.8-10.3c4.4-2.3,8.3-5.3,11.6-8.9l10.2,2c0.4,0.1,0.7-0.1,0.9-0.4l6.3-10.7c0.2-0.3,0.1-0.7-0.1-1l-6.8-7.8
				c1.4-4.6,2.1-9.5,2-14.5l8.6-5.8c0.3-0.2,0.4-0.6,0.3-0.9l-3.2-12c-0.1-0.4-0.4-0.6-0.8-0.6l-10.3-0.8c-2.3-4.4-5.3-8.3-8.9-11.6
				l2-10.2c0.1-0.4-0.1-0.7-0.4-0.9l-10.7-6.2c-0.3-0.2-0.7-0.1-1,0.1l-7.8,6.8c-4.6-1.4-9.5-2.1-14.5-2l-5.8-8.6
				c-0.2-0.3-0.6-0.4-0.9-0.3l-12,3.2c-0.4,0.1-0.6,0.4-0.6,0.8l-0.8,10.3c-4.4,2.3-8.3,5.3-11.6,8.9l-10.2-2
				c-0.4-0.1-0.7,0.1-0.9,0.4L404.6,80.8z"/>
			<g>
				<path class="st1" d="M466.9,98.1c1.1,2.7,1.2,5.6,0.4,8.4c-1,3.3-3.2,6.1-6.2,7.8c-6.3,3.5-14.2,1.2-17.6-5.1l0,0
					c-3.5-6.3-1.2-14.2,5.1-17.6c6.3-3.5,14.2-1.2,17.6,5.1C466.5,97.1,466.7,97.6,466.9,98.1z M446.9,107.3
					c1.2,2.1,3.1,3.7,5.4,4.3c2.3,0.7,4.8,0.4,6.9-0.8c4.4-2.4,6-8,3.5-12.3c-2.4-4.4-8-6-12.3-3.5
					C446.1,97.3,444.5,102.9,446.9,107.3L446.9,107.3z"/>
			</g>
			<g>
				<path class="st1" d="M484.7,91.2c0.5,1.2,0.9,2.4,1.2,3.7c4.2,15.8-4.3,31.9-19.1,37.8c-1.2,0.5-2.4,0.9-3.7,1.2
					c-17,4.5-34.5-5.7-39-22.7l0,0c-0.5-2.1-0.9-4.2-1-6.3c0-0.1,0-0.3,0-0.4l3.9-0.2c0.1,2,0.4,4,0.9,5.9l0,0
					c2.6,9.8,10.2,17.1,19.3,19.8c4.6,1.3,9.5,1.5,14.5,0.3c0,0,0.1,0,0.1,0c0.1,0,0.3-0.1,0.4-0.1c1.1-0.3,2.2-0.6,3.2-1.1
					c13-5.2,20.4-19.4,16.7-33.2c-3.9-14.9-19.3-23.9-34.3-19.9c-1.1,0.3-2.2,0.6-3.2,1.1c-3.6,1.4-7,3.6-9.7,6.5l-2.8-2.7
					c3.1-3.2,6.9-5.7,11.1-7.4c1.2-0.5,2.4-0.9,3.6-1.2C462.7,67.9,478.9,76.4,484.7,91.2z"/>
			</g>
		</g>
	</g>
	<g>
		<path class="st12" d="M509.5,147.7l4.1,4.1c-0.6,2.6-0.8,5.4-0.5,8.2l-4.5,3.6c-0.2,0.1-0.2,0.3-0.2,0.5l2.3,6.6
			c0.1,0.2,0.2,0.3,0.5,0.3l5.8,0c1.5,2.4,3.4,4.4,5.5,6.1l-0.7,5.8c0,0.2,0.1,0.4,0.3,0.5l6.3,3c0.2,0.1,0.4,0.1,0.5-0.1l4.1-4.1
			c2.6,0.6,5.4,0.8,8.2,0.5l3.6,4.5c0.1,0.2,0.3,0.2,0.5,0.2l6.6-2.3c0.2-0.1,0.3-0.2,0.3-0.5l0-5.8c2.4-1.5,4.4-3.4,6.1-5.5
			l5.8,0.7c0.2,0,0.4-0.1,0.5-0.3l3-6.3c0.1-0.2,0.1-0.4-0.1-0.5l-4.1-4.1c0.6-2.6,0.8-5.4,0.5-8.2l4.5-3.6c0.2-0.1,0.2-0.3,0.2-0.5
			l-2.3-6.6c-0.1-0.2-0.2-0.3-0.5-0.3l-5.8,0c-1.5-2.4-3.4-4.4-5.5-6.1l0.7-5.8c0-0.2-0.1-0.4-0.3-0.5l-6.3-3
			c-0.2-0.1-0.4-0.1-0.5,0.1l-4.1,4.1c-2.6-0.6-5.4-0.8-8.2-0.5l-3.6-4.5c-0.1-0.2-0.3-0.2-0.5-0.2l-6.6,2.3
			c-0.2,0.1-0.3,0.2-0.3,0.5l0,5.8c-2.4,1.5-4.4,3.4-6.1,5.5l-5.8-0.7c-0.2,0-0.4,0.1-0.5,0.3l-3,6.3
			C509.4,147.3,509.4,147.5,509.5,147.7z"/>
		<g>
			<path class="st1" d="M546.1,154.2c1.4,3.5,0.2,7.6-3.1,9.8c-3.7,2.5-8.8,1.4-11.3-2.3c-2.5-3.7-1.4-8.8,2.3-11.3
				c3.7-2.5,8.8-1.4,11.3,2.3C545.6,153.2,545.9,153.7,546.1,154.2z M534.6,158.8c0.1,0.3,0.2,0.5,0.4,0.8c1.3,1.9,3.9,2.5,5.9,1.2
				c1.9-1.3,2.5-3.9,1.2-5.9c-1.3-1.9-3.9-2.5-5.9-1.2C534.5,154.8,533.9,157,534.6,158.8z"/>
		</g>
		<g>
			<path class="st0" d="M512.9,130.7c0.2,0.5,0.1,1-0.3,1.4c-1.2,1.2-2.2,2.5-3.2,3.8c-0.4,0.6-1.2,0.7-1.8,0.3
				c-0.6-0.4-0.7-1.2-0.3-1.8c1.1-1.4,2.2-2.8,3.5-4.1c0.5-0.5,1.3-0.5,1.8,0C512.8,130.4,512.9,130.6,512.9,130.7z"/>
			<path class="st0" d="M568.2,132.6c0.2,0.5,0.1,1.1-0.4,1.5c-0.5,0.5-1.4,0.4-1.8-0.2c-2.5-2.9-5.4-5.4-8.6-7.4
				c-0.6-0.4-0.8-1.2-0.4-1.8c0.4-0.6,1.2-0.8,1.8-0.4c3.5,2.1,6.6,4.8,9.3,8C568.1,132.4,568.1,132.5,568.2,132.6z M541,119.4
				c0.1,0.2,0.1,0.3,0.1,0.5c0,0.7-0.6,1.3-1.3,1.3c-3.8-0.1-7.6,0.3-11.3,1.4c-0.7,0.2-1.4-0.2-1.6-0.9c-0.2-0.7,0.2-1.4,0.9-1.6
				c3.9-1.1,8-1.7,12.1-1.5C540.4,118.6,540.8,119,541,119.4z"/>
			<path class="st0" d="M576.4,149.8c0,0.1,0.1,0.2,0.1,0.2c0.3,1.8,0.5,3.6,0.6,5.3c0,0.7-0.5,1.3-1.2,1.4c-0.7,0-1.3-0.5-1.4-1.2
				c-0.1-1.7-0.3-3.3-0.6-5c-0.1-0.7,0.3-1.4,1-1.5C575.6,148.9,576.2,149.3,576.4,149.8z"/>
		</g>
		<g>
			<path class="st0" d="M567.9,181.2c0.2,0.4,0.1,1-0.2,1.3c-1.2,1.3-2.5,2.6-3.8,3.8c-0.5,0.5-1.4,0.4-1.8-0.1
				c-0.5-0.5-0.4-1.4,0.1-1.8c1.3-1.1,2.5-2.3,3.6-3.5c0.5-0.5,1.3-0.6,1.8-0.1C567.7,180.9,567.8,181.1,567.9,181.2z"/>
			<path class="st0" d="M547.5,193.3c0,0.1,0,0.1,0.1,0.2c0.1,0.7-0.3,1.4-1,1.5c-3.9,0.8-8,1-12,0.6c-0.7-0.1-1.2-0.7-1.2-1.4
				c0.1-0.7,0.7-1.2,1.4-1.2c3.7,0.4,7.5,0.2,11.2-0.6C546.6,192.3,547.2,192.7,547.5,193.3z M518.3,187.3c0.2,0.4,0.1,0.9-0.1,1.2
				c-0.4,0.6-1.2,0.7-1.8,0.3c-3.3-2.3-6.2-5.1-8.6-8.3c-0.4-0.6-0.3-1.4,0.3-1.8c0.6-0.4,1.4-0.3,1.8,0.3c2.3,3,5,5.6,8.1,7.8
				C518.1,186.9,518.2,187.1,518.3,187.3z"/>
			<path class="st0" d="M502.4,156.8c0.1,0.1,0.1,0.3,0.1,0.5c0,1.7,0.1,3.3,0.3,5c0.1,0.7-0.4,1.4-1.1,1.5
				c-0.7,0.1-1.4-0.4-1.5-1.1c-0.2-1.8-0.4-3.6-0.4-5.4c0-0.7,0.6-1.3,1.3-1.3C501.7,156,502.2,156.3,502.4,156.8z"/>
		</g>
		<g>
			<path class="st1" d="M556.1,150.3c0.1,0.2,0.2,0.5,0.3,0.7c1.7,4.7,1.4,9.8-0.8,14.3c-2.1,4.3-5.6,7.6-10,9.3
				c-0.2,0.1-0.5,0.2-0.7,0.3c-4.7,1.7-9.8,1.4-14.3-0.8c-4.5-2.2-7.9-6-9.6-10.7l0,0c-0.1-0.3-0.2-0.6-0.3-0.9
				c-0.2-0.8-0.4-1.7-0.6-2.5c0,0,0,0,0,0c0-0.1,0-0.3-0.1-0.4l3.9-0.5c0.1,1,0.4,2.1,0.7,3.1l0,0c1.3,3.7,4,6.8,7.6,8.5
				c3.6,1.7,7.6,1.9,11.3,0.6c0.2-0.1,0.4-0.1,0.6-0.2c3.5-1.4,6.3-4,7.9-7.4c1.7-3.6,1.9-7.6,0.6-11.3c-1.3-3.7-4-6.7-7.6-8.5
				c-3.6-1.7-7.6-1.9-11.3-0.6c-0.2,0.1-0.4,0.1-0.6,0.2c-2.3,0.9-4.3,2.4-5.9,4.3l-3-2.5c2-2.4,4.6-4.3,7.5-5.4
				c0.2-0.1,0.5-0.2,0.7-0.3c4.7-1.7,9.8-1.4,14.3,0.8C551,142.4,554.3,145.9,556.1,150.3z"/>
		</g>
	</g>
</g>
<g>
	<path class="st1" d="M644.8,186.4c-1.1-0.1-1.3-1.6-0.2-1.9c6.1-1.9,16-6.3,20.7-15.2c1-2-0.1-4.4-2.2-4.9
		c-10.6-2.7-39.2-12.7-36.6-42.7c3.2-36.8,44.5-39.3,70.9-32c26.4,7.3,39.7,25.4,33.6,53.1C725.2,169,675.1,188.5,644.8,186.4z"/>
	<linearGradient id="SVGID_73_" gradientUnits="userSpaceOnUse" x1="677.9678" y1="164.7197" x2="687.1794" y2="164.7197">
		<stop  offset="0" style="stop-color:#DAE3FE"/>
		<stop  offset="1" style="stop-color:#E9EFFD"/>
	</linearGradient>
	<path class="st84" d="M680.9,166.2c-1,0-1.6,0-1.6,0c-0.8,0-1.4-0.7-1.3-1.5c0-0.8,0.7-1.3,1.5-1.3c0,0,2.5,0.1,6.2-0.2
		c0.8-0.1,1.4,0.5,1.5,1.3c0.1,0.8-0.5,1.4-1.3,1.5C683.8,166.2,682.1,166.2,680.9,166.2z"/>
	<linearGradient id="SVGID_74_" gradientUnits="userSpaceOnUse" x1="696.6191" y1="133.7688" x2="724.3849" y2="133.7688">
		<stop  offset="0" style="stop-color:#DAE3FE"/>
		<stop  offset="1" style="stop-color:#E9EFFD"/>
	</linearGradient>
	<path class="st85" d="M698,163.7c-0.6,0-1.1-0.4-1.3-1c-0.2-0.7,0.2-1.5,0.9-1.7c11.3-3.5,18.7-10.1,21.8-19.7
		c7.7-23.6-7-34.5-7.6-34.9c-0.6-0.4-0.8-1.3-0.3-1.9c0.4-0.6,1.3-0.8,1.9-0.3c0.2,0.1,17,12.4,8.6,38
		c-3.4,10.4-11.6,17.8-23.6,21.5C698.3,163.7,698.1,163.7,698,163.7z"/>
	<g class="st86">
		<linearGradient id="SVGID_75_" gradientUnits="userSpaceOnUse" x1="636.4693" y1="110.4306" x2="702.569" y2="110.4306">
			<stop  offset="0" style="stop-color:#DAE3FE"/>
			<stop  offset="1" style="stop-color:#E9EFFD"/>
		</linearGradient>
		<path class="st87" d="M700.2,112.8h-61.4c-1.3,0-2.4-1.1-2.4-2.4l0,0c0-1.3,1.1-2.4,2.4-2.4h61.4c1.3,0,2.4,1.1,2.4,2.4l0,0
			C702.6,111.7,701.5,112.8,700.2,112.8z"/>
		<linearGradient id="SVGID_76_" gradientUnits="userSpaceOnUse" x1="643.841" y1="119.73" x2="709.9408" y2="119.73">
			<stop  offset="0" style="stop-color:#DAE3FE"/>
			<stop  offset="1" style="stop-color:#E9EFFD"/>
		</linearGradient>
		<path class="st88" d="M707.6,122.1h-61.4c-1.3,0-2.4-1.1-2.4-2.4l0,0c0-1.3,1.1-2.4,2.4-2.4h61.4c1.3,0,2.4,1.1,2.4,2.4l0,0
			C709.9,121,708.9,122.1,707.6,122.1z"/>
		<linearGradient id="SVGID_77_" gradientUnits="userSpaceOnUse" x1="643.841" y1="138.3287" x2="692.4943" y2="138.3287">
			<stop  offset="0" style="stop-color:#DAE3FE"/>
			<stop  offset="1" style="stop-color:#E9EFFD"/>
		</linearGradient>
		<path class="st89" d="M690.1,140.7h-43.9c-1.3,0-2.4-1.1-2.4-2.4l0,0c0-1.3,1.1-2.4,2.4-2.4h43.9c1.3,0,2.4,1.1,2.4,2.4l0,0
			C692.5,139.6,691.4,140.7,690.1,140.7z"/>
		<linearGradient id="SVGID_78_" gradientUnits="userSpaceOnUse" x1="650.7213" y1="129.0293" x2="716.821" y2="129.0293">
			<stop  offset="0" style="stop-color:#DAE3FE"/>
			<stop  offset="1" style="stop-color:#E9EFFD"/>
		</linearGradient>
		<path class="st90" d="M714.4,131.4h-61.4c-1.3,0-2.4-1.1-2.4-2.4l0,0c0-1.3,1.1-2.4,2.4-2.4h61.4c1.3,0,2.4,1.1,2.4,2.4l0,0
			C716.8,130.3,715.8,131.4,714.4,131.4z"/>
	</g>
</g>
</svg>
