<?xml version="1.0" encoding="utf-8"?>
<!-- Generator: Adobe Illustrator 24.3.0, SVG Export Plug-In . SVG Version: 6.00 Build 0)  -->
<svg version="1.1" id="Layer_1" xmlns="http://www.w3.org/2000/svg" xmlns:xlink="http://www.w3.org/1999/xlink" x="0px" y="0px"
	 viewBox="0 0 750 500" style="enable-background:new 0 0 750 500;" xml:space="preserve">
<style type="text/css">
	.st0{fill:url(#SVGID_1_);}
	.st1{fill:url(#SVGID_2_);}
	.st2{opacity:0.5;fill:#FFFFFF;}
	.st3{fill:url(#SVGID_3_);}
	.st4{fill:url(#SVGID_4_);}
	.st5{fill:url(#SVGID_5_);}
	.st6{fill:#EDEDED;}
	.st7{fill:#17A3B6;}
	.st8{fill:#91B3FA;}
	.st9{fill:#102D5B;}
	.st10{opacity:0.89;}
	.st11{opacity:0.71;fill:#FFFFFF;}
	.st12{fill:#BDD0FB;}
	.st13{fill:#7D97F4;}
	.st14{opacity:0.9;fill:#BDD0FB;}
	.st15{fill:#0FE7F7;}
	.st16{fill:#FFFFFF;}
	.st17{opacity:0.9;fill:#7D97F4;}
	.st18{fill:url(#SVGID_6_);}
	.st19{fill:url(#SVGID_7_);}
	.st20{fill:url(#SVGID_8_);}
	.st21{fill:url(#SVGID_9_);}
	.st22{fill:url(#SVGID_10_);}
	.st23{fill:url(#SVGID_11_);}
	.st24{fill:url(#SVGID_12_);}
	.st25{fill:url(#SVGID_13_);}
	.st26{fill:url(#SVGID_14_);}
	.st27{fill:url(#SVGID_15_);}
	.st28{fill:url(#SVGID_16_);}
	.st29{fill:url(#SVGID_17_);}
	.st30{fill:url(#SVGID_18_);}
	.st31{fill:url(#SVGID_19_);}
	.st32{fill:url(#SVGID_20_);}
	.st33{fill:url(#SVGID_21_);}
	.st34{fill:url(#SVGID_22_);}
	.st35{fill:url(#SVGID_23_);}
	.st36{fill:url(#SVGID_24_);}
	.st37{fill:url(#SVGID_25_);}
	.st38{fill:url(#SVGID_26_);}
	.st39{fill:url(#SVGID_27_);}
	.st40{fill:url(#SVGID_28_);}
	.st41{fill:url(#SVGID_29_);}
	.st42{fill:url(#SVGID_30_);}
	.st43{fill:url(#SVGID_31_);}
	.st44{fill:url(#SVGID_32_);}
	.st45{fill:url(#SVGID_33_);}
	.st46{fill-rule:evenodd;clip-rule:evenodd;fill:url(#SVGID_34_);}
	.st47{fill-rule:evenodd;clip-rule:evenodd;fill:url(#SVGID_35_);}
	.st48{fill-rule:evenodd;clip-rule:evenodd;fill:url(#SVGID_36_);}
	.st49{fill-rule:evenodd;clip-rule:evenodd;fill:url(#SVGID_37_);}
	.st50{fill-rule:evenodd;clip-rule:evenodd;fill:url(#SVGID_38_);}
	.st51{fill-rule:evenodd;clip-rule:evenodd;fill:url(#SVGID_39_);}
	.st52{fill-rule:evenodd;clip-rule:evenodd;fill:url(#SVGID_40_);}
	.st53{fill-rule:evenodd;clip-rule:evenodd;fill:url(#SVGID_41_);}
	.st54{fill-rule:evenodd;clip-rule:evenodd;fill:url(#SVGID_42_);}
	.st55{fill-rule:evenodd;clip-rule:evenodd;fill:url(#SVGID_43_);}
	.st56{fill-rule:evenodd;clip-rule:evenodd;fill:url(#SVGID_44_);}
	.st57{fill-rule:evenodd;clip-rule:evenodd;fill:url(#SVGID_45_);}
	.st58{fill-rule:evenodd;clip-rule:evenodd;fill:url(#SVGID_46_);}
	.st59{fill-rule:evenodd;clip-rule:evenodd;fill:url(#SVGID_47_);}
	.st60{fill-rule:evenodd;clip-rule:evenodd;fill:url(#SVGID_48_);}
	.st61{fill-rule:evenodd;clip-rule:evenodd;fill:url(#SVGID_49_);}
	.st62{fill:url(#SVGID_50_);}
	.st63{fill:url(#SVGID_51_);}
	.st64{fill:url(#SVGID_52_);}
	.st65{fill-rule:evenodd;clip-rule:evenodd;fill:url(#SVGID_53_);}
	.st66{fill-rule:evenodd;clip-rule:evenodd;fill:url(#SVGID_54_);}
	.st67{fill-rule:evenodd;clip-rule:evenodd;fill:url(#SVGID_55_);}
	.st68{fill-rule:evenodd;clip-rule:evenodd;fill:url(#SVGID_56_);}
	.st69{fill-rule:evenodd;clip-rule:evenodd;fill:url(#SVGID_57_);}
	.st70{fill-rule:evenodd;clip-rule:evenodd;fill:url(#SVGID_58_);}
	.st71{fill-rule:evenodd;clip-rule:evenodd;fill:url(#SVGID_59_);}
	.st72{fill-rule:evenodd;clip-rule:evenodd;fill:url(#SVGID_60_);}
	.st73{fill-rule:evenodd;clip-rule:evenodd;fill:url(#SVGID_61_);}
	.st74{fill-rule:evenodd;clip-rule:evenodd;fill:url(#SVGID_62_);}
	.st75{fill-rule:evenodd;clip-rule:evenodd;fill:url(#SVGID_63_);}
	.st76{fill-rule:evenodd;clip-rule:evenodd;fill:url(#SVGID_64_);}
	.st77{fill-rule:evenodd;clip-rule:evenodd;fill:url(#SVGID_65_);}
	.st78{fill-rule:evenodd;clip-rule:evenodd;fill:url(#SVGID_66_);}
	.st79{fill-rule:evenodd;clip-rule:evenodd;fill:url(#SVGID_67_);}
</style>
<linearGradient id="SVGID_1_" gradientUnits="userSpaceOnUse" x1="642.6347" y1="527.3057" x2="278.6258" y2="134.4072" gradientTransform="matrix(0.7071 0.7071 -0.7071 0.7071 241.0239 -164.0634)">
	<stop  offset="0" style="stop-color:#DAE3FE"/>
	<stop  offset="1" style="stop-color:#E9EFFD"/>
</linearGradient>
<path class="st0" d="M445.6,469.3c-117.9,47-247-11.2-314.3-90.5c-18.4-21.7-55.3-65.3-57.2-126.3C70.5,135.1,198.7,25.6,326.5,13.5
	C343,11.9,454.9,3.1,534.4,84.2c58.2,59.4,66.4,133.8,67.3,142.9c1.1,11.5,2.8,37.9-4.3,70.1C581,372.9,519.3,439.9,445.6,469.3z"/>
<g>
	<g>
		<linearGradient id="SVGID_2_" gradientUnits="userSpaceOnUse" x1="148.6708" y1="149.8339" x2="284.761" y2="149.8339">
			<stop  offset="3.597120e-03" style="stop-color:#E38DDD"/>
			<stop  offset="1" style="stop-color:#9571F6"/>
		</linearGradient>
		<path class="st1" d="M148.7,271.8c0,0,36.3-38.2,27.8-65c-8.5-26.8-36.8-64.3,12.7-121.6c29-33.5,41.2-48.6,46.3-55.4
			c2-2.6,6-2.6,8,0c14.1,18.6,57.5,82,34.9,130.3C251.5,217.4,148.7,271.8,148.7,271.8z"/>
		<path class="st2" d="M242.2,57.4c1.6,18.9,0.7,37.9-1.5,56.8c-0.6,4.7-1.2,9.4-2.1,14.1l-0.6,3.5l-0.3,1.8l-0.3,1.7l-1.4,7
			l-0.4,1.7l-0.4,1.7l-0.8,3.5l-0.8,3.5l-0.4,1.7l-0.5,1.7c-1.3,4.6-2.4,9.2-4,13.7c-0.3,1.1-0.8,2.3-1.2,3.4
			c-0.4,1.1-0.8,2.3-1.2,3.4l-1.3,3.3l-0.7,1.7l-0.7,1.6l-1.4,3.3l-1.5,3.2c-0.5,1.1-1,2.2-1.6,3.2l-1.6,3.2
			c-4.5,8.4-9.5,16.5-15.1,24.2c-5.6,7.7-11.7,15-18.2,21.9c-3.3,3.4-6.6,6.8-10.1,10c-3.5,3.2-7,6.3-10.9,9.3
			c-0.6,0.4-1.4,0.3-1.8-0.2c-0.4-0.5-0.3-1.3,0.2-1.8l0,0c1.8-1.5,3.5-3,5.2-4.6c1.7-1.6,3.4-3.2,5.1-4.8c3.3-3.3,6.6-6.7,9.7-10.2
			c6.3-6.9,12.2-14.2,17.6-21.9c5.4-7.6,10.3-15.6,14.6-23.9c4.3-8.3,8.1-16.8,10.9-25.7c1.5-4.4,2.7-9,4-13.5l0.5-1.7l0.4-1.7
			l0.8-3.4l0.8-3.4l0.4-1.7l0.4-1.7c2.1-9.1,3.7-18.4,5.1-27.7c1.3-9.3,2.3-18.6,2.9-28c0.6-9.4,0.9-18.8,0.5-28.2l0,0
			c0-0.4,0.3-0.7,0.7-0.7C241.9,56.7,242.2,57,242.2,57.4z"/>
	</g>
	<g>
		<linearGradient id="SVGID_3_" gradientUnits="userSpaceOnUse" x1="40.5426" y1="202.9579" x2="201.7548" y2="202.9579">
			<stop  offset="0" style="stop-color:#FF9085"/>
			<stop  offset="1" style="stop-color:#FB6FBB"/>
		</linearGradient>
		<path class="st3" d="M201.3,401.8c4.7,4.2-32.5-83.3-19.3-200.8c6.2-55.4,24.5-121.9,1.3-155.9C164.1,16.8,74.7,6.6,45.3,4
			c-3.7-0.3-6.1,3.8-4,6.8c10.3,15,31.7,49.5,31.8,78.4c0.1,38.1,27.5,69.8,55.9,84.2c28.4,14.4,43.5,24.9,44.9,77.1
			C175.3,302.7,188,389.9,201.3,401.8z"/>
		<path class="st2" d="M80.5,30c17.8,5.9,34.3,15.3,48.5,27.7c7.1,6.2,13.5,13.2,18.8,21c5.3,7.8,9.6,16.4,12.4,25.5l1,3.4
			c0.3,1.1,0.6,2.3,0.8,3.5c0.3,1.2,0.6,2.3,0.8,3.5l0.7,3.4c0.9,4.6,1.8,9.1,2.6,13.7c1.7,9.2,3.2,18.3,4.6,27.6
			c2.8,18.4,5,36.9,6.1,55.5c0,0.4-0.3,0.8-0.7,0.8c-0.4,0-0.7-0.3-0.8-0.7l0,0c-1-9.2-2.2-18.4-3.6-27.6
			c-1.3-9.2-2.8-18.4-4.3-27.5l-2.4-13.7l-2.5-13.7c-0.8-4.6-1.7-9.1-2.6-13.7l-0.7-3.4c-0.2-1.1-0.5-2.2-0.8-3.3
			c-0.3-1.1-0.5-2.2-0.8-3.3l-1-3.3c-2.6-8.7-6.8-17-11.7-24.6c-2.6-3.8-5.3-7.5-8.3-10.9l-1.1-1.3l-1.2-1.3
			c-0.8-0.8-1.5-1.7-2.3-2.5c-1.6-1.6-3.2-3.3-5-4.8c-6.7-6.2-14.2-11.7-22.1-16.5c-7.9-4.8-16.2-9-24.8-12.3l0,0
			c-0.3-0.1-0.5-0.5-0.4-0.8C79.9,30.1,80.2,29.9,80.5,30z"/>
	</g>
	<g>
		<linearGradient id="SVGID_4_" gradientUnits="userSpaceOnUse" x1="7.8318" y1="270.4206" x2="167.3273" y2="270.4206">
			<stop  offset="0" style="stop-color:#FFC444"/>
			<stop  offset="0.9964" style="stop-color:#F36F56"/>
		</linearGradient>
		<path class="st4" d="M131.2,387.4c2,2.8-0.2-37.7,12.5-65.9c12.7-28.2,30.4-78.4,21-118.6c-9.4-40.2-34.1-56-79.9-47.2
			c-38.2,7.4-60.7,9.4-71.7,6.3c-2.7-0.8-5.4,1.4-5.3,4.2c0.4,15.1,4.7,51.4,36,65c40,17.4,99.9,16.1,103.5,44.5
			c3.6,28.3-4.3,39.2-8.9,49.4C133.8,335.2,118,368.6,131.2,387.4z"/>
		<path class="st2" d="M78.7,195.2c3.2-0.9,6.4-1.6,9.6-2.2c3.2-0.6,6.5-1,9.8-1.3c6.6-0.5,13.3-0.4,19.9,0.7
			c3.3,0.6,6.6,1.4,9.8,2.5c3.2,1.2,6.3,2.7,9.1,4.6c0.7,0.5,1.4,1,2.1,1.5c0.7,0.6,1.3,1.1,2,1.7l3.6,3.5l3.3,3.8l3.1,4
			c3.9,5.5,6.7,11.7,8.5,18.2c1.8,6.5,2.3,13.2,2.2,19.8l0,2.5c0,0.8-0.1,1.7-0.2,2.5c-0.1,1.6-0.2,3.3-0.4,4.9l-0.7,4.9
			c-0.2,1.6-0.6,3.2-0.9,4.9c-1.2,6.5-3,12.8-5,19c-0.1,0.3-0.4,0.5-0.8,0.4c-0.3-0.1-0.5-0.4-0.4-0.7l0,0c1.5-6.3,3.1-12.7,4-19.1
			c0.6-3.2,0.9-6.4,1.2-9.6c0.1-1.6,0.2-3.2,0.3-4.8c0-0.8,0.1-1.6,0.1-2.4l0-2.4c-0.1-6.4-0.8-12.8-2.5-19
			c-1.7-6.1-4.5-11.9-8.2-17.1l-2.9-3.8l-3.2-3.5l-3.4-3.3c-0.6-0.5-1.2-1-1.8-1.5c-0.6-0.5-1.2-0.9-1.9-1.4
			c-2.6-1.8-5.4-3.2-8.3-4.3c-2.9-1.1-6-1.9-9.1-2.5c-6.3-1.2-12.7-1.5-19.2-1.3c-6.4,0.2-12.9,0.9-19.3,2.1l0,0
			c-0.3,0.1-0.7-0.2-0.7-0.5C78.2,195.7,78.4,195.3,78.7,195.2z"/>
	</g>
</g>
<g>
	<linearGradient id="SVGID_5_" gradientUnits="userSpaceOnUse" x1="621.3787" y1="48.1823" x2="471.3073" y2="264.9518">
		<stop  offset="0" style="stop-color:#FF928E"/>
		<stop  offset="1" style="stop-color:#FE7062"/>
	</linearGradient>
	<circle class="st5" cx="604.4" cy="72.7" r="46.8"/>
	<g>
		<path class="st6" d="M603.6,131.8c-0.5,0-0.9,0-1.4,0c-0.3,0-0.5-0.3-0.5-0.5c0-0.3,0.2-0.5,0.5-0.5c0,0,0,0,0,0
			c0.9,0,1.9,0,2.8,0c0,0,0,0,0,0c0.3,0,0.5,0.2,0.5,0.5c0,0.3-0.2,0.5-0.5,0.5C604.5,131.8,604.1,131.8,603.6,131.8z"/>
		<path class="st6" d="M599.4,131.7C599.4,131.7,599.3,131.7,599.4,131.7c-1-0.1-1.9-0.2-2.9-0.3c-0.3,0-0.5-0.3-0.5-0.6
			c0-0.3,0.3-0.5,0.6-0.5c0.9,0.1,1.9,0.2,2.8,0.3c0.3,0,0.5,0.3,0.5,0.6C599.9,131.4,599.6,131.7,599.4,131.7z"/>
		<path class="st6" d="M607.8,131.7c-0.3,0-0.5-0.2-0.5-0.5c0-0.3,0.2-0.5,0.5-0.6c0.9-0.1,1.9-0.2,2.8-0.3c0.3,0,0.6,0.2,0.6,0.5
			c0,0.3-0.2,0.6-0.5,0.6C609.8,131.5,608.8,131.6,607.8,131.7C607.9,131.7,607.9,131.7,607.8,131.7z"/>
		<path class="st6" d="M593.7,131C593.7,131,593.7,131,593.7,131c-1-0.2-2-0.3-2.9-0.6c-0.3-0.1-0.5-0.3-0.4-0.6
			c0.1-0.3,0.3-0.5,0.6-0.4c0.9,0.2,1.8,0.4,2.8,0.5c0.3,0,0.5,0.3,0.4,0.6C594.2,130.8,594,131,593.7,131z"/>
		<path class="st6" d="M613.5,131c-0.3,0-0.5-0.2-0.5-0.4c0-0.3,0.1-0.6,0.4-0.6c0.9-0.2,1.8-0.3,2.8-0.5c0.3-0.1,0.6,0.1,0.6,0.4
			c0.1,0.3-0.1,0.6-0.4,0.6C615.4,130.6,614.5,130.8,613.5,131C613.5,131,613.5,131,613.5,131z"/>
		<path class="st6" d="M588.2,129.8c0,0-0.1,0-0.1,0c-0.9-0.2-1.8-0.5-2.7-0.8c-0.3-0.1-0.4-0.4-0.3-0.7c0.1-0.3,0.4-0.4,0.7-0.3
			c0.9,0.3,1.8,0.6,2.7,0.8c0.3,0.1,0.5,0.4,0.4,0.7C588.7,129.6,588.5,129.8,588.2,129.8z"/>
		<path class="st6" d="M619,129.8c-0.2,0-0.4-0.2-0.5-0.4c-0.1-0.3,0.1-0.6,0.4-0.7c0.9-0.2,1.8-0.5,2.7-0.8
			c0.3-0.1,0.6,0.1,0.7,0.3c0.1,0.3-0.1,0.6-0.3,0.7c-0.9,0.3-1.8,0.6-2.7,0.8C619.1,129.7,619,129.8,619,129.8z"/>
		<path class="st6" d="M582.8,128c-0.1,0-0.1,0-0.2,0c-0.9-0.3-1.8-0.7-2.7-1.1c-0.3-0.1-0.4-0.4-0.3-0.7c0.1-0.3,0.4-0.4,0.7-0.3
			c0.9,0.4,1.7,0.7,2.6,1.1c0.3,0.1,0.4,0.4,0.3,0.7C583.3,127.9,583,128,582.8,128z"/>
		<path class="st6" d="M624.4,128c-0.2,0-0.4-0.1-0.5-0.3c-0.1-0.3,0-0.6,0.3-0.7c0.9-0.3,1.7-0.7,2.6-1.1c0.3-0.1,0.6,0,0.7,0.3
			c0.1,0.3,0,0.6-0.3,0.7c-0.9,0.4-1.8,0.7-2.6,1.1C624.5,128,624.4,128,624.4,128z"/>
		<path class="st6" d="M577.6,125.8c-0.1,0-0.2,0-0.2-0.1c-0.9-0.4-1.7-0.9-2.5-1.3c-0.3-0.1-0.3-0.5-0.2-0.7
			c0.1-0.3,0.5-0.3,0.7-0.2c0.8,0.5,1.6,0.9,2.5,1.3c0.3,0.1,0.4,0.4,0.2,0.7C578,125.7,577.8,125.8,577.6,125.8z"/>
		<path class="st6" d="M629.5,125.7c-0.2,0-0.4-0.1-0.5-0.3c-0.1-0.3,0-0.6,0.2-0.7c0.8-0.4,1.7-0.9,2.5-1.3
			c0.3-0.1,0.6-0.1,0.7,0.2c0.1,0.3,0.1,0.6-0.2,0.7c-0.8,0.5-1.7,0.9-2.5,1.3C629.7,125.7,629.6,125.7,629.5,125.7z"/>
		<path class="st6" d="M572.7,123c-0.1,0-0.2,0-0.3-0.1c-0.8-0.5-1.6-1-2.4-1.6c-0.2-0.2-0.3-0.5-0.1-0.7c0.2-0.2,0.5-0.3,0.7-0.1
			c0.8,0.5,1.6,1,2.3,1.5c0.2,0.2,0.3,0.5,0.2,0.7C573,122.9,572.9,123,572.7,123z"/>
		<path class="st6" d="M634.5,123c-0.2,0-0.4-0.1-0.5-0.3c-0.2-0.2-0.1-0.6,0.2-0.7c0.8-0.5,1.6-1,2.3-1.5c0.2-0.2,0.6-0.1,0.7,0.1
			c0.2,0.2,0.1,0.6-0.1,0.7c-0.8,0.5-1.6,1.1-2.4,1.6C634.7,123,634.6,123,634.5,123z"/>
		<path class="st6" d="M568,119.8c-0.1,0-0.2,0-0.3-0.1c-0.8-0.6-1.5-1.2-2.2-1.8c-0.2-0.2-0.3-0.5-0.1-0.7c0.2-0.2,0.5-0.3,0.7-0.1
			c0.7,0.6,1.4,1.2,2.2,1.8c0.2,0.2,0.3,0.5,0.1,0.7C568.3,119.7,568.2,119.8,568,119.8z"/>
		<path class="st6" d="M639.1,119.8c-0.2,0-0.3-0.1-0.4-0.2c-0.2-0.2-0.1-0.6,0.1-0.7c0.7-0.6,1.5-1.2,2.2-1.8
			c0.2-0.2,0.6-0.2,0.7,0.1c0.2,0.2,0.2,0.6-0.1,0.7c-0.7,0.6-1.5,1.2-2.2,1.8C639.4,119.7,639.2,119.8,639.1,119.8z"/>
		<path class="st6" d="M563.7,116.1c-0.1,0-0.3,0-0.4-0.1c-0.7-0.6-1.4-1.3-2-2c-0.2-0.2-0.2-0.5,0-0.8c0.2-0.2,0.5-0.2,0.8,0
			c0.7,0.7,1.3,1.3,2,2c0.2,0.2,0.2,0.5,0,0.8C564,116.1,563.8,116.1,563.7,116.1z"/>
		<path class="st6" d="M643.4,116.1c-0.1,0-0.3-0.1-0.4-0.2c-0.2-0.2-0.2-0.6,0-0.8c0.7-0.6,1.4-1.3,2-2c0.2-0.2,0.5-0.2,0.8,0
			c0.2,0.2,0.2,0.5,0,0.8c-0.7,0.7-1.3,1.3-2,2C643.7,116.1,643.6,116.1,643.4,116.1z"/>
		<path class="st6" d="M559.8,112.1c-0.1,0-0.3-0.1-0.4-0.2c-0.6-0.7-1.2-1.4-1.8-2.2c-0.2-0.2-0.1-0.6,0.1-0.7
			c0.2-0.2,0.6-0.1,0.7,0.1c0.6,0.7,1.2,1.4,1.8,2.1c0.2,0.2,0.2,0.6,0,0.7C560,112,559.9,112.1,559.8,112.1z"/>
		<path class="st6" d="M647.4,112.1c-0.1,0-0.3,0-0.4-0.1c-0.2-0.2-0.2-0.5,0-0.7c0.6-0.7,1.2-1.4,1.8-2.1c0.2-0.2,0.5-0.3,0.7-0.1
			c0.2,0.2,0.3,0.5,0.1,0.7c-0.6,0.7-1.2,1.5-1.8,2.2C647.7,112,647.5,112.1,647.4,112.1z"/>
		<path class="st6" d="M556.2,107.7c-0.2,0-0.3-0.1-0.4-0.2c-0.6-0.8-1.1-1.6-1.6-2.3c-0.2-0.2-0.1-0.6,0.2-0.7
			c0.2-0.2,0.6-0.1,0.7,0.2c0.5,0.8,1,1.5,1.6,2.3c0.2,0.2,0.1,0.6-0.1,0.7C556.4,107.7,556.3,107.7,556.2,107.7z"/>
		<path class="st6" d="M650.9,107.7c-0.1,0-0.2,0-0.3-0.1c-0.2-0.2-0.3-0.5-0.1-0.7c0.6-0.8,1.1-1.5,1.6-2.3
			c0.2-0.2,0.5-0.3,0.7-0.2c0.2,0.2,0.3,0.5,0.2,0.7c-0.5,0.8-1.1,1.6-1.6,2.3C651.3,107.6,651.1,107.7,650.9,107.7z"/>
		<path class="st6" d="M553.1,103c-0.2,0-0.4-0.1-0.5-0.3c-0.5-0.8-0.9-1.7-1.4-2.5c-0.1-0.3,0-0.6,0.2-0.7c0.3-0.1,0.6,0,0.7,0.2
			c0.4,0.8,0.9,1.6,1.4,2.4c0.1,0.3,0.1,0.6-0.2,0.7C553.3,102.9,553.2,103,553.1,103z"/>
		<path class="st6" d="M654.1,102.9c-0.1,0-0.2,0-0.3-0.1c-0.3-0.1-0.3-0.5-0.2-0.7c0.5-0.8,0.9-1.6,1.4-2.5
			c0.1-0.3,0.5-0.4,0.7-0.2c0.3,0.1,0.4,0.5,0.2,0.7c-0.4,0.8-0.9,1.7-1.4,2.5C654.4,102.8,654.2,102.9,654.1,102.9z"/>
		<path class="st6" d="M550.5,98c-0.2,0-0.4-0.1-0.5-0.3c-0.4-0.9-0.8-1.7-1.1-2.6c-0.1-0.3,0-0.6,0.3-0.7c0.3-0.1,0.6,0,0.7,0.3
			c0.3,0.9,0.7,1.7,1.1,2.6c0.1,0.3,0,0.6-0.3,0.7C550.6,98,550.5,98,550.5,98z"/>
		<path class="st6" d="M656.7,97.9c-0.1,0-0.2,0-0.2,0c-0.3-0.1-0.4-0.4-0.3-0.7c0.4-0.8,0.8-1.7,1.1-2.6c0.1-0.3,0.4-0.4,0.7-0.3
			c0.3,0.1,0.4,0.4,0.3,0.7c-0.4,0.9-0.7,1.8-1.1,2.6C657.1,97.8,656.9,97.9,656.7,97.9z"/>
		<path class="st6" d="M548.3,92.7c-0.2,0-0.4-0.1-0.5-0.4c-0.3-0.9-0.6-1.8-0.9-2.7c-0.1-0.3,0.1-0.6,0.4-0.7
			c0.3-0.1,0.6,0.1,0.7,0.4c0.3,0.9,0.6,1.8,0.9,2.7c0.1,0.3,0,0.6-0.3,0.7C548.4,92.7,548.4,92.7,548.3,92.7z"/>
		<path class="st6" d="M658.8,92.7c-0.1,0-0.1,0-0.2,0c-0.3-0.1-0.4-0.4-0.3-0.7c0.3-0.9,0.6-1.8,0.9-2.7c0.1-0.3,0.4-0.4,0.7-0.4
			c0.3,0.1,0.4,0.4,0.4,0.7c-0.3,0.9-0.6,1.8-0.9,2.7C659.3,92.5,659.1,92.7,658.8,92.7z"/>
		<path class="st6" d="M546.7,87.3c-0.2,0-0.5-0.2-0.5-0.4c-0.2-0.9-0.4-1.9-0.6-2.8c-0.1-0.3,0.1-0.6,0.4-0.6
			c0.3-0.1,0.6,0.1,0.6,0.4c0.2,0.9,0.4,1.8,0.6,2.7c0.1,0.3-0.1,0.6-0.4,0.6C546.8,87.3,546.8,87.3,546.7,87.3z"/>
		<path class="st6" d="M660.5,87.3c0,0-0.1,0-0.1,0c-0.3-0.1-0.5-0.4-0.4-0.6c0.2-0.9,0.4-1.8,0.6-2.7c0.1-0.3,0.3-0.5,0.6-0.4
			c0.3,0.1,0.5,0.3,0.4,0.6c-0.2,0.9-0.4,1.9-0.6,2.8C660.9,87.1,660.7,87.3,660.5,87.3z"/>
		<path class="st6" d="M545.6,81.8c-0.3,0-0.5-0.2-0.5-0.5c-0.1-0.9-0.3-1.9-0.3-2.8c0-0.3,0.2-0.6,0.5-0.6c0.3,0,0.6,0.2,0.6,0.5
			c0.1,0.9,0.2,1.9,0.3,2.8C546.2,81.4,546,81.7,545.6,81.8C545.7,81.8,545.6,81.8,545.6,81.8z"/>
		<path class="st6" d="M661.5,81.7C661.5,81.7,661.5,81.7,661.5,81.7c-0.4,0-0.6-0.3-0.5-0.6c0.1-0.9,0.2-1.9,0.3-2.8
			c0-0.3,0.3-0.5,0.6-0.5c0.3,0,0.5,0.3,0.5,0.6c-0.1,0.9-0.2,1.9-0.3,2.8C662,81.5,661.8,81.7,661.5,81.7z"/>
		<path class="st6" d="M545.1,76.1c-0.3,0-0.5-0.2-0.5-0.5c0-0.9-0.1-1.9-0.1-2.9c0-0.3,0.2-0.5,0.5-0.5c0,0,0,0,0,0
			c0.3,0,0.5,0.2,0.5,0.5c0,0.9,0,1.9,0.1,2.8C545.6,75.9,545.4,76.1,545.1,76.1C545.1,76.1,545.1,76.1,545.1,76.1z"/>
		<path class="st6" d="M662.1,76.1C662.1,76.1,662.1,76.1,662.1,76.1c-0.3,0-0.5-0.3-0.5-0.6c0-0.9,0.1-1.9,0.1-2.8v-0.1
			c0-0.3,0.2-0.5,0.5-0.5c0.3,0,0.5,0.2,0.5,0.5v0.1c0,1,0,1.9-0.1,2.9C662.6,75.8,662.4,76.1,662.1,76.1z"/>
		<path class="st6" d="M545.1,70.5C545.1,70.5,545.1,70.5,545.1,70.5c-0.3,0-0.5-0.3-0.5-0.6c0-0.9,0.1-1.9,0.2-2.8
			c0-0.3,0.3-0.5,0.6-0.5c0.3,0,0.5,0.3,0.5,0.6c-0.1,0.9-0.2,1.9-0.2,2.8C545.6,70.3,545.4,70.5,545.1,70.5z"/>
		<path class="st6" d="M662.1,70.3c-0.3,0-0.5-0.2-0.5-0.5c0-0.9-0.1-1.9-0.2-2.8c0-0.3,0.2-0.6,0.5-0.6c0.3,0,0.6,0.2,0.6,0.5
			c0.1,0.9,0.2,1.9,0.2,2.8C662.6,70,662.4,70.3,662.1,70.3C662.1,70.3,662.1,70.3,662.1,70.3z"/>
		<path class="st6" d="M545.6,64.8C545.6,64.8,545.6,64.8,545.6,64.8c-0.4,0-0.6-0.3-0.5-0.6c0.1-0.9,0.3-1.9,0.5-2.8
			c0.1-0.3,0.3-0.5,0.6-0.4c0.3,0.1,0.5,0.3,0.4,0.6c-0.2,0.9-0.3,1.8-0.5,2.8C546.1,64.7,545.9,64.8,545.6,64.8z"/>
		<path class="st6" d="M661.5,64.7c-0.3,0-0.5-0.2-0.5-0.5c-0.1-0.9-0.3-1.9-0.5-2.8c-0.1-0.3,0.1-0.6,0.4-0.6
			c0.3-0.1,0.6,0.1,0.6,0.4c0.2,0.9,0.3,1.9,0.5,2.8C662.1,64.3,661.9,64.6,661.5,64.7C661.6,64.7,661.5,64.7,661.5,64.7z"/>
		<path class="st6" d="M546.7,59.3c0,0-0.1,0-0.1,0c-0.3-0.1-0.5-0.4-0.4-0.6c0.2-0.9,0.5-1.8,0.7-2.8c0.1-0.3,0.4-0.4,0.7-0.4
			c0.3,0.1,0.4,0.4,0.4,0.7c-0.3,0.9-0.5,1.8-0.7,2.7C547.1,59.1,546.9,59.3,546.7,59.3z"/>
		<path class="st6" d="M660.4,59.1c-0.2,0-0.5-0.2-0.5-0.4c-0.2-0.9-0.5-1.8-0.7-2.7c-0.1-0.3,0.1-0.6,0.4-0.7
			c0.3-0.1,0.6,0.1,0.7,0.4c0.3,0.9,0.5,1.8,0.8,2.8c0.1,0.3-0.1,0.6-0.4,0.6C660.5,59.1,660.5,59.1,660.4,59.1z"/>
		<path class="st6" d="M548.3,53.9c-0.1,0-0.1,0-0.2,0c-0.3-0.1-0.4-0.4-0.3-0.7c0.3-0.9,0.7-1.8,1-2.7c0.1-0.3,0.4-0.4,0.7-0.3
			c0.3,0.1,0.4,0.4,0.3,0.7c-0.4,0.9-0.7,1.7-1,2.6C548.7,53.7,548.5,53.9,548.3,53.9z"/>
		<path class="st7" d="M658.8,53.7c-0.2,0-0.4-0.1-0.5-0.4c-0.3-0.9-0.6-1.8-1-2.6c-0.1-0.3,0-0.6,0.3-0.7c0.3-0.1,0.6,0,0.7,0.3
			c0.4,0.9,0.7,1.8,1,2.7c0.1,0.3,0,0.6-0.3,0.7C658.9,53.7,658.9,53.7,658.8,53.7z"/>
		<path class="st7" d="M550.4,48.6c-0.1,0-0.2,0-0.2,0c-0.3-0.1-0.4-0.4-0.3-0.7c0.4-0.9,0.8-1.7,1.3-2.6c0.1-0.3,0.5-0.4,0.7-0.2
			c0.3,0.1,0.4,0.5,0.2,0.7c-0.4,0.8-0.9,1.7-1.2,2.5C550.8,48.5,550.6,48.6,550.4,48.6z"/>
		<path class="st7" d="M656.6,48.5c-0.2,0-0.4-0.1-0.5-0.3c-0.4-0.8-0.8-1.7-1.2-2.5c-0.1-0.3,0-0.6,0.2-0.7c0.3-0.1,0.6,0,0.7,0.2
			c0.4,0.8,0.9,1.7,1.3,2.6c0.1,0.3,0,0.6-0.3,0.7C656.8,48.4,656.7,48.5,656.6,48.5z"/>
		<path class="st7" d="M553.1,43.6c-0.1,0-0.2,0-0.3-0.1c-0.3-0.1-0.3-0.5-0.2-0.7c0.5-0.8,1-1.6,1.5-2.4c0.2-0.2,0.5-0.3,0.7-0.2
			c0.2,0.2,0.3,0.5,0.2,0.7c-0.5,0.8-1,1.6-1.5,2.4C553.4,43.5,553.2,43.6,553.1,43.6z"/>
		<path class="st7" d="M654,43.5c-0.2,0-0.4-0.1-0.5-0.3c-0.5-0.8-1-1.6-1.5-2.4c-0.2-0.2-0.1-0.6,0.2-0.7c0.2-0.2,0.6-0.1,0.7,0.2
			c0.5,0.8,1,1.6,1.5,2.4c0.1,0.3,0.1,0.6-0.2,0.7C654.2,43.4,654.1,43.5,654,43.5z"/>
		<path class="st7" d="M556.2,38.9c-0.1,0-0.2,0-0.3-0.1c-0.2-0.2-0.3-0.5-0.1-0.7c0.6-0.8,1.1-1.5,1.7-2.3c0.2-0.2,0.5-0.3,0.7-0.1
			c0.2,0.2,0.3,0.5,0.1,0.7c-0.6,0.7-1.2,1.5-1.7,2.2C556.5,38.8,556.3,38.9,556.2,38.9z"/>
		<path class="st7" d="M650.9,38.7c-0.2,0-0.3-0.1-0.4-0.2c-0.5-0.7-1.1-1.5-1.7-2.2c-0.2-0.2-0.1-0.6,0.1-0.7
			c0.2-0.2,0.6-0.1,0.7,0.1c0.6,0.7,1.2,1.5,1.7,2.3c0.2,0.2,0.1,0.6-0.1,0.7C651.1,38.7,651,38.7,650.9,38.7z"/>
		<path class="st7" d="M559.7,34.4c-0.1,0-0.3,0-0.4-0.1c-0.2-0.2-0.2-0.5,0-0.7c0.6-0.7,1.3-1.4,1.9-2.1c0.2-0.2,0.5-0.2,0.8,0
			c0.2,0.2,0.2,0.5,0,0.8c-0.6,0.7-1.3,1.4-1.9,2.1C560,34.4,559.8,34.4,559.7,34.4z"/>
		<path class="st7" d="M647.4,34.3c-0.1,0-0.3-0.1-0.4-0.2c-0.6-0.7-1.3-1.4-1.9-2c-0.2-0.2-0.2-0.5,0-0.8c0.2-0.2,0.5-0.2,0.8,0
			c0.7,0.7,1.3,1.4,1.9,2.1c0.2,0.2,0.2,0.6,0,0.7C647.6,34.3,647.5,34.3,647.4,34.3z"/>
		<path class="st7" d="M563.6,30.4c-0.1,0-0.3-0.1-0.4-0.2c-0.2-0.2-0.2-0.6,0-0.8c0.7-0.6,1.4-1.3,2.1-1.9c0.2-0.2,0.6-0.2,0.7,0.1
			c0.2,0.2,0.2,0.6-0.1,0.7c-0.7,0.6-1.4,1.2-2.1,1.9C563.9,30.3,563.8,30.4,563.6,30.4z"/>
		<path class="st7" d="M643.4,30.3c-0.1,0-0.3,0-0.4-0.1c-0.7-0.6-1.4-1.3-2.1-1.9c-0.2-0.2-0.3-0.5-0.1-0.7
			c0.2-0.2,0.5-0.3,0.7-0.1c0.7,0.6,1.4,1.2,2.1,1.9c0.2,0.2,0.2,0.5,0,0.8C643.7,30.2,643.5,30.3,643.4,30.3z"/>
		<path class="st7" d="M568,26.7c-0.2,0-0.3-0.1-0.4-0.2c-0.2-0.2-0.1-0.6,0.1-0.7c0.8-0.6,1.5-1.1,2.3-1.7c0.2-0.2,0.6-0.1,0.7,0.1
			c0.2,0.2,0.1,0.6-0.1,0.7c-0.8,0.5-1.5,1.1-2.3,1.7C568.2,26.7,568.1,26.7,568,26.7z"/>
		<path class="st7" d="M639.1,26.7c-0.1,0-0.2,0-0.3-0.1c-0.7-0.6-1.5-1.1-2.3-1.6c-0.2-0.2-0.3-0.5-0.1-0.7
			c0.2-0.2,0.5-0.3,0.7-0.1c0.8,0.5,1.6,1.1,2.3,1.7c0.2,0.2,0.3,0.5,0.1,0.7C639.4,26.6,639.2,26.7,639.1,26.7z"/>
		<path class="st7" d="M572.6,23.5c-0.2,0-0.4-0.1-0.5-0.2c-0.2-0.2-0.1-0.6,0.2-0.7c0.8-0.5,1.6-1,2.5-1.5c0.3-0.1,0.6-0.1,0.7,0.2
			c0.1,0.3,0.1,0.6-0.2,0.7c-0.8,0.5-1.6,0.9-2.4,1.4C572.8,23.5,572.7,23.5,572.6,23.5z"/>
		<path class="st7" d="M634.4,23.4c-0.1,0-0.2,0-0.3-0.1c-0.8-0.5-1.6-1-2.4-1.4c-0.3-0.1-0.3-0.5-0.2-0.7c0.1-0.3,0.5-0.3,0.7-0.2
			c0.8,0.5,1.7,0.9,2.5,1.4c0.2,0.2,0.3,0.5,0.2,0.7C634.8,23.3,634.6,23.4,634.4,23.4z"/>
		<path class="st7" d="M577.5,20.8c-0.2,0-0.4-0.1-0.5-0.3c-0.1-0.3,0-0.6,0.2-0.7c0.8-0.4,1.7-0.8,2.6-1.2c0.3-0.1,0.6,0,0.7,0.3
			c0.1,0.3,0,0.6-0.3,0.7c-0.8,0.4-1.7,0.8-2.5,1.2C577.7,20.7,577.6,20.8,577.5,20.8z"/>
		<path class="st7" d="M629.4,20.7c-0.1,0-0.2,0-0.2-0.1c-0.8-0.4-1.7-0.8-2.5-1.2c-0.3-0.1-0.4-0.4-0.3-0.7
			c0.1-0.3,0.4-0.4,0.7-0.3c0.9,0.4,1.7,0.8,2.6,1.2c0.3,0.1,0.4,0.4,0.2,0.7C629.8,20.6,629.6,20.7,629.4,20.7z"/>
		<path class="st7" d="M582.7,18.5c-0.2,0-0.4-0.1-0.5-0.3c-0.1-0.3,0-0.6,0.3-0.7c0.9-0.3,1.8-0.7,2.7-1c0.3-0.1,0.6,0.1,0.7,0.3
			c0.1,0.3-0.1,0.6-0.3,0.7c-0.9,0.3-1.8,0.6-2.6,0.9C582.8,18.5,582.8,18.5,582.7,18.5z"/>
		<path class="st7" d="M624.3,18.4c-0.1,0-0.1,0-0.2,0c-0.9-0.3-1.8-0.6-2.7-0.9c-0.3-0.1-0.4-0.4-0.3-0.7c0.1-0.3,0.4-0.4,0.7-0.3
			c0.9,0.3,1.8,0.6,2.7,0.9c0.3,0.1,0.4,0.4,0.3,0.7C624.7,18.3,624.5,18.4,624.3,18.4z"/>
		<path class="st7" d="M588.1,16.7c-0.2,0-0.4-0.2-0.5-0.4c-0.1-0.3,0.1-0.6,0.4-0.7c0.9-0.2,1.8-0.5,2.8-0.7
			c0.3-0.1,0.6,0.1,0.6,0.4c0.1,0.3-0.1,0.6-0.4,0.6c-0.9,0.2-1.8,0.4-2.7,0.7C588.2,16.7,588.1,16.7,588.1,16.7z"/>
		<path class="st7" d="M618.9,16.7c0,0-0.1,0-0.1,0c-0.9-0.2-1.8-0.5-2.7-0.7c-0.3-0.1-0.5-0.3-0.4-0.6c0.1-0.3,0.3-0.5,0.6-0.4
			c0.9,0.2,1.9,0.4,2.8,0.7c0.3,0.1,0.5,0.4,0.4,0.7C619.3,16.5,619.1,16.7,618.9,16.7z"/>
		<path class="st7" d="M593.6,15.5c-0.3,0-0.5-0.2-0.5-0.4c0-0.3,0.1-0.6,0.4-0.6c0.9-0.2,1.9-0.3,2.8-0.4c0.3,0,0.6,0.2,0.6,0.5
			c0,0.3-0.2,0.6-0.5,0.6C595.6,15.2,594.6,15.4,593.6,15.5C593.7,15.5,593.6,15.5,593.6,15.5z"/>
		<path class="st7" d="M613.3,15.5C613.3,15.5,613.3,15.5,613.3,15.5c-1-0.2-1.9-0.3-2.9-0.4c-0.3,0-0.5-0.3-0.5-0.6
			c0-0.3,0.3-0.5,0.6-0.5c0.9,0.1,1.9,0.2,2.8,0.4c0.3,0,0.5,0.3,0.4,0.6C613.8,15.3,613.6,15.5,613.3,15.5z"/>
		<path class="st7" d="M599.2,14.8c-0.3,0-0.5-0.2-0.5-0.5c0-0.3,0.2-0.5,0.5-0.6c0.9-0.1,1.9-0.1,2.9-0.1c0.3,0,0.5,0.2,0.5,0.5
			c0,0.3-0.2,0.5-0.5,0.5C601.1,14.7,600.2,14.8,599.2,14.8C599.3,14.8,599.2,14.8,599.2,14.8z"/>
		<path class="st7" d="M607.7,14.8C607.7,14.8,607.7,14.8,607.7,14.8c-1-0.1-1.9-0.1-2.8-0.1c-0.3,0-0.5-0.2-0.5-0.5
			c0-0.3,0.2-0.5,0.5-0.5c0.9,0,1.9,0.1,2.9,0.1c0.3,0,0.5,0.3,0.5,0.6C608.2,14.6,608,14.8,607.7,14.8z"/>
	</g>
</g>
<g>
	<g>
		<rect x="471" y="227.4" class="st8" width="111" height="214"/>
		<path class="st7" d="M589.3,245.9H463.8l-23-96.4h121.5l31.8,88.3C595.9,241.6,593.2,245.9,589.3,245.9z"/>
		<path class="st9" d="M562.4,150.8l-136.9,0.6l-3.8-11.9l132.2,0.7c4.6,0,8.4,2.9,8.4,6.4V150.8z"/>
		<g class="st10">
			<path class="st11" d="M557.4,383.3h-61.2c-0.6,0-1.1-0.5-1.1-1.1v-95.5c0-0.6,0.5-1.1,1.1-1.1h61.2c0.6,0,1.1,0.5,1.1,1.1v95.5
				C558.5,382.8,558,383.3,557.4,383.3z"/>
			<g>
				<path class="st9" d="M523.7,378h-23.4c-0.3,0-0.6-0.3-0.6-0.6v-85.9c0-0.3,0.3-0.6,0.6-0.6h23.4c0.3,0,0.6,0.3,0.6,0.6v85.9
					C524.4,377.8,524.1,378,523.7,378z"/>
				<path class="st9" d="M553.3,378h-23.4c-0.3,0-0.6-0.3-0.6-0.6v-85.9c0-0.3,0.3-0.6,0.6-0.6h23.4c0.3,0,0.6,0.3,0.6,0.6v85.9
					C553.9,377.8,553.6,378,553.3,378z"/>
			</g>
		</g>
		<path class="st8" d="M92.6,441.4h100.8v-214h-111v203.8C82.4,436.9,87,441.4,92.6,441.4z"/>
		<path class="st7" d="M75.8,245.9h125.5l44.8-102.5l-143.4,6l-31.8,88.3C69.2,241.6,71.8,245.9,75.8,245.9z"/>
		<path class="st9" d="M102.7,150.8l145.3-2.4l11.4-9.9l-147.6,1.7c-5,0-9,2.9-9,6.4V150.8z"/>
		<g class="st10">
			<path class="st11" d="M107,383.3h61.2c0.6,0,1.1-0.5,1.1-1.1v-95.5c0-0.6-0.5-1.1-1.1-1.1H107c-0.6,0-1.1,0.5-1.1,1.1v95.5
				C105.9,382.8,106.4,383.3,107,383.3z"/>
			<g>
				<path class="st9" d="M140.6,378H164c0.3,0,0.6-0.3,0.6-0.6v-85.9c0-0.3-0.3-0.6-0.6-0.6h-23.4c-0.3,0-0.6,0.3-0.6,0.6v85.9
					C140,377.8,140.3,378,140.6,378z"/>
				<path class="st8" d="M111.1,378h23.4c0.3,0,0.6-0.3,0.6-0.6v-85.9c0-0.3-0.3-0.6-0.6-0.6h-23.4c-0.3,0-0.6,0.3-0.6,0.6v85.9
					C110.5,377.8,110.8,378,111.1,378z"/>
			</g>
		</g>
		<path class="st12" d="M332.2,93.6c0,0-150.4,113.6-154.2,113.6v235.9c0,4.3,3.5,7.8,7.8,7.8h293.6c3.8,0,6.9-3.1,6.9-6.9V207.2
			L332.2,93.6z"/>
		<g>
			<path class="st13" d="M373.1,441.4h-95.6v-14.2c0-1.1,0.9-2,2-2h91.6c1.1,0,2,0.9,2,2V441.4z"/>
			<path class="st8" d="M373.1,454.3h-95.6v-13c0-1.8,1.4-3.2,3.2-3.2h89.3c1.8,0,3.2,1.4,3.2,3.2V454.3z"/>
			<path class="st9" d="M357.9,425.2h-65.2V301.5c0-2,1.6-3.6,3.6-3.6h58.1c2,0,3.6,1.6,3.6,3.6V425.2z"/>
			<path class="st14" d="M353.3,289.4h-56c-2.5,0-4.6-2.1-4.6-4.6v-4c0-2.4,1.9-4.4,4.3-4.6l56-3.9c2.7-0.2,4.9,1.9,4.9,4.6v7.9
				C357.9,287.3,355.9,289.4,353.3,289.4z"/>
			<g>
				<path class="st9" d="M409.7,232.8h-0.6c-16.1,0-30.2,11.4-30.2,27.5v29h30.8V232.8z"/>
				<path class="st9" d="M378.9,297.9v85.4c0,2.9,3.4,7.3,6.2,7.3h24.6v-92.7H378.9z"/>
				<path class="st9" d="M418.2,232.8h-1.6v56.5h30.8v-29C447.4,244.2,434.3,232.8,418.2,232.8z"/>
				<path class="st9" d="M416.6,390.7h25.5c2.9,0,5.3-4.5,5.3-7.3v-85.4h-30.8V390.7z"/>
			</g>
			<g>
				<path class="st9" d="M239.9,232.8h-0.6c-16.1,0-30.2,11.4-30.2,27.5v29h30.8V232.8z"/>
				<path class="st9" d="M209,297.9v85.4c0,2.9,3.4,7.3,6.2,7.3h24.6v-92.7H209z"/>
				<path class="st9" d="M248.3,232.8h-1.6v56.5h30.8v-29C277.6,244.2,264.4,232.8,248.3,232.8z"/>
				<path class="st9" d="M246.7,390.7h25.5c2.9,0,5.3-4.5,5.3-7.3v-85.4h-30.8V390.7z"/>
			</g>
			<path class="st15" d="M316.2,391h-9.8c-3.3,0-6-2.7-6-6v-72.8c0-3.3,2.7-6,6-6h9.8c3.3,0,6,2.7,6,6v72.8
				C322.2,388.3,319.5,391,316.2,391z M306.4,307c-2.9,0-5.2,2.4-5.2,5.2v72.8c0,2.9,2.4,5.2,5.2,5.2h9.8c2.9,0,5.2-2.4,5.2-5.2
				v-72.8c0-2.9-2.4-5.2-5.2-5.2H306.4z"/>
			<path class="st15" d="M343.7,391h-9.8c-3.3,0-6-2.7-6-6v-72.8c0-3.3,2.7-6,6-6h9.8c3.3,0,6,2.7,6,6v72.8
				C349.7,388.3,347,391,343.7,391z M333.9,307c-2.9,0-5.2,2.4-5.2,5.2v72.8c0,2.9,2.4,5.2,5.2,5.2h9.8c2.9,0,5.2-2.4,5.2-5.2v-72.8
				c0-2.9-2.4-5.2-5.2-5.2H333.9z"/>
			<path class="st15" d="M316.2,415.6h-9.8c-3.3,0-6-2.7-6-6v-8.4c0-3.3,2.7-6,6-6h9.8c3.3,0,6,2.7,6,6v8.4
				C322.2,412.9,319.5,415.6,316.2,415.6z M306.4,396c-2.9,0-5.2,2.4-5.2,5.2v8.4c0,2.9,2.4,5.2,5.2,5.2h9.8c2.9,0,5.2-2.4,5.2-5.2
				v-8.4c0-2.9-2.4-5.2-5.2-5.2H306.4z"/>
			<path class="st15" d="M343.7,415.6h-9.8c-3.3,0-6-2.7-6-6v-8.4c0-3.3,2.7-6,6-6h9.8c3.3,0,6,2.7,6,6v8.4
				C349.7,412.9,347,415.6,343.7,415.6z M333.9,396c-2.9,0-5.2,2.4-5.2,5.2v8.4c0,2.9,2.4,5.2,5.2,5.2h9.8c2.9,0,5.2-2.4,5.2-5.2
				v-8.4c0-2.9-2.4-5.2-5.2-5.2H333.9z"/>
			<path class="st16" d="M450.1,396h-74.2c-4.3,0-7.7-3.5-7.7-7.7V259.7c0-20.3,16.5-36.9,36.9-36.9h16c20.3,0,36.9,16.5,36.9,36.9
				v128.5C457.8,392.5,454.4,396,450.1,396z M405,223.6c-19.9,0-36.2,16.2-36.2,36.2v128.5c0,3.9,3.1,7,7,7h74.2c3.9,0,7-3.1,7-7
				V259.7c0-19.9-16.2-36.2-36.2-36.2H405z"/>
			<path class="st16" d="M280.3,396H206c-4.3,0-7.7-3.5-7.7-7.7V259.7c0-20.3,16.5-36.9,36.9-36.9h16c20.3,0,36.9,16.5,36.9,36.9
				v128.5C288,392.5,284.5,396,280.3,396z M235.2,223.6c-19.9,0-36.2,16.2-36.2,36.2v128.5c0,3.9,3.1,7,7,7h74.2c3.9,0,7-3.1,7-7
				V259.7c0-19.9-16.2-36.2-36.2-36.2H235.2z"/>
		</g>
		<g>
			<rect x="399.7" y="96.1" class="st9" width="25.5" height="41.5"/>
			<path class="st9" d="M433.6,102.8h-41.2v-6.7c0-3.4,2.7-6.1,6.1-6.1h25.8c5.1,0,9.3,4.2,9.3,9.3V102.8z"/>
			<path class="st7" d="M168.6,219.1L332.2,93.6l155.3,120.5c5.6,4.4,13.9,1.3,15.4-5.7l2.2-10.7L332.2,66.1L164.9,193.8
				c-3,2.3-4.1,6.3-2.7,9.8L168.6,219.1z"/>
		</g>
	</g>
</g>
<g>
	<g>
		<path class="st13" d="M26.9,227.8c-5.3,1.4-10.6,3.9-12.7,6.8c-9.2,13.1,4.9,31.2,9.8,43.2c8.4,20.6,11.1,43.2,5,64.8
			c-6.7,23.4-10.8,46.4-7.7,70.4c1.6,12.4,5.6,25.5,15,35.3c17.7,18.6,63.6,8.2,72.7-12.8c7.3-16.7,4.8-34.9-0.1-51.6
			c-8.2-28-21.7-54.7-30.1-82.6c-6.4-21.4-3-64.1-32.9-73.4C40.4,226.2,32.5,226.3,26.9,227.8z"/>
		<path class="st8" d="M66.6,492.3c-0.2,0-0.3,0-0.5-0.1c-0.7-0.2-1.2-1-1-1.7C85.9,418,75.2,353,62.6,311.2
			C49,265.8,30.1,237.3,29.9,237c-0.4-0.6-0.3-1.5,0.4-1.9c0.6-0.4,1.5-0.3,1.9,0.4c0.2,0.3,19.2,29.1,33,74.8
			c12.7,42.2,23.5,107.8,2.6,181C67.7,491.9,67.2,492.2,66.6,492.3z"/>
	</g>
	<g>
		<path class="st8" d="M78.8,410.9c-1.4-16.8,5.9-35.6,10.1-53c2.2-9.2,3.6-18.4,2.7-27.9c-0.9-9.4-4.6-19.8,0.1-28.8
			c9.4-18.2,28.2-8.4,38.4,6.4c11.8,17.2,13.6,44.2,17.1,65.1c2.1,12.6,5.7,25.6,6.5,38.4c1.2,21.1-4.5,35.4-15.2,44.5
			c-10.2,8.8-25,9.8-36.3,2.5C91.7,451.4,81.1,438,78.8,410.9z"/>
		<path class="st17" d="M118.4,491.8c-0.2,0.1-0.4,0.1-0.7,0c-0.7-0.2-1.2-0.9-1-1.7c0.2-1,23.2-100.3-4-182.8
			c-0.2-0.7,0.2-1.5,0.9-1.8c0.7-0.2,1.5,0.2,1.8,0.9c27.5,83.3,4.3,183.4,4.1,184.4C119.3,491.3,118.9,491.7,118.4,491.8z"/>
	</g>
</g>
<g>
	<g>
		
			<linearGradient id="SVGID_6_" gradientUnits="userSpaceOnUse" x1="1802.8256" y1="303.3912" x2="1831.8842" y2="303.3912" gradientTransform="matrix(-0.9999 1.610000e-02 1.610000e-02 0.9999 2404.687 -32.1204)">
			<stop  offset="0" style="stop-color:#FEBBBA"/>
			<stop  offset="1" style="stop-color:#FF928E"/>
		</linearGradient>
		<path class="st18" d="M596.2,285.5c3,3.1,7.5,5.8,10.6,7.5c-4.5,5.8-10.7,11.6-18.8,17.3l-2.3,5.3l-7.7-9
			C578,306.6,591.5,299.6,596.2,285.5z"/>
		
			<linearGradient id="SVGID_7_" gradientUnits="userSpaceOnUse" x1="1832.0427" y1="452.8926" x2="1853.8323" y2="452.8926" gradientTransform="matrix(-0.9999 1.610000e-02 1.610000e-02 0.9999 2404.687 -32.1204)">
			<stop  offset="0" style="stop-color:#09005D"/>
			<stop  offset="1" style="stop-color:#1A0F91"/>
		</linearGradient>
		<path class="st19" d="M558.5,458.3c0-0.2,0-0.3,0-0.5c2.3-9.8,14.4-16,14.4-16l4.8,0.3c2.9,8.5,2.6,13.8,2.2,16.1
			c0,0.1,0,0.1,0,0.2C575.9,458.9,567.7,459.2,558.5,458.3z"/>
		<path class="st13" d="M579.9,458.5c-0.2,0.8-0.8,1.4-1.5,1.6c-5.6,1.3-14.7,0.5-18.4,0c-0.8-0.1-1.5-0.9-1.5-1.7
			C567.7,459.2,575.9,458.9,579.9,458.5z"/>
		
			<linearGradient id="SVGID_8_" gradientUnits="userSpaceOnUse" x1="1838.1023" y1="428.0862" x2="1833.9401" y2="464.4108" gradientTransform="matrix(-0.9999 1.610000e-02 1.610000e-02 0.9999 2404.687 -32.1204)">
			<stop  offset="0" style="stop-color:#FEBBBA"/>
			<stop  offset="1" style="stop-color:#FF928E"/>
		</linearGradient>
		<path class="st20" d="M579.5,434.9l-1.9,9.9c-0.1,0.7-0.7,1.3-1.4,1.3c-0.8,0.1-2,0.2-3.2,0c-1.1-0.1-1.8-1.2-1.6-2.4l1.3-8.8
			L579.5,434.9z"/>
		<path class="st13" d="M537.6,459c5.3-0.2,8.1-0.9,9.5-1.5c0,0.5,0,1.1,0,1.6c0,0.6-0.4,1.1-1,1.1l-29.3,0.3
			c-0.9,0-1.5-1.1-1.1-1.9C519.5,458.8,529.3,459.4,537.6,459z"/>
		
			<linearGradient id="SVGID_9_" gradientUnits="userSpaceOnUse" x1="1865.2225" y1="453.4724" x2="1896.588" y2="453.4724" gradientTransform="matrix(-0.9999 1.610000e-02 1.610000e-02 0.9999 2404.687 -32.1204)">
			<stop  offset="0" style="stop-color:#09005D"/>
			<stop  offset="1" style="stop-color:#1A0F91"/>
		</linearGradient>
		<path class="st21" d="M515.7,458.6c0-0.1,0.1-0.2,0.1-0.2c2.5-3.7,9-11,22-14.3l6.2-0.3c0,0,2.9,4.8,3.1,13.7
			c-1.4,0.6-4.2,1.3-9.5,1.5C529.3,459.4,519.5,458.8,515.7,458.6z"/>
		
			<linearGradient id="SVGID_10_" gradientUnits="userSpaceOnUse" x1="1872.0063" y1="431.9713" x2="1867.8442" y2="468.2957" gradientTransform="matrix(-0.9999 1.610000e-02 1.610000e-02 0.9999 2404.687 -32.1204)">
			<stop  offset="0" style="stop-color:#FEBBBA"/>
			<stop  offset="1" style="stop-color:#FF928E"/>
		</linearGradient>
		<path class="st22" d="M545,434.3c-0.1,0.5-0.8,7.5-1.1,10.3c-0.1,0.7-0.5,1.2-1.1,1.2c-1.1,0.1-2.8,0.3-4.3,0
			c-0.8-0.2-1.4-0.9-1.4-1.8l-0.2-11.1L545,434.3z"/>
		
			<linearGradient id="SVGID_11_" gradientUnits="userSpaceOnUse" x1="1921.4608" y1="265.865" x2="1788.3387" y2="472.4338" gradientTransform="matrix(-0.9999 1.610000e-02 1.610000e-02 0.9999 2404.687 -32.1204)">
			<stop  offset="0" style="stop-color:#09005D"/>
			<stop  offset="1" style="stop-color:#1A0F91"/>
		</linearGradient>
		<path class="st23" d="M547.9,305.2c0,0-14.1,57.4-12.7,129.4c0,1.3,1,2.4,2.3,2.7c1.9,0.4,4.7,0.8,7,0.7c1.2-0.1,2.2-1,2.4-2.2
			c1.9-12.4,12.9-82.3,19.6-93.8c0,0,5.5,62,4.6,94.3c0,0.8,0.6,1.5,1.4,1.6c1.2,0.1,3.1,0.2,5.6-0.1c0.9-0.1,1.7-0.8,1.8-1.8
			c1.3-10.5,9-73,7.9-117.9c-0.1-2.5-6.9-13.4-6.9-13.4L547.9,305.2z"/>
		<path class="st9" d="M525.9,236.3c2.4-4,4.7-8.1,7.1-12.1c18.5-13.8,46.8-7.4,57.7-6.2c3.6,0.4,6.9,2.1,9.3,4.8
			c9.5,10.7,30.5,39.9,6.8,70.2c-3.1-1.7-7.5-4.3-10.6-7.5c2.5-7.6,2.6-17.2-3.2-28.9c-0.2,0.9-0.4,1.9-0.7,2.8
			c-7.3,24.6-7.4,44.9-7.3,49.6c0,0.6-0.4,1.2-0.9,1.5c-10.1,4.2-29.7,2.1-36.2,1.3c-1.2-0.2-2-1.3-1.9-2.5
			c2.8-23.4-14.3-61.5-18.8-71C526.9,237.5,526.4,236.9,525.9,236.3z"/>
		
			<linearGradient id="SVGID_12_" gradientUnits="userSpaceOnUse" x1="1847.2988" y1="195.8723" x2="1831.4069" y2="264.5483" gradientTransform="matrix(-0.9999 1.610000e-02 1.610000e-02 0.9999 2404.687 -32.1204)">
			<stop  offset="0" style="stop-color:#FEBBBA"/>
			<stop  offset="1" style="stop-color:#FF928E"/>
		</linearGradient>
		<path class="st24" d="M572.8,198.6l2.3,20c0,0-11.2,3.6-19.5-2.1l5.5-18.3L572.8,198.6z"/>
		<g>
			
				<linearGradient id="SVGID_13_" gradientUnits="userSpaceOnUse" x1="-468.7697" y1="154.2624" x2="-496.965" y2="191.5626" gradientTransform="matrix(-0.697 -0.717 -0.717 0.697 347.02 -263.4912)">
				<stop  offset="0" style="stop-color:#FEBBBA"/>
				<stop  offset="1" style="stop-color:#FF928E"/>
			</linearGradient>
			<path class="st25" d="M559.4,176.1c-0.3,0.3-11.1,22.3-11.1,22.3l12.7,5.9l13.3-19.4C574.4,184.9,563.9,171.7,559.4,176.1z"/>
			
				<linearGradient id="SVGID_14_" gradientUnits="userSpaceOnUse" x1="-490.3026" y1="163.22" x2="-456.6225" y2="163.22" gradientTransform="matrix(-0.697 -0.717 -0.717 0.697 347.02 -263.4912)">
				<stop  offset="0" style="stop-color:#09005D"/>
				<stop  offset="1" style="stop-color:#1A0F91"/>
			</linearGradient>
			<path class="st26" d="M568.8,185.5c0.2,0.6,0.2,1.2-0.1,1.8l-6.1,10.6c-0.1,0.2-0.2,0.3-0.3,0.4c-0.7,0.7-3.3,2.8-5.3,0
				c-1.7-2.3-3.4-4.4-5.1-5.3c-1-0.5-2.2-0.1-2.7,0.9c-1,2.1-2.9,6.3-4.1,10.3c-0.3,1,0.2,2.1,1.2,2.4c2.6,1,7.7,2.8,12.2,3.3
				c0.7,0.1,1.5-0.2,1.9-0.8c1.9-2.7,7.2-10.2,9-12c1.7-1.7,4.9-1.1,6.3-0.8c0.5,0.1,1.1,0.1,1.6-0.2c1.4-0.9,3.9-3.1,1.6-6.8
				c-0.6-0.9-0.3-2.1,0.6-2.8c1.6-1.1,3.3-3.1,1.6-6.4c-1.8-3.3-4.8-3.5-6.9-3.2c-0.9,0.1-1.9-0.3-2.2-1.2c-0.2-0.4-0.5-0.7-1.1-0.8
				c-1.1-0.2-1.8-1.2-1.6-2.3c0.3-1.9,0-4.3-3-5.9c-5.5-2.9-10.2,2.1-11.3,6.2c-1.1,4.1,5,7,8.8,7.4
				C566.6,180.9,568.2,183.9,568.8,185.5z"/>
			
				<linearGradient id="SVGID_15_" gradientUnits="userSpaceOnUse" x1="-509.6168" y1="183.7751" x2="-487.2087" y2="160.7849" gradientTransform="matrix(-0.697 -0.717 -0.717 0.697 347.02 -263.4912)">
				<stop  offset="0" style="stop-color:#FEBBBA"/>
				<stop  offset="1" style="stop-color:#FF928E"/>
			</linearGradient>
			<path class="st27" d="M566.4,200.8c0,0,2.9-6.8,6-6.6c3.1,0.2,5.6,3.3,1.8,6.8C569.5,205.4,566.4,200.8,566.4,200.8z"/>
		</g>
		
			<linearGradient id="SVGID_16_" gradientUnits="userSpaceOnUse" x1="1846.8031" y1="321.3307" x2="1835.6405" y2="341.1964" gradientTransform="matrix(-0.9999 1.610000e-02 1.610000e-02 0.9999 2404.687 -32.1204)">
			<stop  offset="0" style="stop-color:#09005D"/>
			<stop  offset="1" style="stop-color:#1A0F91"/>
		</linearGradient>
		<path class="st28" d="M567.1,340.6c0.3,0,0.5-0.2,0.5-0.4c1.2-4.8,10.4-10.3,10.5-10.3c0.3-0.2,0.4-0.5,0.2-0.8
			c-0.2-0.3-0.5-0.4-0.8-0.2c-0.4,0.2-9.8,5.7-11.1,11c-0.1,0.3,0.1,0.6,0.4,0.7C567,340.6,567,340.6,567.1,340.6z"/>
		<g>
			<path class="st9" d="M488,243.2c21.2,2.8,34.8-10.7,45-19c13.4-10.9,24.1-5.9,24.1-5.9l-14,27.9c-21.3,20.7-43.5,16.6-57.6,10.2
				C485,251,486.4,246.6,488,243.2z"/>
			
				<linearGradient id="SVGID_17_" gradientUnits="userSpaceOnUse" x1="1204.3657" y1="194.1904" x2="1107.1151" y2="318.614" gradientTransform="matrix(-0.9999 1.610000e-02 1.610000e-02 0.9999 1637.0181 -19.7552)">
				<stop  offset="0" style="stop-color:#FEBBBA"/>
				<stop  offset="1" style="stop-color:#FF928E"/>
			</linearGradient>
			<path class="st29" d="M458,231.1l7.1,3.7c8.5,5,16.1,7.6,22.9,8.5c-1.6,3.3-2.9,7.8-2.6,13.2c-9-4.1-14.6-9-14.6-9
				C454.7,238.1,458,231.1,458,231.1z"/>
		</g>
		
			<linearGradient id="SVGID_18_" gradientUnits="userSpaceOnUse" x1="1217.3811" y1="204.3629" x2="1120.1302" y2="328.7869" gradientTransform="matrix(-0.9999 1.610000e-02 1.610000e-02 0.9999 1637.0181 -19.7552)">
			<stop  offset="0" style="stop-color:#FEBBBA"/>
			<stop  offset="1" style="stop-color:#FF928E"/>
		</linearGradient>
		<path class="st30" d="M437.5,241.3c0.4-1.5,1.5-2.8,3-3.4l14.2-6c0,0,0.2-1.8-3.1-3c-3.2-1.2-2.6-4.8-2.6-4.8s4.4,1.9,10.9,5
			c3.7,1.8,5.8,5,7,7.4l-3.6,4.9c-8.7,2.8-17.6,3.4-26.6,2.5L437.5,241.3z"/>
	</g>
	<g>
		<linearGradient id="SVGID_19_" gradientUnits="userSpaceOnUse" x1="992.0047" y1="-495.0575" x2="810.5305" y2="-108.6929">
			<stop  offset="0" style="stop-color:#09005D"/>
			<stop  offset="1" style="stop-color:#1A0F91"/>
		</linearGradient>
		<path class="st31" d="M599.3,235.9c2.2-3.6,5.9-5.9,8.2-9.4c2.9-4.4,3-10.3,1.1-15.2c-1.6-4.1-4.3-7.6-5.9-11.7
			c-2.1-5.5-2.2-7.8-1.2-13.3c0.9-4.8,2.7-10,7.4-12.8c5.8-3.4,12.8-4.1,19.4-2.8c6.8,1.3,13.5,4.2,18.5,9c5,4.8,8.3,11.6,8.2,18.6
			c-0.1,4.7-1.6,9.6-0.1,14c1.2,3.5,4.2,6.2,7.8,7.1c4,0.9,8.1-0.4,12.1-0.4c4,0.1,8,1.5,11.1,4.2c2.7,2.3,4.7,5.5,5.2,9.1
			c0.5,3.5-0.8,7.4-3.5,9.7c-1.9,1.6-4.5,2.7-5.2,5c-0.8,2.6,1.5,5.3,4,6.3c2.5,1.1,5.3,1.2,7.9,2.1c5.7,2.1,9.2,8.6,8.8,14.7
			c-0.4,6.1-4.3,11.6-9.4,15.1c-5.1,3.4-11.2,5-17.3,5.5c-6.1,0.5-12.2,0-18.3-0.3c-7-0.3-14.1-0.4-20.7-2.7
			c-6.7-2.3-12.5-6.6-17.9-11.2c-2.6-2.2-5.1-4.5-6.3-7.7c-0.8-2.3-0.8-4.8-1.8-7.1c-2.1-4.8-7.8-6.8-11-10.9
			C597,246.6,596.6,240.4,599.3,235.9z"/>
		<path class="st12" d="M675.1,244.5C675.1,244.5,675.1,244.5,675.1,244.5c2.9-0.5,5.5-2.7,6.5-5.4c1.1-2.7,0.6-6-1.2-8.3
			c-2.7-3.5-7.4-4.4-11.9-5l-8.3-1.1c-4.7-0.6-9.5-1.5-12.2-5c-2.9-3.7-2.3-8.7-1.7-13.6c0.1-0.6,0.1-1.1,0.2-1.7c0.7-7,0-13-2.2-18
			c-2.6-6.1-7.6-10.5-13.2-11.9c-0.1,0-0.2,0-0.3,0.2c0,0.1,0,0.2,0.2,0.3c5.5,1.4,10.3,5.7,12.9,11.7c2.1,4.9,2.8,10.9,2.1,17.8
			c-0.1,0.5-0.1,1.1-0.2,1.7c-0.6,5-1.1,10.1,1.8,13.9c2.8,3.6,7.7,4.5,12.4,5.2l8.3,1.1c4.5,0.6,9.1,1.5,11.6,4.8
			c1.7,2.2,2.2,5.3,1.2,7.9c-1,2.6-3.4,4.6-6.2,5.1c-0.1,0-0.2,0.1-0.2,0.2C674.9,244.4,675,244.5,675.1,244.5z"/>
		<path class="st12" d="M672.5,241.9c0.1,0,0.2,0,0.3-0.1c1-0.9,2.2-2,2.8-3.4c0.6-1.2,0.9-3.1-0.1-4.5c-0.6-0.9-1.7-1.5-2.7-1.9
			c-2.5-1.1-5.2-1.8-7.9-2.3c-1.8-0.3-3.6-0.4-5.3-0.6c-2.3-0.2-4.6-0.4-6.8-0.9c-2.7-0.6-7.5-2.2-9.6-6.4
			c-1.7-3.4-1.1-7.2-0.4-11.2c0.5-3.2,1.1-6.6,0.3-9.8c-0.1-0.2-0.3-0.4-0.5-0.3c-0.2,0.1-0.4,0.3-0.3,0.5c0.7,3,0.2,6.3-0.3,9.5
			c-0.7,4-1.3,8.1,0.5,11.7c2.2,4.5,7.3,6.2,10.1,6.9c2.3,0.5,4.7,0.7,6.9,0.9c1.7,0.1,3.5,0.3,5.3,0.6c2.6,0.4,5.2,1.2,7.7,2.2
			c0.9,0.4,1.8,0.8,2.4,1.6c0.6,0.9,0.6,2.4,0,3.7c-0.6,1.2-1.7,2.2-2.7,3.2c-0.2,0.2-0.2,0.4,0,0.6
			C672.3,241.9,672.4,241.9,672.5,241.9z"/>
		<linearGradient id="SVGID_20_" gradientUnits="userSpaceOnUse" x1="707.4293" y1="206.4753" x2="672.7931" y2="228.4278">
			<stop  offset="0" style="stop-color:#FF928E"/>
			<stop  offset="1" style="stop-color:#FE7062"/>
		</linearGradient>
		<path class="st32" d="M605.3,227.7c3.9-1.3,15.5-3.6,26.6,6.3c1.9,1.7,2.7,4.3,2.1,6.7c-2.8,10.9-10,43.1-3,56.9
			c0,0-11.8,13.4-25.1,3c0,0-6.3-25.6-14.2-36.7c-5.4-7.7,8-29.3,11.4-34.6C603.7,228.6,604.4,228,605.3,227.7z"/>
		
			<linearGradient id="SVGID_21_" gradientUnits="userSpaceOnUse" x1="-8908.3604" y1="1648.6138" x2="-8905.1865" y2="1626.079" gradientTransform="matrix(0.9646 0.2639 -0.2639 0.9646 9635.21 998.8856)">
			<stop  offset="0" style="stop-color:#FEBBBA"/>
			<stop  offset="1" style="stop-color:#FF928E"/>
		</linearGradient>
		<path class="st33" d="M615.9,205.9c0,0,6.1,16.5,6.7,23.8c0,0-6.4,3.1-12.6-1.8c0,0-0.9-16.6-1.9-19.5L615.9,205.9z"/>
		
			<linearGradient id="SVGID_22_" gradientUnits="userSpaceOnUse" x1="-8922.9111" y1="1600.3281" x2="-8893.2344" y2="1634.4485" gradientTransform="matrix(0.9646 0.2639 -0.2639 0.9646 9635.21 998.8856)">
			<stop  offset="0" style="stop-color:#FEBBBA"/>
			<stop  offset="1" style="stop-color:#FF928E"/>
		</linearGradient>
		<path class="st34" d="M607.4,183.5c0,0-15,21.7-5.7,27.8c9.3,6.1,19.9-9.3,19.9-9.3s3.4-11.8-0.4-15.7
			C617.5,182.3,607.4,183.5,607.4,183.5z"/>
		<linearGradient id="SVGID_23_" gradientUnits="userSpaceOnUse" x1="614.4128" y1="181.2476" x2="746.381" y2="325.5611">
			<stop  offset="0" style="stop-color:#09005D"/>
			<stop  offset="1" style="stop-color:#1A0F91"/>
		</linearGradient>
		<path class="st35" d="M614.5,178.2c0,0-7,1.8-8,5c-0.9,3.2,10.1,6,13.2,6.1l2.7,12.8c0,0,7.1-12.2,4.1-19.2
			C623.5,176,614.5,178.2,614.5,178.2z"/>
		
			<linearGradient id="SVGID_24_" gradientUnits="userSpaceOnUse" x1="-7139.8452" y1="-2145.5503" x2="-7321.3193" y2="-1759.1863" gradientTransform="matrix(0.9646 0.2639 -0.2639 0.9646 9635.21 998.8856)">
			<stop  offset="0" style="stop-color:#FEBBBA"/>
			<stop  offset="1" style="stop-color:#FF928E"/>
		</linearGradient>
		<path class="st36" d="M618.7,200.4c0,0,5.9-7,8.3-2.5c2.4,4.5-5.2,8-8,5.8L618.7,200.4z"/>
		
			<linearGradient id="SVGID_25_" gradientUnits="userSpaceOnUse" x1="5595.0288" y1="510.5212" x2="5665.8345" y2="385.5339" gradientTransform="matrix(-1 6.600000e-03 6.600000e-03 1 6255.3843 -51.6797)">
			<stop  offset="0" style="stop-color:#FEBBBA"/>
			<stop  offset="1" style="stop-color:#FF928E"/>
		</linearGradient>
		<path class="st37" d="M591.5,354.7c0.1,1.2-1.8,10.4-2.9,15.4c-0.4,2-0.1,4.1,1,5.8l39.6,64.2c0.5,0.8,0.8,1.6,1.1,2.5
			c0.8,3,2.3,10.5,1.7,17.3l-1.9,4.2l8.6-2.1l1.5-23.2l-2.5-1.4c-2.1-1.3-3.8-3.1-4.8-5.4c-3.6-8.4-12.6-29.8-15-40.3
			c-2.7-11.9-16.1-21.4-16.1-21.4l2.2-5.5L591.5,354.7z"/>
		
			<linearGradient id="SVGID_26_" gradientUnits="userSpaceOnUse" x1="5610.4639" y1="466.3309" x2="5631.1606" y2="466.3309" gradientTransform="matrix(-1 6.600000e-03 6.600000e-03 1 6255.3843 -51.6797)">
			<stop  offset="0" style="stop-color:#09005D"/>
			<stop  offset="1" style="stop-color:#1A0F91"/>
		</linearGradient>
		<path class="st38" d="M648,453.9c0,0-4.8-7.3-5.4-10.2c-0.6-2.9-2.2-7.9-5-6.3c0,0-1.1,14-0.6,19.4c0.6,5.4-6.1,5.4-6.1,5.4
			s-1.8,0.3-3.1,1.6c-0.9,0.9-0.2,2.5,1.1,2.6c2.2,0.1,5.6,0.1,9.2-0.7c1.3-0.3,2.2-1.4,2.2-2.6L641,447l6,7.3L648,453.9z"/>
		<linearGradient id="SVGID_27_" gradientUnits="userSpaceOnUse" x1="651.6976" y1="397.3903" x2="743.898" y2="354.9489">
			<stop  offset="0" style="stop-color:#FEBBBA"/>
			<stop  offset="1" style="stop-color:#FF928E"/>
		</linearGradient>
		<path class="st39" d="M614.7,364.7c0,0,2.3,58,2.6,66.2c0.3,8.2-0.9,26.5-9,32.1l3.6,2.6c0,0,4.4-3.9,8.7-11.3
			c4.8-8.3,6.3-9.9,6.3-9.9l-1.7-3.3c-0.7-1.5-1-3.1-0.7-4.7c1.6-8.7,7.1-37.5,8.7-43.7c1.8-7.3,1.8-17.1-5-25.2
			C621.3,359.5,614.7,364.7,614.7,364.7z"/>
		
			<linearGradient id="SVGID_28_" gradientUnits="userSpaceOnUse" x1="5629.6523" y1="470.0691" x2="5654.3247" y2="470.0691" gradientTransform="matrix(-1 6.600000e-03 6.600000e-03 1 6255.3843 -51.6797)">
			<stop  offset="0" style="stop-color:#09005D"/>
			<stop  offset="1" style="stop-color:#1A0F91"/>
		</linearGradient>
		<path class="st40" d="M624,468.1c0.3,0,0.5-0.2,0.5-0.4c0.2-1.9,1.3-9.7,2.2-11.7c1-2.3,4.4-12.1-0.2-12.8
			c0,0-11.1,16.8-13.3,19.1c-2.1,2.3-4.9,0.9-4.9,0.9s-2.1,0.7-3.7,2.7c-0.7,1,0,2.4,1.2,2.4l7.7-0.1c2.2,0,4.2-1.4,5-3.5
			c1.3-3.4,3.5-8.4,6.2-10.6l-1.2,13.5C623.4,467.8,623.7,468.1,624,468.1L624,468.1z"/>
		<linearGradient id="SVGID_29_" gradientUnits="userSpaceOnUse" x1="684.4953" y1="239.8855" x2="586.4014" y2="380.0198">
			<stop  offset="0" style="stop-color:#4F52FF"/>
			<stop  offset="1" style="stop-color:#4042E2"/>
		</linearGradient>
		<path class="st41" d="M604,294.4c0,0,1.8,5.5-0.7,14.6l-15.5,57.8c-0.2,0.9,0.3,1.8,1.1,2.1c5,1.7,21.2,6.4,43.3,4.5
			c1.1-0.1,2-0.9,2.3-2c1.4-6.6,6-29,6.9-33.6c3.6-17.6,7.7-36.5-11.7-47.6C621,294.1,612.8,296.5,604,294.4z"/>
		
			<linearGradient id="SVGID_30_" gradientUnits="userSpaceOnUse" x1="5670.8716" y1="498.5899" x2="5788.3247" y2="364.2409" gradientTransform="matrix(-0.9941 -0.1087 -0.1087 0.9941 6345.5288 422.8141)">
			<stop  offset="0" style="stop-color:#FEBBBA"/>
			<stop  offset="1" style="stop-color:#FF928E"/>
		</linearGradient>
		<path class="st42" d="M633.6,236.2c0,0,19,15.3,24,36.5c5,21.2-27,24-27,24s-4.4-4.8-9.6-3c-5.1,1.8-0.5-8.5,5.5-8.5
			c6-0.1,3.3,4.7,11.8,0.7c8.3-3.9,13.2-15.6-8.3-33c-1.2-1-2.3-2.3-2.9-3.8C622.8,238.8,626,231.9,633.6,236.2z"/>
	</g>
	<g>
		
			<linearGradient id="SVGID_31_" gradientUnits="userSpaceOnUse" x1="2659.9495" y1="1397.8905" x2="2677.5137" y2="1437.8531" gradientTransform="matrix(0.9776 -0.2106 0.2106 0.9776 -2420.9409 -461.1647)">
			<stop  offset="0" style="stop-color:#FEBBBA"/>
			<stop  offset="1" style="stop-color:#FF928E"/>
		</linearGradient>
		<path class="st43" d="M466.4,332.4c0,0,10.8,29,27.1,25.4c0,0,1.7,9.9-1.1,11c0,0-24.6,0.7-27-33L466.4,332.4z"/>
		<g>
			
				<linearGradient id="SVGID_32_" gradientUnits="userSpaceOnUse" x1="2660.4119" y1="1400.9204" x2="2679.5359" y2="1444.4318" gradientTransform="matrix(0.9776 -0.2106 0.2106 0.9776 -2420.9409 -461.1647)">
				<stop  offset="0" style="stop-color:#FEBBBA"/>
				<stop  offset="1" style="stop-color:#FF928E"/>
			</linearGradient>
			<path class="st44" d="M466.9,339.2c0,0.5,1.8,0.9,2.4-1.3c-0.2-0.9-0.5-5-1.2-5.6c-3.8-3.4-10.6-7.2-10.6-7.2
				c-0.8,1.2,0.2,1.9,0.2,1.9l3.4,2.3c-0.4,1.2-0.9,2.2-0.9,3.5c0,1,0.3,2,1,2.8c0.7,0.8,1.6,1.8,2.4,2.5
				C465.2,339.5,466.9,339.2,466.9,339.2z"/>
			<linearGradient id="SVGID_33_" gradientUnits="userSpaceOnUse" x1="462.3525" y1="334.1632" x2="466.9874" y2="334.1632">
				<stop  offset="0" style="stop-color:#FEBBBA"/>
				<stop  offset="1" style="stop-color:#FF928E"/>
			</linearGradient>
			<path class="st45" d="M467,334.4l-1.2-2l-3-1.6c-0.5,0.4-0.7,0.9,0.1,1.7c0.8,0.8,2.4,4.8,2.4,4.8L467,334.4z"/>
		</g>
		
			<linearGradient id="SVGID_34_" gradientUnits="userSpaceOnUse" x1="-7079.1045" y1="309.6642" x2="-7099.2246" y2="327.4174" gradientTransform="matrix(-1 0 0 1 -6600.8154 0)">
			<stop  offset="0" style="stop-color:#09005D"/>
			<stop  offset="1" style="stop-color:#1A0F91"/>
		</linearGradient>
		<path class="st46" d="M493.4,320.3c0,0,5.2-4.7-1.5-9.8c-6.3-4.8-10.9,1.6-8.8,5.8c0.1,0.3,0,0.6-0.3,0.7c-0.5,0.1-1,0.7-0.2,2.6
			c0.1,0.2,0.1,0.4-0.1,0.5c-0.8,1-3.3,5.2,4.4,5.8c0.1,0,0.3,0,0.4-0.1L493.4,320.3z"/>
		
			<linearGradient id="SVGID_35_" gradientUnits="userSpaceOnUse" x1="-7684.4951" y1="-802.095" x2="-7668.1641" y2="-802.095" gradientTransform="matrix(-0.9842 -0.1769 -0.1769 0.9842 -7168.1572 -240.5713)">
			<stop  offset="0" style="stop-color:#09005D"/>
			<stop  offset="1" style="stop-color:#1A0F91"/>
		</linearGradient>
		<path class="st47" d="M520.7,327.2c0,0,0.5-6,3.7-7.9c3.2-2,9.4-3.6,12,2.9c1.2,3.1,0.8,4.6,0.1,5.3c-0.7,0.6-0.8,1.6-0.3,2.5
			c0.5,0.9,0.6,2.1-1,3.2c-0.5,0.3-0.8,0.8-0.9,1.3c-0.4,2.2-2.6,7.4-14.5,1.7L520.7,327.2z"/>
		
			<linearGradient id="SVGID_36_" gradientUnits="userSpaceOnUse" x1="-6808.1768" y1="-1383.5551" x2="-6896.3677" y2="-1322.015" gradientTransform="matrix(-0.9842 -0.1769 -0.1769 0.9842 -7168.1572 -240.5713)">
			<stop  offset="0" style="stop-color:#09005D"/>
			<stop  offset="1" style="stop-color:#1A0F91"/>
		</linearGradient>
		<path class="st48" d="M506.9,316.4c2.3-1,7.3-2,11.1,4.7c0.3,0.5,0.7,0.9,1.1,1.1c2.3,1.3,8.9,5.9,2.9,14.2
			c-0.3,0.4-0.5,0.8-0.5,1.3c-0.2,1.4-0.9,4.5-2.9,5.3c-0.6,0.2-1.1,0.7-1.4,1.2c-1.4,2.2-5.2,6.9-11.7,2c-0.3-0.2-0.7-0.4-1.1-0.5
			l-9-2c-0.5-0.1-1-0.1-1.4,0.1c-1.1,0.3-3.3,0.6-4.1-2c-0.2-0.5-0.5-1-0.9-1.3c-1.5-1.3-4.7-4.7-2.3-9.6c0.3-0.5,0.4-1.2,0.3-1.8
			c-0.3-1.8-0.4-5.9,3.3-7.6c0.6-0.3,1-0.7,1.3-1.2c1.3-2.4,5.4-8.6,12.6-4.1C505.1,316.7,506.1,316.8,506.9,316.4z"/>
		<linearGradient id="SVGID_37_" gradientUnits="userSpaceOnUse" x1="491.5511" y1="370.2504" x2="490.5755" y2="397.5691">
			<stop  offset="0" style="stop-color:#FF928E"/>
			<stop  offset="1" style="stop-color:#FE7062"/>
		</linearGradient>
		<path class="st49" d="M494.8,458.7l1.3,1.5l-0.9,3.3c-0.2,0.9-0.9,1.5-1.8,1.7c-2.9,0.5-9.5,1.5-12.9,0c0,0-1.1-7.1,10.6-5
			L494.8,458.7z"/>
		<linearGradient id="SVGID_38_" gradientUnits="userSpaceOnUse" x1="514.9611" y1="371.0864" x2="513.9855" y2="398.4051">
			<stop  offset="0" style="stop-color:#FF928E"/>
			<stop  offset="1" style="stop-color:#FE7062"/>
		</linearGradient>
		<path class="st50" d="M515.2,462.5l0.7,1.7l-0.3,6.1c0,0.9-0.7,1.6-1.7,1.7c-1.3,0.2-3.1,0.4-4.9,0.3c-1.4-0.1-2.2-1.4-1.7-2.5
			l2.1-4.4c0.3-0.7,0.9-1.2,1.6-1.4L515.2,462.5z"/>
		
			<linearGradient id="SVGID_39_" gradientUnits="userSpaceOnUse" x1="-7106.6914" y1="368.6832" x2="-7105.4336" y2="355.8925" gradientTransform="matrix(-1 0 0 1 -6600.8154 0)">
			<stop  offset="0" style="stop-color:#FEBBBA"/>
			<stop  offset="1" style="stop-color:#FF928E"/>
		</linearGradient>
		<path class="st51" d="M509.2,342.9l1.3,13.2c0,0-7.2,2.4-11.9-0.3l1.3-13.2L509.2,342.9z"/>
		
			<linearGradient id="SVGID_40_" gradientUnits="userSpaceOnUse" x1="-7121.5605" y1="439.4477" x2="-7108.6523" y2="439.4477" gradientTransform="matrix(-1 0 0 1 -6600.8154 0)">
			<stop  offset="0" style="stop-color:#FEBBBA"/>
			<stop  offset="1" style="stop-color:#FF928E"/>
		</linearGradient>
		<path class="st52" d="M520.7,415.2c0,0-3.4,38-5.7,49.6c0,0-1.7,1.2-4.2-0.4l-3.1-50.7L520.7,415.2z"/>
		
			<linearGradient id="SVGID_41_" gradientUnits="userSpaceOnUse" x1="-7106.4307" y1="438.1829" x2="-7091.2671" y2="438.1829" gradientTransform="matrix(-1 0 0 1 -6600.8154 0)">
			<stop  offset="0" style="stop-color:#FEBBBA"/>
			<stop  offset="1" style="stop-color:#FF928E"/>
		</linearGradient>
		<path class="st53" d="M505.6,417.4l-9.3,42.5c0,0-2.5,2.6-5.8,0l1.6-44.7L505.6,417.4z"/>
		
			<linearGradient id="SVGID_42_" gradientUnits="userSpaceOnUse" x1="-7155.1841" y1="420.4439" x2="-7112.9536" y2="362.4199" gradientTransform="matrix(-1 0 0 1 -6600.8154 0)">
			<stop  offset="0" style="stop-color:#FEBBBA"/>
			<stop  offset="1" style="stop-color:#FF928E"/>
		</linearGradient>
		<path class="st54" d="M517.4,357.1l2.3,0.3c4.5,4.8,12.8,38.1,15.8,45.2l12.2-2c0.5-0.1,0.9,0.4,0.7,0.8
			c-0.5,1.3-2.6,5.1-10.5,5.1c-3.7,0,2.1,2.9-0.1,3.8c0,0-4.8-1.7-4.9-4.8c0,0-13.9-31.7-16.8-35
			C513.3,367.3,517.4,357.1,517.4,357.1z"/>
		<linearGradient id="SVGID_43_" gradientUnits="userSpaceOnUse" x1="550.5756" y1="331.1716" x2="531.0623" y2="346.2944">
			<stop  offset="0" style="stop-color:#FF928E"/>
			<stop  offset="1" style="stop-color:#FE7062"/>
		</linearGradient>
		<path class="st55" d="M519.7,357.4c0,0-12.4-4.6-27.8,0.2c0,0-1.7,11.7-0.8,17.2l26.6,1L519.7,357.4z"/>
		<linearGradient id="SVGID_44_" gradientUnits="userSpaceOnUse" x1="517.0801" y1="381.1374" x2="501.4694" y2="429.9207">
			<stop  offset="0" style="stop-color:#FF928E"/>
			<stop  offset="1" style="stop-color:#FE7062"/>
		</linearGradient>
		<path class="st56" d="M491.5,378.4c0,0-8.5,27.3-9.8,45.5c-0.1,0.9,0.6,1.7,1.6,1.8c1.8,0.1,4.9,0.6,9.1,2
			c6.9,2.3,12.6,1.5,17.7,0.1c4-1.2,14.1-2.2,18.3-2.6c1-0.1,1.7-1,1.5-2c-1.2-6.7-5.8-30.6-12.7-46.8L491.5,378.4z"/>
		<linearGradient id="SVGID_45_" gradientUnits="userSpaceOnUse" x1="558.6704" y1="281.8014" x2="534.7665" y2="323.2673">
			<stop  offset="0" style="stop-color:#E1473D"/>
			<stop  offset="1" style="stop-color:#E9605A"/>
		</linearGradient>
		<path class="st57" d="M491,374.1l0.5,4.3c0,0,8.2,0,26.2-0.6l0.1-3.1C517.8,374.7,497.8,375.1,491,374.1z"/>
		
			<linearGradient id="SVGID_46_" gradientUnits="userSpaceOnUse" x1="-7660.0938" y1="-873.8837" x2="-7658.4185" y2="-898.8073" gradientTransform="matrix(-0.9852 -0.1732 -0.1896 1.0333 -7211.9463 -72.4438)">
			<stop  offset="0" style="stop-color:#FEBBBA"/>
			<stop  offset="1" style="stop-color:#FF928E"/>
		</linearGradient>
		<path class="st58" d="M491.1,330.1c-2.1,7.9-1.5,17.1,7.9,19.1c6.5,1.4,13.2-5.2,15.3-13.1c2.1-7.9-1.5-14-7.9-15.6
			C500,318.8,493.1,322.2,491.1,330.1z"/>
		
			<linearGradient id="SVGID_47_" gradientUnits="userSpaceOnUse" x1="-7640.3755" y1="-774.7502" x2="-7638.6982" y2="-799.7032" gradientTransform="matrix(-0.9842 -0.1769 -0.1769 0.9842 -7168.1572 -240.5713)">
			<stop  offset="0" style="stop-color:#FEBBBA"/>
			<stop  offset="1" style="stop-color:#FF928E"/>
		</linearGradient>
		<path class="st59" d="M491.8,332.6c0,0-0.3-4.8-2.7-3.3c-2.4,1.5,0.9,7.2,2.4,7.6C493,337.1,491.8,332.6,491.8,332.6z"/>
		
			<linearGradient id="SVGID_48_" gradientUnits="userSpaceOnUse" x1="-7663.9146" y1="-776.3328" x2="-7662.2368" y2="-801.2861" gradientTransform="matrix(-0.9842 -0.1769 -0.1769 0.9842 -7168.1572 -240.5713)">
			<stop  offset="0" style="stop-color:#FEBBBA"/>
			<stop  offset="1" style="stop-color:#FF928E"/>
		</linearGradient>
		<path class="st60" d="M512.3,338.1c0,0,0.7-3.7,3.3-2c2.6,1.7-2.4,7.7-5.4,6.3L512.3,338.1z"/>
		
			<linearGradient id="SVGID_49_" gradientUnits="userSpaceOnUse" x1="-6809.8345" y1="-1385.9279" x2="-6898.0254" y2="-1324.3879" gradientTransform="matrix(-0.9842 -0.1769 -0.1769 0.9842 -7168.1572 -240.5713)">
			<stop  offset="0" style="stop-color:#09005D"/>
			<stop  offset="1" style="stop-color:#1A0F91"/>
		</linearGradient>
		<path class="st61" d="M516.1,335.2c0,0-7.4,8-11.3-8.6c0,0-3.8,5-5.6,0.6c0,0-7.7,2.6-8.5-0.6c-0.8-3.2,10.4-12,19.4-5.7
			C519.1,327.1,516.1,335.2,516.1,335.2z"/>
	</g>
	<g>
		
			<linearGradient id="SVGID_50_" gradientUnits="userSpaceOnUse" x1="1760.6989" y1="1174.2942" x2="1782.9824" y2="1224.9945" gradientTransform="matrix(0.9776 -0.2106 0.2106 0.9776 -1331.5503 -461.1647)">
			<stop  offset="0" style="stop-color:#FEBBBA"/>
			<stop  offset="1" style="stop-color:#FF928E"/>
		</linearGradient>
		<path class="st62" d="M623.4,302.8c0,0,21.4,30.6,39.6,34.8c0,0-1.4,8.7-4.6,10.1c0,0-17.4-4.2-36-40.9L623.4,302.8z"/>
		<g>
			
				<linearGradient id="SVGID_51_" gradientUnits="userSpaceOnUse" x1="1758.8584" y1="1179.6599" x2="1780.871" y2="1229.7433" gradientTransform="matrix(0.9776 -0.2106 0.2106 0.9776 -1331.5503 -461.1647)">
				<stop  offset="0" style="stop-color:#FEBBBA"/>
				<stop  offset="1" style="stop-color:#FF928E"/>
			</linearGradient>
			<path class="st63" d="M627.1,311.4c-0.1,0.6,2.1,1,2.8-1.5c-0.2-1.1-0.5-5.8-1.3-6.5c-4.4-3.9-12.2-8.2-12.2-8.2
				c-0.9,1.3,0.3,2.2,0.3,2.2l3.9,2.6c-0.4,1.3-1,2.5-1.1,4.1c-0.1,1.2,0.4,2.3,1.2,3.2c0.8,0.9,1.8,2,2.8,2.9
				C625.1,311.8,627.1,311.4,627.1,311.4z"/>
			<linearGradient id="SVGID_52_" gradientUnits="userSpaceOnUse" x1="621.89" y1="305.6222" x2="627.2249" y2="305.6222">
				<stop  offset="0" style="stop-color:#FEBBBA"/>
				<stop  offset="1" style="stop-color:#FF928E"/>
			</linearGradient>
			<path class="st64" d="M627.2,306l-1.4-2.2l-3.4-1.8c-0.5,0.4-0.8,1,0.1,1.9c0.9,0.9,2.8,5.6,2.8,5.6L627.2,306z"/>
		</g>
		
			<linearGradient id="SVGID_53_" gradientUnits="userSpaceOnUse" x1="1643.3002" y1="-1666.3987" x2="1659.5099" y2="-1666.3987" gradientTransform="matrix(0.4933 0.8699 0.8699 -0.4933 1354.7625 -1827.6282)">
			<stop  offset="0" style="stop-color:#4F52FF"/>
			<stop  offset="1" style="stop-color:#4042E2"/>
		</linearGradient>
		<path class="st65" d="M713.9,425.7c1-0.9,2.5-2.1,3.9-2.9c0.4-0.2,0.8-0.1,1,0.2c1.5,1.9,6.3,8.4,7.4,12.9
			c0.1,0.4-0.1,0.8-0.4,0.9c-1.3,0.7-4.6,1.4-9.3-5.2l-2.8-4C713.2,427.1,713.3,426.2,713.9,425.7z"/>
		
			<linearGradient id="SVGID_54_" gradientUnits="userSpaceOnUse" x1="-2046.7773" y1="372.5349" x2="-2047.7476" y2="470.0416" gradientTransform="matrix(-1 0 0 1 -1345.5479 0)">
			<stop  offset="0" style="stop-color:#FEBBBA"/>
			<stop  offset="1" style="stop-color:#FF928E"/>
		</linearGradient>
		<path class="st66" d="M685.1,411c0,0,1.6,21.4,10.3,28.6c7.6,6.3,19.5-5.1,22.4-8.1c0.4-0.4,0.6-1,0.5-1.6c-0.3-1.4-1-2.5-2.2-3.2
			c-0.8-0.5-1.9-0.4-2.6,0.3c-2.4,2.2-8.6,7.5-11.7,6.2c-4-1.6-6.3-22.2-6.3-22.2H685.1z"/>
		<g>
			<linearGradient id="SVGID_55_" gradientUnits="userSpaceOnUse" x1="731.2462" y1="299.5723" x2="694.8708" y2="358.7235">
				<stop  offset="0" style="stop-color:#FEBBBA"/>
				<stop  offset="1" style="stop-color:#FF928E"/>
			</linearGradient>
			<path class="st67" d="M705.7,346c0,0,11.9-5.6,18.4-36l-3.3-1.7c0,0-12.6,24.9-19.2,30.5C695.2,344.5,705.7,346,705.7,346z"/>
			<linearGradient id="SVGID_56_" gradientUnits="userSpaceOnUse" x1="728.2889" y1="297.7537" x2="691.9135" y2="356.905">
				<stop  offset="0" style="stop-color:#FEBBBA"/>
				<stop  offset="1" style="stop-color:#FF928E"/>
			</linearGradient>
			<path class="st68" d="M721.6,312l2.5-2c0,0,3.4-3.3,4.6-6.2c1.2-2.8-2.3-5.4-3.7-6c-1.3-0.6-2.1,0.7-1.8,3.5c0,0-3,3.5-2.6,8.7
				L721.6,312z"/>
		</g>
		
			<linearGradient id="SVGID_57_" gradientUnits="userSpaceOnUse" x1="-2033.6533" y1="463.2584" x2="-2017.4423" y2="463.2584" gradientTransform="matrix(-1 -4.700000e-03 -4.700000e-03 1 -1349.6384 -2.9094)">
			<stop  offset="0" style="stop-color:#4F52FF"/>
			<stop  offset="1" style="stop-color:#4042E2"/>
		</linearGradient>
		<path class="st69" d="M680.9,466.1c0,0,0.9,3.5,0.9,6.1c0,0.4-0.3,0.7-0.7,0.8c-2.4,0.3-10.5,1.3-14.9,0c-0.4-0.1-0.6-0.4-0.6-0.8
			c0-1.4,1-4.7,9.1-5.5L680.9,466.1z"/>
		
			<linearGradient id="SVGID_58_" gradientUnits="userSpaceOnUse" x1="-1867.2557" y1="482.5804" x2="-1868.226" y2="580.087" gradientTransform="matrix(-0.9977 6.850000e-02 6.850000e-02 0.9977 -1224.0256 50.1219)">
			<stop  offset="0" style="stop-color:#FEBBBA"/>
			<stop  offset="1" style="stop-color:#FF928E"/>
		</linearGradient>
		<path class="st70" d="M667,412.4c-1,0.7,6.5,53.6,8.4,54c0,0,2.1,1.9,5.3-0.3c-1.9-17.2-3-34.7-2-52.6L667,412.4z"/>
		
			<linearGradient id="SVGID_59_" gradientUnits="userSpaceOnUse" x1="-1892.3657" y1="478.6663" x2="-1859.5162" y2="478.6663" gradientTransform="matrix(-0.9977 6.850000e-02 6.850000e-02 0.9977 -1224.0256 50.1219)">
			<stop  offset="0" style="stop-color:#09005D"/>
			<stop  offset="1" style="stop-color:#1A0F91"/>
		</linearGradient>
		<path class="st71" d="M693.4,380.3c0,0-24.6,1.1-30.4,3.2c0,0,0.7,20,3.1,32.3c0.1,0.5,0.5,0.9,0.9,1c1.6,0.4,5.5,0.9,11.8-0.9
			c0.6-0.2,0.9-0.7,0.9-1.3l-0.6-8c0-0.5,0.4-1,0.9-1l0.7-0.1c0.6,0,1,0.4,1,1l1.2,8.1c0,0.5,0.3,1,0.8,1.2c1.8,0.6,6.7,1.8,13-0.1
			c0.5-0.2,0.9-0.6,0.9-1.2C697.7,404.6,695.9,392.8,693.4,380.3z"/>
		
			<linearGradient id="SVGID_60_" gradientUnits="userSpaceOnUse" x1="-1892.7096" y1="457.469" x2="-1883.6052" y2="469.884" gradientTransform="matrix(-0.9977 6.850000e-02 6.850000e-02 0.9977 -1224.0256 50.1219)">
			<stop  offset="0" style="stop-color:#09005D"/>
			<stop  offset="1" style="stop-color:#1A0F91"/>
		</linearGradient>
		<path class="st72" d="M684.2,382c0,0,3.1,8.6,10.6,9.2l-1.7-9.8C693.1,381.4,687.3,381.4,684.2,382z"/>
		<linearGradient id="SVGID_61_" gradientUnits="userSpaceOnUse" x1="801.7863" y1="275.1565" x2="736.4165" y2="319.0616">
			<stop  offset="0" style="stop-color:#FF928E"/>
			<stop  offset="1" style="stop-color:#FE7062"/>
		</linearGradient>
		<path class="st73" d="M704.9,334.8c0,0-11.1,7.1-24.6,6.3c-11.2-0.7-18.1-3.5-21.9-6.8c-1.4-1.2-3.3-1.3-4.8-0.4
			c-1.6,1.1-3.8,2.7-6.1,5.1c-0.6,0.6-0.7,1.5-0.3,2.2c3.3,5.3,6.8,9,10.5,11.1c1.3,1.4,1.9,3.2,1.9,5.1l-0.7,26
			c0,0.7,0.5,1.3,1.2,1.5c4.9,0.9,23.6,4.2,35.3,2.1v-28c0-2.1,1.2-4,3-5c2.4-1.4,6.1-4,9.7-9L704.9,334.8z"/>
		
			<linearGradient id="SVGID_62_" gradientUnits="userSpaceOnUse" x1="-2688.9111" y1="-210.6153" x2="-2693.6914" y2="-248.8573" gradientTransform="matrix(-0.9402 -0.3405 -0.3405 0.9402 -1943.5809 -381.806)">
			<stop  offset="0" style="stop-color:#FEBBBA"/>
			<stop  offset="1" style="stop-color:#FF928E"/>
		</linearGradient>
		<path class="st74" d="M663.7,324.6c0,0,0.9-2.7-1.5-3.1c-2.4-0.5-0.1,6.6-0.1,6.6L663.7,324.6z"/>
		
			<linearGradient id="SVGID_63_" gradientUnits="userSpaceOnUse" x1="-2040.6475" y1="335.6145" x2="-2000.3834" y2="341.9209" gradientTransform="matrix(-1 0 0 1 -1345.5479 0)">
			<stop  offset="0" style="stop-color:#FEBBBA"/>
			<stop  offset="1" style="stop-color:#FF928E"/>
		</linearGradient>
		<path class="st75" d="M683,331.8l1,10.5c0,0-5.5,3.2-10.3,0.4l0.8-9.1L683,331.8z"/>
		
			<linearGradient id="SVGID_64_" gradientUnits="userSpaceOnUse" x1="-2784.8579" y1="-463.884" x2="-2797.0955" y2="-487.2687" gradientTransform="matrix(-0.9011 -0.4336 -0.4336 0.9011 -2041.3521 -464.1684)">
			<stop  offset="0" style="stop-color:#09005D"/>
			<stop  offset="1" style="stop-color:#1A0F91"/>
		</linearGradient>
		<path class="st76" d="M662.5,324.6c-1.1-0.7-2-1.6-2.6-2.6c-0.9-1.6-1.7-3.4-1-5.1c0.5-1.1,1.7-1.9,1.7-3.1c0-0.9-0.6-1.6-0.9-2.5
			c-0.3-1.3,0.5-2.8,1.6-3.5c1.2-0.8,2.6-1,4-1.1c0.6-0.1,1.3-0.1,1.9-0.4c0.7-0.4,1-1.1,1.5-1.6c2-2.2,5.9-2.2,7.8,0.1
			c1,1.2,1.5,2.8,2.9,3.5c0.7,0.4,1.6,0.4,2.4,0.6c1.9,0.4,3.5,1.5,4.9,2.9c2.1,2,3.7,4.1,4.3,7c0.3,1.5,0.3,3.1,0.3,4.7
			c0,2,0,4-0.9,5.8c-0.9,1.8-2.5,3.1-3.2,4.9c-0.2,0.6-0.4,1.2-0.7,1.8s-1,1-1.6,0.9c-0.8-0.1-1.1-1-1.5-1.6c-2-3.2-8.6-4.7-12-6.3
			C669,327.5,665.2,326.3,662.5,324.6z"/>
		
			<linearGradient id="SVGID_65_" gradientUnits="userSpaceOnUse" x1="-2700.9751" y1="-212.4759" x2="-2704.769" y2="-242.8268" gradientTransform="matrix(-0.9402 -0.3405 -0.3405 0.9402 -1943.5809 -381.806)">
			<stop  offset="0" style="stop-color:#FEBBBA"/>
			<stop  offset="1" style="stop-color:#FF928E"/>
		</linearGradient>
		<path class="st77" d="M667.1,315.7c0,0-11.5,17.3,0.4,22.7c11.2,5,16-6.5,16-6.5s4.9-5.1,3.3-9.1
			C685,318.9,669.9,313.6,667.1,315.7z"/>
		
			<linearGradient id="SVGID_66_" gradientUnits="userSpaceOnUse" x1="-2700.0129" y1="-226.4785" x2="-2711.1404" y2="-247.7417" gradientTransform="matrix(-0.9402 -0.3405 -0.3405 0.9402 -1943.5809 -381.806)">
			<stop  offset="0" style="stop-color:#09005D"/>
			<stop  offset="1" style="stop-color:#1A0F91"/>
		</linearGradient>
		<path class="st78" d="M684.6,328.4c-0.6-0.1-1.3-0.6-1.8-1.3c-0.8-1.2-1-2.6-1.6-3.9c-0.9-2.1-2.9-3.6-5.1-4.2
			c-2-0.5-4.1-0.4-6.1-0.4c-2.8-0.1-9.1-2.1-4-4.8c3.7-2,7.9-0.1,11.6,0.9c3.5,1,7.5,3,9.8,5.9c1,1.3,1.6,3,1.2,4.6
			C688.3,327,686.4,328.8,684.6,328.4z"/>
		
			<linearGradient id="SVGID_67_" gradientUnits="userSpaceOnUse" x1="-2712.1863" y1="-211.4445" x2="-2715.9204" y2="-241.3164" gradientTransform="matrix(-0.9402 -0.3405 -0.3405 0.9402 -1943.5809 -381.806)">
			<stop  offset="0" style="stop-color:#FEBBBA"/>
			<stop  offset="1" style="stop-color:#FF928E"/>
		</linearGradient>
		<path class="st79" d="M681.9,333.4l2-5.5c0,0,3.9-1.8,3.4,1.2S683.3,333.8,681.9,333.4z"/>
	</g>
</g>
</svg>
