<?xml version="1.0" encoding="utf-8"?>
<!-- Generator: Adobe Illustrator 24.3.0, SVG Export Plug-In . SVG Version: 6.00 Build 0)  -->
<svg version="1.1" id="Layer_1" xmlns="http://www.w3.org/2000/svg" xmlns:xlink="http://www.w3.org/1999/xlink" x="0px" y="0px"
	 viewBox="0 0 750 500" style="enable-background:new 0 0 750 500;" xml:space="preserve">
<style type="text/css">
	.st0{fill:url(#SVGID_1_);}
	.st1{fill:#FFFFFF;}
	.st2{fill:#91B3FA;}
	.st3{fill:#102D5B;}
	.st4{fill:#7D97F4;}
	.st5{fill:url(#SVGID_2_);}
	.st6{opacity:0.38;}
	.st7{fill:url(#SVGID_3_);}
	.st8{fill:url(#SVGID_4_);}
	.st9{fill:url(#SVGID_5_);}
	.st10{fill:#BDD0FB;}
	.st11{fill:#17A3B6;}
	.st12{fill:#E8E8E8;}
	.st13{fill:#003889;}
	.st14{fill:url(#SVGID_6_);}
	.st15{fill:url(#SVGID_7_);}
	.st16{fill:url(#SVGID_8_);}
	.st17{fill:url(#SVGID_9_);}
	.st18{fill:url(#SVGID_10_);}
	.st19{fill:url(#SVGID_11_);}
	.st20{fill:url(#SVGID_12_);}
	.st21{fill:url(#SVGID_13_);}
	.st22{fill:url(#SVGID_14_);}
	.st23{fill:url(#SVGID_15_);}
	.st24{fill:url(#SVGID_16_);}
	.st25{fill:url(#SVGID_17_);}
	.st26{fill:url(#SVGID_18_);}
	.st27{fill:url(#SVGID_19_);}
	.st28{fill:url(#SVGID_20_);}
	.st29{fill:url(#SVGID_21_);}
	.st30{fill:url(#SVGID_22_);}
	.st31{fill:url(#SVGID_23_);}
	.st32{fill:url(#SVGID_24_);}
	.st33{fill:url(#SVGID_25_);}
	.st34{fill:url(#SVGID_26_);}
	.st35{opacity:0.82;}
	.st36{fill:url(#SVGID_27_);}
	.st37{fill:url(#SVGID_28_);}
	.st38{fill:url(#SVGID_29_);}
	.st39{fill:url(#SVGID_30_);}
	.st40{fill:#FAF3FE;}
	.st41{fill:url(#SVGID_31_);}
	.st42{fill:url(#SVGID_32_);}
	.st43{fill:url(#SVGID_33_);}
	.st44{fill:url(#SVGID_34_);}
	.st45{fill:url(#SVGID_35_);}
	.st46{fill:url(#SVGID_36_);}
	.st47{fill:url(#SVGID_37_);}
	.st48{fill:url(#SVGID_38_);}
	.st49{fill:url(#SVGID_39_);}
	.st50{fill:url(#SVGID_40_);}
	.st51{fill:url(#SVGID_41_);}
	.st52{opacity:0.26;fill:#FFFFFF;}
	.st53{fill:url(#SVGID_42_);}
	.st54{fill:url(#SVGID_43_);}
	.st55{fill:url(#SVGID_44_);}
	.st56{fill:url(#SVGID_45_);}
	.st57{fill:url(#SVGID_46_);}
</style>
<g>
	<linearGradient id="SVGID_1_" gradientUnits="userSpaceOnUse" x1="5.0989" y1="241.9632" x2="744.8792" y2="241.9632">
		<stop  offset="0" style="stop-color:#DAE3FE"/>
		<stop  offset="1" style="stop-color:#E9EFFD"/>
	</linearGradient>
	<path class="st0" d="M155.1,36.5c-42.5,26.6-72.5,6.1-98.2,34.3c-80.1,87.9,21.4,121.3-25.8,134.8c-36.1,10.3-29.5,52.3-11.7,76.1
		C34.8,302.1,97,330.6,50,352.5C22.7,365.2,4.8,400.5,18,428.7c15.5,33.1,59.2,34.1,90.5,35.8c30.8,1.6,62,1.7,92.8,2.1
		c135.1,2,135.1,2,463.1,0c74-0.5,27-84,57-121.6s35.9-59.6-10-96.1c-46-36.5-19.8-74.2-6-100.8c13.8-26.6,24.4-74.9-31-88.6
		C619,45.8,554.6,100.7,526.7,72.8c-27.9-27.9-15.6-64.9-76.4-55.6c-60.8,9.3-81.3,81.4-134.4,77.5
		C262.9,90.7,245.1-19.9,155.1,36.5z"/>
	<g>
		<rect x="88.4" y="339.9" class="st1" width="29.6" height="128"/>
		<rect x="137.8" y="383.9" class="st1" width="29.6" height="84"/>
		<rect x="187.3" y="275.2" class="st1" width="29.6" height="192.7"/>
		<rect x="236.7" y="421.6" class="st1" width="29.6" height="46.3"/>
		<rect x="286.1" y="301" class="st1" width="29.6" height="166.9"/>
		<rect x="335.5" y="329.9" class="st1" width="29.6" height="138"/>
		<rect x="384.9" y="361.3" class="st1" width="29.6" height="106.6"/>
		<rect x="434.3" y="236.3" class="st1" width="29.6" height="231.6"/>
		<rect x="483.7" y="260.8" class="st1" width="29.6" height="207.1"/>
		<rect x="533.2" y="297.8" class="st1" width="29.6" height="170.1"/>
		<rect x="582.6" y="425.9" class="st1" width="29.6" height="42"/>
		<rect x="632" y="344.3" class="st1" width="29.6" height="123.6"/>
	</g>
	<g>
		<g>
			<path class="st2" d="M60.4,317c-0.3,0-0.6-0.1-0.8-0.4l-2.6-3.2c-0.4-0.4-0.3-1.1,0.1-1.5c0.4-0.4,1.1-0.3,1.5,0.1l2.6,3.2
				c0.4,0.4,0.3,1.1-0.1,1.5C60.8,316.9,60.6,317,60.4,317z"/>
			<path class="st2" d="M151.9,427c-0.3,0-0.6-0.1-0.8-0.4l-5.1-6.1c-0.4-0.4-0.3-1.1,0.1-1.5c0.4-0.4,1.1-0.3,1.5,0.1l5.1,6.1
				c0.4,0.4,0.3,1.1-0.1,1.5C152.4,427,152.1,427,151.9,427z M141.7,414.8c-0.3,0-0.6-0.1-0.8-0.4l-5.1-6.1
				c-0.4-0.4-0.3-1.1,0.1-1.5c0.4-0.4,1.1-0.3,1.5,0.1l5.1,6.1c0.4,0.4,0.3,1.1-0.1,1.5C142.2,414.7,142,414.8,141.7,414.8z
				 M131.6,402.6c-0.3,0-0.6-0.1-0.8-0.4l-5.1-6.1c-0.4-0.4-0.3-1.1,0.1-1.5c0.4-0.4,1.1-0.3,1.5,0.1l5.1,6.1
				c0.4,0.4,0.3,1.1-0.1,1.5C132,402.5,131.8,402.6,131.6,402.6z M121.4,390.4c-0.3,0-0.6-0.1-0.8-0.4l-5.1-6.1
				c-0.4-0.4-0.3-1.1,0.1-1.5c0.4-0.4,1.1-0.3,1.5,0.1l5.1,6.1c0.4,0.4,0.3,1.1-0.1,1.5C121.9,390.3,121.6,390.4,121.4,390.4z
				 M111.2,378.1c-0.3,0-0.6-0.1-0.8-0.4l-5.1-6.1c-0.4-0.4-0.3-1.1,0.1-1.5c0.4-0.4,1.1-0.3,1.5,0.1l5.1,6.1
				c0.4,0.4,0.3,1.1-0.1,1.5C111.7,378.1,111.5,378.1,111.2,378.1z M101,365.9c-0.3,0-0.6-0.1-0.8-0.4l-5.1-6.1
				c-0.4-0.4-0.3-1.1,0.1-1.5c0.4-0.4,1.1-0.3,1.5,0.1l5.1,6.1c0.4,0.4,0.3,1.1-0.1,1.5C101.5,365.8,101.3,365.9,101,365.9z
				 M90.9,353.7c-0.3,0-0.6-0.1-0.8-0.4l-5.1-6.1c-0.4-0.4-0.3-1.1,0.1-1.5c0.4-0.4,1.1-0.3,1.5,0.1l5.1,6.1
				c0.4,0.4,0.3,1.1-0.1,1.5C91.3,353.6,91.1,353.7,90.9,353.7z M80.7,341.5c-0.3,0-0.6-0.1-0.8-0.4l-5.1-6.1
				c-0.4-0.4-0.3-1.1,0.1-1.5c0.4-0.4,1.1-0.3,1.5,0.1l5.1,6.1c0.4,0.4,0.3,1.1-0.1,1.5C81.2,341.4,80.9,341.5,80.7,341.5z
				 M70.5,329.2c-0.3,0-0.6-0.1-0.8-0.4l-5.1-6.1c-0.4-0.4-0.3-1.1,0.1-1.5c0.4-0.4,1.1-0.3,1.5,0.1l5.1,6.1
				c0.4,0.4,0.3,1.1-0.1,1.5C71,329.2,70.8,329.2,70.5,329.2z"/>
			<path class="st2" d="M159.6,436.3c-0.3,0-0.6-0.1-0.8-0.4l-2.6-3.2c-0.4-0.4-0.3-1.1,0.1-1.5c0.4-0.4,1.1-0.3,1.5,0.1l2,2.4
				l2.5-1.9c0.5-0.3,1.1-0.2,1.4,0.2c0.3,0.5,0.2,1.1-0.2,1.4l-3.3,2.5C160.1,436.3,159.9,436.3,159.6,436.3z"/>
			<path class="st2" d="M169.5,428.9c-0.3,0-0.6-0.1-0.8-0.4c-0.3-0.5-0.2-1.1,0.2-1.4l6.6-4.9c0.5-0.3,1.1-0.2,1.4,0.2
				c0.3,0.5,0.2,1.1-0.2,1.4l-6.6,4.9C169.9,428.9,169.7,428.9,169.5,428.9z M182.7,419.1c-0.3,0-0.6-0.1-0.8-0.4
				c-0.3-0.5-0.2-1.1,0.2-1.4l6.6-4.9c0.5-0.3,1.1-0.2,1.4,0.2c0.3,0.5,0.2,1.1-0.2,1.4l-6.6,4.9C183.1,419,182.9,419.1,182.7,419.1
				z M195.8,409.3c-0.3,0-0.6-0.1-0.8-0.4c-0.3-0.5-0.2-1.1,0.2-1.4l6.6-4.9c0.5-0.3,1.1-0.2,1.4,0.2c0.3,0.5,0.2,1.1-0.2,1.4
				l-6.6,4.9C196.2,409.2,196,409.3,195.8,409.3z M209,399.5c-0.3,0-0.6-0.1-0.8-0.4c-0.3-0.5-0.2-1.1,0.2-1.4l6.6-4.9
				c0.5-0.3,1.1-0.2,1.4,0.2c0.3,0.5,0.2,1.1-0.2,1.4l-6.6,4.9C209.4,399.4,209.2,399.5,209,399.5z M222.1,389.6
				c-0.3,0-0.6-0.1-0.8-0.4c-0.3-0.5-0.2-1.1,0.2-1.4l6.6-4.9c0.5-0.3,1.1-0.2,1.4,0.2c0.3,0.5,0.2,1.1-0.2,1.4l-6.6,4.9
				C222.5,389.6,222.3,389.6,222.1,389.6z M235.3,379.8c-0.3,0-0.6-0.1-0.8-0.4c-0.3-0.5-0.2-1.1,0.2-1.4l6.6-4.9
				c0.5-0.3,1.1-0.2,1.4,0.2c0.3,0.5,0.2,1.1-0.2,1.4l-6.6,4.9C235.7,379.7,235.5,379.8,235.3,379.8z M248.4,370
				c-0.3,0-0.6-0.1-0.8-0.4c-0.3-0.5-0.2-1.1,0.2-1.4l6.6-4.9c0.5-0.3,1.1-0.2,1.4,0.2c0.3,0.5,0.2,1.1-0.2,1.4l-6.6,4.9
				C248.9,369.9,248.6,370,248.4,370z M261.6,360.1c-0.3,0-0.6-0.1-0.8-0.4c-0.3-0.5-0.2-1.1,0.2-1.4l6.6-4.9
				c0.5-0.3,1.1-0.2,1.4,0.2c0.3,0.5,0.2,1.1-0.2,1.4l-6.6,4.9C262,360.1,261.8,360.1,261.6,360.1z"/>
			<path class="st2" d="M274.7,350.3c-0.3,0-0.6-0.1-0.8-0.4c-0.3-0.5-0.2-1.1,0.2-1.4l3.3-2.5c0.3-0.2,0.7-0.3,1.1-0.1l3.7,1.8
				c0.5,0.2,0.7,0.9,0.5,1.4c-0.2,0.5-0.9,0.7-1.4,0.5l-3.2-1.5l-2.8,2.1C275.2,350.2,274.9,350.3,274.7,350.3z"/>
			<path class="st2" d="M364.4,388.9c-0.1,0-0.3,0-0.4-0.1l-6.9-3.3c-0.5-0.2-0.7-0.9-0.5-1.4c0.2-0.5,0.9-0.7,1.4-0.5l6.9,3.3
				c0.5,0.2,0.7,0.9,0.5,1.4C365.1,388.7,364.8,388.9,364.4,388.9z M350.6,382.4c-0.1,0-0.3,0-0.4-0.1l-6.9-3.3
				c-0.5-0.2-0.7-0.9-0.5-1.4c0.2-0.5,0.9-0.7,1.4-0.5l6.9,3.3c0.5,0.2,0.7,0.9,0.5,1.4C351.4,382.1,351,382.4,350.6,382.4z
				 M336.8,375.8c-0.1,0-0.3,0-0.4-0.1l-6.9-3.3c-0.5-0.2-0.7-0.9-0.5-1.4c0.2-0.5,0.9-0.7,1.4-0.5l6.9,3.3c0.5,0.2,0.7,0.9,0.5,1.4
				C337.6,375.6,337.2,375.8,336.8,375.8z M323.1,369.3c-0.1,0-0.3,0-0.4-0.1l-6.9-3.3c-0.5-0.2-0.7-0.9-0.5-1.4
				c0.2-0.5,0.9-0.7,1.4-0.5l6.9,3.3c0.5,0.2,0.7,0.9,0.5,1.4C323.8,369,323.4,369.3,323.1,369.3z M309.3,362.7
				c-0.1,0-0.3,0-0.4-0.1l-6.9-3.3c-0.5-0.2-0.7-0.9-0.5-1.4c0.2-0.5,0.9-0.7,1.4-0.5l6.9,3.3c0.5,0.2,0.7,0.9,0.5,1.4
				C310,362.5,309.7,362.7,309.3,362.7z M295.5,356.2c-0.1,0-0.3,0-0.4-0.1l-6.9-3.3c-0.5-0.2-0.7-0.9-0.5-1.4
				c0.2-0.5,0.9-0.7,1.4-0.5l6.9,3.3c0.5,0.2,0.7,0.9,0.5,1.4C296.3,355.9,295.9,356.2,295.5,356.2z"/>
			<path class="st2" d="M375,393.9c-0.1,0-0.3,0-0.4-0.1l-3.7-1.8c-0.5-0.2-0.7-0.9-0.5-1.4c0.2-0.5,0.9-0.7,1.4-0.5l3,1.4l1.9-2.6
				c0.3-0.5,1-0.6,1.4-0.2c0.5,0.3,0.6,1,0.2,1.4l-2.5,3.3C375.6,393.8,375.3,393.9,375,393.9z"/>
			<path class="st2" d="M382.4,383.9c-0.2,0-0.4-0.1-0.6-0.2c-0.5-0.3-0.6-1-0.2-1.4l5-6.7c0.3-0.5,1-0.6,1.4-0.2
				c0.5,0.3,0.6,1,0.2,1.4l-5,6.7C383,383.8,382.7,383.9,382.4,383.9z M392.4,370.5c-0.2,0-0.4-0.1-0.6-0.2c-0.5-0.3-0.6-1-0.2-1.4
				l5-6.7c0.3-0.5,1-0.6,1.4-0.2c0.5,0.3,0.6,1,0.2,1.4l-5,6.7C393,370.3,392.7,370.5,392.4,370.5z M402.3,357
				c-0.2,0-0.4-0.1-0.6-0.2c-0.5-0.3-0.6-1-0.2-1.4l5-6.7c0.3-0.5,1-0.6,1.4-0.2c0.5,0.3,0.6,1,0.2,1.4l-5,6.7
				C402.9,356.9,402.6,357,402.3,357z M412.2,343.6c-0.2,0-0.4-0.1-0.6-0.2c-0.5-0.3-0.6-1-0.2-1.4l5-6.7c0.3-0.5,1-0.6,1.4-0.2
				c0.5,0.3,0.6,1,0.2,1.4l-5,6.7C412.9,343.4,412.6,343.6,412.2,343.6z M422.2,330.1c-0.2,0-0.4-0.1-0.6-0.2
				c-0.5-0.3-0.6-1-0.2-1.4l5-6.7c0.3-0.5,1-0.6,1.4-0.2c0.5,0.3,0.6,1,0.2,1.4l-5,6.7C422.8,330,422.5,330.1,422.2,330.1z
				 M432.1,316.7c-0.2,0-0.4-0.1-0.6-0.2c-0.5-0.3-0.6-1-0.2-1.4l5-6.7c0.3-0.5,1-0.6,1.4-0.2c0.5,0.3,0.6,1,0.2,1.4l-5,6.7
				C432.8,316.5,432.4,316.7,432.1,316.7z M442.1,303.2c-0.2,0-0.4-0.1-0.6-0.2c-0.5-0.3-0.6-1-0.2-1.4l5-6.7c0.3-0.5,1-0.6,1.4-0.2
				c0.5,0.3,0.6,1,0.2,1.4l-5,6.7C442.7,303.1,442.4,303.2,442.1,303.2z M452,289.8c-0.2,0-0.4-0.1-0.6-0.2c-0.5-0.3-0.6-1-0.2-1.4
				l5-6.7c0.3-0.5,1-0.6,1.4-0.2c0.5,0.3,0.6,1,0.2,1.4l-5,6.7C452.6,289.6,452.3,289.8,452,289.8z"/>
			<path class="st2" d="M462,276.3c-0.2,0-0.4-0.1-0.6-0.2c-0.5-0.3-0.6-1-0.2-1.4l2.5-3.3c0.2-0.2,0.4-0.4,0.7-0.4
				c0.3,0,0.6,0,0.8,0.2l3.2,2.6c0.4,0.4,0.5,1,0.1,1.5c-0.4,0.4-1,0.5-1.5,0.1l-2.4-1.9l-1.8,2.4
				C462.6,276.2,462.3,276.3,462,276.3z"/>
			<path class="st2" d="M600.7,384.2c-0.2,0-0.5-0.1-0.7-0.2l-6.7-5.4c-0.4-0.4-0.5-1-0.1-1.5c0.4-0.4,1-0.5,1.5-0.1l6.7,5.4
				c0.4,0.4,0.5,1,0.1,1.5C601.3,384.1,601,384.2,600.7,384.2z M587.4,373.3c-0.2,0-0.5-0.1-0.7-0.2l-6.7-5.4
				c-0.4-0.4-0.5-1-0.1-1.5c0.4-0.4,1-0.5,1.5-0.1l6.7,5.4c0.4,0.4,0.5,1,0.1,1.5C588,373.2,587.7,373.3,587.4,373.3z M574.1,362.5
				c-0.2,0-0.5-0.1-0.7-0.2l-6.7-5.4c-0.4-0.4-0.5-1-0.1-1.5c0.4-0.4,1-0.5,1.5-0.1l6.7,5.4c0.4,0.4,0.5,1,0.1,1.5
				C574.7,362.3,574.4,362.5,574.1,362.5z M560.8,351.6c-0.2,0-0.5-0.1-0.7-0.2l-6.7-5.4c-0.4-0.4-0.5-1-0.1-1.5
				c0.4-0.4,1-0.5,1.5-0.1l6.7,5.4c0.4,0.4,0.5,1,0.1,1.5C561.4,351.5,561.1,351.6,560.8,351.6z M547.5,340.8
				c-0.2,0-0.5-0.1-0.7-0.2l-6.7-5.4c-0.4-0.4-0.5-1-0.1-1.5c0.4-0.4,1-0.5,1.5-0.1l6.7,5.4c0.4,0.4,0.5,1,0.1,1.5
				C548.1,340.6,547.8,340.8,547.5,340.8z M534.2,329.9c-0.2,0-0.5-0.1-0.7-0.2l-6.7-5.4c-0.4-0.4-0.5-1-0.1-1.5
				c0.4-0.4,1-0.5,1.5-0.1l6.7,5.4c0.4,0.4,0.5,1,0.1,1.5C534.8,329.8,534.5,329.9,534.2,329.9z M520.9,319c-0.2,0-0.5-0.1-0.7-0.2
				l-6.7-5.4c-0.4-0.4-0.5-1-0.1-1.5c0.4-0.4,1-0.5,1.5-0.1l6.7,5.4c0.4,0.4,0.5,1,0.1,1.5C521.4,318.9,521.2,319,520.9,319z
				 M507.5,308.2c-0.2,0-0.5-0.1-0.7-0.2l-6.7-5.4c-0.4-0.4-0.5-1-0.1-1.5c0.4-0.4,1-0.5,1.5-0.1l6.7,5.4c0.4,0.4,0.5,1,0.1,1.5
				C508.1,308,507.8,308.2,507.5,308.2z M494.2,297.3c-0.2,0-0.5-0.1-0.7-0.2l-6.7-5.4c-0.4-0.4-0.5-1-0.1-1.5
				c0.4-0.4,1-0.5,1.5-0.1l6.7,5.4c0.4,0.4,0.5,1,0.1,1.5C494.8,297.2,494.5,297.3,494.2,297.3z M480.9,286.5
				c-0.2,0-0.5-0.1-0.7-0.2l-6.7-5.4c-0.4-0.4-0.5-1-0.1-1.5c0.4-0.4,1-0.5,1.5-0.1l6.7,5.4c0.4,0.4,0.5,1,0.1,1.5
				C481.5,286.3,481.2,286.5,480.9,286.5z"/>
			<path class="st2" d="M610.6,392.2c-0.2,0-0.5-0.1-0.7-0.2l-3.2-2.6c-0.4-0.4-0.5-1-0.1-1.5c0.4-0.4,1-0.5,1.5-0.1l2.3,1.9
				l1.7-2.5c0.3-0.5,1-0.6,1.4-0.3c0.5,0.3,0.6,1,0.3,1.4l-2.3,3.4c-0.2,0.2-0.4,0.4-0.7,0.4C610.7,392.2,610.6,392.2,610.6,392.2z"
				/>
			<path class="st2" d="M617.4,382.1c-0.2,0-0.4-0.1-0.6-0.2c-0.5-0.3-0.6-1-0.3-1.4l4.5-6.7c0.3-0.5,1-0.6,1.4-0.3
				c0.5,0.3,0.6,1,0.3,1.4l-4.5,6.7C618.1,382,617.8,382.1,617.4,382.1z M626.5,368.8c-0.2,0-0.4-0.1-0.6-0.2
				c-0.5-0.3-0.6-1-0.3-1.4l4.5-6.7c0.3-0.5,1-0.6,1.4-0.3c0.5,0.3,0.6,1,0.3,1.4l-4.5,6.7C627.2,368.6,626.8,368.8,626.5,368.8z
				 M635.6,355.4c-0.2,0-0.4-0.1-0.6-0.2c-0.5-0.3-0.6-1-0.3-1.4l4.5-6.7c0.3-0.5,1-0.6,1.4-0.3c0.5,0.3,0.6,1,0.3,1.4l-4.5,6.7
				C636.2,355.3,635.9,355.4,635.6,355.4z M644.6,342.1c-0.2,0-0.4-0.1-0.6-0.2c-0.5-0.3-0.6-1-0.3-1.4l4.5-6.7
				c0.3-0.5,1-0.6,1.4-0.3c0.5,0.3,0.6,1,0.3,1.4l-4.5,6.7C645.3,341.9,645,342.1,644.6,342.1z M653.7,328.7c-0.2,0-0.4-0.1-0.6-0.2
				c-0.5-0.3-0.6-1-0.3-1.4l4.5-6.7c0.3-0.5,1-0.6,1.4-0.3c0.5,0.3,0.6,1,0.3,1.4l-4.5,6.7C654.3,328.5,654,328.7,653.7,328.7z
				 M662.8,315.3c-0.2,0-0.4-0.1-0.6-0.2c-0.5-0.3-0.6-1-0.3-1.4l4.5-6.7c0.3-0.5,1-0.6,1.4-0.3c0.5,0.3,0.6,1,0.3,1.4l-4.5,6.7
				C663.4,315.2,663.1,315.3,662.8,315.3z M671.8,302c-0.2,0-0.4-0.1-0.6-0.2c-0.5-0.3-0.6-1-0.3-1.4l4.5-6.7c0.3-0.5,1-0.6,1.4-0.3
				c0.5,0.3,0.6,1,0.3,1.4l-4.5,6.7C672.5,301.8,672.1,302,671.8,302z M680.9,288.6c-0.2,0-0.4-0.1-0.6-0.2c-0.5-0.3-0.6-1-0.3-1.4
				l4.5-6.7c0.3-0.5,1-0.6,1.4-0.3c0.5,0.3,0.6,1,0.3,1.4l-4.5,6.7C681.5,288.5,681.2,288.6,680.9,288.6z"/>
			<path class="st2" d="M689.9,275.3c-0.2,0-0.4-0.1-0.6-0.2c-0.5-0.3-0.6-1-0.3-1.4l2.3-3.4c0.3-0.5,1-0.6,1.4-0.3
				c0.5,0.3,0.6,1,0.3,1.4l-2.3,3.4C690.6,275.1,690.3,275.3,689.9,275.3z"/>
		</g>
		<g>
			
				<ellipse transform="matrix(0.9871 -0.1602 0.1602 0.9871 -49.9267 13.3305)" class="st3" cx="57.7" cy="316.3" rx="12.4" ry="12.4"/>
			<path class="st4" d="M53.1,321c0-5.3,4.3-9.6,9.6-9.6c1.2,0,2.4,0.2,3.5,0.7c-1.4-3.6-4.9-6.2-9-6.2c-5.3,0-9.6,4.3-9.6,9.6
				c0,4.1,2.6,7.6,6.2,9C53.4,323.4,53.1,322.3,53.1,321z"/>
		</g>
		<g>
			<linearGradient id="SVGID_2_" gradientUnits="userSpaceOnUse" x1="185.0862" y1="390.1792" x2="84.1379" y2="569.1328">
				<stop  offset="0" style="stop-color:#FE7062"/>
				<stop  offset="1" style="stop-color:#FF928E"/>
			</linearGradient>
			<circle class="st5" cx="159.6" cy="435.3" r="16.1"/>
			<g class="st6">
				<path class="st1" d="M153.7,441.4c0-6.9,5.6-12.5,12.5-12.5c1.6,0,3.1,0.3,4.5,0.9c-1.8-4.7-6.3-8-11.7-8
					c-6.9,0-12.5,5.6-12.5,12.5c0,5.3,3.3,9.8,8,11.7C154,444.5,153.7,443,153.7,441.4z"/>
			</g>
		</g>
		<g>
			<path class="st4" d="M290.4,346.8c0,6.9-5.6,12.4-12.4,12.4c-6.9,0-12.4-5.6-12.4-12.4c0-6.9,5.6-12.4,12.4-12.4
				C284.9,334.4,290.4,340,290.4,346.8z"/>
			<g class="st6">
				<linearGradient id="SVGID_3_" gradientUnits="userSpaceOnUse" x1="267.9319" y1="345.6706" x2="286.5272" y2="345.6706">
					<stop  offset="0" style="stop-color:#9CFFFB"/>
					<stop  offset="1" style="stop-color:#9BFFFA"/>
				</linearGradient>
				<path class="st7" d="M273.4,351.5c0-5.3,4.3-9.6,9.6-9.6c1.2,0,2.4,0.2,3.5,0.7c-1.4-3.6-4.9-6.2-9-6.2c-5.3,0-9.6,4.3-9.6,9.6
					c0,4.1,2.6,7.6,6.2,9C273.7,353.9,273.4,352.7,273.4,351.5z"/>
			</g>
		</g>
		<g>
			<circle class="st4" cx="375" cy="391.2" r="12.4"/>
			<g class="st6">
				<linearGradient id="SVGID_4_" gradientUnits="userSpaceOnUse" x1="364.8958" y1="390.0635" x2="383.4911" y2="390.0635">
					<stop  offset="0" style="stop-color:#9CFFFB"/>
					<stop  offset="1" style="stop-color:#9BFFFA"/>
				</linearGradient>
				<path class="st8" d="M370.4,395.9c0-5.3,4.3-9.6,9.6-9.6c1.2,0,2.4,0.2,3.5,0.7c-1.4-3.6-4.9-6.2-9-6.2c-5.3,0-9.6,4.3-9.6,9.6
					c0,4.1,2.6,7.6,6.2,9C370.6,398.3,370.4,397.1,370.4,395.9z"/>
			</g>
		</g>
		<g>
			
				<ellipse transform="matrix(0.9239 -0.3827 0.3827 0.9239 -68.7235 198.4211)" class="st4" cx="464.4" cy="272" rx="12.4" ry="12.4"/>
			<g class="st6">
				<linearGradient id="SVGID_5_" gradientUnits="userSpaceOnUse" x1="454.3107" y1="270.8178" x2="472.9058" y2="270.8178">
					<stop  offset="0" style="stop-color:#9CFFFB"/>
					<stop  offset="1" style="stop-color:#9BFFFA"/>
				</linearGradient>
				<path class="st9" d="M459.8,276.6c0-5.3,4.3-9.6,9.6-9.6c1.2,0,2.4,0.2,3.5,0.7c-1.4-3.6-4.9-6.2-9-6.2c-5.3,0-9.6,4.3-9.6,9.6
					c0,4.1,2.6,7.6,6.2,9C460,279,459.8,277.9,459.8,276.6z"/>
			</g>
		</g>
		<g>
			<circle class="st3" cx="692.3" cy="270.8" r="12.4"/>
			<path class="st4" d="M687.7,275.5c0-5.3,4.3-9.6,9.6-9.6c1.2,0,2.4,0.2,3.5,0.7c-1.4-3.6-4.9-6.2-9-6.2c-5.3,0-9.6,4.3-9.6,9.6
				c0,4.1,2.6,7.6,6.2,9C687.9,277.9,687.7,276.7,687.7,275.5z"/>
		</g>
		<g>
			<circle class="st4" cx="610.6" cy="391.2" r="12.4"/>
			<path class="st2" d="M606,395.9c0-5.3,4.3-9.6,9.6-9.6c1.2,0,2.4,0.2,3.5,0.7c-1.4-3.6-4.9-6.2-9-6.2c-5.3,0-9.6,4.3-9.6,9.6
				c0,4.1,2.6,7.6,6.2,9C606.2,398.3,606,397.1,606,395.9z"/>
		</g>
	</g>
	<g>
		<path class="st2" d="M293.9,467.9c0,0-40.5-50.8-43.3-97.9c-2.7-47.1,7.4-15.8,13.7,6.6c6.4,22.4,14.4,37.3,20.2,41.4
			c5.8,4.1-14.3-29.5-20.3-65c-6-35.5-5.4-57.6,3.9-37.4c9.3,20.2,15.5,56.6,25.7,76.7c10.2,20.1,3-3.7,2-16.4
			c-1-12.7-2.4-36.9,7.8-37c10.2-0.1,7.4,32.6,18.5,58.5c11.1,26,58.9,70.3,58.9,70.3H293.9z"/>
		<path class="st10" d="M254.5,358.2c1.1,4.8,2.3,9.5,3.6,14.2c0.3,1.2,0.7,2.3,1,3.5l1,3.5l2.1,7c2.8,9.3,6,18.5,9.4,27.5
			c3.4,9.1,7.2,17.9,11.2,26.6l3.1,6.5c0.3,0.5,0.5,1.1,0.8,1.6l0.8,1.6l1.7,3.2l1.6,3.2c0.6,1.1,1.2,2.1,1.8,3.1
			c1.2,2.1,2.4,4.1,3.5,6.2l0,0c0.1,0.1,0,0.3-0.1,0.4c-0.1,0.1-0.2,0-0.3-0.1c-1.3-2-2.6-4-3.9-6c-0.6-1-1.3-2-1.9-3l-1.8-3.1
			l-1.8-3.1l-0.9-1.6c-0.3-0.5-0.6-1-0.9-1.6l-3.3-6.4c-1.1-2.1-2.1-4.3-3.1-6.5l-1.5-3.3c-0.2-0.6-0.5-1.1-0.7-1.7l-0.7-1.7
			l-2.8-6.7c-0.9-2.3-1.7-4.5-2.6-6.8c-3.4-9.1-6.4-18.4-9.1-27.8c-0.7-2.4-1.3-4.7-1.9-7.1c-0.6-2.4-1.2-4.7-1.8-7.1l-0.8-3.6
			l-0.8-3.6c-0.5-2.4-1-4.8-1.4-7.2c0-0.1,0.1-0.3,0.2-0.3C254.4,358,254.5,358.1,254.5,358.2L254.5,358.2z"/>
		<path class="st10" d="M267,327.5c3.5,11.8,7.1,23.5,10.7,35.2c3.6,11.7,7.3,23.4,11.2,35c1.9,5.8,3.9,11.6,5.9,17.3l1.5,4.3
			c0.5,1.4,1,2.9,1.5,4.3l1.5,4.3l1.6,4.3c1.1,2.8,2.1,5.7,3.2,8.5c0.5,1.4,1.1,2.8,1.7,4.2c0.6,1.4,1.1,2.8,1.7,4.2
			c2.3,5.6,4.7,11.1,7.4,16.5c0.1,0.1,0,0.3-0.1,0.4c-0.1,0.1-0.2,0-0.3-0.1c-3.3-5-6.2-10.3-8.8-15.8c-1.3-2.7-2.6-5.5-3.8-8.3
			c-1.2-2.8-2.4-5.6-3.6-8.4c-4.6-11.3-8.6-22.9-12.4-34.6c-3.8-11.7-7.2-23.5-10.5-35.3c-3.2-11.9-6.3-23.8-8.9-35.9
			c0-0.1,0-0.3,0.2-0.3C266.8,327.3,266.9,327.4,267,327.5z"/>
		<path class="st10" d="M303.1,358.3c1,4.8,1.5,9.7,2,14.5c0.2,2.4,0.5,4.8,0.8,7.1c0.2,1.2,0.3,2.4,0.5,3.5
			c0.1,0.6,0.2,1.2,0.3,1.8l0.3,1.8c0.3,2.3,0.9,4.6,1.4,7c0.1,0.3,0.1,0.6,0.2,0.9l0.2,0.9l0.5,1.7l0.9,3.4l2.1,6.8l2.4,6.7
			c3.4,8.8,7.2,17.5,11.2,26c1,2.2,2.1,4.2,3.1,6.4l3.1,6.4c2.1,4.2,4.3,8.4,6.4,12.6l0,0c0.1,0.1,0,0.3-0.1,0.3
			c-0.1,0.1-0.2,0-0.3-0.1c-2.5-4-4.9-7.9-7.4-12c-2.3-4.1-4.7-8.1-6.9-12.3c-1.1-2.1-2.2-4.2-3.3-6.3l-0.8-1.6
			c-0.3-0.5-0.5-1.1-0.8-1.6l-1.5-3.2c-2.1-4.3-4-8.7-5.8-13.1c-3.6-8.9-6.6-18.3-8.3-28l-0.3-1.8c-0.1-0.6-0.2-1.2-0.3-1.8
			c-0.1-1.2-0.3-2.5-0.4-3.7c-0.1-1.2-0.2-2.5-0.2-3.7c-0.1-1.2-0.1-2.5-0.1-3.7c0-4.9,0.2-9.8,0.5-14.7c0-0.1,0.1-0.3,0.2-0.2
			C303,358.1,303.1,358.2,303.1,358.3z"/>
	</g>
	<g>
		<g>
			<g>
				<path class="st2" d="M191.9,70c-0.6,0.2-1.2,0-1.6-0.5c-0.9-1.4-1.9-2.8-2.9-4.2c-0.4-0.6-0.3-1.4,0.3-1.8
					c0.6-0.4,1.4-0.3,1.8,0.3c1.1,1.4,2.1,2.9,3,4.3c0.4,0.6,0.2,1.4-0.4,1.8C192,69.9,192,69.9,191.9,70z"/>
				<path class="st2" d="M165.9,170.8c-0.6,0.2-1.3,0-1.6-0.6c-0.3-0.6-0.1-1.4,0.5-1.8c3.2-1.7,6.3-3.7,9.2-5.9
					c0.6-0.4,1.4-0.3,1.8,0.2c0.4,0.6,0.3,1.4-0.2,1.8c-3,2.3-6.2,4.3-9.5,6.1C166,170.7,165.9,170.8,165.9,170.8z M149,177.2
					c-0.1,0-0.1,0-0.2,0.1c-3.7,0.9-7.4,1.5-11.2,1.8c-0.7,0.1-1.3-0.5-1.4-1.2c-0.1-0.7,0.5-1.3,1.2-1.4c3.6-0.3,7.2-0.9,10.8-1.8
					c0.7-0.2,1.4,0.3,1.6,1C150,176.4,149.6,177,149,177.2z M188.1,152.1c-0.4,0.2-0.9,0.1-1.3-0.2c-0.6-0.4-0.7-1.3-0.2-1.8
					c2.2-2.9,4.3-5.9,6-9.1c0.3-0.6,1.1-0.9,1.8-0.5c0.6,0.3,0.9,1.1,0.5,1.8c-1.8,3.3-3.9,6.5-6.3,9.4
					C188.4,151.9,188.3,152,188.1,152.1z M200.9,126.1c-0.2,0.1-0.5,0.1-0.8,0c-0.7-0.2-1.1-0.9-0.9-1.6c0.9-3.5,1.6-7.1,1.9-10.8
					c0.1-0.7,0.7-1.2,1.4-1.2c0.7,0.1,1.2,0.7,1.2,1.4c-0.4,3.7-1,7.5-2,11.2C201.6,125.6,201.3,125.9,200.9,126.1z M202.3,97.1
					c-0.1,0-0.2,0.1-0.3,0.1c-0.7,0.1-1.4-0.4-1.5-1.1c-0.5-3-1.2-6-2-8.9c-0.2-0.6-0.4-1.2-0.5-1.7c-0.2-0.7,0.2-1.4,0.8-1.6
					c0.7-0.2,1.4,0.1,1.6,0.8c0.2,0.6,0.4,1.2,0.6,1.8c0.9,3,1.6,6.1,2.1,9.2C203.2,96.3,202.8,96.9,202.3,97.1z"/>
				<path class="st2" d="M119.9,178.2c-0.2,0.1-0.5,0.1-0.7,0.1c-1.7-0.3-3.5-0.7-5.2-1.1c-0.7-0.2-1.1-0.9-0.9-1.6
					c0.2-0.7,0.9-1.1,1.6-0.9c1.6,0.4,3.3,0.8,5,1.1c0.7,0.1,1.2,0.8,1.1,1.5C120.7,177.7,120.3,178,119.9,178.2z"/>
			</g>
			<g>
				<path class="st2" d="M72.1,146c-0.6,0.2-1.2,0-1.6-0.5c-0.9-1.5-1.8-3-2.6-4.6c-0.3-0.6-0.1-1.4,0.5-1.8
					c0.7-0.3,1.4-0.1,1.8,0.5c0.8,1.5,1.6,3,2.5,4.4c0.4,0.6,0.2,1.4-0.4,1.8C72.3,146,72.2,146,72.1,146z"/>
				<path class="st2" d="M63.3,124.9c-0.1,0-0.1,0-0.2,0.1c-0.7,0.2-1.4-0.3-1.6-1c-0.9-3.6-1.5-7.3-1.8-11
					c-0.1-0.7,0.5-1.3,1.2-1.4c0.7-0.1,1.3,0.5,1.4,1.2c0.3,3.6,0.9,7.1,1.7,10.6C64.2,124,63.9,124.7,63.3,124.9z M62.3,96.4
					c-0.2,0.1-0.5,0.1-0.7,0.1c-0.7-0.1-1.2-0.8-1.1-1.5c0.6-3.6,1.5-7.3,2.7-10.8c0.2-0.7,1-1,1.6-0.8c0.7,0.2,1,1,0.8,1.6
					c-1.1,3.4-2,6.9-2.6,10.4C63,95.8,62.7,96.2,62.3,96.4z M72.7,69.8c-0.4,0.2-0.8,0.1-1.2-0.1c-0.6-0.4-0.8-1.2-0.4-1.8
					c2-3.1,4.3-6.1,6.7-8.9c0.5-0.5,1.3-0.6,1.8-0.1c0.5,0.5,0.6,1.3,0.1,1.8c-2.4,2.7-4.6,5.5-6.5,8.5
					C73.2,69.5,72.9,69.7,72.7,69.8z M130,37.4c-0.1,0.1-0.3,0.1-0.4,0.1c-3.6,0.1-7.2,0.5-10.7,1.2c-0.7,0.1-1.4-0.3-1.5-1
					c-0.1-0.7,0.3-1.4,1-1.5c3.6-0.7,7.4-1.1,11.1-1.2c0.7,0,1.3,0.5,1.3,1.3C130.8,36.7,130.5,37.2,130,37.4z M92.7,49.4
					c-0.6,0.2-1.2,0-1.6-0.5c-0.4-0.6-0.2-1.4,0.4-1.8c3.1-2.1,6.3-3.9,9.7-5.5c0.6-0.3,1.4,0,1.7,0.6c0.3,0.6,0,1.4-0.6,1.7
					c-3.2,1.5-6.4,3.3-9.4,5.3C92.9,49.4,92.8,49.4,92.7,49.4z"/>
				<path class="st2" d="M152.8,40.4c-0.3,0.1-0.6,0.1-0.9,0c-1.6-0.5-3.3-0.9-4.9-1.3c-0.7-0.2-1.1-0.9-1-1.6
					c0.2-0.7,0.9-1.1,1.6-1c1.7,0.4,3.4,0.8,5.1,1.4c0.7,0.2,1.1,0.9,0.9,1.6C153.4,40,153.1,40.3,152.8,40.4z"/>
			</g>
			<g>
				<path class="st11" d="M154,57.4c-0.3-0.2-0.7-0.1-1,0.1l-7.8,6.8c-4.6-1.4-9.5-2.1-14.5-2l-5.8-8.6c-0.2-0.3-0.6-0.4-0.9-0.3
					l-12,3.2c-0.4,0.1-0.6,0.4-0.6,0.8l-0.8,10.3c-4.4,2.3-8.3,5.3-11.6,8.9l-10.2-2c-0.4-0.1-0.7,0.1-0.9,0.4l-6.3,10.7
					c-0.2,0.3-0.1,0.7,0.1,1l6.8,7.8c-1.4,4.6-2.1,9.5-2,14.5l-8.6,5.8c-0.3,0.2-0.4,0.6-0.3,0.9l3.2,12c0.1,0.4,0.4,0.6,0.8,0.6
					l10.3,0.8c2.3,4.4,5.3,8.3,8.9,11.6l-2,10.2c-0.1,0.4,0.1,0.7,0.4,0.9l10.7,6.3c0.3,0.2,0.7,0.1,1-0.1l7.8-6.8
					c4.6,1.4,9.5,2.1,14.5,2l5.8,8.6c0.2,0.3,0.6,0.4,0.9,0.3l12-3.2c0.4-0.1,0.6-0.4,0.6-0.8l0.8-10.3c4.4-2.3,8.3-5.3,11.6-8.9
					l10.2,2c0.4,0.1,0.7-0.1,0.9-0.4l6.2-10.7c0.2-0.3,0.1-0.7-0.1-1l-6.8-7.8c1.4-4.6,2.1-9.5,2-14.5l8.6-5.8
					c0.3-0.2,0.4-0.6,0.3-0.9l-3.2-12c-0.1-0.4-0.4-0.6-0.8-0.6L172,86.3c-2.3-4.4-5.3-8.3-8.9-11.6l2-10.2c0.1-0.4-0.1-0.7-0.4-0.9
					L154,57.4z"/>
				<g>
					<path class="st10" d="M136.7,119.7c-2.7,1.1-5.6,1.2-8.4,0.4c-3.3-1-6.1-3.2-7.8-6.2c-3.5-6.3-1.2-14.2,5.1-17.6l0,0
						c6.3-3.5,14.2-1.2,17.6,5.1c3.5,6.3,1.2,14.2-5.1,17.6C137.7,119.3,137.2,119.5,136.7,119.7z M127.5,99.7
						c-2.1,1.2-3.7,3.1-4.3,5.4c-0.7,2.3-0.4,4.8,0.8,6.9c2.4,4.4,8,6,12.3,3.5c4.4-2.4,6-8,3.5-12.3
						C137.4,98.9,131.9,97.3,127.5,99.7L127.5,99.7z"/>
				</g>
				<g>
					<path class="st10" d="M143.6,137.6c-1.2,0.5-2.4,0.9-3.7,1.2c-15.8,4.2-31.9-4.3-37.8-19.1c-0.5-1.2-0.9-2.4-1.2-3.7
						c-4.5-17,5.7-34.5,22.7-39l0,0c2.1-0.5,4.2-0.9,6.3-1c0.1,0,0.3,0,0.4,0l0.2,3.9c-2,0.1-4,0.4-5.9,0.9l0,0
						c-9.8,2.6-17.1,10.2-19.8,19.3c-1.3,4.6-1.5,9.5-0.3,14.5c0,0,0,0.1,0,0.1c0,0.1,0.1,0.3,0.1,0.4c0.3,1.1,0.6,2.2,1.1,3.2
						c5.2,13,19.4,20.4,33.2,16.7c14.9-3.9,23.9-19.3,19.9-34.3c-0.3-1.1-0.6-2.2-1.1-3.2c-1.4-3.6-3.6-7-6.5-9.7l2.7-2.8
						c3.2,3.1,5.7,6.9,7.4,11.1c0.5,1.2,0.9,2.4,1.2,3.6C166.8,115.5,158.4,131.7,143.6,137.6z"/>
				</g>
			</g>
		</g>
		<g>
			<path class="st11" d="M87.1,162.4l-4.1,4.1c-2.6-0.6-5.4-0.8-8.2-0.5l-3.6-4.5c-0.1-0.2-0.3-0.2-0.5-0.2l-6.6,2.3
				c-0.2,0.1-0.3,0.2-0.3,0.5l0,5.8c-2.4,1.5-4.4,3.4-6.1,5.5l-5.8-0.7c-0.2,0-0.4,0.1-0.5,0.3l-3,6.3c-0.1,0.2-0.1,0.4,0.1,0.5
				l4.1,4.1c-0.6,2.6-0.8,5.4-0.5,8.2l-4.5,3.6c-0.2,0.1-0.2,0.3-0.2,0.5l2.3,6.6c0.1,0.2,0.2,0.3,0.5,0.3l5.8,0
				c1.5,2.4,3.4,4.4,5.5,6.1l-0.7,5.8c0,0.2,0.1,0.4,0.3,0.5l6.3,3c0.2,0.1,0.4,0.1,0.5-0.1l4.1-4.1c2.6,0.6,5.4,0.8,8.2,0.5
				l3.6,4.5c0.1,0.2,0.3,0.2,0.5,0.2L91,219c0.2-0.1,0.3-0.2,0.3-0.5l0-5.8c2.4-1.5,4.4-3.4,6.1-5.5l5.8,0.7c0.2,0,0.4-0.1,0.5-0.3
				l3-6.3c0.1-0.2,0.1-0.4-0.1-0.5l-4.1-4.1c0.6-2.6,0.8-5.4,0.5-8.2l4.5-3.6c0.2-0.1,0.2-0.3,0.2-0.5l-2.3-6.6
				c-0.1-0.2-0.2-0.3-0.5-0.3l-5.8,0c-1.5-2.4-3.4-4.4-5.5-6.1l0.7-5.8c0-0.2-0.1-0.4-0.3-0.5l-6.3-3
				C87.5,162.2,87.2,162.2,87.1,162.4z"/>
			<g>
				<path class="st10" d="M80.5,198.9c-3.5,1.4-7.6,0.2-9.8-3.1c-2.5-3.7-1.4-8.8,2.3-11.3c3.7-2.5,8.8-1.4,11.3,2.3
					c2.5,3.7,1.4,8.8-2.3,11.3C81.6,198.4,81.1,198.7,80.5,198.9z M76,187.4c-0.3,0.1-0.5,0.2-0.8,0.4c-1.9,1.3-2.5,3.9-1.2,5.9
					c1.3,1.9,3.9,2.5,5.9,1.2c1.9-1.3,2.5-3.9,1.2-5.9C79.9,187.3,77.8,186.7,76,187.4z"/>
			</g>
			<g>
				<path class="st2" d="M104,165.8c-0.5,0.2-1,0.1-1.4-0.3c-1.2-1.2-2.5-2.2-3.8-3.2c-0.6-0.4-0.7-1.2-0.3-1.8
					c0.4-0.6,1.2-0.7,1.8-0.3c1.4,1.1,2.8,2.2,4.1,3.5c0.5,0.5,0.5,1.3,0,1.8C104.3,165.6,104.2,165.7,104,165.8z"/>
				<path class="st2" d="M102.2,221c-0.5,0.2-1.1,0.1-1.5-0.4c-0.5-0.5-0.4-1.4,0.2-1.8c2.9-2.5,5.4-5.4,7.4-8.6
					c0.4-0.6,1.2-0.8,1.8-0.4c0.6,0.4,0.8,1.2,0.4,1.8c-2.1,3.5-4.8,6.6-8,9.3C102.4,220.9,102.3,221,102.2,221z M115.3,193.8
					c-0.2,0.1-0.3,0.1-0.5,0.1c-0.7,0-1.3-0.6-1.3-1.3c0.1-3.8-0.3-7.6-1.4-11.3c-0.2-0.7,0.2-1.4,0.9-1.6c0.7-0.2,1.4,0.2,1.6,0.9
					c1.1,3.9,1.7,8,1.5,12.1C116.1,193.2,115.8,193.6,115.3,193.8z"/>
				<path class="st2" d="M84.9,229.2c-0.1,0-0.2,0.1-0.2,0.1c-1.8,0.3-3.6,0.5-5.3,0.6c-0.7,0-1.3-0.5-1.4-1.2
					c0-0.7,0.5-1.3,1.2-1.4c1.7-0.1,3.3-0.3,5-0.6c0.7-0.1,1.4,0.3,1.5,1C85.9,228.4,85.5,229,84.9,229.2z"/>
			</g>
			<g>
				<path class="st2" d="M53.5,220.7c-0.4,0.2-1,0.1-1.3-0.2c-1.3-1.2-2.6-2.5-3.8-3.8c-0.5-0.5-0.4-1.4,0.1-1.8
					c0.5-0.5,1.4-0.4,1.8,0.1c1.1,1.3,2.3,2.5,3.5,3.6c0.5,0.5,0.6,1.3,0.1,1.8C53.9,220.5,53.7,220.6,53.5,220.7z"/>
				<path class="st2" d="M41.5,200.3c-0.1,0-0.1,0-0.2,0.1c-0.7,0.1-1.4-0.3-1.5-1c-0.8-3.9-1-8-0.6-12c0.1-0.7,0.7-1.2,1.4-1.2
					c0.7,0.1,1.2,0.7,1.2,1.4c-0.4,3.7-0.2,7.5,0.6,11.2C42.4,199.4,42.1,200,41.5,200.3z M47.4,171.1c-0.4,0.2-0.9,0.1-1.2-0.1
					c-0.6-0.4-0.7-1.2-0.3-1.8c2.3-3.3,5.1-6.2,8.3-8.6c0.6-0.4,1.4-0.3,1.8,0.3c0.4,0.6,0.3,1.4-0.3,1.8c-3,2.3-5.6,5-7.8,8.1
					C47.9,170.9,47.7,171,47.4,171.1z"/>
				<path class="st2" d="M78,155.2c-0.1,0.1-0.3,0.1-0.5,0.1c-1.7,0-3.3,0.1-5,0.3c-0.7,0.1-1.4-0.4-1.5-1.1
					c-0.1-0.7,0.4-1.4,1.1-1.5c1.8-0.2,3.6-0.4,5.4-0.4c0.7,0,1.3,0.6,1.3,1.3C78.8,154.6,78.5,155,78,155.2z"/>
			</g>
			<g>
				<path class="st10" d="M84.4,208.9c-0.2,0.1-0.5,0.2-0.7,0.3c-4.7,1.7-9.8,1.4-14.3-0.8c-4.3-2.1-7.6-5.6-9.3-10
					c-0.1-0.2-0.2-0.5-0.3-0.7c-1.7-4.7-1.4-9.8,0.8-14.3c2.2-4.5,6-7.9,10.7-9.6l0,0c0.3-0.1,0.6-0.2,0.9-0.3
					c0.8-0.2,1.7-0.4,2.5-0.6c0,0,0,0,0,0c0.1,0,0.3,0,0.4-0.1l0.5,3.9c-1,0.1-2.1,0.4-3.1,0.7l0,0c-3.7,1.3-6.8,4-8.5,7.6
					c-1.7,3.6-1.9,7.6-0.6,11.3c0.1,0.2,0.1,0.4,0.2,0.6c1.4,3.5,4,6.3,7.4,7.9c3.6,1.7,7.6,1.9,11.3,0.6c3.7-1.3,6.7-4,8.5-7.6
					c1.7-3.6,1.9-7.6,0.6-11.3c-0.1-0.2-0.1-0.4-0.2-0.6c-0.9-2.3-2.4-4.3-4.3-5.9l2.5-3c2.4,2,4.3,4.6,5.4,7.5
					c0.1,0.2,0.2,0.5,0.3,0.7c1.7,4.7,1.4,9.8-0.8,14.3C92.3,203.9,88.8,207.1,84.4,208.9z"/>
			</g>
		</g>
	</g>
	<g>
		<g>
			<polygon class="st3" points="335.2,350.8 324.3,448.3 450.3,448.3 433.9,350.8 			"/>
			<path class="st3" d="M147.5,86.2c-13.4,0.3-24.1,11.2-24.1,24.6v223.2c0,18.4,14.6,33.4,33,33.8c81.5,2.1,366.6,7.2,444.2,6.1
				c13.3-0.2,24.1-10.9,24.5-24.2c1.5-51.8,3.9-176.5-5.1-234.4c-1.9-12.2-12.2-21.3-24.5-21.7C527.2,91.3,225,84.4,147.5,86.2z"/>
			<path class="st12" d="M152.9,94.5c-8.5-0.2-15.5,6.6-15.5,15.1v212c0,10.7,8.6,19.5,19.3,19.6l432.7,5.3
				c10.6,0.2,19.3-8.4,19.4-19l0.7-210.1c0-7.6-6-13.8-13.6-14L152.9,94.5z"/>
			<path class="st4" d="M612,355.4L612,355.4l-474.6-8.1c-0.4,0-0.7-0.3-0.7-0.7c0-0.4,0.3-0.7,0.7-0.7l474.6,8.1
				c0.4,0,0.7,0.3,0.7,0.7C612.7,355.1,612.4,355.4,612,355.4z"/>
			<path class="st3" d="M477.5,468.2H293c-5,0-8.8-3.6-7.8-7.4l2.4-9.4c0.7-2.8,3.8-4.9,7.5-5l177.8-5.5c3.8-0.1,7.2,1.9,8.1,4.8
				l4.3,14.9C486.4,464.5,482.6,468.2,477.5,468.2z"/>
			<path class="st4" d="M392.3,449.1c-0.4,0-0.7-0.3-0.7-0.7c0-0.4,0.3-0.7,0.7-0.7l7.6-0.1c0.4,0,0.7,0.3,0.7,0.7
				c0,0.4-0.3,0.7-0.7,0.7L392.3,449.1C392.3,449.1,392.3,449.1,392.3,449.1z"/>
			<path class="st4" d="M292,463.1c0,0-0.1,0-0.1,0c-0.4-0.1-0.6-0.4-0.6-0.8l1.1-6.8c0.6-3.7,3.7-6.4,7.5-6.5l80.8-1.2
				c0.4,0,0.7,0.3,0.7,0.7c0,0.4-0.3,0.7-0.7,0.7l-80.8,1.2c-3.1,0-5.7,2.3-6.1,5.3l-1.1,6.8C292.7,462.9,292.4,463.1,292,463.1z"/>
		</g>
		<g>
			<path class="st4" d="M595,238.7C595,238.7,595,238.7,595,238.7c-0.6,0-1-0.5-1-1l0.3-17.4c0-0.5,0.4-0.9,1-1c0.5,0,1,0.5,1,1
				l-0.3,17.4C596,238.3,595.6,238.7,595,238.7z"/>
			<path class="st4" d="M595.6,196.2C595.6,196.2,595.6,196.2,595.6,196.2c-0.6,0-1-0.5-1-1l1-66.5c0-4-1.2-7.1-3.6-9.4
				c-4.4-4.2-11.4-4-11.7-4L457.5,112c-0.5,0-1-0.5-0.9-1c0-0.5,0.4-0.9,1-0.9c0,0,0,0,0,0l122.8,3.3c0.8,0,8.1-0.2,13.1,4.5
				c2.8,2.6,4.2,6.3,4.2,10.8l-1,66.5C596.6,195.8,596.2,196.2,595.6,196.2z"/>
		</g>
		<g>
			<path class="st11" d="M415.5,195.4c0,10.5-8.6,19.1-19.1,19.1h-42.9c-10.5,0-19.1-8.6-19.1-19.1v-0.3c0-10.5,8.6-19.1,19.1-19.1
				h42.9c10.5,0,19.1,8.6,19.1,19.1V195.4z"/>
			<g>
				<path class="st11" d="M268.5,195.4c0,10.5-8.6,19.1-19.1,19.1h-42.9c-10.5,0-19.1-8.6-19.1-19.1v-0.3c0-10.5,8.6-19.1,19.1-19.1
					h42.9c10.5,0,19.1,8.6,19.1,19.1V195.4z"/>
				<path class="st11" d="M561.9,195.4c0,10.5-8.6,19.1-19.1,19.1h-42.9c-10.5,0-19.1-8.6-19.1-19.1v-0.3c0-10.5,8.6-19.1,19.1-19.1
					h42.9c10.5,0,19.1,8.6,19.1,19.1V195.4z"/>
			</g>
			<path class="st11" d="M415.5,274.4c0,10.5-8.6,19.1-19.1,19.1h-42.9c-10.5,0-19.1-8.6-19.1-19.1v-0.3c0-10.5,8.6-19.1,19.1-19.1
				h42.9c10.5,0,19.1,8.6,19.1,19.1V274.4z"/>
			<g>
				<path class="st11" d="M268.5,274.4c0,10.5-8.6,19.1-19.1,19.1h-42.9c-10.5,0-19.1-8.6-19.1-19.1v-0.3c0-10.5,8.6-19.1,19.1-19.1
					h42.9c10.5,0,19.1,8.6,19.1,19.1V274.4z"/>
				<path class="st11" d="M561.9,274.4c0,10.5-8.6,19.1-19.1,19.1h-42.9c-10.5,0-19.1-8.6-19.1-19.1v-0.3c0-10.5,8.6-19.1,19.1-19.1
					h42.9c10.5,0,19.1,8.6,19.1,19.1V274.4z"/>
			</g>
		</g>
		<g>
			<path class="st4" d="M268.5,109.3c0-1.9-1.5-3.4-3.4-3.4H157.8c-1.9,0-3.4,1.5-3.4,3.4l0,0c0,1.9,1.5,3.4,3.4,3.4H265
				C266.9,112.7,268.5,111.2,268.5,109.3L268.5,109.3z"/>
			<path class="st4" d="M240.3,121.6c0-1.9-1.5-3.4-3.4-3.4h-79c-1.9,0-3.4,1.5-3.4,3.4l0,0c0,1.9,1.5,3.4,3.4,3.4h79
				C238.7,125.1,240.3,123.5,240.3,121.6L240.3,121.6z"/>
			<path class="st4" d="M240.3,134.7c0-1.9-1.5-3.4-3.4-3.4h-79c-1.9,0-3.4,1.5-3.4,3.4l0,0c0,1.9,1.5,3.4,3.4,3.4h79
				C238.7,138.1,240.3,136.6,240.3,134.7L240.3,134.7z"/>
		</g>
	</g>
	<g>
		<g>
			<path class="st13" d="M667.7,94.1c-0.5,0-0.9-0.4-0.9-0.9c-0.1-4.9-1.6-29.3-23.1-34.4c-23.9-5.7-34.9,18.7-34.9,18.7
				s-29.6-11.4-35.3,19.1c-18.6,4.5-23.4,28.7-11.3,40.6c1.9,1.9,4.5,2.9,7.2,3l116.3,1c3.4,0,6.4-2.2,7.4-5.5
				C696.8,123.4,701.5,94.9,667.7,94.1z"/>
			<path class="st11" d="M665.1,94.6c-0.5,0-0.9-0.4-0.9-0.9c-0.1-4.7-1.6-27.4-21.9-32.1c-22.6-5.3-33,17.4-33,17.4
				s-28-10.6-33.4,17.8c-17.4,4.1-22,26.4-11,37.6c1.9,2,4.6,3.1,7.3,3.1l109.5,1c3.4,0,6.5-2.2,7.4-5.5
				C692.6,121.4,696.6,95.4,665.1,94.6z"/>
		</g>
		<g>
			<path class="st13" d="M522,52.5c-0.3,0-0.5-0.2-0.5-0.5c-0.1-3-1-17.7-14-20.8c-14.5-3.4-21.1,11.3-21.1,11.3
				s-17.9-6.9-21.3,11.5c-11.2,2.7-14.1,17.3-6.8,24.5c1.2,1.1,2.7,1.8,4.3,1.8l70.2,0.6c2.1,0,3.9-1.3,4.5-3.3
				C539.5,70.2,542.4,53,522,52.5z"/>
			<path class="st11" d="M520.4,52.8c-0.3,0-0.5-0.2-0.5-0.5c-0.1-2.8-1-16.5-13.2-19.4c-13.7-3.2-19.9,10.5-19.9,10.5
				s-16.9-6.4-20.2,10.8c-10.5,2.5-13.3,15.9-6.7,22.7c1.2,1.2,2.8,1.9,4.4,1.9l66.1,0.6c2.1,0,3.9-1.3,4.5-3.3
				C537,69,539.5,53.3,520.4,52.8z"/>
		</g>
	</g>
	<g>
		
			<linearGradient id="SVGID_6_" gradientUnits="userSpaceOnUse" x1="-1199.665" y1="618.1107" x2="-1177.0657" y2="564.8168" gradientTransform="matrix(-1 0 0 1 -541.016 0)">
			<stop  offset="0" style="stop-color:#09005D"/>
			<stop  offset="1" style="stop-color:#1A0F91"/>
		</linearGradient>
		<path class="st14" d="M607.8,462.5c0,0,0.8,4.4,1.2,8.7c0.1,1.7-1.2,3.2-2.9,3.2c-5.8,0.2-18.1,0.7-22.6,0.5
			c-0.7,0-1.1-0.7-0.9-1.3l0,0c0.2-0.5,0.6-0.9,1.1-1.2l20.4-9.4L607.8,462.5z"/>
		
			<linearGradient id="SVGID_7_" gradientUnits="userSpaceOnUse" x1="-1149.4025" y1="462.5044" x2="-1142.7625" y2="462.5044" gradientTransform="matrix(-1 0 0 1 -541.016 0)">
			<stop  offset="0" style="stop-color:#FF928E"/>
			<stop  offset="1" style="stop-color:#FEB3B1"/>
		</linearGradient>
		<path class="st15" d="M608.4,459.9l-0.6,5.2c0,0-3.6,1.7-6-0.2l1.5-5.8L608.4,459.9z"/>
		
			<linearGradient id="SVGID_8_" gradientUnits="userSpaceOnUse" x1="-1478.2737" y1="604.3881" x2="-1366.9688" y2="538.111" gradientTransform="matrix(-1 0 0 1 -541.016 0)">
			<stop  offset="0" style="stop-color:#09005D"/>
			<stop  offset="1" style="stop-color:#1A0F91"/>
		</linearGradient>
		<path class="st16" d="M607.9,361.4c0.3,1.4,1.4,68.3-5.7,98.3c-0.1,0.5,0.1,1,0.6,1.2c1.1,0.4,3.2,1.1,5.8,1.2
			c0.8,0,1.5-0.5,1.7-1.3c2-7,11.8-41.8,13.1-75.2c1.4-37.2,0-1.3,0-1.3l-0.8-23L607.9,361.4z"/>
		
			<linearGradient id="SVGID_9_" gradientUnits="userSpaceOnUse" x1="-1226.4092" y1="606.7706" x2="-1203.8099" y2="553.4766" gradientTransform="matrix(-1 0 0 1 -541.016 0)">
			<stop  offset="0" style="stop-color:#09005D"/>
			<stop  offset="1" style="stop-color:#1A0F91"/>
		</linearGradient>
		<path class="st17" d="M631.2,464.8c0,0,1.2,2.2,2.4,8.1c0.2,1.1-0.5,2.1-1.6,2.2c-1.9,0.2-4.8,0.4-7.2,0.4c-1.1,0-1.9-1-1.8-2
			c0.3-2.1,1.1-5.7,3.6-8.4L631.2,464.8z"/>
		
			<linearGradient id="SVGID_10_" gradientUnits="userSpaceOnUse" x1="-1173.3329" y1="462.1639" x2="-1167.5999" y2="462.1639" gradientTransform="matrix(-1 0 0 1 -541.016 0)">
			<stop  offset="0" style="stop-color:#FF928E"/>
			<stop  offset="1" style="stop-color:#FEB3B1"/>
		</linearGradient>
		<path class="st18" d="M632.3,458.1l-1.5,7.9c0,0-1.4,1.1-4.3,0.3l0.7-8.5L632.3,458.1z"/>
		
			<linearGradient id="SVGID_11_" gradientUnits="userSpaceOnUse" x1="-1482.4889" y1="597.3085" x2="-1371.1841" y2="531.0314" gradientTransform="matrix(-1 0 0 1 -541.016 0)">
			<stop  offset="0" style="stop-color:#09005D"/>
			<stop  offset="1" style="stop-color:#1A0F91"/>
		</linearGradient>
		<path class="st19" d="M636.2,363.4c5.9,35.3-1.3,87.3-3.7,97.5c-0.1,0.6-0.6,1.1-1.3,1.2c-1.1,0.2-2.8,0.3-4.6-0.2
			c-0.6-0.2-1-0.7-1-1.3c-0.3-8.2,0.3-58.7-5.2-78.7c-0.3-1-0.9-1.9-1.7-2.5l-10.6-7.5l-0.8-12.2L636.2,363.4z"/>
		<g>
			
				<linearGradient id="SVGID_12_" gradientUnits="userSpaceOnUse" x1="-1188.3756" y1="351.2384" x2="-1083.895" y2="276.0473" gradientTransform="matrix(-1 0 0 1 -541.016 0)">
				<stop  offset="0" style="stop-color:#FE7062"/>
				<stop  offset="1" style="stop-color:#FF928E"/>
			</linearGradient>
			<path class="st20" d="M598.9,296.5c17.5-0.3,36.9,4.6,36.9,4.6c5.2,30.5,0.9,65.7,0.9,65.7c-13.6,3.6-28.9-2.2-28.9-2.2
				c-2.3-12.8-12.8-48.6-12.8-48.6c-8.6-1.1-15.6-3.5-21.4-6.8c4.4-5.1,6.5-11.7,7.4-15.5C587.3,295.6,593.5,296.6,598.9,296.5z"/>
			
				<linearGradient id="SVGID_13_" gradientUnits="userSpaceOnUse" x1="-1132.6931" y1="390.0652" x2="-1119.2009" y2="337.4458" gradientTransform="matrix(-1 0 0 1 -541.016 0)">
				<stop  offset="0" style="stop-color:#FF928E"/>
				<stop  offset="1" style="stop-color:#FEB3B1"/>
			</linearGradient>
			<path class="st21" d="M547.1,270.7c1.7-2.1,3.9-1.1,3.9-1.1c2.6,10.9,16.1,19.7,30,24.1c-0.9,3.9-3,10.4-7.4,15.5
				C550.6,296.2,547.1,270.7,547.1,270.7z"/>
		</g>
		<g>
			
				<linearGradient id="SVGID_14_" gradientUnits="userSpaceOnUse" x1="8405.4004" y1="919.356" x2="8418.8926" y2="866.7366" gradientTransform="matrix(1 0 0 1 -8028.7939 0)">
				<stop  offset="0" style="stop-color:#FF928E"/>
				<stop  offset="1" style="stop-color:#FEB3B1"/>
			</linearGradient>
			<path class="st22" d="M547.6,271.2c-0.2,0.6,1.9,1.4,3.1-0.9c0-1.1,0.7-5.9,0.1-6.9c-3.6-4.9-10.5-11-10.5-11
				c-1.2,1.2-0.2,2.3-0.2,2.3l3.4,3.5c-0.7,1.3-1.6,2.3-2,3.9c-0.3,1.2-0.1,2.4,0.5,3.5c0.6,1.1,1.4,2.4,2.2,3.5
				C545.5,271.2,547.6,271.2,547.6,271.2z"/>
			<linearGradient id="SVGID_15_" gradientUnits="userSpaceOnUse" x1="573.2101" y1="231.8534" x2="525.6504" y2="288.1829">
				<stop  offset="0" style="stop-color:#FF928E"/>
				<stop  offset="1" style="stop-color:#FEB3B1"/>
			</linearGradient>
			<path class="st23" d="M544.9,260.5l3.1,2.6l1,2.6l-2.7,3c0,0-0.9-5.1-1.6-6.2C543.9,261.4,544.2,260.9,544.9,260.5z"/>
		</g>
		
			<linearGradient id="SVGID_16_" gradientUnits="userSpaceOnUse" x1="-1202.1433" y1="332.1079" x2="-1097.6624" y2="256.9164" gradientTransform="matrix(-1 0 0 1 -541.016 0)">
			<stop  offset="0" style="stop-color:#FE7062"/>
			<stop  offset="1" style="stop-color:#FF928E"/>
		</linearGradient>
		<path class="st24" d="M629.1,318.1l6.7-17c0,0,16.4,11.1,19.1,25.2c-3.1,0.2-8.7,1-14.2,3.8C639.5,323.5,629.1,318.1,629.1,318.1z
			"/>
		<linearGradient id="SVGID_17_" gradientUnits="userSpaceOnUse" x1="600.6328" y1="344.6467" x2="660.3356" y2="335.2022">
			<stop  offset="0" style="stop-color:#FF928E"/>
			<stop  offset="1" style="stop-color:#FEB3B1"/>
		</linearGradient>
		<path class="st25" d="M614.8,334.1c0,0,18.4,10.4,24.6,1.5c1.3-1.8,1.6-3.7,1.3-5.4c5.5-2.8,11.1-3.6,14.2-3.8
			c0.8,4.3,0.4,8.8-2.1,13.4c-10.9,19.9-40.4-1.1-40.4-1.1L614.8,334.1z"/>
		<g>
			<path class="st3" d="M617,347.2l-10-35.1c-0.1-0.4-0.5-0.7-0.9-0.7c-1.8-0.2-7.1-0.8-13.2-1.3c-7.3-0.6-15.8-1.1-20.9-0.7
				c-0.7,0.1-1.2,0.8-0.8,1.5c2.9,5.9,14.8,29.7,20.7,37.5c0.2,0.3,0.5,0.4,0.8,0.4l23.3-0.2C616.7,348.5,617.2,347.9,617,347.2z"/>
			
				<linearGradient id="SVGID_18_" gradientUnits="userSpaceOnUse" x1="-1125.6125" y1="291.3011" x2="-1130.6398" y2="313.3771" gradientTransform="matrix(-1 0 0 1 -541.016 0)">
				<stop  offset="0" style="stop-color:#E1473D"/>
				<stop  offset="1" style="stop-color:#E9605A"/>
			</linearGradient>
			<path class="st26" d="M591.9,307.1l-7.3-1.2c-0.4-0.1-0.7,0.3-0.6,0.7l0.7,2.2c0.1,0.2,0.2,0.3,0.4,0.4l7,0.9
				c0.4,0,0.7-0.3,0.6-0.6l-0.4-1.9C592.3,307.3,592.1,307.1,591.9,307.1z"/>
			
				<linearGradient id="SVGID_19_" gradientUnits="userSpaceOnUse" x1="-1128.2435" y1="300.5614" x2="-1130.6478" y2="314.9873" gradientTransform="matrix(-1 0 0 1 -541.016 0)">
				<stop  offset="0" style="stop-color:#E1473D"/>
				<stop  offset="1" style="stop-color:#E9605A"/>
			</linearGradient>
			<path class="st27" d="M597.3,313.2l-0.6-3.1c-0.1-0.3-0.3-0.5-0.6-0.6l-14.7-1.5c-0.5-0.1-0.9,0.4-0.8,0.9l0.9,3.9
				c0.1,0.3,0.3,0.5,0.7,0.6l14.4,0.7C597.1,314.1,597.4,313.7,597.3,313.2z"/>
			<linearGradient id="SVGID_20_" gradientUnits="userSpaceOnUse" x1="638.845" y1="305.6023" x2="624.6782" y2="318.7571">
				<stop  offset="0" style="stop-color:#FF928E"/>
				<stop  offset="1" style="stop-color:#FEB3B1"/>
			</linearGradient>
			<path class="st28" d="M614.6,338.8c0,0,1.4-5.8,0.8-7.8c-0.6-2-1.7-4.7-5.3-4.1c-3.6,0.6-7.9,2.1-7.9,2.1s0.2,2.7,3,1.8l-1.7,1.3
				c0,0,0.2,2.1,2.6,1l-1.6,1.8c0,0,1,1.7,2.7,0.6C608.9,334.4,609.7,339.5,614.6,338.8z"/>
		</g>
		
			<linearGradient id="SVGID_21_" gradientUnits="userSpaceOnUse" x1="-1163.3447" y1="291.4318" x2="-1146.3721" y2="291.4318" gradientTransform="matrix(-1 0 0 1 -541.016 0)">
			<stop  offset="0" style="stop-color:#FF928E"/>
			<stop  offset="1" style="stop-color:#FEB3B1"/>
		</linearGradient>
		<path class="st29" d="M616.7,282.3l5.6,16.1c0.1,0.3,0,0.6-0.3,0.7c-1.5,0.8-7,3.3-13.6-0.9c-0.7-0.4-1.2-1.1-1.3-2l-1.8-14H616.7
			z"/>
		<g>
			<linearGradient id="SVGID_22_" gradientUnits="userSpaceOnUse" x1="610.9666" y1="256.2013" x2="608.493" y2="282.511">
				<stop  offset="0" style="stop-color:#FF928E"/>
				<stop  offset="1" style="stop-color:#FEB3B1"/>
			</linearGradient>
			<path class="st30" d="M604.6,267.3c0,0-6.1,11.5-5.3,16.2c0.8,4.7,8.4,4.3,15,0.5l4.6-12.5L604.6,267.3z"/>
			
				<linearGradient id="SVGID_23_" gradientUnits="userSpaceOnUse" x1="-6848.875" y1="-2824.447" x2="-6843.5693" y2="-2794.186" gradientTransform="matrix(-0.746 -0.6659 -0.6659 0.746 -6360.2007 -2196.3748)">
				<stop  offset="0" style="stop-color:#E1473D"/>
				<stop  offset="1" style="stop-color:#E9605A"/>
			</linearGradient>
			<path class="st31" d="M613.9,278c-0.3-0.1-0.4-0.4-0.2-0.7c0.5-0.8,1.4-2.3,1.7-3.6c0,0,1.1-0.7-2.8-1.6c-3.9-0.9-9.7-2.4-11-5.7
				c-1.2-3.2,1.9-11.4,6.9-4.9c0.2,0.2,0.6,0.3,0.8,0c0.8-1.1,3-3.3,6-1.9c2.8,1.3,3.1,3.3,3.1,4.3c0,0.3,0.3,0.5,0.6,0.5
				c1.4-0.3,4.8-0.5,6.4,3c1.3,2.9,0.5,4.5-0.3,5.3c-0.3,0.3-0.1,0.7,0.2,0.8c0.9,0.3,2.1,1.1,2,3.3c-0.2,3-3.5,2.7-4.5,2.6
				c-0.2,0-0.3,0-0.4,0.1c-0.8,0.9-4.5,4.8-8.5,5.2c-0.3,0-0.6-0.3-0.5-0.6l1.7-5c0.1-0.2,0-0.5-0.3-0.6L613.9,278z"/>
			<linearGradient id="SVGID_24_" gradientUnits="userSpaceOnUse" x1="617.0833" y1="256.7764" x2="614.6097" y2="283.0861">
				<stop  offset="0" style="stop-color:#FF928E"/>
				<stop  offset="1" style="stop-color:#FEB3B1"/>
			</linearGradient>
			<path class="st32" d="M613.3,278.7c0,0,4.4-3,4.7-0.5c0.3,2.5-3.9,3.7-6,2.7L613.3,278.7z"/>
		</g>
	</g>
	<g>
		<path class="st10" d="M638.8,262.5c-1.1-0.1-1.3-1.6-0.2-1.9c6.1-1.9,16-6.3,20.7-15.2c1-2-0.1-4.4-2.2-4.9
			c-10.6-2.7-39.2-12.7-36.6-42.7c3.2-36.8,44.5-39.3,70.9-32c26.4,7.3,39.7,25.4,33.6,53.1C719.2,245.1,669,264.7,638.8,262.5z"/>
		<linearGradient id="SVGID_25_" gradientUnits="userSpaceOnUse" x1="671.9429" y1="240.8655" x2="681.1545" y2="240.8655">
			<stop  offset="0" style="stop-color:#DAE3FE"/>
			<stop  offset="1" style="stop-color:#E9EFFD"/>
		</linearGradient>
		<path class="st33" d="M674.9,242.4c-1,0-1.6,0-1.6,0c-0.8,0-1.4-0.7-1.3-1.5c0-0.8,0.7-1.3,1.5-1.3c0,0,2.5,0.1,6.2-0.2
			c0.8-0.1,1.4,0.5,1.5,1.3c0.1,0.8-0.5,1.4-1.3,1.5C677.8,242.3,676.1,242.4,674.9,242.4z"/>
		<linearGradient id="SVGID_26_" gradientUnits="userSpaceOnUse" x1="690.5942" y1="209.9146" x2="718.36" y2="209.9146">
			<stop  offset="0" style="stop-color:#DAE3FE"/>
			<stop  offset="1" style="stop-color:#E9EFFD"/>
		</linearGradient>
		<path class="st34" d="M692,239.8c-0.6,0-1.1-0.4-1.3-1c-0.2-0.7,0.2-1.5,0.9-1.7c11.3-3.5,18.7-10.1,21.8-19.7
			c7.7-23.6-7-34.5-7.6-34.9c-0.6-0.4-0.8-1.3-0.3-1.9c0.4-0.6,1.3-0.8,1.9-0.3c0.2,0.1,17,12.4,8.6,38
			c-3.4,10.4-11.6,17.8-23.6,21.5C692.3,239.8,692.1,239.8,692,239.8z"/>
		<g class="st35">
			<linearGradient id="SVGID_27_" gradientUnits="userSpaceOnUse" x1="630.4444" y1="186.5764" x2="696.5441" y2="186.5764">
				<stop  offset="0" style="stop-color:#DAE3FE"/>
				<stop  offset="1" style="stop-color:#E9EFFD"/>
			</linearGradient>
			<path class="st36" d="M694.2,189h-61.4c-1.3,0-2.4-1.1-2.4-2.4l0,0c0-1.3,1.1-2.4,2.4-2.4h61.4c1.3,0,2.4,1.1,2.4,2.4l0,0
				C696.5,187.9,695.5,189,694.2,189z"/>
			<linearGradient id="SVGID_28_" gradientUnits="userSpaceOnUse" x1="637.8161" y1="195.8758" x2="703.9159" y2="195.8758">
				<stop  offset="0" style="stop-color:#DAE3FE"/>
				<stop  offset="1" style="stop-color:#E9EFFD"/>
			</linearGradient>
			<path class="st37" d="M701.5,198.2h-61.4c-1.3,0-2.4-1.1-2.4-2.4l0,0c0-1.3,1.1-2.4,2.4-2.4h61.4c1.3,0,2.4,1.1,2.4,2.4l0,0
				C703.9,197.2,702.9,198.2,701.5,198.2z"/>
			<linearGradient id="SVGID_29_" gradientUnits="userSpaceOnUse" x1="637.8161" y1="214.4745" x2="686.4694" y2="214.4745">
				<stop  offset="0" style="stop-color:#DAE3FE"/>
				<stop  offset="1" style="stop-color:#E9EFFD"/>
			</linearGradient>
			<path class="st38" d="M684.1,216.8h-43.9c-1.3,0-2.4-1.1-2.4-2.4l0,0c0-1.3,1.1-2.4,2.4-2.4h43.9c1.3,0,2.4,1.1,2.4,2.4l0,0
				C686.5,215.8,685.4,216.8,684.1,216.8z"/>
			<linearGradient id="SVGID_30_" gradientUnits="userSpaceOnUse" x1="644.6964" y1="205.1751" x2="710.7961" y2="205.1751">
				<stop  offset="0" style="stop-color:#DAE3FE"/>
				<stop  offset="1" style="stop-color:#E9EFFD"/>
			</linearGradient>
			<path class="st39" d="M708.4,207.5h-61.4c-1.3,0-2.4-1.1-2.4-2.4l0,0c0-1.3,1.1-2.4,2.4-2.4h61.4c1.3,0,2.4,1.1,2.4,2.4l0,0
				C710.8,206.5,709.7,207.5,708.4,207.5z"/>
		</g>
	</g>
	<g>
		<path class="st2" d="M544.2,472.6c0,0,19.5-24.5,16.4-47.7c-3.2-23.2-19-20.4-26.1-6.7c-7.1,13.7-13.4,11.8-9.2-1.1
			c4.2-12.9,9.4-21.3,0.8-34.1c-8.7-12.8-9.6-18.3-4.7-29.8c4.9-11.5,11-27.7-8.4-33.5c-19.4-5.8-38.8,12-34.2,35.3
			c4.5,23.3,7.2,25.8,1,34.5c-6.2,8.6-3.6,12.2-2.8,17.8c0.9,5.6-8.6,6.9-8.4-1c0.2-7.9,12.3-26.6,4.1-35.3
			c-8.3-8.7-24.5-8.8-28.6,11.3c-4.2,20.1,9.2,29.2,8.5,36.5c-0.7,7.3-7.8-3.8-14,3.7c-6.2,7.4,2.2,13.3,8.3,17.3
			c6.2,4,15.5,11.2,6.6,16.5c-8.8,5.2-17.2,0.2-11.8,16.4H544.2z"/>
		<path class="st10" d="M504,336.5c-0.6,0.3-1.2,0.8-1.7,1.2c-0.5,0.5-1,1-1.5,1.5c-0.9,1.1-1.7,2.3-2.4,3.6c-1.3,2.6-2,5.4-2.2,8.3
			c0,0.4-0.1,0.7-0.1,1.1c0,0.4,0,0.7,0,1.1l0,1.1l0.1,1.1l0,0.5l0.1,0.5l0.1,1.1c0.1,0.7,0.2,1.4,0.3,2.1c0.1,0.7,0.3,1.4,0.4,2.1
			l0.2,1l0.2,1l1,4c1.3,5.3,2.6,10.7,3.6,16.1c1,5.4,1.6,10.8,1.5,16.2c0,1.3-0.1,2.7-0.3,4c-0.2,1.3-0.4,2.6-0.7,3.9
			c-0.3,1.3-0.7,2.5-1.3,3.7c-0.6,1.3-1,2.7-1.4,4.1c-0.7,2.8-1.1,5.6-1.4,8.3c-0.3,2.8-0.5,5.5-0.7,8.3c-0.4,5.5-0.7,11-1.5,16.4
			c-0.1,0.7-0.2,1.4-0.3,2c-0.1,0.7-0.3,1.3-0.4,2c-0.1,0.7-0.3,1.3-0.5,2c-0.1,0.3-0.2,0.7-0.3,1c-0.1,0.3-0.2,0.7-0.3,1l-0.3,1
			c-0.1,0.3-0.2,0.6-0.4,1c-0.2,0.6-0.5,1.2-0.8,1.9c-0.6,1.2-1.4,2.3-2.3,3.4l0.2,0.2c1-1,1.9-2.1,2.6-3.3c0.7-1.2,1.3-2.5,1.8-3.8
			c1-2.6,1.7-5.3,2.3-8.1c1.1-5.5,1.7-11,2.3-16.5c0.3-2.7,0.6-5.5,1-8.2c0.4-2.7,0.8-5.4,1.5-8c0.4-1.3,0.8-2.5,1.3-3.7
			c0.6-1.3,1.1-2.7,1.5-4.1c0.4-1.4,0.7-2.8,0.9-4.2c0.2-1.4,0.3-2.8,0.4-4.3c0.2-5.7-0.5-11.3-1.4-16.8c-1-5.5-2.3-10.9-3.8-16.3
			c-0.4-1.3-0.7-2.7-1.1-4l-0.3-1l-0.3-1c-0.2-0.6-0.3-1.3-0.5-2c-0.2-0.7-0.3-1.3-0.4-2l-0.2-1c-0.1-0.3-0.1-0.7-0.1-1
			c-0.2-1.3-0.2-2.7-0.2-4c0-1.3,0.1-2.7,0.3-4c0.2-1.3,0.6-2.6,1-3.8c0.2-0.6,0.5-1.2,0.8-1.8c0.3-0.6,0.6-1.2,1-1.7
			c0.7-1.1,1.6-2.2,2.7-3L504,336.5z"/>
		<path class="st10" d="M545.6,419.6c-0.6,4.3-1.4,8.7-2.4,12.9c-0.5,2.1-1.1,4.2-1.7,6.3c-0.1,0.5-0.3,1-0.5,1.6
			c-0.2,0.5-0.3,1-0.5,1.6c-0.3,1-0.7,2.1-1.1,3.1c-0.4,1-0.8,2-1.2,3c-0.4,1-0.8,2-1.3,3c-0.9,2-1.9,3.9-3,5.8
			c-1.1,1.9-2.3,3.7-3.5,5.5c-1.3,1.8-2.7,3.4-4.2,5l0.2,0.2c1.7-1.4,3.3-3,4.8-4.6c1.4-1.7,2.7-3.5,3.9-5.4
			c1.2-1.9,2.2-3.8,3.2-5.9c0.5-1,0.9-2,1.3-3c0.4-1,0.8-2.1,1.2-3.1c0.4-1,0.7-2.1,1.1-3.2c0.2-0.5,0.3-1.1,0.5-1.6
			c0.1-0.5,0.3-1.1,0.4-1.6c0.6-2.1,1.1-4.3,1.5-6.5c0.8-4.3,1.4-8.7,1.5-13.1L545.6,419.6z"/>
	</g>
	<g>
		<path class="st40" d="M187,101.5c-0.6,0.3-1.3,0.5-1.9,0.8c-0.7,0.3-1,1.1-0.7,1.8c0.1,0.2,0.2,0.3,0.3,0.4c0.4,0.4,1,0.5,1.5,0.3
			c0.6-0.3,1.2-0.5,1.9-0.8c0.7-0.3,1-1.1,0.8-1.8C188.5,101.5,187.7,101.2,187,101.5z"/>
		<path class="st40" d="M206.6,250.4c-0.7-0.1-1.4-0.2-2-0.3c-0.7-0.1-1.5,0.4-1.6,1.1c-0.1,0.5,0.1,0.9,0.4,1.2
			c0.2,0.2,0.5,0.3,0.7,0.4c0.7,0.1,1.4,0.2,2,0.3c0.8,0.1,1.5-0.4,1.6-1.2C207.9,251.3,207.3,250.6,206.6,250.4z"/>
		<path class="st40" d="M193.5,99.1l-0.3,0.1c-0.6,0.2-1.2,0.4-1.7,0.6c-0.7,0.2-1.1,1-0.8,1.7c0.1,0.2,0.2,0.4,0.3,0.5
			c0.4,0.4,0.9,0.5,1.4,0.3c0.6-0.2,1.1-0.4,1.7-0.6l0.2-0.1c0.7-0.2,1.1-1,0.9-1.7C195,99.2,194.3,98.9,193.5,99.1z"/>
		<path class="st40" d="M200.2,97.2c-0.7,0.2-1.4,0.3-2,0.5c-0.7,0.2-1.2,0.9-1,1.7c0.1,0.2,0.2,0.5,0.4,0.6
			c0.3,0.3,0.8,0.5,1.3,0.3c0.7-0.2,1.3-0.3,2-0.5c0.7-0.2,1.2-0.9,1-1.7C201.7,97.5,201,97,200.2,97.2z"/>
		<path class="st40" d="M199.8,249.3c-0.7-0.1-1.3-0.2-2-0.4c-0.7-0.1-1.5,0.4-1.6,1.1c-0.1,0.5,0.1,0.9,0.4,1.2
			c0.2,0.2,0.4,0.3,0.7,0.4c0.7,0.1,1.4,0.2,2,0.4c0.7,0.1,1.5-0.4,1.6-1.1C201.1,250.2,200.6,249.5,199.8,249.3z"/>
		<path class="st40" d="M193.1,248.1c-0.7-0.1-1.3-0.3-2-0.4c-0.7-0.2-1.5,0.3-1.6,1.1c-0.1,0.5,0.1,1,0.4,1.3
			c0.2,0.2,0.4,0.3,0.7,0.4c0.7,0.1,1.4,0.3,2,0.4c0.7,0.2,1.5-0.3,1.6-1.1C194.3,248.9,193.9,248.2,193.1,248.1z"/>
		<path class="st40" d="M176.4,108.1c-0.4-0.7-1.2-0.9-1.9-0.5c-0.6,0.4-1.2,0.7-1.8,1.1c-0.6,0.4-0.8,1.2-0.5,1.9
			c0.1,0.1,0.1,0.2,0.2,0.3c0.4,0.4,1.1,0.5,1.7,0.2c0.6-0.4,1.2-0.7,1.7-1C176.5,109.6,176.8,108.8,176.4,108.1z"/>
		<path class="st40" d="M173.4,242.8c-0.6-0.2-1.3-0.5-1.9-0.7c-0.7-0.3-1.5,0.1-1.8,0.8c-0.2,0.5,0,1.1,0.3,1.5
			c0.1,0.1,0.3,0.2,0.5,0.3c0.7,0.2,1.3,0.5,2,0.7c0.7,0.2,1.5-0.1,1.7-0.8C174.5,243.8,174.1,243,173.4,242.8z"/>
		<path class="st40" d="M180.6,104.3c-0.6,0.3-1.2,0.6-1.9,0.9c-0.7,0.4-0.9,1.2-0.6,1.9c0.1,0.1,0.2,0.3,0.3,0.4
			c0.4,0.4,1.1,0.5,1.6,0.2c0.6-0.3,1.2-0.6,1.8-0.9c0.7-0.3,1-1.2,0.6-1.8C182.1,104.3,181.3,104,180.6,104.3z"/>
		<path class="st40" d="M186.5,246.6c-0.7-0.2-1.3-0.3-2-0.5c-0.7-0.2-1.5,0.3-1.7,1c-0.1,0.5,0,1,0.4,1.3c0.2,0.2,0.4,0.3,0.6,0.3
			c0.7,0.2,1.3,0.3,2,0.5c0.7,0.2,1.5-0.3,1.7-1C187.7,247.5,187.2,246.8,186.5,246.6z"/>
		<path class="st40" d="M179.9,244.8c-0.7-0.2-1.3-0.4-2-0.6c-0.7-0.2-1.5,0.2-1.7,0.9c-0.2,0.5,0,1,0.4,1.4
			c0.2,0.1,0.3,0.3,0.6,0.3c0.7,0.2,1.3,0.4,2,0.6c0.7,0.2,1.5-0.2,1.7-0.9C181,245.8,180.6,245.1,179.9,244.8z"/>
		<path class="st40" d="M220.9,94.4c-0.7,0-1.4,0-2.1,0.1c-0.8,0-1.3,0.7-1.3,1.4c0,0.4,0.2,0.7,0.4,0.9c0.3,0.3,0.6,0.4,1,0.4
			c0.7,0,1.4-0.1,2-0.1c0.8,0,1.4-0.7,1.3-1.4C222.3,95,221.7,94.4,220.9,94.4z"/>
		<path class="st40" d="M234.8,95c-0.7-0.1-1.4-0.1-2.1-0.2c-0.8-0.1-1.4,0.5-1.5,1.2c0,0.4,0.1,0.8,0.4,1.1
			c0.2,0.2,0.5,0.4,0.8,0.4c0.7,0.1,1.4,0.1,2,0.2c0.8,0.1,1.4-0.5,1.5-1.2C236.1,95.8,235.6,95.1,234.8,95z"/>
		<path class="st40" d="M233.8,253.2c-0.7,0-1.4-0.1-2-0.1c-0.8,0-1.4,0.5-1.5,1.3c0,0.4,0.1,0.8,0.4,1.1c0.2,0.2,0.5,0.4,0.9,0.4
			c0.7,0,1.4,0.1,2.1,0.1c0.8,0,1.4-0.5,1.5-1.3C235.1,253.9,234.6,253.2,233.8,253.2z"/>
		<path class="st40" d="M240.6,253.5c-0.7,0-1.4-0.1-2.1-0.1c-0.8,0-1.4,0.6-1.4,1.3c0,0.4,0.1,0.8,0.4,1c0.2,0.2,0.5,0.4,0.9,0.4
			c0.7,0,1.4,0.1,2.1,0.1c0.8,0,1.4-0.6,1.4-1.3C242,254.2,241.4,253.6,240.6,253.5z"/>
		<path class="st40" d="M227.9,94.5c-0.7,0-1.4-0.1-2.1-0.1c-0.8,0-1.4,0.6-1.4,1.3c0,0.4,0.2,0.8,0.4,1c0.2,0.2,0.6,0.4,0.9,0.4
			c0.7,0,1.4,0,2,0.1c0.8,0,1.4-0.6,1.4-1.3C229.2,95.2,228.7,94.5,227.9,94.5z"/>
		<path class="st40" d="M241.7,96c-0.7-0.1-1.4-0.2-2.1-0.4c-0.7-0.1-1.5,0.4-1.6,1.1c-0.1,0.5,0.1,0.9,0.4,1.2
			c0.2,0.2,0.4,0.3,0.7,0.4c0.7,0.1,1.3,0.2,2,0.3c0.7,0.1,1.5-0.4,1.6-1.1C243,96.9,242.5,96.2,241.7,96z"/>
		<path class="st40" d="M247.5,253.7c-0.7,0-1.4,0-2.1,0c-0.8,0-1.4,0.6-1.4,1.3c0,0.4,0.2,0.8,0.4,1c0.2,0.2,0.6,0.4,0.9,0.4
			c0.7,0,1.4,0,2.1,0c0.8,0,1.4-0.6,1.4-1.3C248.8,254.4,248.2,253.7,247.5,253.7z"/>
		<path class="st40" d="M227,252.7c-0.7-0.1-1.4-0.1-2-0.2c-0.8-0.1-1.4,0.5-1.5,1.3c0,0.4,0.1,0.8,0.4,1.1c0.2,0.2,0.5,0.4,0.8,0.4
			c0.7,0.1,1.4,0.1,2.1,0.2c0.8,0.1,1.4-0.5,1.5-1.3C228.3,253.5,227.7,252.8,227,252.7z"/>
		<path class="st40" d="M213.4,251.4c-0.7-0.1-1.4-0.2-2-0.3c-0.8-0.1-1.4,0.4-1.5,1.2c-0.1,0.4,0.1,0.9,0.4,1.2
			c0.2,0.2,0.5,0.3,0.8,0.4c0.7,0.1,1.4,0.2,2.1,0.3c0.8,0.1,1.4-0.4,1.5-1.2C214.7,252.2,214.1,251.5,213.4,251.4z"/>
		<path class="st40" d="M214,94.9c-0.7,0.1-1.4,0.1-2.1,0.2c-0.8,0.1-1.3,0.8-1.2,1.5c0,0.3,0.2,0.6,0.4,0.8
			c0.3,0.3,0.7,0.4,1.1,0.4c0.7-0.1,1.3-0.2,2-0.2c0.8-0.1,1.3-0.7,1.2-1.5C215.4,95.3,214.7,94.8,214,94.9z"/>
		<path class="st40" d="M220.2,252.1c-0.7-0.1-1.4-0.1-2-0.2c-0.8-0.1-1.4,0.5-1.5,1.2c0,0.4,0.1,0.8,0.4,1.1
			c0.2,0.2,0.5,0.3,0.8,0.4c0.7,0.1,1.4,0.1,2.1,0.2c0.8,0.1,1.4-0.5,1.5-1.2C221.5,252.9,220.9,252.2,220.2,252.1z"/>
		<path class="st40" d="M170.5,111.7c-0.4-0.6-1.3-0.8-1.9-0.4c-0.6,0.4-1.1,0.8-1.7,1.2c-0.6,0.4-0.8,1.3-0.3,1.9
			c0,0.1,0.1,0.1,0.2,0.2c0.5,0.5,1.2,0.5,1.8,0.1c0.6-0.4,1.1-0.8,1.7-1.2C170.8,113.2,171,112.4,170.5,111.7z"/>
		<path class="st40" d="M207.1,95.8c-0.7,0.1-1.4,0.2-2.1,0.4c-0.7,0.1-1.2,0.9-1.1,1.6c0.1,0.3,0.2,0.5,0.4,0.7
			c0.3,0.3,0.8,0.5,1.2,0.4c0.7-0.1,1.3-0.2,2-0.4c0.7-0.1,1.3-0.8,1.1-1.6C208.5,96.2,207.8,95.7,207.1,95.8z"/>
		<path class="st40" d="M143.2,224.4c-0.5-0.6-1.4-0.6-1.9-0.1c-0.6,0.5-0.6,1.4-0.1,1.9c0.5,0.5,1,1,1.5,1.5c0,0,0,0,0,0
			c0.5,0.5,1.4,0.5,1.9,0c0.5-0.5,0.5-1.4,0-1.9C144.1,225.4,143.6,224.9,143.2,224.4z"/>
		<path class="st40" d="M128.4,177.4c0.8,0.1,1.4-0.4,1.5-1.2c0.1-0.7,0.2-1.3,0.3-2c0.1-0.7-0.4-1.5-1.1-1.6
			c-0.7-0.1-1.5,0.4-1.6,1.1c-0.1,0.7-0.2,1.4-0.3,2.1c-0.1,0.4,0.1,0.9,0.4,1.2C127.8,177.2,128.1,177.3,128.4,177.4z"/>
		<path class="st40" d="M127.9,184.2c0.8,0,1.4-0.6,1.4-1.3c0-0.7,0.1-1.3,0.1-2c0.1-0.8-0.5-1.4-1.3-1.5c-0.8-0.1-1.4,0.5-1.5,1.3
			c-0.1,0.7-0.1,1.4-0.1,2.1c0,0.4,0.1,0.8,0.4,1C127.2,184,127.5,184.2,127.9,184.2z"/>
		<path class="st40" d="M129.5,170.6c0.7,0.2,1.5-0.3,1.6-1c0.1-0.7,0.3-1.3,0.5-2c0.2-0.7-0.3-1.5-1-1.7c-0.7-0.2-1.5,0.3-1.7,1
			c-0.2,0.7-0.3,1.4-0.5,2c-0.1,0.5,0.1,1,0.4,1.3C129,170.4,129.2,170.5,129.5,170.6z"/>
		<path class="st40" d="M128,191.1c0.8,0,1.3-0.7,1.3-1.4c0-0.7-0.1-1.3-0.1-2c0-0.8-0.6-1.4-1.4-1.3c-0.8,0-1.4,0.6-1.3,1.4
			c0,0.7,0,1.4,0.1,2.1c0,0.4,0.2,0.7,0.4,0.9C127.3,191,127.6,191.1,128,191.1z"/>
		<path class="st40" d="M128.8,197.9c0.8-0.1,1.3-0.8,1.1-1.6c-0.1-0.7-0.2-1.3-0.3-2c-0.1-0.8-0.8-1.3-1.5-1.2
			c-0.8,0.1-1.3,0.8-1.2,1.5c0.1,0.7,0.2,1.4,0.3,2.1c0,0.3,0.2,0.6,0.4,0.8C128,197.8,128.4,198,128.8,197.9z"/>
		<path class="st40" d="M142.9,139.2c0.6,0.4,1.5,0.3,1.9-0.3c0.4-0.6,0.8-1.1,1.2-1.7c0.4-0.6,0.3-1.5-0.3-1.9
			c-0.6-0.4-1.5-0.3-1.9,0.3c-0.4,0.6-0.8,1.1-1.2,1.7c-0.4,0.6-0.3,1.3,0.2,1.8C142.8,139.1,142.8,139.1,142.9,139.2z"/>
		<path class="st40" d="M139.3,145c0.7,0.4,1.5,0.2,1.9-0.5c0.3-0.6,0.7-1.2,1.1-1.7c0.4-0.6,0.2-1.5-0.4-1.9
			c-0.6-0.4-1.5-0.2-1.9,0.4c-0.4,0.6-0.7,1.2-1.1,1.8c-0.3,0.6-0.2,1.3,0.2,1.7C139.1,144.9,139.2,145,139.3,145z"/>
		<path class="st40" d="M131.1,163.9c0.7,0.2,1.5-0.2,1.7-0.9c0.2-0.6,0.4-1.3,0.6-1.9c0.2-0.7-0.1-1.5-0.9-1.7
			c-0.7-0.2-1.5,0.1-1.7,0.9c-0.2,0.7-0.4,1.3-0.6,2c-0.2,0.5,0,1,0.4,1.4C130.8,163.7,130.9,163.8,131.1,163.9z"/>
		<path class="st40" d="M167.1,240.4c-0.6-0.3-1.2-0.5-1.9-0.8c-0.7-0.3-1.5,0-1.8,0.7c-0.2,0.5-0.1,1.2,0.3,1.5
			c0.1,0.1,0.2,0.2,0.4,0.3c0.6,0.3,1.3,0.6,1.9,0.8c0.7,0.3,1.5,0,1.8-0.7C168.1,241.5,167.8,240.7,167.1,240.4z"/>
		<path class="st40" d="M136.1,151.1c0.7,0.3,1.5,0.1,1.8-0.6c0.3-0.6,0.6-1.2,0.9-1.8c0.4-0.7,0.1-1.5-0.6-1.9
			c-0.7-0.4-1.5-0.1-1.9,0.6c-0.3,0.6-0.6,1.2-1,1.9c-0.3,0.5-0.1,1.2,0.3,1.6C135.8,150.9,136,151,136.1,151.1z"/>
		<path class="st40" d="M133.4,157.4c0.7,0.3,1.5-0.1,1.8-0.8c0.2-0.5,0.4-0.9,0.6-1.4l0.2-0.5c0.3-0.7,0-1.5-0.7-1.8
			c-0.7-0.3-1.5,0-1.8,0.7l-0.2,0.5c-0.2,0.5-0.4,1-0.6,1.4c-0.2,0.5-0.1,1.1,0.3,1.5C133,157.2,133.2,157.3,133.4,157.4z"/>
		<path class="st40" d="M131.4,202.9c-0.2-0.6-0.3-1.3-0.5-2c-0.2-0.7-0.9-1.2-1.7-1c-0.7,0.2-1.2,0.9-1,1.7c0.2,0.7,0.3,1.4,0.5,2
			c0.1,0.2,0.2,0.5,0.4,0.6c0.3,0.3,0.8,0.5,1.3,0.3C131.1,204.4,131.6,203.6,131.4,202.9z"/>
		<path class="st40" d="M155.1,234.2c-0.6-0.4-1.1-0.7-1.7-1.1c-0.6-0.4-1.5-0.3-1.9,0.4c-0.4,0.6-0.3,1.3,0.2,1.8
			c0.1,0.1,0.1,0.1,0.2,0.2c0.6,0.4,1.2,0.8,1.8,1.1c0.6,0.4,1.5,0.2,1.9-0.4C155.9,235.4,155.7,234.6,155.1,234.2z"/>
		<path class="st40" d="M151.3,128.3c0.6,0.5,1.4,0.5,1.9-0.1c0.5-0.5,0.9-1,1.4-1.5c0.5-0.5,0.5-1.4,0-1.9c0,0,0,0,0,0
			c-0.5-0.5-1.4-0.5-1.9,0c-0.5,0.5-1,1-1.4,1.5C150.8,126.9,150.8,127.8,151.3,128.3C151.3,128.3,151.3,128.3,151.3,128.3z"/>
		<path class="st40" d="M159.5,122c0.6-0.5,0.6-1.4,0.1-1.9c-0.5-0.6-1.4-0.6-1.9-0.1c-0.5,0.5-1,0.9-1.5,1.4
			c-0.6,0.5-0.6,1.4-0.1,1.9c0,0,0,0,0,0c0.5,0.5,1.4,0.5,1.9,0C158.5,123,159,122.5,159.5,122z"/>
		<path class="st40" d="M164.9,115.7c-0.5-0.6-1.3-0.7-1.9-0.2c-0.5,0.4-1.1,0.9-1.6,1.3c-0.6,0.5-0.7,1.3-0.2,1.9
			c0,0,0.1,0.1,0.1,0.1c0.5,0.5,1.3,0.5,1.8,0.1c0.5-0.4,1.1-0.9,1.6-1.3C165.3,117.2,165.4,116.3,164.9,115.7z"/>
		<path class="st40" d="M160.9,237.5c-0.6-0.3-1.2-0.6-1.8-0.9c-0.7-0.4-1.5-0.1-1.9,0.5c-0.3,0.6-0.2,1.2,0.2,1.6
			c0.1,0.1,0.2,0.2,0.3,0.2c0.6,0.3,1.2,0.7,1.9,1c0.7,0.3,1.5,0.1,1.9-0.6C161.9,238.7,161.6,237.9,160.9,237.5z"/>
		<path class="st40" d="M136.4,215.3c-0.3-0.6-0.6-1.2-1-1.8c-0.4-0.7-1.2-0.9-1.9-0.6c-0.7,0.3-0.9,1.2-0.6,1.9
			c0.3,0.6,0.7,1.2,1,1.9c0.1,0.1,0.1,0.2,0.2,0.3c0.4,0.4,1.1,0.5,1.6,0.2C136.6,216.8,136.8,215.9,136.4,215.3z"/>
		<path class="st40" d="M133.5,209.3c-0.3-0.6-0.5-1.2-0.7-1.9c-0.3-0.7-1-1.1-1.8-0.8c-0.7,0.3-1.1,1-0.8,1.8
			c0.2,0.7,0.5,1.3,0.8,2c0.1,0.2,0.2,0.3,0.3,0.5c0.4,0.4,1,0.5,1.5,0.3C133.5,210.8,133.8,210,133.5,209.3z"/>
		<path class="st40" d="M148,130.1c-0.4,0.5-0.9,1.1-1.3,1.6c-0.4,0.6-0.4,1.4,0.1,1.8c0,0,0.1,0.1,0.1,0.1c0.6,0.5,1.5,0.4,1.9-0.2
			c0.4-0.5,0.9-1.1,1.3-1.6c0.5-0.6,0.4-1.4-0.2-1.9C149.4,129.4,148.5,129.5,148,130.1z"/>
		<path class="st40" d="M139.8,220.3c-0.3-0.4-0.6-0.7-0.8-1.1c-0.4-0.6-1.3-0.8-1.9-0.3c-0.6,0.4-0.8,1.3-0.3,1.9
			c0.3,0.4,0.6,0.8,0.9,1.2l0.4,0.5c0,0.1,0.1,0.1,0.1,0.2c0.5,0.5,1.2,0.5,1.8,0.1c0.6-0.5,0.7-1.3,0.3-1.9L139.8,220.3z"/>
		<path class="st40" d="M149.6,230.3c-0.5-0.4-1-0.8-1.6-1.3c-0.6-0.5-1.4-0.4-1.9,0.2c-0.5,0.6-0.4,1.4,0.1,1.9c0,0,0,0,0.1,0.1
			c0.5,0.5,1.1,0.9,1.6,1.3c0.6,0.5,1.5,0.4,1.9-0.2C150.3,231.6,150.2,230.8,149.6,230.3z"/>
		<path class="st40" d="M248.5,97.5c-0.7-0.2-1.4-0.3-2-0.5c-0.7-0.2-1.5,0.3-1.6,1c-0.1,0.5,0,1,0.4,1.3c0.2,0.2,0.4,0.3,0.6,0.4
			c0.7,0.2,1.3,0.3,2,0.5c0.7,0.2,1.5-0.3,1.7-1C249.7,98.4,249.3,97.7,248.5,97.5z"/>
		<path class="st40" d="M432.9,250.2c-0.7-0.1-1.4-0.2-2.1-0.2c-0.8-0.1-1.4,0.5-1.5,1.2c-0.1,0.4,0.1,0.9,0.4,1.1
			c0.2,0.2,0.5,0.3,0.8,0.4c0.7,0.1,1.4,0.2,2,0.2c0.8,0.1,1.4-0.4,1.5-1.2C434.2,251,433.7,250.3,432.9,250.2z"/>
		<path class="st40" d="M439.8,251.1c-0.7-0.1-1.4-0.2-2-0.3c-0.8-0.1-1.4,0.4-1.6,1.2c-0.1,0.5,0.1,0.9,0.4,1.2
			c0.2,0.2,0.5,0.3,0.8,0.4c0.7,0.1,1.4,0.2,2,0.3c0.8,0.1,1.5-0.4,1.6-1.2C441,252,440.5,251.3,439.8,251.1z"/>
		<path class="st40" d="M453.3,253.6c-0.7-0.1-1.4-0.3-2-0.4c-0.7-0.1-1.5,0.3-1.6,1.1c-0.1,0.5,0.1,0.9,0.4,1.3
			c0.2,0.2,0.4,0.3,0.7,0.4c0.7,0.1,1.3,0.3,2,0.4c0.7,0.2,1.5-0.3,1.6-1.1C454.6,254.5,454.1,253.8,453.3,253.6z"/>
		<path class="st40" d="M446.6,252.3c-0.7-0.1-1.4-0.2-2-0.4c-0.7-0.1-1.5,0.4-1.6,1.1c-0.1,0.5,0.1,0.9,0.4,1.2
			c0.2,0.2,0.4,0.3,0.7,0.4c0.7,0.1,1.3,0.2,2,0.4c0.7,0.1,1.5-0.4,1.6-1.1C447.8,253.1,447.3,252.4,446.6,252.3z"/>
		<path class="st40" d="M460.1,255.1c-0.7-0.2-1.3-0.3-2-0.5c-0.7-0.2-1.5,0.3-1.6,1c-0.1,0.5,0,1,0.4,1.3c0.2,0.2,0.4,0.3,0.6,0.4
			c0.7,0.2,1.3,0.3,2,0.5c0.7,0.2,1.5-0.3,1.7-1C461.3,256,460.8,255.3,460.1,255.1z"/>
		<path class="st40" d="M254.3,253.8c-0.7,0-1.4,0-2.1,0c-0.8,0-1.4,0.6-1.4,1.4c0,0.4,0.2,0.7,0.4,1c0.2,0.2,0.6,0.4,0.9,0.4
			c0.7,0,1.4,0,2.1,0c0.8,0,1.4-0.6,1.4-1.4C255.7,254.4,255.1,253.8,254.3,253.8z"/>
		<path class="st40" d="M466.8,256.8c-0.7-0.2-1.3-0.4-2-0.5c-0.7-0.2-1.5,0.2-1.7,1c-0.1,0.5,0,1,0.4,1.3c0.2,0.2,0.4,0.3,0.6,0.3
			c0.7,0.2,1.3,0.3,2,0.5c0.7,0.2,1.5-0.2,1.7-1C468,257.8,467.5,257,466.8,256.8z"/>
		<path class="st40" d="M405.4,248c-0.7,0-1.4-0.1-2.1-0.1c-0.8,0-1.4,0.6-1.4,1.3c0,0.4,0.1,0.8,0.4,1c0.2,0.2,0.6,0.4,0.9,0.4
			c0.7,0,1.4,0,2.1,0.1c0.8,0,1.4-0.6,1.4-1.3C406.8,248.7,406.2,248,405.4,248z"/>
		<path class="st40" d="M426,249.4c-0.7-0.1-1.4-0.1-2.1-0.2c-0.8-0.1-1.4,0.5-1.5,1.2c0,0.4,0.1,0.8,0.4,1.1
			c0.2,0.2,0.5,0.4,0.8,0.4c0.7,0.1,1.4,0.1,2,0.2c0.8,0.1,1.4-0.5,1.5-1.2C427.4,250.2,426.8,249.5,426,249.4z"/>
		<path class="st40" d="M398.5,247.8c-0.7,0-1.4,0-2.1,0c-0.8,0-1.4,0.6-1.4,1.4c0,0.4,0.2,0.8,0.4,1c0.2,0.2,0.6,0.4,0.9,0.4
			c0.7,0,1.4,0,2.1,0c0.8,0,1.4-0.6,1.4-1.3C399.9,248.4,399.3,247.8,398.5,247.8z"/>
		<path class="st40" d="M412.3,248.3c-0.7,0-1.4-0.1-2.1-0.1c-0.8,0-1.4,0.5-1.4,1.3c0,0.4,0.1,0.8,0.4,1.1c0.2,0.2,0.5,0.4,0.9,0.4
			c0.7,0,1.4,0.1,2.1,0.1c0.8,0,1.4-0.5,1.5-1.3C413.6,249,413.1,248.4,412.3,248.3z"/>
		<path class="st40" d="M419.2,248.8c-0.7-0.1-1.4-0.1-2.1-0.2c-0.8-0.1-1.4,0.5-1.5,1.3c0,0.4,0.1,0.8,0.4,1.1
			c0.2,0.2,0.5,0.4,0.9,0.4c0.7,0,1.4,0.1,2,0.2c0.8,0.1,1.4-0.5,1.5-1.3C420.5,249.5,419.9,248.9,419.2,248.8z"/>
		<path class="st40" d="M523.3,282.5c-0.6-0.4-1.1-0.8-1.7-1.2c-0.6-0.4-1.5-0.3-1.9,0.4c-0.4,0.6-0.3,1.3,0.2,1.8
			c0.1,0.1,0.1,0.1,0.2,0.2c0.6,0.4,1.1,0.8,1.7,1.2c0.6,0.4,1.5,0.3,1.9-0.3C524.1,283.8,523.9,282.9,523.3,282.5z"/>
		<path class="st40" d="M391.6,247.7c-0.7,0-1.4,0-2.1,0c-0.8,0-1.4,0.6-1.4,1.4c0,0.4,0.2,0.7,0.4,1c0.2,0.2,0.6,0.4,1,0.4
			c0.7,0,1.4,0,2.1,0c0.8,0,1.4-0.6,1.4-1.4C393,248.3,392.4,247.7,391.6,247.7z"/>
		<path class="st40" d="M528.9,286.6c-0.5-0.4-1.1-0.8-1.7-1.3c-0.6-0.5-1.5-0.3-1.9,0.3c-0.4,0.6-0.3,1.3,0.1,1.8
			c0,0,0.1,0.1,0.1,0.1c0.5,0.4,1.1,0.8,1.6,1.2c0.6,0.5,1.5,0.3,1.9-0.3C529.6,287.9,529.5,287,528.9,286.6z"/>
		<path class="st40" d="M539.4,295.6c-0.5-0.5-1-0.9-1.5-1.4c-0.6-0.5-1.4-0.5-1.9,0.1c-0.5,0.6-0.5,1.4,0.1,1.9c0,0,0,0,0,0
			c0.5,0.5,1,0.9,1.5,1.4c0.6,0.5,1.4,0.5,1.9-0.1C540,297,540,296.1,539.4,295.6z"/>
		<path class="st40" d="M517.5,278.6c-0.6-0.4-1.2-0.7-1.8-1.1c-0.6-0.4-1.5-0.2-1.9,0.5c-0.3,0.6-0.2,1.3,0.2,1.7
			c0.1,0.1,0.2,0.1,0.2,0.2c0.6,0.4,1.2,0.7,1.7,1.1c0.6,0.4,1.5,0.2,1.9-0.4C518.3,279.9,518.1,279.1,517.5,278.6z"/>
		<path class="st40" d="M534.3,290.9c-0.5-0.4-1.1-0.9-1.6-1.3c-0.6-0.5-1.5-0.4-1.9,0.2c-0.5,0.6-0.4,1.4,0.1,1.9
			c0,0,0.1,0.1,0.1,0.1c0.5,0.4,1,0.9,1.6,1.3c0.6,0.5,1.4,0.4,1.9-0.2C534.9,292.3,534.8,291.4,534.3,290.9z"/>
		<path class="st40" d="M499.3,268.7c-0.6-0.3-1.3-0.6-1.9-0.9c-0.7-0.3-1.5,0-1.8,0.7c-0.2,0.5-0.1,1.2,0.3,1.6
			c0.1,0.1,0.2,0.2,0.4,0.3c0.6,0.3,1.2,0.6,1.9,0.9c0.7,0.3,1.5,0,1.8-0.7C500.3,269.8,500,269,499.3,268.7z"/>
		<path class="st40" d="M486.5,263.2c-0.6-0.2-1.3-0.5-1.9-0.7c-0.7-0.3-1.5,0.1-1.8,0.8c-0.2,0.5,0,1.1,0.3,1.5
			c0.1,0.1,0.3,0.2,0.5,0.3c0.6,0.2,1.3,0.5,1.9,0.7c0.7,0.3,1.5-0.1,1.8-0.8C487.6,264.3,487.2,263.5,486.5,263.2z"/>
		<path class="st40" d="M493,265.8c-0.6-0.3-1.3-0.5-1.9-0.8c-0.7-0.3-1.5,0-1.8,0.7c-0.2,0.5-0.1,1.1,0.3,1.5
			c0.1,0.1,0.3,0.2,0.4,0.3c0.6,0.3,1.3,0.5,1.9,0.8c0.7,0.3,1.5,0,1.8-0.7C494,266.9,493.6,266.1,493,265.8z"/>
		<path class="st40" d="M505.5,271.7c-0.6-0.3-1.2-0.6-1.9-0.9c-0.7-0.3-1.5-0.1-1.8,0.6c-0.3,0.5-0.2,1.2,0.3,1.6
			c0.1,0.1,0.2,0.2,0.3,0.2c0.6,0.3,1.2,0.6,1.8,0.9c0.7,0.4,1.5,0.1,1.9-0.6C506.4,272.9,506.2,272.1,505.5,271.7z"/>
		<path class="st40" d="M511.6,275.1c-0.6-0.3-1.2-0.7-1.8-1c-0.7-0.4-1.5-0.1-1.9,0.5c-0.3,0.6-0.2,1.2,0.2,1.7
			c0.1,0.1,0.2,0.2,0.3,0.2c0.6,0.3,1.2,0.7,1.8,1c0.7,0.4,1.5,0.2,1.9-0.5C512.5,276.3,512.2,275.4,511.6,275.1z"/>
		<path class="st40" d="M480,260.9c-0.7-0.2-1.3-0.4-2-0.7c-0.7-0.2-1.5,0.2-1.7,0.9c-0.2,0.5,0,1.1,0.3,1.4
			c0.1,0.1,0.3,0.3,0.5,0.3c0.6,0.2,1.3,0.4,1.9,0.7c0.7,0.2,1.5-0.1,1.7-0.9C481.1,261.9,480.7,261.1,480,260.9z"/>
		<path class="st40" d="M473.4,258.7c-0.7-0.2-1.3-0.4-2-0.6c-0.7-0.2-1.5,0.2-1.7,0.9c-0.2,0.5,0,1,0.4,1.4
			c0.2,0.1,0.3,0.3,0.6,0.3c0.7,0.2,1.3,0.4,2,0.6c0.7,0.2,1.5-0.2,1.7-0.9C474.6,259.7,474.2,259,473.4,258.7z"/>
		<path class="st40" d="M281.7,253.3l-2.1,0.1c-0.8,0-1.3,0.7-1.3,1.4c0,0.4,0.2,0.7,0.4,0.9c0.3,0.3,0.6,0.4,1,0.4l2.1-0.1
			c0.8,0,1.3-0.7,1.3-1.4C283.1,253.8,282.5,253.2,281.7,253.3z"/>
		<path class="st40" d="M274.9,253.5l-2.1,0.1c-0.8,0-1.4,0.7-1.3,1.4c0,0.4,0.2,0.7,0.4,0.9c0.3,0.2,0.6,0.4,1,0.4l2.1-0.1
			c0.8,0,1.4-0.7,1.3-1.4C276.3,254.1,275.6,253.5,274.9,253.5z"/>
		<path class="st40" d="M302.3,252.2l-2.1,0.1c-0.8,0-1.3,0.7-1.3,1.5c0,0.4,0.2,0.7,0.4,0.9c0.3,0.3,0.6,0.4,1,0.4l2.1-0.1
			c0.8,0,1.3-0.7,1.3-1.5C303.7,252.7,303.1,252.1,302.3,252.2z"/>
		<path class="st40" d="M274.7,109.9c0.4-0.7,0.2-1.5-0.5-1.9c-0.6-0.4-1.2-0.7-1.8-1c-0.7-0.4-1.5-0.1-1.9,0.5
			c-0.3,0.6-0.2,1.2,0.2,1.7c0.1,0.1,0.2,0.2,0.3,0.2c0.6,0.3,1.2,0.7,1.8,1C273.5,110.8,274.3,110.6,274.7,109.9z"/>
		<path class="st40" d="M295.5,252.6l-2.1,0.1c-0.8,0-1.3,0.7-1.3,1.4c0,0.4,0.2,0.7,0.4,0.9c0.3,0.3,0.6,0.4,1,0.4l2.1-0.1
			c0.8,0,1.3-0.7,1.3-1.5C296.9,253.1,296.2,252.5,295.5,252.6z"/>
		<path class="st40" d="M288.6,252.9l-2.1,0.1c-0.8,0-1.3,0.7-1.3,1.4c0,0.4,0.2,0.7,0.4,0.9c0.3,0.3,0.6,0.4,1,0.4l2.1-0.1
			c0.8,0,1.3-0.7,1.3-1.4C290,253.5,289.4,252.9,288.6,252.9z"/>
		<path class="st40" d="M255.2,99.5c-0.7-0.2-1.3-0.4-2-0.6c-0.7-0.2-1.5,0.2-1.7,0.9c-0.2,0.5,0,1,0.4,1.4c0.2,0.1,0.3,0.3,0.6,0.3
			c0.6,0.2,1.3,0.4,1.9,0.6c0.7,0.2,1.5-0.2,1.7-0.9C256.3,100.5,256,99.7,255.2,99.5z"/>
		<path class="st40" d="M261.2,253.8c-0.7,0-1.4,0-2.1,0c-0.8,0-1.4,0.6-1.4,1.4c0,0.4,0.2,0.7,0.4,1c0.2,0.2,0.6,0.4,1,0.4
			c0.7,0,1.4,0,2.1,0c0.8,0,1.4-0.6,1.4-1.4C262.6,254.4,261.9,253.8,261.2,253.8z"/>
		<path class="st40" d="M261.8,101.9c-0.6-0.3-1.3-0.5-1.9-0.8c-0.7-0.3-1.5,0.1-1.8,0.8c-0.2,0.5-0.1,1.1,0.3,1.5
			c0.1,0.1,0.3,0.2,0.5,0.3c0.6,0.2,1.3,0.5,1.9,0.8c0.7,0.3,1.5,0,1.8-0.8C262.8,103,262.5,102.1,261.8,101.9z"/>
		<path class="st40" d="M268,253.7c-0.7,0-1.4,0-2.1,0c-0.8,0-1.4,0.6-1.4,1.4c0,0.4,0.2,0.7,0.4,1c0.3,0.2,0.6,0.4,1,0.4
			c0.7,0,1.4,0,2.1,0c0.8,0,1.4-0.6,1.3-1.4C269.4,254.3,268.8,253.7,268,253.7z"/>
		<path class="st40" d="M265.1,106.3c0.6,0.3,1.2,0.6,1.8,0.9c0.7,0.3,1.5,0.1,1.8-0.6c0.3-0.7,0.1-1.5-0.6-1.8
			c-0.6-0.3-1.3-0.6-1.9-0.9c-0.7-0.3-1.5,0-1.8,0.7c-0.3,0.5-0.1,1.2,0.3,1.6C264.8,106.2,264.9,106.2,265.1,106.3z"/>
		<path class="st40" d="M384.7,247.7c-0.7,0-1.4,0-2.1,0c-0.8,0-1.4,0.6-1.4,1.4c0,0.4,0.2,0.7,0.4,1c0.3,0.2,0.6,0.4,1,0.4
			c0.7,0,1.4,0,2.1,0c0.8,0,1.4-0.6,1.4-1.4C386.1,248.3,385.5,247.7,384.7,247.7z"/>
		<path class="st40" d="M350.3,249l-2.1,0.1c-0.8,0-1.3,0.7-1.3,1.5c0,0.4,0.2,0.7,0.4,0.9c0.3,0.3,0.6,0.4,1,0.4l2.1-0.1
			c0.8,0,1.3-0.7,1.3-1.5C351.7,249.5,351.1,248.9,350.3,249z"/>
		<path class="st40" d="M364.1,248.3l-2.1,0.1c-0.8,0-1.3,0.7-1.3,1.4c0,0.4,0.2,0.7,0.4,0.9c0.3,0.3,0.6,0.4,1,0.4l2.1-0.1
			c0.8,0,1.3-0.7,1.3-1.4C365.5,248.8,364.8,248.2,364.1,248.3z"/>
		<path class="st40" d="M357.2,248.6l-2.1,0.1c-0.8,0-1.3,0.7-1.3,1.4c0,0.4,0.2,0.7,0.4,0.9c0.3,0.3,0.6,0.4,1,0.4l2.1-0.1
			c0.8,0,1.3-0.7,1.3-1.4C358.6,249.1,357.9,248.5,357.2,248.6z"/>
		<path class="st40" d="M309.2,251.7l-2.1,0.1c-0.8,0-1.3,0.7-1.3,1.5c0,0.4,0.2,0.7,0.4,0.9c0.3,0.3,0.6,0.4,1,0.4l2.1-0.1
			c0.8-0.1,1.3-0.7,1.3-1.5C310.6,252.2,309.9,251.7,309.2,251.7z"/>
		<path class="st40" d="M370.9,248l-2.1,0.1c-0.8,0-1.4,0.7-1.3,1.4c0,0.4,0.2,0.7,0.4,0.9c0.3,0.3,0.6,0.4,1,0.4l2.1-0.1
			c0.8,0,1.4-0.7,1.3-1.4C372.3,248.6,371.7,248,370.9,248z"/>
		<path class="st40" d="M377.8,247.8c-0.7,0-1.4,0-2.1,0c-0.8,0-1.4,0.6-1.3,1.4c0,0.4,0.2,0.7,0.4,1c0.3,0.2,0.6,0.4,1,0.4
			c0.7,0,1.4,0,2.1,0c0.8,0,1.4-0.6,1.3-1.4C379.2,248.4,378.6,247.8,377.8,247.8z"/>
		<path class="st40" d="M343.4,249.4l-2.1,0.1c-0.8,0-1.3,0.7-1.3,1.5c0,0.4,0.2,0.7,0.4,0.9c0.3,0.3,0.6,0.4,1,0.4l2.1-0.1
			c0.8,0,1.3-0.7,1.3-1.5C344.9,249.9,344.2,249.3,343.4,249.4z"/>
		<path class="st40" d="M322.9,250.8l-2.1,0.1c-0.8,0.1-1.3,0.7-1.3,1.5c0,0.4,0.2,0.7,0.4,0.9c0.3,0.3,0.6,0.4,1.1,0.4l2.1-0.1
			c0.8-0.1,1.3-0.7,1.3-1.5C324.3,251.3,323.6,250.7,322.9,250.8z"/>
		<path class="st40" d="M316,251.2l-2.1,0.1c-0.8,0.1-1.3,0.7-1.3,1.5c0,0.4,0.2,0.7,0.4,0.9c0.3,0.3,0.6,0.4,1.1,0.4l2.1-0.1
			c0.8-0.1,1.3-0.7,1.3-1.5C317.4,251.8,316.8,251.2,316,251.2z"/>
		<path class="st40" d="M336.6,249.8l-2.1,0.1c-0.8,0.1-1.3,0.7-1.3,1.5c0,0.4,0.2,0.7,0.4,0.9c0.3,0.3,0.6,0.4,1.1,0.4l2.1-0.1
			c0.8-0.1,1.3-0.7,1.3-1.5C338,250.3,337.3,249.8,336.6,249.8z"/>
		<path class="st40" d="M329.7,250.3l-2.1,0.1c-0.8,0.1-1.3,0.7-1.3,1.5c0,0.4,0.2,0.7,0.4,0.9c0.3,0.3,0.6,0.4,1.1,0.4l2.1-0.1
			c0.8-0.1,1.3-0.7,1.3-1.5C331.1,250.8,330.5,250.2,329.7,250.3z"/>
	</g>
	<g>
		<g>
			<g>
				<g>
					
						<linearGradient id="SVGID_31_" gradientUnits="userSpaceOnUse" x1="2475.8735" y1="505.7893" x2="2472.0508" y2="548.0644" gradientTransform="matrix(1 0 0 1 -2333 0)">
						<stop  offset="0" style="stop-color:#09005D"/>
						<stop  offset="1" style="stop-color:#1A0F91"/>
					</linearGradient>
					<path class="st41" d="M157.3,475.3c-4.3,0.4-11.7,1-17.6,1.2c-3.5,0.2-5.5-0.2-6.7-0.7c0,0.1,0,0.3,0,0.4
						c0,0.6,0.5,1.1,1.2,1.1c11.1,0.6,19.9,0.2,23,0c0.6,0,1-0.7,0.7-1.3C157.7,475.8,157.5,475.6,157.3,475.3z"/>
					
						<linearGradient id="SVGID_32_" gradientUnits="userSpaceOnUse" x1="2443.8391" y1="632.4363" x2="2458.6804" y2="564.301" gradientTransform="matrix(1 0 0 1 -2333 0)">
						<stop  offset="0" style="stop-color:#09005D"/>
						<stop  offset="1" style="stop-color:#1A0F91"/>
					</linearGradient>
					<path class="st42" d="M139.8,476.5c5.9-0.3,13.3-0.9,17.6-1.2c-4.2-5.2-17.6-8.6-17.6-8.6H136c-2.6,3.7-3,7.3-2.9,9.2
						C134.2,476.3,136.3,476.7,139.8,476.5z"/>
					
						<linearGradient id="SVGID_33_" gradientUnits="userSpaceOnUse" x1="2468.3633" y1="464.7805" x2="2475.3992" y2="464.7805" gradientTransform="matrix(1 0 0 1 -2333 0)">
						<stop  offset="0" style="stop-color:#FF928E"/>
						<stop  offset="1" style="stop-color:#FEB3B1"/>
					</linearGradient>
					<path class="st43" d="M135.4,460.5l0.4,7c0,0.8,0.6,1.4,1.4,1.5c0.8,0.1,1.8,0.1,2.8-0.2c0.7-0.2,1.1-0.8,1.3-1.5l1.2-6.8
						H135.4z"/>
				</g>
				<g>
					<g>
						
							<linearGradient id="SVGID_34_" gradientUnits="userSpaceOnUse" x1="2418.7654" y1="500.6254" x2="2414.9424" y2="542.903" gradientTransform="matrix(1 0 0 1 -2333 0)">
							<stop  offset="0" style="stop-color:#09005D"/>
							<stop  offset="1" style="stop-color:#1A0F91"/>
						</linearGradient>
						<path class="st44" d="M86.4,476.5c-1.9-0.3-2.7-1.2-3-2.3c0,0,0,0,0,0c-0.3,1.1,0.4,2.2,1.6,2.7c1.5,0.6,3.2,0.8,4.5,0.7
							c1.4-0.1,2.7-0.6,3.4-1.6l0,0C91.4,476.8,89.5,476.9,86.4,476.5z"/>
						
							<linearGradient id="SVGID_35_" gradientUnits="userSpaceOnUse" x1="2390.3667" y1="620.7886" x2="2405.208" y2="552.6532" gradientTransform="matrix(1 0 0 1 -2333 0)">
							<stop  offset="0" style="stop-color:#09005D"/>
							<stop  offset="1" style="stop-color:#1A0F91"/>
						</linearGradient>
						<path class="st45" d="M95.1,460.5H92c-4.7-0.1-7.7,9.9-8.7,13.8c0.4,1,1.2,2,3,2.3c3.1,0.4,5.1,0.4,6.5-0.3
							c2.6-3.4,3.8-8.3,4.4-11.2C98,461.7,95.1,460.5,95.1,460.5z"/>
					</g>
					
						<linearGradient id="SVGID_36_" gradientUnits="userSpaceOnUse" x1="2423.6328" y1="458.915" x2="2432.0415" y2="458.915" gradientTransform="matrix(1 0 0 1 -2333 0)">
						<stop  offset="0" style="stop-color:#FF928E"/>
						<stop  offset="1" style="stop-color:#FEB3B1"/>
					</linearGradient>
					<path class="st46" d="M92.4,454l-1.7,6.9c-0.2,0.8,0.2,1.7,1,2.1c1,0.5,2.3,1,3.6,0.9c0.6-0.1,1.1-0.5,1.3-1l2.5-7.2L92.4,454z
						"/>
				</g>
				<linearGradient id="SVGID_37_" gradientUnits="userSpaceOnUse" x1="95.2875" y1="466.3797" x2="217.1887" y2="297.8455">
					<stop  offset="0" style="stop-color:#4042E2"/>
					<stop  offset="1" style="stop-color:#4F52FF"/>
				</linearGradient>
				<path class="st47" d="M90.4,456c2.1,1.9,9.1,2.2,9.1,2.2c25.2-60.4,35.5-69,35.5-69c-3.6,22.8-0.6,73.3-0.6,73.3
					c4.2,1.8,9.5,0,9.5,0c0.3-37.3,6.1-69.9,12.9-95.6c-17-0.4-26.1-6.2-29-8.5C113.5,381.2,90.4,456,90.4,456z"/>
				<path class="st11" d="M132.1,288.8c-3.2,16.1-2.1,44.8-1.3,57.9c0.2,3.7-2.4,8.8-4.4,12.3c-0.3,0.5-0.1,1.2,0.4,1.5
					c3.5,1.8,15.3,7.3,29,8c0.9,0,1.7-0.6,2-1.5c10.1-37.9,21.9-62.1,21.9-62.1C166.6,284.3,132.1,288.8,132.1,288.8z"/>
				<linearGradient id="SVGID_38_" gradientUnits="userSpaceOnUse" x1="141.6466" y1="394.9669" x2="141.8715" y2="414.9803">
					<stop  offset="0" style="stop-color:#4042E2"/>
					<stop  offset="1" style="stop-color:#4F52FF"/>
				</linearGradient>
				<path class="st48" d="M136.7,387.7c-0.1,0-0.3,0-0.4-0.1c-0.4-0.2-0.5-0.7-0.3-1.1c0.1-0.2,3.4-5.5,10-8.7
					c0.4-0.2,0.9,0,1.1,0.4c0.2,0.4,0,0.9-0.4,1.1c-6.1,3-9.3,8-9.3,8.1C137.2,387.5,137,387.7,136.7,387.7z"/>
				<g>
					
						<linearGradient id="SVGID_39_" gradientUnits="userSpaceOnUse" x1="2167.4802" y1="717.9493" x2="2194.2395" y2="682.8696" gradientTransform="matrix(1 0 0 1 -2333 0)">
						<stop  offset="0" style="stop-color:#FF928E"/>
						<stop  offset="1" style="stop-color:#FEB3B1"/>
					</linearGradient>
					<path class="st49" d="M111.8,334.9c1,7.5,4.1,15.6,10.2,24.3l2.3-1.9c0,0-2.7-10.9-1.2-23.2C119.4,333.4,115,334.1,111.8,334.9
						z"/>
					<path class="st11" d="M135.6,308.6l-3.6-19.8c0,0-24,18.4-20.2,46.1c3.1-0.8,7.6-1.6,11.4-0.8
						C124.3,325.2,127.6,315.5,135.6,308.6z"/>
				</g>
				<g>
					<path class="st11" d="M179.6,305.1l-9.3,20c1.5,12.1,8,17.3,15,19.3c0.4-5.5,1.8-9.9,3.1-13
						C179.5,322.1,179.6,305.1,179.6,305.1z"/>
					
						<linearGradient id="SVGID_40_" gradientUnits="userSpaceOnUse" x1="2518.2708" y1="338.8549" x2="2541.8442" y2="338.8549" gradientTransform="matrix(1 0 0 1 -2333 0)">
						<stop  offset="0" style="stop-color:#FF928E"/>
						<stop  offset="1" style="stop-color:#FEB3B1"/>
					</linearGradient>
					<path class="st50" d="M188.4,331.3c-1.3,3.1-2.7,7.5-3.1,13c18.6,7.2,23.6-6.8,23.6-6.8l-3.4-0.6
						C197.6,337.7,192.2,335.2,188.4,331.3z"/>
				</g>
				<linearGradient id="SVGID_41_" gradientUnits="userSpaceOnUse" x1="167.9229" y1="278.6017" x2="151.9572" y2="310.0834">
					<stop  offset="0" style="stop-color:#FF928E"/>
					<stop  offset="1" style="stop-color:#FEB3B1"/>
				</linearGradient>
				<path class="st51" d="M171,280.4l-4.5,16.5c-0.5,1.8-2.5,2.8-4.3,2.1c-1.9-0.8-4.4-1.8-6.5-2.9c-2.2-1.2-2.9-4.1-1.5-6.2
					l9.3-13.9L171,280.4z"/>
			</g>
			<path class="st3" d="M217.4,326.5l-114.8,41.8c-4.8,1.8-7.1,7.2-5,11.9l0.3,0.8c1.9,4.1,6.8,5.9,10.9,4l111.4-51.6L217.4,326.5z"
				/>
			<ellipse class="st52" cx="270.1" cy="301.4" rx="56.7" ry="55.6"/>
			<path class="st3" d="M270.1,239.5c-34.8,0-63,27.7-63,61.9c0,34.2,28.2,61.9,63,61.9s63-27.7,63-61.9
				C333.2,267.2,305,239.5,270.1,239.5z M270.1,354.2c-29.7,0-53.8-23.6-53.8-52.8c0-29.2,24.1-52.8,53.8-52.8
				c29.7,0,53.8,23.6,53.8,52.8C323.9,330.6,299.8,354.2,270.1,354.2z"/>
			<g>
				<path class="st2" d="M211.9,309c-0.2,0-0.4-0.1-0.4-0.3c-0.2-1.5-0.3-3-0.4-4.4c0-0.2,0.2-0.4,0.4-0.4c0.2,0,0.9-0.4,0.9-0.1
					c0.1,1.5-0.3,3.4-0.1,4.9C212.3,308.8,212.2,309,211.9,309C211.9,309,211.9,309,211.9,309z M212.3,291.7
					C212.3,291.7,212.3,291.7,212.3,291.7c-0.3,0-0.4-0.2-0.4-0.5c0.7-4,1.9-7.9,3.4-11.6l0,0c9.1-22,30.6-36.3,54.8-36.3
					c11.3,0,22.3,3.1,31.7,9.1c0.2,0.1,0.2,0.4,0.1,0.5c-0.1,0.2-0.4,0.2-0.5,0.1c-9.3-5.9-20.2-9-31.3-9c-23.9,0-45.1,14-54.1,35.8
					l0,0c-1.5,3.7-2.6,7.5-3.4,11.5C212.7,291.6,212.5,291.7,212.3,291.7z"/>
			</g>
			
				<linearGradient id="SVGID_42_" gradientUnits="userSpaceOnUse" x1="2181.4236" y1="728.5853" x2="2208.1829" y2="693.5057" gradientTransform="matrix(1 0 0 1 -2333 0)">
				<stop  offset="0" style="stop-color:#FF928E"/>
				<stop  offset="1" style="stop-color:#FEB3B1"/>
			</linearGradient>
			<path class="st53" d="M123.4,357l10.8-0.9l4.7,4.3c0,0-1.1,1.5-4.6,0.7c-3.5-0.9-8.2-1.1-8.2-1.1s-4.8,2.2-4.9-1.9L123.4,357z"/>
			
				<linearGradient id="SVGID_43_" gradientUnits="userSpaceOnUse" x1="2539.3398" y1="336.0863" x2="2547.782" y2="336.0863" gradientTransform="matrix(1 0 0 1 -2333 0)">
				<stop  offset="0" style="stop-color:#FF928E"/>
				<stop  offset="1" style="stop-color:#FEB3B1"/>
			</linearGradient>
			<path class="st54" d="M207.5,340.1c0.9,0.7,4.2-0.8,6.1-1.9c1-0.5,1.4-1.6,1.1-2.7c-0.5-1.5-1.3-3.4-2.2-3.7
				C210.8,331.5,203.6,337.1,207.5,340.1z"/>
			<path class="st2" d="M104.9,383.3c0,0-0.1,0-0.1,0c-4.5-1.5-5.5-4.2-5.6-6.1c-0.1-2.8,1.7-5.5,4.9-7l13.8-5.4
				c-0.3,0.4-0.1,0.5,0,0.7c0.1,0.2,0,0.4-0.2,0.5l-13.8,5.4c-2.5,1-4,3.3-3.9,5.8c0.1,2.5,1.8,4.3,5.1,5.4c0.2,0.1,0.3,0.3,0.2,0.5
				C105.2,383.2,105,383.3,104.9,383.3z"/>
			<path class="st2" d="M121.8,364.4c-0.2,0-0.3-0.1-0.4-0.2c-0.1-0.2,0-0.4,0.2-0.5l2.3-1.2c0.2-0.1-0.1,0.5,0,0.7
				c0.1,0.2,0,0.4-0.2,0.5l-1.8,0.7C121.9,364.4,121.8,364.4,121.8,364.4z"/>
			<g>
				<linearGradient id="SVGID_44_" gradientUnits="userSpaceOnUse" x1="160.3615" y1="250.2192" x2="167.7822" y2="278.5526">
					<stop  offset="0" style="stop-color:#FF928E"/>
					<stop  offset="1" style="stop-color:#FEB3B1"/>
				</linearGradient>
				<path class="st55" d="M172,264.2c0,0,3.7,8.5,4,13c0.2,4.5,1.2,7.4-4,8.3c-5.2,0.9-9.5-1.7-11.9-6.1c0,0-3.7-6.9-2.9-9.7
					C158.1,266.9,172,264.2,172,264.2z"/>
				<linearGradient id="SVGID_45_" gradientUnits="userSpaceOnUse" x1="174.8319" y1="239.3004" x2="148.5222" y2="300.6897">
					<stop  offset="0" style="stop-color:#09005D"/>
					<stop  offset="1" style="stop-color:#1A0F91"/>
				</linearGradient>
				<path class="st56" d="M161.9,276.2h0.7c0,0-2.7-5.5-0.3-6.5c2.4-1,11.7-2.9,13.8-6.2c1.9-3.2,0.2-7.3-2.4-8.5
					c-0.2-0.1-0.4,0-0.4,0.2l-0.2,0.4c-0.1,0.3-0.6,0.2-0.6-0.1l0,0c-0.1-0.3-0.5-0.4-0.6-0.1c-0.6,1-2.3,2.6-6.8,3.4
					c-6.4,1.2-10.6,3.8-10.7,8.2c0,0.3-0.3,0.4-0.5,0.3c-0.5-0.3-1.2-0.4-2.2,0.4c-1.8,1.5-1,5.3,2.8,8.4c0.2,0.1,0.2,0.4,0,0.6
					c-0.7,0.5-1.7,1.5,1,3c2.7,1.5,4.4,1.3,5,1.2c0.2,0,0.3-0.2,0.3-0.4l-0.2-3.9c0-0.2,0.1-0.4,0.4-0.4H161.9z"/>
				<linearGradient id="SVGID_46_" gradientUnits="userSpaceOnUse" x1="153.4588" y1="252.027" x2="160.8795" y2="280.3606">
					<stop  offset="0" style="stop-color:#FF928E"/>
					<stop  offset="1" style="stop-color:#FEB3B1"/>
				</linearGradient>
				<path class="st57" d="M162,277c0,0-1.4-5.4-3.9-3.9c-2.4,1.5,1.3,6.1,3.2,6.3L162,277z"/>
			</g>
		</g>
	</g>
</g>
</svg>
