<?xml version="1.0" encoding="utf-8"?>
<!-- Generator: Adobe Illustrator 24.3.0, SVG Export Plug-In . SVG Version: 6.00 Build 0)  -->
<svg version="1.1" id="Layer_3" xmlns="http://www.w3.org/2000/svg" xmlns:xlink="http://www.w3.org/1999/xlink" x="0px" y="0px"
	 viewBox="0 0 512 512" style="enable-background:new 0 0 512 512;" xml:space="preserve">
<style type="text/css">
	.st0{fill:#F5B953;}
	.st1{fill:#F9D18B;}
	.st2{fill:#FFFFFF;}
	.st3{fill:#78B75B;}
	.st4{fill:#3D98F7;}
	.st5{fill:#E47C6E;}
	.st6{fill:#EFBE9A;}
	.st7{fill:#4D5D7A;}
	.st8{fill:#DB9B7C;}
	.st9{fill:#4472B2;}
</style>
<circle class="st0" cx="256" cy="275.7" r="78.8"/>
<circle class="st1" cx="256" cy="275.7" r="59.1"/>
<path class="st2" d="M256,269.1c-7.2,0-13.1-5.9-13.1-13.1c0-7.2,5.9-13.1,13.1-13.1c7.2,0,13.1,5.9,13.1,13.1h13.1
	c0-14.5-11.8-26.3-26.3-26.3c-14.5,0-26.3,11.8-26.3,26.3s11.8,26.3,26.3,26.3c7.2,0,13.1,5.9,13.1,13.1c0,7.2-5.9,13.1-13.1,13.1
	c-7.2,0-13.1-5.9-13.1-13.1h-13.1c0,12.2,8.4,22.4,19.7,25.3v14.1h13.1v-14.1c11.3-2.9,19.7-13.1,19.7-25.3
	C282.3,280.9,270.5,269.1,256,269.1z"/>
<path class="st3" d="M210,58.9h92v177.4h-92V58.9z"/>
<path class="st4" d="M144.3,124.6H210v111.7h-65.7V124.6z"/>
<path class="st5" d="M275.7,164h92v72.3h-92V164z"/>
<path class="st6" d="M137.7,374.3h85.4l32.9,32.9l-19.7,19.7h85.4v26.3h-98.6l-39.4-39.4h-46"/>
<g>
	<path class="st2" d="M229.7,78.6h13.1v13.1h-13.1V78.6z"/>
	<path class="st2" d="M269.1,78.6h13.1v13.1h-13.1V78.6z"/>
	<path class="st2" d="M229.7,104.9h13.1V118h-13.1V104.9z"/>
	<path class="st2" d="M269.1,104.9h13.1V118h-13.1V104.9z"/>
	<path class="st2" d="M229.7,131.2h13.1v13.1h-13.1V131.2z"/>
	<path class="st2" d="M269.1,131.2h13.1v13.1h-13.1V131.2z"/>
	<path class="st2" d="M229.7,157.4h13.1v13.1h-13.1V157.4z"/>
	<path class="st2" d="M229.7,183.7h13.1v13.1h-13.1V183.7z"/>
	<path class="st2" d="M229.7,210h13.1v13.1h-13.1V210z"/>
	<path class="st2" d="M295.4,183.7h13.1v13.1h-13.1V183.7z"/>
	<path class="st2" d="M334.8,183.7H348v13.1h-13.1V183.7z"/>
	<path class="st2" d="M295.4,210h13.1v13.1h-13.1V210z"/>
	<path class="st2" d="M334.8,210H348v13.1h-13.1V210z"/>
	<path class="st2" d="M164,144.3h13.1v13.1H164V144.3z"/>
	<path class="st2" d="M177.2,170.6h13.1v13.1h-13.1V170.6z"/>
	<path class="st2" d="M164,196.9h13.1V210H164V196.9z"/>
</g>
<path class="st7" d="M124.6,229.7h262.8v13.1H124.6V229.7z"/>
<path class="st8" d="M211.9,411.7l9.3-9.3l19.7,19.7l-9.3,9.3L211.9,411.7z"/>
<path class="st9" d="M131.2,354.6h13.1v78.8h-13.1V354.6z"/>
</svg>
