<svg id="Layer_3" enable-background="new 0 0 64 64" height="512" viewBox="0 0 64 64" width="512" xmlns="http://www.w3.org/2000/svg"><circle cx="32" cy="35" fill="#f5b953" r="12"/><circle cx="32" cy="35" fill="#f9d18b" r="9"/><path d="m32 34c-1.103 0-2-.897-2-2s.897-2 2-2 2 .897 2 2h2c0-2.206-1.794-4-4-4s-4 1.794-4 4 1.794 4 4 4c1.103 0 2 .897 2 2s-.897 2-2 2-2-.897-2-2h-2c0 1.859 1.279 3.411 3 3.858v2.142h2v-2.142c1.721-.447 3-1.999 3-3.858 0-2.206-1.794-4-4-4z" fill="#fff"/><path d="m25 2h14v27h-14z" fill="#78b75b"/><path d="m15 12h10v17h-10z" fill="#3d98f7"/><path d="m35 18h14v11h-14z" fill="#e47c6e"/><path d="m14 50h13l5 5-3 3h13v4h-15l-6-6h-7" fill="#efbe9a"/><g fill="#fff"><path d="m28 5h2v2h-2z"/><path d="m34 5h2v2h-2z"/><path d="m28 9h2v2h-2z"/><path d="m34 9h2v2h-2z"/><path d="m28 13h2v2h-2z"/><path d="m34 13h2v2h-2z"/><path d="m28 17h2v2h-2z"/><path d="m28 21h2v2h-2z"/><path d="m28 25h2v2h-2z"/><path d="m38 21h2v2h-2z"/><path d="m44 21h2v2h-2z"/><path d="m38 25h2v2h-2z"/><path d="m44 25h2v2h-2z"/><path d="m18 15h2v2h-2z"/><path d="m20 19h2v2h-2z"/><path d="m18 23h2v2h-2z"/></g><path d="m12 28h40v2h-40z" fill="#4d5d7a"/><path d="m26.5 54.379h2v4.243h-2z" fill="#db9b7c" transform="matrix(.707 -.707 .707 .707 -31.897 35.994)"/><path d="m13 47h2v12h-2z" fill="#4472b2"/></svg>