<?xml version="1.0" encoding="utf-8"?>
<!-- Generator: Adobe Illustrator 24.3.0, SVG Export Plug-In . SVG Version: 6.00 Build 0)  -->
<svg version="1.1" id="Layer_1" xmlns="http://www.w3.org/2000/svg" xmlns:xlink="http://www.w3.org/1999/xlink" x="0px" y="0px"
	 viewBox="0 0 512 512" style="enable-background:new 0 0 512 512;" xml:space="preserve">
<style type="text/css">
	.st0{fill:#96C8EF;}
	.st1{fill:#FFFFFF;}
	.st2{fill:#1A72FF;}
</style>
<path class="st0" d="M256,80c94.8,0,176,81.1,176,176s-81.1,176-176,176c-33.7,0-69.4-9.9-95.9-26.7L80,432l26.7-80
	C89.9,325.4,80,289.7,80,256C80,161.2,161.2,80,256,80z"/>
<path class="st1" d="M291.8,327.5v28.6h-71.5v-28.6h14.3V256h-14.3v-28.6h57.2v100.1H291.8z"/>
<path class="st1" d="M277.5,177.3c0,11.9-9.6,21.5-21.5,21.5c-11.8,0-21.5-9.6-21.5-21.5c0-11.8,9.6-21.5,21.5-21.5
	C267.9,155.9,277.5,165.5,277.5,177.3z"/>
<path class="st2" d="M367.6,170.2c0,3.9,3.2,7.2,7.2,7.2c3.9,0,7.2-3.2,7.2-7.2s-3.2-7.2-7.2-7.2C370.8,163,367.6,166.2,367.6,170.2
	z"/>
<path class="st2" d="M396.2,256c0,9.2-0.9,18.3-2.7,27.2c-0.8,3.9,1.7,7.6,5.6,8.4c0.5,0.1,1,0.1,1.4,0.1c3.3,0,6.3-2.3,7-5.7
	c2-9.8,3-19.9,3-30c0-22.5-4.9-44.2-14.5-64.4c-1.7-3.6-6-5.1-9.5-3.4c-3.6,1.7-5.1,6-3.4,9.5C391.8,216,396.2,235.6,396.2,256z"/>
<path class="st2" d="M291.8,320.4h-7.2v-93c0-4-3.2-7.2-7.2-7.2h-57.2c-4,0-7.2,3.2-7.2,7.2V256c0,4,3.2,7.2,7.2,7.2h7.2v57.2h-7.2
	c-4,0-7.2,3.2-7.2,7.2v28.6c0,4,3.2,7.2,7.2,7.2h71.5c4,0,7.2-3.2,7.2-7.2v-28.6C298.9,323.6,295.7,320.4,291.8,320.4z M284.6,349
	h-57.2v-14.3h7.2c4,0,7.2-3.2,7.2-7.2V256c0-4-3.2-7.2-7.2-7.2h-7.2v-14.3h42.9v93c0,4,3.2,7.2,7.2,7.2h7.2V349z"/>
<path class="st2" d="M256,205.9c15.8,0,28.6-12.8,28.6-28.6s-12.8-28.6-28.6-28.6s-28.6,12.8-28.6,28.6S240.2,205.9,256,205.9z
	 M256,163c7.9,0,14.3,6.4,14.3,14.3s-6.4,14.3-14.3,14.3c-7.9,0-14.3-6.4-14.3-14.3S248.1,163,256,163z"/>
</svg>
