<svg id="Capa_1" enable-background="new 0 0 513.085 513.085" height="512" viewBox="0 0 513.085 513.085" width="512" xmlns="http://www.w3.org/2000/svg"><g><g><path d="m431.734 48.674h-113.148l-40 76.495h193.148z" fill="#e3e0e4"/></g><g><path d="m431.734 48.674h-113.148l-.687-41.174h112.133z" fill="#e3e0e4"/></g><g><path d="m431.734 48.674h-30l40 76.495h30z" fill="#d4cfd5"/></g><g><path d="m430.032 7.5h-30l1.702 41.174h30z" fill="#d4cfd5"/></g><g><path d="m8.042 302.46v-21.56c0-3.446 2.794-6.24 6.24-6.24h484.52c3.446 0 6.24 2.794 6.24 6.24v21.56" fill="#fee6b9"/></g><g><path d="m217.802 159.469h-203.519c-3.446 0-6.24-2.794-6.24-6.24v-136.82c0-3.446 2.794-6.24 6.24-6.24h203.52c3.446 0 6.24 2.794 6.24 6.24v136.819c-.001 3.447-2.794 6.241-6.241 6.241z" fill="#fee6b9"/></g><g><path d="m475.534 159.469h-204.52c-3.446 0-6.24-2.794-6.24-6.24v-21.819c0-3.446 2.794-6.24 6.24-6.24h204.52c3.446 0 6.24 2.794 6.24 6.24v21.819c0 3.446-2.794 6.24-6.24 6.24z" fill="#fdd27a"/></g><g><path d="m492.422 505.585h-471.759c-6.97 0-12.621-5.651-12.621-12.621v-190.504h497v190.504c.001 6.97-5.65 12.621-12.62 12.621z" fill="#fffaf0"/></g><g><path d="m481.774 274.66h-205.999v-18.942c0-5.975 4.844-10.819 10.819-10.819h184.36c5.975 0 10.819 4.844 10.819 10.819v18.942z" fill="#b5adb7"/></g><g><path d="m498.802 274.66h-30c3.446 0 6.24 2.794 6.24 6.24v21.56h30v-21.56c.001-3.446-2.793-6.24-6.24-6.24z" fill="#fdd27a"/></g><g><path d="m217.802 10.169h-30c3.446 0 6.24 2.794 6.24 6.24v136.819c0 3.447-2.794 6.24-6.24 6.24h30c3.446 0 6.24-2.794 6.24-6.24v-136.819c0-3.446-2.793-6.24-6.24-6.24z" fill="#fdd27a"/></g><g><path d="m475.534 125.169h-30c3.446 0 6.24 2.794 6.24 6.24v21.819c0 3.447-2.794 6.24-6.24 6.24h30c3.446 0 6.24-2.794 6.24-6.24v-21.819c0-3.446-2.794-6.24-6.24-6.24z" fill="#edbf66"/></g><g><path d="m475.043 302.46v190.504c0 6.97-5.651 12.621-12.621 12.621h30c6.97 0 12.621-5.651 12.621-12.621v-190.504z" fill="#fdebc8"/></g><g><path d="m470.955 244.899h-30c5.975 0 10.819 4.844 10.819 10.819v18.942h30v-18.942c0-5.975-4.844-10.819-10.819-10.819z" fill="#a59da7"/></g><g><path d="m498.802 267.16h-9.528v-11.442c0-10.101-8.218-18.319-18.319-18.319h-184.361c-10.101 0-18.319 8.218-18.319 18.319v11.442h-129.644c-4.142 0-7.5 3.358-7.5 7.5s3.358 7.5 7.5 7.5h358.911v16.3h-482v-16.3h93.089c4.142 0 7.5-3.358 7.5-7.5s-3.358-7.5-7.5-7.5h-94.348c-7.576 0-13.74 6.164-13.74 13.74v212.064c0 11.095 9.026 20.121 20.121 20.121h471.758c11.095 0 20.121-9.026 20.121-20.121v-212.064c-.001-7.576-6.165-13.74-13.741-13.74zm-215.527-11.442c0-1.83 1.489-3.319 3.319-3.319h184.361c1.83 0 3.319 1.489 3.319 3.319v11.442h-190.999zm-24.767 57.742v184.625h-111.615v-184.625zm-242.966 179.504v-179.504h116.35v184.625h-111.228c-2.824 0-5.122-2.297-5.122-5.121zm476.879 5.121h-218.913v-184.625h224.034v179.504c.001 2.824-2.297 5.121-5.121 5.121z"/><path d="m14.283 166.969h203.52c7.576 0 13.74-6.164 13.74-13.74v-136.82c0-7.577-6.164-13.741-13.74-13.741h-203.52c-7.576 0-13.74 6.164-13.74 13.741v136.819c0 7.577 6.164 13.741 13.74 13.741zm202.259-15h-93v-134.3h93zm-201-134.3h93v134.3h-93z"/><path d="m271.014 166.969h110.122c4.142 0 7.5-3.358 7.5-7.5s-3.358-7.5-7.5-7.5h-108.862v-19.3h202v19.3h-63.138c-4.142 0-7.5 3.358-7.5 7.5s3.358 7.5 7.5 7.5h64.398c7.576 0 13.74-6.164 13.74-13.74v-21.819c0-7.319-5.757-13.303-12.978-13.702l-37.137-71.021-1.634-39.497c-.166-4.018-3.472-7.19-7.493-7.19h-112.133c-2.011 0-3.938.808-5.347 2.241-1.41 1.434-2.186 3.373-2.152 5.384l.655 39.265-37.011 70.778h-3.03c-7.576 0-13.74 6.164-13.74 13.741v21.819c0 7.577 6.164 13.741 13.74 13.741zm151.822-151.969 1.082 26.174h-97.956l-.437-26.174zm-99.708 41.174h104.065l32.156 61.495h-168.378z"/><path d="m235.306 365.593c4.142 0 7.5-3.358 7.5-7.5v-17.52c0-4.142-3.358-7.5-7.5-7.5s-7.5 3.358-7.5 7.5v17.52c0 4.142 3.358 7.5 7.5 7.5z"/><path d="m474.537 333.074c-4.142 0-7.5 3.358-7.5 7.5v17.52c0 4.142 3.358 7.5 7.5 7.5s7.5-3.358 7.5-7.5v-17.52c0-4.142-3.358-7.5-7.5-7.5z"/><path d="m109.811 333.074c-4.142 0-7.5 3.358-7.5 7.5v17.52c0 4.142 3.358 7.5 7.5 7.5s7.5-3.358 7.5-7.5v-17.52c0-4.142-3.358-7.5-7.5-7.5z"/><path d="m86.488 100.149c-4.142 0-7.5 3.358-7.5 7.5v17.519c0 4.142 3.358 7.5 7.5 7.5s7.5-3.358 7.5-7.5v-17.519c0-4.142-3.358-7.5-7.5-7.5z"/><path d="m144.773 132.669c4.142 0 7.5-3.358 7.5-7.5v-17.519c0-4.142-3.358-7.5-7.5-7.5s-7.5 3.358-7.5 7.5v17.519c0 4.142 3.358 7.5 7.5 7.5z"/></g></g></svg>