<?xml version="1.0" encoding="utf-8"?>
<!-- Generator: Adobe Illustrator 24.3.0, SVG Export Plug-In . SVG Version: 6.00 Build 0)  -->
<svg version="1.1" id="Capa_1" xmlns="http://www.w3.org/2000/svg" xmlns:xlink="http://www.w3.org/1999/xlink" x="0px" y="0px"
	 viewBox="0 0 512 512" style="enable-background:new 0 0 512 512;" xml:space="preserve">
<style type="text/css">
	.st0{fill:#FEDBAB;}
	.st1{fill:#FEC478;}
	.st2{fill:#1689FC;}
	.st3{fill:#136EF1;}
</style>
<path class="st0" d="M438.6,308c0-13.5-11-24.5-24.5-24.5c13.5,0,24.5-11,24.5-24.5s-11-24.5-24.5-24.5H313.8
	c14.9-44.8,14.7-59.9,14.7-87.3c0-15.9-10.3-29.6-24.5-34.5c-3.9-1.5-7.8-2.2-12.2-2.2h-7.3c-4.7,0-10.5,3.7-11.8,9.3l-6.9,26.7
	c-10.3,39.9-43.3,88-84.2,88v171.4l54.6,18.1c12.5,4.2,25.5,6.4,38.7,6.4h114.8c13.5,0,24.5-11,24.5-24.5c0-13.5-11-24.5-24.5-24.5
	h24.5c13.5,0,24.5-11,24.5-24.5s-11-24.5-24.5-24.5C427.6,332.5,438.6,321.5,438.6,308z"/>
<path class="st1" d="M389.6,430.4c13.5,0,24.5-11,24.5-24.5c0-13.5-11-24.5-24.5-24.5h24.5c13.5,0,24.5-11,24.5-24.5
	s-11-24.5-24.5-24.5c13.5,0,24.5-11,24.5-24.5c0-13.5-11-24.5-24.5-24.5c13.5,0,24.5-11,24.5-24.5s-11-24.5-24.5-24.5H313.8
	c14.9-44.8,14.7-59.9,14.7-87.3c0-15.9-10.3-29.6-24.5-34.5c-3.9-1.5-7.8-2.2-12.2-2.2v319.9H389.6z"/>
<g>
	<path class="st2" d="M157.1,454.9H83.6c-6.8,0-12.2-5.5-12.2-12.2V222.3c0-6.8,5.5-12.2,12.2-12.2h73.4c20.2,0,36.7,16.5,36.7,36.7
		v171.4C193.8,438.4,177.3,454.9,157.1,454.9z"/>
	<circle class="st2" cx="132.6" cy="393.7" r="12.2"/>
	<path class="st2" d="M304,49.3v24.5c0,6.9-5.4,12.2-12.2,12.2s-12.2-5.4-12.2-12.2V49.3c0-6.9,5.4-12.2,12.2-12.2
		S304,42.5,304,49.3z"/>
	<path class="st2" d="M222.5,107.6l-17.3-17.3c-4.8-4.8-4.8-12.5,0-17.3c4.8-4.8,12.5-4.8,17.3,0l17.3,17.3c4.8,4.8,4.8,12.5,0,17.3
		C235,112.4,227.3,112.4,222.5,107.6z"/>
</g>
<g>
	<path class="st3" d="M343.7,107.6c-4.8-4.8-4.8-12.5,0-17.3L361,73c4.8-4.8,12.5-4.8,17.3,0c4.8,4.8,4.8,12.5,0,17.3L361,107.6
		C356.2,112.4,348.4,112.4,343.7,107.6z"/>
	<path class="st3" d="M304,49.3v24.5c0,6.9-5.4,12.2-12.2,12.2v-49C298.6,37.1,304,42.5,304,49.3z"/>
</g>
</svg>
