<svg id="Layer_3" enable-background="new 0 0 64 64" height="512" viewBox="0 0 64 64" width="512" xmlns="http://www.w3.org/2000/svg"><g><g><path d="m49 31h2v5h-2z" fill="#9da1bf"/></g><path d="m49 31h1v5h-1z" fill="#c8cded"/><path d="m8 38v-18c0-1.105.866-2 1.933-2h25.133c1.068 0 1.934.895 1.934 2v18" fill="#ba4753"/><path d="m32 33h-19c-1.105 0-2-.895-2-2v-9c0-1.105.895-2 2-2h19c1.105 0 2 .895 2 2v9c0 1.105-.895 2-2 2z" fill="#e1656e"/><path d="m10 38c0-1.657 1.343-3 3-3h19c1.657 0 3 1.343 3 3" fill="#8d353e"/><path d="m9 42-3 4h3l5-4" fill="#e1656e"/><path d="m42 36h20v4h-20z" fill="#363a4f"/><path d="m49 40-3 6h-2v-6" fill="#4c506e"/><path d="m55 40 3 6h2v-6" fill="#4c506e"/><path d="m50 33-3-4h6z" fill="#e2e7f6"/><path d="m56 36v-7l1-2v-3h3v3l1 2v7" fill="#787faa"/><path d="m37 26h2c2.209 0 4 1.791 4 4 0 2.209-1.791 4-4 4v6c0 1.105-.895 2-2 2h-29c-1.105 0-2-.895-2-2v-6c-2.209 0-4-1.791-4-4 0-2.209 1.791-4 4-4h2c1.105 0 2 .895 2 2v10h25v-10c0-1.105.895-2 2-2z" fill="#8d353e"/><path d="m36 42 3 4h-3l-5-4" fill="#e1656e"/><g><path d="m1 49h62v2h-62z" fill="#363a4f"/></g><path d="m42.445 28c-.693-1.191-1.968-2-3.445-2h-2c-1.105 0-2 .895-2 2v10h-25v-10c0-1.105-.895-2-2-2h-2c-1.862 0-3.413 1.278-3.859 3h3.859c1.105 0 2 .895 2 2v7c0 1.105.895 2 2 2h25c1.105 0 2-.895 2-2v-8c0-1.105.895-2 2-2z" fill="#e1656e"/><path d="m28 23h-11c-.552 0-1-.448-1-1 0-.552.448-1 1-1h11c.552 0 1 .448 1 1 0 .552-.448 1-1 1z" fill="#f29b99"/><path d="m58 34c.552 0 1-.448 1-1v-9h-2v3l-1 2v5z" fill="#9da1bf"/><path d="m45 38h14c.552 0 1-.448 1-1v-1h-16v1c0 .552.448 1 1 1z" fill="#4c506e"/><path d="m57 24h3v1h-3z" fill="#4c506e"/><path d="m30 28h-15c-.552 0-1 .448-1 1v2c0 .552.448 1 1 1h15c.552 0 1-.448 1-1v-2c0-.552-.448-1-1-1z" fill="#ba4753"/></g></svg>