<svg id="Layer_3" enable-background="new 0 0 64 64" height="512" viewBox="0 0 64 64" width="512" xmlns="http://www.w3.org/2000/svg"><g><g><path d="m49 31h2v5h-2z" fill="#9da1bf"/></g><path d="m49 31h1v5h-1z" fill="#c8cded"/><path d="m8 38v-18c0-1.105.866-2 1.933-2h25.133c1.068 0 1.934.895 1.934 2v18" fill="#ba4753"/><path d="m32 33h-19c-1.105 0-2-.895-2-2v-9c0-1.105.895-2 2-2h19c1.105 0 2 .895 2 2v9c0 1.105-.895 2-2 2z" fill="#e1656e"/><path d="m10 38c0-1.657 1.343-3 3-3h19c1.657 0 3 1.343 3 3" fill="#8d353e"/><path d="m9 42-3 4h3l5-4" fill="#e1656e"/><path d="m42 36h20v4h-20z" fill="#363a4f"/><path d="m49 40-3 6h-2v-6" fill="#4c506e"/><path d="m55 40 3 6h2v-6" fill="#4c506e"/><path d="m50 33-3-4h6z" fill="#e2e7f6"/><path d="m56 36v-7l1-2v-3h3v3l1 2v7" fill="#787faa"/><path d="m37 26h2c2.209 0 4 1.791 4 4 0 2.209-1.791 4-4 4v6c0 1.105-.895 2-2 2h-29c-1.105 0-2-.895-2-2v-6c-2.209 0-4-1.791-4-4 0-2.209 1.791-4 4-4h2c1.105 0 2 .895 2 2v10h25v-10c0-1.105.895-2 2-2z" fill="#8d353e"/><path d="m36 42 3 4h-3l-5-4" fill="#e1656e"/><g><path d="m1 49h62v2h-62z" fill="#363a4f"/></g><path d="m42.445 28c-.693-1.191-1.968-2-3.445-2h-2c-1.105 0-2 .895-2 2v10h-25v-10c0-1.105-.895-2-2-2h-2c-1.862 0-3.413 1.278-3.859 3h3.859c1.105 0 2 .895 2 2v7c0 1.105.895 2 2 2h25c1.105 0 2-.895 2-2v-8c0-1.105.895-2 2-2z" fill="#e1656e"/><path d="m28 23h-11c-.552 0-1-.448-1-1 0-.552.448-1 1-1h11c.552 0 1 .448 1 1 0 .552-.448 1-1 1z" fill="#f29b99"/><path d="m58 34c.552 0 1-.448 1-1v-9h-2v3l-1 2v5z" fill="#9da1bf"/><path d="m45 38h14c.552 0 1-.448 1-1v-1h-16v1c0 .552.448 1 1 1z" fill="#4c506e"/><path d="m57 24h3v1h-3z" fill="#4c506e"/><path d="m30 28h-15c-.552 0-1 .448-1 1v2c0 .552.448 1 1 1h15c.552 0 1-.448 1-1v-2c0-.552-.448-1-1-1z" fill="#ba4753"/><path d="m62 35v-6c0-.155-.036-.309-.105-.447l-.895-1.789v-2.764c0-.552-.447-1-1-1h-3c-.553 0-1 .448-1 1v2.764l-.895 1.789c-.069.138-.105.292-.105.447v6h-4v-1.667l2.8-3.733c.228-.303.264-.708.095-1.047-.17-.339-.516-.553-.895-.553h-6c-.379 0-.725.214-.895.553-.169.339-.133.744.095 1.047l2.8 3.733v1.667h-7c-.553 0-1 .448-1 1v4c0 .552.447 1 1 1h1v5c0 .552.447 1 1 1h2c.379 0 .725-.214.895-.553l2.723-5.447h4.764l2.724 5.447c.169.339.515.553.894.553h2c.553 0 1-.448 1-1v-5h1c.553 0 1-.448 1-1v-4c0-.552-.447-1-1-1zm-11-5-1 1.333-1-1.333zm6-.764.895-1.789c.069-.138.105-.292.105-.447v-2h1v2c0 .155.036.309.105.447l.895 1.789v5.764h-3zm-11.618 15.764h-.382v-4h2.382zm13.618 0h-.382l-2-4h2.382zm2-6h-18v-2h18z"/><path d="m5 34.899v5.101c0 1.343.893 2.469 2.112 2.851l-1.912 2.549c-.228.303-.264.708-.095 1.047.17.339.516.553.895.553h3c.228 0 .447-.077.625-.219l4.726-3.781h16.298l4.726 3.781c.178.142.397.219.625.219h3c.379 0 .725-.214.895-.553.169-.339.133-.744-.095-1.047l-1.912-2.549c1.219-.382 2.112-1.508 2.112-2.851v-5.101c2.279-.464 4-2.485 4-4.899 0-2.757-2.243-5-5-5h-1v-5c0-1.654-1.346-3-3-3h-26c-1.654 0-3 1.346-3 3v5c-2.757 0-5 2.243-5 5 0 2.415 1.721 4.435 4 4.899zm3.649 10.101h-.649l1.5-2h1.649zm27.702 0-2.5-2h1.649l1.5 2zm-28.351-25c0-.551.448-1 1-1h26c.552 0 1 .449 1 1v5h-1c-.553 0-1 .448-1 1v8.556c-.591-.344-1.268-.556-2-.556h-19c-.732 0-1.409.212-2 .556v-8.556c0-.552-.447-1-1-1h-2zm25.722 17h-22.444c.347-.595.985-1 1.722-1h19c.737 0 1.375.405 1.722 1zm-27.722-10h3v11c0 .552.447 1 1 1h25c.553 0 1-.448 1-1v-11h3c1.654 0 3 1.346 3 3s-1.346 3-3 3c-.553 0-1 .448-1 1v6c0 .551-.448 1-1 1h-29c-.552 0-1-.449-1-1v-6c0-.552-.447-1-1-1-1.654 0-3-1.346-3-3s1.346-3 3-3z"/><path d="m1 49h62v2h-62z"/></g></svg>