<svg id="Capa_1" enable-background="new 0 0 512 512" height="512" viewBox="0 0 512 512" width="512" xmlns="http://www.w3.org/2000/svg"><g><g><path d="m66.595 33.392c-26.654-14.479-59.095 4.816-59.095 35.149v288.484c0 21.993 12.033 42.224 31.358 52.722l112.827 61.294c6.698 3.639 14.09 5.458 21.481 5.458l73-220.166-73-165.046z" fill="#d4d4ff"/><path d="m317.352 12.958-144.185 78.33v385.212c7.392 0 14.783-1.819 21.481-5.458l144.185-78.33 80-136.711-80-248.5c-7.391-.001-14.783 1.819-21.481 5.457z" fill="#efedff"/><path d="m473.142 74.253-112.827-61.295c-6.698-3.638-14.09-5.458-21.482-5.458v385.211l106.572 57.896c26.653 14.48 59.095-4.815 59.095-35.148v-288.484c0-21.993-12.033-42.224-31.358-52.722z" fill="#d4d4ff"/></g><g><path d="m61.364 81.762c-3.998-2.172-8.864.723-8.864 5.272v90.096l5 8.7-5 12.513v158.682c0 5.503 3.004 10.553 7.84 13.18l112.827 61.295 56-144.834-14.361-53.328-41.639-90.838z" fill="#30cd9c"/><path d="m173.167 142.5v203.381l-5 9.901 5 11.312v64.406l165.666-90 59-97.5-59-191.5z" fill="#70dcba"/><path d="m450.636 402.238c3.998 2.172 8.864-.723 8.864-5.272v-140.479l-5-11.847 5-9.366v-108.299c0-5.503-3.004-10.554-7.84-13.181l-112.827-61.294v289z" fill="#30cd9c"/></g><g><path d="m374.67 401.992 66.018 44.48c.088.059.173.121.255.187 7.716 6.208 12.141 15.443 12.141 25.336 0 17.923-14.582 32.505-32.504 32.505-9.894 0-19.254-4.595-25.461-12.311l-44.542-66.104v-24.093z" fill="#ce857a"/><g><path d="m319.608 257.014h-26.135l-45.588 45.588v91.828l45.587 45.587h26.137c41.163-10.092 71.706-47.227 71.706-91.502s-30.544-81.41-71.707-91.501z" fill="#9ea2e3"/><path d="m247.885 348.516c0-44.36 30.622-81.423 71.722-91.502-7.213-1.768-14.749-2.713-22.508-2.713-51.906 0-94.215 42.071-94.215 94.215 0 52.175 42.341 94.215 94.215 94.215 7.759 0 15.296-.945 22.509-2.713-41.081-10.077-71.723-47.119-71.723-91.502z" fill="#8288cb"/></g><path d="m297.1 397.73c27.137 0 49.215-22.078 49.215-49.215s-22.078-49.215-49.215-49.215-49.215 22.078-49.215 49.215c0 27.138 22.078 49.215 49.215 49.215z" fill="#70dcba"/></g><g><path d="m203.551 185.856c-4.143 0-7.5 3.357-7.5 7.5v12c0 4.143 3.357 7.5 7.5 7.5s7.5-3.357 7.5-7.5v-12c0-4.142-3.358-7.5-7.5-7.5z"/><path d="m308.448 185.856c-4.143 0-7.5 3.357-7.5 7.5v12c0 4.143 3.357 7.5 7.5 7.5s7.5-3.357 7.5-7.5v-12c0-4.142-3.357-7.5-7.5-7.5z"/><path d="m277.391 199.345c-3.122-2.721-7.861-2.396-10.581.728-5.725 6.569-15.899 6.564-21.619 0-2.721-3.124-7.459-3.448-10.581-.728-3.123 2.721-3.449 7.459-.728 10.581 11.702 13.431 32.545 13.419 44.236 0 2.722-3.122 2.396-7.861-.727-10.581z"/><path d="m476.722 67.663-30.142-16.375c-3.64-1.977-8.192-.629-10.17 3.01s-.63 8.193 3.01 10.17l30.142 16.375c16.924 9.195 27.438 26.871 27.438 46.132v288.485c0 24.486-26.051 40.076-47.566 28.785-3.121-3.5-4.046-3.678-64.545-44.413 3.664-6.244 6.68-12.912 8.957-19.91l53.21 28.907c8.992 4.885 19.944-1.617 19.944-11.863 0-9.579 0-260.433 0-269.991 0-8.255-4.506-15.831-11.76-19.771l-108.907-59.164v-32.266c3.625.741 7.141 2.003 10.401 3.774l56.324 30.599c3.642 1.979 8.195.63 10.17-3.01 1.978-3.64.63-8.193-3.01-10.17l-56.323-30.599c-7.668-4.166-16.334-6.368-25.062-6.368-8.727 0-17.393 2.202-25.062 6.368l-140.604 76.385-102.992-55.951c-31.9-17.327-70.175 6.035-70.175 41.739v288.484c0 24.764 13.518 47.491 35.278 59.312l112.827 61.294c15.434 8.385 34.279 8.598 50.124 0l62.691-34.057c11.247 4.295 23.443 6.656 36.181 6.656 18.706 0 36.244-5.081 51.319-13.927l40.481 60.076c.118.175.243.345.376.51 7.723 9.603 19.133 15.111 31.303 15.111 25.636 0 44.913-23.993 38.921-49.264 28.245 2.986 52.499-19.304 52.499-47.276v-288.485c0-24.764-13.518-47.491-35.278-59.312zm-296.055 28.086 140.265-76.201c3.261-1.771 6.777-3.033 10.401-3.774v32.266l-150.666 81.851zm-15 372.477c-3.625-.741-7.141-2.003-10.401-3.775l-112.828-61.294c-16.924-9.195-27.438-26.871-27.438-46.132v-288.484c0-24.613 26.391-40.305 48.015-28.558l102.652 55.767v34.141l-100.723-54.719c-8.99-4.884-19.944 1.617-19.944 11.863v269.991c0 8.254 4.506 15.83 11.76 19.77l108.907 59.165zm7.5-163.437c-4.142 0-7.5 3.358-7.5 7.5v26.092l-2.287-2.287c-9.008-9.008-22.726-10.497-33.298-4.478l-7.344-7.344c-9.226-9.226-24.236-9.226-33.462 0l-13.072 13.072c-2.929 2.929-2.929 7.678 0 10.606 2.929 2.929 7.678 2.929 10.606 0l13.072-13.072c3.381-3.38 8.856-3.392 12.249 0l6.644 6.644-10.912 10.912c-2.929 2.929-2.929 7.678 0 10.606 2.929 2.929 7.678 2.929 10.606 0l17.174-17.094c4.61-4.588 12.445-3.931 17.129.753l12.894 12.894v59.297l-101.746-55.275c-2.418-1.313-3.92-3.838-3.92-6.589v-166.182l22.069-22.069c8.773-8.773 23.048-8.772 31.82 0l22.409 22.409c2.929 2.929 7.678 2.929 10.606 0 2.929-2.929 2.929-7.678 0-10.606l-22.409-22.409c-14.621-14.622-38.412-14.621-53.033 0l-11.462 11.462v-80.075l105.667 57.405v135.327c0 4.142 3.358 7.5 7.5 7.5s7.5-3.358 7.5-7.5v-135.327l150.666-81.851v33.39c0 4.142 3.357 7.5 7.5 7.5s7.5-3.358 7.5-7.5v-33.39l101.747 55.275c2.418 1.313 3.92 3.839 3.92 6.59v100.799l-9.605-9.605c-13.057-13.057-32.905-14.243-47.166-4.797l-21.229-21.486c-2.91-2.947-7.659-2.975-10.606-.063-2.946 2.911-2.975 7.66-.063 10.606l20.76 21.011-8.994 8.994c-2.929 2.929-2.929 7.678 0 10.606 2.93 2.929 7.678 2.929 10.607 0l14.266-14.266c8.772-8.773 23.049-8.772 31.819 0l20.211 20.214v145.457l-54.501-29.609c.861-5.315 1.315-10.765 1.315-16.32 0-38.237-21.211-71.607-52.481-88.978v-131.038c0-4.142-3.357-7.5-7.5-7.5s-7.5 3.358-7.5 7.5v124.234c-10.703-3.837-22.227-5.934-34.233-5.934-56.085 0-101.714 45.629-101.714 101.715 0 19.803 5.694 38.298 15.523 53.946l-30.242 16.429v-62.4c0-.002 0-.003 0-.005v-44.196c0-4.143-3.358-7.5-7.5-7.5zm17.904 159.661c-3.279 1.779-6.746 3.043-10.404 3.789v-32.278l39.222-21.308c7.003 8.164 15.272 15.212 24.505 20.829zm106.029-29.22c-47.814 0-86.714-38.9-86.714-86.715s38.9-86.715 86.714-86.715c47.815 0 86.714 38.9 86.714 86.715s-38.899 86.715-86.714 86.715zm123.48 61.77c-7.507 0-14.571-3.379-19.43-9.282l-40.387-59.938c5.746-4.624 10.98-9.858 15.603-15.604 58.884 39.651 60.276 40.239 62.213 42.437 15.828 17.982 2.614 42.387-17.999 42.387z"/><path d="m297.1 291.801c-31.272 0-56.715 25.442-56.715 56.715s25.442 56.715 56.715 56.715c31.272 0 56.714-25.442 56.714-56.715s-25.442-56.715-56.714-56.715zm0 98.429c-23.001 0-41.715-18.713-41.715-41.715s18.713-41.715 41.715-41.715 41.714 18.713 41.714 41.715-18.712 41.715-41.714 41.715z"/></g></g></svg>