<?xml version="1.0" encoding="utf-8"?>
<!-- Generator: Adobe Illustrator 24.3.0, SVG Export Plug-In . SVG Version: 6.00 Build 0)  -->
<svg version="1.1" id="Capa_1" xmlns="http://www.w3.org/2000/svg" xmlns:xlink="http://www.w3.org/1999/xlink" x="0px" y="0px"
	 viewBox="0 0 512 512" style="enable-background:new 0 0 512 512;" xml:space="preserve">
<style type="text/css">
	.st0{fill:#978ECB;}
	.st1{fill:#8379C1;}
	.st2{fill:#FFE5C2;}
	.st3{fill:#FED2A4;}
	.st4{fill:#ACA6D6;}
	.st5{fill:#5A74D1;}
	.st6{fill:#FFD15B;}
	.st7{fill:#FFE177;}
</style>
<g>
	<path class="st0" d="M335.8,463.7H186.3c-4.8,0-8.7-4.1-8.3-8.9l0.7-10.6c0.9-12,6.4-23.2,15.3-31.4l67.1-6.8l67.1,6.8l0.9,0.8
		c8.5,8.2,13.7,19.2,14.6,31l0.6,10.2C344.4,459.7,340.6,463.7,335.8,463.7L335.8,463.7z"/>
	<path class="st1" d="M344.2,454.9l-0.6-10.2c-0.9-11.8-6-22.8-14.6-31l-0.9-0.8l-8.8-4.3l-8.9,4.3l0.9,0.8
		c8.5,8.2,13.7,19.2,14.6,31l0.6,10.2c0.3,4.8-3.5,8.9-8.3,8.9h17.7C340.6,463.7,344.4,459.7,344.2,454.9L344.2,454.9z"/>
	<path class="st2" d="M344,166.3v104.5c0,11.9-2.9,23.7-8.3,34.3l-6.4,12.3c-5.5,10.6-8.3,22.4-8.3,34.3v10.2l-60,9.4l-61.7-9.4
		V157.1L344,166.3z"/>
	<path class="st3" d="M326.3,165.1v105.6c0,11.9-2.9,23.7-8.3,34.3l-6.4,12.3c-5.5,10.6-8.3,22.4-8.3,34.3v10.2l7.1,6.1l10.6-6.1
		v-10.2c0-11.9,2.9-23.7,8.3-34.3l6.4-12.3c5.5-10.6,8.3-22.4,8.3-34.3V166.3L326.3,165.1z"/>
	<path class="st2" d="M199.3,233c0,0,0-30.4,0-51.3v-15.4"/>
	<path class="st2" d="M199.3,361.1v-9c0-12-3.7-23.8-10.7-33.6l-15.2-21.7c-8.3-11.9-12.8-26-12.8-40.5v-74.6
		c0-10.7,8.7-19.4,19.4-19.4c10.7,0,19.4,8.7,19.4,19.4c0,20.9,0,51.3,0,51.3l36.4,35.3c6.9,6.7,12,15.2,14.7,24.4"/>
	<g>
		<path class="st3" d="M181.6,181.6c0,20.9,0,51.3,0,51.3l36.4,35.3c6.9,6.7,12,15.2,14.7,24.4c1.4,4.8,5.9,8,10.9,7.7l1.4-0.1
			c3.8-0.2,6.5-3.9,5.4-7.6c-2.7-9.3-7.7-17.7-14.7-24.4L199.3,233c0,0,0-30.4,0-51.3c0-10.7-8.7-19.4-19.4-19.4
			c-3.2,0-6.2,0.8-8.9,2.1C177.3,167.6,181.6,174.1,181.6,181.6L181.6,181.6z"/>
	</g>
	<path class="st2" d="M307.9,176.6c0,10,8.1,18.1,18.1,18.1s18.1-8.1,18.1-18.1v-27.6c0-10-8.1-18.1-18.1-18.1
		c-10,0-18.1,8.1-18.1,18.1V176.6z"/>
	<path class="st3" d="M326,130.8c-3.2,0-6.2,0.8-8.9,2.3c5.5,3.1,9.2,9,9.2,15.8v27.6c0,6.8-3.7,12.7-9.2,15.8
		c2.6,1.5,5.6,2.3,8.9,2.3c10,0,18.1-8.1,18.1-18.1v-27.6C344,138.9,335.9,130.8,326,130.8z"/>
	<path class="st2" d="M271.7,181.4c0,10,8.1,18.1,18.1,18.1c10,0,18.1-8.1,18.1-18.1v-47.3c0-10-8.1-18.1-18.1-18.1
		c-10,0-18.1,8.1-18.1,18.1V181.4z"/>
	<path class="st3" d="M289.8,116.1c-3.2,0-6.2,0.8-8.9,2.3c5.5,3.1,9.2,9,9.2,15.8v47.3c0,6.8-3.7,12.7-9.2,15.8
		c2.6,1.5,5.6,2.3,8.9,2.3c10,0,18.1-8.1,18.1-18.1v-47.3C307.9,124.2,299.8,116.1,289.8,116.1L289.8,116.1z"/>
	<path class="st2" d="M235.5,134.2c0-10,8.1-18.1,18.1-18.1s18.1,8.1,18.1,18.1V180c0,10-8.1,18.1-18.1,18.1
		c-10,0-18.1-8.1-18.1-18.1L235.5,134.2z"/>
	<path class="st3" d="M253.6,116.1c-3.2,0-6.2,0.8-8.9,2.3c5.5,3.1,9.2,9,9.2,15.8V180c0,6.8-3.7,12.7-9.2,15.8
		c2.6,1.5,5.6,2.3,8.9,2.3c10,0,18.1-8.1,18.1-18.1v-45.9C271.7,124.2,263.6,116.1,253.6,116.1L253.6,116.1z"/>
	<path class="st2" d="M235.5,202.4V73.6c0-10-8.1-18.1-18.1-18.1s-18.1,8.1-18.1,18.1v92.6L235.5,202.4z"/>
	<path class="st3" d="M218.4,55.6c-3.6-0.2-7,0.7-9.9,2.3c5.5,3.1,9.2,9,9.2,15.8v122.6c0,8,6.5,14.5,14.5,14.5
		c1.8,0,3.2-1.4,3.2-3.2V74.1C235.5,64.4,228.1,56.1,218.4,55.6z"/>
	<path class="st4" d="M327.9,361.9H194.1c-4.2,0-7.7,3.4-7.7,7.7v35.6c0,4.2,3.4,7.7,7.7,7.7h133.8c4.2,0,7.7-3.4,7.7-7.7v-35.6
		C335.6,365.4,332.1,361.9,327.9,361.9z"/>
	<path class="st0" d="M327.9,361.9h-17.7c4.2,0,7.7,3.4,7.7,7.7v35.6c0,4.2-3.4,7.7-7.7,7.7h17.7c4.2,0,7.7-3.4,7.7-7.7v-35.6
		C335.6,365.4,332.1,361.9,327.9,361.9z"/>
	<circle class="st5" cx="230.1" cy="387.4" r="6.2"/>
	<g>
		<path class="st6" d="M420.4,196.9h-23.3c-3.4,0-6.2-2.8-6.2-6.2s2.8-6.2,6.2-6.2h23.3c3.4,0,6.2,2.8,6.2,6.2
			S423.8,196.9,420.4,196.9z"/>
	</g>
	<g>
		<path class="st6" d="M271.7,83.9c-3.4,0-6.2-2.8-6.2-6.2V54.5c0-3.4,2.8-6.2,6.2-6.2c3.4,0,6.2,2.8,6.2,6.2v23.3
			C277.9,81.1,275.1,83.9,271.7,83.9z"/>
	</g>
	<g>
		<path class="st7" d="M380,122.3c-1.6,0-3.2-0.6-4.4-1.8c-2.4-2.4-2.4-6.4,0-8.8l8.2-8.2c2.4-2.4,6.4-2.4,8.8,0
			c2.4,2.4,2.4,6.4,0,8.8l-8.2,8.2C383.2,121.7,381.6,122.3,380,122.3z"/>
	</g>
	<g>
		<path class="st7" d="M388.2,274.9c-1.6,0-3.2-0.6-4.4-1.8l-8.2-8.2c-2.4-2.4-2.4-6.4,0-8.8c2.4-2.4,6.4-2.4,8.8,0l8.2,8.2
			c2.4,2.4,2.4,6.4,0,8.8C391.4,274.3,389.8,274.9,388.2,274.9L388.2,274.9z"/>
	</g>
	<g>
		<path class="st6" d="M114.9,196.9H91.6c-3.4,0-6.2-2.8-6.2-6.2s2.8-6.2,6.2-6.2h23.3c3.4,0,6.2,2.8,6.2,6.2
			S118.3,196.9,114.9,196.9z"/>
	</g>
	<g>
		<path class="st7" d="M132,122.3c-1.6,0-3.2-0.6-4.4-1.8l-8.2-8.2c-2.4-2.4-2.4-6.4,0-8.8c2.4-2.4,6.4-2.4,8.8,0l8.2,8.2
			c2.4,2.4,2.4,6.4,0,8.8C135.2,121.7,133.6,122.3,132,122.3z"/>
	</g>
	<g>
		<path class="st7" d="M123.8,274.9c-1.6,0-3.2-0.6-4.4-1.8c-2.4-2.4-2.4-6.4,0-8.8l8.2-8.2c2.4-2.4,6.4-2.4,8.8,0
			c2.4,2.4,2.4,6.4,0,8.8l-8.2,8.2C127,274.3,125.4,274.9,123.8,274.9L123.8,274.9z"/>
	</g>
</g>
</svg>
