<svg id="Capa_1" enable-background="new 0 0 502.232 502.232" height="512" viewBox="0 0 502.232 502.232" width="512" xmlns="http://www.w3.org/2000/svg"><g><path d="m347.584 502.232h-180.766c-5.84 0-10.463-4.936-10.081-10.764l.836-12.755c1.147-14.524 7.74-28.077 18.459-37.944l81.139-8.243 81.139 8.243 1.034.994c10.294 9.889 16.561 23.241 17.592 37.478l.734 12.285c.346 5.807-4.269 10.706-10.086 10.706z" fill="#978ecb"/><path d="m357.669 491.526-.734-12.285c-1.03-14.238-7.297-27.589-17.592-37.479l-1.034-.993-10.693-5.243-10.718 5.243 1.034.993c10.294 9.889 16.561 23.241 17.591 37.479l.734 12.285c.347 5.807-4.268 10.706-10.085 10.706h21.41c5.819 0 10.434-4.899 10.087-10.706z" fill="#8379c1"/><path d="m357.542 142.654v126.326c0 14.426-3.457 28.642-10.081 41.456l-7.702 14.904c-6.624 12.826-10.081 27.041-10.081 41.468v12.337l-72.509 11.381-74.579-11.381v-247.567z" fill="#ffe5c2"/><path d="m336.132 141.299v127.681c0 14.426-3.457 28.642-10.081 41.456l-7.702 14.904c-6.624 12.826-10.081 27.041-10.081 41.468v12.337l8.63 7.381 12.78-7.381v-12.337c0-14.426 3.457-28.642 10.081-41.468l7.702-14.904c6.624-12.815 10.081-27.03 10.081-41.456v-126.326z" fill="#fed2a4"/><path d="m182.592 223.278s0-36.744 0-62.04v-18.583" fill="#ffe5c2"/><path d="m182.588 378.133v-10.91c0-14.558-4.497-28.76-12.877-40.664l-18.43-26.182c-10.084-14.326-15.496-31.417-15.496-48.935v-90.202c0-12.924 10.477-23.401 23.401-23.401 12.925 0 23.402 10.473 23.402 23.398-.001 25.295-.001 62.042-.001 62.042l44.027 42.675c8.39 8.133 14.51 18.317 17.752 29.543" fill="#ffe5c2"/><g><path d="m161.178 161.236c-.001 25.296-.001 62.042-.001 62.042l44.028 42.675c8.39 8.132 14.509 18.316 17.751 29.542 1.67 5.782 7.112 9.645 13.121 9.314l1.747-.096c4.636-.256 7.831-4.756 6.543-9.217-3.242-11.226-9.361-21.41-17.752-29.543l-44.027-42.675s0-36.746.001-62.042c0-12.925-10.477-23.398-23.402-23.398-3.859 0-7.495.94-10.704 2.594 7.537 3.886 12.695 11.739 12.695 20.804z" fill="#fed2a4"/></g><path d="m313.802 155.085c0 12.078 9.791 21.869 21.869 21.869 12.078 0 21.869-9.791 21.869-21.869v-33.418c0-12.078-9.791-21.869-21.869-21.869-12.078 0-21.869 9.791-21.869 21.869z" fill="#ffe5c2"/><path d="m335.671 99.797c-3.89 0-7.54 1.02-10.705 2.801 6.661 3.748 11.164 10.88 11.164 19.068v33.418c0 8.188-4.503 15.32-11.164 19.068 3.165 1.781 6.815 2.801 10.705 2.801 12.078 0 21.869-9.791 21.869-21.869v-33.418c0-12.077-9.791-21.869-21.869-21.869z" fill="#fed2a4"/><path d="m270.064 160.991c0 12.078 9.791 21.869 21.869 21.869 12.078 0 21.869-9.791 21.869-21.869v-57.137c0-12.078-9.791-21.869-21.869-21.869-12.078 0-21.869 9.791-21.869 21.869z" fill="#ffe5c2"/><path d="m291.933 81.985c-3.89 0-7.54 1.021-10.705 2.801 6.661 3.748 11.164 10.88 11.164 19.068v57.137c0 8.188-4.503 15.32-11.164 19.068 3.165 1.781 6.815 2.801 10.705 2.801 12.078 0 21.869-9.791 21.869-21.869v-57.137c0-12.078-9.791-21.869-21.869-21.869z" fill="#fed2a4"/><path d="m226.326 103.854c0-12.078 9.791-21.869 21.869-21.869 12.078 0 21.869 9.791 21.869 21.869v55.447c0 12.078-9.791 21.869-21.869 21.869-12.078 0-21.869-9.791-21.869-21.869z" fill="#ffe5c2"/><path d="m248.195 81.985c-3.89 0-7.54 1.021-10.705 2.801 6.661 3.748 11.164 10.88 11.164 19.068v55.447c0 8.188-4.503 15.32-11.164 19.068 3.165 1.781 6.815 2.801 10.705 2.801 12.078 0 21.869-9.791 21.869-21.869v-55.447c0-12.078-9.791-21.869-21.869-21.869z" fill="#fed2a4"/><path d="m226.326 186.33v-155.64c0-12.078-9.791-21.869-21.869-21.869-12.078 0-21.869 9.791-21.869 21.869v111.963z" fill="#ffe5c2"/><path d="m205.664 8.853c-4.342-.234-8.422.804-11.913 2.768 6.661 3.748 11.164 10.88 11.164 19.068v148.141c0 9.665 7.835 17.5 17.5 17.5 2.16 0 3.911-1.751 3.911-3.911v-161.225c0-11.698-8.981-21.71-20.662-22.341z" fill="#fed2a4"/><path d="m338.043 379.147h-161.746c-5.117 0-9.266 4.148-9.266 9.266v43.091c0 5.117 4.148 9.266 9.266 9.266h161.746c5.117 0 9.266-4.148 9.266-9.266v-43.091c0-5.117-4.148-9.266-9.266-9.266z" fill="#aca6d6"/><path d="m338.043 379.147h-21.411c5.117 0 9.266 4.148 9.266 9.266v43.091c0 5.117-4.148 9.266-9.266 9.266h21.411c5.117 0 9.266-4.148 9.266-9.266v-43.091c0-5.117-4.148-9.266-9.266-9.266z" fill="#978ecb"/><circle cx="219.805" cy="409.959" fill="#5a74d1" r="7.508"/><g><path d="m449.798 179.629h-28.115c-4.143 0-7.5-3.357-7.5-7.5s3.357-7.5 7.5-7.5h28.115c4.143 0 7.5 3.357 7.5 7.5s-3.358 7.5-7.5 7.5z" fill="#ffd15b"/></g><g><path d="m270.063 43.115c-4.143 0-7.5-3.357-7.5-7.5v-28.115c0-4.143 3.357-7.5 7.5-7.5s7.5 3.357 7.5 7.5v28.115c0 4.143-3.357 7.5-7.5 7.5z" fill="#ffd15b"/></g><g><path d="m400.996 89.46c-1.919 0-3.839-.732-5.304-2.196-2.929-2.93-2.929-7.678 0-10.607l9.94-9.94c2.93-2.928 7.678-2.928 10.607 0 2.929 2.93 2.929 7.678 0 10.607l-9.94 9.94c-1.464 1.464-3.384 2.196-5.303 2.196z" fill="#ffe177"/></g><g><path d="m410.936 273.996c-1.919 0-3.839-.732-5.303-2.196l-9.94-9.939c-2.93-2.929-2.93-7.678-.001-10.606 2.93-2.93 7.679-2.929 10.606-.001l9.94 9.939c2.93 2.929 2.93 7.678.001 10.606-1.464 1.465-3.384 2.197-5.303 2.197z" fill="#ffe177"/></g><g><path d="m80.55 179.629h-28.116c-4.143 0-7.5-3.357-7.5-7.5s3.357-7.5 7.5-7.5h28.116c4.143 0 7.5 3.357 7.5 7.5s-3.358 7.5-7.5 7.5z" fill="#ffd15b"/></g><g><path d="m101.236 89.46c-1.919 0-3.839-.732-5.304-2.196l-9.94-9.94c-2.929-2.93-2.929-7.678 0-10.607 2.93-2.928 7.678-2.928 10.607 0l9.94 9.94c2.929 2.93 2.929 7.678 0 10.607-1.464 1.464-3.384 2.196-5.303 2.196z" fill="#ffe177"/></g><g><path d="m91.296 273.996c-1.92 0-3.839-.732-5.304-2.197-2.929-2.929-2.929-7.678.001-10.606l9.94-9.939c2.929-2.929 7.678-2.928 10.606.001s2.929 7.678-.001 10.606l-9.94 9.939c-1.463 1.464-3.383 2.196-5.302 2.196z" fill="#ffe177"/></g></g></svg>