<?xml version="1.0" encoding="utf-8"?>
<!-- Generator: Adobe Illustrator 24.3.0, SVG Export Plug-In . SVG Version: 6.00 Build 0)  -->
<svg version="1.1" id="Capa_1" xmlns="http://www.w3.org/2000/svg" xmlns:xlink="http://www.w3.org/1999/xlink" x="0px" y="0px"
	 viewBox="0 0 512 512" style="enable-background:new 0 0 512 512;" xml:space="preserve">
<style type="text/css">
	.st0{fill:#EABC6B;}
	.st1{fill:#E8AE4D;}
	.st2{fill:#FFE07D;}
	.st3{fill:#FFDDCE;}
	.st4{fill:#FFBCA1;}
	.st5{fill:#FFCBBE;}
	.st6{fill:#F5DBCC;}
	.st7{fill:#407093;}
</style>
<g>
	<g>
		<g>
			<g>
				<g>
					<g>
						<g>
							<path class="st0" d="M302.1,127.6c0,0,39.1-50.8,27.9-65.3c-3.8-5-7.1,1.8-15,1.8c-9.3,0-9.3-6.1-18.6-6.1
								c-9.3,0-9.3,6.1-18.6,6.1c-9.3,0-9.3-6.1-18.6-6.1c-9.3,0-9.3,6.1-18.6,6.1c-7.9,0-11.2-6.8-15.1-1.9
								c-11.3,14.5,27.3,65.4,27.3,65.4C82.4,239.5,137.3,391.7,237.8,391.7h79.7C418.3,391.7,472.9,239.8,302.1,127.6L302.1,127.6z
								"/>
						</g>
					</g>
					<g>
						<path class="st1" d="M302.1,127.6c0,0,39.1-50.8,27.9-65.3c-3.8-5-7.1,1.8-15,1.8c-9.3,0-9.3-6.1-18.6-6.1
							c-9.3,0-9.3,6.1-18.6,6.1c-0.5,0-0.9,0-1.3-0.1c-3.7,16-20.6,41-30.3,54.4c3.8,5.6,6.5,9.2,6.5,9.2c-2.3,1.5-4.5,3-6.7,4.5
							c162.6,111.8,108.2,259.6,8.8,259.6h62.8C418.3,391.7,472.9,239.8,302.1,127.6L302.1,127.6z"/>
					</g>
					<g>
						<path class="st2" d="M309.4,145.6c-22.7,5.7-45.2,5.7-67.9,0c-7.9-2-12.4-10.9-9.6-19c0-0.1,0.1-0.2,0.1-0.3
							c2.4-6.8,9.2-10.6,15.8-8.9c18.6,4.7,36.6,4.7,55.2,0c6.6-1.7,13.4,2.1,15.8,8.9c0,0.1,0.1,0.2,0.1,0.3
							C321.8,134.7,317.3,143.6,309.4,145.6z"/>
					</g>
				</g>
			</g>
		</g>
		<g>
			<g>
				<g>
					<g>
						<g>
							<g>
								<g>
									<g>
										<g>
											<g>
												<g>
													<g>
														<g>
															<path class="st3" d="M95.6,417.8l86.6,32.2c7.4,2.7,15.1,4.1,23,4.1h89.2c12.5,0,24.7-3.5,35.3-10.2l111.7-70.8
																c7.4-6.5,8.7-17.5,3.2-25.7c-6.1-8.9-16.1-10.5-27.1-5.2l-108.7,47.9l0.1-17.6c-1.4-14.5-12.6-26.1-27-28.1
																l-66.2-7.6c-15.3-2.2-22.9-7.3-36.2-15.1c-18.2-10.6-38.9-16.2-59.9-16.2H95.6L95.6,417.8L95.6,417.8z"/>
														</g>
														<g>
															<path class="st4" d="M95.6,417.8l86.6,32.2c7.4,2.7,15.1,4.1,23,4.1h89.2c12.5,0,24.7-3.5,35.3-10.2l111.7-70.8
																c7.4-6.5,8.7-17.5,3.2-25.7c-6.1-8.9-16.1-10.5-27.1-5.2l-108.7,47.9l0.1-17.6c-1.4-14.5-12.6-26.1-27-28.1
																l-66.2-7.6c-15.3-2.2-22.9-7.3-36.2-15.1c-18.2-10.6-38.9-16.2-59.9-16.2H95.6L95.6,417.8L95.6,417.8z"/>
														</g>
														<path class="st5" d="M444.5,347.4c-6.1-8.9-16.1-10.5-27.1-5.2l-29.9,13.2c1.4,2.3,2.6,4.1,2.6,4.1
															c5.5,8.1,4.2,19.1-3.2,25.7l-65.1,41.2c-8.6,3.9-17.9,6-27.4,6h-89.2c-7.8,0-15.6-1.4-23-4.1L95.7,396v21.7l86.6,32.2
															c7.4,2.7,15.1,4.1,23,4.1h72.9h16.3c12.5,0,24.7-3.5,35.3-10.2l111.7-70.8C448.7,366.6,450.1,355.6,444.5,347.4
															L444.5,347.4z"/>
														<g>
															<path class="st6" d="M300.7,354.3l0,0.4l0.3-0.1C300.8,354.5,300.7,354.4,300.7,354.3z"/>
														</g>
													</g>
												</g>
												<path class="st7" d="M114.3,435c0,6.3-5.1,11.4-11.4,11.4H75.5c-6.3,0-11.4-5.1-11.4-11.4V295.8
													c0-6.3,5.1-11.4,11.4-11.4h27.4c6.3,0,11.4,5.1,11.4,11.4V435z"/>
											</g>
										</g>
									</g>
								</g>
							</g>
						</g>
					</g>
				</g>
			</g>
		</g>
	</g>
	<g>
		<path d="M277,323.1c3.3,0,6-2.7,6-6v-9.9c16.8-2.7,26.6-16.3,28.7-29c2.7-15.8-5.6-29.6-21.1-35.1c-2.7-1-5.3-1.9-7.6-2.8v-38.1
			c7.1,1.2,11.3,4.8,11.6,5.1c2.4,2.2,6.2,2,8.4-0.4c2.2-2.4,2.1-6.2-0.3-8.4c-0.4-0.4-7.7-7-19.7-8.4v-8.5c0-3.3-2.7-6-6-6
			c-3.3,0-6,2.7-6,6v9c-1.4,0.3-2.9,0.6-4.4,1.1c-10.1,3.1-17.7,11.8-19.8,22.7c-1.9,9.9,1.3,19.5,8.2,24.9c4,3.1,9,6,16,9v47.3
			c-6.9-0.3-11.2-1.6-18.6-6.4c-2.8-1.8-6.5-1-8.3,1.7c-1.8,2.8-1,6.5,1.7,8.3c9.8,6.4,16.3,8.1,25.1,8.4v9.5
			C271,320.5,273.7,323.1,277,323.1L277,323.1z M262.4,230c-3.4-2.7-4.9-7.8-3.8-13.3c1-5.1,4.5-11.4,11.5-13.5
			c0.3-0.1,0.7-0.2,1-0.3v32.3C267.4,233.5,264.6,231.7,262.4,230z M286.6,254.5c14.9,5.3,14,18,13.3,21.8
			c-1.3,7.8-7.1,16.2-16.9,18.7v-41.9C284.1,253.6,285.3,254,286.6,254.5L286.6,254.5z"/>
	</g>
</g>
</svg>
