<?xml version="1.0" encoding="iso-8859-1"?>
<!-- Generator: Adobe Illustrator 19.0.0, SVG Export Plug-In . SVG Version: 6.00 Build 0)  -->
<svg version="1.1" id="Layer_1" xmlns="http://www.w3.org/2000/svg" xmlns:xlink="http://www.w3.org/1999/xlink" x="0px" y="0px"
	 viewBox="0 0 512 512" style="enable-background:new 0 0 512 512;" xml:space="preserve">
<g>
	<g>
		<path d="M431.629,201.869c-6.836-8.727-16.928-14.012-28.416-14.883c-11.229-0.848-22.481,2.648-31.675,9.85
			c-9.195,7.202-15.285,17.286-17.148,28.393c-1.906,11.362,0.809,22.426,7.645,31.153c6.835,8.727,16.928,14.013,28.415,14.883
			c1.106,0.083,2.212,0.125,3.319,0.125c10.109,0.001,20.067-3.482,28.356-9.973C441.312,246.388,445.576,219.675,431.629,201.869z
			 M412.857,249.585c-6.234,4.884-13.786,7.262-21.272,6.694c-7.227-0.547-13.519-3.801-17.72-9.164s-5.853-12.252-4.655-19.398
			c1.242-7.4,5.36-14.166,11.595-19.049c5.631-4.411,12.337-6.777,19.096-6.777c0.724,0,1.451,0.027,2.176,0.082
			c7.226,0.547,13.518,3.801,17.72,9.164C428.634,222.418,425.521,239.666,412.857,249.585z"/>
	</g>
</g>
<g>
	<g>
		<path d="M238.395,123.988c-7.149-12.382-18.409-21.431-31.705-25.481c-13.48-4.107-27.428-2.601-39.273,4.239
			c-24.28,14.018-31.949,46.358-17.093,72.09c10.208,17.68,28.432,27.71,46.714,27.71c8.327,0,16.667-2.081,24.264-6.469
			c11.845-6.839,20.123-18.165,23.307-31.892C247.751,150.646,245.544,136.37,238.395,123.988z M229.97,160.791
			c-2.233,9.627-7.981,17.537-16.182,22.272c-17.104,9.874-39.735,2.814-50.449-15.741c-10.712-18.555-5.512-41.684,11.592-51.559
			c8.201-4.735,17.924-5.759,27.38-2.878c9.638,2.936,17.83,9.548,23.067,18.619C230.615,140.575,232.247,150.976,229.97,160.791z"
			/>
	</g>
</g>
<g>
	<g>
		<path d="M157.612,225.23c-1.866-11.108-7.956-21.192-17.15-28.393c-9.194-7.202-20.443-10.7-31.675-9.85
			c-11.488,0.871-21.579,6.156-28.415,14.883c-13.947,17.806-9.683,44.518,9.504,59.548c8.288,6.493,18.248,9.974,28.357,9.974
			c1.105,0,2.211-0.042,3.318-0.125c11.488-0.871,21.58-6.156,28.416-14.883C156.803,247.657,159.518,236.593,157.612,225.23z
			 M138.134,247.116c-4.2,5.362-10.493,8.617-17.72,9.164c-7.49,0.568-15.038-1.812-21.272-6.694
			c-12.664-9.919-15.777-27.167-6.941-38.448c4.2-5.362,10.493-8.618,17.72-9.164c7.478-0.569,15.037,1.811,21.272,6.695
			c6.235,4.883,10.352,11.649,11.595,19.049C143.987,234.864,142.335,241.753,138.134,247.116z"/>
	</g>
</g>
<g>
	<g>
		<path d="M425.306,121.993c-2.749-3.468-8.072-3.776-11.204-0.646L121.346,414.102c-3.13,3.13-2.82,8.456,0.647,11.203
			c38.479,30.498,84.819,46.617,134.007,46.617c45.33,0,88.715-13.892,125.467-40.174c3.377-2.415,4.155-7.108,1.741-10.484
			c-2.414-3.377-7.11-4.154-10.483-1.741c-34.187,24.448-74.55,37.37-116.725,37.37c-42.93,0-83.526-13.197-117.939-38.25
			l26.867-26.867c18.195,16.38,47.268,24.037,91.072,24.037c48.442,0,112.841-8.188,112.841-78.986
			c0-37.036-18.086-76.898-46.334-102.629l96.136-96.136c25.052,34.413,38.25,75.009,38.25,117.939
			c0,55.842-22.368,107.721-62.983,146.079c-3.018,2.85-3.153,7.606-0.305,10.623c2.85,3.018,7.606,3.152,10.624,0.304
			c21.151-19.977,37.798-43.55,49.474-70.065c12.09-27.453,18.22-56.705,18.22-86.941
			C471.922,206.812,455.802,160.472,425.306,121.993z M353.812,336.826c0,44.83-29.252,63.957-97.812,63.957
			c-39.381,0-65.084-6.263-80.427-19.652l136.288-136.288C337.413,267.804,353.812,303.611,353.812,336.826z"/>
	</g>
</g>
<g>
	<g>
		<path d="M437.02,74.98C388.667,26.629,324.381,0,256,0S123.333,26.629,74.98,74.98C26.628,123.333,0,187.619,0,256
			s26.628,132.667,74.98,181.02C123.333,485.371,187.619,512,256,512s132.667-26.629,181.02-74.98
			C485.372,388.667,512,324.381,512,256S485.372,123.333,437.02,74.98z M256,496.971C123.128,496.971,15.029,388.872,15.029,256
			S123.128,15.029,256,15.029S496.971,123.128,496.971,256S388.872,496.971,256,496.971z"/>
	</g>
</g>
<g>
	<g>
		<path d="M392.917,92.215c-0.122-2.139-1.152-4.124-2.832-5.456C351.591,56.22,305.225,40.078,256,40.078
			c-57.675,0-111.898,22.46-152.68,63.243C62.538,144.102,40.078,198.325,40.078,256c0,49.224,16.141,95.591,46.68,134.086
			c2.75,3.467,8.071,3.773,11.202,0.643l292.77-292.77C392.245,96.444,393.041,94.354,392.917,92.215z M163.108,304.326
			c11.662-39.407,43.004-76.181,82.046-82.046L163.108,304.326z M290.505,176.929c-10.936-11.682-12.694-30.165-3.884-45.425
			c5.238-9.071,13.429-15.684,23.067-18.619c9.456-2.88,19.179-1.858,27.379,2.878c3.039,1.754,5.739,3.95,8.07,6.534
			L290.505,176.929z M355.78,111.655c-3.261-3.504-7.012-6.491-11.197-8.907c-11.845-6.839-25.794-8.344-39.273-4.239
			c-13.296,4.05-24.556,13.1-31.705,25.482c-12.237,21.195-9.446,47.126,6.266,63.573l-19.025,19.025
			c-0.142-0.015-0.283-0.036-0.428-0.044c-1.472-0.075-2.959-0.113-4.419-0.113c-27.298,0-54.177,13.14-75.684,36.999
			c-19.779,21.941-33.023,50.904-36.339,79.463c-0.023,0.202-0.032,0.403-0.039,0.603L93.415,374.02
			C68.322,339.588,55.108,298.966,55.108,256c0-110.772,90.12-200.892,200.892-200.892c42.967,0,83.588,13.215,118.018,38.308
			L355.78,111.655z"/>
	</g>
</g>
<g>
</g>
<g>
</g>
<g>
</g>
<g>
</g>
<g>
</g>
<g>
</g>
<g>
</g>
<g>
</g>
<g>
</g>
<g>
</g>
<g>
</g>
<g>
</g>
<g>
</g>
<g>
</g>
<g>
</g>
</svg>
