<svg id="Capa_1" enable-background="new 0 0 511.596 511.596" height="512" viewBox="0 0 511.596 511.596" width="512" xmlns="http://www.w3.org/2000/svg"><g><path d="m71.723 96.661c2.044 0 4.081-.831 5.561-2.465 22.364-24.689 49.023-44.15 79.234-57.842 31.267-14.169 64.669-21.354 99.28-21.354 50.565 0 98.961 15.503 139.954 44.833 3.369 2.41 8.055 1.634 10.464-1.735 2.41-3.369 1.633-8.054-1.735-10.464-43.555-31.162-94.968-47.634-148.683-47.634-36.761 0-72.247 7.634-105.471 22.691-32.093 14.544-60.409 35.214-84.16 61.434-2.781 3.07-2.546 7.813.523 10.594 1.436 1.302 3.237 1.942 5.033 1.942z"/><path d="m489.605 151.904c-14.092-31.655-34.157-59.724-59.639-83.427-3.034-2.822-7.779-2.648-10.6.383-2.821 3.033-2.649 7.779.383 10.6 23.994 22.319 42.887 48.745 56.151 78.544 13.731 30.846 20.694 63.748 20.694 97.793 0 64.319-25.047 124.789-70.528 170.27-45.48 45.48-105.95 70.528-170.27 70.528s-124.789-25.047-170.27-70.528c-45.479-45.481-70.526-105.95-70.526-170.269 0-49.407 14.867-96.895 42.994-137.329 2.366-3.4 1.526-8.074-1.874-10.439-3.399-2.366-8.075-1.527-10.439 1.874-29.885 42.96-45.681 93.409-45.681 145.894 0 68.326 26.608 132.563 74.921 180.876 48.314 48.314 112.55 74.921 180.876 74.921s132.563-26.607 180.876-74.921c48.314-48.313 74.922-112.55 74.922-180.876.001-36.161-7.398-71.116-21.99-103.894z"/><path d="m166.245 324.452c3.219 2.605 7.942 2.108 10.548-1.111l182.667-225.678c2.573-3.179 3.604-7.304 2.829-11.318-.779-4.036-3.29-7.501-6.889-9.508-29.979-16.72-64.07-25.646-98.587-25.814-54.748-.241-106.266 20.649-145.017 58.893-38.755 38.248-60.337 89.468-60.771 144.226-.397 50.216 17.568 98.661 50.586 136.41 2.619 2.994 6.382 4.696 10.36 4.696.088 0 .178-.001.267-.003 4.103-.078 7.936-1.952 10.517-5.14l33.928-41.917c2.606-3.22 2.109-7.942-1.111-10.548-3.22-2.605-7.942-2.108-10.548 1.111l-33.061 40.846c-30-34.823-46.303-79.273-45.939-125.334.402-50.759 20.399-98.23 56.308-133.669 35.906-35.436 83.656-54.833 134.408-54.568 31.545.153 62.703 8.198 90.194 23.274l-181.8 224.608c-2.606 3.215-2.108 7.938 1.111 10.544z"/><path d="m388.839 121.494-236.706 292.442c-2.58 3.188-3.614 7.326-2.836 11.354.772 4 3.249 7.431 6.796 9.412 30.309 16.927 64.787 25.875 99.705 25.875 44.226 0 86.331-13.875 121.765-40.126 34.73-25.73 60.047-60.976 73.211-101.927 1.269-3.943-.901-8.168-4.845-9.436-3.941-1.266-8.168.901-9.436 4.845-12.198 37.947-35.664 70.612-67.86 94.464-32.831 24.323-71.849 37.179-112.835 37.179-31.882 0-63.363-8.045-91.137-23.276l234.971-290.297c19.891 23.095 34.041 50.874 40.951 80.422.943 4.033 4.977 6.54 9.011 5.595 4.033-.943 6.538-4.978 5.595-9.011-7.567-32.356-23.173-62.744-45.129-87.875-2.712-3.104-6.622-4.84-10.737-4.763-4.09.076-7.911 1.944-10.484 5.123z"/><path d="m96.883 252.139v22.667c0 10.434 8.489 18.922 18.922 18.922h42.783c4.142 0 7.5-3.358 7.5-7.5s-3.358-7.5-7.5-7.5h-12.778v-30.511h49.616c4.142 0 7.5-3.358 7.5-7.5s-3.358-7.5-7.5-7.5h-79.62c-10.434 0-18.923 8.489-18.923 18.922zm33.927 26.589h-15.004c-2.163 0-3.922-1.76-3.922-3.922v-22.667c0-2.163 1.76-3.922 3.922-3.922h15.004z"/><path d="m303.747 278.728c-4.143 0-7.5 3.358-7.5 7.5s3.357 7.5 7.5 7.5h157.497c10.434 0 18.922-8.488 18.922-18.922v-22.667c0-10.434-8.488-18.922-18.922-18.922h-120.66c-4.143 0-7.5 3.358-7.5 7.5s3.357 7.5 7.5 7.5h9.134v30.511zm161.419-26.589v22.667c0 2.163-1.76 3.922-3.922 3.922h-62.19v-30.511h62.19c2.162 0 3.922 1.76 3.922 3.922zm-100.448-3.922h19.336v30.511h-19.336z"/><path d="m146.071 207.205v8.641c0 4.142 3.358 7.5 7.5 7.5s7.5-3.358 7.5-7.5v-8.641c0-10.657 8.67-19.328 19.328-19.328h52.497c18.539 0 33.622-15.083 33.622-33.622s-15.083-33.622-33.622-33.622h-41.459c-4.142 0-7.5 3.358-7.5 7.5s3.358 7.5 7.5 7.5h41.459c10.268 0 18.622 8.354 18.622 18.622s-8.354 18.622-18.622 18.622h-52.497c-18.928 0-34.328 15.4-34.328 34.328z"/><path d="m118.751 202.607v13.239c0 4.142 3.358 7.5 7.5 7.5s7.5-3.358 7.5-7.5v-13.239c0-21.865 17.788-39.653 39.653-39.653h13.132c4.142 0 7.5-3.358 7.5-7.5s-3.358-7.5-7.5-7.5h-13.132c-30.135 0-54.653 24.517-54.653 54.653z"/><path d="m217.967 162.954c4.142 0 7.5-3.358 7.5-7.5s-3.358-7.5-7.5-7.5h-4.587c-4.142 0-7.5 3.358-7.5 7.5s3.358 7.5 7.5 7.5z"/></g></svg>