<?xml version="1.0" encoding="utf-8"?>
<!-- Generator: Adobe Illustrator 24.3.0, SVG Export Plug-In . SVG Version: 6.00 Build 0)  -->
<svg version="1.1" id="Capa_1" xmlns="http://www.w3.org/2000/svg" xmlns:xlink="http://www.w3.org/1999/xlink" x="0px" y="0px"
	 viewBox="0 0 512 512" style="enable-background:new 0 0 512 512;" xml:space="preserve">
<style type="text/css">
	.st0{fill:#FFE8D2;}
	.st1{fill:#F7D4AD;}
	.st2{fill:#E2A876;}
	.st3{fill:#6E4848;}
	.st4{fill:#FF8B59;}
</style>
<g>
	<path class="st0" d="M373.6,443.1H138.4c-11.8,0-21.3-9.5-21.3-21.3V90.2c0-11.8,9.5-21.3,21.3-21.3h235.2
		c11.8,0,21.3,9.5,21.3,21.3v331.6C394.9,433.6,385.4,443.1,373.6,443.1z"/>
	<path class="st1" d="M373.6,68.9H354v96.9c0,128.7-104.3,233-233,233h-3.9v23c0,11.8,9.5,21.3,21.3,21.3h235.2
		c11.8,0,21.3-9.5,21.3-21.3V90.2C394.9,78.4,385.4,68.9,373.6,68.9L373.6,68.9z"/>
	<g>
		<path class="st2" d="M365.8,236.7H168.6c-3.1,0-5.7-2.5-5.7-5.7s2.5-5.7,5.7-5.7h197.2c3.1,0,5.7,2.5,5.7,5.7
			S369,236.7,365.8,236.7z"/>
	</g>
	<g>
		<path class="st2" d="M365.8,267.2H168.6c-3.1,0-5.7-2.5-5.7-5.7c0-3.1,2.5-5.7,5.7-5.7h197.2c3.1,0,5.7,2.5,5.7,5.7
			C371.5,264.7,369,267.2,365.8,267.2z"/>
	</g>
	<g>
		<path class="st2" d="M256,297.6h-87.4c-3.1,0-5.7-2.5-5.7-5.7c0-3.1,2.5-5.7,5.7-5.7H256c3.1,0,5.7,2.5,5.7,5.7
			C261.7,295.1,259.1,297.6,256,297.6z"/>
	</g>
	<g>
		<path class="st2" d="M256,328.1h-87.4c-3.1,0-5.7-2.5-5.7-5.7s2.5-5.7,5.7-5.7H256c3.1,0,5.7,2.5,5.7,5.7S259.1,328.1,256,328.1z"
			/>
	</g>
	<g>
		<path class="st2" d="M365.8,175.8H168.6c-3.1,0-5.7-2.5-5.7-5.7s2.5-5.7,5.7-5.7h197.2c3.1,0,5.7,2.5,5.7,5.7
			S369,175.8,365.8,175.8z"/>
	</g>
	<g>
		<path class="st2" d="M365.8,206.3H168.6c-3.1,0-5.7-2.5-5.7-5.7c0-3.1,2.5-5.7,5.7-5.7h197.2c3.1,0,5.7,2.5,5.7,5.7
			C371.5,203.8,369,206.3,365.8,206.3z"/>
	</g>
	<g>
		<circle class="st2" cx="147.8" cy="231.1" r="5.7"/>
	</g>
	<g>
		<circle class="st2" cx="147.8" cy="170.2" r="5.7"/>
	</g>
	<g>
		<circle class="st2" cx="147.8" cy="200.6" r="5.7"/>
	</g>
	<g>
		<circle class="st2" cx="147.8" cy="261.5" r="5.7"/>
	</g>
	<g>
		<circle class="st2" cx="147.8" cy="292" r="5.7"/>
	</g>
	<g>
		<circle class="st2" cx="147.8" cy="322.4" r="5.7"/>
	</g>
	<g>
		<path class="st2" d="M256,358.5h-87.4c-3.1,0-5.7-2.5-5.7-5.7s2.5-5.7,5.7-5.7H256c3.1,0,5.7,2.5,5.7,5.7
			C261.7,356,259.1,358.5,256,358.5z"/>
	</g>
	<g>
		<circle class="st2" cx="147.8" cy="352.9" r="5.7"/>
	</g>
	<g>
		<path class="st2" d="M256,389h-87.4c-3.1,0-5.7-2.5-5.7-5.7c0-3.1,2.5-5.7,5.7-5.7H256c3.1,0,5.7,2.5,5.7,5.7
			C261.7,386.5,259.1,389,256,389z"/>
	</g>
	<g>
		<path class="st3" d="M179.5,419.4h-31.7c-3.1,0-5.7-2.5-5.7-5.7s2.5-5.7,5.7-5.7h31.7c3.1,0,5.7,2.5,5.7,5.7
			S182.6,419.4,179.5,419.4z"/>
	</g>
	<g>
		<path class="st3" d="M360.1,419.4h-31.7c-3.1,0-5.7-2.5-5.7-5.7s2.5-5.7,5.7-5.7h31.7c3.1,0,5.7,2.5,5.7,5.7
			S363.2,419.4,360.1,419.4z"/>
	</g>
	<g>
		<circle class="st2" cx="147.8" cy="383.3" r="5.7"/>
	</g>
	<g>
		<g>
			<path class="st3" d="M229.5,112.5h-9.8v-9h11.1c3.1,0,5.7-2.5,5.7-5.7s-2.5-5.7-5.7-5.7h-16.8c-3.1,0-5.7,2.5-5.7,5.7v41.4
				c0,3.1,2.5,5.7,5.7,5.7c3.1,0,5.7-2.5,5.7-5.7v-15.4h9.8c3.1,0,5.7-2.5,5.7-5.7S232.6,112.5,229.5,112.5L229.5,112.5z"/>
			<path class="st3" d="M272.2,112.5h-9.8v-9h11.1c3.1,0,5.7-2.5,5.7-5.7s-2.5-5.7-5.7-5.7h-16.8c-3.1,0-5.7,2.5-5.7,5.7v41.4
				c0,3.1,2.5,5.7,5.7,5.7c3.1,0,5.7-2.5,5.7-5.7v-15.4h9.8c3.1,0,5.7-2.5,5.7-5.7S275.3,112.5,272.2,112.5z"/>
			<path class="st3" d="M313.8,133.2h-11.7v-9.3h10.4c3.1,0,5.7-2.5,5.7-5.7s-2.5-5.7-5.7-5.7h-10.4v-9.3h11.7
				c3.1,0,5.7-2.5,5.7-5.7s-2.5-5.7-5.7-5.7h-17.4c-3.1,0-5.7,2.5-5.7,5.7v41.3c0,3.1,2.5,5.7,5.7,5.7h17.4c3.1,0,5.7-2.5,5.7-5.7
				C319.4,135.7,316.9,133.2,313.8,133.2z"/>
			<path class="st3" d="M357.9,123.8c6.7-2.2,11.5-8.4,11.5-15.6c0-9.1-7.7-16.5-17.1-16.5h-11.1c0,0,0,0,0,0s0,0,0,0
				c-3.1,0-5.7,2.5-5.7,5.7V139c0,3.1,2.5,5.7,5.7,5.7c3.1,0,5.7-2.5,5.7-5.7v-10.6l12.6,14.3c1.1,1.3,2.7,1.9,4.3,1.9
				c1.3,0,2.7-0.5,3.7-1.4c2.3-2.1,2.6-5.6,0.5-8L357.9,123.8z M352.3,103c3.1,0,5.8,2.4,5.8,5.2c0,2.8-2.6,5.2-5.8,5.2
				c-1.3,0-3.3,0-5.4,0c0-2,0-4,0-5.2c0-1,0-3.1,0-5.2H352.3z"/>
		</g>
		<g>
			<path class="st3" d="M167.6,145.1c-14.6,0-26.5-11.9-26.5-26.5s11.9-26.5,26.5-26.5c14.6,0,26.5,11.9,26.5,26.5
				S182.3,145.1,167.6,145.1z M167.6,103.4c-8.4,0-15.2,6.8-15.2,15.2s6.8,15.2,15.2,15.2c8.4,0,15.2-6.8,15.2-15.2
				S176,103.4,167.6,103.4z"/>
		</g>
	</g>
	<path class="st4" d="M344.2,322.6c3.1,0,5.7-2.5,5.7-5.7v-1.1c0-10.3-8.3-18.6-18.6-18.6h-2.2v-4.5c0-3.1-2.5-5.7-5.7-5.7
		s-5.7,2.5-5.7,5.7v4.5h-2.2c-10.3,0-18.6,8.3-18.6,18.6v9.7c0,10.3,8.3,18.6,18.6,18.6h2.2v24.2h-2.2c-4,0-7.3-3.3-7.3-7.3
		c0-3.1-2.5-5.7-5.7-5.7c-3.1,0-5.7,2.5-5.7,5.7c0,10.3,8.3,18.6,18.6,18.6h2.2v2.8c0,3.1,2.5,5.7,5.7,5.7c3.1,0,5.7-2.5,5.7-5.7
		v-2.8h2.2c10.3,0,18.6-8.3,18.6-18.6v-9.7c0-10.3-8.3-18.6-18.6-18.6h-2.2v-24.2h2.2c4,0,7.3,3.3,7.3,7.3v1.1
		C338.6,320.1,341.1,322.6,344.2,322.6z M331.3,344.2c4,0,7.3,3.3,7.3,7.3v9.7c0,4-3.3,7.3-7.3,7.3h-2.2v-24.2L331.3,344.2
		L331.3,344.2z M317.7,332.8h-2.2c-4,0-7.3-3.3-7.3-7.3v-9.7c0-4,3.3-7.3,7.3-7.3h2.2V332.8z"/>
</g>
</svg>
