<svg height="512" viewBox="0 0 64 64" width="512" xmlns="http://www.w3.org/2000/svg"><path d="m42 3a4 4 0 0 0 -4 4v25h8v-25a4 4 0 0 0 -4-4z" fill="#91b3c1"/><path d="m10 3a4 4 0 0 0 -4 4v54h32v-54a4 4 0 0 1 4-4z" fill="#cfdfe8"/><g fill="#143441"><path d="m10 15h24v2h-24z"/><path d="m10 19h24v2h-24z"/><path d="m10 23h24v2h-24z"/><path d="m10 27h24v2h-24z"/><path d="m10 31h24v2h-24z"/><path d="m10 35h23v2h-23z"/><path d="m10 39h19v2h-19z"/><path d="m10 43h17v2h-17z"/><path d="m10 47h12v2h-12z"/><path d="m10 7h10v2h-10z"/><path d="m10 11h12v2h-12z"/></g><path d="m24.822 27.539h35.355v5.657h-35.355z" fill="#995f5b" transform="matrix(.707 -.707 .707 .707 -9.025 38.947)"/><path d="m28 40.868-3 7 7-3z" fill="#ffd782"/><path d="m46.55 18.539h9.899v5.657h-9.899z" fill="#ffd782" transform="matrix(.707 -.707 .707 .707 -.025 42.674)"/></svg>