<?xml version="1.0" encoding="utf-8"?>
<!-- Generator: Adobe Illustrator 24.3.0, SVG Export Plug-In . SVG Version: 6.00 Build 0)  -->
<svg version="1.1" id="Layer_1" xmlns="http://www.w3.org/2000/svg" xmlns:xlink="http://www.w3.org/1999/xlink" x="0px" y="0px"
	 viewBox="0 0 512 512" style="enable-background:new 0 0 512 512;" xml:space="preserve">
<style type="text/css">
	.st0{fill:#FBB8B0;}
	.st1{fill:#63C521;}
	.st2{fill:#9FDC6E;}
	.st3{fill:#5AB31E;}
	.st4{fill:#FBFEF9;}
	.st5{fill:#FFD4CF;}
</style>
<g id="Flat">
	<g>
		<path class="st0" d="M208.6,333.2c4.9,9.9,13.4,17.6,23.8,21.4c10.9,2.4,22.3,1,32.4-3.9l3-1.5l-55.3-113l-40.8,19.9L208.6,333.2z
			"/>
		<path class="st0" d="M196.7,339l-33.4-69.7L129.2,286l33.5,68.4c12,24.6,41.8,34.8,66.4,22.8c0,0,0,0,0,0l3-1.5l-4.3-8.7
			C214.2,362,203.1,352,196.7,339L196.7,339z"/>
	</g>
	<path class="st1" d="M168.4,295l214.6,60.4c4.4,1.2,9-1.3,10.2-5.7l33.4-118.5l-218.5,0.3L168.4,295z"/>
	<path class="st2" d="M354.8,326.6c-0.7,0-1.3-0.1-1.9-0.3l-157.4-47.1l3.9-12.7l151.5,45.3c4.5-8.4,13.1-13.8,22.7-14.1l14-49.8
		l12.8,3.4l-15.4,55.1c-0.9,3.4-4.3,5.5-7.8,4.8c-7.1-1.6-14.2,3-15.8,10.1c0,0,0,0,0,0C360.6,324.4,357.9,326.6,354.8,326.6
		L354.8,326.6z"/>
	<path class="st3" d="M426.6,231.2l-218.5,0.3l-20.7,33.1h229.8L426.6,231.2z"/>
	<path class="st2" d="M438.7,251.4H124.2c-4.6,0-8.3-3.7-8.3-8.3V74.3c0-4.6,3.7-8.3,8.3-8.3h314.5c4.6,0,8.3,3.7,8.3,8.3v168.8
		C447,247.7,443.3,251.4,438.7,251.4z"/>
	<g>
		<path class="st4" d="M395.2,231.5H217.5v-13.2h170c0-14.6,11.9-26.5,26.5-26.5V119c-12.1,0-22.6-8.2-25.6-19.9H168.1
			c-2.4,9.3-9.7,16.6-19,19v74.5c11.7,3,19.8,13.6,19.9,25.6h-13.2c0-7.3-5.9-13.2-13.2-13.2c-3.7,0-6.6-3-6.6-6.6v-86.1
			c0-3.7,3-6.6,6.6-6.6c7.3,0,13.2-5.9,13.2-13.2c0-3.7,3-6.6,6.6-6.6H394c3.7,0,6.6,3,6.6,6.6c0,7.3,5.9,13.2,13.2,13.2
			c1.5,0,3-0.3,4.4-0.8c3.4-1.2,7.2,0.6,8.4,4c0.3,0.7,0.4,1.5,0.4,2.2v88.3c0,3.7-3,6.6-6.6,6.6c-0.8,0-1.5-0.1-2.2-0.4
			c-6.9-2.4-14.5,1.2-16.9,8.1c-1,2.9-1,6,0,8.8c1.2,3.4-0.6,7.2-4,8.4C396.7,231.4,395.9,231.5,395.2,231.5z"/>
		<circle class="st4" cx="281.5" cy="158.7" r="39.7"/>
		<path class="st4" d="M360.9,138.8h39.7v13.2h-39.7V138.8z"/>
	</g>
	<path class="st5" d="M168.9,450V324.2l40.6-66.2c14.3-22.3,8.6-51.9-12.9-67.3l-7.9-5.6l-53,66.2h-12.1c-4.6,0-8.3-3.7-8.3-8.3
		V105.7h-12.4c-7.9,0-14.7,5.6-16.2,13.3L63,238.1l19.9,92.7V450H168.9z"/>
</g>
</svg>
