<?xml version="1.0"?>
<svg xmlns="http://www.w3.org/2000/svg" xmlns:xlink="http://www.w3.org/1999/xlink" xmlns:svgjs="http://svgjs.com/svgjs" version="1.1" width="512" height="512" x="0" y="0" viewBox="0 0 512 512" style="enable-background:new 0 0 512 512" xml:space="preserve" class=""><g><g xmlns="http://www.w3.org/2000/svg"><g><path d="m376.242 356h-336.677c-17.709 0-32.065-6.138-32.065-23.847v-224.451c0-17.709 14.356-32.065 32.065-32.065h336.677c17.709 0 32.065 14.356 32.065 32.065v224.452c-.001 17.708-14.356 23.846-32.065 23.846z" fill="#5aae39" data-original="#b3e59f" style=""/><path d="m398.705 84.855-8.468 8.13-132.374 127.08c-13.505 12.958-31.247 20.095-49.96 20.095s-36.455-7.136-49.964-20.099l-132.369-127.076-8.468-8.13c-5.917 5.817-9.602 13.894-9.602 22.847v224.452c0 17.709 14.356 32.065 32.065 32.065h336.677c14.924 0 27.355-10.243 30.931-24.048h-375.625v-170.494c0-14.126 16.945-21.348 27.135-11.565l82.601 79.298c18.012 17.283 41.669 26.799 66.618 26.799s48.605-9.515 66.61-26.791l132.379-127.084 1.415-1.358v-1.273c0-8.954-3.685-17.031-9.601-22.848z" fill="#95d6a4" data-original="#95d6a4" style=""/><path d="m174.594 202.713c9.002 8.638 20.831 13.398 33.309 13.398s24.307-4.76 33.309-13.398l132.37-127.076h-331.358z" fill="#ccf49f" data-original="#ccf49f" style=""/><circle cx="392.274" cy="324.137" fill="#eceaec" r="112.226" data-original="#eceaec" style=""/><path d="m424.339 404.298c-61.98 0-112.226-50.245-112.226-112.226 0-22.787 6.836-43.956 18.504-61.657-30.446 20.071-50.569 54.527-50.569 93.721 0 61.981 50.246 112.226 112.226 112.226 39.194 0 73.65-20.123 93.722-50.569-17.702 11.67-38.871 18.505-61.657 18.505z" fill="#dad8db" data-original="#dad8db" style="" class=""/><circle cx="392.274" cy="324.137" fill="#eceaec" r="80.161" data-original="#eceaec" style=""/><circle cx="392.274" cy="324.137" fill="#ffffff" r="56.113" data-original="#ffffff" style=""/><path d="m389.333 247.667c-22.136 0-39.235 5.282-53.742 19.788l56.682 56.682h80.161c.001-44.272-38.829-76.47-83.101-76.47z" fill="#5aae39" data-original="#b3e59f" style=""/><path d="m392.274 243.976c-22.136 0-42.176 8.973-56.682 23.479l17.005 17.005c10.155-10.155 24.182-16.435 39.677-16.435 30.99 0 56.113 25.122 56.113 56.113h24.048c0-44.273-35.889-80.162-80.161-80.162z" fill="#95d6a4" data-original="#95d6a4" style=""/></g><g><path d="m392.274 204.411c-37.588 0-71.18 17.417-93.146 44.599l-30.294-29.083 129.032-123.87c1.875 3.468 2.941 7.434 2.941 11.645v72.145c0 4.142 3.358 7.5 7.5 7.5s7.5-3.358 7.5-7.5v-72.145c0-21.816-17.749-39.564-39.565-39.564h-336.678c-21.815-.001-39.564 17.748-39.564 39.564v224.452c0 21.816 17.749 39.564 39.564 39.564h216.436c4.142 0 7.5-3.358 7.5-7.5s-3.358-7.5-7.5-7.5h-216.436c-3.876 0-7.543-.906-10.806-2.511l129.275-124.104c14.57 11.748 32.216 17.637 49.87 17.637s35.3-5.889 49.87-17.637l32.583 31.28c-11.284 18.26-17.808 39.759-17.808 62.755 0 66.017 53.709 119.726 119.726 119.726s119.726-53.71 119.726-119.727-53.708-119.726-119.726-119.726zm-229.14 10.238-16.006-15.366c-2.988-2.869-7.736-2.772-10.604.216s-2.771 7.736.217 10.604l10.232 9.823-129.032 123.872c-1.875-3.468-2.941-7.434-2.941-11.645v-224.451c0-4.211 1.066-8.177 2.941-11.645l93.952 90.194c1.454 1.396 3.325 2.09 5.193 2.09 1.971 0 3.939-.772 5.412-2.306 2.868-2.988 2.771-7.736-.217-10.604l-93.523-89.783c3.263-1.605 6.93-2.511 10.806-2.511h336.677c3.876 0 7.543.906 10.807 2.511l-134.376 129.001c-25.104 24.101-64.433 24.101-89.538 0zm229.14 214.214c-57.746 0-104.726-46.98-104.726-104.726s46.98-104.726 104.726-104.726 104.726 46.98 104.726 104.726-46.979 104.726-104.726 104.726z" fill="#000000" data-original="#000000" style="" class=""/><path d="m462.148 271.195c-2.503-3.3-7.208-3.945-10.508-1.441s-3.945 7.208-1.441 10.508c8.12 10.701 13.001 23.155 14.343 36.375h-69.162l-48.879-48.879c12.504-10.171 28.435-16.282 45.772-16.282 11.712 0 22.889 2.698 33.221 8.02 3.684 1.897 8.206.449 10.102-3.233 1.897-3.682.449-8.205-3.233-10.102-12.301-6.336-26.164-9.685-40.09-9.685-48.337 0-87.662 39.325-87.662 87.661s39.325 87.661 87.662 87.661c48.336 0 87.661-39.325 87.661-87.661.002-19.299-6.149-37.606-17.786-52.942zm-69.874 125.603c-40.066 0-72.662-32.596-72.662-72.661 0-17.337 6.112-33.269 16.283-45.772l51.076 51.076c1.406 1.406 3.314 2.197 5.303 2.197h72.275c-3.765 36.554-34.741 65.16-72.275 65.16z" fill="#000000" data-original="#000000" style="" class=""/></g></g></g></svg>
