<?xml version="1.0" encoding="utf-8"?>
<!-- Generator: Adobe Illustrator 24.3.0, SVG Export Plug-In . SVG Version: 6.00 Build 0)  -->
<svg version="1.1" id="Layer_1" xmlns="http://www.w3.org/2000/svg" xmlns:xlink="http://www.w3.org/1999/xlink" x="0px" y="0px"
	 viewBox="0 0 512 512" style="enable-background:new 0 0 512 512;" xml:space="preserve">
<style type="text/css">
	.st0{fill:#4472B0;}
	.st1{fill:#94D1FF;}
	.st2{fill:#C5ECFF;}
	.st3{fill:#E5B26E;}
	.st4{fill:#FCD532;}
</style>
<g id="Layer_13">
	<circle class="st0" cx="256" cy="208.5" r="130.5"/>
	<path class="st0" d="M107.8,392.4l53.4-5.9v47.4L256,339c-25.9,0-51.2-7.7-72.8-22.1L107.8,392.4z"/>
	<path class="st0" d="M328.8,316.9C307.2,331.3,281.9,339,256,339l94.9,94.9v-47.4l53.4,5.9L328.8,316.9z"/>
	<circle class="st1" cx="256" cy="208.5" r="106.7"/>
	<path class="st2" d="M333.1,170c-0.1-15.7-3.9-31.3-11.1-45.2c-46.1-36.8-113.3-29.3-150.1,16.7s-29.3,113.3,16.7,150.1
		C269.2,287.3,333.1,234.6,333.1,170z"/>
	<path class="st3" d="M266.9,143.3c0-9.8-8-17.8-17.8-17.8h-5.9v23.7L219.4,173h-64.9c-9.8,27.2-8,57.2,5,83h60l23.7,11.9h71.2
		c6.5,0,11.9-5.3,11.9-11.9v-83h-59.3V143.3z"/>
	<path class="st4" d="M119.6,131.4c3.3,0.1,6-2.4,6.1-5.7c0-0.6-0.1-1.2-0.2-1.8l-5-17l8.5-6.2c1.9-1.4,2.8-3.7,2.3-5.9
		c-0.4-2.3-2.1-4.2-4.4-4.8l-13.8-3.3l-5.9-11.3c-1.6-2.9-5.2-4-8-2.4c-1,0.5-1.9,1.4-2.4,2.4l-5.9,11.3l-14.2,3.3
		c-2.3,0.5-4.1,2.4-4.5,4.8c-0.4,2.3,0.5,4.6,2.3,5.9l8.7,6.2l-5,17c-0.7,2.4,0.2,5,2.3,6.5c2.1,1.5,4.8,1.5,6.9,0l14.5-10.8
		l14.3,10.5C117.1,130.9,118.3,131.4,119.6,131.4z M110.2,99.8c-2.1,1.4-3.1,4-2.4,6.4l1.2,4.4l-3.7-2.8c-2.1-1.5-4.9-1.5-7,0
		l-3.9,2.8l1.5-4.4c0.7-2.4-0.2-4.9-2.2-6.4l-2-1.2l4.2-1.1c1.6-0.4,2.9-1.5,3.7-2.9l2.2-3.9l2.1,3.9c0.8,1.5,2.2,2.5,3.8,2.9
		l4.2,1.1L110.2,99.8z"/>
	<path class="st4" d="M439.8,94.7c-0.4-2.4-2.2-4.3-4.5-4.8l-13.8-3.5l-5.9-11.3c-1.6-2.9-5.2-4-8-2.4c-1,0.5-1.9,1.4-2.4,2.4
		l-5.9,11.3L385,89.9c-2.2,0.6-3.9,2.4-4.4,4.6c-0.4,2.3,0.5,4.6,2.3,5.9l8.5,6.2l-5,17.2c-0.7,2.4,0.2,5,2.3,6.5
		c2.1,1.5,4.8,1.5,6.9,0l14.5-10.8l14.3,10.5c1,0.8,2.2,1.3,3.5,1.4c3.3,0.1,6-2.4,6.1-5.7c0-0.6-0.1-1.2-0.2-1.8l-4.8-17l8.5-6.2
		C439.4,99.3,440.3,97,439.8,94.7z M418.7,99.8c-2.1,1.4-3.2,3.9-2.5,6.4l1.2,4.4l-3.7-2.8c-2.1-1.5-4.9-1.5-7,0l-3.9,2.8l1.5-4.4
		c0.7-2.4-0.2-4.9-2.2-6.4l-1.7-1.2l3.9-1.1c1.6-0.4,2.9-1.5,3.7-2.9l2.2-3.9l2.1,3.9c0.8,1.4,2.1,2.5,3.7,2.9l4.2,1.1L418.7,99.8z"
		/>
</g>
</svg>
