<?xml version="1.0" encoding="utf-8"?>
<!-- Generator: Adobe Illustrator 24.3.0, SVG Export Plug-In . SVG Version: 6.00 Build 0)  -->
<svg version="1.1" id="Layer_1" xmlns="http://www.w3.org/2000/svg" xmlns:xlink="http://www.w3.org/1999/xlink" x="0px" y="0px"
	 viewBox="0 0 512 512" style="enable-background:new 0 0 512 512;" xml:space="preserve">
<style type="text/css">
	.st0{fill:none;stroke:#000000;stroke-width:10;stroke-miterlimit:10;}
	.st1{fill:#72C1E8;}
	.st2{fill:#FFB69F;}
	.st3{fill:#FC5D3D;}
	.st4{fill:#13BF6D;}
	.st5{fill:#AFAFAF;}
	.st6{fill:#C5E5FF;}
	.st7{fill:#76FFBA;}
	.st8{fill:#FFCBC2;}
</style>
<line class="st0" x1="204" y1="222.3" x2="281.5" y2="180"/>
<line class="st0" x1="214" y1="287.3" x2="288.2" y2="328.9"/>
<path class="st1" d="M442.8,359.3c0,48.7-39.5,88.3-88.3,88.3s-88.3-39.5-88.3-88.3s39.5-88.3,88.3-88.3c30.8,0,59.3,16,75.3,42.3
	C438.3,327.1,442.8,343,442.8,359.3z"/>
<path class="st2" d="M405.4,361.3c0,6.9-5.6,12.4-12.4,12.4c0,0,0,0,0,0h-2.8c-1.7,19.7-19,34.3-38.6,32.6
	c-17.4-1.5-31.1-15.2-32.6-32.6h-2.8c-6.9,0-12.5-5.6-12.5-12.4c0-6.9,5.6-12.5,12.4-12.5c0,0,0,0,0,0h2.7v10.1
	c0-3.6,1.1-7.1,3.1-10.1c3.6-6.3,15.8-11.5,25.1-4.5c4.5,3.2,10.5,3.2,15,0c8.1-5.7,19.4-3.8,25.1,4.4c0,0,0.1,0.1,0.1,0.1
	c2,3,3.1,6.5,3.1,10.1v-10.1h2.7C399.8,348.8,405.4,354.4,405.4,361.3C405.4,361.3,405.4,361.3,405.4,361.3L405.4,361.3z"/>
<path class="st3" d="M442.8,152.7c0,48.7-39.5,88.2-88.2,88.2c-48.7,0-88.2-39.5-88.2-88.2c0-48.7,39.5-88.2,88.2-88.2
	c32.2,0,61.8,17.5,77.3,45.7C439,123.2,442.8,137.9,442.8,152.7z"/>
<circle class="st4" cx="141.4" cy="255.9" r="88.2"/>
<path class="st5" d="M182.8,236.4l-4.6,4.7h-73.5v-10.6c0-9.2,7.5-16.7,16.7-16.7h39.7c6.1,0,11.3-4.3,12.4-10.3l6.7,4.6
	c8.5,5.8,10.6,17.4,4.8,25.8C184.3,234.8,183.6,235.6,182.8,236.4L182.8,236.4z"/>
<path class="st2" d="M181.9,257h-3.7v-15.9h-73.5V257H101c-5.8,0-10.6,4.7-10.6,10.6s4.7,10.6,10.6,10.6h4.3
	c3.5,20,22.6,33.3,42.6,29.8c15.2-2.7,27.1-14.6,29.8-29.8h4.3c5.8,0,10.6-4.7,10.6-10.6S187.8,257,181.9,257L181.9,257L181.9,257z"
	/>
<path class="st5" d="M362,315.3c-4.5,3.2-10.5,3.2-15,0c-8.1-5.7-19.3-3.7-25,4.4c-2.2,3.2-3.4,7-3.3,10.8v28.4
	c0-3.6,1.1-7.1,3.1-10.1c3.6-6.3,15.8-11.5,25.1-4.5c4.5,3.2,10.5,3.2,15,0c8.1-5.7,19.4-3.8,25.1,4.4c0,0,0.1,0.1,0.1,0.1
	c2,3,3.1,6.5,3.1,10.1v-28.4C390.3,315.9,374.3,306.7,362,315.3z"/>
<path class="st5" d="M402.2,151.6V180h-19.5c0.7-2.5,1-5,1-7.6v-23.2l-47.1-6.3c-5.4-0.7-10.4,3.1-11.1,8.5
	c-0.1,0.4-0.1,0.8-0.1,1.3v19.7c0,2.6,0.3,5.1,1,7.6h-19.6v-27.3c0-26.2,20.8-48.4,47-48.7c26.3-0.4,48,20.6,48.3,46.9
	C402.2,151.1,402.2,151.4,402.2,151.6z"/>
<path class="st2" d="M336.6,142.9c-5.4-0.7-10.4,3.1-11.1,8.5c-0.1,0.4-0.1,0.8-0.1,1.3v19.7c0,16.1,13,29.1,29.1,29.1
	c13.1,0,24.7-8.8,28.1-21.5c0.7-2.5,1-5,1-7.6v-23.2L336.6,142.9z"/>
<path class="st6" d="M354.6,432.2c-40.3,0.1-73-32.6-73.1-72.9c0-19.4,7.7-38,21.3-51.7c1.5-1.6,4.1-1.6,5.6,0
	c1.6,1.5,1.6,4.1,0,5.6c0,0,0,0,0,0c-25.4,25.4-25.3,66.6,0.2,92c19.7,19.7,49.8,24.6,74.8,12.2c2-1,4.4-0.1,5.3,1.8
	c1,2,0.2,4.3-1.8,5.3C377,429.6,365.9,432.2,354.6,432.2L354.6,432.2z M395.5,414.9c-1.4-1.7-1.2-4.2,0.5-5.6c1.5-1.3,3-2.6,4.4-4
	c1.5-1.6,4-1.6,5.6-0.1c1.6,1.5,1.6,4,0.1,5.6c0,0-0.1,0.1-0.1,0.1c-1.6,1.6-3.2,3.1-5,4.5C399.4,416.8,396.9,416.6,395.5,414.9
	L395.5,414.9z"/>
<path class="st7" d="M141.4,328.9c-40.3,0-72.9-32.7-72.9-73c0-19.3,7.7-37.9,21.3-51.5c1.5-1.6,4.1-1.6,5.6,0
	c1.6,1.5,1.6,4.1,0,5.6c0,0,0,0,0,0c-25.4,25.4-25.3,66.6,0.1,91.9c12.2,12.2,28.7,19,45.9,19c10.1,0,20-2.3,29-6.8
	c2-1,4.4-0.2,5.4,1.7c1,2,0.2,4.4-1.7,5.4c0,0-0.1,0-0.1,0.1C163.9,326.3,152.7,328.9,141.4,328.9z M182.4,311.6
	c-1.4-1.7-1.2-4.2,0.5-5.6c0,0,0,0,0,0c1.5-1.3,3-2.6,4.4-4c1.6-1.5,4.1-1.5,5.6,0.1c1.5,1.5,1.5,4,0,5.5c-1.6,1.6-3.3,3.1-5,4.5
	C186.4,313.5,183.9,313.3,182.4,311.6L182.4,311.6z"/>
<path class="st8" d="M354.5,225.7c-40.3,0-72.9-32.7-72.9-73c0-19.3,7.7-37.9,21.3-51.5c1.5-1.6,4-1.6,5.6-0.1s1.6,4,0.1,5.6
	c0,0-0.1,0.1-0.1,0.1c-25.4,25.4-25.3,66.6,0.1,91.9c12.2,12.2,28.7,19,45.9,19c10.1,0,20-2.3,29-6.8c2-1,4.4-0.1,5.3,1.8
	c1,2,0.2,4.3-1.8,5.3C376.9,223.1,365.8,225.7,354.5,225.7L354.5,225.7z M395.5,208.4c-1.4-1.7-1.2-4.2,0.5-5.6c1.5-1.3,3-2.6,4.4-4
	c1.6-1.6,4.1-1.6,5.6,0s1.6,4.1,0,5.6l0,0c-1.6,1.6-3.3,3.1-5,4.5C399.4,210.3,396.9,210.1,395.5,208.4L395.5,208.4z"/>
<path d="M417,313.6c2.2,0,4-1.8,4-4v-8.9h8.9c2.2,0,4-1.8,4-4c0-2.2-1.8-4-4-4H421V284c0-2.2-1.8-4-4-4c-2.2,0-4,1.8-4,4v8.9h-8.9
	c-2.2,0-4,1.8-4,4c0,2.2,1.8,4,4,4h8.9v8.9C413,311.8,414.8,313.6,417,313.6z"/>
<path d="M127,284.9c3,8,11.9,12,19.8,9c4.2-1.6,7.5-4.8,9-9c0.8-2.1-0.3-4.4-2.3-5.1l0,0c-2.1-0.7-4.3,0.3-5.1,2.3
	c-1.5,3.9-5.8,5.8-9.6,4.4c-2-0.8-3.6-2.3-4.3-4.3c-0.8-2-3.1-3.1-5.1-2.3C127.3,280.6,126.3,282.9,127,284.9z"/>
<path d="M185.7,239.2c8.8-8.9,8.7-23.2-0.2-31.9c-1-0.9-2-1.8-3.1-2.6l-6.7-4.6c-1.8-1.2-4.3-0.8-5.5,1c-0.3,0.5-0.5,1-0.6,1.5
	c-0.8,4.1-4.3,7-8.5,7h-39.7c-11.4,0-20.7,9.3-20.7,20.7V253c-8,0.1-14.5,6.7-14.3,14.8c0.1,8,6.6,14.4,14.6,14.3h1.1
	c5.7,21.7,28,34.7,49.8,29c14.2-3.7,25.2-14.8,29-29h1.1c8,0,14.6-6.5,14.6-14.5c0-8-6.4-14.5-14.3-14.6v-10.3L185.7,239.2z
	 M94.4,267.6c0-3.5,2.8-6.4,6.3-6.6v10.8c0,0.8,0,1.6,0.1,2.4C97.2,274.1,94.4,271.1,94.4,267.6z M174.3,271.8
	c0,18.1-14.7,32.8-32.8,32.8c-18.1,0-32.8-14.7-32.8-32.8v-26.7h65.6V271.8z M188.6,267.6c0,3.6-2.8,6.5-6.4,6.6
	c0-0.8,0.1-1.6,0.1-2.4V261C185.8,261.1,188.5,264,188.6,267.6z M180,233.6l-3.4,3.5h-67.9v-6.7c0-7,5.7-12.7,12.7-12.7h39.7
	c5.9,0,11.3-3.1,14.3-8.1l2.5,1.7c6.7,4.6,8.3,13.7,3.8,20.3C181.2,232.3,180.6,233,180,233.6z"/>
<path d="M124.4,266c2.2,0,4-1.8,4-4v-2.2c0-2.2-1.8-4-4-4s-4,1.8-4,4v2.2C120.4,264.2,122.2,266,124.4,266z"/>
<path d="M158.6,266c2.2,0,4-1.8,4-4v-2.2c0-2.2-1.8-4-4-4s-4,1.8-4,4v2.2C154.6,264.2,156.4,266,158.6,266z"/>
<path d="M141.5,275.9c2.2,0,4-1.8,4-4V262c0-2.2-1.8-4-4-4c-2.2,0-4,1.8-4,4v9.9C137.5,274.1,139.3,275.9,141.5,275.9z"/>
<path d="M366.6,378.8c-2.1-0.7-4.3,0.3-5.1,2.3c-1.1,2.9-3.9,4.8-7,4.8c-3.1,0-5.9-1.9-7-4.8c-0.8-2-3.1-3.1-5.1-2.3
	c-2.1,0.8-3.1,3-2.4,5.1c3,8,11.9,12,19.8,9c4.2-1.6,7.5-4.8,9-9C369.7,381.9,368.7,379.6,366.6,378.8
	C366.7,378.8,366.6,378.8,366.6,378.8L366.6,378.8z"/>
<path d="M341.4,363.5v-2.2c0-2.2-1.8-4-4-4c-2.2,0-4,1.8-4,4v2.2c0,2.2,1.8,4,4,4C339.6,367.4,341.4,365.7,341.4,363.5z"/>
<path d="M371.6,357.3c-2.2,0-4,1.8-4,4v2.2c0,2.2,1.8,4,4,4c2.2,0,4-1.8,4-4v-2.2C375.6,359.1,373.8,357.3,371.6,357.3z"/>
<path d="M354.5,377.3c2.2,0,4-1.8,4-4v-9.9c0-2.2-1.8-4-4-4s-4,1.8-4,4v9.9C350.6,375.5,352.3,377.3,354.5,377.3z"/>
<path d="M359.7,312.1c-3.1,2.3-7.3,2.2-10.4,0c-9.9-7-23.5-4.6-30.5,5.3c-2.7,3.8-4.1,8.5-4,13.2v14.4c-9,0.7-15.8,8.6-15.1,17.6
	c0.6,8.3,7.4,14.8,15.7,15.1c3.8,21.6,24.5,36,46.1,32.2c16.4-2.9,29.2-15.8,32.2-32.2c9.1-0.4,16.1-8,15.7-17
	c-0.3-8.3-6.8-15.1-15.1-15.7v-14.4C394.2,312.7,374.8,301.5,359.7,312.1L359.7,312.1z M314.8,358.9v10.7c-4.6-0.7-7.8-5-7.1-9.7
	c0.6-3.6,3.4-6.5,7.1-7.1V358.9z M386.3,370.7c-0.1,17.5-14.4,31.7-32,31.5c-17.4-0.1-31.4-14.2-31.5-31.5V359c0,0,0,0,0-0.1
	c0-11.6,13.4-17.7,22-11.3c5.9,4.2,13.7,4.2,19.6,0c6.3-4.4,15-2.9,19.4,3.3c1.6,2.3,2.5,5.1,2.6,8L386.3,370.7z M386.3,342.1
	c-7.6-6.3-18.5-6.6-26.6-0.9l0,0c-3.1,2.2-7.2,2.2-10.3,0c-8.1-5.8-19-5.5-26.7,0.9v-11.6c0-11.8,12.6-18.6,21.9-11.9
	c5.9,4.2,13.7,4.2,19.6,0c9.7-6.8,22,0.5,22,11.9L386.3,342.1z M401.4,361.3c0,4.2-3.1,7.7-7.2,8.4V359v0v-6
	C398.4,353.6,401.4,357.1,401.4,361.3L401.4,361.3z"/>
<path d="M353.8,100c-28.1,0.4-50.9,24.1-50.9,52.7V180c0,2.2,1.8,4,4,4h16.7c6.4,17.1,25.4,25.8,42.6,19.4
	c9-3.4,16.1-10.4,19.4-19.4h16.7c2.2,0,4-1.8,4-4v-28.3c0-28.5-23-51.6-51.5-51.7C354.3,100,354.1,100,353.8,100z M379.7,172.4
	c-0.1,13.9-11.5,25-25.3,24.9c-13.7-0.1-24.8-11.2-24.9-24.9v-19.7c0-3.3,2.6-5.9,5.9-5.9c0.2,0,0.5,0,0.7,0h0l43.6,5.9V172.4z
	 M398.2,176h-10.8c0.1-1.2,0.2-2.4,0.2-3.6v-23.1c0-2-1.5-3.7-3.4-3.9l-47.1-6.3c-7.6-1-14.6,4.4-15.5,12c-0.1,0.6-0.1,1.2-0.1,1.8
	v19.7c0,1.2,0.1,2.4,0.2,3.6h-10.8v-23.3c0-24.3,19.3-44.4,43-44.8c24.1-0.4,43.9,18.9,44.3,43c0,0.2,0,0.5,0,0.7V176z"/>
<path d="M340.8,183c2.8,7.6,11.3,11.4,18.8,8.6c4-1.5,7.1-4.6,8.6-8.5c0.8-2-0.2-4.4-2.3-5.2c-2-0.8-4.4,0.2-5.2,2.3
	c0,0,0,0.1,0,0.1c-1.3,3.4-5.2,5.2-8.6,3.9c-1.8-0.7-3.2-2.1-3.9-3.8c-0.8-2.1-3-3.1-5.1-2.4C341.1,178.6,340.1,180.9,340.8,183
	C340.8,183,340.8,183,340.8,183L340.8,183z"/>
<path d="M334.6,159.6v2c0,2.2,1.8,4,4,4c2.2,0,4-1.8,4-4v-2c0-2.2-1.8-4-4-4C336.4,155.6,334.6,157.4,334.6,159.6z"/>
<path d="M370.4,165.6c2.2,0,4-1.8,4-4v-2c0-2.2-1.8-4-4-4c-2.2,0-4,1.8-4,4v2C366.4,163.8,368.2,165.6,370.4,165.6z"/>
<path d="M354.5,174.8c2.2,0,4-1.8,4-4v-9.2c0-2.2-1.8-4-4-4c-2.2,0-4,1.8-4,4v9.2C350.5,173,352.3,174.8,354.5,174.8z"/>
<path d="M417,107.1c2.2,0,4-1.8,4-4v-8.9h8.9c2.2,0,4-1.8,4-4s-1.8-4-4-4h-8.9v-8.9c0-2.2-1.8-4-4-4c-2.2,0-4,1.8-4,4v8.9h-8.9
	c-2.2,0-4,1.8-4,4c0,2.2,1.8,4,4,4h8.9v8.9C413,105.3,414.8,107.1,417,107.1C417,107.1,417,107.1,417,107.1z"/>
</svg>
