<?xml version="1.0" encoding="utf-8"?>
<!-- Generator: Adobe Illustrator 24.3.0, SVG Export Plug-In . SVG Version: 6.00 Build 0)  -->
<svg version="1.1" id="Layer_1" xmlns="http://www.w3.org/2000/svg" xmlns:xlink="http://www.w3.org/1999/xlink" x="0px" y="0px"
	 viewBox="0 0 512 512" style="enable-background:new 0 0 512 512;" xml:space="preserve">
<style type="text/css">
	.st0{fill:#033F87;}
	.st1{fill:#C66B60;}
	.st2{fill:#E47C6E;}
	.st3{fill:#EBF7FE;}
	.st4{fill:#DB9B7C;}
	.st5{fill:#EFBE9A;}
	.st6{fill:#976947;}
	.st7{fill:#C18E59;}
	.st8{fill:#E2900E;}
	.st9{fill:#F9A52B;}
</style>
<path class="st0" d="M237.6,444.9h-37.7c-38.2,0-69.1-30.9-69.1-69.1h-25.1l44-44l44,44h-25.1C168.5,413.9,199.5,444.9,237.6,444.9z
	"/>
<path class="st1" d="M256.5,306.7v-25.1c0-34.7-28.1-62.8-62.8-62.8h-62.8c-34.7,0-62.8,28.1-62.8,62.8v25.1"/>
<path class="st2" d="M108.8,287.8c55.1,0,102.9-21.8,126.2-53.5c-11.1-9.7-25.5-15.6-41.4-15.6h-62.8c-34.7,0-62.8,28.1-62.8,62.8
	v2.1C80.9,286.3,94.6,287.8,108.8,287.8z"/>
<path class="st3" d="M130.8,281.5l31.4-31.4l31.4,31.4l12.3-61.6c-4-0.8-8.1-1.2-12.3-1.2h-62.8c-4.2,0-8.3,0.4-12.3,1.2
	L130.8,281.5z"/>
<g>
	<path class="st4" d="M137.1,218.7l25.1,31.4l25.1-31.4"/>
	<path class="st4" d="M137.1,218.7l25.1,31.4l25.1-31.4"/>
	<path class="st4" d="M118.3,181h-12.6c-10.4,0-18.8-8.4-18.8-18.8c0-10.4,8.4-18.9,18.8-18.9h12.6"/>
</g>
<path class="st5" d="M206.2,143.3h12.6c10.4,0,18.8,8.4,18.8,18.9c0,10.4-8.4,18.8-18.8,18.8h-12.6"/>
<path class="st4" d="M212.5,111.9v56.5c0,27.8-22.5,50.3-50.3,50.3S112,196.2,112,168.4v-56.5"/>
<path class="st5" d="M152.8,217.8c23.3-4.4,40.8-24.8,40.8-49.4v-56.5H112v56.5C112,193,129.6,213.4,152.8,217.8z"/>
<path class="st6" d="M174.8,99.3v6.3c0,20.8-16.9,37.7-37.7,37.7H99.4v-31.4c0-24.3,19.7-44,44-44h37.7c24.3,0,44,19.7,44,44v31.4
	h-31.4c-10.4,0-18.9-8.4-18.9-18.8V99.3z"/>
<path class="st7" d="M205.8,75.5c-7-4.8-15.6-7.6-24.7-7.6h-37.7c-24.3,0-44,19.7-44,44v31.4h37.7c20.8,0,37.7-16.9,37.7-37.7v18.8
	c0,6.5,3.3,12.3,8.3,15.6c14.2-14.3,23.1-34.3,23.1-56.5C206.2,80.9,206.1,78.2,205.8,75.5z"/>
<path class="st8" d="M445,444.9v-25.1c0-34.7-28.1-62.8-62.8-62.8h-62.8c-34.7,0-62.8,28.1-62.8,62.8v25.1"/>
<path class="st9" d="M297.3,426c55.1,0,102.9-21.8,126.2-53.5c-11.1-9.7-25.5-15.6-41.4-15.6h-62.8c-34.7,0-62.8,28.1-62.8,62.8v2.1
	C269.4,424.6,283.1,426,297.3,426z"/>
<path class="st3" d="M319.3,419.8l31.4-31.4l31.4,31.4l12.3-61.6c-4-0.8-8.1-1.2-12.3-1.2h-62.8c-4.2,0-8.3,0.4-12.3,1.2
	L319.3,419.8z"/>
<path class="st4" d="M325.6,356.9l25.1,31.4l25.1-31.4"/>
<path class="st4" d="M306.8,319.2h-12.6c-10.4,0-18.9-8.4-18.9-18.8c0-10.4,8.4-18.9,18.9-18.9h12.6"/>
<path class="st5" d="M394.7,281.5h12.6c10.4,0,18.9,8.4,18.9,18.9c0,10.4-8.4,18.8-18.9,18.8h-12.6"/>
<path class="st4" d="M401,250.1v56.6c0,27.8-22.5,50.3-50.3,50.3s-50.3-22.5-50.3-50.3v-56.6"/>
<path class="st5" d="M341.3,356c23.3-4.4,40.8-24.8,40.8-49.4v-56.6h-81.7v56.6C300.5,331.2,318.1,351.6,341.3,356z"/>
<path class="st6" d="M363.3,237.5v6.3c0,20.8-16.9,37.7-37.7,37.7h-37.7v-31.4c0-24.3,19.7-44,44-44h37.7c24.3,0,44,19.7,44,44v31.4
	h-31.4c-10.4,0-18.8-8.4-18.8-18.9V237.5z"/>
<path class="st7" d="M394.3,213.7c-7-4.8-15.6-7.6-24.7-7.6h-37.7c-24.3,0-44,19.7-44,44v31.4h37.7c20.8,0,37.7-16.9,37.7-37.7v18.9
	c0,6.5,3.3,12.3,8.3,15.6c14.2-14.3,23.1-34.3,23.1-56.5C394.7,219.1,394.6,216.4,394.3,213.7L394.3,213.7z"/>
</svg>
