<?xml version="1.0"?>
<svg xmlns="http://www.w3.org/2000/svg" xmlns:xlink="http://www.w3.org/1999/xlink" xmlns:svgjs="http://svgjs.com/svgjs" version="1.1" width="512" height="512" x="0" y="0" viewBox="0 0 256 256" style="enable-background:new 0 0 512 512" xml:space="preserve" class=""><g><path xmlns="http://www.w3.org/2000/svg" d="m226.228 26.227c-.974 11.564-13.024 13.389-13.024 13.389 10.347.487 12.925 14.059 12.925 14.059.221-9.677 13.321-14.202 13.321-14.202-9.814-.587-13.222-13.246-13.222-13.246z" fill="#d5dc57" data-original="#d5dc57" style=""/><path xmlns="http://www.w3.org/2000/svg" d="m239.54 37.976c-8.604-.514-11.832-12.024-11.863-12.141-.19-.702-.848-1.162-1.584-1.102-.725.066-1.298.642-1.359 1.367-.86 10.215-11.313 11.964-11.755 12.033-.763.115-1.313.79-1.273 1.561.04.77.657 1.384 1.428 1.421 9.028.425 11.499 12.718 11.522 12.842.138.711.76 1.217 1.473 1.217.042 0 .084-.001.126-.005.765-.064 1.357-.693 1.375-1.459.193-8.508 12.191-12.777 12.313-12.819.676-.235 1.092-.914.994-1.623-.1-.708-.683-1.249-1.397-1.292zm-13.566 10.345c-1.356-3.13-3.709-6.907-7.587-8.876 2.931-1.405 6.409-3.913 8.202-8.273 1.551 3.071 4.199 6.88 8.334 8.723-3.008 1.64-6.923 4.405-8.949 8.426z" fill="#3a312a" data-original="#3a312a" style="" class=""/><path xmlns="http://www.w3.org/2000/svg" d="m204.53 43.207c-.689 8.179-9.212 9.47-9.212 9.47 7.318.344 9.142 9.944 9.142 9.944.156-6.844 9.422-10.045 9.422-10.045-6.942-.415-9.352-9.369-9.352-9.369z" fill="#d5dc57" data-original="#d5dc57" style=""/><path xmlns="http://www.w3.org/2000/svg" d="m213.971 51.079c-5.766-.345-7.972-8.185-7.994-8.264-.189-.702-.863-1.165-1.581-1.102-.726.065-1.3.643-1.361 1.368-.578 6.87-7.646 8.066-7.941 8.113-.763.115-1.313.79-1.273 1.561.04.77.657 1.384 1.428 1.421 6.034.284 7.723 8.644 7.738 8.726.136.713.759 1.22 1.473 1.22.041 0 .083-.001.125-.005.765-.063 1.358-.694 1.376-1.461.13-5.709 8.331-8.634 8.412-8.662.676-.234 1.093-.913.996-1.622-.099-.708-.684-1.25-1.398-1.293zm-9.585 6.796c-.924-1.886-2.339-3.947-4.446-5.28 1.855-1.042 3.697-2.63 4.87-4.917 1.058 1.874 2.654 3.955 4.941 5.224-1.85 1.1-3.988 2.741-5.365 4.973z" fill="#3a312a" data-original="#3a312a" style="" class=""/><path xmlns="http://www.w3.org/2000/svg" d="m204.53 16.55c-.689 8.179-9.212 9.471-9.212 9.471 7.318.344 9.142 9.944 9.142 9.944.156-6.844 9.422-10.045 9.422-10.045-6.942-.416-9.352-9.37-9.352-9.37z" fill="#d5dc57" data-original="#d5dc57" style=""/><path xmlns="http://www.w3.org/2000/svg" d="m213.971 24.422c-5.766-.345-7.972-8.186-7.994-8.265-.189-.702-.863-1.164-1.581-1.102-.726.065-1.3.643-1.361 1.368-.578 6.871-7.646 8.067-7.941 8.114-.763.115-1.313.79-1.273 1.561.04.77.657 1.384 1.428 1.421 6.034.284 7.723 8.644 7.738 8.726.136.713.759 1.22 1.473 1.22.041 0 .083-.001.125-.005.765-.063 1.358-.694 1.376-1.461.13-5.709 8.331-8.634 8.412-8.662.676-.234 1.093-.913.996-1.622-.099-.709-.684-1.25-1.398-1.293zm-9.585 6.795c-.924-1.885-2.34-3.947-4.446-5.28 1.855-1.041 3.697-2.629 4.87-4.916 1.058 1.874 2.654 3.954 4.941 5.223-1.85 1.101-3.989 2.74-5.365 4.973z" fill="#3a312a" data-original="#3a312a" style="" class=""/><path xmlns="http://www.w3.org/2000/svg" d="m177.245 36.967c-.109-11.314-9.347-20.431-20.71-20.436l-119.253-.062c-11.448-.006-20.732 9.234-20.732 20.635v158.77c0 11.409 9.249 20.657 20.657 20.657h119.685c11.409 0 20.657-9.249 20.657-20.657v-127.337z" fill="#8ac5dc" data-original="#8ac5dc" style=""/><path xmlns="http://www.w3.org/2000/svg" d="m178.745 36.953c-.117-12.082-10.08-21.916-22.209-21.922l-119.253-.062c-.004 0-.008 0-.012 0-5.933 0-11.51 2.3-15.707 6.477-4.201 4.181-6.515 9.742-6.515 15.658v38.427c0 .829.672 1.5 1.5 1.5s1.5-.671 1.5-1.5v-38.427c0-5.112 2-9.917 5.631-13.531s8.457-5.603 13.591-5.603h.01l119.253.062c10.492.005 19.11 8.507 19.211 18.951l.305 31.555v127.336c0 10.563-8.594 19.157-19.157 19.157h-119.686c-10.563 0-19.157-8.594-19.157-19.157v-106.343c0-.829-.672-1.5-1.5-1.5s-1.5.671-1.5 1.5v106.343c0 12.218 9.939 22.157 22.157 22.157h119.686c12.218 0 22.157-9.939 22.157-22.157v-127.352z" fill="#3a312a" data-original="#3a312a" style="" class=""/><path xmlns="http://www.w3.org/2000/svg" d="m147.5 39.5h-88.15c-11.51 0-20.85 9.34-20.85 20.85v158.3c0 11.51 9.34 20.85 20.85 20.85h22.452 13.73 83.118c11.51 0 20.85-9.34 20.85-20.85v-127.12z" fill="#f4e0c4" data-original="#f4e0c4" style=""/><g xmlns="http://www.w3.org/2000/svg" fill="#3a312a"><path d="m200.561 90.47-52-52.03c-.282-.282-.663-.44-1.061-.44h-88.15c-12.324 0-22.35 10.026-22.35 22.35v158.3c0 12.324 10.026 22.35 22.35 22.35h22.452c.828 0 1.5-.671 1.5-1.5s-.672-1.5-1.5-1.5h-22.452c-10.669 0-19.35-8.68-19.35-19.35v-158.3c0-10.67 8.681-19.35 19.35-19.35h87.528l51.122 51.151v126.499c0 10.67-8.681 19.35-19.35 19.35h-83.119c-.828 0-1.5.671-1.5 1.5s.672 1.5 1.5 1.5h83.119c12.323 0 22.35-10.026 22.35-22.35v-127.12c0-.397-.158-.779-.439-1.06z" fill="#3a312a" data-original="#3a312a" style="" class=""/><path d="m170.55 76.5h-102c-.828 0-1.5.671-1.5 1.5s.672 1.5 1.5 1.5h102c.828 0 1.5-.671 1.5-1.5s-.672-1.5-1.5-1.5z" fill="#3a312a" data-original="#3a312a" style="" class=""/><path d="m170.55 108.135h-102c-.828 0-1.5.671-1.5 1.5s.672 1.5 1.5 1.5h102c.828 0 1.5-.671 1.5-1.5s-.672-1.5-1.5-1.5z" fill="#3a312a" data-original="#3a312a" style="" class=""/><path d="m170.55 139.77h-102c-.828 0-1.5.671-1.5 1.5s.672 1.5 1.5 1.5h102c.828 0 1.5-.671 1.5-1.5s-.672-1.5-1.5-1.5z" fill="#3a312a" data-original="#3a312a" style="" class=""/><path d="m170.55 171.404h-102c-.828 0-1.5.671-1.5 1.5s.672 1.5 1.5 1.5h102c.828 0 1.5-.671 1.5-1.5s-.672-1.5-1.5-1.5z" fill="#3a312a" data-original="#3a312a" style="" class=""/><path d="m170.5 203h-102c-.828 0-1.5.671-1.5 1.5s.672 1.5 1.5 1.5h102c.828 0 1.5-.671 1.5-1.5s-.672-1.5-1.5-1.5z" fill="#3a312a" data-original="#3a312a" style="" class=""/></g><path xmlns="http://www.w3.org/2000/svg" d="m147.5 39.5v33.8c0 10.14 8.22 18.36 18.36 18.36h33.64v-.13z" fill="#f4e0c4" data-original="#f4e0c4" style=""/><path xmlns="http://www.w3.org/2000/svg" d="m200.561 90.469-52-52.03c-.428-.429-1.074-.559-1.635-.325-.561.232-.926.779-.926 1.386v33.8c0 10.951 8.909 19.86 19.86 19.86h33.64c.828 0 1.5-.671 1.5-1.5v-.13c0-.398-.158-.78-.439-1.061zm-34.701-.309c-9.297 0-16.86-7.563-16.86-16.86v-30.177l47.011 47.038h-30.151z" fill="#3a312a" data-original="#3a312a" style="" class=""/><path xmlns="http://www.w3.org/2000/svg" d="m180 93.16v57.83c4.62-1.56 9.56-2.4 14.7-2.4 1.11 0 2.21.05 3.3.13v-55.56z" fill="#decaad" data-original="#decaad" style=""/><circle xmlns="http://www.w3.org/2000/svg" cx="194.651" cy="194.725" fill="#c60419" r="44.766" data-original="#f16c7a" style="" class=""/><path xmlns="http://www.w3.org/2000/svg" d="m194.651 148.459c-25.511 0-46.266 20.755-46.266 46.266s20.755 46.266 46.266 46.266 46.266-20.755 46.266-46.266-20.755-46.266-46.266-46.266zm0 89.532c-23.856 0-43.266-19.409-43.266-43.266s19.409-43.266 43.266-43.266 43.266 19.409 43.266 43.266-19.409 43.266-43.266 43.266z" fill="#3a312a" data-original="#3a312a" style="" class=""/><path xmlns="http://www.w3.org/2000/svg" d="m202.426 195.439 14.043-14.043c2.136-2.135 2.136-5.598 0-7.733-2.134-2.136-5.599-2.136-7.733 0l-14.043 14.043-14.043-14.043c-2.134-2.136-5.599-2.136-7.733 0-2.136 2.135-2.136 5.598 0 7.733l14.043 14.043-14.043 14.043c-2.136 2.135-2.136 5.598 0 7.733 1.067 1.068 2.467 1.602 3.866 1.602s2.799-.534 3.866-1.602l14.043-14.043 14.043 14.043c1.067 1.068 2.467 1.602 3.866 1.602s2.799-.534 3.866-1.602c2.136-2.135 2.136-5.598 0-7.733z" fill="#87796f" data-original="#87796f" style=""/><path xmlns="http://www.w3.org/2000/svg" d="m204.547 195.439 12.982-12.981c1.316-1.316 2.042-3.066 2.042-4.928 0-1.861-.726-3.611-2.041-4.926-1.315-1.317-3.065-2.042-4.928-2.042s-3.612.725-4.927 2.042l-12.982 12.982-12.981-12.982c-1.315-1.317-3.065-2.042-4.928-2.042s-3.612.725-4.927 2.042c-1.316 1.316-2.041 3.065-2.041 4.927s.725 3.611 2.041 4.927l12.982 12.982-12.982 12.982c-1.316 1.316-2.041 3.066-2.041 4.927s.725 3.611 2.04 4.926c1.315 1.317 3.065 2.042 4.928 2.042s3.613-.725 4.927-2.042l12.982-12.982 12.981 12.981c1.314 1.317 3.064 2.042 4.928 2.042s3.613-.725 4.927-2.041c1.316-1.316 2.042-3.065 2.042-4.927s-.726-3.611-2.042-4.927zm10.86 20.716c-1.496 1.498-4.112 1.499-5.61-.001l-14.043-14.042c-.293-.293-.677-.439-1.061-.439s-.768.146-1.061.439l-14.044 14.043c-1.496 1.498-4.112 1.5-5.61-.001-.75-.749-1.162-1.745-1.162-2.805s.412-2.056 1.162-2.806l14.043-14.043c.281-.281.439-.663.439-1.061s-.158-.779-.439-1.061l-14.043-14.042c-.75-.75-1.162-1.746-1.162-2.806s.412-2.056 1.163-2.806c1.496-1.499 4.112-1.5 5.61 0l14.043 14.043c.586.586 1.535.586 2.121 0l14.044-14.043c1.496-1.499 4.112-1.5 5.61.001.75.75 1.163 1.746 1.163 2.805 0 1.06-.413 2.056-1.163 2.806l-14.043 14.042c-.281.281-.439.663-.439 1.061s.158.779.439 1.061l14.043 14.043c.75.749 1.163 1.746 1.163 2.805s-.412 2.057-1.163 2.807z" fill="#3a312a" data-original="#3a312a" style="" class=""/></g></svg>
