<?xml version="1.0" encoding="utf-8"?>
<!-- Generator: Adobe Illustrator 24.1.1, SVG Export Plug-In . SVG Version: 6.00 Build 0)  -->
<svg version="1.1" id="Layer_1" xmlns="http://www.w3.org/2000/svg" xmlns:xlink="http://www.w3.org/1999/xlink" x="0px" y="0px"
	 viewBox="0 0 512 512" style="enable-background:new 0 0 512 512;" xml:space="preserve">
<style type="text/css">
	.st0{fill:#FF6465;}
</style>
<path class="st0" d="M328.2,255.5l66.9-66.9c5-5,5-13.2,0-18.2l-53.6-53.6c-5-5-13.2-5-18.2,0l-66.9,66.9l-66.9-66.9
	c-5-5-13.2-5-18.2,0l-53.6,53.6c-5,5-5,13.2,0,18.2l66.9,66.9l-66.9,66.9c-5,5-5,13.2,0,18.2l53.6,53.6c5,5,13.2,5,18.2,0l66.9-66.9
	l66.9,66.9c5,5,13.2,5,18.2,0l53.6-53.6c5-5,5-13.2,0-18.2L328.2,255.5z"/>
<path d="M332.5,402.8c-4.5,0-9.1-1.7-12.5-5.2l-25.2-25.2c-1.9-1.9-1.9-5,0-6.9c1.9-1.9,5-1.9,6.9,0l25.2,25.2
	c3.1,3.1,8.2,3.1,11.3,0l53.6-53.6c1.5-1.5,2.3-3.5,2.3-5.6s-0.8-4.1-2.3-5.6l-66.9-66.9c-1.9-1.9-1.9-5,0-6.9l66.9-66.9
	c1.5-1.5,2.3-3.5,2.3-5.6s-0.8-4.1-2.3-5.6l-53.6-53.6c-1.5-1.5-3.5-2.3-5.6-2.3c-2.1,0-4.1,0.8-5.6,2.3l-66.9,66.9
	c-0.9,0.9-2.2,1.4-3.4,1.4c-1.3,0-2.5-0.5-3.4-1.4l-37.7-37.7c-1.9-1.9-1.9-5,0-6.9c1.9-1.9,5-1.9,6.9,0l34.3,34.3l63.5-63.5
	c3.3-3.3,7.8-5.2,12.5-5.2c4.7,0,9.2,1.8,12.5,5.2l53.6,53.6c3.3,3.3,5.2,7.8,5.2,12.5c0,4.7-1.8,9.2-5.2,12.5l-63.5,63.5l63.5,63.5
	c3.3,3.3,5.2,7.8,5.2,12.5s-1.8,9.2-5.2,12.5L345,397.6C341.6,401.1,337,402.8,332.5,402.8z"/>
<path d="M180.5,402.8c-4.7,0-9.2-1.8-12.5-5.2l-53.6-53.6c-6.9-6.9-6.9-18.2,0-25.1l63.5-63.5L114.4,192c-6.9-6.9-6.9-18.2,0-25.1
	l53.6-53.6c3.3-3.3,7.8-5.2,12.5-5.2s9.2,1.8,12.5,5.2l15.4,15.4c1.9,1.9,1.9,5,0,6.9c-1.9,1.9-5,1.9-6.9,0l-15.4-15.4
	c-1.5-1.5-3.5-2.3-5.6-2.3c-2.1,0-4.1,0.8-5.6,2.3l-53.6,53.6c-3.1,3.1-3.1,8.2,0,11.3l66.9,66.9c0.9,0.9,1.4,2.2,1.4,3.4
	c0,1.3-0.5,2.5-1.4,3.4l-66.9,66.9c-3.1,3.1-3.1,8.2,0,11.3l53.6,53.6c1.5,1.5,3.5,2.3,5.6,2.3c2.1,0,4.1-0.8,5.6-2.3l66.9-66.9
	c0.9-0.9,2.2-1.4,3.4-1.4c1.3,0,2.5,0.5,3.4,1.4l27.9,27.9c1.9,1.9,1.9,5,0,6.9c-1.9,1.9-5,1.9-6.9,0l-24.5-24.5L193,397.6
	C189.7,401,185.2,402.8,180.5,402.8z"/>
</svg>
