<svg id="Layer_1" enable-background="new 0 0 512 512" height="512" viewBox="0 0 512 512" width="512" xmlns="http://www.w3.org/2000/svg"><g><path d="m421.27 470.54h26.256v-56.58c0-34.89-24.32-65.11-61.97-76.99-10.2-3.22-3.96-1.86-24.67-6.64l-26.32 14.09h-221.19l-26.66-14.09c-20.83 4.81-14.43 3.4-24.68 6.64-37.65 11.88-61.97 42.1-61.97 76.99v83.04c0 8.28 6.71 15 15 15h406.204z" fill="#38336b"/><path d="m421.27 470.54h26.256v-56.58c0-34.89-24.32-65.11-61.97-76.99-10.2-3.22-3.96-1.86-24.67-6.64l-26.32 14.09h-110.77v167.58h197.474z" fill="#2e2654"/><path d="m360.886 330.33-116.11 181.67h-41.96l-116.1-181.67c35.82-8.86 89.64-20.31 92.54-20.92 8.11-1.72 80.98-1.72 89.08 0 2.9.61 56.73 12.06 92.55 20.92z" fill="#f4f1f1"/><path d="m360.886 330.33c-35.82-8.86-89.65-20.31-92.55-20.92-4.05-.86-24.295-1.29-44.54-1.29v203.88h20.98z" fill="#e7dfdd"/><path d="m164.062 451.358 38.754 60.642h41.96l38.755-60.637-59.804-105.202z" fill="#d20041"/><path d="m223.796 352.988v159.012h20.98l38.754-60.637-55.974-98.467c-1.251.057-2.503.092-3.757.092-.001.001-.002 0-.003 0z" fill="#ba003a"/><path d="m254.955 305.519c-8.284 0-54.033-.003-62.317-.003s-15 6.716-15 15v38.851c0 25.452 20.707 46.159 46.159 46.159s46.159-20.707 46.159-46.159v-38.848c-.001-8.284-6.717-15-15.001-15z" fill="#ff0059"/><path d="m269.955 359.367v-38.848c0-8.284-6.716-15-15-15-4.142 0-17.65-.001-31.159-.001v100.008c25.452 0 46.159-20.707 46.159-46.159z" fill="#d20041"/><path d="m318.548 146.73v-28.598h-194.869v37.91h-25.836l-.863 41.078-.12 5.46c-.15 28.83 6.08 52.61 19.59 74.82 12.06 19.83 29.59 37.91 56.85 58.62 14.39 10.94 32.32 16.97 50.5 16.97s36.11-6.03 50.5-16.97c27.25-20.71 44.79-38.79 56.84-58.62 13.52-22.21 19.75-45.96 19.6-74.67v-4.83l.006-51.17z" fill="#e5ae8c"/><path d="m318.548 146.73v-28.598h-94.752v234.857h.003c18.176 0 36.112-6.025 50.502-16.965 27.252-20.717 44.783-38.797 56.843-58.623 13.514-22.214 19.741-45.965 19.598-74.669l.003-56.001h-32.197z" fill="#dd9366"/><circle cx="420.779" cy="420.845" fill="#ff0059" r="91.155"/><path d="m420.779 329.691v182.309c50.263 0 91.155-40.892 91.155-91.155 0-50.262-40.892-91.154-91.155-91.154z" fill="#d20041"/><path d="m348.05 94.82c-14.34-54.51-64.05-94.82-122.99-94.82-33.92 0-65.84 13.24-89.89 37.28-24.04 24.05-37.28 55.97-37.28 89.89v26.62l-.91 43.33 75.18-75.18h102.63l75.95 75.96.01-89.544c0-.35-.026-.701-.08-1.047-.662-4.24-1.544-8.406-2.62-12.489z" fill="#38336b"/><path d="m441.992 421 6.696-6.696c5.858-5.858 5.858-15.355 0-21.213-5.857-5.858-15.355-5.858-21.213 0l-6.696 6.696-6.696-6.696c-5.857-5.858-15.355-5.858-21.213 0s-5.858 15.355 0 21.213l6.696 6.696-6.696 6.696c-5.858 5.858-5.858 15.355 0 21.213 2.929 2.929 6.768 4.394 10.606 4.394s7.678-1.464 10.606-4.394l6.696-6.696 6.696 6.696c2.929 2.929 6.768 4.394 10.606 4.394s7.678-1.464 10.606-4.394c5.858-5.858 5.858-15.355 0-21.213z" fill="#fff"/><g><path d="m441.992 421 6.696-6.696c5.858-5.858 5.858-15.355 0-21.213-5.857-5.858-15.355-5.858-21.213 0l-6.696 6.696v42.426l6.696 6.696c2.929 2.929 6.768 4.394 10.606 4.394s7.678-1.464 10.606-4.394c5.858-5.858 5.858-15.355 0-21.213z" fill="#f4f1f1"/></g><g><path d="m350.67 107.309c-.662-4.24-1.544-8.406-2.62-12.489-14.34-54.51-64.05-94.82-122.99-94.82-.399 0-.796.011-1.195.015v121.925h50.925l75.95 75.96.01-89.544c0-.35-.026-.701-.08-1.047z" fill="#2e2654"/></g></g></svg>