<svg xmlns="http://www.w3.org/2000/svg" viewBox="0 0 512 591.75"><defs><style>.cls-1{fill:#fff;}.cls-2{fill:#fdf6ec;}.cls-3{fill:#fef1da;}.cls-4{fill:#596c76;}.cls-5{fill:#465a61;}.cls-6{fill:#ee6161;}.cls-7{fill:#e94444;}.cls-8{fill:#9facba;}.cls-9{fill:#8d9ca8;}</style></defs><g id="Layer_2" data-name="Layer 2"><g id="Layer_1-2" data-name="Layer 1"><path class="cls-1" d="M508.27,200,269.33,4.76a21.05,21.05,0,0,0-26.67,0l-61.2,50v-26a10.14,10.14,0,0,0-10.15-10.14H112.42a10.14,10.14,0,0,0-10.15,10.14v90.69L3.72,200a10.16,10.16,0,0,0,12.85,15.73L67.73,174V428.63a10.14,10.14,0,0,0,10.13,10.14H88V157.37l159.3-130.2a13.7,13.7,0,0,1,17.37,0L424,157.37v281.4h10.14a10.15,10.15,0,0,0,10.15-10.14V174l51.15,41.82A10.15,10.15,0,0,0,508.27,200ZM161.16,71.37l-38.6,31.55V39h38.6Z"/><path class="cls-2" d="M412.08,585.17a34.49,34.49,0,0,0,3.16-68.83v-.15A26.94,26.94,0,0,0,365,502.64a44.14,44.14,0,0,0-62.62,21.64,33.1,33.1,0,0,0-44.91,8.39,33.1,33.1,0,0,0-44.91-8.39A44.13,44.13,0,0,0,150,502.64a26.94,26.94,0,0,0-50.22,13.55v.15a34.49,34.49,0,0,0,3.16,68.83Z"/><path class="cls-3" d="M446.57,550.68a34.48,34.48,0,0,1-28,33.88l3.17-3.29a34.53,34.53,0,0,0,6.6-12.1c3.88-12.65,2.92-31-10-38.33a35.83,35.83,0,0,0-6.36-2.75c-3.18-1.06-6.44-1.8-9.7-2.58a5.32,5.32,0,0,1-4-4.53,26.94,26.94,0,0,0-26.71-23.36,25.29,25.29,0,0,0-2.91.16,26.93,26.93,0,0,1,46.59,18.41v.15A34.5,34.5,0,0,1,446.57,550.68Z"/><path class="cls-4" d="M195.26,288.16,140.43,351.8a8,8,0,0,0-1.92,5.19v29.69a7.94,7.94,0,0,0,7.94,7.94h48.81Z"/><path class="cls-4" d="M319.73,288.16l54.83,63.64a8,8,0,0,1,1.93,5.19v29.69a8,8,0,0,1-7.95,7.94h-48.8Z"/><path class="cls-5" d="M376.49,357v29.7a7.94,7.94,0,0,1-7.95,7.94H351.38a7.79,7.79,0,0,0,7.94-7.65V358.38a7.45,7.45,0,0,0-1.93-5l-37.66-42.1V288.16l54.83,63.65A7.85,7.85,0,0,1,376.49,357Z"/><path class="cls-6" d="M289.77,176.06a175.41,175.41,0,0,0-20.86-20.74,17.76,17.76,0,0,0-22.83,0,175.41,175.41,0,0,0-20.86,20.74,127.57,127.57,0,0,0-30,82.56V433.05H319.73V258.62A127.57,127.57,0,0,0,289.77,176.06Z"/><path class="cls-7" d="M319.73,258.62V433.05H302.21V261.29a124.42,124.42,0,0,0-30-81.29,174.27,174.27,0,0,0-20.86-20.43A17.58,17.58,0,0,0,245,156.2l1-.88a17.73,17.73,0,0,1,22.83,0,175.41,175.41,0,0,1,20.86,20.74A127.57,127.57,0,0,1,319.73,258.62Z"/><path class="cls-4" d="M305.36,199.31H209.63a123.93,123.93,0,0,1,15.59-23.24A175.87,175.87,0,0,1,246,155.35a17.78,17.78,0,0,1,22.9,0,175.11,175.11,0,0,1,20.83,20.72A123.93,123.93,0,0,1,305.36,199.31Z"/><path class="cls-5" d="M305.36,199.32H285.87A121.7,121.7,0,0,0,272.25,180a174.27,174.27,0,0,0-20.86-20.43A17.58,17.58,0,0,0,245,156.2l.53-.44c.15-.14.32-.28.48-.41a19,19,0,0,1,2.7-1.89,17.84,17.84,0,0,1,13.11-1.75c5.47,1.38,9.44,5.43,13.33,9.15a195.65,195.65,0,0,1,14.58,15.21,116.11,116.11,0,0,1,7.44,9.71A135.33,135.33,0,0,1,305.36,199.32Z"/><circle class="cls-2" cx="257.49" cy="277.43" r="35.66"/><path class="cls-3" d="M293.15,277.43a35.65,35.65,0,0,1-60.8,25.28,35.67,35.67,0,0,0,35.39-59.45A35.67,35.67,0,0,1,293.15,277.43Z"/><path class="cls-4" d="M322.21,464.27H192.78a8.73,8.73,0,0,1-8.73-8.73V441.77a8.73,8.73,0,0,1,8.73-8.73H322.21a8.73,8.73,0,0,1,8.73,8.73v13.77A8.73,8.73,0,0,1,322.21,464.27Z"/><path class="cls-5" d="M330.94,441.77v13.77a8.73,8.73,0,0,1-8.72,8.73H304.7a8.73,8.73,0,0,0,8.72-8.73V441.77a8.72,8.72,0,0,0-8.72-8.72h17.52A8.72,8.72,0,0,1,330.94,441.77Z"/><path class="cls-8" d="M208.52,464.27,218,486a9.36,9.36,0,0,0,8.6,5.65h61.87A9.36,9.36,0,0,0,297,486l9.44-21.76Z"/><path class="cls-9" d="M306.47,464.27,297,486a9.37,9.37,0,0,1-8.6,5.65H269a9.37,9.37,0,0,0,8.6-5.65L287,464.27Z"/><path d="M452.17,541.76a6.57,6.57,0,0,0-12.83,2.85,28,28,0,0,1-27.26,34,6.57,6.57,0,1,0,0,13.14,41.11,41.11,0,0,0,41.06-41.07A41.73,41.73,0,0,0,452.17,541.76Z"/><path class="cls-1" d="M257.49,319.66a42.23,42.23,0,1,0-42.23-42.23A42.29,42.29,0,0,0,257.49,319.66Zm0-71.33a29.1,29.1,0,1,1-29.09,29.1A29.13,29.13,0,0,1,257.49,248.33Z"/><path class="cls-1" d="M146.45,401.19h42.24v25.86a15.29,15.29,0,0,0-11.21,14.72v13.77a15.32,15.32,0,0,0,15.3,15.3h11.43l7.72,17.81a15.94,15.94,0,0,0,14.63,9.6h61.87a15.94,15.94,0,0,0,14.63-9.6l7.72-17.81h11.43a15.32,15.32,0,0,0,15.3-15.3V441.77a15.29,15.29,0,0,0-11.21-14.72V401.19h42.25a14.53,14.53,0,0,0,14.51-14.51V357a14.53,14.53,0,0,0-3.52-9.47L326.3,285.72V258.61a134.19,134.19,0,0,0-31.52-86.8h0a181.19,181.19,0,0,0-21.65-21.53,24.31,24.31,0,0,0-31.28,0,181.85,181.85,0,0,0-21.64,21.53,134.19,134.19,0,0,0-31.52,86.8v27.12L170,307.41A6.57,6.57,0,1,0,180,316l8.73-10.12v82.19H146.45a1.37,1.37,0,0,1-1.37-1.37V357a1.35,1.35,0,0,1,.33-.89l14.78-17.15a6.57,6.57,0,0,0-10-8.58l-14.78,17.15a14.57,14.57,0,0,0-3.51,9.47v29.7A14.53,14.53,0,0,0,146.45,401.19Zm223.13-45.1a1.36,1.36,0,0,1,.34.9v29.69a1.37,1.37,0,0,1-1.37,1.37H326.3V305.86ZM291,483.42a2.79,2.79,0,0,1-2.57,1.69H226.56a2.81,2.81,0,0,1-2.58-1.69l-5.45-12.58h77.93ZM230.23,180.31a168.17,168.17,0,0,1,20.07-20,11.17,11.17,0,0,1,14.39,0,168.17,168.17,0,0,1,20.07,20c1.78,2.1,9.07,12.24,9.2,12.43H221C221.21,192.46,228,183,230.23,180.31Zm-28.4,107.81v-29.5a122.4,122.4,0,0,1,11.88-52.74h87.57a122.4,122.4,0,0,1,11.88,52.74V426.48H201.83V288.12ZM190.62,441.77a2.16,2.16,0,0,1,2.16-2.16H322.21a2.16,2.16,0,0,1,2.16,2.16v13.77a2.16,2.16,0,0,1-2.16,2.16H192.78a2.16,2.16,0,0,1-2.16-2.16Z"/><path class="cls-1" d="M114.85,470.28a6.57,6.57,0,0,0,6.57-6.57V424.82a6.57,6.57,0,0,0-13.14,0v38.89A6.57,6.57,0,0,0,114.85,470.28Z"/><path class="cls-1" d="M136.49,424.82v13.72a6.57,6.57,0,0,0,13.14,0V424.82a6.57,6.57,0,0,0-13.14,0Z"/><path class="cls-1" d="M400.14,470.28a6.57,6.57,0,0,0,6.57-6.57V424.82a6.57,6.57,0,1,0-13.14,0v38.89A6.57,6.57,0,0,0,400.14,470.28Z"/><path class="cls-1" d="M365.36,424.82v13.72a6.57,6.57,0,0,0,13.14,0V424.82a6.57,6.57,0,0,0-13.14,0Z"/><path d="M408.67,516.29a6.57,6.57,0,0,0,6,6.6,27.66,27.66,0,0,1,10,2.83A6.57,6.57,0,0,0,430.49,514a41,41,0,0,0-9.13-3.3,33.5,33.5,0,0,0-58.42-16.37,50.69,50.69,0,0,0-63.43,21,39.73,39.73,0,0,0-42,7.5,39.71,39.71,0,0,0-42-7.5,50.69,50.69,0,0,0-63.43-21,33.5,33.5,0,0,0-58.42,16.37,41.07,41.07,0,0,0,9.28,81.07,6.57,6.57,0,1,0,0-13.14,27.92,27.92,0,0,1-2.57-55.72,6.57,6.57,0,0,0,6-6.6v-.15a20.36,20.36,0,0,1,38-10.19,6.58,6.58,0,0,0,8.92,2.41,37.54,37.54,0,0,1,51.11,14,40.05,40.05,0,0,0-9.18,11.94,6.56,6.56,0,0,0,2.93,8.82,6.45,6.45,0,0,0,2.94.7,6.57,6.57,0,0,0,5.87-3.62A26.54,26.54,0,0,1,216,529.91l.21-.12a26.93,26.93,0,0,1,6.44-3,26.51,26.51,0,0,1,29.48,9.66,6.55,6.55,0,0,0,10.79,0,26.62,26.62,0,0,1,30.54-9.35v0a26.17,26.17,0,0,1,5.4,2.69l.2.11a26.56,26.56,0,0,1,9.08,10.26,6.59,6.59,0,0,0,5.88,3.62,6.45,6.45,0,0,0,2.94-.7,6.58,6.58,0,0,0,2.93-8.82,40.05,40.05,0,0,0-9.18-11.94,37.55,37.55,0,0,1,51.1-14,6.57,6.57,0,0,0,8.92-2.4,20.37,20.37,0,0,1,38,10.17Z"/><path class="cls-1" d="M121,552.23A14.49,14.49,0,0,1,113.31,541a6.57,6.57,0,1,0-13.06,1.46,27.63,27.63,0,0,0,14.68,21.41A6.57,6.57,0,1,0,121,552.23Z"/><path class="cls-1" d="M341.83,527.41a6.57,6.57,0,1,0-7,11.11,14.48,14.48,0,0,1,6.72,11.81,6.58,6.58,0,0,0,6.57,6.39h.18a6.57,6.57,0,0,0,6.39-6.75,27.61,27.61,0,0,0-12.85-22.55Z"/></g></g></svg>