<svg height="512" viewBox="0 0 512 512" width="512" xmlns="http://www.w3.org/2000/svg"><g id="flat"><path d="m24 368v32h16v88h32v-24h368v24h32v-88h16v-32zm416 64h-368v-32h368z" fill="#5f4623"/><path d="m183.31 248a11.812 11.812 0 0 1 -2.82 4.49 11.962 11.962 0 0 1 -8.49 3.51h-89l.33-8z" fill="#8f6934"/><path d="m136 368h-96l-8-112h112z" fill="#8f6934"/><path d="m141.66 288.72-2.28 32.01-102.81-.69-2.28-32z" fill="#8f6934"/><path d="m172 232h-85.008a32.014 32.014 0 0 0 -30.992-24 32 32 0 0 0 -32 32v16h148a12 12 0 0 0 0-24z" fill="#8f6934"/><path d="m183.31 248a11.812 11.812 0 0 1 -2.82 4.49 11.962 11.962 0 0 1 -8.49 3.51h-148v-8z" fill="#5f4623"/><path d="m71.991 376a8 8 0 0 1 -7.97-7.43l-8-112a8 8 0 1 1 15.958-1.14l8 112a8 8 0 0 1 -7.409 8.549c-.194.014-.386.021-.579.021z" fill="#5f4623"/><path d="m104.009 376c-.193 0-.385-.007-.579-.021a8 8 0 0 1 -7.409-8.549l8-112a8 8 0 1 1 15.958 1.14l-8 112a8 8 0 0 1 -7.97 7.43z" fill="#5f4623"/><path d="m24 368h464v16h-464z" fill="#8f6934"/><g fill="#8feaff"><path d="m112 208a8 8 0 0 1 -8-8 26.329 26.329 0 0 1 2.381-11.386 8 8 0 1 1 14.5 6.772 10.221 10.221 0 0 0 -.881 4.614 8 8 0 0 1 -8 8z"/><path d="m118.376 176a8 8 0 0 1 -7.254-4.618 23.59 23.59 0 0 0 -1.778-2.948c-2.256-3.381-5.344-8.014-5.344-16.434s3.089-13.055 5.344-16.436c1.768-2.656 2.656-3.987 2.656-7.564a8 8 0 0 1 16 0c0 8.422-3.089 13.055-5.344 16.437-1.768 2.653-2.656 3.984-2.656 7.563s.888 4.91 2.656 7.564a36.932 36.932 0 0 1 2.964 5.054 8 8 0 0 1 -7.244 11.382z"/><path d="m148 208a8 8 0 0 1 -8-8c0-8.423 3.089-13.056 5.344-16.438 1.768-2.654 2.656-3.985 2.656-7.562s-.888-4.91-2.656-7.563c-2.256-3.384-5.344-8.017-5.344-16.437s3.089-13.055 5.344-16.436c1.768-2.656 2.656-3.987 2.656-7.564a8 8 0 0 1 16 0c0 8.422-3.089 13.055-5.344 16.437-1.768 2.653-2.656 3.984-2.656 7.563s.888 4.909 2.656 7.563c2.255 3.38 5.344 8.013 5.344 16.437s-3.088 13.055-5.344 16.438c-1.768 2.652-2.656 3.984-2.656 7.562a8 8 0 0 1 -8 8z"/><path d="m184 208a8 8 0 0 1 -8-8c0-8.423 3.089-13.056 5.344-16.438 1.768-2.654 2.656-3.985 2.656-7.562s-.888-4.91-2.656-7.563a36.995 36.995 0 0 1 -2.962-5.05 8 8 0 1 1 14.5-6.772 23.578 23.578 0 0 0 1.778 2.946c2.251 3.381 5.34 8.014 5.34 16.439s-3.088 13.055-5.344 16.438c-1.768 2.652-2.656 3.984-2.656 7.562a8 8 0 0 1 -8 8z"/><path d="m190.365 144a8 8 0 0 1 -7.243-11.388 10.228 10.228 0 0 0 .878-4.612 8 8 0 0 1 16 0 26.339 26.339 0 0 1 -2.382 11.386 8 8 0 0 1 -7.253 4.614z"/></g><path d="m231 304-5.248 49.985a16 16 0 0 1 -15.877 14.015h-49.875z" fill="#c3a691"/><path d="m306 352-82-40-43.211 50.413a16 16 0 0 1 -12.148 5.587h-56.641l3.139-9.418a28 28 0 0 1 19.773-18.31l17.088-4.272 50.594-63.243a44.652 44.652 0 0 1 34.866-16.757 44.652 44.652 0 0 1 19.968 4.714l54.572 27.286z" fill="#dcc5ab"/><circle cx="295.598" cy="87.598" fill="#b36435" r="47.598"/><circle cx="328" cy="48" fill="#b36435" r="24"/><path d="m416 200-8.243-19.234a60.661 60.661 0 0 0 -55.757-36.766l-16-24-16-24a65.2 65.2 0 0 1 -51.983 9l-4.017-1-8 8 10 31 14-1 16 18 17.333-13 14.667 21v24l-2.343 7.029a43.189 43.189 0 0 0 2.343 32.971z" fill="#e6ccb4"/><path d="m435.844 340.218.5-.7a64.439 64.439 0 0 0 8.34-59.2l-28.684-80.318-96 32a92.907 92.907 0 0 0 34.388 51.791l5.612 4.209h-48l-8 80h77.861a66.333 66.333 0 0 0 53.983-27.782z" fill="#eaeae8"/><path d="m404.8 305.6-30.351-22.764 28.522-11.408a8 8 0 0 0 -5.942-14.856l-40 16a8 8 0 0 0 -5.029 7.428 8 8 0 0 0 -8 8v40a8 8 0 0 0 16 0v-40h.009a7.978 7.978 0 0 0 3.191 6.4l32 24a8 8 0 0 0 9.6-12.8z" fill="#cbcbcb"/><path d="m392 208-9.237-14.678-14.855 23.342z" fill="#c3a691"/><path d="m350.544 190.561-6.544 65.439-88 24h-24l-8 24 16 16 24-16 96.029-13.718a20 20 0 0 0 17.12-18.374l5.614-78.586a16.171 16.171 0 0 0 -16.129-17.322 16.17 16.17 0 0 0 -16.09 14.561z" fill="#e6ccb4"/><path d="m348.712 208.883-12.712 17.784 11.31-3.77z" fill="#c3a691"/><path d="m310.534 302.662-44.588 7.144-19.126 13.326-6.82-3.132 24-16 47.131-6.733z" fill="#c3a691"/><path d="m40 400h32v16h-32z" fill="#48351b"/><path d="m72 448h368v16h-368z" fill="#48351b"/><path d="m440 400h32v16h-32z" fill="#48351b"/><path d="m141.66 288.72-2.28 32.01-102.81-.69-2.28-32z" fill="#fbb540"/></g></svg>