<?xml version="1.0"?>
<svg xmlns="http://www.w3.org/2000/svg" viewBox="0 0 512 512" width="512" height="512"><g id="outline"><path d="M488,360H427.9a74.081,74.081,0,0,0,14.446-15.127l.5-.706a72.557,72.557,0,0,0,9.365-66.541s-28.75-80.47-28.781-80.549-8.328-19.463-8.328-19.463a68.579,68.579,0,0,0-58.736-41.476L343.182,116.35a55.5,55.5,0,0,0,5.811-44.21A31.985,31.985,0,0,0,360,48a32.4,32.4,0,0,0-9.634-22.975A31.257,31.257,0,0,0,327.857,16a32.915,32.915,0,0,0-27.692,16.2c-1.508-.123-3.028-.2-4.567-.2a55.606,55.606,0,0,0-47.333,84.776,7.976,7.976,0,0,0,1.42,1.706l8.7,26.974a8,8,0,0,0,8.183,5.523l10.069-.718,13.382,15.053A8,8,0,0,0,300.8,166.4l10.713-8.035L320,170.518V190.7l-1.934,5.8a50.845,50.845,0,0,0-1.212,28.149,8,8,0,0,0-4.615,9.291,100.7,100.7,0,0,0,7.522,20.378l-37.035,10.1-21.721-10.86a52.647,52.647,0,0,0-64.657,14.2l-48.909,61.135-.637.159L151.449,264H172a20,20,0,0,0,0-40H92.65A39.994,39.994,0,0,0,16,240v16a8,8,0,0,0,8,8h.551l6.857,96H24a8,8,0,0,0-8,8v32a8,8,0,0,0,8,8h8v80a8,8,0,0,0,8,8H72a8,8,0,0,0,8-8V472H432v16a8,8,0,0,0,8,8h32a8,8,0,0,0,8-8V408h8a8,8,0,0,0,8-8V368A8,8,0,0,0,488,360Zm-50.85-76.992a56.549,56.549,0,0,1-7.311,51.854l-.5.706A58.457,58.457,0,0,1,381.893,360H312.84l5.568-55.691L344,300.652V328a8,8,0,0,0,16,0V298.367l1.159-.166a27.525,27.525,0,0,0,5.33-1.334L395.2,318.4a8,8,0,0,0,9.6-12.8l-24.975-18.731a28.007,28.007,0,0,0,3.99-7.78l19.156-7.661a8,8,0,0,0-5.942-14.856L385.948,261,389,218.333l22.176-8.065ZM328.143,32a15.175,15.175,0,0,1,11.011,4.44A16.111,16.111,0,0,1,341.6,56.414a55.93,55.93,0,0,0-24.443-20.061A17.134,17.134,0,0,1,328.143,32Zm-69.8,66.344-.657.657a39.6,39.6,0,1,1,75.2,1.9l-6.226-9.338a8,8,0,0,0-11.094-2.218,57.307,57.307,0,0,1-45.606,7.9l-4.017-1A8.006,8.006,0,0,0,258.343,98.343Zm61.549,44.076a8,8,0,0,0-11.359-1.819l-11.444,8.584-11.11-12.5a7.977,7.977,0,0,0-6.549-2.665l-7.742.552L265.115,114.2l1.34-1.34a73.4,73.4,0,0,0,51.082-6.13l27.807,41.71A8,8,0,0,0,352,152a52.6,52.6,0,0,1,48.4,31.917l4.819,11.242L390.3,200.135l.446-6.242a24.17,24.17,0,0,0-48.158-4.127l-2.718,27.179-7.761,2.586a34.977,34.977,0,0,1,1.14-17.971l2.344-7.03A8,8,0,0,0,336,192V168a8,8,0,0,0-1.441-4.581Zm17.976,94.506-1.281,12.8-1.045.285a84.593,84.593,0,0,1-4.82-10.492l.011,0Zm-3.956,30.118c.022-.006.043-.011.064-.018l12.128-3.307a8,8,0,0,0,5.856-6.922l6.544-65.439a8.17,8.17,0,0,1,16.279,1.4L373.4,212.157l0,.032-4.225,59.148A12.064,12.064,0,0,1,358.9,282.361L262.868,296.08c-1.182.169-21.848,13.626-21.848,13.626l-7.867-7.867L237.766,288H256C256.711,288,333.912,267.043,333.912,267.043Zm-78,51.967,11.02-7.347,35.168-5.024-3.377,33.776Zm41.107,38.442L296.76,360H232.479a23.816,23.816,0,0,0,1.211-5.023l3.434-27.47ZM153.94,343.761A8.006,8.006,0,0,0,158.247,341l50.6-63.243A36.471,36.471,0,0,1,237.46,264a36.851,36.851,0,0,1,16.391,3.869l5.726,2.863L254.929,272H232a8,8,0,0,0-7.59,5.47l-8,24a8,8,0,0,0,.59,6.4l-42.284,49.332A8,8,0,0,1,168.641,360h-45.5a19.9,19.9,0,0,1,13.716-11.967l2.942-.736c.072-.016.142-.035.213-.053Zm66.882-14.838-3.009,24.069A8.012,8.012,0,0,1,209.875,360H193.63Zm-87.75-32.216-1.141,15.971-15.952-.11,1.142-15.973Zm-14.809-16.1,1.186-16.6h15.959l-1.194,16.714Zm12.526,48.068-.327,4.572a35.775,35.775,0,0,0-16.787,11.593l1.162-16.274ZM96,240h76a4,4,0,0,1,0,8H96Zm7.408,24-1.178,16.49-28.475-.2L72.592,264ZM76.041,312.294,74.9,296.3l26.189.183-1.141,15.975Zm22.764,16.158L96.551,360h-17.1l-2.264-31.7ZM32,240a24,24,0,0,1,48,0v8H32Zm26.85,56.188,1.143,16-15.967-.11-1.143-16ZM41.74,280.067,40.592,264H56.551l1.156,16.179Zm19.4,48.126L63.408,360H47.449l-2.28-31.917ZM64,480H48V408H64Zm368-24H80V440H432Zm0-32H80V408H432Zm32,56H448V408h16Zm16-88H32V376H480Z"/><path d="M106.381,188.614A26.329,26.329,0,0,0,104,200a8,8,0,0,0,16,0,10.221,10.221,0,0,1,.877-4.614,8,8,0,1,0-14.5-6.772Z"/><path d="M128,128a8,8,0,0,0-16,0c0,3.577-.888,4.908-2.656,7.562C107.089,138.943,104,143.576,104,152s3.088,13.055,5.344,16.438a23.59,23.59,0,0,1,1.778,2.948,8,8,0,0,0,14.5-6.768,36.932,36.932,0,0,0-2.964-5.054C120.888,156.908,120,155.576,120,152s.888-4.908,2.656-7.561C124.911,141.055,128,136.422,128,128Z"/><path d="M164,128a8,8,0,0,0-16,0c0,3.577-.888,4.908-2.656,7.562C143.089,138.943,140,143.576,140,152s3.088,13.055,5.344,16.438C147.112,171.089,148,172.421,148,176s-.888,4.909-2.656,7.563C143.089,186.944,140,191.577,140,200a8,8,0,0,0,16,0c0-3.578.888-4.91,2.656-7.563C160.912,189.054,164,184.421,164,176s-3.089-13.056-5.344-16.438C156.888,156.907,156,155.576,156,152s.888-4.908,2.656-7.561C160.911,141.055,164,136.422,164,128Z"/><path d="M176,200a8,8,0,0,0,16,0c0-3.578.888-4.91,2.656-7.563C196.912,189.054,200,184.421,200,176s-3.089-13.057-5.344-16.439a23.578,23.578,0,0,1-1.778-2.946,8,8,0,1,0-14.5,6.772,36.995,36.995,0,0,0,2.962,5.05C183.112,171.089,184,172.42,184,176s-.888,4.909-2.656,7.563C179.089,186.944,176,191.577,176,200Z"/><path d="M192,120a8,8,0,0,0-8,8,10.228,10.228,0,0,1-.878,4.614,8,8,0,1,0,14.5,6.772A26.339,26.339,0,0,0,200,128,8,8,0,0,0,192,120Z"/></g></svg>
