<?xml version="1.0" encoding="utf-8"?>
<!-- Generator: Adobe Illustrator 24.3.0, SVG Export Plug-In . SVG Version: 6.00 Build 0)  -->
<svg version="1.1" id="Capa_1" xmlns="http://www.w3.org/2000/svg" xmlns:xlink="http://www.w3.org/1999/xlink" x="0px" y="0px"
	 viewBox="0 0 512 512" style="enable-background:new 0 0 512 512;" xml:space="preserve">
<style type="text/css">
	.st0{fill:#E1E6E9;}
	.st1{fill:#89C5CD;}
	.st2{fill:#3A556A;}
	.st3{fill:#FE7058;}
</style>
<g>
	<path class="st0" d="M411.6,428.4H100.4V199.9L256,108.6l155.6,91.2V428.4z"/>
	<path class="st1" d="M456.1,226.7L256,83.6L55.9,226.7l16.9,23.6L256,121.2l183.3,129.1L456.1,226.7z"/>
	<path class="st2" d="M256,323.9c-23.6,0-42.7,19.1-42.7,42.7v61.8h85.4v-61.8C298.7,343,279.6,323.9,256,323.9L256,323.9z"/>
	<path class="st3" d="M299.2,194.7c-25.1-14-43.2,9.1-43.2,9.1s-18.1-23.1-43.2-9.1c-28.9,16.1-20.3,84.6,43.2,105.9
		C319.5,279.3,328.1,210.8,299.2,194.7z"/>
</g>
</svg>
