<?xml version="1.0" encoding="iso-8859-1"?>
<!-- Generator: Adobe Illustrator 19.0.0, SVG Export Plug-In . SVG Version: 6.00 Build 0)  -->
<svg version="1.1" id="Capa_1" xmlns="http://www.w3.org/2000/svg" xmlns:xlink="http://www.w3.org/1999/xlink" x="0px" y="0px"
	 viewBox="0 0 512.001 512.001" style="enable-background:new 0 0 512.001 512.001;" xml:space="preserve">
<g>
	<polygon style="fill:#F5F5F5;" points="170.191,247.012 116.876,303.349 99.682,371.577 129.828,388.642 177.842,342.744 
		200.337,264.076 	"/>
	<polygon style="fill:#F5F5F5;" points="405.624,365.121 400.78,289.431 358.149,230.086 325.47,241.576 325.47,305.715 
		365.31,354.897 372.943,376.61 	"/>
</g>
<path style="fill:#FFB480;" d="M325.47,241.576l-50.41-5.596l-23.838,20.457v36.441l44.522,127.999c0,0,67.747-29.131,70.656-64.636
	L325.47,241.576z"/>
<path style="fill:#F2A36D;" d="M251.219,292.877l73.022,41.333c8.6,4.868,11.625,15.785,6.757,24.384l0,0
	c-4.868,8.6-15.785,11.625-24.384,6.757c8.6,4.868,11.625,15.785,6.757,24.384l0,0c-4.868,8.6-15.785,11.625-24.384,6.757
	c8.6,4.868,11.625,15.785,6.757,24.384l0,0c-4.868,8.6-15.785,11.625-24.384,6.757c8.6,4.868,11.625,15.785,6.757,24.384l0,0
	c-4.868,8.6-15.785,11.625-24.384,6.757L129.83,388.639l70.509-124.566l19.74,11.174L251.219,292.877z"/>
<polygon style="fill:#DBDBDB;" points="144.517,374.601 104.612,352.013 99.682,371.577 123.199,384.889 129.828,388.642 "/>
<rect x="17.254" y="230.251" transform="matrix(0.4926 -0.8703 0.8703 0.4926 -201.3986 221.0102)" style="fill:#409FFF;" width="143.145" height="105.923"/>
<polygon style="fill:#DBDBDB;" points="397.999,347.368 366.55,358.425 372.943,376.61 405.624,365.121 404.343,345.113 "/>
<polygon style="fill:#EF5350;" points="504.499,329.989 458.076,194.954 358.149,230.086 405.624,365.121 "/>
<polygon style="fill:#D44A47;" points="504.499,329.989 498.23,311.754 399.229,346.931 405.624,365.121 405.624,365.121 "/>
<rect x="5.422" y="327.277" transform="matrix(0.8703 0.4926 -0.4926 0.8703 173.5765 14.962)" style="fill:#3A8FE6;" width="105.923" height="19.455"/>
<path style="fill:#FFB480;" d="M275.059,235.98c-19.024-2.112-37.448,7.441-46.684,24.206l-27.426,49.783
	c-4.768,8.655-1.617,19.537,7.038,24.305l0,0c8.655,4.768,19.537,1.617,24.305-7.038l18.928-34.359L275.059,235.98z"/>
<path style="fill:#D69060;" d="M278.116,452.019c0.221-0.392,0.408-0.792,0.597-1.192c0.032-0.07,0.072-0.137,0.104-0.207
	l-139.405-78.909l-9.583,16.931l35.567,20.132l88.336,50.002c3.225,1.825,6.776,2.541,10.211,2.269
	c0.573-0.045,1.142-0.118,1.706-0.218C270.726,459.93,275.378,456.856,278.116,452.019z"/>
<path d="M461.344,188.204c-1.799-0.871-3.87-0.987-5.755-0.324l-130.992,46.053l-48.709-5.407
	c-22.116-2.455-43.343,8.552-54.081,28.042l-4.637,8.418c0,0-135.412-76.649-135.464-76.678c-3.557-2.013-8.213-0.714-10.221,2.833
	L0.975,315.705c-2.041,3.605-0.772,8.181,2.833,10.222l246.23,139.375c3.941,2.23,8.23,3.29,12.465,3.29
	c8.858,0,17.474-4.636,22.14-12.879c3.433-6.065,4.092-12.957,2.385-19.2c5.642-1.582,10.457-4.986,13.808-9.698
	c5.197-2.378,19.072-9.058,33.352-18.732c14.382-9.743,24.902-19.601,31.506-29.481c0,0,0.174,0.496,0.175,0.497
	c1.356,3.856,5.709,5.94,9.563,4.588l131.579-46.63c3.875-1.377,5.918-5.617,4.582-9.506l-46.423-135.034
	C464.519,190.627,463.143,189.074,461.344,188.204z M126.996,378.421l-17.093-9.675l63.121-111.512l17.093,9.675L126.996,378.421z
	 M80.843,205.056l79.126,44.789l-63.12,111.511l-79.126-44.788L80.843,205.056z M282.937,422.04
	c-2.575,0.714-5.418,0.463-7.883-0.932l-51.733-29.283c-3.604-2.04-8.18-0.772-10.221,2.833c-2.041,3.605-0.772,8.181,2.833,10.222
	l51.734,29.283c4.986,2.823,6.746,9.176,3.924,14.163c-2.823,4.987-9.174,6.748-14.163,3.925l-117.376-66.44l63.121-111.512
	l6.761,3.827c0,0-15.538,28.205-15.55,28.226c-6.662,12.092-2.068,27.85,9.988,34.493c5.94,3.272,12.799,4.036,19.315,2.149
	c6.515-1.886,11.905-6.197,15.178-12.138l15.267-27.713c0,0,66.366,37.566,66.417,37.595c4.911,2.78,6.702,9.256,3.925,14.163
	c-2.823,4.987-9.176,6.748-14.164,3.925l-51.732-29.283c-3.604-2.04-8.181-0.772-10.221,2.833s-0.772,8.181,2.833,10.221
	l51.732,29.283c4.987,2.823,6.748,9.176,3.925,14.163c-2.823,4.987-9.176,6.748-14.164,3.925l-51.732-29.283
	c-3.603-2.04-8.18-0.772-10.221,2.833s-0.772,8.181,2.833,10.221c0,0,51.691,29.259,51.732,29.283
	c4.926,2.788,6.714,9.235,3.925,14.163C287.822,419.647,285.513,421.326,282.937,422.04z M305.232,407.968
	c-0.145-0.874-0.332-1.746-0.569-2.611c6.232-1.75,11.802-5.862,15.235-11.927c3.433-6.065,4.092-12.957,2.384-19.2
	c6.503-1.823,11.915-6.061,15.243-11.941c6.819-12.047,2.424-27.804-9.59-34.606l-73.021-41.333
	c-0.011-0.006-0.022-0.01-0.033-0.017c-0.014-0.008-0.026-0.017-0.04-0.025c-3.448-1.936-8.224-0.579-10.147,2.874
	c-0.01,0.017-0.017,0.035-0.026,0.052c-0.005,0.008-0.01,0.016-0.015,0.024c0,0-18.916,34.337-18.928,34.359
	c-2.733,4.961-9.151,6.824-14.117,4.088c-4.96-2.732-6.821-9.156-4.088-14.117l27.426-49.783
	c7.8-14.158,23.222-22.155,39.287-20.371l45.726,5.076l38.592,109.769C354.599,378.018,325.362,397.359,305.232,407.968z
	 M410.204,355.534c0,0-25.841-73.503-25.853-73.535c-1.303-3.705-5.7-5.948-9.563-4.588c-3.83,1.348-5.938,5.719-4.588,9.563
	l25.861,73.559l-18.53,6.515l-42.466-120.895l18.496-6.502l6.847,19.474c1.374,3.907,5.652,5.962,9.562,4.588
	c3.817-1.341,5.927-5.756,4.589-9.563l-6.847-19.473l85.727-30.139l41.554,120.872L410.204,355.534z"/>
<path d="M263.5,88.536V50.908c0-4.142-3.358-7.5-7.5-7.5c-4.142,0-7.5,3.358-7.5,7.5v37.628c0,4.142,3.358,7.5,7.5,7.5
	C260.142,96.036,263.5,92.678,263.5,88.536z"/>
<path d="M170.348,119.911c1.321,0,2.659-0.349,3.872-1.082c3.545-2.143,4.682-6.753,2.54-10.298l-19.462-32.204
	c-2.143-3.545-6.751-4.682-10.298-2.54c-3.545,2.143-4.682,6.753-2.54,10.298l19.462,32.204
	C165.331,118.621,167.808,119.911,170.348,119.911z"/>
<path d="M105.888,183.787c3.624,1.903,8.226,0.468,10.127-3.153c1.926-3.667,0.514-8.201-3.153-10.127L79.55,153.011
	c-3.667-1.926-8.201-0.514-10.127,3.153c-1.926,3.667-0.514,8.201,3.153,10.127L105.888,183.787z"/>
<path d="M365.002,73.787c-3.547-2.143-8.157-1.005-10.298,2.54l-19.462,32.204c-2.143,3.545-1.005,8.155,2.54,10.298
	c3.502,2.117,8.183,0.96,10.298-2.54l19.462-32.204C369.684,80.54,368.547,75.929,365.002,73.787z"/>
<path d="M432.451,153.011l-33.313,17.496c-3.667,1.926-5.079,6.46-3.153,10.127c1.898,3.614,6.515,5.05,10.128,3.153l33.313-17.495
	c3.667-1.926,5.079-6.46,3.153-10.127C440.652,152.497,436.118,151.086,432.451,153.011z"/>
<g>
</g>
<g>
</g>
<g>
</g>
<g>
</g>
<g>
</g>
<g>
</g>
<g>
</g>
<g>
</g>
<g>
</g>
<g>
</g>
<g>
</g>
<g>
</g>
<g>
</g>
<g>
</g>
<g>
</g>
</svg>
