<?xml version="1.0" encoding="iso-8859-1"?>
<!-- Generator: Adobe Illustrator 19.0.0, SVG Export Plug-In . SVG Version: 6.00 Build 0)  -->
<svg version="1.1" id="Capa_1" xmlns="http://www.w3.org/2000/svg" xmlns:xlink="http://www.w3.org/1999/xlink" x="0px" y="0px"
	 viewBox="0 0 512 512" style="enable-background:new 0 0 512 512;" xml:space="preserve">
<g>
	<g transform="translate(1 1)">
		<rect x="58.733" y="50.2" style="fill:#0377BC;" width="290.133" height="401.067"/>
		<rect x="58.733" y="50.2" style="fill:#02A9F4;" width="264.533" height="401.067"/>
		<g>
			<path style="fill:#6A1B9A;" d="M348.867,24.6v51.2H58.733V24.6C58.761,15.186,66.386,7.561,75.8,7.533h256
				C341.214,7.561,348.839,15.186,348.867,24.6z"/>
			<path style="fill:#6A1B9A;" d="M348.867,425.667V485.4c-0.028,9.414-7.653,17.039-17.067,17.067h-256
				c-9.414-0.028-17.039-7.653-17.067-17.067v-59.733H348.867z"/>
		</g>
		<g>
			<path style="fill:#9D27B0;" d="M323.267,24.6v51.2H58.733V24.6C58.761,15.186,66.386,7.561,75.8,7.533h230.4
				C315.614,7.561,323.239,15.186,323.267,24.6z"/>
			<path style="fill:#9D27B0;" d="M323.267,425.667V485.4c-0.028,9.414-7.653,17.039-17.067,17.067H75.8
				c-9.414-0.028-17.039-7.653-17.067-17.067v-59.733H323.267z"/>
		</g>
		<path style="fill:#607D8B;" d="M212.333,161.133H434.2c9.426,0,17.067,7.641,17.067,17.067v153.6
			c0,9.426-7.641,17.067-17.067,17.067H212.333c-9.426,0-17.067-7.641-17.067-17.067V178.2
			C195.267,168.774,202.908,161.133,212.333,161.133z"/>
		<path style="fill:#CFD8DC;" d="M425.667,178.2v153.6c-0.028,9.414-7.653,17.039-17.067,17.067H212.333
			c-9.397-0.07-16.997-7.67-17.067-17.067V177.773c0.18-6.884,4.492-12.982,10.923-15.445c0.378-0.193,0.78-0.336,1.195-0.427
			c1.598-0.517,3.269-0.777,4.949-0.768H408.6C418.014,161.161,425.639,168.786,425.667,178.2z"/>
		<path style="fill:#424242;" d="M446.232,343.832c-3.161,3.241-7.504,5.059-12.032,5.035l-25.6,0
			c9.414-0.028,17.039-7.653,17.067-17.067v-8.533L446.232,343.832z"/>
		<path style="fill:#9E9E9E;" d="M425.667,323.267v8.533c-0.028,9.414-7.653,17.039-17.067,17.067H212.333
			c-4.528,0.024-8.871-1.793-12.032-5.035L319,225.133l12.8,4.267L425.667,323.267z"/>
		<path style="fill:#424242;" d="M425.667,196.632V178.2c-0.028-9.414-7.653-17.039-17.067-17.067h25.6
			c9.245,0.037,16.795,7.399,17.067,16.64L425.667,196.632z"/>
		<path style="fill:#9E9E9E;" d="M425.667,178.2v18.432l-72.96,53.675l-29.44,21.76l-29.44-21.76l-98.56-72.533
			c0.18-6.884,4.492-12.982,10.923-15.445c0.378-0.193,0.78-0.336,1.195-0.427c1.598-0.517,3.269-0.777,4.949-0.768H408.6
			C418.014,161.161,425.639,168.786,425.667,178.2z"/>
	</g>
	<g>
		<path d="M196.267,460.8c-4.713,0-8.533,3.821-8.533,8.533c0,4.713,3.821,8.533,8.533,8.533h17.067
			c4.713,0,8.533-3.821,8.533-8.533c0-4.713-3.821-8.533-8.533-8.533H196.267z"/>
		<path d="M435.2,153.6h-76.8V128c0-4.713-3.821-8.533-8.533-8.533c-4.713,0-8.533,3.821-8.533,8.533v25.6h-128
			c-14.138,0-25.6,11.462-25.6,25.6v153.6c0,14.138,11.462,25.6,25.6,25.6h128v59.733h-25.6c-4.713,0-8.533,3.82-8.533,8.533
			s3.821,8.533,8.533,8.533h25.6v51.2c0,4.713-3.82,8.533-8.533,8.533h-256c-4.713,0-8.533-3.82-8.533-8.533v-51.2h196.267
			c4.713,0,8.533-3.82,8.533-8.533s-3.82-8.533-8.533-8.533H68.267v-332.8h25.6c4.713,0,8.533-3.82,8.533-8.533
			c0-4.713-3.821-8.533-8.533-8.533h-25.6V25.6c0-4.713,3.821-8.533,8.533-8.533h256c4.713,0,8.533,3.821,8.533,8.533v42.667
			H145.067c-4.713,0-8.533,3.821-8.533,8.533c0,4.713,3.821,8.533,8.533,8.533h204.8c4.713,0,8.533-3.82,8.533-8.533V25.6
			c0-14.138-11.462-25.6-25.6-25.6h-256C62.662,0,51.2,11.462,51.2,25.6v460.8c0,14.138,11.462,25.6,25.6,25.6h256
			c14.138,0,25.6-11.461,25.6-25.6v-128h76.8c14.138,0,25.6-11.462,25.6-25.6V179.2C460.8,165.062,449.339,153.6,435.2,153.6z
			 M443.733,332.8c0,4.713-3.821,8.533-8.533,8.533H213.333c-4.713,0-8.533-3.82-8.533-8.533V179.2c0-4.713,3.82-8.533,8.533-8.533
			H435.2c4.713,0,8.533,3.821,8.533,8.533V332.8z"/>
		<path d="M425.037,199.782c-1.331-1.839-3.34-3.071-5.582-3.425c-2.242-0.354-4.533,0.2-6.365,1.539l-88.823,64.623l-88.849-64.623
			c-2.466-1.793-5.702-2.133-8.487-0.894c-2.786,1.24-4.698,3.871-5.018,6.903c-0.319,3.032,1.003,6.005,3.47,7.797l93.867,68.267
			c0.276,0.155,0.561,0.295,0.853,0.418c0.275,0.16,0.56,0.302,0.853,0.427c1.039,0.484,2.165,0.751,3.311,0.785
			c1.157-0.03,2.296-0.297,3.345-0.785c0.293-0.124,0.578-0.267,0.853-0.427c0.292-0.123,0.577-0.263,0.853-0.418l93.867-68.267
			C426.987,208.922,427.816,203.586,425.037,199.782z"/>
		<path d="M262.767,271.3l-38.4,38.4c-2.218,2.143-3.108,5.315-2.327,8.299c0.781,2.984,3.111,5.314,6.094,6.094
			c2.983,0.781,6.156-0.109,8.299-2.327l38.4-38.4c3.234-3.348,3.188-8.671-0.104-11.962
			C271.438,268.113,266.115,268.066,262.767,271.3z"/>
		<path d="M385.766,271.3c-3.348-3.234-8.671-3.188-11.962,0.104c-3.292,3.292-3.338,8.614-0.104,11.962l38.4,38.4
			c3.348,3.234,8.671,3.188,11.962-0.104c3.292-3.292,3.338-8.614,0.104-11.962L385.766,271.3z"/>
	</g>
</g>
<g>
</g>
<g>
</g>
<g>
</g>
<g>
</g>
<g>
</g>
<g>
</g>
<g>
</g>
<g>
</g>
<g>
</g>
<g>
</g>
<g>
</g>
<g>
</g>
<g>
</g>
<g>
</g>
<g>
</g>
</svg>
