<svg xmlns="http://www.w3.org/2000/svg" viewBox="0 0 666.24 419.99"><defs><style>.cls-1,.cls-3{fill:#e0e0e0;}.cls-1,.cls-11,.cls-13{fill-rule:evenodd;}.cls-2{fill:#fafafa;}.cls-13,.cls-17,.cls-4{fill:#fff;}.cls-5{fill:#f5f5f5;}.cls-6{fill:#ebebeb;}.cls-7{fill:#263238;}.cls-11,.cls-8{fill:#e8a55b;}.cls-9{opacity:0.3;}.cls-10{fill:#455a64;}.cls-12{opacity:0.4;}.cls-14{fill:none;}.cls-15{fill:#b78876;}.cls-16{fill:#aa6550;}.cls-17,.cls-18{opacity:0.6;}.cls-19{opacity:0.5;}.cls-20{fill:#ffbe9d;}.cls-21{fill:#eb996e;}</style></defs><g id="Layer_2" data-name="Layer 2"><g id="Background_Complete" data-name="Background Complete"><path class="cls-1" d="M523.43,248.05a19.91,19.91,0,0,1-5.39.13l-2.79,4.15-7.71-3,.72-4.94a20.83,20.83,0,0,1-3.91-3.72l-4.9,1-3.35-7.56,4-3a20.24,20.24,0,0,1-.14-5.38L495.82,223l3-7.71,4.94.72a20.23,20.23,0,0,1,3.72-3.91l-1-4.9,7.56-3.35,3,4a20.75,20.75,0,0,1,5.39-.13l2.79-4.15,7.71,3-.72,4.95a20.18,20.18,0,0,1,3.9,3.72l4.91-1,3.35,7.56-4,3a19.9,19.9,0,0,1,.13,5.39l4.16,2.78-3,7.72-4.94-.72a20.18,20.18,0,0,1-3.72,3.9l1,4.9-7.56,3.36-3-4Zm.05-11.86a8.87,8.87,0,1,0-11.7-4.51A8.87,8.87,0,0,0,523.48,236.19Z"/><rect class="cls-2" x="79.34" y="350.04" width="148.64" height="60.37"/><path class="cls-3" d="M228,410.42s0-.37,0-1.08,0-1.76,0-3.13c0-2.76,0-6.81,0-12,0-10.42-.05-25.49-.09-44.15l.17.17-148.63.07h0l.23-.24c0,21.14,0,41.55,0,60.38l-.22-.23,106.57.11,30.91.06,8.28,0h2.14l.74,0h-2.83l-8.23,0-30.86.07-106.72.1h-.23v-.22c0-18.83,0-39.24,0-60.38v-.23h.25l148.63.07h.16V350c0,18.7-.07,33.81-.09,44.25,0,5.2,0,9.23,0,12,0,1.36,0,2.39,0,3.1S228,410.42,228,410.42Z"/><path class="cls-3" d="M79.49,358.18c0-.13,33.22-.23,74.19-.23s74.21.1,74.21.23-33.22.24-74.21.24S79.49,358.31,79.49,358.18Z"/><circle class="cls-3" cx="84.63" cy="354.54" r="1.08"/><circle class="cls-3" cx="88.33" cy="354.54" r="1.08"/><path class="cls-3" d="M93.05,354.54A1.08,1.08,0,1,1,92,353.46,1.08,1.08,0,0,1,93.05,354.54Z"/><rect class="cls-3" x="91.97" y="368" width="35.9" height="35.9"/><path class="cls-3" d="M217.69,377.62c0,.13-18.47.23-41.26.23s-41.26-.1-41.26-.23,18.47-.24,41.26-.24S217.69,377.49,217.69,377.62Z"/><path class="cls-3" d="M217.69,384.93c0,.13-18.47.24-41.26.24s-41.26-.11-41.26-.24,18.47-.23,41.26-.23S217.69,384.8,217.69,384.93Z"/><path class="cls-3" d="M188.29,392.25a2.77,2.77,0,0,1-.54,0l-1.55,0-5.69.07-18.78.07L143,392.41l-5.69-.07-1.55,0a2.77,2.77,0,0,1-.54,0,1.73,1.73,0,0,1,.54-.05l1.55-.05,5.69-.07,18.78-.07,18.78.07,5.69.07,1.55.05A1.73,1.73,0,0,1,188.29,392.25Z"/><rect class="cls-4" x="115.35" y="321.71" width="131.31" height="88.72"/><path class="cls-3" d="M246.66,410.42s0-.55,0-1.61,0-2.63,0-4.68c0-4.11,0-10.13-.05-17.84,0-15.42-.06-37.57-.1-64.58l.19.19-131.3,0h0l.23-.23c0,31.6,0,61.66,0,88.71l-.21-.21,94.6.1,27,.06,7.19,0h2.49l-.61,0h-1.84l-7.14,0-27,0-94.74.11h-.22v-.22c0-27.05,0-57.11,0-88.71v-.24h.25l131.3,0h.19v.19c0,27.06-.08,49.25-.1,64.7,0,7.69,0,13.7-.05,17.8,0,2,0,3.58,0,4.64S246.66,410.42,246.66,410.42Z"/><path class="cls-3" d="M115.35,329.62c0-.13,29.37-.23,65.59-.23s65.61.1,65.61.23-29.37.24-65.61.24S115.35,329.75,115.35,329.62Z"/><path class="cls-3" d="M120.53,325.63a1.06,1.06,0,1,1-1.06-1.06A1.06,1.06,0,0,1,120.53,325.63Z"/><ellipse class="cls-3" cx="123.08" cy="325.63" rx="1.05" ry="1.06"/><ellipse class="cls-3" cx="126.63" cy="325.63" rx="1.05" ry="1.06"/><rect class="cls-3" x="126.63" y="338.88" width="35.03" height="35.34"/><path class="cls-3" d="M228.65,348.87c0,.13-13.66.23-30.51.23s-30.51-.1-30.51-.23,13.66-.24,30.51-.24S228.65,348.73,228.65,348.87Z"/><path class="cls-3" d="M228.65,355.43c0,.14-13.66.24-30.51.24s-30.51-.1-30.51-.24,13.66-.23,30.51-.23S228.65,355.3,228.65,355.43Z"/><path class="cls-3" d="M228.65,362c0,.13-13.66.24-30.51.24s-30.51-.11-30.51-.24,13.66-.24,30.51-.24S228.65,361.87,228.65,362Z"/><path class="cls-3" d="M203.69,368.57a8.83,8.83,0,0,1-1.41.09l-3.87.08c-3.26,0-7.77.07-12.75.07s-9.49,0-12.75-.07l-3.86-.08a8.9,8.9,0,0,1-1.42-.09,8.9,8.9,0,0,1,1.42-.09l3.86-.08c3.26,0,7.77-.07,12.75-.07s9.49,0,12.75.07l3.87.08A8.83,8.83,0,0,1,203.69,368.57Z"/><rect class="cls-3" x="128.83" y="386.14" width="16.46" height="16.61"/><rect class="cls-3" x="158.68" y="386.14" width="16.46" height="16.61"/><rect class="cls-3" x="188.53" y="386.14" width="16.46" height="16.61"/><rect class="cls-3" x="218.39" y="386.14" width="16.46" height="16.61"/><path class="cls-1" d="M636.07,239.7a28.33,28.33,0,0,1-7.52.19l-3.88,5.79-10.76-4.15,1-6.9a28.39,28.39,0,0,1-5.45-5.18l-6.83,1.35L598,220.26l5.58-4.16a28.25,28.25,0,0,1-.18-7.51l-5.79-3.88L601.72,194l6.9,1a28.12,28.12,0,0,1,5.18-5.45l-1.35-6.84L623,178l4.16,5.58a28.32,28.32,0,0,1,7.52-.18l3.88-5.79,10.76,4.15-1,6.9a28.34,28.34,0,0,1,5.45,5.17l6.83-1.34L665.26,203l-5.59,4.16a28.25,28.25,0,0,1,.18,7.51l5.79,3.88-4.14,10.76-6.9-1a28.11,28.11,0,0,1-5.18,5.45l1.35,6.83-10.54,4.68-4.16-5.59Zm.08-16.54a12.37,12.37,0,1,0-16.32-6.29A12.37,12.37,0,0,0,636.15,223.16Z"/><path class="cls-1" d="M149.85,82.15a18.71,18.71,0,0,1-5,.12l-2.58,3.86-7.17-2.76.67-4.6a18.8,18.8,0,0,1-3.63-3.45l-4.56.9-3.11-7,3.72-2.77a18.72,18.72,0,0,1-.12-5l-3.86-2.59L127,51.65l4.6.67A19.09,19.09,0,0,1,135,48.69l-.9-4.55,7-3.12,2.77,3.73a18.73,18.73,0,0,1,5-.13l2.59-3.85,7.17,2.76-.67,4.6a18.79,18.79,0,0,1,3.63,3.45l4.55-.9,3.12,7-3.73,2.78a18.72,18.72,0,0,1,.13,5l3.86,2.58-2.77,7.17-4.59-.67a18.86,18.86,0,0,1-3.46,3.63l.9,4.56-7,3.11-2.78-3.72Zm.06-11A8.25,8.25,0,1,0,139,66.93,8.24,8.24,0,0,0,149.91,71.13Z"/><path class="cls-3" d="M107.89,160.26s0-.32,0-.94,0-1.54,0-2.73c0-2.4,0-5.93,0-10.45,0-9,0-22.06-.08-38l.14.14-90.17,0h0l.18-.18c0,18.46,0,36.11,0,52.17l-.17-.17,64.86.09,18.63,0,5,0h0l-4.94,0-18.58,0-65,.08h-.17v-.18c0-16.06,0-33.71,0-52.17v-.19h.2l90.17,0H108v.15c0,16,0,29.08-.07,38.14,0,4.51,0,8,0,10.41,0,1.19,0,2.09,0,2.71S107.89,160.26,107.89,160.26Z"/><path class="cls-3" d="M107.93,114.4c0,.11-20.18.19-45.05.19s-45.06-.08-45.06-.19,20.17-.18,45.06-.18S107.93,114.3,107.93,114.4Z"/><rect class="cls-5" x="25.52" y="123.01" width="27.86" height="27.86"/><path class="cls-3" d="M101.35,127.6a1.2,1.2,0,0,1-.41,0l-1.17,0-4.32.06-14.26.06-14.26-.06-4.32-.06-1.17,0a1.2,1.2,0,0,1-.41,0l.41,0,1.17,0,4.32-.06,14.26,0,14.26,0,4.32.06,1.17,0Z"/><path class="cls-3" d="M102.25,133.82a1.24,1.24,0,0,1-.42,0l-1.2,0-4.42.06-14.57,0-14.57,0-4.42-.06-1.2,0a1.24,1.24,0,0,1-.42,0l.42,0,1.2,0,4.42-.06,14.57-.05,14.57.05,4.42.06,1.2,0Z"/><path class="cls-3" d="M102.25,140.05l-.42,0-1.2,0-4.42.06-14.57,0-14.57,0-4.42-.06-1.2,0-.42,0a1.24,1.24,0,0,1,.42,0l1.2,0,4.42-.06,14.57-.06,14.57.06,4.42.06,1.2,0A1.24,1.24,0,0,1,102.25,140.05Z"/><path class="cls-3" d="M102.25,146.27a1.69,1.69,0,0,1-.42,0l-1.2,0-4.42.06-14.57,0-14.57,0-4.42-.06-1.2,0a1.69,1.69,0,0,1-.42,0,1.69,1.69,0,0,1,.42,0l1.2,0,4.42-.06,14.57,0,14.57,0,4.42.06,1.2,0A1.69,1.69,0,0,1,102.25,146.27Z"/><path class="cls-3" d="M509.24,56.07s0-.22,0-.64,0-1,0-1.84c0-1.62,0-4,0-7.05,0-6.11,0-14.9-.05-25.7l.1.1-60.88,0h0l.13-.13c0,12.47,0,24.38,0,35.23l-.12-.12,43.79.06,12.58,0h3.38l-3.33,0-12.55,0-43.87,0h-.11v-.11c0-10.85,0-22.76,0-35.23v-.12h.13l60.88,0h.09v.09c0,10.83,0,19.64-.05,25.75,0,3,0,5.42,0,7,0,.8,0,1.41,0,1.83S509.24,56.07,509.24,56.07Z"/><path class="cls-3" d="M509.26,25.11c0,.07-13.62.12-30.41.12s-30.42-.05-30.42-.12S462.05,25,478.85,25,509.26,25,509.26,25.11Z"/><rect class="cls-5" x="453.63" y="30.92" width="18.81" height="18.81"/><path class="cls-3" d="M504.82,34a.84.84,0,0,1-.28,0l-.79,0-2.92,0-9.62,0-9.62,0-2.92,0-.79,0a.84.84,0,0,1-.28,0,1,1,0,0,1,.28,0l.79,0,2.92,0,9.62,0,9.62,0,2.92,0,.79,0A1,1,0,0,1,504.82,34Z"/><path class="cls-3" d="M505.43,38.22a.94.94,0,0,1-.29,0l-.81,0-3,0-9.84,0-9.84,0-3,0-.81,0a.9.9,0,0,1-.28,0l.28,0,.81,0,3,0,9.84,0,9.84,0,3,0,.81,0Z"/><path class="cls-3" d="M505.43,42.42l-.29,0-.81,0-3,0-9.84,0-9.84,0-3,0-.81,0-.28,0a.9.9,0,0,1,.28,0l.81,0,3,0,9.84,0,9.84,0,3,0,.81,0A.94.94,0,0,1,505.43,42.42Z"/><path class="cls-3" d="M505.43,46.62a1.11,1.11,0,0,1-.29,0l-.81,0-3,0-9.84,0-9.84,0-3,0-.81,0a1.07,1.07,0,0,1-.28,0,.9.9,0,0,1,.28,0l.81,0,3,0,9.84,0,9.84,0,3,0,.81,0A.94.94,0,0,1,505.43,46.62Z"/><path class="cls-6" d="M601.25,348.7a12,12,0,0,0-6.77,6.44,21.14,21.14,0,0,0-1.65,9.38c.16,6.19,3.1,12.69,6.43,17.92,5.56-4.05,7.43-11.81,8.14-15.81,1.11-6.31-.7-18.41-6.15-17.93"/><path class="cls-6" d="M592.36,392a10.14,10.14,0,0,0-2.43-9.93,13.52,13.52,0,0,0-9.66-4c-1.65,0-3.47.3-4.53,1.57a4.37,4.37,0,0,0-.45,4.39,8.78,8.78,0,0,0,3,3.49c4.23,3.2,8.91,5.52,14.1,4.45"/><path class="cls-3" d="M597.23,406.76a19.94,19.94,0,0,0-.34-4.08,19.4,19.4,0,0,0-1.19-4.32,42.37,42.37,0,0,0-2.25-5,20.35,20.35,0,0,0-6.65-7.33,15,15,0,0,0-2.71-1.34,3.55,3.55,0,0,0-1.07-.27c0,.12,1.46.6,3.5,2a21.93,21.93,0,0,1,6.33,7.26,50.44,50.44,0,0,1,2.25,4.88,20.17,20.17,0,0,1,1.3,4.17A28.63,28.63,0,0,0,597.23,406.76Z"/><path class="cls-3" d="M601.83,358a11.06,11.06,0,0,0-.39,2c-.2,1.32-.47,3.23-.78,5.59-.62,4.72-1.41,11.26-2.1,18.49s-1.13,13.82-1.35,18.58c-.11,2.38-.17,4.3-.19,5.64a11.5,11.5,0,0,0,0,2.07,12.55,12.55,0,0,0,.23-2.06c.11-1.45.25-3.34.41-5.62.35-4.75.86-11.31,1.55-18.54s1.4-13.65,1.89-18.5c.23-2.28.42-4.17.57-5.62A13.23,13.23,0,0,0,601.83,358Z"/><path class="cls-6" d="M600,395.08A23.83,23.83,0,0,1,616.52,381c1.88-.42,4.2-.44,5.3,1.13s.28,3.77-.8,5.36A20.35,20.35,0,0,1,600,395.6"/><path class="cls-3" d="M614.1,386.06a3,3,0,0,0-1.05.27c-.67.21-1.62.57-2.77,1.06a26.89,26.89,0,0,0-8.24,5.29,17.16,17.16,0,0,0-3.19,4.41,16.78,16.78,0,0,0-1.37,4.23,15.73,15.73,0,0,0-.25,3,3,3,0,0,0,.08,1.09c.13,0,.13-1.55.65-3.95a18,18,0,0,1,1.46-4,17.27,17.27,0,0,1,3.11-4.2,30.3,30.3,0,0,1,8-5.35A36.61,36.61,0,0,0,614.1,386.06Z"/></g><g id="Floor"><path class="cls-7" d="M666.24,410.44c0,.14-149.15.26-333.1.26S0,410.58,0,410.44s149.12-.26,333.14-.26S666.24,410.3,666.24,410.44Z"/></g><g id="Plant"><path class="cls-8" d="M48.89,394c.59-2.27-.9-4.54-2.56-6.19s-3.66-3.11-4.53-5.29c-1.4-3.52.49-8.08-1.91-11-1.41-1.73-3.93-2.31-5.18-4.15a9.44,9.44,0,0,1-1.13-3.3,33.57,33.57,0,0,0-8.34-15.6,29.15,29.15,0,0,0,3.27,15c1,1.85,2.17,3.65,2.49,5.71.52,3.35-1.35,6.8-.53,10.09.94,3.76,5.17,6.27,5.37,10.14.17,3.28-2.69,6.15-2.47,9.42a8.83,8.83,0,0,0,1.45,3.88c2.53,4.2,6.25,7.1,11.88,7l6.9.24Z"/><g class="cls-9"><path d="M48.89,394c.59-2.27-.9-4.54-2.56-6.19s-3.66-3.11-4.53-5.29c-1.4-3.52.49-8.08-1.91-11-1.41-1.73-3.93-2.31-5.18-4.15a9.44,9.44,0,0,1-1.13-3.3,33.57,33.57,0,0,0-8.34-15.6,29.15,29.15,0,0,0,3.27,15c1,1.85,2.17,3.65,2.49,5.71.52,3.35-1.35,6.8-.53,10.09.94,3.76,5.17,6.27,5.37,10.14.17,3.28-2.69,6.15-2.47,9.42a8.83,8.83,0,0,0,1.45,3.88c2.53,4.2,6.25,7.1,11.88,7l6.9.24Z"/></g><path class="cls-7" d="M55,410.15a5.63,5.63,0,0,0,1.9,0,11.49,11.49,0,0,0,2.24-.57A9.56,9.56,0,0,0,61.91,408a3.91,3.91,0,0,0,1.14-1.52,6.94,6.94,0,0,0,.32-2.06,21.47,21.47,0,0,1,.16-2.23,6.18,6.18,0,0,1,.85-2.22c.81-1.43,2.16-2.79,2.6-4.73a15.66,15.66,0,0,0-.19-6,12.89,12.89,0,0,1,.16-6.49c.74-2.15,2.25-4.1,3-6.53s.4-5.1.56-7.71a10.42,10.42,0,0,1,.9-3.83c.56-1.22,1.33-2.37,1.94-3.66,1.22-2.6,1.44-5.54,1.77-8.43.17-1.46.33-2.93.5-4.41a21.22,21.22,0,0,1,.77-4.41,37.18,37.18,0,0,1,1.65-4.27,15.91,15.91,0,0,0,.8-2.23c.13-.82.17-1.58.22-2.38a28.24,28.24,0,0,0-.18-4.77c-.19-1.59-.48-3.17-.65-4.77l0-.27,0-.32-.28.14A10.62,10.62,0,0,0,74.18,328a17.24,17.24,0,0,0-2.29,4.21,51.86,51.86,0,0,0-2.14,9,24.57,24.57,0,0,1-2.84,8.35c-.75,1.23-1.67,2.35-2.47,3.55a9.74,9.74,0,0,0-1.71,3.93c-.41,2.92,1.2,5.48.86,8.07a9,9,0,0,1-1.26,3.58c-.62,1.1-1.36,2.12-2.06,3.15a20.39,20.39,0,0,0-1.85,3.18,10.16,10.16,0,0,0-.85,3.46c-.17,2.33.16,4.54,0,6.62a15.19,15.19,0,0,1-1.7,5.67c-.83,1.7-1.76,3.23-2.54,4.72a24.12,24.12,0,0,0-1,2.2,10.2,10.2,0,0,0-.61,2.18,13.78,13.78,0,0,0-.05,3.94,9.92,9.92,0,0,0,2,5,4.94,4.94,0,0,0,.56.61,2.75,2.75,0,0,0,.45.38l.4.28a8.92,8.92,0,0,1-1.34-1.32,10,10,0,0,1-1.87-5,13.45,13.45,0,0,1,.09-3.88,10,10,0,0,1,.61-2.13,23.83,23.83,0,0,1,1-2.17c.78-1.48,1.72-3,2.57-4.71a15.53,15.53,0,0,0,1.77-5.77c.18-2.13-.14-4.35,0-6.62a9.61,9.61,0,0,1,.84-3.34,19.1,19.1,0,0,1,1.83-3.12c.69-1,1.44-2.05,2.08-3.17A9.26,9.26,0,0,0,64,365.2c.33-2.75-1.26-5.34-.85-8.05a9.37,9.37,0,0,1,1.66-3.76c.78-1.18,1.7-2.3,2.48-3.56a24.8,24.8,0,0,0,2.9-8.48,51,51,0,0,1,2.14-9,16.13,16.13,0,0,1,2.22-4.1,10.12,10.12,0,0,1,3.56-3l-.32-.18,0,.28c.17,1.61.46,3.2.65,4.77a28.47,28.47,0,0,1,.18,4.7c0,.77-.09,1.58-.21,2.3a13.64,13.64,0,0,1-.78,2.16A38.72,38.72,0,0,0,76,343.63a21.9,21.9,0,0,0-.78,4.49c-.16,1.48-.32,2.95-.49,4.41-.33,2.9-.54,5.8-1.72,8.31-.58,1.25-1.36,2.4-1.93,3.66a10.71,10.71,0,0,0-.93,4c-.15,2.66.2,5.26-.52,7.62s-2.22,4.31-3,6.53a13,13,0,0,0-.15,6.64,15.41,15.41,0,0,1,.22,5.94c-.39,1.85-1.71,3.19-2.54,4.66a6.35,6.35,0,0,0-.85,2.31,19.93,19.93,0,0,0-.15,2.26,6.66,6.66,0,0,1-.29,2,3.67,3.67,0,0,1-1.07,1.45,9.26,9.26,0,0,1-2.71,1.53,11.43,11.43,0,0,1-2.21.6,7.78,7.78,0,0,1-1.4.13Z"/><path class="cls-7" d="M76.8,328.87s0,.06-.07.2l-.15.62c-.14.55-.3,1.37-.56,2.39s-.89,2.18-1.43,3.61A50.64,50.64,0,0,0,73,340.58c-.53,1.84-1,3.88-1.48,6.07a25.2,25.2,0,0,1-2.21,6.74c-.56,1.12-1.2,2.26-1.71,3.5a16.42,16.42,0,0,0-1,4,77.91,77.91,0,0,1-1.49,8.34c-1.38,5.66-2.7,11-3.9,15.95s-2.33,9.29-3.27,13-1.64,6.67-2.17,8.78c-.24,1-.43,1.81-.56,2.39-.06.25-.1.46-.14.62a.61.61,0,0,0,0,.22.8.8,0,0,0,.07-.21c0-.16.11-.36.18-.61.16-.58.38-1.37.65-2.37.56-2.1,1.34-5.08,2.31-8.74s2.09-8.1,3.36-13S64.11,375,65.5,369.29A76.58,76.58,0,0,0,67,360.91a15.71,15.71,0,0,1,1-3.86c.48-1.21,1.11-2.34,1.68-3.47a25.83,25.83,0,0,0,2.2-6.85c.47-2.19.92-4.23,1.42-6.06s1-3.48,1.57-4.89,1.11-2.59,1.37-3.65.37-1.86.48-2.42l.11-.63C76.8,328.94,76.81,328.87,76.8,328.87Z"/><path class="cls-8" d="M56.22,410.17c4.5-2.68,5.8-10.81,3.92-15.7S55,385.1,54.46,379.88c-.39-4,.92-8.13,0-12.05-1.26-5.29-6.43-9.39-6.37-14.82,0-3.06,1.77-5.93,1.63-9-.17-3.74-3-6.7-4.81-10-2.73-5-2.9-11-3.84-16.65S38,305.67,33,302.89c-.74,4.8-2,8.09-1.61,14.59.15,2.34,2.86,6.81,3.23,11.92.22,3.06.37,6.13.56,9.19a29.33,29.33,0,0,0,1.44,8.8c.82,2.13,2.13,4.07,2.74,6.28,1.14,4.14-.36,8.64.56,12.84.79,3.56,3.25,6.62,3.75,10.24.71,5.07-2.57,10.34-.89,15.18.83,2.4,2.81,4.33,3.37,6.81.43,1.92,0,4,.35,5.89.64,3.11,6.58,5.53,9.75,5.34"/><path class="cls-7" d="M34.21,307.65a1.17,1.17,0,0,0,0,.28c0,.2.06.46.1.78.11.7.22,1.72.46,3s.93,2.82,1.48,4.61,1.14,3.86,1.65,6.17.94,4.87,1.39,7.63a32.36,32.36,0,0,0,2.31,8.62c.64,1.44,1.35,2.88,1.88,4.42a20.41,20.41,0,0,1,1,4.87,96.55,96.55,0,0,0,1.32,10.5c1.38,7.11,2.7,13.88,3.89,20.05s2.4,11.67,3.36,16.33,1.75,8.38,2.3,11c.27,1.28.49,2.28.64,3q.12.48.18.78a.91.91,0,0,0,.08.26s0-.1,0-.27-.08-.46-.14-.79c-.13-.71-.32-1.72-.57-3-.51-2.63-1.25-6.39-2.16-11s-2-10.2-3.26-16.35-2.49-12.94-3.85-20A98.12,98.12,0,0,1,44.88,348a20.56,20.56,0,0,0-1-5c-.55-1.57-1.27-3-1.9-4.44a31.62,31.62,0,0,1-2.32-8.52c-.47-2.75-.92-5.32-1.46-7.64a63,63,0,0,0-1.72-6.17c-.57-1.81-1.27-3.28-1.54-4.57s-.41-2.32-.54-3c-.06-.32-.11-.58-.14-.78A1.23,1.23,0,0,0,34.21,307.65Z"/></g><g id="Speech_Bubble" data-name="Speech Bubble"><path class="cls-7" d="M544.6,91.08a3.26,3.26,0,0,1,0,.39c0,.29,0,.65,0,1.09,0,1,0,2.37.06,4.09,0,3.53.07,8.49.11,14.42l-.22-.23,20,0-.26.26h0v-5.37c0-1.77,0-3.49,0-5.17,0-3.36,0-6.52,0-9.43l.23.22-14.42-.11-4.09-.06-1.09,0-.39,0a1.34,1.34,0,0,1,.34,0l1,0,4-.06,14.57-.12h.22v.23c0,2.91,0,6.07,0,9.43,0,1.68,0,3.4,0,5.17v5.37h0l-.26.26-20,0h-.23v-.22c0-6,.09-11,.12-14.57,0-1.69,0-3,.06-4,0-.43,0-.77,0-1A1.25,1.25,0,0,1,544.6,91.08Z"/><path class="cls-8" d="M568.76,86.61c.33.28-4,6.06-9.6,12.92l-3.37,4-.5.59-.55-.5C550,99.46,546.82,96.3,547,96s3.82,2.47,8.66,6.51l-1.05.09,3.31-4.1C563.59,91.68,568.43,86.34,568.76,86.61Z"/><path class="cls-10" d="M554,70.75a3.8,3.8,0,0,1,.5,0l1.46.05c.32,0,.68,0,1.08,0l1.29.19,1.51.21,1.68.42a27.28,27.28,0,0,1,8.16,3.56,29.19,29.19,0,0,1,8.44,8.22,29.57,29.57,0,0,1,4.79,13.42,30.34,30.34,0,0,1,.08,3.94c-.05.67,0,1.35-.13,2s-.21,1.35-.31,2a28.82,28.82,0,0,1-2.74,8,30.83,30.83,0,0,1-5.25,7.22,30.34,30.34,0,0,1-7.55,5.43,27.35,27.35,0,0,1-9.21,2.82,18.28,18.28,0,0,1-2.46.21,20.49,20.49,0,0,1-2.48,0,29.9,29.9,0,0,1-5-.63A29.06,29.06,0,0,1,538,123.8l.3,0-10.08,4-.6.24.17-.62,3-10.78,0,.27a28.9,28.9,0,0,1-5.38-12.33,26,26,0,0,1-.4-6.31,21.6,21.6,0,0,1,.29-3c.08-.49.15-1,.23-1.48s.24-1,.35-1.42A28.87,28.87,0,0,1,537.12,76a27.77,27.77,0,0,1,6.7-3.53l1.51-.54,1.43-.36,1.31-.33c.42-.08.83-.12,1.21-.18.76-.1,1.43-.23,2-.26l1.48,0,.9,0a1.43,1.43,0,0,1,.31,0,.92.92,0,0,1-.31,0l-.9.08-1.47.1c-.58,0-1.25.19-2,.3a28.68,28.68,0,0,0-22.93,21.27c-.11.47-.26.93-.34,1.41s-.15,1-.22,1.45a19.4,19.4,0,0,0-.27,3,26,26,0,0,0,.41,6.19,28.48,28.48,0,0,0,5.31,12.06l.09.12,0,.14-2.94,10.79-.43-.38L538,123.23l.16-.06.14.09a28.56,28.56,0,0,0,9.68,4.07,29.78,29.78,0,0,0,4.86.62c.82,0,1.63,0,2.43,0a17.27,17.27,0,0,0,2.4-.2,26.85,26.85,0,0,0,9-2.76,29.65,29.65,0,0,0,7.4-5.29,30.19,30.19,0,0,0,5.15-7.05,28.44,28.44,0,0,0,2.71-7.86c.11-.67.21-1.33.31-2s.09-1.33.14-2a28.41,28.41,0,0,0-12.95-25.26,27.51,27.51,0,0,0-8-3.61l-1.67-.45-1.49-.24L557,71c-.39,0-.75-.06-1.07-.08l-1.45-.11A3.3,3.3,0,0,1,554,70.75Z"/></g><g id="Gears"><path class="cls-11" d="M519.3,331.42a32.21,32.21,0,0,1-6.95-4.89l-7.41,2.64-7-11,5.55-5.58a32.07,32.07,0,0,1-1.45-8.37L495,300.85l2.85-12.71,7.87,0a31.91,31.91,0,0,1,4.89-6.94l-2.64-7.42,11-7,5.58,5.56a31.66,31.66,0,0,1,8.36-1.46l3.38-7.11L549,266.63l0,7.87a32.15,32.15,0,0,1,6.94,4.89l7.41-2.64,7,11-5.56,5.58a32.5,32.5,0,0,1,1.46,8.37l7.1,3.37-2.85,12.71-7.87,0a31.57,31.57,0,0,1-4.89,6.94l2.64,7.42-11,7-5.58-5.56A31.66,31.66,0,0,1,535.4,335L532,342.14l-12.71-2.85v-7.87Zm11.2-15a14,14,0,1,0-10.57-16.69A14,14,0,0,0,530.5,316.46Z"/><path class="cls-7" d="M609.18,294.25a6,6,0,0,1-1.91-.6,8.2,8.2,0,0,1-4.6-7.6,8.31,8.31,0,0,1,1.28-4.19,7.85,7.85,0,0,1,1.56-1.81,8.06,8.06,0,0,1,2.11-1.34,8.26,8.26,0,0,1,9.61,2.16,7.61,7.61,0,0,1,1.34,2.11,7.74,7.74,0,0,1,.63,2.3,8.32,8.32,0,0,1-.62,4.34,8.19,8.19,0,0,1-2.3,3,8,8,0,0,1-5.11,1.86,6.31,6.31,0,0,1-2-.27c0-.06.71.14,2,.09a8,8,0,0,0,7.61-9,8,8,0,0,0-1.89-4.17,7.87,7.87,0,0,0-9.09-2,7.13,7.13,0,0,0-2,1.26,7.71,7.71,0,0,0-1.49,1.7,8.09,8.09,0,0,0-1.26,4,8,8,0,0,0,.7,3.59,8.1,8.1,0,0,0,3.6,3.84C608.48,294.07,609.2,294.19,609.18,294.25Z"/><path class="cls-7" d="M602.68,302.92a1.64,1.64,0,0,1,0,.29c0,.21,0,.49,0,.86,0,.8,0,1.94,0,3.42l-.06-.07,7.38,1.61-.13.06L611.9,305l0-.07H612a18.47,18.47,0,0,0,4.81-.85l.09,0,.07.07,3.24,3.21-.2,0,6.37-4.06-.08.21c-.47-1.33-1-2.79-1.54-4.29l0-.11.08-.09a18.06,18.06,0,0,0,2.8-4l.06-.11h4.69l-.21.16c.52-2.32,1.08-4.82,1.65-7.38l.12.25-4.13-2-.12-.06v-.13a18.5,18.5,0,0,0-.84-4.79l0-.13.09-.1,3.22-3.24,0,.28-4-6.38.27.1L624,273l-.14.05-.1-.1a18.35,18.35,0,0,0-4-2.8h0c-.06-.09.12.21-.13-.21h0v-4.55l.18.23-7.37-1.66.26-.13c-.66,1.39-1.32,2.77-2,4.13l-.06.12h-.14a18.36,18.36,0,0,0-4.8.83l-.13,0-.09-.1-3.24-3.22.28,0-6.39,4,.09-.26,1.53,4.31,0,.12-.09.09a18.56,18.56,0,0,0-2.81,4l-.06.11h-4.68l.19-.15c-.59,2.59-1.15,5-1.67,7.37l-.1-.2,4.12,2,.09,0v.1a18.52,18.52,0,0,0,.83,4.81l0,.09-.07.07-3.23,3.22,0-.17,4,6.4-.12,0,4.31-1.5,0,0,0,0a18.77,18.77,0,0,0,2.93,2.26l.78.47.26.16-.27-.12c-.19-.09-.46-.23-.81-.44a17.32,17.32,0,0,1-3-2.22l.07,0-4.29,1.56-.08,0,0-.08c-1.16-1.79-2.5-3.89-4.08-6.36l-.06-.09.08-.08c1-1,2-2.07,3.21-3.25l0,.16a18.24,18.24,0,0,1-.87-4.9l.09.15-4.12-1.95-.13-.06,0-.14,1.64-7.38,0-.15h.16l4.56,0-.18.11a18.68,18.68,0,0,1,2.87-4.07l-.05.21-1.53-4.3-.06-.16.14-.1c2.08-1.31,4.2-2.66,6.38-4.05l.15-.09.13.12c1.06,1.06,2.14,2.14,3.24,3.22l-.23-.05a18.73,18.73,0,0,1,4.91-.86l-.2.13,2-4.12.08-.17.18,0,7.37,1.65.18,0v.19c0,.75,0,1.51,0,2.27v2.28h0c-.25-.41-.06-.11-.12-.2h0a19,19,0,0,1,4.08,2.87l-.24-.05,4.3-1.53.18-.06.1.16,4,6.38.1.15-.13.13L629.21,281l.06-.23a19,19,0,0,1,.85,4.91l-.13-.19,4.12,2,.16.08,0,.17c-.58,2.56-1.14,5.05-1.66,7.37l0,.16H627.8l.18-.1a19.11,19.11,0,0,1-2.87,4.06l0-.19,1.52,4.3.05.14-.13.08-6.39,4-.11.07-.09-.1-3.23-3.23.15,0a18.94,18.94,0,0,1-4.89.84l.12-.08-2,4.11,0,.09-.09,0-7.36-1.7h-.06v-.06q0-2.21,0-3.39c0-.37,0-.66,0-.87S602.68,302.93,602.68,302.92Z"/><path class="cls-11" d="M566.11,259.43a15.82,15.82,0,0,1-3.44-2.43L559,258.31l-3.46-5.46,2.76-2.77a16,16,0,0,1-.73-4.15L554,244.26l1.41-6.31h3.9a15.65,15.65,0,0,1,2.43-3.45l-1.31-3.68,5.46-3.46,2.77,2.76a15.57,15.57,0,0,1,4.15-.72l1.67-3.53,6.31,1.42v3.9a15.89,15.89,0,0,1,3.45,2.43l3.68-1.31,3.46,5.45-2.76,2.77a15.57,15.57,0,0,1,.72,4.15l3.53,1.68-1.42,6.3h-3.9a15.82,15.82,0,0,1-2.43,3.44l1.31,3.68L581,263.25l-2.77-2.76a16,16,0,0,1-4.15.73l-1.68,3.52-6.3-1.41v-3.9Zm5.56-7.42a6.93,6.93,0,1,0-5.25-8.28A6.94,6.94,0,0,0,571.67,252Z"/><g class="cls-12"><path class="cls-13" d="M566.11,259.43a15.82,15.82,0,0,1-3.44-2.43L559,258.31l-3.46-5.46,2.76-2.77a16,16,0,0,1-.73-4.15L554,244.26l1.41-6.31h3.9a15.65,15.65,0,0,1,2.43-3.45l-1.31-3.68,5.46-3.46,2.77,2.76a15.57,15.57,0,0,1,4.15-.72l1.67-3.53,6.31,1.42v3.9a15.89,15.89,0,0,1,3.45,2.43l3.68-1.31,3.46,5.45-2.76,2.77a15.57,15.57,0,0,1,.72,4.15l3.53,1.68-1.42,6.3h-3.9a15.82,15.82,0,0,1-2.43,3.44l1.31,3.68L581,263.25l-2.77-2.76a16,16,0,0,1-4.15.73l-1.68,3.52-6.3-1.41v-3.9Zm5.56-7.42a6.93,6.93,0,1,0-5.25-8.28A6.94,6.94,0,0,0,571.67,252Z"/></g><path class="cls-14" d="M202.46,85.56a14.63,14.63,0,0,1-3.85.1l-2,3-5.51-2.12.52-3.54a13.72,13.72,0,0,1-2.79-2.65l-3.51.69-2.39-5.4,2.86-2.13a14.63,14.63,0,0,1-.09-3.85l-3-2,2.13-5.51,3.53.52a14.29,14.29,0,0,1,2.65-2.79l-.69-3.51,5.4-2.39,2.13,2.86a14.64,14.64,0,0,1,3.85-.09l2-3,5.51,2.13-.51,3.53a14.88,14.88,0,0,1,2.79,2.65l3.5-.69,2.39,5.4-2.86,2.13a14.64,14.64,0,0,1,.1,3.85l3,2-2.12,5.51L212,79.74a14.26,14.26,0,0,1-2.65,2.79L210,86l-5.4,2.39-2.13-2.86Zm0-8.47a6.34,6.34,0,1,0-8.36-3.23A6.34,6.34,0,0,0,202.5,77.09Z"/><path class="cls-8" d="M202.5,77.09a1.25,1.25,0,0,1-.36.19,4.65,4.65,0,0,1-1.12.35,6.29,6.29,0,0,1-4.23-.63,6.55,6.55,0,1,1,9.48-4.2,6.36,6.36,0,0,1-2.37,3.56,5.13,5.13,0,0,1-1,.59,1.39,1.39,0,0,1-.39.14s.5-.26,1.27-.89a6.29,6.29,0,0,0,2.14-3.49,6.14,6.14,0,0,0-1.59-5.63,6,6,0,0,0-3.09-1.72,6.07,6.07,0,0,0-6.57,2.92,6,6,0,0,0-.8,3.44,6.16,6.16,0,0,0,3.11,5,6.27,6.27,0,0,0,4,.75C202,77.28,202.48,77,202.5,77.09Z"/><path class="cls-8" d="M202.46,85.56l.15.17.41.52,1.64,2.12-.1,0,5.38-2.44-.08.14c-.21-1.06-.45-2.23-.71-3.49l0-.09.07-.06a14.8,14.8,0,0,0,2.62-2.77l.06-.09.1,0,3.53.5-.2.12c.67-1.74,1.37-3.59,2.11-5.52l.08.24-3-2-.11-.07v-.13a14.3,14.3,0,0,0-.1-3.79l0-.14.11-.08,2.85-2.14-.07.29c-.75-1.7-1.57-3.53-2.4-5.4l.26.14-3.49.69-.15,0-.1-.11a14.24,14.24,0,0,0-2.74-2.61l-.12-.09,0-.15c.16-1.1.33-2.31.51-3.53l.16.27L203.64,54l.31-.09-2,3-.09.13h-.16a13.69,13.69,0,0,0-3.77.09h0l-.26-.1h0l0,0,0,0-.07-.09-.13-.18-.27-.36-.53-.72-1.07-1.43.32.09-5.4,2.39.14-.28c.24,1.17.47,2.34.69,3.5l0,.15-.12.1a14.34,14.34,0,0,0-2.61,2.73l-.09.13-.15,0-3.53-.52.27-.16L183,67.72l-.09-.29,3,2,.11.08v.14a14.45,14.45,0,0,0,.08,3.78l0,.14-.1.08-2.87,2.13.07-.27c.83,1.91,1.62,3.7,2.38,5.41l-.22-.11,3.5-.68.11,0,.07.08a14.48,14.48,0,0,0,2.75,2.64l.08.06V83c-.2,1.28-.37,2.44-.54,3.53l-.09-.17,5.49,2.16-.13,0,2-3,0,0h.05a15.56,15.56,0,0,0,2.89.07l.71-.06.24,0-.23.06c-.16,0-.39.07-.71.1a13.52,13.52,0,0,1-2.92,0l.08,0-2,3-.05.07-.09,0-5.52-2.09-.12,0,0-.13c.15-1.09.32-2.25.5-3.53l.07.16a14.45,14.45,0,0,1-2.84-2.67l.18.06-3.5.71-.15,0-.07-.15-2.41-5.39-.07-.16.14-.1,2.86-2.14-.09.22a14.25,14.25,0,0,1-.1-3.92l.1.22-3-2-.16-.11.07-.17L184.63,62l.07-.18.2,0,3.53.51-.24.1a14.8,14.8,0,0,1,2.7-2.84l-.09.25q-.35-1.74-.69-3.51l0-.2.19-.08,5.4-2.4.19-.08.12.16L197,55.22l.54.72.27.36.13.18.07.09,0,0,0,0h0c-.5-.21-.14-.06-.25-.11h0a14.71,14.71,0,0,1,3.91-.09l-.24.11,2-3,.11-.17.19.07,5.51,2.13.2.07,0,.2c-.18,1.22-.36,2.43-.52,3.54l-.11-.25a14.71,14.71,0,0,1,2.84,2.71l-.24-.09,3.5-.69.19,0,.08.17,2.39,5.41.07.17-.15.11-2.86,2.12.08-.21a14.35,14.35,0,0,1,.09,3.91l-.09-.21,3,2,.13.09-.06.16c-.75,1.93-1.46,3.77-2.14,5.5l0,.14-.15,0-3.53-.53.16-.07a14.75,14.75,0,0,1-2.69,2.81l0-.15c.24,1.26.47,2.44.67,3.5l0,.11-.1,0-5.41,2.35-.07,0,0-.06L203,86.33l-.39-.56A1.21,1.21,0,0,1,202.46,85.56Z"/><path class="cls-8" d="M202.5,77.09l-.18.07a5,5,0,0,1-.56.19,5.92,5.92,0,0,1-2.26.26,6.36,6.36,0,1,1,2.18-12.47,6.46,6.46,0,0,1,3.1,2,6.44,6.44,0,0,1,.79,7.39,6.84,6.84,0,0,1-1.26,1.63,6.15,6.15,0,0,1-.81.64l-.44.29-.22.13-.11.06,0,0h0l0,0a.26.26,0,0,0,0-.28l-.3-.13a4.08,4.08,0,0,0,.74-.35A6.16,6.16,0,0,0,206,69.87a6.27,6.27,0,0,0-12.28,2.56,6.36,6.36,0,0,0,5.76,5.18,6.46,6.46,0,0,0,2.26-.25c.51-.15.75-.29.76-.27a2.28,2.28,0,0,1-.72.37,5.84,5.84,0,0,1-2.31.35A6.52,6.52,0,0,1,196,76.6a6.63,6.63,0,0,1-2.62-4.1,6.71,6.71,0,1,1,10.08,4.44,4.3,4.3,0,0,1-.87.4l-.2.06-.1-.19c-.09-.17.07-.36,0-.31l0-.05,0,0,.06,0,.11-.07.21-.12.41-.26a6.36,6.36,0,0,0,.75-.6,6,6,0,0,0,1.16-1.5,6,6,0,0,0-3.56-8.64,6,6,0,0,0-5.87,1.55A6.05,6.05,0,0,0,194,72.26a6.12,6.12,0,0,0,2.28,3.88,6.46,6.46,0,0,0,3.22,1.28,6.56,6.56,0,0,0,2.21-.17C202.23,77.14,202.49,77,202.5,77.09Z"/><path class="cls-8" d="M202.46,85.56l2.16,2.9-.07,0L210.06,86l-.06.1c-.21-1.08-.45-2.28-.7-3.57h.21l0,.11-.17-.13A14.18,14.18,0,0,0,212,79.73l.15.19L212,80l0-.24,3.63.53-.15.09,2.21-5.72,0,.18-3.06-2,.23-.2.07.14-.3,0a14.71,14.71,0,0,0-.1-3.84l.32,0-.06.15-.26-.2,3-2.21-.06.22L215,61.26l.2.1-3.63.72,0-.37.17.06-.22.31a14.19,14.19,0,0,0-2.79-2.65l.31-.24.07.17-.39,0c.16-1.11.35-2.38.54-3.67l.13.22-5.79-2.22.26-.08-2.07,3.09-.27-.32.17-.08.07.42a14.68,14.68,0,0,0-3.84.09h0l0-.43h0l-.17.42h0s0,0,0,0h.09l.14-.39,0,0h0l.06,0,.12.05-.26.35-2.22-3,.27.07-5.66,2.52.14-.26.72,3.64-.46,0,.07-.17.37.26a14.65,14.65,0,0,0-2.64,2.78l-.29-.36.17-.07.06.46-3.67-.53L185,62c-.69,1.79-1.44,3.77-2.21,5.77l-.09-.3,3.08,2.06-.37.31-.07-.15.47-.08a15,15,0,0,0,.1,3.82l-.48,0,.06-.15.39.3-3,2.21.08-.31c.79,1.75,1.64,3.67,2.51,5.61l-.29-.15,3.61-.72,0,.49-.12-.05.28-.4a14.84,14.84,0,0,0,2.78,2.62l-.39.31,0-.11.49-.07c-.16,1.14-.33,2.38-.51,3.62l-.17-.28,5.67,2.16-.31.1c.63-1,1.31-2,2-3l.33.37-.06,0-.08-.49a13.34,13.34,0,0,0,3.27-.07l.27,0s0,0,0,0a.08.08,0,0,0,0,0l0,0h0c-.08,0,0,.39.14.34h.09l-.55.05c-.36,0-.74.07-1.12.08a15.07,15.07,0,0,1-2.23-.1l.25-.11-2,3-.29-.39.09,0v.49l-5.5-2.15.31-.37.07.11-.48.09.54-3.6.1.25a14.53,14.53,0,0,1-2.91-2.79l.25.09-3.58.7.07-.48.15.08-.35.33q-1.22-2.73-2.38-5.41l.47,0,0,.18-.4-.27,2.94-2.18-.1.24a14.62,14.62,0,0,1-.09-4.07l.11.24-3-2,.37-.28.06.2-.46,0,2.13-5.5.35.29-.19.11-.08-.45,3.63.54-.23.09a14.65,14.65,0,0,1,2.82-3L191,60c-.25-1.23-.48-2.42-.71-3.6l.44.06-.11.2-.3-.33,5.4-2.38,0,.43-.22-.06.24-.36c.73,1,1.44,1.93,2.13,2.87l-.1-.08.12,0,.06,0h0l-.25.13.09.28h0l.16-.42h-.1a14.41,14.41,0,0,1,4-.08l-.21.1,2-3.06.25.33-.22.07v-.41l5.51,2.13-.25.3-.11-.2.38-.07c-.19,1.29-.36,2.47-.53,3.64l-.08-.19a14.57,14.57,0,0,1,2.94,2.8l-.19-.07,3.6-.71,0,.35-.18-.09.26-.25c.85,1.94,1.63,3.71,2.39,5.4l-.34,0,.06-.19.27.18L214.48,69l.07-.16a14.53,14.53,0,0,1,.1,4l-.07-.15c1.14.77,2.1,1.42,3,2l-.23.18-.06-.17h.29l-2.13,5.51-.19-.16.14-.08.05.25-3.61-.53.12,0a14.28,14.28,0,0,1-2.75,2.89l0-.11c.29,1.49.51,2.57.7,3.57l-.17,0,.05-.1L210,86l-5.4,2.39v-.11l.07,0-.06.09-2.13-2.86a6.35,6.35,0,0,1,.57.67l1.65,2.12.11.13-.17,0h-.07l-.15,0,.15-.07,5.37-2.46.24-.11L210,86l-.06.1-.12.23-.05-.26c-.2-1-.43-2.07-.73-3.55l0-.07.06,0a14.75,14.75,0,0,0,2.68-2.86l0-.06h.08l3.6.5.38.06-.33.19-.14.08-.32.19.13-.35c.63-1.66,1.3-3.43,2.1-5.52l.15-.41.13.41.06.17.13.41-.36-.23-3-2-.08,0v-.1a14.36,14.36,0,0,0-.11-4l0-.1.08-.06,2.93-2.2.4-.3-.12.49-.05.19-.13.49-.21-.46c-.75-1.7-1.54-3.46-2.41-5.39l-.22-.49.48.24.19.1.47.25-.52.1-3.6.72-.12,0-.07-.1a14.43,14.43,0,0,0-2.88-2.72l-.1-.07,0-.12c.17-1.17.34-2.35.52-3.64l.09-.58.3.51.11.19.3.51-.56-.21-5.51-2.12L203,53.9l.58-.19.22-.06.58-.19-.34.51L202,57l-.08.11h-.13a14.16,14.16,0,0,0-3.84.08h-.08l0,0h0l0-.11v0l.08-.21c0-.1,0-.07,0-.07h.06l.09.29-.24.13h-.06l-.06,0-.12,0-.06,0,0-.05-2.14-2.86-.39-.52.63.17.22,0,.63.17-.59.26-5.4,2.4-.61.28.31-.6.1-.2.31-.59.13.65c.23,1.19.47,2.38.71,3.61l0,.14-.11.09A14.34,14.34,0,0,0,188.67,63l-.08.12-.15,0-3.63-.53-.69-.1.6-.35.18-.11.61-.35-.26.65q-1,2.71-2.12,5.51l-.25.66-.22-.67-.06-.2-.22-.68.59.4,3.05,2,.13.09,0,.15a14,14,0,0,0,.09,3.93l0,.15-.13.09-2.94,2.19-.58.43.18-.7.05-.18.19-.71.29.67c.79,1.78,1.58,3.58,2.39,5.4l.29.67-.65-.34-.15-.08-.65-.34.72-.14,3.58-.69.15,0,.1.12a14.4,14.4,0,0,0,2.82,2.69l.12.09,0,.16-.54,3.6-.11.73-.37-.64-.06-.11-.38-.65.69.28,5.51,2.14.68.27-.7.22-.1,0-.71.23.42-.62c.67-1,1.34-2,2-3l.09-.13.15,0a15.48,15.48,0,0,0,2.16.09c.36,0,.72,0,1.08-.07l.57-.06h.14c.09,0,.22.36.14.35h0l-.05,0-.12.07a.73.73,0,0,1-.26.09l-.28,0a13.42,13.42,0,0,1-3.4.06l-1-.09.86-.4.06,0,.83-.39-.5.77-2,3-.11.18-.2-.08-5.66-2.15-.19-.07,0-.21c.17-1.24.35-2.48.51-3.62l.13-.92.37.86,0,.11.36.85-.74-.54a15,15,0,0,1-2.88-2.72l-.58-.72.87.32.13,0,.86.31-.9.18-3.61.72-.2,0-.08-.19-2.5-5.6-.08-.19.16-.12,3-2.21.72-.54-.34.84-.06.15-.34.83-.14-.89a14.65,14.65,0,0,1-.1-4l.09-.9.38.82.07.15.38.81-.74-.5L182.4,67.9l-.16-.11.07-.18,2.22-5.77.07-.18.19,0,3.67.53.86.13-.8.33-.17.08-.79.33.5-.7a15.31,15.31,0,0,1,2.73-2.87l.67-.53-.3.8-.06.17-.29.8-.17-.83c-.25-1.27-.49-2.53-.71-3.65l0-.18.17-.08,5.67-2.5.16-.08.11.15,2.22,3,.48.64-.75-.3-.12,0-.06,0h0l0,0,.14-.39H198l0,0-.1.27v0l-.06.12h0l-.59-.24.61-.18h0a14.64,14.64,0,0,1,3.95-.09l.78.09-.71.33-.18.07-.71.34.44-.66,2.07-3.08.1-.14.16.06,5.77,2.24.16.06,0,.16c-.19,1.29-.37,2.56-.54,3.67l-.11.72-.28-.67-.07-.17-.27-.66.58.42a15.2,15.2,0,0,1,2.85,2.73l.44.55-.66-.24-.16-.06-.66-.25.69-.13,3.63-.71.15,0,.06.13c.87,2,1.72,3.91,2.49,5.65l.05.13-.11.09-3,2.19-.49.37.23-.57.06-.15.23-.56.09.6a14.58,14.58,0,0,1,.08,3.94l-.06.57-.24-.52-.07-.14-.24-.53.48.33,3.05,2.06.1.07,0,.11-2.23,5.7,0,.11-.11,0L211.92,80l-.44-.07.41-.17.11,0,.41-.17-.26.36a14.6,14.6,0,0,1-2.71,2.82l-.31.24.13-.37,0-.1.14-.37.07.39c.25,1.29.47,2.5.68,3.58v.07l-.07,0-5.53,2.38,0,0,0,0L203,86.33l-.39-.57Z"/><path class="cls-8" d="M197.26,42.29a9.37,9.37,0,0,1-2.59.06l-1.34,2-3.71-1.43.35-2.38a9.64,9.64,0,0,1-1.88-1.79l-2.35.47-1.62-3.64,1.93-1.43a9.39,9.39,0,0,1-.06-2.59l-2-1.34,1.43-3.71,2.38.35A9.6,9.6,0,0,1,189.58,25l-.46-2.36L192.75,21l1.44,1.92a9.79,9.79,0,0,1,2.59-.06l1.34-2,3.71,1.43-.35,2.38a9.65,9.65,0,0,1,1.88,1.79l2.36-.47,1.61,3.64-1.92,1.43a10.3,10.3,0,0,1,.06,2.6l2,1.34L206,38.72l-2.38-.35a9.94,9.94,0,0,1-1.79,1.88l.47,2.35-3.64,1.62-1.44-1.93Zm0-5.71a4.26,4.26,0,1,0-5.63-2.17A4.25,4.25,0,0,0,197.29,36.58Z"/><path class="cls-8" d="M197.29,36.58a3.11,3.11,0,0,1-1,.35,4.24,4.24,0,0,1-2.82-.43,4.3,4.3,0,0,1-1.5-1.34A4.35,4.35,0,0,1,191.2,33a3.85,3.85,0,0,1,.09-1.26,4,4,0,0,1,.47-1.22,4.34,4.34,0,0,1,4.74-2.11,4.37,4.37,0,0,1,1.23.48,4.17,4.17,0,0,1,1,.77,4.36,4.36,0,0,1,1.09,2,4.33,4.33,0,0,1-1.59,4.4,3.29,3.29,0,0,1-.93.5,7.28,7.28,0,0,0,.87-.58,4.24,4.24,0,0,0,1.45-4.27,4.09,4.09,0,0,0-1.06-1.92,3.81,3.81,0,0,0-.94-.73,3.87,3.87,0,0,0-1.16-.44,4.13,4.13,0,0,0-4.48,2,3.62,3.62,0,0,0-.45,1.15,4,4,0,0,0-.1,1.19,4.18,4.18,0,0,0,2.13,3.37,4.27,4.27,0,0,0,2.73.5A7.77,7.77,0,0,0,197.29,36.58Z"/><path class="cls-8" d="M197.26,42.29s0,0,.1.11l.28.36c.25.34.62.81,1.09,1.43h0l3.63-1.63,0,.07c-.14-.72-.3-1.51-.47-2.36v0l0,0a9.88,9.88,0,0,0,1.76-1.87l0,0h0l2.38.34-.1,0L207.38,35l0,.12-2-1.34,0,0v-.06a9.72,9.72,0,0,0-.07-2.57V31l.05,0,1.93-1.44,0,.13c-.5-1.14-1-2.37-1.61-3.63l.12.07-2.35.46-.07,0,0-.06a9.51,9.51,0,0,0-1.86-1.76l0,0v-.08c.11-.74.22-1.55.34-2.37l.08.13L198.08,21l.14,0-1.34,2,0,.06h-.07a9.6,9.6,0,0,0-2.56.06h0c-.05,0,.12.05-.12,0h0l0,0-.05-.06-.09-.12-.18-.25-.36-.48-.71-1,.14,0-3.63,1.61.07-.13c.15.79.31,1.58.46,2.35l0,.07-.06.05a9.67,9.67,0,0,0-1.77,1.85l0,.06h-.07l-2.38-.35.13-.07-1.44,3.71,0-.13,2,1.34,0,0v.07a9.51,9.51,0,0,0,.05,2.56v.07l0,0-1.93,1.44,0-.13c.56,1.28,1.09,2.49,1.6,3.64l-.1,0,2.36-.46h0l0,0A9.41,9.41,0,0,0,190,40.48l0,0v0c-.13.87-.24,1.65-.35,2.38l0-.08,3.7,1.45-.06,0,1.35-2v0h0a10.2,10.2,0,0,0,1.95,0l.48-.05h.15l-.15,0c-.11,0-.27,0-.48.07a9.58,9.58,0,0,1-2,0h0c-.37.54-.8,1.2-1.33,2l0,0,0,0L189.6,43l-.06,0v-.06c.11-.74.22-1.52.34-2.38l0,.08a10,10,0,0,1-1.9-1.8l.09,0-2.36.47-.07,0,0-.07L184,35.63l0-.08.06,0c.63-.46,1.27-.94,1.93-1.44l-.05.11a10,10,0,0,1-.06-2.62l0,.1-2-1.34-.08,0,0-.08c.47-1.21.94-2.45,1.43-3.71l0-.09h.1l2.38.35-.12.05a9.91,9.91,0,0,1,1.81-1.91l0,.12c-.16-.78-.31-1.56-.47-2.36l0-.09.09,0,3.64-1.62.08,0,.06.07.72,1,.36.49.18.24.09.12,0,.06,0,0v0h0l-.12-.05h0a10.13,10.13,0,0,1,2.63-.06l-.12.05,1.34-2,0-.09.09,0,3.71,1.43.09,0v.09l-.35,2.38,0-.11a9.39,9.39,0,0,1,1.9,1.81l-.11,0,2.36-.46.09,0,0,.09c.56,1.26,1.11,2.49,1.61,3.63l0,.08-.07.06-1.93,1.43,0-.1a10.08,10.08,0,0,1,.06,2.62l0-.1,2,1.35.06,0,0,.07c-.51,1.3-1,2.54-1.44,3.71l0,.06H206l-2.37-.35.07,0a9.8,9.8,0,0,1-1.8,1.88l0-.07c.17.85.32,1.65.46,2.36v0l0,0-3.64,1.59h0l0,0-1-1.44-.27-.38Z"/><path class="cls-11" d="M242.24,60.85a18.72,18.72,0,0,1-5,.12l-2.59,3.86-7.17-2.76.67-4.6A19.09,19.09,0,0,1,224.51,54l-4.55.9-3.12-7,3.72-2.77a19.14,19.14,0,0,1-.12-5l-3.86-2.59,2.77-7.17,4.59.67a19.15,19.15,0,0,1,3.46-3.63l-.9-4.55,7-3.12,2.78,3.73a18.65,18.65,0,0,1,5-.13l2.59-3.86,7.17,2.77-.67,4.59A18.86,18.86,0,0,1,254,30.28l4.56-.9,3.11,7L258,39.18a18.71,18.71,0,0,1,.12,5L262,46.77l-2.76,7.17-4.6-.67a18.8,18.8,0,0,1-3.45,3.63l.9,4.56-7,3.11-2.77-3.72Zm0-11a8.24,8.24,0,1,0-10.88-4.19A8.23,8.23,0,0,0,242.29,49.82Z"/><g class="cls-12"><path class="cls-4" d="M197.26,42.29a9.37,9.37,0,0,1-2.59.06l-1.34,2-3.71-1.43.35-2.38a9.64,9.64,0,0,1-1.88-1.79l-2.35.47-1.62-3.64,1.93-1.43a9.39,9.39,0,0,1-.06-2.59l-2-1.34,1.43-3.71,2.38.35A9.6,9.6,0,0,1,189.58,25l-.46-2.36L192.75,21l1.44,1.92a9.79,9.79,0,0,1,2.59-.06l1.34-2,3.71,1.43-.35,2.38a9.65,9.65,0,0,1,1.88,1.79l2.36-.47,1.61,3.64-1.92,1.43a10.3,10.3,0,0,1,.06,2.6l2,1.34L206,38.72l-2.38-.35a9.94,9.94,0,0,1-1.79,1.88l.47,2.35-3.64,1.62-1.44-1.93Zm0-5.71a4.26,4.26,0,1,0-5.63-2.17A4.25,4.25,0,0,0,197.29,36.58Z"/><path class="cls-4" d="M197.29,36.58a3.11,3.11,0,0,1-1,.35,4.24,4.24,0,0,1-2.82-.43,4.3,4.3,0,0,1-1.5-1.34A4.35,4.35,0,0,1,191.2,33a3.85,3.85,0,0,1,.09-1.26,4,4,0,0,1,.47-1.22,4.34,4.34,0,0,1,4.74-2.11,4.37,4.37,0,0,1,1.23.48,4.17,4.17,0,0,1,1,.77,4.36,4.36,0,0,1,1.09,2,4.33,4.33,0,0,1-1.59,4.4,3.29,3.29,0,0,1-.93.5,7.28,7.28,0,0,0,.87-.58,4.24,4.24,0,0,0,1.45-4.27,4.09,4.09,0,0,0-1.06-1.92,3.81,3.81,0,0,0-.94-.73,3.87,3.87,0,0,0-1.16-.44,4.13,4.13,0,0,0-4.48,2,3.62,3.62,0,0,0-.45,1.15,4,4,0,0,0-.1,1.19,4.18,4.18,0,0,0,2.13,3.37,4.27,4.27,0,0,0,2.73.5A7.77,7.77,0,0,0,197.29,36.58Z"/><path class="cls-4" d="M197.26,42.29s0,0,.1.11l.28.36c.25.34.62.81,1.09,1.43h0l3.63-1.63,0,.07c-.14-.72-.3-1.51-.47-2.36v0l0,0a9.88,9.88,0,0,0,1.76-1.87l0,0h0l2.38.34-.1,0L207.38,35l0,.12-2-1.34,0,0v-.06a9.72,9.72,0,0,0-.07-2.57V31l.05,0,1.93-1.44,0,.13c-.5-1.14-1-2.37-1.61-3.63l.12.07-2.35.46-.07,0,0-.06a9.51,9.51,0,0,0-1.86-1.76l0,0v-.08c.11-.74.22-1.55.34-2.37l.08.13L198.08,21l.14,0-1.34,2,0,.06h-.07a9.6,9.6,0,0,0-2.56.06h0c-.05,0,.12.05-.12,0h0l0,0-.05-.06-.09-.12-.18-.25-.36-.48-.71-1,.14,0-3.63,1.61.07-.13c.15.79.31,1.58.46,2.35l0,.07-.06.05a9.67,9.67,0,0,0-1.77,1.85l0,.06h-.07l-2.38-.35.13-.07-1.44,3.71,0-.13,2,1.34,0,0v.07a9.51,9.51,0,0,0,.05,2.56v.07l0,0-1.93,1.44,0-.13c.56,1.28,1.09,2.49,1.6,3.64l-.1,0,2.36-.46h0l0,0A9.41,9.41,0,0,0,190,40.48l0,0v0c-.13.87-.24,1.65-.35,2.38l0-.08,3.7,1.45-.06,0,1.35-2v0h0a10.2,10.2,0,0,0,1.95,0l.48-.05h.15l-.15,0c-.11,0-.27,0-.48.07a9.58,9.58,0,0,1-2,0h0c-.37.54-.8,1.2-1.33,2l0,0,0,0L189.6,43l-.06,0v-.06c.11-.74.22-1.52.34-2.38l0,.08a10,10,0,0,1-1.9-1.8l.09,0-2.36.47-.07,0,0-.07L184,35.63l0-.08.06,0c.63-.46,1.27-.94,1.93-1.44l-.05.11a10,10,0,0,1-.06-2.62l0,.1-2-1.34-.08,0,0-.08c.47-1.21.94-2.45,1.43-3.71l0-.09h.1l2.38.35-.12.05a9.91,9.91,0,0,1,1.81-1.91l0,.12c-.16-.78-.31-1.56-.47-2.36l0-.09.09,0,3.64-1.62.08,0,.06.07.72,1,.36.49.18.24.09.12,0,.06,0,0v0h0l-.12-.05h0a10.13,10.13,0,0,1,2.63-.06l-.12.05,1.34-2,0-.09.09,0,3.71,1.43.09,0v.09l-.35,2.38,0-.11a9.39,9.39,0,0,1,1.9,1.81l-.11,0,2.36-.46.09,0,0,.09c.56,1.26,1.11,2.49,1.61,3.63l0,.08-.07.06-1.93,1.43,0-.1a10.08,10.08,0,0,1,.06,2.62l0-.1,2,1.35.06,0,0,.07c-.51,1.3-1,2.54-1.44,3.71l0,.06H206l-2.37-.35.07,0a9.8,9.8,0,0,1-1.8,1.88l0-.07c.17.85.32,1.65.46,2.36v0l0,0-3.64,1.59h0l0,0-1-1.44-.27-.38Z"/></g></g><g id="Character_1" data-name="Character 1"><path class="cls-15" d="M265.85,156.86l1.21-.22s9.5,3.15,9.29,1.3c-.28-2.44-8.92-4.72-9.75-4.77-1.38-.07-9.59.64-10.77,1.23s-8.27,7.25-8.27,7.25l8.53,9.3s2.34.3,5.53-2.3c1.61-1.32,4-3.66,4-3.66s-.09-.68.12-.93c.64-.76.2-1.25.2-1.25a1.58,1.58,0,0,0,1.21-1.22,1.18,1.18,0,0,0-.2-.89c-.54-.52-.78-.44-.78-.44a2.35,2.35,0,0,0,1.56-1.49c.26-1.09-1.32-1.64-1.32-1.64"/><path class="cls-16" d="M276.15,158.37a5,5,0,0,1-2.12.18,11.87,11.87,0,0,1-2.29-.34c-.83-.25-1.73-.56-2.68-.88l-2-.69h.13a29.14,29.14,0,0,1-5.05.59,30.53,30.53,0,0,1,5-1.09h.05l.07,0,2,.66,2.63.91a13.63,13.63,0,0,0,2.2.43C275.34,158.33,276.15,158.29,276.15,158.37Z"/><path class="cls-15" d="M265.2,157.34l-3.13,2.4a3.65,3.65,0,0,0-1,1,1.16,1.16,0,0,0,0,1.28,1.13,1.13,0,0,0,1,.36,3,3,0,0,0,1-.35,34.38,34.38,0,0,0,3.7-2.08"/><path class="cls-16" d="M267.08,159.77a9.48,9.48,0,0,1-1.66,1.23,12.34,12.34,0,0,1-2,1.1,5.51,5.51,0,0,1-1.3.42,2.13,2.13,0,0,1-.79,0,1.09,1.09,0,0,1-.68-.55,1.45,1.45,0,0,1,.26-1.55,7,7,0,0,1,1-.92c.66-.52,1.26-1,1.78-1.34a7.35,7.35,0,0,1,1.77-1.07,14.46,14.46,0,0,1-1.57,1.32l-1.72,1.42a7.49,7.49,0,0,0-.92.86,1.07,1.07,0,0,0-.21,1.08.92.92,0,0,0,1,.34,6,6,0,0,0,1.21-.36,14.65,14.65,0,0,0,1.95-1A9.53,9.53,0,0,1,267.08,159.77Z"/><path class="cls-15" d="M265.94,160.6s1-.91,1.37-.84a1.25,1.25,0,0,1,1.22.91c.18.66-.09.88-1.26,2.13"/><path class="cls-15" d="M265.94,160.6l-2.58,2.09a3,3,0,0,0-.79.83,1,1,0,0,0,0,1.1.88.88,0,0,0,.8.3,2.31,2.31,0,0,0,.84-.31,28.45,28.45,0,0,0,3-1.81"/><path class="cls-16" d="M268.49,161.37a3.73,3.73,0,0,1-1.2,1.57,9.67,9.67,0,0,1-1.75,1.27,10.11,10.11,0,0,1-1.14.58,3.09,3.09,0,0,1-1.41.33,1,1,0,0,1-.75-.41,1.1,1.1,0,0,1-.14-.8,2,2,0,0,1,.77-1.14c.61-.53,1.17-1,1.66-1.35a6.76,6.76,0,0,1,1.66-1.06,13.21,13.21,0,0,1-1.46,1.31c-.45.4-1,.87-1.58,1.41a1.66,1.66,0,0,0-.61.9.53.53,0,0,0,.49.69,3,3,0,0,0,1.2-.29,11.39,11.39,0,0,0,1.11-.53,12.2,12.2,0,0,0,1.74-1.15C268,162,268.43,161.32,268.49,161.37Z"/><path class="cls-15" d="M250.76,163.55a2.26,2.26,0,0,0,2.57.48c.88-.33,1.62-.94,2.47-1.32,2.55-1.16,5.72-.17,8.21-1.45.35-.18.72-.51.62-.88s-.52-.47-.88-.53l-9.14-1.51"/><path class="cls-16" d="M254.61,158.34a3.61,3.61,0,0,1,1,.06l2.71.36,4,.61,1.16.18a1.87,1.87,0,0,1,1.28.53.77.77,0,0,1,0,.88,1.51,1.51,0,0,1-.57.5,6,6,0,0,1-1.27.49,34.42,34.42,0,0,1-5,.45,7,7,0,0,0-2,.5c-.59.26-1.12.61-1.64.89a3.31,3.31,0,0,1-2.73.42c-.65-.26-.8-.67-.78-.66a3,3,0,0,0,.84.46,3.15,3.15,0,0,0,2.49-.55c.49-.28,1-.66,1.64-1a7.32,7.32,0,0,1,2.15-.58,42.71,42.71,0,0,0,4.9-.48,6.18,6.18,0,0,0,1.16-.44c.34-.18.54-.48.41-.63s-.55-.26-.94-.32l-1.16-.2-4-.72-2.68-.52A3.48,3.48,0,0,1,254.61,158.34Z"/><path class="cls-15" d="M266.55,163.47s.72-.67,1-.62a.94.94,0,0,1,.91.68c.13.48-.07.65-.94,1.57"/><path class="cls-15" d="M266.55,163.47,264.64,165a2.24,2.24,0,0,0-.58.61.78.78,0,0,0,0,.82.67.67,0,0,0,.6.22,1.66,1.66,0,0,0,.63-.23,20.52,20.52,0,0,0,2.25-1.34"/><path class="cls-16" d="M268.45,164c.05,0-.19.57-.86,1.2a7.56,7.56,0,0,1-1.3,1,7.49,7.49,0,0,1-.85.43,2.35,2.35,0,0,1-1.07.25.79.79,0,0,1-.6-.33.88.88,0,0,1-.12-.64,1.61,1.61,0,0,1,.59-.87c.47-.37.91-.69,1.27-1,.73-.53,1.2-.84,1.23-.78s-.36.44-1,1l-1.19,1a1.3,1.3,0,0,0-.43.64c0,.25.07.42.32.44a2.21,2.21,0,0,0,.86-.21,8.88,8.88,0,0,0,.82-.39,9,9,0,0,0,1.29-.83C268.07,164.46,268.39,164,268.45,164Z"/><path class="cls-16" d="M259.28,166.72a11.88,11.88,0,0,0-.22-2.11,12,12,0,0,0-1-1.87c0-.12,1,.46,1.43,1.74A2.39,2.39,0,0,1,259.28,166.72Z"/><path class="cls-10" d="M186.11,151.69c-4.4-2.25-8.74-2.76-13.49-2.9-5.52-.16-13.3-.93-19.25-.3,0,0-18.71,1.47-18.79,15.52l3,51.93-3.88,23.12L188,240.7l-.39-27.28c.18,12.24-.42-26.48-.22-36.82.83-7.63,4.47-8.53,5.07-13.49C193,158.72,190.05,153.7,186.11,151.69Z"/><path class="cls-10" d="M174.85,149.15s8.26-.14,13.69,2.52,35.17,20.91,35.17,20.91l22.84-12.66,12.08,11.32-26.2,17.3a18.06,18.06,0,0,1-17.24,1.63l-29.54-11.72Z"/><path class="cls-7" d="M187.39,168.05c.14,0,.28,8.07.31,18s-.06,18-.2,18-.29-8.07-.32-18S187.24,168.05,187.39,168.05Z"/><path class="cls-8" d="M118.09,381.33l-5.15,20.42-8.72,15a2.16,2.16,0,0,0,.91,3h0a2.14,2.14,0,0,0,2,0c3.92-2.12,18.29-10,18.58-11.48.34-1.75,6.86-21.17,6.86-21.17Z"/><path class="cls-17" d="M105.13,419.74l20.93-12.88-.24.86a3.22,3.22,0,0,1-1.3,1.83c-1.71,1.15-6.49,4.25-17.36,10.18a2.15,2.15,0,0,1-2,0Z"/><g class="cls-18"><path class="cls-4" d="M123.71,399.16a1.31,1.31,0,0,0-.8,1.55,1.26,1.26,0,0,0,1.53.81,1.37,1.37,0,0,0,.83-1.65,1.3,1.3,0,0,0-1.68-.66"/></g><path class="cls-7" d="M112.21,412.16a6.49,6.49,0,0,0-1.34-2.08,6.63,6.63,0,0,0-2.21-1.09c0-.05.3-.14.79-.07a3.32,3.32,0,0,1,1.73.82,3.38,3.38,0,0,1,1,1.62C112.32,411.84,112.27,412.15,112.21,412.16Z"/><path class="cls-7" d="M110,414.47c-.12.06-.59-.78-1.56-1.37a18.36,18.36,0,0,0-1.91-.8,2.4,2.4,0,0,1,2.16.41C109.81,413.39,110.14,414.45,110,414.47Z"/><path class="cls-7" d="M115.87,409.42a21.45,21.45,0,0,0-2.26-2.28,20.68,20.68,0,0,0-2.82-1.53,4.72,4.72,0,0,1,3.1,1.16A4.81,4.81,0,0,1,115.87,409.42Z"/><path class="cls-7" d="M118,403.34c-.09.11-1.08-.67-2.52-1.13s-2.7-.42-2.71-.56a4.25,4.25,0,0,1,2.85.12A4.18,4.18,0,0,1,118,403.34Z"/><path class="cls-7" d="M119.61,397.39a10.39,10.39,0,0,0-2.59-1.25,11,11,0,0,0-2.88-.07c0-.05.27-.24.81-.38a4.64,4.64,0,0,1,2.17,0,4.69,4.69,0,0,1,1.94,1C119.48,397.05,119.65,397.35,119.61,397.39Z"/><path class="cls-7" d="M117.37,395a1.72,1.72,0,0,1,.18-.78,5.42,5.42,0,0,1,1.17-1.84,2.46,2.46,0,0,1,1.32-.85.87.87,0,0,1,.89.45,1.39,1.39,0,0,1,.07,1,3,3,0,0,1-3.33,2,3.53,3.53,0,0,1-2.85-2.71,1.22,1.22,0,0,1,.21-1,.86.86,0,0,1,1-.19,3.06,3.06,0,0,1,1.15,1.06,6.44,6.44,0,0,1,1,2,1.83,1.83,0,0,1,.11.79,9.34,9.34,0,0,0-1.32-2.55,2.93,2.93,0,0,0-1-.9.46.46,0,0,0-.54.1.83.83,0,0,0-.1.66,3.13,3.13,0,0,0,2.5,2.32,2.64,2.64,0,0,0,2.85-1.66,1,1,0,0,0,0-.7.48.48,0,0,0-.49-.26,2.25,2.25,0,0,0-1.13.7A7.94,7.94,0,0,0,117.37,395Z"/><path class="cls-8" d="M186.94,384l-1.13,17.15S202.88,406.83,203,410l-33.36.24.68-26.79Z"/><g class="cls-18"><path class="cls-4" d="M175.54,399.41a1.38,1.38,0,0,0-1,1.53,1.32,1.32,0,0,0,1.51,1,1.44,1.44,0,0,0,1-1.62,1.36,1.36,0,0,0-1.68-.86"/></g><g class="cls-18"><path class="cls-4" d="M169.62,410.26l.07-2.7,32.22.89a2.32,2.32,0,0,1,1.24,1.81Z"/></g><path class="cls-7" d="M186.35,401c0,.17-.82.22-1.64.72s-1.26,1.17-1.41,1.1.12-1,1.12-1.59S186.39,400.87,186.35,401Z"/><path class="cls-7" d="M189.81,402.57c0,.15-.69.41-1.26,1.08s-.75,1.4-.92,1.39-.23-.94.5-1.76S189.81,402.41,189.81,402.57Z"/><path class="cls-7" d="M191.66,406.81c-.14,0-.35-.79.1-1.67s1.22-1.21,1.28-1.07-.42.6-.77,1.33S191.83,406.8,191.66,406.81Z"/><path class="cls-7" d="M186.18,397.08c-.07.14-.81-.1-1.74-.07s-1.64.3-1.73.16.63-.7,1.72-.73S186.26,397,186.18,397.08Z"/><path class="cls-7" d="M186.34,393.61a3.07,3.07,0,0,1-1.67-.06,7.54,7.54,0,0,1-1.73-.59,7.43,7.43,0,0,1-.94-.53,2.17,2.17,0,0,1-.49-.41.7.7,0,0,1,0-.87.9.9,0,0,1,.72-.35,2.25,2.25,0,0,1,.63.1,6.77,6.77,0,0,1,1,.39,5.72,5.72,0,0,1,1.51,1.06c.76.74,1,1.35.94,1.38s-.43-.46-1.2-1.08a6.27,6.27,0,0,0-1.46-.88,7.09,7.09,0,0,0-1-.33c-.35-.1-.65-.11-.75,0s0,.08,0,.19a1.67,1.67,0,0,0,.36.3,10.13,10.13,0,0,0,.87.53,10,10,0,0,0,1.59.67A10.65,10.65,0,0,1,186.34,393.61Z"/><path class="cls-7" d="M186.12,393.84a2.78,2.78,0,0,1-.39-1.63,5.32,5.32,0,0,1,.29-1.82,5.51,5.51,0,0,1,.45-1,1.39,1.39,0,0,1,1.09-.81.79.79,0,0,1,.69.49,2.7,2.7,0,0,1,.15.61,3.79,3.79,0,0,1-.8,2.83c-.68.85-1.36,1-1.37,1s.52-.39,1-1.2a3.8,3.8,0,0,0,.58-1.55,3.5,3.5,0,0,0,0-1c0-.35-.17-.64-.3-.61s-.46.25-.6.53a4.9,4.9,0,0,0-.44.89,6,6,0,0,0-.38,1.66C186.06,393.2,186.21,393.82,186.12,393.84Z"/><polygon class="cls-7" points="186.94 235.01 136.13 234.63 111.57 395.92 132.66 398.6 159.69 265.98 167.78 399.07 167.8 399.46 190.61 399.07 186.94 235.01"/><path class="cls-7" d="M181,232.74a8.58,8.58,0,0,1-1.51.57c-1,.34-2.43.76-4.23,1.2a64.23,64.23,0,0,1-6.42,1.18,69.67,69.67,0,0,1-8,.53,67.93,67.93,0,0,1-8-.48,61.85,61.85,0,0,1-6.43-1.15c-1.81-.43-3.26-.84-4.24-1.18a10,10,0,0,1-1.51-.55,8.24,8.24,0,0,1,1.57.36c1,.28,2.45.63,4.26,1s4,.74,6.4,1a74.73,74.73,0,0,0,7.93.44,77,77,0,0,0,7.92-.48c2.42-.31,4.59-.67,6.4-1.07s3.26-.75,4.25-1A10.3,10.3,0,0,1,181,232.74Z"/><path class="cls-7" d="M153.07,116.6a30,30,0,0,1-1.68-5.62,10,10,0,0,1,.62-5.76,6.08,6.08,0,0,1,4.4-3.53c1.2-.18,2.46.08,3.61-.28,1.34-.42,2.27-1.59,3.34-2.5a10.23,10.23,0,0,1,6-2.39,6.06,6.06,0,0,1,3.33.64,3.43,3.43,0,0,1,1.81,2.76,16,16,0,0,1,4.15-.8,5.49,5.49,0,0,1,3.9,1.36,3.32,3.32,0,0,1,.73,3.87,2.72,2.72,0,0,1,3.44,1.15,3.49,3.49,0,0,1-.4,3.75,6.55,6.55,0,0,1-4,2,9.47,9.47,0,0,1-4.11-.31"/><path class="cls-15" d="M163.25,159.81h0a9.86,9.86,0,0,0,10.84-10.08c-.09-3.18-.16-5.9-.14-6.28,0,0,7.92-.86,8.39-8.72s0-26,0-26h0a27.38,27.38,0,0,0-27.64,2.16l-1.21.84.93,38.51A9.86,9.86,0,0,0,163.25,159.81Z"/><path class="cls-16" d="M174,143.33a18.32,18.32,0,0,1-10.12-3.4s2.16,5.78,10,5.44Z"/><path class="cls-15" d="M154,119.93c-.14-.07-5.34-1.86-5.42,3.53s5.35,4.36,5.36,4.21S154,119.93,154,119.93Z"/><path class="cls-16" d="M152.36,125.6s-.09.06-.25.13a.92.92,0,0,1-.7,0,2.34,2.34,0,0,1-1-2.1,3.18,3.18,0,0,1,.29-1.34,1.1,1.1,0,0,1,.71-.71.48.48,0,0,1,.55.26c.07.16,0,.26.07.27s.11-.09.07-.31a.61.61,0,0,0-.2-.34.7.7,0,0,0-.52-.14,1.28,1.28,0,0,0-1,.82,3.12,3.12,0,0,0-.35,1.49,2.45,2.45,0,0,0,1.33,2.35,1,1,0,0,0,.86-.13C152.35,125.73,152.38,125.61,152.36,125.6Z"/><path class="cls-7" d="M182.58,111.17A18.5,18.5,0,0,1,171.13,110c-4-1.73-8.6-2.44-9.56-1.6s-1,4.86-4.76,6.24c0,0,1,11.35-2.07,11.35-2.26,0-2.12-15.89-2.12-15.89l7.28-4,8.08-2,7.64-.41,7.23,1.81Z"/><path class="cls-7" d="M180.45,120.35a1.15,1.15,0,0,1-1.11,1.16,1.1,1.1,0,0,1-1.19-1,1.16,1.16,0,0,1,1.11-1.16A1.11,1.11,0,0,1,180.45,120.35Z"/><path class="cls-7" d="M180.7,119.06c-.15.15-1-.5-2.26-.49s-2.14.62-2.27.47.08-.34.47-.63a3.15,3.15,0,0,1,1.83-.56,3,3,0,0,1,1.79.58C180.64,118.72,180.77,119,180.7,119.06Z"/><path class="cls-7" d="M168.33,120.64a1.15,1.15,0,0,1-1.11,1.16,1.09,1.09,0,0,1-1.19-1,1.17,1.17,0,0,1,1.11-1.17A1.11,1.11,0,0,1,168.33,120.64Z"/><path class="cls-7" d="M168.53,119.29c-.14.15-1-.5-2.25-.49s-2.14.62-2.28.47.08-.34.48-.63a3.22,3.22,0,0,1,1.82-.56,3,3,0,0,1,1.79.58C168.47,119,168.6,119.22,168.53,119.29Z"/><path class="cls-7" d="M173,128.47a8.17,8.17,0,0,1,2-.37c.32,0,.62-.09.67-.31a1.57,1.57,0,0,0-.21-.93c-.3-.77-.61-1.57-.93-2.41a41.17,41.17,0,0,1-2.1-6.29,40.79,40.79,0,0,1,2.6,6.11l.89,2.42a1.83,1.83,0,0,1,.17,1.24.81.81,0,0,1-.52.46,2.28,2.28,0,0,1-.54.07A8.24,8.24,0,0,1,173,128.47Z"/><path class="cls-7" d="M169.38,129.32c.2,0,.2,1.33,1.35,2.29s2.58.8,2.59,1-.31.26-.92.28a3.35,3.35,0,0,1-2.16-.75,3,3,0,0,1-1.05-1.92C169.14,129.65,169.29,129.32,169.38,129.32Z"/><path class="cls-7" d="M168.85,114.44c-.12.34-1.36.18-2.81.35s-2.63.57-2.82.27c-.08-.14.12-.46.59-.79a4.92,4.92,0,0,1,4.29-.47C168.64,114,168.9,114.28,168.85,114.44Z"/><path class="cls-7" d="M180.24,115.48c-.22.28-1.07,0-2.09,0s-1.9.19-2.1-.1,0-.43.43-.69a2.82,2.82,0,0,1,1.7-.46,2.89,2.89,0,0,1,1.68.56C180.22,115.05,180.34,115.34,180.24,115.48Z"/><rect class="cls-4" x="63.87" y="196.01" width="148.64" height="60.37"/><path class="cls-8" d="M212.51,256.38s0-.37,0-1.08,0-1.76,0-3.13c0-2.75,0-6.8,0-12,0-10.42-.05-25.5-.09-44.15l.17.16-148.63.07h0l.23-.23c0,21.14,0,41.55,0,60.37l-.22-.22,106.57.1,30.91.07,8.28,0,2.14,0h.74l-.71,0h-2.12l-8.22,0-30.87.06-106.72.11h-.23v-.23c0-18.82,0-39.23,0-60.37v-.24h.25l148.63.07h.16V196c0,18.7-.07,33.8-.09,44.25,0,5.19,0,9.23,0,12,0,1.36,0,2.4,0,3.11S212.51,256.38,212.51,256.38Z"/><path class="cls-8" d="M64,204.15c0-.13,33.22-.24,74.2-.24s74.2.11,74.2.24-33.22.24-74.2.24S64,204.28,64,204.15Z"/><g class="cls-9"><path class="cls-8" d="M70.24,200.51a1.08,1.08,0,1,1-1.08-1.08A1.08,1.08,0,0,1,70.24,200.51Z"/></g><g class="cls-9"><path class="cls-8" d="M73.94,200.51a1.08,1.08,0,0,1-2.16,0,1.08,1.08,0,0,1,2.16,0Z"/></g><g class="cls-9"><path class="cls-8" d="M77.58,200.51a1.08,1.08,0,1,1-1.08-1.08A1.08,1.08,0,0,1,77.58,200.51Z"/></g><rect class="cls-8" x="76.5" y="213.96" width="35.9" height="35.9"/><g class="cls-19"><rect class="cls-4" x="76.5" y="213.96" width="35.9" height="35.9"/></g><path class="cls-8" d="M202.22,223.58c0,.13-18.47.24-41.26.24s-41.26-.11-41.26-.24,18.47-.23,41.26-.23S202.22,223.45,202.22,223.58Z"/><path class="cls-8" d="M202.22,230.9c0,.13-18.47.23-41.26.23s-41.26-.1-41.26-.23,18.47-.24,41.26-.24S202.22,230.77,202.22,230.9Z"/><path class="cls-8" d="M172.82,238.21a2.24,2.24,0,0,1-.54,0l-1.54,0-5.7.08-18.78.07-18.78-.07-5.69-.08-1.55,0a2.34,2.34,0,0,1-.54,0,3.37,3.37,0,0,1,.54-.05l1.55,0,5.69-.07,18.78-.07,18.78.07,5.7.07,1.54,0A3.18,3.18,0,0,1,172.82,238.21Z"/><path class="cls-10" d="M140.1,153.27s-7.25,3.73-10.47,17.12c-1.58,6.61-8.15,28.11-9.21,40.13-.65,7.47,7.5,14.43,14.92,15.52l.33.05C151.09,229.18,166,225,166,225l-3.1-14.06s-19.7-3.82-22.21-5l7.64-30.22S154,154.56,140.1,153.27Z"/><path class="cls-7" d="M141.89,156.3a.93.93,0,0,1,.27,0c.18,0,.45.07.8.16a8.63,8.63,0,0,1,2.84,1.29,8.5,8.5,0,0,1,3,3.92,16.65,16.65,0,0,1,1,6.53,25.18,25.18,0,0,1-.4,3.85c-.27,1.33-.65,2.66-1,4.07l-2.24,9L140.93,206l-.18-.31c2.31.65,4.76,1.29,7.25,1.91s5.21,1.23,7.76,1.72c1.27.24,2.54.46,3.79.61a18.73,18.73,0,0,1,1.91.28,4.88,4.88,0,0,1,.94.3,1.73,1.73,0,0,1,.81.68,5.9,5.9,0,0,1,.63,1.82l.39,1.79c.25,1.19.46,2.36.67,3.51.41,2.31.8,4.53,1.31,6.63l.06.22-.22.06a73.26,73.26,0,0,1-23.38,1.92,56.31,56.31,0,0,1-8.85-1.31,2.75,2.75,0,0,1,.6.07l1.72.27c1.5.22,3.72.51,6.55.7a74.87,74.87,0,0,0,23.25-2.1l-.17.28c-.53-2.12-.93-4.35-1.35-6.65-.21-1.15-.43-2.32-.67-3.5-.14-.58-.27-1.17-.4-1.77a5.6,5.6,0,0,0-.56-1.66,2.11,2.11,0,0,0-1.45-.77,17.53,17.53,0,0,0-1.85-.26c-1.27-.16-2.55-.38-3.83-.61-2.56-.49-5.16-1.08-7.78-1.72s-5-1.27-7.27-1.93l-.24-.06.06-.25c1.89-7.45,3.68-14.48,5.3-20.83q1.22-4.77,2.3-9c.34-1.4.73-2.76,1-4a24.53,24.53,0,0,0,.42-3.8,16.13,16.13,0,0,0-.91-6.41,8.36,8.36,0,0,0-2.86-3.87,9.45,9.45,0,0,0-2.76-1.35c-.34-.1-.6-.15-.78-.2A.91.91,0,0,1,141.89,156.3Z"/><path class="cls-7" d="M131.21,211.87a3.68,3.68,0,0,1,.54-1.72,8.17,8.17,0,0,1,7.2-4.29,3.75,3.75,0,0,1,1.77.35c0,.09-.69,0-1.76,0a9,9,0,0,0-3.94,1.23,8.81,8.81,0,0,0-3,2.87C131.5,211.24,131.3,211.9,131.21,211.87Z"/><path class="cls-15" d="M163.71,212.19l5.68-.63a31.39,31.39,0,0,1,3.87-5.23c1.54-1.35,9.47-5.15,9.47-5.15a2.2,2.2,0,0,1,0,2.79,34.93,34.93,0,0,1-4.27,2.73h0a2.16,2.16,0,0,0,2.47,2.73c2.32-.42,5-.91,5.38-.91s2.72-2.19,4.43-3.86a1.44,1.44,0,0,1,2.43,1.33.72.72,0,0,1-.2.34s2.45-.08.26,3.21c0,0,.51,3-1.29,4.43,0,0-.77,3.67-1.92,4.93s-12.4,3.67-12.4,3.67l-11.72,1.14Z"/><path class="cls-16" d="M181.93,212.92a7.17,7.17,0,0,0,2,.05,10.7,10.7,0,0,0,4.73-1.25,9.76,9.76,0,0,0,3.29-3.61,6.41,6.41,0,0,0,.86-1.83,10,10,0,0,0-1.17,1.63,11,11,0,0,1-3.25,3.37,11.93,11.93,0,0,1-4.5,1.32A8.51,8.51,0,0,0,181.93,212.92Z"/><path class="cls-16" d="M183.09,215.52a3.75,3.75,0,0,0,1.84.15,14.26,14.26,0,0,0,2-.29,6.2,6.2,0,0,0,2.32-.95,10.53,10.53,0,0,0,1.72-1.77l1.24-1.54a6.65,6.65,0,0,0,1-1.5,6.65,6.65,0,0,0-1.32,1.26c-.38.41-.84.91-1.32,1.47a12.64,12.64,0,0,1-1.68,1.67,6,6,0,0,1-2.12.89,16.65,16.65,0,0,1-1.91.39C183.79,215.47,183.1,215.45,183.09,215.52Z"/><path class="cls-16" d="M184.68,218.42c0,.21,2-.21,4.42-.88A2.06,2.06,0,0,0,190,217a7.14,7.14,0,0,0,.61-.63,9.23,9.23,0,0,0,.87-1.17c.44-.72.56-1.23.49-1.25s-.3.41-.79,1c-.25.32-.56.68-.92,1.06a6.49,6.49,0,0,1-.6.56,1.57,1.57,0,0,1-.66.41c-1.21.33-2.28.67-3.05.92A6.23,6.23,0,0,0,184.68,218.42Z"/></g><g id="Screen"><path class="cls-8" d="M366.83,76.32l.64,0a13.16,13.16,0,0,1,1.88.15,17.37,17.37,0,0,1,6.94,2.4,17.91,17.91,0,0,1,4.23,3.42,18.69,18.69,0,0,1,3.53,5.53,19.23,19.23,0,0,1,1.38,7.52q0,4.11,0,8.73c0,24.68,0,60.38.07,104.5s0,96.65,0,155v27.76a19.69,19.69,0,0,1-.71,5.65,18.75,18.75,0,0,1-2.36,5.22,19.89,19.89,0,0,1-3.86,4.28,18.71,18.71,0,0,1-10.7,4.15c-3.88.12-7.74,0-11.64.06l-23.58,0-48.41,0H247a19.59,19.59,0,0,1-12.06-3.33,19,19,0,0,1-7.34-10.14,20.51,20.51,0,0,1-.77-6.27v-31q0-24.58,0-48.42c0-31.74,0-62.37,0-91.54s0-56.89,0-82.83q0-19.45,0-37.53c0-1.51,0-3,0-4.5,0-.74.06-1.5.1-2.24s.19-1.49.38-2.21a19,19,0,0,1,3.89-7.85,19.26,19.26,0,0,1,6.87-5.13,19.47,19.47,0,0,1,8.24-1.56l16.14,0h11.57a6,6,0,0,1,3.65,1,6.07,6.07,0,0,1,2.26,3,9.71,9.71,0,0,1,.38,3.65v1.81a12.78,12.78,0,0,0,.06,1.76,5.78,5.78,0,0,0,1.38,3.1,5.46,5.46,0,0,0,2.83,1.76,6.2,6.2,0,0,0,1.67.17h8.39l24.42,0,10.77,0c.85,0,1.72,0,2.52,0a5.46,5.46,0,0,0,2.27-.8,5.91,5.91,0,0,0,2.6-3.73,10,10,0,0,0,.14-2.25c0-.75,0-1.49,0-2.22a12,12,0,0,1,.09-2.16,6.24,6.24,0,0,1,.7-2,5.82,5.82,0,0,1,3-2.61,9.36,9.36,0,0,1,3.68-.4l12,0,7.39,0,2.51,0-2.51,0-7.39,0-12,0a9.31,9.31,0,0,0-3.62.39,5.66,5.66,0,0,0-2.86,2.55,6.08,6.08,0,0,0-.68,1.93,12.38,12.38,0,0,0-.08,2.12V85.6a9.91,9.91,0,0,1-.15,2.29,6.07,6.07,0,0,1-2.68,3.87,5.72,5.72,0,0,1-2.35.84c-.86.07-1.69,0-2.55,0H286.37a6.85,6.85,0,0,1-1.74-.17,5.81,5.81,0,0,1-3-1.85,6.22,6.22,0,0,1-1.46-3.27,13.65,13.65,0,0,1-.06-1.8V83.75a9.76,9.76,0,0,0-.36-3.54,5.83,5.83,0,0,0-2.15-2.82,5.58,5.58,0,0,0-3.46-1H246.43A19.17,19.17,0,0,0,238.34,78a18.9,18.9,0,0,0-6.72,5,18.49,18.49,0,0,0-3.81,7.69c-.18.7-.24,1.44-.37,2.16s-.09,1.46-.1,2.2v4.5q0,18.06,0,37.53c0,25.94,0,53.66,0,82.83v91.54q0,23.81,0,48.42v31a19.7,19.7,0,0,0,.75,6.12,18.41,18.41,0,0,0,7.14,9.86A19,19,0,0,0,247,410.11h37.27l48.41,0,23.58,0c3.89,0,7.79.06,11.61-.05a18.24,18.24,0,0,0,10.42-4,19.83,19.83,0,0,0,3.75-4.17,18.21,18.21,0,0,0,2.31-5.08,19.4,19.4,0,0,0,.69-5.52v-5.61q0-11.21,0-22.15c0-58.33.06-110.86.09-155s.08-79.82.1-104.5q0-4.62,0-8.73a18.75,18.75,0,0,0-1.35-7.46,18.36,18.36,0,0,0-3.48-5.5,18.49,18.49,0,0,0-11.08-5.86,15.61,15.61,0,0,0-1.87-.17Z"/><path class="cls-8" d="M367,168.1a12.17,12.17,0,0,1,3.5-.26l-.26.26h0v-.68c0-.22,0-.44,0-.66,0-.42,0-.8.06-1.11,0-.64.11-1,.18-1s.14.39.19,1c0,.31,0,.69,0,1.11,0,.22,0,.44,0,.66v.68h0l-.26.26A12.17,12.17,0,0,1,367,168.1Z"/><path class="cls-8" d="M353.47,168.1a22,22,0,0,1,6.75,0,22,22,0,0,1-6.75,0Z"/><path class="cls-8" d="M340,168.1a22,22,0,0,1,6.75,0,22,22,0,0,1-6.75,0Z"/><path class="cls-8" d="M326.46,168.1a22,22,0,0,1,6.75,0,22,22,0,0,1-6.75,0Z"/><path class="cls-8" d="M313,168.1a22,22,0,0,1,6.75,0,22,22,0,0,1-6.75,0Z"/><path class="cls-8" d="M299.45,168.1a22,22,0,0,1,6.75,0,22,22,0,0,1-6.75,0Z"/><path class="cls-8" d="M285.94,168.1a22,22,0,0,1,6.75,0,22,22,0,0,1-6.75,0Z"/><path class="cls-8" d="M272.43,168.1a22.1,22.1,0,0,1,6.76,0,22.1,22.1,0,0,1-6.76,0Z"/><path class="cls-8" d="M258.93,168.1a22,22,0,0,1,6.75,0,22,22,0,0,1-6.75,0Z"/><path class="cls-8" d="M248.68,164.6a12.17,12.17,0,0,1,.26,3.5c-.52-.52-.15-.14-.26-.26H250q.63,0,1.11.06c.63,0,1,.11,1,.18s-.4.14-1,.18q-.48,0-1.11.06l-.66,0h-.7l-.27-.26A11.56,11.56,0,0,1,248.68,164.6Z"/><path class="cls-8" d="M248.68,150.9a11.71,11.71,0,0,1,.26,3.43,11.61,11.61,0,0,1-.26,3.42,11,11,0,0,1-.27-3.42A11.12,11.12,0,0,1,248.68,150.9Z"/><path class="cls-8" d="M248.68,137.21a11.61,11.61,0,0,1,.26,3.42,11.61,11.61,0,0,1-.26,3.42,11,11,0,0,1-.27-3.42A11,11,0,0,1,248.68,137.21Z"/><path class="cls-8" d="M252.18,126.86a12.17,12.17,0,0,1-3.5.26c.52-.52.14-.15.26-.26h0v1.34q0,.63-.06,1.11c-.05.63-.11,1-.18,1s-.14-.4-.19-1c0-.32,0-.69-.05-1.11l0-.66v-.68h0l.27-.26A11.76,11.76,0,0,1,252.18,126.86Z"/><path class="cls-8" d="M265.68,126.86a22,22,0,0,1-6.75,0,22,22,0,0,1,6.75,0Z"/><path class="cls-8" d="M279.19,126.86a22.1,22.1,0,0,1-6.76,0,22.1,22.1,0,0,1,6.76,0Z"/><path class="cls-8" d="M292.69,126.86a22,22,0,0,1-6.75,0,22,22,0,0,1,6.75,0Z"/><path class="cls-8" d="M306.2,126.86a22,22,0,0,1-6.75,0,22,22,0,0,1,6.75,0Z"/><path class="cls-8" d="M319.7,126.86a22,22,0,0,1-6.75,0,22,22,0,0,1,6.75,0Z"/><path class="cls-8" d="M333.21,126.86a22,22,0,0,1-6.75,0,22,22,0,0,1,6.75,0Z"/><path class="cls-8" d="M346.71,126.86a22,22,0,0,1-6.75,0,22,22,0,0,1,6.75,0Z"/><path class="cls-8" d="M360.22,126.86a22,22,0,0,1-6.75,0,22,22,0,0,1,6.75,0Z"/><path class="cls-8" d="M370.47,130.36a12.17,12.17,0,0,1-.26-3.5c.52.52.15.14.26.26h-1.36L368,127c-.63-.05-1-.11-1-.18s.4-.14,1-.19l1.11,0,.66,0h.7l.26.26A11.76,11.76,0,0,1,370.47,130.36Z"/><path class="cls-8" d="M370.47,144.05a11.61,11.61,0,0,1-.26-3.42,11.61,11.61,0,0,1,.26-3.42,11.22,11.22,0,0,1,.26,3.42A11.22,11.22,0,0,1,370.47,144.05Z"/><path class="cls-8" d="M370.47,157.75a11.61,11.61,0,0,1-.26-3.42,11.71,11.71,0,0,1,.26-3.43,11.31,11.31,0,0,1,.26,3.43A11.22,11.22,0,0,1,370.47,157.75Z"/><rect class="cls-8" x="247.88" y="125.78" width="2.15" height="2.15"/><rect class="cls-8" x="247.6" y="167.03" width="2.15" height="2.15"/><rect class="cls-8" x="308.5" y="167.03" width="2.15" height="2.15"/><rect class="cls-8" x="308.5" y="125.33" width="2.15" height="2.15"/><path class="cls-7" d="M370.42,106.32c0,.08-3.06.17-6.84.2s-6.84,0-6.84-.08,3.06-.17,6.84-.21S370.41,106.24,370.42,106.32Z"/><path class="cls-7" d="M370.44,109.82c0,.08-3.06.17-6.83.2s-6.84,0-6.84-.09,3.06-.17,6.84-.2S370.44,109.74,370.44,109.82Z"/><path class="cls-7" d="M370.47,113.32c0,.08-3.06.17-6.83.2s-6.84,0-6.84-.09,3.06-.17,6.84-.2S370.47,113.24,370.47,113.32Z"/><path class="cls-3" d="M328.65,228.77c0,.13-9.46.24-21.11.24s-21.12-.11-21.12-.24,9.45-.24,21.12-.24S328.65,228.63,328.65,228.77Z"/><path class="cls-7" d="M362.31,237.43c0,.13-17,.24-37.94.24s-37.95-.11-37.95-.24,17-.24,37.95-.24S362.31,237.3,362.31,237.43Z"/><path class="cls-7" d="M361.42,243.62c0,.13-16.79.24-37.5.24s-37.5-.11-37.5-.24,16.79-.24,37.5-.24S361.42,243.49,361.42,243.62Z"/><path class="cls-7" d="M330.7,249.52c0,.14-9.91.24-22.14.24s-22.14-.1-22.14-.24,9.91-.24,22.14-.24S330.7,249.39,330.7,249.52Z"/><path class="cls-3" d="M328.65,323c0,.13-9.46.24-21.11.24s-21.12-.11-21.12-.24,9.45-.24,21.12-.24S328.65,322.83,328.65,323Z"/><path class="cls-7" d="M362.31,331.63c0,.13-17,.24-37.94.24s-37.95-.11-37.95-.24,17-.24,37.95-.24S362.31,331.49,362.31,331.63Z"/><path class="cls-7" d="M361.42,337.82c0,.13-16.79.24-37.5.24s-37.5-.11-37.5-.24,16.79-.24,37.5-.24S361.42,337.68,361.42,337.82Z"/><path class="cls-7" d="M330.7,343.72c0,.13-9.91.24-22.14.24s-22.14-.11-22.14-.24,9.91-.24,22.14-.24S330.7,343.59,330.7,343.72Z"/><path class="cls-8" d="M328.76,186.15c0,.13-9.45.24-21.11.24s-21.11-.11-21.11-.24,9.45-.24,21.11-.24S328.76,186,328.76,186.15Z"/><path class="cls-7" d="M362.43,194.82c0,.13-17,.24-37.95.24s-37.94-.11-37.94-.24,17-.24,37.94-.24S362.43,194.68,362.43,194.82Z"/><path class="cls-7" d="M361.53,201c0,.14-16.79.25-37.49.25s-37.5-.11-37.5-.25,16.78-.24,37.5-.24S361.53,200.87,361.53,201Z"/><path class="cls-7" d="M330.82,206.91c0,.13-9.92.24-22.14.24s-22.14-.11-22.14-.24,9.91-.24,22.14-.24S330.82,206.78,330.82,206.91Z"/><path class="cls-8" d="M268.33,208.73a23.69,23.69,0,0,1,7,0,23.69,23.69,0,0,1-7,0Z"/><path class="cls-8" d="M254.33,208.73a23.69,23.69,0,0,1,7,0,23.69,23.69,0,0,1-7,0Z"/><path class="cls-8" d="M251.74,197.32a23.69,23.69,0,0,1,0,7,23.69,23.69,0,0,1,0-7Z"/><path class="cls-8" d="M253.57,185.14a4.75,4.75,0,0,1-1.83.23l.23-.23c0,.49,0,1.07,0,1.68a11.76,11.76,0,0,1-.26,3.5,12.17,12.17,0,0,1-.26-3.5c0-.61,0-1.19,0-1.68v-.24h.22A5,5,0,0,1,253.57,185.14Z"/><path class="cls-8" d="M267.57,185.14a23.69,23.69,0,0,1-7,0,23.69,23.69,0,0,1,7,0Z"/><path class="cls-8" d="M275.33,191.38a11.76,11.76,0,0,1-.26-3.5c0-1.12,0-2.11.1-2.74l.16.16c-.48,0-.76-.1-.76-.16s.28-.12.76-.16h.14l0,.17c.06.63.1,1.62.1,2.74A12.17,12.17,0,0,1,275.33,191.38Z"/><path class="cls-8" d="M275.33,205.38a23.69,23.69,0,0,1,0-7,23.69,23.69,0,0,1,0,7Z"/><rect class="cls-8" x="273.77" y="207.58" width="2.61" height="2.61"/><rect class="cls-8" x="273.77" y="183.2" width="2.61" height="2.61"/><rect class="cls-8" x="250.44" y="207.58" width="2.61" height="2.61"/><rect class="cls-8" x="250.44" y="183.84" width="2.61" height="2.61"/><path class="cls-3" d="M268.33,252.15a23.69,23.69,0,0,1,7,0,22.82,22.82,0,0,1-7,0Z"/><path class="cls-3" d="M254.33,252.15a23.69,23.69,0,0,1,7,0,22.82,22.82,0,0,1-7,0Z"/><path class="cls-3" d="M251.74,240.74a23.69,23.69,0,0,1,0,7,23.69,23.69,0,0,1,0-7Z"/><path class="cls-3" d="M253.57,228.57a5,5,0,0,1-1.83.23l.23-.23c0,.49,0,1.06,0,1.67a11.71,11.71,0,0,1-.26,3.5,12.12,12.12,0,0,1-.26-3.5c0-.61,0-1.18,0-1.67v-.24h.22A4.75,4.75,0,0,1,253.57,228.57Z"/><path class="cls-3" d="M267.57,228.57a23.69,23.69,0,0,1-7,0,23.69,23.69,0,0,1,7,0Z"/><path class="cls-3" d="M275.33,234.81a11.76,11.76,0,0,1-.26-3.5c0-1.12,0-2.11.1-2.74l.16.16c-.48,0-.76-.1-.76-.16s.28-.12.76-.16l.14,0,0,.18c.06.63.1,1.62.1,2.74A12.17,12.17,0,0,1,275.33,234.81Z"/><path class="cls-3" d="M275.33,248.81a23.69,23.69,0,0,1,0-7,23.69,23.69,0,0,1,0,7Z"/><rect class="cls-3" x="273.77" y="251.01" width="2.61" height="2.61"/><rect class="cls-3" x="273.77" y="226.62" width="2.61" height="2.61"/><rect class="cls-3" x="250.44" y="251.01" width="2.61" height="2.61"/><rect class="cls-3" x="250.44" y="227.26" width="2.61" height="2.61"/><path class="cls-8" d="M268.45,298.14a23.69,23.69,0,0,1,7,0,23.69,23.69,0,0,1-7,0Z"/><path class="cls-8" d="M254.45,298.14a23.69,23.69,0,0,1,7,0,23.69,23.69,0,0,1-7,0Z"/><path class="cls-8" d="M251.87,286.73a23.69,23.69,0,0,1,0,7,23.69,23.69,0,0,1,0-7Z"/><path class="cls-8" d="M253.69,274.56a5.06,5.06,0,0,1-1.82.22l.23-.22c0,.49,0,1.06,0,1.67a12.17,12.17,0,0,1-.26,3.5,11.76,11.76,0,0,1-.26-3.5c0-.61,0-1.18,0-1.67v-.24h.22A4.67,4.67,0,0,1,253.69,274.56Z"/><path class="cls-8" d="M267.69,274.56a23.69,23.69,0,0,1-7,0,23.69,23.69,0,0,1,7,0Z"/><path class="cls-8" d="M275.45,280.8a12.17,12.17,0,0,1-.26-3.5c0-1.12,0-2.11.1-2.74l.16.16c-.48-.05-.76-.1-.76-.16s.28-.12.76-.16l.15,0,0,.18c.06.63.09,1.62.09,2.74A11.76,11.76,0,0,1,275.45,280.8Z"/><path class="cls-8" d="M275.45,294.8a23.69,23.69,0,0,1,0-7,23.69,23.69,0,0,1,0,7Z"/><rect class="cls-8" x="273.9" y="296.99" width="2.61" height="2.61"/><rect class="cls-8" x="273.9" y="272.61" width="2.61" height="2.61"/><rect class="cls-8" x="250.56" y="296.99" width="2.61" height="2.61"/><rect class="cls-8" x="250.56" y="273.25" width="2.61" height="2.61"/><path class="cls-3" d="M268.33,344a23.69,23.69,0,0,1,7,0,23.69,23.69,0,0,1-7,0Z"/><path class="cls-3" d="M254.33,344a23.69,23.69,0,0,1,7,0,23.69,23.69,0,0,1-7,0Z"/><path class="cls-3" d="M251.74,332.59a23.69,23.69,0,0,1,0,7,23.69,23.69,0,0,1,0-7Z"/><path class="cls-3" d="M253.57,320.42a5,5,0,0,1-1.83.23l.23-.23c0,.49,0,1.06,0,1.67a11.71,11.71,0,0,1-.26,3.5,12.12,12.12,0,0,1-.26-3.5c0-.61,0-1.18,0-1.67v-.24h.22A5,5,0,0,1,253.57,320.42Z"/><path class="cls-3" d="M267.57,320.42a23.69,23.69,0,0,1-7,0,23.69,23.69,0,0,1,7,0Z"/><path class="cls-3" d="M275.33,326.66a11.76,11.76,0,0,1-.26-3.5c0-1.12,0-2.11.1-2.74l.16.16c-.48,0-.76-.1-.76-.16s.28-.12.76-.16h.14l0,.17c.06.63.1,1.62.1,2.74A12.17,12.17,0,0,1,275.33,326.66Z"/><path class="cls-3" d="M275.33,340.66a23.69,23.69,0,0,1,0-7,23.69,23.69,0,0,1,0,7Z"/><rect class="cls-3" x="273.77" y="342.86" width="2.61" height="2.61"/><rect class="cls-3" x="273.77" y="318.47" width="2.61" height="2.61"/><rect class="cls-3" x="250.44" y="342.86" width="2.61" height="2.61"/><rect class="cls-3" x="250.44" y="319.11" width="2.61" height="2.61"/><path class="cls-8" d="M268.33,391.47a23.69,23.69,0,0,1,7,0,23.69,23.69,0,0,1-7,0Z"/><path class="cls-8" d="M254.33,391.47a23.69,23.69,0,0,1,7,0,23.69,23.69,0,0,1-7,0Z"/><path class="cls-8" d="M251.74,380.05a23.69,23.69,0,0,1,0,7,23.69,23.69,0,0,1,0-7Z"/><path class="cls-8" d="M253.57,367.88a5,5,0,0,1-1.83.23l.23-.23c0,.49,0,1.06,0,1.67a11.71,11.71,0,0,1-.26,3.5,12.12,12.12,0,0,1-.26-3.5c0-.61,0-1.18,0-1.67v-.24h.22A5,5,0,0,1,253.57,367.88Z"/><path class="cls-8" d="M267.57,367.88a23.69,23.69,0,0,1-7,0,23.69,23.69,0,0,1,7,0Z"/><path class="cls-8" d="M275.33,374.12a11.76,11.76,0,0,1-.26-3.5c0-1.12,0-2.11.1-2.74l.16.16c-.48,0-.76-.1-.76-.16s.28-.12.76-.16h.14l0,.17c.06.63.1,1.62.1,2.74A12.17,12.17,0,0,1,275.33,374.12Z"/><path class="cls-8" d="M275.33,388.12a23.69,23.69,0,0,1,0-7,23.69,23.69,0,0,1,0,7Z"/><rect class="cls-8" x="273.77" y="390.32" width="2.61" height="2.61"/><rect class="cls-8" x="273.77" y="365.93" width="2.61" height="2.61"/><rect class="cls-8" x="250.44" y="390.32" width="2.61" height="2.61"/><rect class="cls-8" x="250.44" y="366.57" width="2.61" height="2.61"/><path class="cls-8" d="M327.75,273.76c0,.13-9.45.24-21.11.24s-21.11-.11-21.11-.24,9.45-.24,21.11-.24S327.75,273.63,327.75,273.76Z"/><path class="cls-7" d="M361.42,282.43c0,.13-17,.24-37.94.24s-38-.11-38-.24,17-.24,38-.24S361.42,282.29,361.42,282.43Z"/><path class="cls-7" d="M360.53,288.62c0,.13-16.79.24-37.5.24s-37.5-.11-37.5-.24,16.79-.24,37.5-.24S360.53,288.48,360.53,288.62Z"/><path class="cls-7" d="M329.81,294.52c0,.13-9.91.24-22.14.24s-22.14-.11-22.14-.24,9.91-.24,22.14-.24S329.81,294.39,329.81,294.52Z"/><path class="cls-8" d="M327.75,369.93c0,.14-9.45.24-21.11.24s-21.11-.1-21.11-.24,9.45-.24,21.11-.24S327.75,369.8,327.75,369.93Z"/><path class="cls-7" d="M361.42,378.6c0,.13-17,.24-37.94.24s-38-.11-38-.24,17-.24,38-.24S361.42,378.47,361.42,378.6Z"/><path class="cls-7" d="M360.53,384.79c0,.13-16.79.24-37.5.24s-37.5-.11-37.5-.24,16.79-.24,37.5-.24S360.53,384.65,360.53,384.79Z"/><path class="cls-7" d="M329.81,390.69c0,.13-9.91.24-22.14.24s-22.14-.11-22.14-.24,9.91-.24,22.14-.24S329.81,390.56,329.81,390.69Z"/><path class="cls-8" d="M249.1,112.86l.27,0,.77,0,2.83-.07-.08.08c0-.63,0-1.31,0-2,0-.38,0-.74,0-1.19a1.11,1.11,0,0,1,.95-.87c.46,0,.86,0,1.36,0a1.12,1.12,0,0,1,.93,1.1c0,1,0,2,0,3l-.13-.13,3.57,0-.13.14c0-1.44,0-2.93,0-4.45,0-.39,0-.76,0-1.14a1.18,1.18,0,0,0-.51-.84l-1.56-1.54-1.5-1.49-.73-.72c-.26-.24-.45-.49-.74-.55a.92.92,0,0,0-.82.16c-.22.18-.45.44-.67.65l-1.28,1.29c-.81.84-1.65,1.61-2.26,2.33a2.62,2.62,0,0,0-.18,1.33v1.26c0,.77,0,1.45,0,2s0,.94,0,1.29,0,.46,0,.47a2.17,2.17,0,0,1,0-.43c0-.34,0-.76,0-1.27s0-1.27,0-2c0-.4,0-.83,0-1.28,0-.23,0-.46,0-.7a1.42,1.42,0,0,1,.19-.75c.66-.81,1.45-1.53,2.27-2.39.41-.42.83-.86,1.27-1.3.23-.23.41-.45.69-.69a1.21,1.21,0,0,1,1-.2,2,2,0,0,1,.86.61l.73.72,1.51,1.48,1.57,1.54a2.81,2.81,0,0,1,.4.43,1.28,1.28,0,0,1,.19.6c0,.38,0,.76,0,1.14,0,1.53,0,3,0,4.45v.14h-.14l-3.57,0h-.13v-.13c0-1,0-2,0-3a.86.86,0,0,0-.72-.87c-.41,0-.89,0-1.29,0a.86.86,0,0,0-.77.69c0,.36,0,.78,0,1.15v2.13H253l-2.88,0h-.75A1,1,0,0,1,249.1,112.86Z"/><path class="cls-8" d="M247.88,143.27l-.24,0-.72,0-2.75,0-10.12.09-15,0-8.87,0h-2.32a7.74,7.74,0,0,0-2.28.18,4.26,4.26,0,0,0-2.95,3.17,14.21,14.21,0,0,0-.09,2.37c0,.81,0,1.61,0,2.4v4.69c0,3.08,0,6,0,8.87,0,5.64,0,10.73-.06,15s-.06,7.69-.08,10.12c0,1.16,0,2.08-.05,2.75q0,.43,0,.72c0,.16,0,.24,0,.24a.75.75,0,0,1,0-.24q0-.28,0-.72c0-.67,0-1.59,0-2.75,0-2.43,0-5.88-.08-10.12s0-9.38,0-15c0-2.83,0-5.79,0-8.87v-7.09a14,14,0,0,1,.1-2.48,4.78,4.78,0,0,1,3.32-3.56,8,8,0,0,1,2.42-.19H219l15,.06,10.12.08,2.75.05.72,0A1.1,1.1,0,0,1,247.88,143.27Z"/><path class="cls-8" d="M250.49,143.19a1.58,1.58,0,1,1-1.58-1.58A1.58,1.58,0,0,1,250.49,143.19Z"/><path class="cls-8" d="M279.28,156.07s0-.36-.22-1a4,4,0,0,0-1.47-2.09,3.88,3.88,0,0,0-3.61-.5,3.78,3.78,0,0,0,0,7.09,3.85,3.85,0,0,0,3.61-.5,4,4,0,0,0,1.47-2.09c.17-.6.17-1,.22-1a1.89,1.89,0,0,1,0,1,4,4,0,0,1-1.45,2.33,4.15,4.15,0,0,1-4,.66,4.24,4.24,0,0,1,0-8,4.21,4.21,0,0,1,4,.66,4,4,0,0,1,1.45,2.33A1.94,1.94,0,0,1,279.28,156.07Z"/></g><g id="Device"><path class="cls-7" d="M489.67,410.66l-117.48-.07A25.59,25.59,0,0,1,346.61,385l.06-294.54a25.59,25.59,0,0,1,25.61-25.58L489.76,65a25.59,25.59,0,0,1,25.58,25.59l-.06,294.54A25.59,25.59,0,0,1,489.67,410.66Z"/><path class="cls-4" d="M489.64,75.36H466.86a5.66,5.66,0,0,0-5.53,5.78v4.13A5.64,5.64,0,0,1,455.79,91l-44.4,0a5.66,5.66,0,0,1-5.53-5.78V81.1a5.67,5.67,0,0,0-5.54-5.79H372.39a17.93,17.93,0,0,0-17.94,17.92L354.4,380.7a17.92,17.92,0,0,0,17.91,17.93l117.25.07a17.92,17.92,0,0,0,17.93-17.92l.06-287.49A17.94,17.94,0,0,0,489.64,75.36Z"/><path class="cls-7" d="M493.1,104.39c0,.08-3,.17-6.61.2s-6.62,0-6.62-.09,3-.16,6.61-.19S493.1,104.32,493.1,104.39Z"/><path class="cls-7" d="M493.13,107.78c0,.08-3,.16-6.62.19s-6.61,0-6.61-.08,3-.17,6.61-.2S493.13,107.7,493.13,107.78Z"/><path class="cls-7" d="M493.16,111.17c0,.07-3,.16-6.62.19s-6.62,0-6.62-.09,3-.16,6.62-.19S493.16,111.09,493.16,111.17Z"/><path class="cls-7" d="M372.74,115l.28,0,.76,0,2.83-.07-.08.08c0-.63,0-1.31,0-2,0-.38,0-.74,0-1.18a1.08,1.08,0,0,1,.95-.87c.46,0,.86,0,1.35,0a1.1,1.1,0,0,1,.93,1.09c0,1,0,2,0,3l-.13-.13,3.56,0-.13.13c0-1.43,0-2.92,0-4.44,0-.38,0-.75,0-1.13a1.13,1.13,0,0,0-.5-.84L381,107l-1.5-1.48-.73-.72a1.71,1.71,0,0,0-.74-.55.93.93,0,0,0-.82.16c-.21.18-.44.44-.66.65l-1.28,1.29c-.8.84-1.64,1.6-2.25,2.32a2.51,2.51,0,0,0-.18,1.33v1.26c0,.77,0,1.44,0,2s0,.94,0,1.29a2.61,2.61,0,0,1,0,.47s0-.14,0-.43,0-.76,0-1.27,0-1.27,0-2c0-.41,0-.83,0-1.28,0-.23,0-.46,0-.7a1.53,1.53,0,0,1,.2-.75c.66-.81,1.45-1.52,2.26-2.38.41-.42.83-.86,1.27-1.3a8.72,8.72,0,0,1,.68-.68,1.24,1.24,0,0,1,1-.21,2,2,0,0,1,.85.61l.73.72c.5.48,1,1,1.51,1.48l1.56,1.53a2.78,2.78,0,0,1,.4.43,1.18,1.18,0,0,1,.19.6c0,.38,0,.76,0,1.14,0,1.52,0,3,0,4.44v.14h-.13l-3.57,0h-.13V115c0-1,0-2,0-3a.86.86,0,0,0-.73-.87c-.41,0-.89,0-1.29,0a.88.88,0,0,0-.77.69c0,.36,0,.78,0,1.14v2.13h-.08l-2.87,0-.75,0Z"/><rect class="cls-5" x="367.42" y="132.92" width="124.98" height="22.73" rx="9.59"/><path class="cls-7" d="M482.82,155.66l.72-.06a10.54,10.54,0,0,0,2.06-.4,10.1,10.1,0,0,0,3-1.58,9.45,9.45,0,0,0,2.85-3.62,9.17,9.17,0,0,0,.75-2.65,25.24,25.24,0,0,0,.09-3.06,20.94,20.94,0,0,0-.15-3.33,9.45,9.45,0,0,0-7.55-7.71,25.71,25.71,0,0,0-4.34-.17h-4.62l-98.62.07a9.34,9.34,0,0,0-9.32,8.57c-.08,1.14,0,2.33,0,3.49a10.87,10.87,0,0,0,.35,3.38,9.38,9.38,0,0,0,3.87,5.29,9,9,0,0,0,3,1.3,13.8,13.8,0,0,0,3.29.24h19.43l44.34.05,29.89.08,8.13,0,2.11,0c.48,0,.72,0,.72,0l-.72,0-2.11,0-8.13,0-29.89.07-44.34.05H378.2a14.43,14.43,0,0,1-3.39-.25,9.52,9.52,0,0,1-3.18-1.35,9.9,9.9,0,0,1-4.06-5.56,11.54,11.54,0,0,1-.38-3.5c0-1.17,0-2.32,0-3.53a9.84,9.84,0,0,1,9.79-9l98.62.07h4.62a26.77,26.77,0,0,1,4.4.18,9.75,9.75,0,0,1,6.47,4.54,9.65,9.65,0,0,1,1.26,3.43,20.41,20.41,0,0,1,.13,3.37,24,24,0,0,1-.11,3.09,9.64,9.64,0,0,1-3.72,6.35,9.27,9.27,0,0,1-5.15,1.92Z"/><path class="cls-7" d="M484.75,143.75s0-.37-.22-1a4,4,0,0,0-1.51-2.16,3.91,3.91,0,1,0,0,6.28,4,4,0,0,0,1.51-2.16c.18-.61.18-1,.22-1s0,.09,0,.26a3,3,0,0,1-.07.77,4.08,4.08,0,0,1-1.49,2.37,4.24,4.24,0,0,1-4.06.67,4.32,4.32,0,0,1,0-8.14,4.27,4.27,0,0,1,4.06.66,4.12,4.12,0,0,1,1.49,2.38,2.92,2.92,0,0,1,.07.76Q484.78,143.75,484.75,143.75Z"/><path class="cls-7" d="M487,150.85a15.91,15.91,0,0,1-3.69-4,8.06,8.06,0,0,1,2,1.84A8.26,8.26,0,0,1,487,150.85Z"/><path class="cls-3" d="M384.3,142h-2.23v-.58h5.13V142H385v5.76h-.67Z"/><path class="cls-3" d="M391.78,145.6h-4a1.76,1.76,0,0,0,1.87,1.66,1.87,1.87,0,0,0,1.46-.63l.36.42a2.52,2.52,0,0,1-4.34-1.65,2.32,2.32,0,1,1,4.64,0S391.78,145.52,391.78,145.6Zm-4-.48h3.38a1.69,1.69,0,0,0-3.38,0Z"/><path class="cls-3" d="M396,147.78l-1.52-2-1.52,2h-.72l1.88-2.45L392.34,143h.72l1.43,1.87,1.44-1.87h.7l-1.79,2.32,1.9,2.45Z"/><path class="cls-3" d="M400.32,147.49a1.51,1.51,0,0,1-1,.34,1.26,1.26,0,0,1-1.39-1.39v-2.88h-.85V143h.85v-1h.64v1H400v.55h-1.45v2.84a.76.76,0,0,0,.83.87,1.06,1.06,0,0,0,.7-.24Z"/><rect class="cls-8" x="372.7" y="174.36" width="27.36" height="27.36"/><path class="cls-8" d="M452.68,177.31c0,.13-9.15.23-20.43.23s-20.43-.1-20.43-.23,9.15-.23,20.43-.23S452.68,177.18,452.68,177.31Z"/><path class="cls-7" d="M485.26,185.69c0,.13-16.44.24-36.72.24s-36.72-.11-36.72-.24,16.44-.23,36.72-.23S485.26,185.57,485.26,185.69Z"/><path class="cls-7" d="M484.4,191.68c0,.13-16.25.24-36.29.24s-36.29-.11-36.29-.24,16.24-.23,36.29-.23S484.4,191.55,484.4,191.68Z"/><path class="cls-7" d="M454.67,197.4c0,.12-9.59.23-21.42.23s-21.43-.11-21.43-.23,9.59-.24,21.43-.24S454.67,197.27,454.67,197.4Z"/><rect class="cls-8" x="372.7" y="219.94" width="27.36" height="27.36"/><path class="cls-8" d="M452.68,222.89c0,.12-9.15.23-20.43.23s-20.43-.11-20.43-.23,9.15-.24,20.43-.24S452.68,222.76,452.68,222.89Z"/><path class="cls-7" d="M485.26,231.27c0,.13-16.44.23-36.72.23s-36.72-.1-36.72-.23,16.44-.23,36.72-.23S485.26,231.14,485.26,231.27Z"/><path class="cls-7" d="M484.4,237.26c0,.13-16.25.23-36.29.23s-36.29-.1-36.29-.23,16.24-.23,36.29-.23S484.4,237.13,484.4,237.26Z"/><path class="cls-7" d="M454.67,243c0,.13-9.59.24-21.42.24s-21.43-.11-21.43-.24,9.59-.23,21.43-.23S454.67,242.84,454.67,243Z"/><rect class="cls-8" x="372.7" y="265.52" width="27.36" height="27.36"/><path class="cls-8" d="M452.68,268.46c0,.13-9.15.24-20.43.24s-20.43-.11-20.43-.24,9.15-.23,20.43-.23S452.68,268.33,452.68,268.46Z"/><path class="cls-7" d="M485.26,276.85c0,.13-16.44.23-36.72.23s-36.72-.1-36.72-.23,16.44-.23,36.72-.23S485.26,276.72,485.26,276.85Z"/><path class="cls-7" d="M484.4,282.84c0,.13-16.25.23-36.29.23s-36.29-.1-36.29-.23,16.24-.23,36.29-.23S484.4,282.71,484.4,282.84Z"/><path class="cls-7" d="M454.67,288.55c0,.13-9.59.23-21.42.23s-21.43-.1-21.43-.23,9.59-.23,21.43-.23S454.67,288.42,454.67,288.55Z"/><rect class="cls-8" x="372.7" y="311.1" width="27.36" height="27.36"/><path class="cls-10" d="M452.68,314c0,.13-9.15.23-20.43.23s-20.43-.1-20.43-.23,9.15-.23,20.43-.23S452.68,313.91,452.68,314Z"/><path class="cls-7" d="M485.26,322.43c0,.12-16.44.23-36.72.23s-36.72-.11-36.72-.23,16.44-.24,36.72-.24S485.26,322.3,485.26,322.43Z"/><path class="cls-7" d="M484.4,328.42c0,.12-16.25.23-36.29.23s-36.29-.11-36.29-.23,16.24-.24,36.29-.24S484.4,328.29,484.4,328.42Z"/><path class="cls-7" d="M454.67,334.13c0,.13-9.59.23-21.42.23s-21.43-.1-21.43-.23,9.59-.23,21.43-.23S454.67,334,454.67,334.13Z"/><rect class="cls-3" x="372.7" y="356.68" width="27.36" height="27.36"/><path class="cls-3" d="M452.68,359.62c0,.13-9.15.23-20.43.23s-20.43-.1-20.43-.23,9.15-.23,20.43-.23S452.68,359.49,452.68,359.62Z"/><path class="cls-6" d="M485.26,368c0,.13-16.44.24-36.72.24s-36.72-.11-36.72-.24,16.44-.23,36.72-.23S485.26,367.88,485.26,368Z"/><path class="cls-6" d="M484.4,374c0,.13-16.25.24-36.29.24s-36.29-.11-36.29-.24,16.24-.23,36.29-.23S484.4,373.86,484.4,374Z"/><path class="cls-6" d="M454.67,379.71c0,.12-9.59.23-21.42.23s-21.43-.11-21.43-.23,9.59-.24,21.43-.24S454.67,379.58,454.67,379.71Z"/><g class="cls-9"><rect x="372.7" y="311.1" width="27.36" height="27.36"/></g><g class="cls-9"><rect x="372.7" y="219.94" width="27.36" height="27.36"/></g></g><g id="Window"><rect class="cls-4" x="287.14" y="0.24" width="148.64" height="60.37"/><path class="cls-8" d="M435.77,60.61s0-.37,0-1.08,0-1.76,0-3.13c0-2.76,0-6.8,0-12,0-10.42-.05-25.49-.09-44.14l.16.16L287.15.47h0l.23-.23c0,21.14,0,41.55,0,60.37l-.22-.23,106.57.11,30.91.06,8.28,0,2.14,0h0l-2.12,0-8.23,0-30.86.06-106.72.11h-.23v-.23c0-18.82,0-39.23,0-60.37V0h.25L435.77.07h.17V.24c0,18.69-.07,33.8-.09,44.24,0,5.2,0,9.24,0,12,0,1.36,0,2.4,0,3.1S435.77,60.61,435.77,60.61Z"/><path class="cls-8" d="M287.28,8.38c0-.13,33.23-.24,74.2-.24s74.21.11,74.21.24-33.22.23-74.21.23S287.28,8.51,287.28,8.38Z"/><g class="cls-9"><circle class="cls-8" cx="292.43" cy="4.74" r="1.08"/></g><g class="cls-9"><path class="cls-8" d="M297.2,4.74a1.08,1.08,0,1,1-1.07-1.08A1.07,1.07,0,0,1,297.2,4.74Z"/></g><g class="cls-9"><path class="cls-8" d="M300.85,4.74a1.08,1.08,0,1,1-1.08-1.08A1.08,1.08,0,0,1,300.85,4.74Z"/></g><rect class="cls-8" x="299.77" y="18.19" width="35.9" height="35.9"/><g class="cls-19"><rect class="cls-4" x="299.77" y="18.19" width="35.9" height="35.9"/></g><path class="cls-8" d="M425.49,27.81c0,.13-18.47.24-41.26.24S343,27.94,343,27.81s18.47-.23,41.26-.23S425.49,27.68,425.49,27.81Z"/><path class="cls-8" d="M425.49,35.13c0,.13-18.47.23-41.26.23S343,35.26,343,35.13s18.47-.24,41.26-.24S425.49,35,425.49,35.13Z"/><path class="cls-8" d="M396.09,42.44a2.24,2.24,0,0,1-.54.05l-1.55,0-5.69.08-18.78.06-18.78-.06-5.7-.08-1.54,0a2.24,2.24,0,0,1-.54-.05,2.24,2.24,0,0,1,.54,0l1.54,0,5.7-.08,18.78-.07,18.78.07,5.69.08,1.55,0A2.24,2.24,0,0,1,396.09,42.44Z"/></g><g id="Character_2" data-name="Character 2"><polygon class="cls-8" points="524.61 389.96 529.74 408.93 513.07 410.45 509.57 392.39 524.61 389.96"/><path class="cls-7" d="M512.59,408.91a11.64,11.64,0,0,0,2.44-.09c1.5-.12,3.57-.35,5.85-.64l5.83-.78a12.93,12.93,0,0,0,2.4-.42,12.58,12.58,0,0,0-2.44.09c-1.5.13-3.57.36-5.85.65l-5.83.78A12.52,12.52,0,0,0,512.59,408.91Z"/><g class="cls-18"><polyline class="cls-4" points="529.74 408.93 513.07 410.45 512.8 409.06 529.26 406.97 529.73 408.74"/></g><path class="cls-7" d="M521.46,408.09a67,67,0,0,0-1.59-7.27,74,74,0,0,0-2-7.18,68.3,68.3,0,0,0,1.58,7.27A72.22,72.22,0,0,0,521.46,408.09Z"/><path class="cls-7" d="M513.51,408.78a8,8,0,0,1,0-3.52,7,7,0,0,1,1.82-3.3,6.85,6.85,0,0,1,4.15-1.91,7.09,7.09,0,0,1,4.47,1,7.81,7.81,0,0,1,2.6,2.75,10,10,0,0,1,1,3.39.76.76,0,0,0,0-.26,4.11,4.11,0,0,0,0-.72,7.69,7.69,0,0,0-3.44-5.47,7.36,7.36,0,0,0-4.7-1.1,6.88,6.88,0,0,0-6.2,5.54,6.71,6.71,0,0,0,0,2.66,4.57,4.57,0,0,0,.21.69C513.46,408.71,513.49,408.79,513.51,408.78Z"/><path class="cls-8" d="M455.77,384.87l1.11,16.85s-16.77,5.57-16.87,8.7l32.78.24-.66-26.33Z"/><g class="cls-18"><path class="cls-4" d="M467,400a1.33,1.33,0,0,1,1,1.5,1.28,1.28,0,0,1-1.48,1,1.42,1.42,0,0,1-1-1.59,1.32,1.32,0,0,1,1.65-.84"/></g><g class="cls-18"><path class="cls-4" d="M472.79,410.66l-.07-2.65-31.65.87a2.26,2.26,0,0,0-1.22,1.78Z"/></g><path class="cls-7" d="M456.35,401.57c0,.16.81.21,1.61.7s1.25,1.15,1.39,1.08-.12-1-1.1-1.56S456.31,401.43,456.35,401.57Z"/><path class="cls-7" d="M453,403.1c0,.15.67.41,1.23,1.07s.74,1.37.9,1.35.23-.92-.48-1.72S453,403,453,403.1Z"/><path class="cls-7" d="M451.13,407.27c.15,0,.34-.78-.09-1.64s-1.2-1.19-1.26-1.06.41.59.76,1.31S451,407.26,451.13,407.27Z"/><path class="cls-7" d="M456.52,397.7c.07.15.8-.09,1.71-.06s1.61.3,1.69.16-.61-.69-1.68-.72S456.44,397.58,456.52,397.7Z"/><path class="cls-7" d="M456.36,394.3a3,3,0,0,0,1.64-.06,7,7,0,0,0,1.7-.58,6.84,6.84,0,0,0,.93-.53,2,2,0,0,0,.48-.4.7.7,0,0,0,.05-.85.86.86,0,0,0-.72-.34,2.16,2.16,0,0,0-.61.1,6,6,0,0,0-1,.38,5.84,5.84,0,0,0-1.48,1c-.74.73-1,1.33-.92,1.36s.42-.46,1.18-1.07a6.45,6.45,0,0,1,1.44-.86,5.36,5.36,0,0,1,.93-.32c.35-.1.64-.12.73,0s0,.08,0,.18a1.54,1.54,0,0,1-.35.29,8.84,8.84,0,0,1-.85.52,8.45,8.45,0,0,1-1.57.66A10.37,10.37,0,0,0,456.36,394.3Z"/><path class="cls-7" d="M456.57,394.52a2.56,2.56,0,0,0,.39-1.59,5.3,5.3,0,0,0-.28-1.79,5.42,5.42,0,0,0-.45-1,1.36,1.36,0,0,0-1.07-.79.76.76,0,0,0-.67.47,2.25,2.25,0,0,0-.15.61,3.72,3.72,0,0,0,0,1.11,3.91,3.91,0,0,0,.75,1.67c.67.83,1.34,1,1.35.95s-.51-.38-1-1.18a3.79,3.79,0,0,1-.56-1.53,3.29,3.29,0,0,1,0-.94c0-.35.16-.64.29-.61s.45.25.59.52a6,6,0,0,1,.44.88,5.75,5.75,0,0,1,.36,1.63C456.64,393.9,456.49,394.5,456.57,394.52Z"/><polygon class="cls-7" points="455.77 238.46 505.7 238.08 529.83 396.57 509.11 399.2 482.55 268.89 474.6 399.66 474.58 400.05 452.17 399.66 455.77 238.46"/><path class="cls-10" d="M478.48,251.3a8.57,8.57,0,0,1-1.12,0H474.3l-10.66-.09.24-.23c0,3.14,0,6.64,0,10.35l-.09-.19,1.89,1.73,5.52,5.09h-.33l7.45-6.52-.07.15c0-3.09.08-5.63.1-7.48,0-.85,0-1.54.06-2.09a6.36,6.36,0,0,1,0-.76,4.19,4.19,0,0,1,0,.69c0,.53,0,1.2.06,2,0,1.88.06,4.46.1,7.6v.09l-.07.06-7.38,6.59-.17.15-.17-.15-5.54-5.08-1.88-1.73-.08-.07v-.12c0-3.71,0-7.21,0-10.35v-.24h.23l10.8.32,3,.12A6.85,6.85,0,0,1,478.48,251.3Z"/><path class="cls-10" d="M502,250.62s-.36.07-1,.15l-2.72.33-9.56,1.08.21-.25c.38,3.07.82,6.55,1.29,10.27l-.1-.17,2.15,1.72c1.84,1.46,3.62,2.89,5.3,4.24l-.35,0,5.87-7.29,0,.15c-.33-3.05-.6-5.58-.8-7.42-.08-.85-.15-1.54-.2-2.09s-.06-.75,0-.76a3.44,3.44,0,0,1,.13.67c.08.53.18,1.2.3,2,.26,1.87.61,4.43,1,7.52v.09l-.05.07-5.81,7.34-.15.2-.2-.16-5.31-4.22-2.15-1.72-.09-.07v-.1c-.44-3.73-.86-7.22-1.22-10.28l0-.23.23,0,9.72-.86,2.68-.21A4.89,4.89,0,0,1,502,250.62Z"/><path class="cls-10" d="M471.43,274.67a11.64,11.64,0,0,1,2.1-1.4c1.33-.8,3.21-1.84,5.33-2.9s4.09-1.94,5.53-2.52a10.69,10.69,0,0,1,2.39-.83,15.08,15.08,0,0,1-2.24,1.16c-1.39.67-3.33,1.6-5.44,2.65s-4,2.05-5.4,2.76A12.55,12.55,0,0,1,471.43,274.67Z"/><path class="cls-10" d="M472.07,278.52A27.57,27.57,0,0,0,477,275a27.89,27.89,0,0,0,3.64-4.86,13.32,13.32,0,0,1-8.56,8.43Z"/><path class="cls-10" d="M458,324.31c.09,0,.45,1.14,1.55,2.74a13,13,0,0,0,13.11,5.53c1.91-.33,3-.89,3-.8a2.28,2.28,0,0,1-.75.43,10.79,10.79,0,0,1-2.22.73,12.67,12.67,0,0,1-13.49-5.69,10.91,10.91,0,0,1-1-2.1A2.5,2.5,0,0,1,458,324.31Z"/><path class="cls-10" d="M461.26,323a18.16,18.16,0,0,1,2,.51,24.22,24.22,0,0,0,4.89.67c3.88.14,7-.45,7-.28a6.89,6.89,0,0,1-2,.49,26,26,0,0,1-5,.31,18.81,18.81,0,0,1-5-.83A5.6,5.6,0,0,1,461.26,323Z"/><path class="cls-10" d="M498.39,323.91a34.46,34.46,0,0,0,6.88,3.81,34.84,34.84,0,0,0,7.7,1.62,7.08,7.08,0,0,1-2.34.07,20,20,0,0,1-10.52-3.91A7.31,7.31,0,0,1,498.39,323.91Z"/><path class="cls-10" d="M502.76,323.71c0-.15,2.06.1,4.54-.11s4.46-.76,4.5-.61a13.7,13.7,0,0,1-9,.72Z"/><path class="cls-10" d="M482.85,270a76.08,76.08,0,0,0,8.08,2,75,75,0,0,0,8.31.59,8.39,8.39,0,0,1-2.45.29,30,30,0,0,1-5.94-.37,31.23,31.23,0,0,1-5.77-1.5A9,9,0,0,1,482.85,270Z"/><path class="cls-10" d="M484.21,264.62c.14,0,.26.45.25,1s-.13,1-.28,1-.25-.45-.24-1S484.07,264.62,484.21,264.62Z"/><path class="cls-10" d="M484.19,260.62c.15,0,.27.44.27,1s-.1,1-.25,1-.26-.45-.27-1S484.05,260.62,484.19,260.62Z"/><path class="cls-10" d="M484.09,256.62c.14,0,.28.44.29,1s-.08,1-.23,1-.27-.44-.29-1S484,256.62,484.09,256.62Z"/><path class="cls-10" d="M483.9,252.62c.14,0,.28.44.31,1s-.06,1-.2,1-.29-.43-.32-1S483.76,252.63,483.9,252.62Z"/><path class="cls-10" d="M483.62,248.63c.14,0,.29.43.33,1s0,1-.18,1-.29-.43-.34-1S483.48,248.64,483.62,248.63Z"/><path class="cls-10" d="M483.25,244.65c.14,0,.3.42.36,1s0,1-.16,1-.31-.42-.36-1S483.11,244.66,483.25,244.65Z"/><path class="cls-10" d="M511.41,395.48c.14,0,.35.39.45.93s.09,1-.06,1-.34-.39-.45-.93S511.27,395.51,511.41,395.48Z"/><path class="cls-10" d="M510.63,391.56c.14,0,.34.39.45.93s.08,1-.06,1-.34-.39-.45-.93S510.49,391.59,510.63,391.56Z"/><path class="cls-10" d="M509.84,387.64c.14,0,.35.38.45.93s.09,1-.05,1-.35-.39-.46-.93S509.7,387.66,509.84,387.64Z"/><path class="cls-10" d="M509.06,383.71c.14,0,.34.39.45.93s.08,1-.06,1-.34-.39-.45-.93S508.92,383.74,509.06,383.71Z"/><path class="cls-10" d="M508.27,379.79c.14,0,.35.39.46.93s.08,1-.06,1-.35-.38-.46-.93S508.13,379.82,508.27,379.79Z"/><path class="cls-10" d="M507.49,375.87c.14,0,.34.39.45.93s.08,1-.06,1-.34-.39-.45-.93S507.35,375.9,507.49,375.87Z"/><path class="cls-10" d="M506.7,372c.15,0,.35.39.46.93s.08,1-.06,1-.35-.39-.45-.93S506.56,372,506.7,372Z"/><path class="cls-10" d="M505.92,368c.14,0,.34.38.45.92s.08,1-.06,1-.34-.39-.45-.93S505.78,368.05,505.92,368Z"/><path class="cls-10" d="M505.14,364.1c.14,0,.34.39.45.93s.08,1-.06,1-.35-.38-.45-.93S505,364.13,505.14,364.1Z"/><path class="cls-10" d="M504.35,360.18c.14,0,.34.39.45.93s.08,1-.06,1-.34-.39-.45-.93S504.21,360.21,504.35,360.18Z"/><path class="cls-10" d="M503.57,356.26c.14,0,.34.39.45.93s.08,1-.06,1-.35-.39-.45-.93S503.42,356.29,503.57,356.26Z"/><path class="cls-10" d="M502.78,352.34c.14,0,.34.38.45.93s.08,1-.06,1-.34-.39-.45-.93S502.64,352.36,502.78,352.34Z"/><path class="cls-10" d="M502,348.41c.14,0,.34.39.45.93s.08,1-.06,1-.34-.39-.45-.93S501.86,348.44,502,348.41Z"/><path class="cls-10" d="M501.21,344.49c.14,0,.35.39.45.93s.09,1-.06,1-.34-.39-.45-.93S501.07,344.52,501.21,344.49Z"/><path class="cls-10" d="M500.43,340.57c.14,0,.34.39.45.93s.08,1-.06,1-.34-.39-.45-.93S500.29,340.6,500.43,340.57Z"/><path class="cls-10" d="M499.64,336.65c.14,0,.35.38.45.93s.09,1-.06,1-.34-.39-.45-.93S499.5,336.68,499.64,336.65Z"/><path class="cls-10" d="M498.86,332.72c.14,0,.34.39.45.93s.08,1-.06,1-.34-.39-.45-.93S498.72,332.75,498.86,332.72Z"/><path class="cls-10" d="M498.07,328.8c.14,0,.35.39.45.93s.09,1,0,1-.35-.38-.46-.93S497.93,328.83,498.07,328.8Z"/><path class="cls-10" d="M497.29,324.88c.14,0,.34.39.45.93s.08,1-.06,1-.34-.39-.45-.93S497.15,324.91,497.29,324.88Z"/><path class="cls-10" d="M496.5,321c.15,0,.35.39.46.93s.08,1-.06,1-.35-.39-.46-.93S496.36,321,496.5,321Z"/><path class="cls-10" d="M495.72,317c.14,0,.34.38.45.93s.08,1-.06,1-.34-.39-.45-.93S495.58,317.06,495.72,317Z"/><path class="cls-10" d="M494.93,313.11c.15,0,.35.39.46.93s.08,1-.06,1-.35-.38-.45-.93S494.79,313.14,494.93,313.11Z"/><path class="cls-10" d="M494.15,309.19c.14,0,.34.39.45.93s.08,1-.06,1-.34-.39-.45-.93S494,309.22,494.15,309.19Z"/><path class="cls-10" d="M493.37,305.27c.14,0,.34.39.45.93s.08,1-.06,1-.35-.39-.45-.93S493.22,305.3,493.37,305.27Z"/><path class="cls-10" d="M492.58,301.35c.14,0,.34.38.45.93s.08,1-.06,1-.34-.39-.45-.93S492.44,301.37,492.58,301.35Z"/><path class="cls-10" d="M491.8,297.42c.14,0,.34.39.45.93s.08,1-.06,1-.34-.39-.45-.93S491.66,297.45,491.8,297.42Z"/><path class="cls-10" d="M491,293.5c.14,0,.34.39.45.93s.08,1-.06,1-.34-.38-.45-.93S490.87,293.53,491,293.5Z"/><path class="cls-10" d="M490.23,289.58c.14,0,.34.39.45.93s.08,1-.06,1-.34-.39-.45-.93S490.09,289.61,490.23,289.58Z"/><path class="cls-10" d="M489.44,285.66c.14,0,.35.39.45.93s.09,1-.06,1-.34-.39-.45-.93S489.3,285.69,489.44,285.66Z"/><path class="cls-10" d="M488.66,281.73c.14,0,.34.39.45.93s.08,1-.06,1-.34-.39-.45-.93S488.52,281.76,488.66,281.73Z"/><path class="cls-10" d="M487.87,277.81c.14,0,.35.39.45.93s.09,1-.05,1-.35-.38-.46-.93S487.73,277.84,487.87,277.81Z"/><path class="cls-10" d="M487.09,273.89c.14,0,.34.39.45.93s.08,1-.06,1-.34-.39-.45-.93S487,273.92,487.09,273.89Z"/><path class="cls-10" d="M486.41,270.48c.14,0,.32.28.4.67s0,.75-.11.78-.32-.27-.4-.67S486.27,270.51,486.41,270.48Z"/><path class="cls-20" d="M417.84,165.64s-5.85-8.76-6-8.84h0s-5.28-8.88-7-8.88-1.12,1.8.69,5a12.64,12.64,0,0,1,1.75,4.53l-4.33,2.62s-2.9-1.12-3,1.57a19,19,0,0,0,.5,3.67c.18,1,.61,2,1.52,1.62a1.15,1.15,0,0,0,.77-1.09c.06-1.59-.24-2.18,0-2.18s3.12,8.37,3.12,8.37Z"/><path class="cls-20" d="M406,158.76a9,9,0,0,0-1.39-.83,2.88,2.88,0,0,0-1.58-.24,1.26,1.26,0,0,0-1,1.79,4,4,0,0,0,.71,1.2"/><path class="cls-20" d="M408,157a7.55,7.55,0,0,0-1.31-.78,2.77,2.77,0,0,0-1.5-.23,1.33,1.33,0,0,0-.83.44,1.35,1.35,0,0,0-.16,1.25,11.13,11.13,0,0,0,1.35,1.74"/><path class="cls-20" d="M415.8,160.69l8.44,18.06-9.31,9.51-4.85-13.46s-2.59.52-3.65-1.2c-1.19-1.93-2.74-7.49-2.74-7.49Z"/><path class="cls-21" d="M409.77,160.19c-.16.07-.59-1.06-1.4-2.2s-1.89-1.69-1.8-1.84a3.32,3.32,0,0,1,2.22,1.53A4.35,4.35,0,0,1,409.77,160.19Z"/><path class="cls-21" d="M400.4,160.27c0-.05.2-.33.73-.52a2.74,2.74,0,0,1,2.17.19,3.68,3.68,0,0,1,1.43,1.61c.23.48.32.8.26.84s-.27-.23-.58-.65a4.57,4.57,0,0,0-1.36-1.34,2.92,2.92,0,0,0-1.83-.29C400.74,160.19,400.44,160.34,400.4,160.27Z"/><path class="cls-21" d="M403.54,157.72a2.61,2.61,0,0,1,2.31.8,3,3,0,0,1,1.21,2.12c-.14.07-.62-.9-1.55-1.73S403.52,157.88,403.54,157.72Z"/><path class="cls-21" d="M401.47,161.62c.14,0,.17.57.52,1.1s.8.8.76.94-.76.05-1.21-.67S401.33,161.57,401.47,161.62Z"/><path class="cls-20" d="M417.82,165.29s.29-5.39-1-6.61-5,0-5,0"/><path class="cls-21" d="M411.25,156.15a13.17,13.17,0,0,1,2.32,2.79,12.62,12.62,0,0,1,1.91,3.09,13,13,0,0,1-2.33-2.79A12.52,12.52,0,0,1,411.25,156.15Z"/><path class="cls-20" d="M502.22,161.06c-.14-.72-.31-1.56-.56-2.54a7.68,7.68,0,0,0-1.07-2.37,11.79,11.79,0,0,0-2.06-2.48,1,1,0,0,1,.44-1.85c.9,0,3.15,1.58,4.69,4.39s2.45-2.15,2.81-4,1.75-7.33,2.39-7.66c.95-.48,1.63.44,1.23,2.24s-1.24,7.25-.28,7.39,2.67-9.06,2.67-9.06,0-2,1.17-1.89c2,.24-.54,9.88-.8,10.8-.19.63.85.83,1,.14s1.51-9.22,3.56-9c1.57.17-2,7.95-1.32,9.87s2.13-6.18,3.62-6c.56.09,1,.23-.52,4.76-.73,2.2-3.53,12.51-3.53,12.51l1.61,8.45-12.83,3.24Z"/><path class="cls-20" d="M486,115.3l.13,42.05-18,.86L467.56,148s-6.41,1.28-8.06-4.68c-1.06-3.8-.79-33.17-.79-33.17Z"/><path class="cls-7" d="M456.33,113.09c2.84.81,3.46,5.45,3.46,5.45l4.46,9.85c2.27-1.78,5.32-1.68,5.9,2.31.41,2.89-3.17,3.47-3.17,3.47,2.08,3.55,3.5,6.42,6.54,9.8,3.29,3.66,5.13,4,8.7,4.08h3.93s1.92-6.24,5.49-21.87c3.95-17.34-16.55-15.11-20.35-19.53C465.1,99.44,447.38,110.52,456.33,113.09Z"/><path class="cls-7" d="M491.26,127.81c3.33-2.23,3.63-8.47,1.69-12.22a12.05,12.05,0,0,0-10.24-6.37A4.93,4.93,0,0,1,481,109a4.61,4.61,0,0,1-1.8-1.71c-3-3.86-5.88-7.65-11.42-7.65a6.32,6.32,0,0,0-3.48.86,5.49,5.49,0,0,0-2.09,2.77,12.21,12.21,0,0,0-3.24-1.17,4,4,0,0,0-3.25.8,2.45,2.45,0,0,0-.51,3.11,3.92,3.92,0,0,0-3.92,3.27c-.3,1.85,2.35,3.14,2.62,3.29,0,0-1.45,3,2,4.86a4.17,4.17,0,0,0,3.42-.26"/><path class="cls-10" d="M478.09,131.86c.15,0,.2,1.41.58,3.08s.94,3,.8,3a5.8,5.8,0,0,1-1.31-2.92A5.87,5.87,0,0,1,478.09,131.86Z"/><path class="cls-10" d="M475.91,129.79a13.33,13.33,0,0,1,.65,3,13.8,13.8,0,0,1,.47,3,11.11,11.11,0,0,1-1.12-6Z"/><path class="cls-10" d="M469.66,122.85a3.24,3.24,0,0,1,1.37,1,9.68,9.68,0,0,1,2.15,3.42,18.45,18.45,0,0,1,1,3.89,5.07,5.07,0,0,1,.11,1.65,5.12,5.12,0,0,1-.47-1.58,29.08,29.08,0,0,0-1.09-3.78,11.69,11.69,0,0,0-1.93-3.35C470.12,123.3,469.61,122.92,469.66,122.85Z"/><path class="cls-10" d="M467.14,118.13a17,17,0,0,0,.28,3.89,18.08,18.08,0,0,0,1.58,3.56,5.62,5.62,0,0,1-2.09-3.44A5.53,5.53,0,0,1,467.14,118.13Z"/><path class="cls-10" d="M488.67,128.63c-.07-.13.37-.51,1-.85s1.18-.53,1.25-.4-.37.5-1,.85S488.74,128.76,488.67,128.63Z"/><path class="cls-10" d="M480,124.14c.15,0,.42.74.93,1.58s1.06,1.44,1,1.56-.85-.36-1.41-1.29S479.81,124.16,480,124.14Z"/><path class="cls-10" d="M477.27,122.7c.14,0,.53.9,1.21,1.92s1.39,1.74,1.3,1.86-1-.47-1.73-1.58A3.35,3.35,0,0,1,477.27,122.7Z"/><path class="cls-10" d="M464,105.09s.06-.09.2-.23a3.86,3.86,0,0,1,.69-.56,6.41,6.41,0,0,1,3.11-1,8.23,8.23,0,0,1,4.68,1.15,11.09,11.09,0,0,1,4,4.36,18.7,18.7,0,0,1,1.56,4.05l-.36-.15a9.41,9.41,0,0,1,7.62-.4,8.6,8.6,0,0,1,2,1.07,3.31,3.31,0,0,1,.6.54,16.06,16.06,0,0,0-2.68-1.32,9.43,9.43,0,0,0-7.29.55l-.27.14-.08-.3a18.9,18.9,0,0,0-1.54-3.93,10.81,10.81,0,0,0-3.76-4.2,8.14,8.14,0,0,0-4.42-1.2,6.77,6.77,0,0,0-3,.77C464.29,104.84,464,105.13,464,105.09Z"/><path class="cls-10" d="M454.46,107.38a1.59,1.59,0,0,0-1.18,1.75,1.78,1.78,0,0,0,1,1.23,2.62,2.62,0,0,0,1.93.21,6,6,0,0,0,2.09-1.07,23,23,0,0,1,2.24-1.57,9.77,9.77,0,0,1,2.81-1,11.35,11.35,0,0,1,5.67.42,14.44,14.44,0,0,1,4.08,2.19,16.5,16.5,0,0,1,2.3,2.1,4.22,4.22,0,0,1,.71.9c-.07.07-1.12-1.19-3.22-2.7a14.79,14.79,0,0,0-4-2,11.11,11.11,0,0,0-5.42-.37,9.22,9.22,0,0,0-2.66.93,23.22,23.22,0,0,0-2.21,1.51,6.28,6.28,0,0,1-2.27,1.1,3,3,0,0,1-2.21-.31,2.07,2.07,0,0,1-1.06-1.51,1.79,1.79,0,0,1,.43-1.33C454,107.23,454.5,107.37,454.46,107.38Z"/><path class="cls-8" d="M504.33,159.41l22,39.41a11.15,11.15,0,0,1-1.7,10.48l.46-.66a9.43,9.43,0,0,1-7.32,3.5h-.42a9.42,9.42,0,0,1-8.63-5.66l-5.17-7.85Z"/><path class="cls-8" d="M456.58,156.59c4.33-2.21,8.6-2.71,13.26-2.85,5.42-.16,13.07-.92,18.92-.29,0,0,17.82-.55,17.9,13.26l-2.36,53,3.82,22.72-53.39,1.61.38-26.8c-.66-13.95.75-33.7.75-33.7-.82-7.49-4.93-10.87-5.51-15.74C449.84,163.5,452.72,158.56,456.58,156.59Z"/><path class="cls-7" d="M471.63,220.49c.06-.08,1.21,1,3.39,2.11a20.16,20.16,0,0,0,18.43.32c2.21-1.07,3.4-2.07,3.46-2a4.17,4.17,0,0,1-.81.72,17.15,17.15,0,0,1-2.49,1.59,19.38,19.38,0,0,1-18.77-.33,17.34,17.34,0,0,1-2.43-1.68A4.23,4.23,0,0,1,471.63,220.49Z"/><path class="cls-7" d="M506.66,166.71a1.76,1.76,0,0,1,0,.52c0,.41,0,.9,0,1.5,0,1.39-.06,3.25-.11,5.52-.11,4.66-.31,11.1-.61,18.2s-.65,13.54-1,18.19c-.17,2.33-.31,4.21-.44,5.51l-.15,1.49a1.88,1.88,0,0,1-.09.52,2.21,2.21,0,0,1,0-.53q0-.6.06-1.5c.07-1.38.16-3.24.27-5.51.21-4.72.5-11.12.82-18.19s.57-13.46.77-18.19c.11-2.27.2-4.13.26-5.51,0-.6.07-1.1.1-1.5A2,2,0,0,1,506.66,166.71Z"/><path class="cls-8" d="M517.85,171.29s2,5.93,2.38,6.73c0,0,5,14.41,6.61,24.14L510.9,173.38C510.76,173.4,517.64,171.35,517.85,171.29Z"/><path class="cls-7" d="M510,169.55A11,11,0,0,1,511,171c.64,1,1.48,2.41,2.5,4.08,2.1,3.45,5.19,8.11,8.29,13.46,1.54,2.68,2.84,5.33,4,7.77a14.24,14.24,0,0,1,1.48,7,10.49,10.49,0,0,1-1.41,4.6A8,8,0,0,1,525,209c-.2.22-.31.33-.33.32s.4-.5.92-1.49a10.83,10.83,0,0,0,1.23-4.52,14.2,14.2,0,0,0-1.56-6.75c-1.13-2.41-2.44-5-4-7.71-3.08-5.33-6.12-10-8.14-13.53-1-1.75-1.83-3.18-2.36-4.17A11.68,11.68,0,0,1,510,169.55Z"/><path class="cls-8" d="M411.8,184.27l12.35-8.08,7.8,13.5s10.81-15,15.72-23.82c4.52-8.11,10.36-10.29,13.19-10.88a1.25,1.25,0,0,1,1.49,1.37l-4.26,29.22c-.53,1.52-9.45,14.45-14.44,20.95-8.31,10.86-20.57,3.91-23.93-3.69C417.05,196.81,412.89,187.65,411.8,184.27Z"/><path class="cls-7" d="M428.4,201.89a6.91,6.91,0,0,1-.11-1.95,23.86,23.86,0,0,1,.46-4.69,12.78,12.78,0,0,1,1.76-4.38,4.41,4.41,0,0,1,1.31-1.46c.07.06-.42.62-1,1.65a15.1,15.1,0,0,0-1.57,4.3,36.9,36.9,0,0,0-.6,4.6A8.43,8.43,0,0,1,428.4,201.89Z"/><path class="cls-7" d="M424.78,195.85a3.25,3.25,0,0,1,.11-1.68,7.78,7.78,0,0,1,1.95-3.55,5.1,5.1,0,0,1,3.64-1.81c1.1,0,1.62.59,1.57.62a5.34,5.34,0,0,0-1.57-.25,5.18,5.18,0,0,0-3.26,1.8,8.64,8.64,0,0,0-2,3.29A16.2,16.2,0,0,1,424.78,195.85Z"/><path class="cls-7" d="M461.66,158.6a1.54,1.54,0,0,1,.36.27,8.23,8.23,0,0,1,.94.91,11.66,11.66,0,0,1,2.32,4.18,16,16,0,0,1,.58,7,15.47,15.47,0,0,1-1.06,4.08,43,43,0,0,1-2,4,156.16,156.16,0,0,1-8.54,13.18c-1.17,1.63-2.14,2.94-2.84,3.82-.34.44-.63.78-.82,1a2,2,0,0,1-.31.33,11.11,11.11,0,0,1,1-1.45l2.7-3.91c2.25-3.32,5.36-7.91,8.38-13.22a43.42,43.42,0,0,0,2-4,15.19,15.19,0,0,0,1.06-3.94,16.42,16.42,0,0,0-.46-6.89,12.16,12.16,0,0,0-2.13-4.15,9.72,9.72,0,0,0-.85-1C461.75,158.74,461.65,158.62,461.66,158.6Z"/><g class="cls-9"><path d="M475.45,222.87c-3.94-1.8-7.05-5.92-7.17-10.09a4.16,4.16,0,0,1,1-3.12c1.16-1.15,3.13-.94,4.58-.17,2.39,1.25,3.95,3.6,5.63,5.71s3.8,4.19,6.49,4.45a17.44,17.44,0,0,0,3.45-.26,5.84,5.84,0,0,1,3.39.41,2.55,2.55,0,0,1,1.4,2.86s-4.72,2.94-9.64,2.59A27.81,27.81,0,0,1,475.45,222.87Z"/></g><path class="cls-7" d="M461.63,236.23a9,9,0,0,1,1.54.36c1,.28,2.41.64,4.18,1s3.91.75,6.29,1a76.92,76.92,0,0,0,7.78.47,75,75,0,0,0,7.79-.43c2.38-.28,4.51-.63,6.29-1s3.2-.72,4.18-1a10.7,10.7,0,0,1,1.55-.36,8.46,8.46,0,0,1-1.49.55c-1,.33-2.39.74-4.16,1.16a60.22,60.22,0,0,1-6.32,1.13,62.33,62.33,0,0,1-15.68-.05,58.91,58.91,0,0,1-6.31-1.16c-1.77-.43-3.19-.84-4.16-1.18A10.26,10.26,0,0,1,461.63,236.23Z"/></g></g></svg>