<?xml version="1.0" encoding="utf-8"?>
<!-- Generator: Adobe Illustrator 24.3.0, SVG Export Plug-In . SVG Version: 6.00 Build 0)  -->
<svg version="1.1" id="Layer_1" xmlns="http://www.w3.org/2000/svg" xmlns:xlink="http://www.w3.org/1999/xlink" x="0px" y="0px"
	 viewBox="0 0 750 500" style="enable-background:new 0 0 750 500;" xml:space="preserve">
<style type="text/css">
	.st0{fill:#FFC557;}
	.st1{fill:none;stroke:#FFC557;stroke-miterlimit:10;}
	.st2{fill:none;stroke:#648AC9;stroke-width:0.8104;stroke-miterlimit:10;}
	.st3{fill:none;stroke:#95B1DB;stroke-miterlimit:10;}
	.st4{fill:none;stroke:#95B1DB;stroke-width:2;stroke-miterlimit:10;}
	.st5{fill:#839DC9;}
	.st6{fill:#95B1DB;}
	.st7{opacity:0.65;fill:#849CC7;}
	.st8{fill:#E0EBFB;}
	.st9{fill:#CBD9EC;}
	.st10{clip-path:url(#SVGID_2_);}
	.st11{fill:#F38C84;}
	.st12{fill:#FF768F;}
	.st13{opacity:0.2;fill:#FF768F;}
	.st14{fill:#05093D;}
	.st15{fill:#F38C84;stroke:#F38C84;stroke-width:1.1297;stroke-miterlimit:10;}
	.st16{fill:#CA5C3B;}
	.st17{fill:#FFFFFF;}
	.st18{fill:#3A5785;}
	.st19{fill:none;stroke:#FFFFFF;stroke-width:3;stroke-miterlimit:10;}
	.st20{fill:none;stroke:#FFFFFF;stroke-miterlimit:10;}
	.st21{clip-path:url(#SVGID_4_);}
	.st22{fill:#FBB78B;stroke:#FBB78B;stroke-width:1.2036;stroke-linecap:round;stroke-linejoin:round;stroke-miterlimit:10;}
	.st23{fill:#FBB78B;stroke:#FBB78B;stroke-width:1.1709;stroke-miterlimit:10;}
	.st24{fill:#E6795C;stroke:#E6795C;stroke-width:1.1586;stroke-miterlimit:10;}
	.st25{fill:#EB8383;}
	.st26{fill:#FCCC4F;}
	.st27{clip-path:url(#SVGID_6_);}
	.st28{fill:#FCFCFC;}
	.st29{clip-path:url(#SVGID_8_);}
	.st30{fill:#A34E65;}
	.st31{fill:#FFBBAA;stroke:#FFBBAA;stroke-width:1.2122;stroke-linecap:round;stroke-linejoin:round;stroke-miterlimit:10;}
	.st32{fill:#FFBBAA;stroke:#FFBBAA;stroke-width:1.1792;stroke-miterlimit:10;}
	.st33{fill:#F08992;stroke:#F08992;stroke-width:1.1746;stroke-linecap:round;stroke-linejoin:round;stroke-miterlimit:10;}
	.st34{fill:#FFBBAA;stroke:#FFBBAA;stroke-width:1.1626;stroke-miterlimit:10;}
	.st35{fill:#F08992;}
	.st36{fill:#CEDDF4;}
	.st37{fill:#020F2B;}
	.st38{fill:#F1ABA5;}
	.st39{fill:#EC7165;}
	.st40{fill:#F79288;}
	.st41{fill:#F1A9A5;}
	.st42{fill:#FF6E95;}
	.st43{fill:#2D4773;}
	.st44{fill:none;stroke:#FFFFFF;stroke-width:0.3961;stroke-miterlimit:10;}
	.st45{opacity:0.21;}
	.st46{fill:#C20034;}
	.st47{fill:#D15449;}
	.st48{fill:#FF6B82;}
	.st49{fill:#FFEBF1;}
	.st50{opacity:0.6;fill:#4E7A8F;}
	.st51{fill:#FAFAFA;}
	.st52{fill:#F0A5A9;}
	.st53{fill:#E6777D;}
	.st54{fill:none;stroke:#FFFFFF;stroke-width:0.4846;stroke-miterlimit:10;}
	.st55{fill:#D15868;}
	.st56{fill:none;stroke:#020F2B;stroke-width:0.4846;stroke-miterlimit:10;}
	.st57{fill:#020F2B;stroke:#020F2B;stroke-width:0.5144;stroke-miterlimit:10;}
	.st58{fill:#263C61;}
	.st59{fill:#020F2B;stroke:#1D254A;stroke-width:0;stroke-miterlimit:10;}
	.st60{fill:none;stroke:#1D254A;stroke-width:0.5144;stroke-miterlimit:10;}
	.st61{fill:none;stroke:#1D254A;stroke-width:0.328;stroke-miterlimit:10;}
	.st62{fill:none;stroke:#1D254A;stroke-width:0.3361;stroke-miterlimit:10;}
	.st63{fill:#DAE5F7;}
	.st64{fill:#FFFFFF;stroke:#FFFFFF;stroke-width:0.161;stroke-miterlimit:10;}
	.st65{fill:#D8CFCE;}
	.st66{opacity:0.37;fill:#839DC9;}
	.st67{fill:none;stroke:#7289B5;stroke-width:1.03;stroke-miterlimit:10;}
	.st68{fill:#7289B5;}
	.st69{fill:#1B1A4D;stroke:#1B1A4D;stroke-width:0.7725;stroke-linecap:round;stroke-linejoin:round;stroke-miterlimit:10;}
	.st70{opacity:0.74;fill:#FFFFFF;}
	.st71{fill:none;stroke:#FFD375;stroke-width:2.7834;stroke-miterlimit:10;}
	.st72{fill:none;stroke:#FFD375;stroke-width:3.7378;stroke-linecap:round;stroke-miterlimit:10;}
	.st73{fill:#B4CEF7;}
	.st74{fill:none;stroke:#FFFFFF;stroke-width:0.7004;stroke-miterlimit:10;}
	.st75{fill:none;stroke:#FFFFFF;stroke-width:0.7004;stroke-linecap:round;stroke-miterlimit:10;}
	.st76{opacity:0.57;}
	.st77{clip-path:url(#SVGID_10_);fill:#FFFFFF;stroke:#FFFFFF;stroke-width:0.6619;stroke-miterlimit:10;}
</style>
<g>
	<path class="st0" d="M474.2,59.1c0,3.3-2.7,6-6,6c-3.3,0-6-2.7-6-6c0-3.3,2.7-6,6-6C471.5,53.1,474.2,55.8,474.2,59.1z"/>
	<circle class="st1" cx="496.6" cy="87.5" r="4.5"/>
	<path class="st2" d="M605.6,157.3c0,1.3-1,2.3-2.3,2.3c-1.3,0-2.3-1-2.3-2.3c0-1.3,1-2.3,2.3-2.3C604.5,155,605.6,156,605.6,157.3z
		"/>
	<circle class="st0" cx="73" cy="314.6" r="8.3"/>
	<circle class="st0" cx="117.6" cy="70.6" r="4.5"/>
	<circle class="st0" cx="625.8" cy="263.6" r="4"/>
	<line class="st3" x1="63.2" y1="379.3" x2="698.7" y2="379.3"/>
	<circle class="st4" cx="101.1" cy="156.4" r="3.5"/>
	<path class="st5" d="M662.8,309.5c0,2.2-1.8,4-4,4s-4-1.8-4-4c0-2.2,1.8-4,4-4S662.8,307.3,662.8,309.5z"/>
	<path class="st5" d="M681.8,227.8c0,1.2-0.9,2.1-2.1,2.1c-1.2,0-2.1-0.9-2.1-2.1c0-1.2,0.9-2.1,2.1-2.1
		C680.9,225.7,681.8,226.6,681.8,227.8z"/>
</g>
<g>
	<g>
		<path class="st6" d="M390.9,381.6H156.8V101c0-14.4,11.1-26.6,25.4-26.6L390.9,75V381.6z"/>
		<polygon class="st7" points="161.1,381.6 390.9,381.6 390.9,102.9 198,77.4 		"/>
	</g>
	<g>
		<path class="st8" d="M488.3,99.1c0-13.8-11.2-25-25-25H204.5v0.2l-24.7-0.1c15.1,0,24.6,10.6,24.6,23.5l0.1-0.1v292.8
			c0,19.3,15.7,35,35,35h189.8l60-0.8L488.3,99.1z"/>
		<g>
			<g>
				
					<ellipse transform="matrix(0.7071 -0.7071 0.7071 0.7071 -19.6223 224.5167)" class="st9" cx="261.2" cy="135.9" rx="36.3" ry="36.3"/>
				<g>
					<defs>
						
							<ellipse id="SVGID_1_" transform="matrix(0.7071 -0.7071 0.7071 0.7071 -19.6223 224.5167)" cx="261.2" cy="135.9" rx="36.3" ry="36.3"/>
					</defs>
					<clipPath id="SVGID_2_">
						<use xlink:href="#SVGID_1_"  style="overflow:visible;"/>
					</clipPath>
					<g class="st10">
						<g>
							<path class="st11" d="M350.1,147.4c0.4-2.2,0.6-3.6,0.6-3.6s1.4-13-4.3-21.5c-0.8-1.2,1.8,2.6,1.8,2.6s-3.7-5.4-4.6-5.9
								c-0.9-0.4,2.5,5.6,2.5,5.6s-3.8-6.5-4.8-6.4c-1.1,0.1,1.9,7.6,1.9,7.6s-2.3-8.2-3.4-8.2c-1.2,0,0.7,19.4-1.4,17.1
								c-0.7-0.8-3.8-6.1-5.4-5.7c-1.6,0.3,5.8,12.3,5.8,12.3l0,0c0.2,0.4,0,0.9-0.2,1.3L350.1,147.4z"/>
							<g>
								<path class="st12" d="M337.6,142.2l-5.3,14c-3.6,9-12.7,18.3-21.1,15.3l-26.8-9.7c-3-1.5-6.2-2.5-9.2-2.8
									c-0.2-0.1-0.3-0.1-0.3-0.1l-7.3-3.6l-16,3l-5.7,4.2c-14.3,2.7-44.6,12.3-44.6,12.3c6.3,4.4,11.7,12.5,11.7,12.5
									s-1.2,1.9-2.8,4.6c4.3,5.4,9,11,16.6,14.3c1.7,0.8,5.3,1.6,7.4,2.3l-5.4,56.4l59.1,1c0,0,9-40.1,10.7-65.8l1.1,0.4
									c13.8,4.8,29-0.1,39.4-11.9c8.5-9.6,12.7-40.5,12.7-40.5L337.6,142.2z"/>
								<path class="st13" d="M234.1,208.5c-2.2-0.7-5.7-1.5-7.4-2.3c-7.6-3.3-12.3-8.9-16.6-14.3c1.6-2.7,2.8-4.6,2.8-4.6
									L234.1,208.5z"/>
								<path class="st13" d="M298.5,200.1l-38.3,65.5l27.5,0.3C287.8,265.9,297.1,222.4,298.5,200.1z"/>
								<line class="st12" x1="334.4" y1="150.5" x2="349.9" y2="157.7"/>
							</g>
						</g>
						<g>
							<g>
								<path class="st11" d="M266.7,141.2l2.4,17.5c0,0-23.1,18.6-21.7,3.6l2.9-20.5L266.7,141.2z"/>
								<path class="st14" d="M265.1,123.2l2,19.3c0,0-19.2,23.8-17.5,0.5l4.1-20.4L265.1,123.2z"/>
							</g>
							<g>
								<g>
									<g>
										<path class="st15" d="M245.1,131.6l3.3-0.9l0.8,4l-3.3,0.9c-1,0.3-2-0.4-2.2-1.5l0,0C243.4,133,244.1,131.9,245.1,131.6z"
											/>
										<path class="st16" d="M245.4,132.6l1.4-0.4l0.3,1.6l-1.4,0.4c-0.4,0.1-0.8-0.2-0.9-0.6l0,0
											C244.7,133.2,245,132.7,245.4,132.6z"/>
									</g>
									<g>
										<path class="st15" d="M271.4,130.5L268,131l-0.3-4.1l3.4-0.5c1-0.1,2,0.7,2,1.8l0,0C273.2,129.3,272.4,130.4,271.4,130.5z
											"/>
										<path class="st16" d="M271.3,127.7l-1.4,0.2l0.1,1.7l1.4-0.2c0.4-0.1,0.8-0.5,0.7-0.9l0,0
											C272.1,128,271.7,127.7,271.3,127.7z"/>
									</g>
									<path class="st15" d="M258.5,145.6L258.5,145.6c-8.1,0.4-11.5-5-11.6-11.9l0-0.5c-0.1-6.8,3.6-17.7,9.9-18.2l0-0.1
										c6.3-0.5,12.9,9.7,13,16.5l0,0.5C269.9,138.7,267.5,145,258.5,145.6z"/>
								</g>
								<g>
									<path class="st17" d="M259.1,141.1L259.1,141.1c-2.8,0.3-5.1-1.5-5.2-3.9l0-0.3L264,136l0,0.3
										C264.1,138.7,261.9,140.9,259.1,141.1z"/>
									<path class="st14" d="M256.1,131c0,0.5-0.3,0.9-0.7,0.9c-0.4,0-0.7-0.4-0.7-0.9c0-0.5,0.3-0.9,0.7-0.9
										C255.8,130.1,256.1,130.5,256.1,131z"/>
									<path class="st14" d="M262,130.3c0,0.5-0.3,0.9-0.7,0.9c-0.4,0-0.7-0.4-0.7-0.9c0-0.5,0.3-0.9,0.7-0.9
										C261.7,129.4,262,129.8,262,130.3z"/>
									<path class="st16" d="M259.9,134.6l-2.3,0.1c-0.3,0-0.5-0.3-0.4-0.7l0.9-2.9c0.1-0.4,0.5-0.4,0.7-0.1l1.4,2.8
										C260.3,134.2,260.2,134.6,259.9,134.6z"/>
									<path class="st14" d="M252.3,128.4c-0.6,0.6,0.2-1.7,1.1-2.1c0.9-0.4,1.9,0,2.2,0.8C255.7,127.2,253.9,127.1,252.3,128.4z"
										/>
									<path class="st14" d="M263.2,126.7c0.8,0.4-0.6-1.6-1.6-1.8c-1-0.1-1.9,0.5-2,1.3C259.6,126.2,261.3,125.7,263.2,126.7z"/>
								</g>
								<path class="st14" d="M268,118.6c-0.1-0.2-0.2-0.3-0.2-0.5c0.8-0.4,1.3-0.6,1.3-0.6s-1-13.6-2.5-13.8
									c-0.6-0.1-17.3,3.8-21.5,14.9c-0.1,0.3-0.1,0.6,0,0.9c-0.1,0.2-0.2,0.4-0.3,0.7c-0.6,1.7-0.7,3.6-0.5,5.3
									c0.1,0.8,1.6,5.6,2.4,5.7c0.4,0,2.3-6.2,3.4-9.6c1.9,0.2,4.2,0.3,6.4,0c2.6-0.3,5.1-1.1,7.3-1.9c1.6,2.2,5,6.5,5.6,6.5
									C270,126.2,268.5,119.8,268,118.6z"/>
							</g>
						</g>
					</g>
				</g>
			</g>
			<g>
				<path class="st18" d="M316.1,109.4l0.7,2c0.1,0.3,0.4,0.5,0.6,0.5h2.1c0.7,0,0.9,0.8,0.4,1.2l-1.7,1.2c-0.2,0.2-0.3,0.5-0.2,0.8
					l0.7,2c0.2,0.6-0.5,1.1-1,0.8l-1.7-1.2c-0.2-0.2-0.6-0.2-0.8,0l-1.7,1.2c-0.5,0.4-1.2-0.1-1-0.8l0.7-2c0.1-0.3,0-0.6-0.2-0.8
					l-1.7-1.2c-0.5-0.4-0.3-1.2,0.4-1.2h2.1c0.3,0,0.6-0.2,0.6-0.5l0.7-2C315,108.8,315.9,108.8,316.1,109.4z"/>
				<path class="st18" d="M329.9,109.4l0.7,2c0.1,0.3,0.4,0.5,0.6,0.5h2.1c0.7,0,0.9,0.8,0.4,1.2l-1.7,1.2c-0.2,0.2-0.3,0.5-0.2,0.8
					l0.7,2c0.2,0.6-0.5,1.1-1,0.8l-1.7-1.2c-0.2-0.2-0.6-0.2-0.8,0l-1.7,1.2c-0.5,0.4-1.2-0.1-1-0.8l0.7-2c0.1-0.3,0-0.6-0.2-0.8
					l-1.7-1.2c-0.5-0.4-0.3-1.2,0.4-1.2h2.1c0.3,0,0.6-0.2,0.6-0.5l0.7-2C328.8,108.8,329.7,108.8,329.9,109.4z"/>
				<path class="st18" d="M343.7,109.4l0.7,2c0.1,0.3,0.4,0.5,0.6,0.5h2.1c0.7,0,0.9,0.8,0.4,1.2l-1.7,1.2c-0.2,0.2-0.3,0.5-0.2,0.8
					l0.7,2c0.2,0.6-0.5,1.1-1,0.8l-1.7-1.2c-0.2-0.2-0.6-0.2-0.8,0l-1.7,1.2c-0.5,0.4-1.2-0.1-1-0.8l0.7-2c0.1-0.3,0-0.6-0.2-0.8
					l-1.7-1.2c-0.5-0.4-0.3-1.2,0.4-1.2h2.1c0.3,0,0.6-0.2,0.6-0.5l0.7-2C342.6,108.8,343.5,108.8,343.7,109.4z"/>
				<path class="st18" d="M357.5,109.4l0.7,2c0.1,0.3,0.4,0.5,0.6,0.5h2.1c0.7,0,0.9,0.8,0.4,1.2l-1.7,1.2c-0.2,0.2-0.3,0.5-0.2,0.8
					l0.7,2c0.2,0.6-0.5,1.1-1,0.8l-1.7-1.2c-0.2-0.2-0.6-0.2-0.8,0l-1.7,1.2c-0.5,0.4-1.2-0.1-1-0.8l0.7-2c0.1-0.3,0-0.6-0.2-0.8
					l-1.7-1.2c-0.5-0.4-0.3-1.2,0.4-1.2h2.1c0.3,0,0.6-0.2,0.6-0.5l0.7-2C356.4,108.8,357.3,108.8,357.5,109.4z"/>
				<path class="st9" d="M371.3,109.4l0.7,2c0.1,0.3,0.4,0.5,0.6,0.5h2.1c0.7,0,0.9,0.8,0.4,1.2l-1.7,1.2c-0.2,0.2-0.3,0.5-0.2,0.8
					l0.7,2c0.2,0.6-0.5,1.1-1,0.8l-1.7-1.2c-0.2-0.2-0.6-0.2-0.8,0l-1.7,1.2c-0.5,0.4-1.2-0.1-1-0.8l0.7-2c0.1-0.3,0-0.6-0.2-0.8
					l-1.7-1.2c-0.5-0.4-0.3-1.2,0.4-1.2h2.1c0.3,0,0.6-0.2,0.6-0.5l0.7-2C370.2,108.8,371.1,108.8,371.3,109.4z"/>
			</g>
			<path class="st17" d="M382.9,132h-74c-1.9,0-3.5-1.6-3.5-3.5v-1.6c0-1.9,1.6-3.5,3.5-3.5h74c1.9,0,3.5,1.6,3.5,3.5v1.6
				C386.4,130.4,384.8,132,382.9,132z"/>
			<rect x="432.8" y="140.9" class="st19" width="27.3" height="27.3"/>
			<line class="st20" x1="218.7" y1="186.1" x2="458.1" y2="186.1"/>
			<line class="st19" x1="305.8" y1="142.9" x2="413.5" y2="142.9"/>
			<line class="st19" x1="305.8" y1="154.8" x2="413.5" y2="154.8"/>
			<line class="st19" x1="305.8" y1="166.8" x2="413.5" y2="166.8"/>
		</g>
		<g>
			<g>
				
					<ellipse transform="matrix(0.7071 -0.7071 0.7071 0.7071 -92.9866 254.9052)" class="st9" cx="261.2" cy="239.7" rx="36.3" ry="36.3"/>
				<g>
					<defs>
						
							<ellipse id="SVGID_3_" transform="matrix(0.9724 -0.2334 0.2334 0.9724 -48.7718 67.6468)" cx="261.5" cy="239.9" rx="36.3" ry="36.3"/>
					</defs>
					<clipPath id="SVGID_4_">
						<use xlink:href="#SVGID_3_"  style="overflow:visible;"/>
					</clipPath>
					<g class="st21">
						<g>
							<g>
								<g>
									<path class="st14" d="M248.7,221.1c0.7-3.4,2.8-9.9,8.3-11.3c5.4-1.4,10.1-1,15.4,2.6c10.1,7,3.9,43.3,3.9,43.3
										s-3.8,8.3-31.8-2.5C244.6,253.1,247.8,225.6,248.7,221.1z"/>
								</g>
								<g>
									<path class="st22" d="M253.3,234.1c0,0-2.7,20.8-2.9,22.5c0,0,9,10.8,18.2,1.5c0,0-1.6-5-4.4-18L253.3,234.1z"/>
									<path class="st14" d="M260.6,262.9c0,0-0.9,4.4,8.3-4.8c0,0-0.8-4.2-1.4-6.5L260.6,262.9z"/>
									<path class="st14" d="M264.9,240.2c-0.8,2.7-5.4,5-8,4.4c-3.1-0.7-4.5-6.2-4.2-8.6c0.2-1.9,5.6-3,8.1-2.3
										C263.4,234.5,265.7,237.5,264.9,240.2z"/>
								</g>
								<g>
									<g>
										<g>
											<path class="st23" d="M249.3,223.7l3.6,0.6l-0.7,4l-3.6-0.6c-1.1-0.2-1.9-1.3-1.7-2.4v0
												C247.1,224.3,248.2,223.5,249.3,223.7z"/>
											<path class="st24" d="M249,224.8l1.5,0.3l-0.3,1.7l-1.5-0.3c-0.5-0.1-0.8-0.5-0.7-1l0,0C248.1,225,248.5,224.7,249,224.8
												z"/>
										</g>
										<g>
											<path class="st23" d="M272.8,232.2l-3.5-1.1l1.2-3.9l3.5,1.1c1.1,0.3,1.7,1.5,1.3,2.6l0,0
												C275.1,231.9,273.9,232.5,272.8,232.2z"/>
											<path class="st24" d="M273.8,229.4l-1.4-0.5l-0.5,1.6l1.4,0.5c0.4,0.1,0.9-0.1,1.1-0.5l0,0
												C274.4,230,274.2,229.5,273.8,229.4z"/>
										</g>
										<path class="st23" d="M265.5,215.6L265.5,215.6c6.5,2.1,9,8.8,7,15.3l-0.2,0.5c-2.1,6.5-9,10.7-14.5,8.8l0,0
											c-4.2-1.6-9.9-9.6-7.8-16.1l0.2-0.5C252.2,217.2,259,213.6,265.5,215.6z"/>
									</g>
									<g>
										<path class="st17" d="M259.1,235.5l0.5,0.1c1.7,0.4,3.4-0.6,3.8-2.3l0,0l-6.6-1.6l0,0
											C256.4,233.5,257.5,235.1,259.1,235.5z"/>
										<path class="st14" d="M263,229.1c-0.1,0.5,0.1,0.9,0.4,1c0.4,0.1,0.7-0.2,0.9-0.7c0.1-0.5-0.1-0.9-0.4-1
											C263.5,228.3,263.1,228.6,263,229.1z"/>
										<path class="st14" d="M257.9,227.8c-0.1,0.5,0,0.9,0.4,1c0.4,0.1,0.8-0.2,0.9-0.6c0.1-0.5,0-0.9-0.4-1
											C258.5,227.1,258.1,227.4,257.9,227.8z"/>
										<path class="st25" d="M259.5,231.1l1.7,0.5c0.2,0.1,0.4-0.2,0.4-0.4l-0.2-2.4c0-0.3-0.3-0.4-0.5-0.2l-1.5,1.9
											C259.3,230.7,259.3,231.1,259.5,231.1z"/>
										<path class="st14" d="M256.9,225.5c-0.5,0.2,0.6-1,1.3-1c0.7,0,1.2,0.5,1.2,1.1C259.3,225.6,258.2,225.1,256.9,225.5z"/>
										<path class="st14" d="M266.3,227.7c0.4,0.4-0.1-1.2-0.7-1.5c-0.6-0.3-1.3-0.1-1.5,0.4
											C264.1,226.7,265.3,226.7,266.3,227.7z"/>
									</g>
								</g>
								<g>
									<path class="st14" d="M257.9,214.9C253,223,274,228,274,228s3.3-15.8-14.2-16.3C248.6,211.4,258.4,214.1,257.9,214.9z"/>
									<path class="st14" d="M259.4,214.7c0,0-5.1,7.2-6.4,8.4c-1.5,1.4-3.8-0.2-3.8-0.2S250,211.7,259.4,214.7z"/>
								</g>
								<g>
									<g>
										<path class="st26" d="M278.5,237.7c0,2.4-1.9,4.3-4.3,4.3s-4.3-1.9-4.3-4.3c0-2.4,1.9-4.3,4.3-4.3
											S278.5,235.3,278.5,237.7z"/>
										<path class="st26" d="M274.5,232.9c0,0.5-0.4,0.9-0.9,0.9s-0.9-0.4-0.9-0.9c0-0.5,0.4-0.9,0.9-0.9
											S274.5,232.4,274.5,232.9z"/>
									</g>
									<g>
										<path class="st26" d="M250,234.5c-1.1,2.1-3.7,2.8-5.8,1.7c-2.1-1.1-2.8-3.7-1.7-5.8c1.1-2.1,3.7-2.8,5.8-1.7
											C250.4,229.9,251.1,232.5,250,234.5z"/>
										<path class="st26" d="M248.7,228.3c-0.2,0.4-0.7,0.6-1.2,0.3c-0.4-0.2-0.6-0.7-0.3-1.2c0.2-0.4,0.7-0.6,1.2-0.3
											C248.8,227.4,249,227.9,248.7,228.3z"/>
									</g>
								</g>
							</g>
							<g>
								<g>
									<path class="st26" d="M296.9,280.2l-9.2-22.6c-3.2-4.9-6.1-6.3-10-5.8c-1.3,0.2-2.3,0.5-3.2,1l-6.3,1.2
										c-9.2,6.2-17.3-2.9-17.3-2.9c-7-5.5-22,5-22,5l1.7,9.7c0,0,6.5,24.2,6.5,25c0.4,7.6-0.1,20.8,0,20.6
										c0.1-0.2,40.8,5.2,41.1,4.6c0.3-0.6,0.4-5.2,1.1-21.8c0.1-2.2,0.1-4.3,0.1-6.5L296.9,280.2z"/>
									<g>
										<defs>
											<path id="SVGID_5_" d="M296.9,280.2l-9.2-22.6c-3.2-4.9-6.1-6.3-10-5.8c-1.3,0.2-2.3,0.5-3.2,1l-6.3,1.2
												c-9.2,6.2-17.3-2.9-17.3-2.9c-7-5.5-24.5,5-24.5,5l4.2,9.7c0,0,6.5,24.2,6.5,25c0.4,7.6-0.1,20.8,0,20.6
												c0.1-0.2,40.8,5.2,41.1,4.6c0.3-0.6,0.4-5.2,1.1-21.8c0.1-2.2,0.1-4.3,0.1-6.5L296.9,280.2z"/>
										</defs>
										<clipPath id="SVGID_6_">
											<use xlink:href="#SVGID_5_"  style="overflow:visible;"/>
										</clipPath>
										<g class="st27">
											<g>
												<g>
													<path class="st17" d="M257.6,313.1c-12.1-9.8-25.1-21.8-25.9-38.5c-0.2,0.1-0.5,0.3-0.7,0.4
														c7.2,3.1,14.7,6.3,20.6,11.7c3,2.8,5.6,6.1,7.9,9.5c2.2,3.3,4.4,6.7,6.2,10.3c2.2,4.2,3.9,8.5,4.9,13.2
														c0.1,0.6,1.1,0.4,0.9-0.3c-1.7-8.2-5.9-15.6-10.5-22.6c-2.2-3.3-4.5-6.6-7.3-9.4c-2.8-2.8-6.1-5.2-9.5-7.2
														c-4.1-2.3-8.4-4.2-12.7-6c-0.3-0.1-0.8,0-0.7,0.4c0.8,16.9,13.8,29.3,26.2,39.2C257.4,314.2,258.1,313.5,257.6,313.1
														L257.6,313.1z"/>
												</g>
											</g>
											<g>
												<g>
													<path class="st17" d="M226.1,244.1c10.4,17.1,21.7,34.8,39.4,45.1c4.6,2.7,9.6,4.7,14.8,6c0.4,0.1,0.7-0.3,0.6-0.7
														c-8.5-18.5-20.9-35.2-36.2-48.6c-4.3-3.8-8.8-7.7-14.2-9.9c-0.6-0.2-0.8,0.7-0.3,0.9c4.9,2.1,9.1,5.6,13.1,9.1
														c3.7,3.2,7.3,6.7,10.7,10.3c6.8,7.3,12.9,15.3,18.1,23.8c2.9,4.8,5.6,9.8,7.9,14.9c0.2-0.2,0.4-0.5,0.6-0.7
														c-19.4-4.7-33.6-19.9-44.3-35.8c-3.3-4.8-6.3-9.8-9.3-14.8C226.6,243.1,225.7,243.6,226.1,244.1L226.1,244.1z"/>
												</g>
											</g>
											<g>
												<g>
													<path class="st17" d="M271.4,253.5c1.6,7.6,5.4,14.8,11.4,19.8c6,5,13.9,7.4,21.6,6.3c0.6-0.1,0.4-1-0.3-0.9
														c-7.6,1.1-15.5-1.5-21.2-6.6c-5.6-4.9-9.1-11.7-10.5-18.9C272.2,252.6,271.3,252.9,271.4,253.5L271.4,253.5z"/>
												</g>
											</g>
										</g>
									</g>
								</g>
							</g>
						</g>
					</g>
				</g>
			</g>
			<g>
				<path class="st18" d="M316.1,213.2l0.7,2c0.1,0.3,0.4,0.5,0.6,0.5h2.1c0.7,0,0.9,0.8,0.4,1.2l-1.7,1.2c-0.2,0.2-0.3,0.5-0.2,0.8
					l0.7,2c0.2,0.6-0.5,1.1-1,0.8l-1.7-1.2c-0.2-0.2-0.6-0.2-0.8,0l-1.7,1.2c-0.5,0.4-1.2-0.1-1-0.8l0.7-2c0.1-0.3,0-0.6-0.2-0.8
					l-1.7-1.2c-0.5-0.4-0.3-1.2,0.4-1.2h2.1c0.3,0,0.6-0.2,0.6-0.5l0.7-2C315,212.5,315.9,212.5,316.1,213.2z"/>
				<path class="st18" d="M329.9,213.2l0.7,2c0.1,0.3,0.4,0.5,0.6,0.5h2.1c0.7,0,0.9,0.8,0.4,1.2l-1.7,1.2c-0.2,0.2-0.3,0.5-0.2,0.8
					l0.7,2c0.2,0.6-0.5,1.1-1,0.8l-1.7-1.2c-0.2-0.2-0.6-0.2-0.8,0l-1.7,1.2c-0.5,0.4-1.2-0.1-1-0.8l0.7-2c0.1-0.3,0-0.6-0.2-0.8
					l-1.7-1.2c-0.5-0.4-0.3-1.2,0.4-1.2h2.1c0.3,0,0.6-0.2,0.6-0.5l0.7-2C328.8,212.5,329.7,212.5,329.9,213.2z"/>
				<path class="st18" d="M343.7,213.2l0.7,2c0.1,0.3,0.4,0.5,0.6,0.5h2.1c0.7,0,0.9,0.8,0.4,1.2l-1.7,1.2c-0.2,0.2-0.3,0.5-0.2,0.8
					l0.7,2c0.2,0.6-0.5,1.1-1,0.8l-1.7-1.2c-0.2-0.2-0.6-0.2-0.8,0l-1.7,1.2c-0.5,0.4-1.2-0.1-1-0.8l0.7-2c0.1-0.3,0-0.6-0.2-0.8
					l-1.7-1.2c-0.5-0.4-0.3-1.2,0.4-1.2h2.1c0.3,0,0.6-0.2,0.6-0.5l0.7-2C342.6,212.5,343.5,212.5,343.7,213.2z"/>
				<path class="st18" d="M357.5,213.2l0.7,2c0.1,0.3,0.4,0.5,0.6,0.5h2.1c0.7,0,0.9,0.8,0.4,1.2l-1.7,1.2c-0.2,0.2-0.3,0.5-0.2,0.8
					l0.7,2c0.2,0.6-0.5,1.1-1,0.8l-1.7-1.2c-0.2-0.2-0.6-0.2-0.8,0l-1.7,1.2c-0.5,0.4-1.2-0.1-1-0.8l0.7-2c0.1-0.3,0-0.6-0.2-0.8
					l-1.7-1.2c-0.5-0.4-0.3-1.2,0.4-1.2h2.1c0.3,0,0.6-0.2,0.6-0.5l0.7-2C356.4,212.5,357.3,212.5,357.5,213.2z"/>
				<path class="st18" d="M371.3,213.2l0.7,2c0.1,0.3,0.4,0.5,0.6,0.5h2.1c0.7,0,0.9,0.8,0.4,1.2l-1.7,1.2c-0.2,0.2-0.3,0.5-0.2,0.8
					l0.7,2c0.2,0.6-0.5,1.1-1,0.8l-1.7-1.2c-0.2-0.2-0.6-0.2-0.8,0l-1.7,1.2c-0.5,0.4-1.2-0.1-1-0.8l0.7-2c0.1-0.3,0-0.6-0.2-0.8
					l-1.7-1.2c-0.5-0.4-0.3-1.2,0.4-1.2h2.1c0.3,0,0.6-0.2,0.6-0.5l0.7-2C370.2,212.5,371.1,212.5,371.3,213.2z"/>
			</g>
			<path class="st17" d="M382.9,235.7h-74c-1.9,0-3.5-1.6-3.5-3.5v-1.6c0-1.9,1.6-3.5,3.5-3.5h74c1.9,0,3.5,1.6,3.5,3.5v1.6
				C386.4,234.1,384.8,235.7,382.9,235.7z"/>
			<rect x="432.8" y="244.6" class="st19" width="27.3" height="27.3"/>
			<line class="st20" x1="218.7" y1="289.8" x2="458.1" y2="289.8"/>
			<line class="st19" x1="305.8" y1="246.6" x2="413.5" y2="246.6"/>
			<line class="st19" x1="305.8" y1="258.6" x2="413.5" y2="258.6"/>
			<line class="st19" x1="305.8" y1="270.6" x2="413.5" y2="270.6"/>
		</g>
		<g>
			<g>
				
					<ellipse transform="matrix(0.7071 -0.7071 0.7071 0.7071 -166.8212 285.4885)" class="st28" cx="261.2" cy="344.1" rx="36.3" ry="36.3"/>
				<g>
					<defs>
						
							<ellipse id="SVGID_7_" transform="matrix(0.7071 -0.7071 0.7071 0.7071 -166.8212 285.4885)" cx="261.2" cy="344.1" rx="36.3" ry="36.3"/>
					</defs>
					<clipPath id="SVGID_8_">
						<use xlink:href="#SVGID_7_"  style="overflow:visible;"/>
					</clipPath>
					<g class="st29">
						<g>
							<g>
								<path class="st30" d="M256,317.5c0,0-14.5,5.7-18.9,21.3c-4.5,15.7-10.7,29.9-22.1,30.8c-11.5,0.8-23.5,9-24.2,11.4
									c-0.7,2.5,37,56.6,68.4,43.3l4-28.5l0.5,22.2c0,0,1,4.2,12.1-3.1C286.9,407.6,290.3,307.9,256,317.5z"/>
								<g>
									<g>
										<path class="st30" d="M264,317.3c-6.4-1.6-13.3-0.3-18.8,3.3c-5.9,3.9-9.1,10.1-10.7,16.8c-1.7,7-2,14.4-4.5,21.2
											c-1.3,3.7-3.4,7.2-6.9,9c-3.3,1.7-7.3,2-11,1.9c-4.6,0-9.4-0.5-13.9,0.9c-3.8,1.1-7.3,3.5-9.8,6.6c-0.8,1,0.6,2.5,1.4,1.4
											c2.2-2.8,5.2-5,8.7-6c4-1.2,8.3-0.9,12.4-0.9c7.1,0.1,14.5-0.8,18.6-7.3c7.6-11.9,3.1-28.8,13.5-39.3
											c5.3-5.3,13.3-7.6,20.5-5.8C264.7,319.6,265.3,317.6,264,317.3L264,317.3z"/>
									</g>
								</g>
							</g>
							<g>
								<path class="st31" d="M267.9,341c0,0,2.5,21.7,2.9,23.4c0,0-6.6,7.4-16.1,2.1c0,0,1-6.4,2.7-19.7L267.9,341z"/>
								<path class="st14" d="M258.8,327L258.8,327c-4.2,0.9-5.7,7.3-4.1,14.3l0.1,0.5c1.5,6.9,5.9,10.5,9.4,10.7
									c2.9,0.2,6-6.6,4.5-13.5l0.4-1.1C267.5,331,262.9,326.1,258.8,327z"/>
							</g>
							<g>
								<g>
									<g>
										<path class="st32" d="M250.3,339.2l3.5-1.2l-1.3-3.9l-3.5,1.2c-1.1,0.4-1.7,1.5-1.3,2.6l0,0
											C248,339,249.2,339.6,250.3,339.2z"/>
										<path class="st32" d="M274.2,329.5l-3.6,1l1.1,4l3.6-1c1.1-0.3,1.7-1.5,1.4-2.5l0,0C276.5,329.8,275.3,329.2,274.2,329.5z
											"/>
										<path class="st33" d="M274.7,330.5l-1.5,0.4l0.5,1.6l1.5-0.4c0.5-0.1,0.7-0.6,0.6-1l0,0
											C275.6,330.6,275.1,330.4,274.7,330.5z"/>
										<path class="st33" d="M249.3,336.4l1.4-0.5l0.6,1.6l-1.4,0.5c-0.4,0.2-0.9-0.1-1.1-0.5l0,0
											C248.6,337,248.8,336.6,249.3,336.4z"/>
									</g>
									<path class="st34" d="M258.8,322.8L258.8,322.8c-6.7,1.6-9.8,8-8.3,14.5l0.1,0.5c1.5,6.5,9.7,11.6,14,10.5
										c4.4-1.2,10.5-9.6,9-16.1l-0.1-0.5C272,325.3,265.5,321.3,258.8,322.8z"/>
								</g>
								<g>
									<path class="st17" d="M263.4,342.8l0.5-0.1c1.7-0.5,2.8-2.2,2.3-4l0,0l-6.8,1.8l0,0C259.9,342.3,261.7,343.3,263.4,342.8z"
										/>
									<path class="st14" d="M263.8,335c0.1,0.5,0.5,0.8,0.9,0.7c0.4-0.1,0.6-0.6,0.4-1.1c-0.1-0.5-0.5-0.8-0.9-0.7
										C263.8,334,263.6,334.5,263.8,335z"/>
									<path class="st14" d="M258.5,336.4c0.1,0.5,0.5,0.8,0.9,0.8c0.4-0.1,0.6-0.5,0.5-1c-0.1-0.5-0.5-0.8-0.9-0.8
										C258.7,335.4,258.4,335.9,258.5,336.4z"/>
									<path class="st35" d="M261.6,338.6l1.8-0.4c0.2-0.1,0.3-0.4,0.2-0.6l-1.3-2.1c-0.2-0.3-0.5-0.2-0.5,0.1l-0.5,2.5
										C261.1,338.4,261.4,338.6,261.6,338.6z"/>
									<path class="st14" d="M256.4,334.8c-0.4,0.4,0-1.2,0.7-1.5c0.6-0.3,1.3-0.1,1.6,0.4C258.6,333.7,257.4,333.7,256.4,334.8z"
										/>
									<path class="st14" d="M266.1,332.1c0.6,0.2-0.6-1-1.3-1c-0.7,0-1.2,0.6-1.2,1.2C263.6,332.3,264.7,331.7,266.1,332.1z"/>
								</g>
							</g>
						</g>
						<g>
							<g>
								<path class="st12" d="M271,363.1c-2.2,3.5-9.3,6.4-16.1-4c0,0-11.1-7.1-19.2,6.1c-7.3,11.9-7.3,12.3-7.3,12.3l15.1,12.9
									l1,28l43.2,1.4c0,0-4.6-20-3.8-23.2c0.1-0.5,13.3-22.1,13.3-22.1S280,348.8,271,363.1z"/>
								<line class="st12" x1="244.2" y1="408" x2="284.6" y2="409.1"/>
							</g>
						</g>
						<path class="st30" d="M249.4,334.2c0,0,7.6-2.4,9.4-11.3c0,0,8.1,7.7,14.6,6.3c0,0-6.4-11.8-15.2-8.2
							C249.3,324.6,249.4,330,249.4,334.2z"/>
					</g>
				</g>
			</g>
			<g>
				<path class="st18" d="M316.1,317.6l0.7,2c0.1,0.3,0.4,0.5,0.6,0.5h2.1c0.7,0,0.9,0.8,0.4,1.2l-1.7,1.2c-0.2,0.2-0.3,0.5-0.2,0.8
					l0.7,2c0.2,0.6-0.5,1.1-1,0.8l-1.7-1.2c-0.2-0.2-0.6-0.2-0.8,0l-1.7,1.2c-0.5,0.4-1.2-0.1-1-0.8l0.7-2c0.1-0.3,0-0.6-0.2-0.8
					l-1.7-1.2c-0.5-0.4-0.3-1.2,0.4-1.2h2.1c0.3,0,0.6-0.2,0.6-0.5l0.7-2C315,317,315.9,317,316.1,317.6z"/>
				<path class="st18" d="M329.9,317.6l0.7,2c0.1,0.3,0.4,0.5,0.6,0.5h2.1c0.7,0,0.9,0.8,0.4,1.2l-1.7,1.2c-0.2,0.2-0.3,0.5-0.2,0.8
					l0.7,2c0.2,0.6-0.5,1.1-1,0.8l-1.7-1.2c-0.2-0.2-0.6-0.2-0.8,0l-1.7,1.2c-0.5,0.4-1.2-0.1-1-0.8l0.7-2c0.1-0.3,0-0.6-0.2-0.8
					l-1.7-1.2c-0.5-0.4-0.3-1.2,0.4-1.2h2.1c0.3,0,0.6-0.2,0.6-0.5l0.7-2C328.8,317,329.7,317,329.9,317.6z"/>
				<path class="st18" d="M343.7,317.6l0.7,2c0.1,0.3,0.4,0.5,0.6,0.5h2.1c0.7,0,0.9,0.8,0.4,1.2l-1.7,1.2c-0.2,0.2-0.3,0.5-0.2,0.8
					l0.7,2c0.2,0.6-0.5,1.1-1,0.8l-1.7-1.2c-0.2-0.2-0.6-0.2-0.8,0l-1.7,1.2c-0.5,0.4-1.2-0.1-1-0.8l0.7-2c0.1-0.3,0-0.6-0.2-0.8
					l-1.7-1.2c-0.5-0.4-0.3-1.2,0.4-1.2h2.1c0.3,0,0.6-0.2,0.6-0.5l0.7-2C342.6,317,343.5,317,343.7,317.6z"/>
				<path class="st9" d="M357.5,317.6l0.7,2c0.1,0.3,0.4,0.5,0.6,0.5h2.1c0.7,0,0.9,0.8,0.4,1.2l-1.7,1.2c-0.2,0.2-0.3,0.5-0.2,0.8
					l0.7,2c0.2,0.6-0.5,1.1-1,0.8l-1.7-1.2c-0.2-0.2-0.6-0.2-0.8,0l-1.7,1.2c-0.5,0.4-1.2-0.1-1-0.8l0.7-2c0.1-0.3,0-0.6-0.2-0.8
					l-1.7-1.2c-0.5-0.4-0.3-1.2,0.4-1.2h2.1c0.3,0,0.6-0.2,0.6-0.5l0.7-2C356.4,317,357.3,317,357.5,317.6z"/>
				<path class="st9" d="M371.3,317.6l0.7,2c0.1,0.3,0.4,0.5,0.6,0.5h2.1c0.7,0,0.9,0.8,0.4,1.2l-1.7,1.2c-0.2,0.2-0.3,0.5-0.2,0.8
					l0.7,2c0.2,0.6-0.5,1.1-1,0.8l-1.7-1.2c-0.2-0.2-0.6-0.2-0.8,0l-1.7,1.2c-0.5,0.4-1.2-0.1-1-0.8l0.7-2c0.1-0.3,0-0.6-0.2-0.8
					l-1.7-1.2c-0.5-0.4-0.3-1.2,0.4-1.2h2.1c0.3,0,0.6-0.2,0.6-0.5l0.7-2C370.2,317,371.1,317,371.3,317.6z"/>
			</g>
			<path class="st17" d="M382.9,340.1h-74c-1.9,0-3.5-1.6-3.5-3.5V335c0-1.9,1.6-3.5,3.5-3.5h74c1.9,0,3.5,1.6,3.5,3.5v1.6
				C386.4,338.5,384.8,340.1,382.9,340.1z"/>
			<rect x="432.8" y="349" class="st19" width="27.3" height="27.3"/>
			<line class="st20" x1="218.7" y1="394.3" x2="458.1" y2="394.3"/>
			<line class="st19" x1="305.8" y1="351" x2="413.5" y2="351"/>
			<line class="st19" x1="305.8" y1="363" x2="413.5" y2="363"/>
			<line class="st19" x1="305.8" y1="375" x2="413.5" y2="375"/>
		</g>
	</g>
	<path class="st36" d="M235,425.5c9.4,0,22.9-12.6,22.9-21.9h258.4c0,0-1,21.9-25.9,21.9H235"/>
</g>
<g>
	<g>
		<g>
			<path class="st37" d="M570.3,244.4l-18.5-79.6c-0.3-2.1,3.5-7.1,5.3-8.1c5-2.9,11.2-3.3,16.8-2.1c18.4,3.8,34,77.2,30.9,75.5
				c0,0-27.6,14.4-36.5,8.5"/>
			<path class="st38" d="M571.8,171.7c0,0.3,0.2,0.5,0.5,0.5c1.2,0,3.8-0.3,4.2,2.8c0.4,3.1-2.5,4.8-4.3,4.9c-0.5,0-1.7,0.1-2,0.5
				c-1.1,1.1-1.6,3.7-2.4,6.8c-1.8,6.9,3.6,10.1,3.6,10.1s-18.1,8.9-17.9,0c0,0,1.4-16.4,1.3-16.5c-1.4-1.4-6.9-2-3.5-13.7
				c3.2-10.8,11.1-10.1,13.2-9.7C566.3,157.6,572.2,158,571.8,171.7z"/>
			<path class="st37" d="M559,156.2c0,0,11.1,14.7,13,15.9C572,172.1,579.6,154.2,559,156.2z"/>
			<g>
				<path class="st39" d="M575.2,175.9c0,0-1.8-3.8-4.1,1.3"/>
				<path class="st40" d="M561.7,171.7c-1.5,0-2.7,1.2-2.8,2.7c0,1.5,1.2,2.7,2.7,2.8c1.5,0,2.7-1.2,2.8-2.7
					C564.4,173,563.2,171.8,561.7,171.7z"/>
				<path class="st40" d="M550.4,172.8c1.2-0.2,2.2-1.3,2.2-2.6c0-1-0.5-1.9-1.3-2.4C551.3,167.7,550.1,170.8,550.4,172.8z"/>
				<path class="st17" d="M552.7,171.4l4.1,2.1c0,0-2,1.5-3.1,0.7C552.6,173.3,552.7,171.4,552.7,171.4z"/>
				<path class="st39" d="M555.9,168.3l-0.7,3l-1.4-0.6c-0.3-0.1-0.3-0.5-0.1-0.7L555.9,168.3z"/>
				<path d="M561.2,167.2c0.4,0.5,0.2-1.3-0.4-1.7c-0.6-0.4-1.4-0.3-1.7,0.2C559,165.8,560.3,166,561.2,167.2z"/>
				<path d="M553.4,164.3c-0.6,0.2,0.7-1.1,1.4-1c0.7,0.1,1.3,0.6,1.2,1.2C555.9,164.5,554.8,163.9,553.4,164.3z"/>
				<path d="M558.8,169.4c-0.2,0.5-0.6,0.8-0.8,0.7c-0.2-0.1-0.3-0.6-0.1-1.1c0.2-0.5,0.6-0.8,0.8-0.7
					C559,168.4,559,168.9,558.8,169.4z"/>
				<path d="M554.9,167.6c-0.2,0.5-0.5,0.8-0.8,0.7c-0.2-0.1-0.3-0.6-0.1-1c0.2-0.5,0.5-0.8,0.8-0.7S555.1,167.1,554.9,167.6z"/>
				<path d="M554.9,180.7c0,0,5.2,1,7.8,0.8C565.2,181.4,552.2,196.4,554.9,180.7z"/>
			</g>
		</g>
		<ellipse class="st5" cx="591.3" cy="442.6" rx="54" ry="3.1"/>
		<g>
			<path class="st41" d="M557.7,419.6l-1.9,13.3c0,0-3,8.9-5.8,5.4c-2.8-3.4-5.6-5.2-5.6-5.2l-0.9-13.9L557.7,419.6z"/>
			<path class="st40" d="M550.4,420.1l-0.5,18.2c0,0,8.9,1.3,5.6-4.6l1.9-12.6L550.4,420.1z"/>
			<path class="st41" d="M602.3,418.6l4.2,13.3c0,0,3.2,2.8,4.3,2.7c2.1-0.1,3.2-3.7,3.2-3.7l0.3-12.3H602.3z"/>
			<path class="st40" d="M608.3,415l2.9,22c0,0,6,1.6,2.7-4.4l0.7-16.9L608.3,415z"/>
			<path class="st42" d="M543.5,433.1l-11.2,9.1c-0.6,0.4-0.2,1.1,0.7,1.1l16.5,0.1c0.4,0,0.8-0.2,0.9-0.4l1.2-2.6
				c0.4-0.7,1.1-0.8,1,0l0.6,2.5c0,0.4,3.9,0.3,3.9-0.1c0.2-2.2-0.2-9.4-0.6-11.4c-0.1-0.3-0.3-0.5-0.7-0.6l0,0
				c-0.4-0.1-0.7,0-0.9,0.3c-1.1,1.1-4.7,4.3-6.6,3.7c-1.3-0.4-2.9-1.2-3.4-1.7C544.5,432.8,543.9,432.8,543.5,433.1z"/>
			<path class="st42" d="M614.1,430.4l6.3,10.6c0.7,1,0.3,2.3-0.9,3c-2,1.2-3.6,3.5-4.9,3.6c-2.3,0.1-5.8-2.3-7.8-3.2
				c-1.4-0.6-2.4-1.5-2.3-2.6l1.6-10.7c0-0.1,0.3-0.2,0.4-0.1l2.4,2.2c0.8,0.7,3,0.6,3.5-0.2c0.4-0.6,1.3-2.6,1.3-2.6
				C613.8,430.3,614,430.3,614.1,430.4z"/>
		</g>
		<g>
			<path class="st43" d="M580.4,243.1c5.1,9.1,7.8,15.7,10.8,27.2c3.4,13.4,40.4,126.4,42,150.7c-4.2,1-32.2,0.9-34.8,0.7
				c-8.5-24.3-29.9-103-33.5-118.3c-0.6-2.3-4.2-1.8-3.9,0.6c2.1,17.4,13.2,90.9,18.7,117.8c-2.2,1.1-34.3,0.9-36.8,0.6
				c-2.8-29.9-17.5-143.2,4.7-180C557.7,241,570.1,242.8,580.4,243.1z"/>
			<path class="st44" d="M548.9,246.4c0,0-9.1,22.4-9.1,54c0,31.6,10.4,111.7,10.4,111.7"/>
			<line class="st44" x1="611.5" y1="412.1" x2="575.4" y2="245.4"/>
			<path class="st44" d="M569.1,246.2c0,0,0.3,29,13.3,26.7"/>
			<path class="st45" d="M547.7,247l41.8,31.5c0,0,1.7-17-5.7-31L547.7,247z"/>
			<path class="st44" d="M542.1,274.2c13,2.3,10.9-26.5,10.9-26.5"/>
		</g>
		<path class="st46" d="M567.1,193.7c0,0,2.7-0.8,2.2-0.2c-0.4,0.6-1.4,1.2-2.3,1.8L567.1,193.7z"/>
		<line class="st44" x1="577.7" y1="412.3" x2="541.6" y2="412.3"/>
		<line class="st44" x1="632" y1="411.9" x2="594.7" y2="412.3"/>
		<path class="st47" d="M592.8,297.5c0-0.2,0.2-2.6,0.2-2.6l-1.1,3.4L592.8,297.5z"/>
		<path class="st47" d="M586.1,300.8l-0.7,0.6c0,0,0.8,1.4,1.1,1.3C586.5,302.7,585.9,302,586.1,300.8z"/>
		<g>
			<path class="st38" d="M507.4,218.1c0,0,27.3,37.9,33.8,33.4c0,0,7.4-5.2,3.7-26.4c0-2.1,0-3.5,0.1-3.8c0,0,1.6-20.9,5-25.2
				c0.4-0.5,1.5-1.4,1.4-1.4c-10.5-2.6-14.5,23.8-17.4,36c-0.1,0.5-20.2-19-20.2-19s-10.5-13.9-11.2-13.1c-1.1,1.1,3,7.3,3,7.3
				s-0.3,0.7-1.1,1.1c-0.8,0.4-1.2,0.9-1.5,1.9c-0.3,1.1-1.3,1.7-1.5,2.3C501.2,211.8,505.2,216.5,507.4,218.1z"/>
			<path class="st38" d="M513.4,211.6c0,0-2.1-6-3-5.8c-0.9,0.2-4.8,1.9-4.7,3.4c0.1,1.5,3.4,0.3,3.4,0.3s-0.6,3.4,1.1,3.8
				C511.9,213.6,513.4,211.6,513.4,211.6z"/>
			<g>
				<path class="st40" d="M508.1,209.1c0,0,0.1,1.5-1.1,1.8c0,0-0.3,1.6-1.9,1.2c0,0,0.4,0.7-0.5,0.9
					C504.6,213,508.8,217.5,508.1,209.1z"/>
				<g>
					<path class="st39" d="M508.9,206.2c-0.7,0.5-1.5,1-2.2,1.4c-0.4,0.2-0.8,0.4-1.1,0.7c-0.1,0.1-0.3,0.3-0.3,0.3
						c0,0.1,0,0.2,0.1,0.3c0.2,0.2,0.6,0.4,1,0.5c0.4,0.1,0.8,0.1,1.3,0.1c0.2,0,0.4-0.1,0.8,0.2c0.2,0.2,0.1,0.4,0.1,0.5l-0.1,0.3
						c-0.1,0.4-0.3,0.9-0.4,1.3l0,0l0.2-1.3c0-0.2,0.2-0.5,0-0.6c-0.2-0.1-0.4-0.1-0.6-0.1c-0.9,0-1.8-0.1-2.5-0.7
						c-0.2-0.2-0.3-0.4-0.2-0.6c0.1-0.2,0.2-0.4,0.4-0.5c0.4-0.3,0.8-0.4,1.2-0.6L508.9,206.2L508.9,206.2z"/>
				</g>
				<g>
					<path class="st39" d="M505.4,205.7c0.2,0,0.4,0.1,0.5,0.2c0.2,0.1,0.3,0.2,0.4,0.3c0.1,0.1,0.2,0.2,0.3,0.4
						c0.1,0.2,0.1,0.3,0.1,0.5l0,0C506.3,206.7,505.8,206.2,505.4,205.7L505.4,205.7z"/>
				</g>
				<g>
					<path class="st39" d="M503.6,208c0.4,0.3,0.8,0.5,1.1,0.8c0.4,0.3,0.7,0.6,1.1,0.8c0.3,0.3,0.7,0.6,1.1,0.8
						c0.2,0.1,0.3,0.2,0.5,0.3c0.2,0.1,0.4,0,0.6-0.1l0,0c-0.3,0.4-0.9,0.3-1.3,0.1c-0.4-0.2-0.8-0.5-1.2-0.8
						C504.9,209.3,504.2,208.7,503.6,208L503.6,208z"/>
				</g>
				<g>
					<path class="st39" d="M507.1,210.9c0,0.5,0,1.2-0.6,1.6c-0.3,0.2-0.7,0.2-1,0.1c-0.3-0.1-0.6-0.2-0.8-0.4
						c-0.5-0.4-0.8-0.8-1.2-1.2c-0.3-0.4-0.6-0.9-0.9-1.4l0,0c0.3,0.4,0.7,0.8,1.1,1.2c0.4,0.4,0.7,0.8,1.2,1.1
						c0.4,0.3,1,0.6,1.5,0.3C506.8,212,506.9,211.4,507.1,210.9L507.1,210.9z"/>
				</g>
				<g>
					<path class="st39" d="M505.2,211.8c0.1,0.3,0.1,0.7,0,1c-0.1,0.2-0.1,0.4-0.3,0.5c-0.1,0.1-0.3,0.2-0.3,0.2
						c-0.1,0-0.2,0.1-0.3,0.1c-0.4,0.1-0.8-0.1-1.1-0.2c-0.1-0.1-0.3-0.1-0.5-0.3c-0.2-0.1-0.2-0.3-0.3-0.5l0,0
						c0.2,0.3,0.5,0.4,0.8,0.5c0.3,0.1,0.6,0.2,0.9,0.2c0.2,0,0.3,0,0.4-0.1c0.1-0.1,0.2-0.3,0.3-0.4
						C505.1,212.5,505.2,212.2,505.2,211.8L505.2,211.8z"/>
				</g>
			</g>
		</g>
		<path class="st48" d="M551.3,194.7c0,0-6.8-1-9.5,4.6c-2.7,5.5-8.7,30.3-8.7,30.3l-16.7-16l-6.5,11.8c0,0,23.8,30.1,30.7,27.9
			C547.3,251.2,551.4,202.3,551.3,194.7z"/>
		<g>
			<path class="st48" d="M550.2,195.9c0.3,0.7-8.4,21.5-8.1,28.5c0.4,7.1,5.2,19,4.8,20.1c0,0,5.5,4.3,35.8-0.4
				c9.3-8.2,1.1-35.9-2-44.7c0,0-6-3-8.5-3.2C572.2,196.2,562.2,199.4,550.2,195.9z"/>
			<path class="st49" d="M572.3,196.2l-4.3-5.6c0,0-5.1,3.6-12.8,6.3l0.1,2c0.3,4,4.6,6.3,8,4.3
				C566.9,201.1,570.8,198.5,572.3,196.2z"/>
			<path class="st49" d="M554.2,190.2c0,0-1.3,4.9,1.1,6.7l-0.7,1.7c-0.8,2.3-4.2,1.9-4.4-0.5c-0.1-1-0.1-1.8,0.1-2.5L554.2,190.2z"
				/>
		</g>
		<g>
			<path class="st0" d="M575.8,307.5l39.2-25.1L598.7,257l-33.9,21.7c-2.9,1.9-3.8,5.8-1.9,8.8L575.8,307.5z"/>
		</g>
		<g>
			<path class="st50" d="M589.7,262c0,0,6.3,2.9,1.4,20.8c-0.3,0.9-0.5,2-0.3,3l1.1,7.7c0.2,0.8,0.3,1.9-0.4,2.4
				c-0.9,0.6-5.9,5.2-6.5,5.4c-1.2,0.4,0.1-5.7-0.1-8.9c0-0.6-0.2,2-0.2,3.2l-0.2,2.5c-1.5-0.7-1.5-3.6-1.7-4.5
				c-0.3-1.3-0.1-2.1,0.1-2.4c0.7-1.4,2-4.2,2.2-6.8c0.1-1.5-0.9-7-1.8-17.3L589.7,262z"/>
			<path class="st38" d="M590.5,218.4c11.7,65.4,4.1,77.9,3.3,78.4c-1,0.6-6.4,5.7-7.1,5.9c-1.4,0.5,0.1-6.2-0.1-9.7
				c0-0.6-0.2,2.2-0.3,3.5l-0.2,2.7c-1.6-0.7-1.6-3.9-1.9-5c-0.3-1.4-0.1-2.3,0.1-2.7c0.7-1.6,2.2-4.6,2.4-7.4
				c0.1-1.6-11-54.8-12.9-62.6c-2.7-10.6,0.7-22.8,4.4-23.2C583,197.8,589.5,213,590.5,218.4z"/>
			<path class="st48" d="M598.7,280.3c-0.5-2,2-40.2-6.5-65.1c-3.8-11.2-9.3-17.4-13.9-16.9c-3.7,0.4-7.1,12.6-4.4,23.2
				c2,7.8,6.1,42.7,9.5,60.5L598.7,280.3z"/>
		</g>
	</g>
	<g>
		<path class="st0" d="M583.2,146.1l7.8-7.8h29.4c6,0,10.8-4.8,10.8-10.8v-2.3c0-6-4.8-10.8-10.8-10.8h-26.4
			c-6,0-10.8,4.8-10.8,10.8V146.1z"/>
		<g>
			<path class="st51" d="M615.7,126c0,1.5,1.2,2.7,2.7,2.7s2.7-1.2,2.7-2.7c0-1.5-1.2-2.7-2.7-2.7S615.7,124.5,615.7,126z"/>
			<path class="st51" d="M605.8,126c0,1.5,1.2,2.7,2.7,2.7c1.5,0,2.7-1.2,2.7-2.7c0-1.5-1.2-2.7-2.7-2.7
				C607,123.3,605.8,124.5,605.8,126z"/>
			<path class="st51" d="M595.8,126c0,1.5,1.2,2.7,2.7,2.7c1.5,0,2.7-1.2,2.7-2.7c0-1.5-1.2-2.7-2.7-2.7
				C597.1,123.3,595.8,124.5,595.8,126z"/>
		</g>
	</g>
</g>
<g>
	<g>
		<ellipse class="st5" cx="113.2" cy="424.6" rx="62.9" ry="3.6"/>
		<g>
			<polygon class="st52" points="168.5,414.5 166.5,410.7 155.1,411.2 154.8,414.5 160.2,423.9 169.9,416.4 			"/>
			<path class="st53" d="M161.5,411.1L161,420c0,0-3-1.7-6.5-4.8l0.5-5L161.5,411.1z"/>
			<path class="st43" d="M169.2,414.4c0,0-3.4-0.1-7.3,2.9c-2.3,1.8-5.9-1.9-6.9-2.8c-0.2-0.2-0.5,0-0.6,0.3l-1.4,12.4h34.1
				c0.4,0,0.7-0.4,0.7-0.9v-2.6c0-0.4-0.2-0.8-0.5-0.9L169.2,414.4z"/>
			<line class="st54" x1="171.1" y1="415.1" x2="165.6" y2="418.2"/>
			<line class="st54" x1="173.5" y1="416.3" x2="168" y2="419.5"/>
		</g>
		<g>
			<polygon class="st52" points="112.8,414.5 110.9,410.7 100.4,409.2 99.2,414.5 104.6,423.9 114.3,416.4 			"/>
			<path class="st53" d="M104.7,410.9l1,8.3c0,0-3-1.7-6.5-4.8l1-4.3L104.7,410.9z"/>
			<path class="st43" d="M113.5,414.4c0,0-3.4-0.1-7.3,2.9c-2.3,1.8-5.9-1.9-6.9-2.8c-0.2-0.2-0.5,0-0.6,0.3l-1.4,12.4h34.1
				c0.4,0,0.7-0.4,0.7-0.9v-2.6c0-0.4-0.2-0.8-0.5-0.9L113.5,414.4z"/>
			<line class="st54" x1="116.2" y1="415.3" x2="110.7" y2="418.5"/>
			<line class="st54" x1="118.6" y1="416.5" x2="113.1" y2="419.7"/>
		</g>
		<path class="st37" d="M154.4,135.9c2.4-3.8,3.2-9.4-1-11.9c-2.2-1.3-5-1-6.9,0.6c-0.9,0.7-1.6,1.7-2.1,2.7c-0.8-1.2-2.1-2-3.6-2
			c-1.3,0-2.9,1-3.8,2.4c-1.3-0.4-2.8-0.5-4-0.2c-2.9,0.7-3.5,4.6-1.8,6.8c-2.1,2.8-2.7,6.7,0.3,16.5l0,0.1l4,2.2l0.1-0.2l0,0l0,0
			l0.1-0.2l-0.3-0.2l4-13c0.5-0.4,3.9-2.6,5.6-1.2c1.8,1.4,3.8,2.7,5.4,2.1c0.7-0.3,1.3-1,1.8-1.6
			C153.2,138.1,153.9,137.1,154.4,135.9z M152.6,125.3c1.5,0.9,2.2,2.4,2.2,4.1c-0.7-3.2-3.8-4.8-6.8-4
			C149.4,124.6,151.1,124.4,152.6,125.3z M132.7,150.9c0.5,0.1,1.1,0.5,1.8,1.1l-0.9-0.5L132.7,150.9z"/>
		<g>
			<path class="st55" d="M166.3,265.1c0,0,4.4,52.5,4.8,67c0.4,14.5-2.5,79.2-2.5,79.2l-18.3,0.3c0,0-12.8-108.5-30.5-143.5
				L166.3,265.1z"/>
			<path class="st54" d="M144.2,267.8c0,0,12.5,60.7,12.5,70c0,9.3,1.8,73.3,1.8,73.3"/>
			<line class="st54" x1="149.4" y1="404.6" x2="168.8" y2="404.6"/>
		</g>
		<g>
			<path class="st48" d="M166.4,265.1c0,0-10.2,43.8-20.5,74.8c-8.3,25-26.8,73-26.8,73l-20.5-0.5l17.8-71.7
				c0.9-3.7,1.5-7.6,1.8-11.4c0.9-14.5-2.1-43.9-3.3-62.8L166.4,265.1z"/>
			<g>
				<path class="st56" d="M130.8,265.9c0,0,4.8,56.7,0.5,65.6c-4.3,8.8-25.3,80.7-25.3,80.7"/>
				<line class="st56" x1="100.7" y1="405.8" x2="121.2" y2="405.8"/>
				<line class="st56" x1="148" y1="265.4" x2="132.7" y2="285.4"/>
			</g>
		</g>
		<g>
			<path class="st52" d="M141.8,182.4c0,0-0.6-4.7,3.8-5.4c4.4-0.7,16.1-3.8,46,6.4c0,0,5.2-28.9,5.2-31.2c0.1-6.1,2.1-14,6.8-18.2
				c0.4-0.3,0.7,15.1,0.8,23.3c0,0,4,41.5-0.9,45.6C198.7,207.2,137,196.6,141.8,182.4z"/>
			<path class="st43" d="M150.7,175.3c0,0-16.9-2.8-16.4,10.3c0.5,13.1,33.3,22.1,42.3,19.9l-2.8-29.2L150.7,175.3z"/>
			<path class="st57" d="M176.4,205.1c-2.6,3.1-28.3-3.5-31.1-7.7c0,0-0.4-14.4,0.7-14.6C157.1,179.7,176.4,205.1,176.4,205.1z"/>
		</g>
		<g>
			<path class="st43" d="M126.7,173.8c0,0-22.9,2.3-24.4,21.3c-1.4,19,10.4,71.6,10.4,71.6l57.4-1.8l-3.1-65.3
				c-0.2-4.8-1.7-9.5-4.3-13.6c-2.4-3.7-5.2-8-6.8-8.2l-25.7-6.6L126.7,173.8z"/>
			<path class="st58" d="M121.9,180.9c-13.9-5.6-18.9,4.7-19.6,14.2c-1.4,19,10.4,71.6,10.4,71.6l57.4-1.8"/>
		</g>
		<path class="st17" d="M152.3,240c0.1,1,0,1.8-0.4,1.9c-0.3,0-0.7-0.7-0.8-1.7c-0.1-1,0-1.8,0.4-1.9
			C151.8,238.2,152.2,239,152.3,240z"/>
		<g>
			<path class="st52" d="M133.9,156.6l-1.3,12.9l13.3,11.1l2-5.8l-1-10.7l-10.7-9.7c0,0-1.7,1.2-1.9,1.6
				C134,156.5,133.9,156.6,133.9,156.6z"/>
			<path class="st37" d="M136.1,154.5l10.7,9.7l0.8,6.3c0,0-9.7-2.7-10.1-10.7"/>
		</g>
		<g>
			<g>
				<path class="st17" d="M147.8,188.9c0.1,1,0,1.8-0.4,1.9c-0.3,0-0.7-0.7-0.8-1.7c-0.1-1,0-1.8,0.4-1.9
					C147.3,187.2,147.7,187.9,147.8,188.9z"/>
				<path class="st17" d="M148.7,199.1c0.1,1,0,1.8-0.4,1.9c-0.3,0-0.7-0.7-0.8-1.7c-0.1-1,0-1.8,0.4-1.9
					C148.2,197.4,148.6,198.1,148.7,199.1z"/>
				<path class="st17" d="M149.6,209.3c0.1,1,0,1.8-0.4,1.9c-0.3,0-0.7-0.7-0.8-1.7c-0.1-1,0-1.8,0.4-1.9
					C149.1,207.6,149.5,208.3,149.6,209.3z"/>
				<path class="st17" d="M150.5,219.6c0.1,1,0,1.8-0.4,1.9c-0.3,0-0.7-0.7-0.8-1.7c-0.1-1,0-1.8,0.4-1.9
					C150,217.8,150.4,218.6,150.5,219.6z"/>
				<path class="st17" d="M151.4,229.8c0.1,1,0,1.8-0.4,1.9c-0.3,0-0.7-0.7-0.8-1.7c-0.1-1,0-1.8,0.4-1.9
					C150.9,228,151.3,228.8,151.4,229.8z"/>
				<path class="st17" d="M153.2,250.2c0.1,1,0,1.8-0.4,1.9c-0.3,0-0.7-0.7-0.8-1.7c-0.1-1,0-1.8,0.4-1.9
					C152.7,248.4,153.1,249.2,153.2,250.2z"/>
				<path class="st17" d="M154.1,260.4c0.1,1,0,1.8-0.4,1.9c-0.3,0-0.7-0.7-0.8-1.7c-0.1-1,0-1.8,0.4-1.9
					C153.6,258.6,154,259.4,154.1,260.4z"/>
			</g>
			<g>
				<polygon class="st17" points="132.1,168.5 125.1,171.9 142.8,186.9 145.9,180.6 				"/>
				<path class="st17" d="M147.8,173.5c0.3,0.1,3.1,2,3.1,2l0.1,9.5l-5.2-4.4L147.8,173.5z"/>
			</g>
		</g>
		<g>
			<g>
				<path class="st43" d="M163.4,239.3l12.8-40.1c0.7-2.2,2.3-4,4.4-4.9l26.2-11.3c0.8-0.3,1.6,0.4,1.3,1.3l-12.9,39.3
					c-0.7,2.1-2.2,3.8-4.2,4.8l-26.2,12.3C163.9,240.9,163.1,240.2,163.4,239.3z"/>
				<path class="st17" d="M165.6,241.7l12.8-40.1c0.7-2.2,2.3-4,4.4-4.9l26.2-11.3c0.8-0.3,1.6,0.4,1.3,1.3l-12.9,39.3
					c-0.7,2.1-2.2,3.8-4.2,4.8l-26.2,12.3C166.1,243.3,165.3,242.5,165.6,241.7z"/>
				<polygon class="st59" points="172.1,212.3 181.8,215.2 169.6,220.1 				"/>
				<line class="st60" x1="183.5" y1="203.7" x2="206.1" y2="194.1"/>
				<line class="st60" x1="183.5" y1="208" x2="202.2" y2="200.3"/>
				<polygon class="st0" points="173.3,232.1 197.6,221.5 196,226.6 171.3,237.7 				"/>
			</g>
			<path class="st52" d="M181.9,219.4c-1.4,1.3-26.8,27.3-39,39.1c-3.3,3.2-8.6,2.4-10.9-1.6L110.6,221l20.3-15.7
				c0.1,0.2,10.7,18.2,13.2,27.3c0.8,3,2.2,2.7,4.6,1.3l18.5-11.4c0,0,0-3.2,0.4-4.5c0.8-2.3,4.5-5.4,4.5-5.4l-1.6,4.9
				c-0.3,0.8-1.2,1.4,0.3,1.6l11.7-8.7c0,0,1.1-0.1,0.1,1.1c-1,1.2-2.1,2.4-2,2.5c0.1,0.1,3.4-2.2,3.5-1.3c0.1,0.9-2.6,2.9-2.5,3
				c0.1,0.1,3.1-2.4,3.3-1.6c0.2,0.8-2.1,2.4-2.2,2.7c-0.1,0.3,2.5-1.7,2.6-1.2C185.3,215.9,182.7,218.7,181.9,219.4z"/>
			<path class="st43" d="M125.5,189.3c0,0-5.8-16.2-16.9-9.4c-11.1,6.8-2.9,40.1,3.3,46.9l23.9-16.6L125.5,189.3z"/>
		</g>
		<g>
			<path class="st52" d="M135,150.9c-0.1,0.3-0.6,0.4-0.8,0.2c-0.9-0.9-2.6-2-3.2,1.4c-0.8,4.6,4,3.8,4.4,4.5c0.8,1.3,3.3,5.5,7,7.2
				c2.3,1,5.7,1.2,8.1-1.2c2.5-2.4,3.6-0.8,2.6-26.3c0,0-1.1,2.2-2.8,2.8c-1.6,0.6-4.3-1.7-6.1-2.2c-1.5-0.4-4.5-1.5-6.3,3.7
				C137.1,143.3,135.8,148.9,135,150.9z"/>
			<g>
				<path class="st61" d="M152.2,149.3c0,0-0.4-2.1-1.3,0.1"/>
				<path class="st61" d="M144.9,149.5l-11.6,0.3c0,0-2.2-0.2-2.8,1.7"/>
				<ellipse class="st62" cx="154" cy="148.3" rx="1.8" ry="4.1"/>
				<ellipse class="st61" cx="147.9" cy="148.8" rx="3" ry="4.9"/>
			</g>
			<g>
				<path class="st17" d="M153,154.9c0,0-1.5,0.7-5.2,0.4c0,0,2,2.7,3.4,2.2C152.7,157,153,154.9,153,154.9z"/>
				<path class="st53" d="M131.7,152.1l2.6,1.9C134.3,154,133.3,149.4,131.7,152.1z"/>
				<path class="st37" d="M150,149.5c0,0.6-0.2,1-0.5,1c-0.3,0-0.5-0.5-0.5-1c0-0.6,0.2-1,0.5-1C149.8,148.5,150,149,150,149.5z"/>
				<path class="st37" d="M153.2,149c0,0.6-0.2,1-0.5,1c-0.3,0-0.5-0.5-0.5-1c0-0.6,0.2-1,0.5-1C153,148,153.2,148.5,153.2,149z"/>
				<path class="st37" d="M145.9,145.2c-0.7,0.5,0.4-1.8,1.4-2.1s2,0.2,2.2,1.1C149.5,144.2,147.6,143.9,145.9,145.2z"/>
				<path class="st37" d="M153.4,144.9c-1-0.1-1.8,0-1.8,0c0.1-0.8,0.9-1.4,1.8-1.4"/>
				<path class="st53" d="M151.7,149l1.5,4.3c0,0.1,0,0.1-0.1,0.2l-1.8,0.1c-0.1,0-0.1-0.1-0.1-0.1l0.3-4.4
					C151.5,148.9,151.7,148.9,151.7,149z"/>
			</g>
		</g>
	</g>
	<g>
		<path class="st48" d="M120.9,121.4l-7.8-7.8H83.6c-6,0-10.8-4.9-10.8-10.8v-2.4c0-6,4.9-10.8,10.8-10.8H110
			c6,0,10.8,4.9,10.8,10.8V121.4z"/>
		<g>
			<circle class="st51" cx="85.7" cy="101.3" r="2.7"/>
			<path class="st51" d="M98.3,101.3c0,1.5-1.2,2.7-2.7,2.7s-2.7-1.2-2.7-2.7c0-1.5,1.2-2.7,2.7-2.7S98.3,99.8,98.3,101.3z"/>
			<circle class="st51" cx="105.6" cy="101.3" r="2.7"/>
		</g>
	</g>
</g>
<g>
	<g>
		<g>
			
				<ellipse transform="matrix(0.54 -0.8417 0.8417 0.54 86.5689 674.5043)" class="st63" cx="660.3" cy="258.1" rx="23.2" ry="23.2"/>
			<g>
				<path class="st5" d="M668.3,281.2H637c-2.1,0-3.7-1.7-3.7-3.7v-40.5c0-2.1,1.7-3.7,3.7-3.7h31.3c2.1,0,3.7,1.7,3.7,3.7v40.5
					C672,279.5,670.3,281.2,668.3,281.2z"/>
				<g>
					<path class="st64" d="M663,277.2h-23.4c-0.9,0-1.5-0.7-1.5-1.5v-37.3c0-0.8,0.7-1.5,1.5-1.5h26.7c0.9,0,1.5,0.7,1.5,1.5v34
						C667.3,273.1,663.6,276.6,663,277.2z"/>
					<path class="st65" d="M667.3,272.3l-4.8,4.8l-0.1-3.1c0-1,0.8-1.9,1.9-1.9L667.3,272.3z"/>
					<g>
						<g>
							<path class="st5" d="M642.1,238.1L642.1,238.1c-0.8,0-1.5-0.7-1.5-1.5v-4.6c0-0.8,0.7-1.5,1.5-1.5l0,0c0.8,0,1.5,0.7,1.5,1.5
								v4.6C643.6,237.4,643,238.1,642.1,238.1z"/>
							<path class="st66" d="M642.1,240.1L642.1,240.1c-0.8,0-1.5-0.7-1.5-1.5V234c0-0.8,0.7-1.5,1.5-1.5l0,0c0.8,0,1.5,0.7,1.5,1.5
								v4.6C643.6,239.4,643,240.1,642.1,240.1z"/>
						</g>
						<g>
							<path class="st5" d="M651.8,238.1L651.8,238.1c-0.8,0-1.5-0.7-1.5-1.5v-4.6c0-0.8,0.7-1.5,1.5-1.5l0,0c0.8,0,1.5,0.7,1.5,1.5
								v4.6C653.3,237.4,652.6,238.1,651.8,238.1z"/>
							<path class="st66" d="M651.8,240.1L651.8,240.1c-0.8,0-1.5-0.7-1.5-1.5V234c0-0.8,0.7-1.5,1.5-1.5l0,0c0.8,0,1.5,0.7,1.5,1.5
								v4.6C653.3,239.4,652.6,240.1,651.8,240.1z"/>
						</g>
						<g>
							<path class="st5" d="M661.4,238.1L661.4,238.1c-0.8,0-1.5-0.7-1.5-1.5v-4.6c0-0.8,0.7-1.5,1.5-1.5l0,0c0.8,0,1.5,0.7,1.5,1.5
								v4.6C663,237.4,662.3,238.1,661.4,238.1z"/>
							<path class="st66" d="M661.4,240.1L661.4,240.1c-0.8,0-1.5-0.7-1.5-1.5V234c0-0.8,0.7-1.5,1.5-1.5l0,0c0.8,0,1.5,0.7,1.5,1.5
								v4.6C663,239.4,662.3,240.1,661.4,240.1z"/>
						</g>
					</g>
					<g>
						<path class="st67" d="M644.2,256.9c0,0.9-0.7,1.6-1.6,1.6c-0.9,0-1.6-0.7-1.6-1.6c0-0.9,0.7-1.6,1.6-1.6
							C643.5,255.3,644.2,256.1,644.2,256.9z"/>
						<path class="st67" d="M644.2,263.8c0,0.9-0.7,1.6-1.6,1.6c-0.9,0-1.6-0.7-1.6-1.6c0-0.9,0.7-1.6,1.6-1.6
							C643.5,262.2,644.2,262.9,644.2,263.8z"/>
						<path class="st67" d="M644.2,270.6c0,0.9-0.7,1.6-1.6,1.6c-0.9,0-1.6-0.7-1.6-1.6c0-0.9,0.7-1.6,1.6-1.6
							C643.5,269,644.2,269.8,644.2,270.6z"/>
						<g>
							<path class="st68" d="M661.1,257.4h-12.9c-0.4,0-0.7-0.3-0.7-0.7v0c0-0.4,0.3-0.7,0.7-0.7h12.9c0.4,0,0.7,0.3,0.7,0.7v0
								C661.7,257.2,661.5,257.4,661.1,257.4z"/>
							<path class="st68" d="M661.1,264.5h-12.9c-0.4,0-0.7-0.3-0.7-0.7v0c0-0.4,0.3-0.7,0.7-0.7h12.9c0.4,0,0.7,0.3,0.7,0.7v0
								C661.7,264.2,661.5,264.5,661.1,264.5z"/>
							<path class="st68" d="M661.1,271.5h-12.9c-0.4,0-0.7-0.3-0.7-0.7v0c0-0.4,0.3-0.7,0.7-0.7h12.9c0.4,0,0.7,0.3,0.7,0.7v0
								C661.7,271.2,661.5,271.5,661.1,271.5z"/>
						</g>
						<path class="st69" d="M642.7,257.6c-0.1,0-0.2,0-0.3-0.1l-1.7-1.9c-0.2-0.2-0.2-0.5,0-0.6c0.2-0.2,0.4-0.2,0.5,0l1.4,1.6
							l2.4-2.8c0.2-0.2,0.4-0.2,0.5,0c0.2,0.2,0.2,0.5,0,0.6l-2.7,3.1C642.9,257.5,642.8,257.6,642.7,257.6z"/>
						<path class="st69" d="M642.7,264.5c-0.1,0-0.2,0-0.3-0.1l-1.7-1.9c-0.2-0.2-0.2-0.5,0-0.6c0.2-0.2,0.4-0.2,0.5,0l1.4,1.6
							l2.4-2.8c0.2-0.2,0.4-0.2,0.5,0c0.2,0.2,0.2,0.5,0,0.6l-2.7,3.1C642.9,264.4,642.8,264.5,642.7,264.5z"/>
					</g>
				</g>
			</g>
			<g>
				<g>
					<g>
						
							<ellipse transform="matrix(0.973 -0.2309 0.2309 0.973 -41.4658 160.4187)" class="st70" cx="664.8" cy="257.4" rx="11.2" ry="11.2"/>
						
							<ellipse transform="matrix(0.973 -0.2309 0.2309 0.973 -41.4658 160.4187)" class="st71" cx="664.8" cy="257.4" rx="11.2" ry="11.2"/>
						<line class="st72" x1="672.9" y1="265.8" x2="681.6" y2="273.7"/>
					</g>
				</g>
			</g>
		</g>
	</g>
	<g>
		<g>
			<circle class="st73" cx="625.2" cy="170.9" r="17.4"/>
		</g>
		<g>
			<rect x="617" y="174.2" class="st74" width="6.3" height="6.3"/>
			<polyline class="st75" points="618.3,176.5 619.4,178.6 625.5,171.8 			"/>
		</g>
		<g>
			<rect x="617" y="161.6" class="st74" width="6.3" height="6.3"/>
			<polyline class="st75" points="618.3,164 619.4,166 625.5,159.2 			"/>
		</g>
		<g class="st76">
			<defs>
				<circle id="SVGID_9_" class="st76" cx="625.2" cy="170.9" r="17.4"/>
			</defs>
			<clipPath id="SVGID_10_">
				<use xlink:href="#SVGID_9_"  style="overflow:visible;"/>
			</clipPath>
			<path class="st77" d="M643.2,165.7h-14.7c-0.6,0-1.2-0.5-1.2-1.2l0,0c0-0.6,0.5-1.2,1.2-1.2h14.7c0.6,0,1.2,0.5,1.2,1.2l0,0
				C644.4,165.2,643.9,165.7,643.2,165.7z"/>
			<path class="st77" d="M644.4,178.2h-15.8c-0.7,0-1.2-0.5-1.2-1.2l0,0c0-0.7,0.5-1.2,1.2-1.2h15.8c0.7,0,1.2,0.5,1.2,1.2l0,0
				C645.6,177.7,645,178.2,644.4,178.2z"/>
		</g>
	</g>
</g>
</svg>
