<svg xmlns="http://www.w3.org/2000/svg" viewBox="0 0 750 500"><defs><style>.cls-1{fill:#e0e0e0;}.cls-2{fill:#f5f5f5;}.cls-3{fill:#fff;}.cls-4{fill:#2c5eaa;}.cls-5{opacity:0.3;}.cls-6{opacity:0.5;}.cls-7{fill:#f9b44d;}.cls-8{fill:#fa982f;}.cls-9{fill:#ebebeb;}.cls-10{fill:#1a2e35;}.cls-11{fill:#0053c6;}.cls-12{fill:#375a64;}.cls-13{fill:#c78976;}.cls-14{fill:#bf654e;}.cls-15{fill:#ffbf9d;}.cls-16{opacity:0.4;}.cls-17{opacity:0.6;}.cls-18{fill:#ff9a6c;}.cls-19{opacity:0.2;}</style></defs><g id="Character_2" data-name="Character 2"><path class="cls-1" d="M191.82,399.34s0-.57,0-1.64,0-2.67,0-4.75c0-4.17,0-10.29-.06-18.14,0-15.7-.08-38.32-.13-66.1l.24.25L35.19,309h0l.32-.32c0,32.07,0,62.72,0,90.63l-.3-.3,112.66.14,32.36.08,8.63,0,2.23,0,.76,0-.73,0h-2.2l-8.56,0-32.29.08-112.86.15h-.3v-.3c0-27.91,0-58.56,0-90.63v-.32h.33l156.63.07h.25v.25c0,27.84-.1,50.52-.13,66.25,0,7.83-.05,13.93-.06,18.09,0,2.05,0,3.63,0,4.7S191.82,399.34,191.82,399.34Z"/><path class="cls-1" d="M191.88,319.68c0,.18-35,.32-78.24.32s-78.26-.14-78.26-.32,35-.32,78.26-.32S191.88,319.51,191.88,319.68Z"/><rect class="cls-2" x="48.75" y="334.63" width="48.39" height="48.39"/><path class="cls-1" d="M180.46,342.61a3.25,3.25,0,0,1-.71.06l-2,.06-7.5.1-24.76.1-24.77-.1-7.5-.1-2-.06a3.25,3.25,0,0,1-.71-.06,2.8,2.8,0,0,1,.71-.07l2-.06,7.5-.1,24.77-.09,24.76.09,7.5.1,2,.06A2.8,2.8,0,0,1,180.46,342.61Z"/><path class="cls-1" d="M182,353.42a3.42,3.42,0,0,1-.72.06l-2.09.06-7.67.1-25.31.1-25.32-.1-7.67-.1-2.09-.06a3.42,3.42,0,0,1-.72-.06,2.43,2.43,0,0,1,.72-.07l2.09-.06,7.67-.1,25.32-.09,25.31.09,7.67.1,2.09.06A2.43,2.43,0,0,1,182,353.42Z"/><path class="cls-1" d="M182,364.22a2.43,2.43,0,0,1-.72.07l-2.09.06-7.67.1-25.31.09-25.32-.09-7.67-.1-2.09-.06a2.43,2.43,0,0,1-.72-.07,3.42,3.42,0,0,1,.72-.06l2.09-.06,7.67-.1,25.32-.1,25.31.1,7.67.1,2.09.06A3.42,3.42,0,0,1,182,364.22Z"/><path class="cls-1" d="M182,375a3,3,0,0,1-.72.07l-2.09.06-7.67.1-25.31.09-25.32-.09-7.67-.1-2.09-.06a3,3,0,0,1-.72-.07,3.42,3.42,0,0,1,.72-.06l2.09-.06,7.67-.1,25.32-.1,25.31.1,7.67.1,2.09.06A3.42,3.42,0,0,1,182,375Z"/><rect class="cls-3" x="100.39" y="191.74" width="148.64" height="60.37"/><path class="cls-4" d="M249,252.12s0-.37,0-1.08,0-1.76,0-3.13c0-2.76,0-6.8-.05-12,0-10.42,0-25.49-.09-44.15l.17.17L100.4,192h0l.24-.24c0,21.15,0,41.55,0,60.38l-.23-.23L207,252l30.92.06,8.27,0h2.14l.74,0h-.71l-2.11,0-8.23,0-30.86.07-106.73.1h-.22v-.22c0-18.83,0-39.23,0-60.38v-.23h.24l148.63.07h.17v.16c0,18.7-.07,33.81-.09,44.25,0,5.2,0,9.23-.05,12,0,1.36,0,2.39,0,3.1S249,252.12,249,252.12Z"/><path class="cls-4" d="M100.54,199.89c0-.13,33.22-.24,74.2-.24s74.2.11,74.2.24-33.21.23-74.2.23S100.54,200,100.54,199.89Z"/><g class="cls-5"><circle class="cls-4" cx="105.68" cy="196.24" r="1.08"/></g><g class="cls-5"><path class="cls-4" d="M110.46,196.24a1.08,1.08,0,1,1-1.08-1.08A1.08,1.08,0,0,1,110.46,196.24Z"/></g><g class="cls-5"><path class="cls-4" d="M114.1,196.24a1.08,1.08,0,1,1-1.08-1.08A1.08,1.08,0,0,1,114.1,196.24Z"/></g><rect class="cls-4" x="113.02" y="209.7" width="35.9" height="35.9"/><g class="cls-6"><rect class="cls-3" x="113.02" y="209.7" width="35.9" height="35.9"/></g><path class="cls-4" d="M238.75,219.32c0,.13-18.48.23-41.26.23s-41.27-.1-41.27-.23,18.47-.24,41.27-.24S238.75,219.19,238.75,219.32Z"/><path class="cls-4" d="M238.75,226.63c0,.13-18.48.24-41.26.24s-41.27-.11-41.27-.24,18.47-.23,41.27-.23S238.75,226.5,238.75,226.63Z"/><path class="cls-4" d="M209.35,234a2.9,2.9,0,0,1-.54,0l-1.55,0-5.69.07-18.78.07L164,234.11l-5.69-.07-1.55,0a2.9,2.9,0,0,1-.54,0,2.34,2.34,0,0,1,.54,0l1.55,0,5.69-.08,18.79-.07,18.78.07,5.69.08,1.55,0A2.34,2.34,0,0,1,209.35,234Z"/><path class="cls-2" d="M384.71,371.85a22.42,22.42,0,1,1-26.32-17.61A22.39,22.39,0,0,1,384.71,371.85Z"/><path class="cls-7" d="M379.48,372.89a17.08,17.08,0,1,1-20.06-13.43A17.06,17.06,0,0,1,379.48,372.89Z"/><path class="cls-8" d="M379.37,372.36a11,11,0,0,1-.84-1.93,17.94,17.94,0,0,0-2.94-4.75,17.46,17.46,0,0,0-2.82-2.61,17.08,17.08,0,0,0-3.85-2.12,16.09,16.09,0,0,0-2.26-.71,15,15,0,0,0-2.44-.39,15.61,15.61,0,0,0-2.56,0,18,18,0,0,0-2.61.38,18.94,18.94,0,0,0-2.52.79,17.45,17.45,0,0,0-2.29,1.14,16.37,16.37,0,0,0-3.75,3.05,16.68,16.68,0,0,0-2.54,3.58,17.1,17.1,0,0,0-1.39,3.58,18.05,18.05,0,0,0-.57,5.56,10.46,10.46,0,0,1,.08,2.1,5.08,5.08,0,0,1-.59-2,15.71,15.71,0,0,1,.18-5.84,17.25,17.25,0,0,1,1.32-3.85,17.49,17.49,0,0,1,2.61-3.9,17.06,17.06,0,0,1,1.82-1.78,17.37,17.37,0,0,1,2.17-1.56A17.69,17.69,0,0,1,356,359.8a18.73,18.73,0,0,1,2.72-.86,18.31,18.31,0,0,1,2.81-.41,17.13,17.13,0,0,1,5.39.5,18.54,18.54,0,0,1,2.42.8,17.57,17.57,0,0,1,4.05,2.38,17,17,0,0,1,2.87,2.88,15.76,15.76,0,0,1,2.71,5.17A4.86,4.86,0,0,1,379.37,372.36Z"/><path class="cls-8" d="M366.58,385.81l.62,2.91-2.6.56-.6-2.84a12.64,12.64,0,0,1-6.91-.7l.76-3.48a10.73,10.73,0,0,0,5.43.78l-.92-4.34c-3-.09-6.46-.37-7.25-4.09-.58-2.75.92-5.54,4.92-6.88l-.61-2.89,2.6-.55.6,2.83a12.06,12.06,0,0,1,5.61.47l-.62,3.47a11.08,11.08,0,0,0-4.26-.51l.94,4.42c3,.07,6.4.36,7.18,4C372,381.7,370.56,384.45,366.58,385.81Zm-5-10.93-.78-3.7c-1.32.61-1.7,1.48-1.52,2.34S360.33,374.75,361.55,374.88Zm5.8,5.31c-.19-.91-1.05-1.24-2.25-1.4l.76,3.59C367.1,381.82,367.53,381,367.35,380.19Z"/><path class="cls-2" d="M163.59,293.4s9-3,13.32,17.82,5,32.27,5,32.27,1.42,4.49,4.72,2.71,8.84-7.89,13-5.39,4.38,8.17,1.42,15.52-8.84,23.68-9.36,25.16-.27,3.87,2.18,3,17.91-10.82,22.2-3.2-7.3,26.75-8.53,28.86-1.05,3.21-.12,4.07,5.81-3,10.33-5.63,10.21-4.95,12.32-.34-1.14,20.44-22.86,41.67l-10.71,9.18L183,454.64c-28.18-11.35-37.22-24.75-37-29.81s6.34-5.12,11.52-4.39,11.17,2.43,11.7,1.28.28-2.24-1.67-3.72-19.95-14.74-18.89-23.42,19.16-5.37,21.74-5.51,1.9-2.48.87-3.63-12.72-14-18.26-19.69-7.56-10.87-4.6-14.89,10.3-.34,14,0,3.33-4.3,3.33-4.3S162,335.73,158,314.88s5.75-21.53,5.75-21.53"/><path class="cls-1" d="M196.5,456.16c-2.95-15.31-7.2-36.42-12-59.73s-9.08-44.39-12.11-59.68c-1.51-7.63-2.73-13.81-3.57-18.11-.43-2.12-.75-3.78-1-4.93-.12-.54-.2-1-.27-1.27a4.3,4.3,0,0,0-.11-.44l.06.45c.06.31.13.73.22,1.28.21,1.15.51,2.81.89,4.94.78,4.29,1.95,10.49,3.43,18.14,2.94,15.31,7.2,36.42,12,59.72s9.08,44.41,12.11,59.7"/><path class="cls-1" d="M192.15,349.66a4.15,4.15,0,0,0-.6.82c-.36.55-.86,1.36-1.47,2.36-1.22,2-2.82,4.81-4.53,8l-4.34,8-1.33,2.44a4,4,0,0,0-.45.91,3.57,3.57,0,0,0,.61-.82c.36-.54.86-1.35,1.46-2.36,1.2-2,2.76-4.85,4.47-8l4.4-8c.53-.95,1-1.76,1.34-2.43A4.12,4.12,0,0,0,192.15,349.66Z"/><path class="cls-1" d="M178.12,372.09c.07-.11-5.59-3.68-12.63-8s-12.8-7.66-12.87-7.55,5.58,3.68,12.62,8S178.05,372.21,178.12,372.09Z"/><path class="cls-1" d="M187.06,407.55a4.21,4.21,0,0,0-1-.33l-2.73-.74c-2.3-.63-5.48-1.51-9-2.61s-6.59-2.18-8.84-3l-2.66-.95a4.59,4.59,0,0,0-1-.3,4.3,4.3,0,0,0,.93.47c.61.28,1.5.66,2.61,1.1,2.23.89,5.33,2,8.82,3.12s6.69,1.93,9,2.48c1.17.27,2.11.47,2.77.59A4.38,4.38,0,0,0,187.06,407.55Z"/><path class="cls-1" d="M204.23,390.05a3.92,3.92,0,0,0-.75.61c-.46.41-1.11,1-1.91,1.79-1.6,1.53-3.78,3.66-6.17,6s-4.54,4.55-6.08,6.14c-.76.79-1.38,1.44-1.8,1.9s-.64.72-.61.74a4.1,4.1,0,0,0,.74-.61c.46-.41,1.12-1,1.91-1.79,1.6-1.53,3.79-3.66,6.18-6s4.53-4.55,6.07-6.14c.77-.79,1.38-1.44,1.8-1.9A4,4,0,0,0,204.23,390.05Z"/><path class="cls-1" d="M216.1,420.35a5.92,5.92,0,0,0-.95.79l-2.45,2.28c-2.06,1.95-4.88,4.66-8,7.67s-5.88,5.77-7.87,7.78l-2.35,2.39a6.9,6.9,0,0,0-.82.93,6.1,6.1,0,0,0,.95-.79l2.45-2.29c2.06-1.94,4.88-4.65,8-7.67s5.87-5.76,7.87-7.77l2.34-2.4A6.55,6.55,0,0,0,216.1,420.35Z"/><path class="cls-1" d="M194.08,441.52a6.14,6.14,0,0,0-1.24-.45L189.41,440c-2.89-.9-6.89-2.16-11.26-3.67s-8.3-3-11.13-4L163.66,431a7.31,7.31,0,0,0-1.25-.41,7.17,7.17,0,0,0,1.18.59c.77.35,1.9.83,3.31,1.41,2.8,1.16,6.71,2.67,11.1,4.18s8.39,2.72,11.31,3.53c1.47.41,2.65.72,3.48.92A7.57,7.57,0,0,0,194.08,441.52Z"/><rect class="cls-1" x="603.1" y="185.02" width="93.63" height="135.71"/><rect class="cls-2" x="598.41" y="185.02" width="93.63" height="135.71"/><rect class="cls-3" x="610.04" y="199.72" width="70.36" height="106.31"/><path class="cls-1" d="M680.41,306s0-.18,0-.52,0-.85,0-1.51c0-1.33,0-3.29,0-5.83,0-5.09,0-12.52-.06-21.9,0-18.74-.07-45.29-.12-76.55l.23.23-70.35,0h0l.26-.26c0,40.11,0,77.08,0,106.31l-.21-.2,51.22.11,14.15.05,3.71,0,1.29,0s-.42,0-1.25,0l-3.67,0-14.11.05-51.34.11h-.2V306c0-29.23,0-66.2-.05-106.31v-.25h.26l70.35,0h.24v.23c0,31.32-.09,57.92-.12,76.71,0,9.35,0,16.76-.06,21.84,0,2.52,0,4.46,0,5.79,0,.64,0,1.13,0,1.48S680.41,306,680.41,306Z"/><path class="cls-1" d="M692.3,185a16.89,16.89,0,0,1-1.67,2.43c-1.09,1.45-2.63,3.43-4.39,5.57s-3.41,4-4.63,5.38a15.64,15.64,0,0,1-2.06,2.1,18,18,0,0,1,1.79-2.34l4.51-5.46,4.5-5.48A18.17,18.17,0,0,1,692.3,185Z"/><path class="cls-3" d="M680.76,305.69A86.91,86.91,0,0,0,693,321"/><path class="cls-1" d="M693,321a13.84,13.84,0,0,1-2.14-2,66.57,66.57,0,0,1-4.63-5.22,65.32,65.32,0,0,1-4.08-5.67,14.65,14.65,0,0,1-1.43-2.51,17.59,17.59,0,0,1,1.73,2.31c1,1.45,2.48,3.43,4.17,5.55s3.31,4,4.5,5.29A20.1,20.1,0,0,1,693,321Z"/><path class="cls-3" d="M598.4,320.62l12.26-15.13"/><path class="cls-1" d="M610.66,305.49a93.9,93.9,0,0,1-5.93,7.73,92.57,92.57,0,0,1-6.33,7.4,92.17,92.17,0,0,1,5.93-7.72A93.93,93.93,0,0,1,610.66,305.49Z"/><path class="cls-1" d="M598.41,185a84.78,84.78,0,0,1,6,7.12,85.21,85.21,0,0,1,5.56,7.43,83.94,83.94,0,0,1-6-7.12A84.45,84.45,0,0,1,598.41,185Z"/><rect class="cls-1" x="634.92" y="221.31" width="23.56" height="66.89"/><polygon class="cls-1" points="279.33 25.45 279.33 100.22 171.93 100.22 168.06 25.97 279.33 25.45"/><rect class="cls-3" x="184.72" y="9.32" width="74.09" height="107.4" transform="translate(158.74 284.78) rotate(-90)"/><path class="cls-1" d="M276,100.58H167.56V25.46H276Zm-107.4-1H275V26.48H168.57Z"/><rect class="cls-3" x="179.7" y="35.18" width="84.13" height="55.68"/><path class="cls-1" d="M263.83,35.18h-.42l-1.19,0-4.62,0-17.34.06-60.56.12.24-.24c0,17,0,35.86,0,55.67h0l-.26-.26,84.13.05-.21.21c0-16.94.08-30.84.11-40.51,0-4.84,0-8.62,0-11.21q0-1.92,0-2.94c0-.67,0-1,0-1s0,.32,0,1,0,1.64,0,2.9c0,2.58,0,6.34.05,11.16,0,9.7.06,23.64.11,40.64v.21h-.21l-84.13.06h-.27v-.27h0c0-19.81,0-38.66,0-55.67v-.25h.25l60.72.12,17.28.07,4.57,0h1.17Z"/><path class="cls-1" d="M168.06,25.76a9.68,9.68,0,0,1,1.85,1.2c1.1.79,2.6,1.92,4.21,3.21s3,2.52,4,3.43a8.94,8.94,0,0,1,1.54,1.58c-.1.11-2.69-2-5.91-4.59A58.39,58.39,0,0,1,168.06,25.76Z"/><path class="cls-1" d="M275.46,26a51.44,51.44,0,0,1-5.65,4.81,52,52,0,0,1-6,4.4,51.44,51.44,0,0,1,5.65-4.81A53.5,53.5,0,0,1,275.46,26Z"/><path class="cls-3" d="M275.38,100.08l-12-9.71"/><path class="cls-1" d="M263.4,90.37A57.5,57.5,0,0,1,269.56,95a56.38,56.38,0,0,1,5.82,5.06,56.36,56.36,0,0,1-6.16-4.65A56.38,56.38,0,0,1,263.4,90.37Z"/><path class="cls-1" d="M168.06,100.07a50.44,50.44,0,0,1,5.6-4.76A51.58,51.58,0,0,1,179.58,91,49.72,49.72,0,0,1,174,95.72,50.17,50.17,0,0,1,168.06,100.07Z"/><rect class="cls-1" x="213.93" y="35.38" width="18.64" height="52.94" transform="translate(161.4 285.1) rotate(-90)"/><path class="cls-9" d="M389.76,83.92a29.32,29.32,0,0,0,3.7-14.3,29,29,0,0,0-28.84-29.18A28.53,28.53,0,0,0,357,41.5a29.27,29.27,0,0,1,0,56.25,28.56,28.56,0,0,0,22.95-3.38l13.56,5.24Z"/><path class="cls-10" d="M664.16,459.12c0,.15-134,.26-299.24.26s-299.26-.11-299.26-.26,134-.26,299.26-.26S664.16,459,664.16,459.12Z"/><path class="cls-11" d="M267,427l.81,24.89,6.32,19.5a2.55,2.55,0,0,1-1.8,3.26h0a2.54,2.54,0,0,1-2.28-.53c-4-3.43-18.63-16.11-18.59-17.93,0-2.12-2.61-26.2-2.61-26.2Z"/><path class="cls-1" d="M272.33,474.66l-21-20.14.06,1.05a3.84,3.84,0,0,0,1.05,2.44c1.68,1.76,6.43,6.54,17.51,16.12a2.54,2.54,0,0,0,2.35.53Z"/><path class="cls-3" d="M256,446.21a1.54,1.54,0,0,1,.53,2,1.47,1.47,0,0,1-2,.55,1.62,1.62,0,0,1-.56-2.11,1.54,1.54,0,0,1,2.11-.34"/><path class="cls-10" d="M266,464.11c.14.07.63-1.27,2.07-2.05a7.85,7.85,0,0,1,2.83-.71c0-.06-.3-.24-.89-.29a4.05,4.05,0,0,0-3.79,2.14C266,463.73,266,464.1,266,464.11Z"/><path class="cls-10" d="M268,467.34c.13.11.88-.75,2.15-1.19a24.09,24.09,0,0,1,2.41-.45,2.84,2.84,0,0,0-2.6-.06C268.51,466.15,267.86,467.29,268,467.34Z"/><path class="cls-10" d="M262.5,460a26.84,26.84,0,0,1,3.19-2.06,25.62,25.62,0,0,1,3.64-1.07A7,7,0,0,0,262.5,460Z"/><path class="cls-10" d="M261.62,452.49c.08.14,1.42-.51,3.2-.67s3.23.18,3.27,0a6.3,6.3,0,0,0-6.47.64Z"/><path class="cls-10" d="M261.2,445.19a12.37,12.37,0,0,1,3.31-.79,12.15,12.15,0,0,1,3.34.65c0-.06-.25-.35-.84-.65a5.47,5.47,0,0,0-2.51-.54,5.53,5.53,0,0,0-2.49.64C261.44,444.83,261.16,445.13,261.2,445.19Z"/><path class="cls-10" d="M264.39,443a2.2,2.2,0,0,0,0-.95,6.59,6.59,0,0,0-.88-2.42,3,3,0,0,0-1.32-1.31,1,1,0,0,0-1.14.29,1.61,1.61,0,0,0-.33,1.14,3.6,3.6,0,0,0,3.34,3.16,4.18,4.18,0,0,0,4-2.41,1.46,1.46,0,0,0,0-1.21,1,1,0,0,0-1.08-.47,3.53,3.53,0,0,0-1.59.94,7.24,7.24,0,0,0-1.59,2,2.6,2.6,0,0,0-.34.88,12.38,12.38,0,0,1,2.18-2.61,3.41,3.41,0,0,1,1.41-.79.54.54,0,0,1,.59.26,1,1,0,0,1-.05.79,3.73,3.73,0,0,1-3.48,2.05,3.13,3.13,0,0,1-2.87-2.63,1.17,1.17,0,0,1,.2-.81.54.54,0,0,1,.62-.17,2.61,2.61,0,0,1,1.14,1.09A9.71,9.71,0,0,1,264.39,443Z"/><path class="cls-11" d="M315.44,430.71l-1.29,18.61s18.49,7.56,18.58,11l-36.17-1.2.82-29.08Z"/><path class="cls-1" d="M303,447.38a1.49,1.49,0,0,0-1.08,1.65,1.41,1.41,0,0,0,1.63,1.08,1.55,1.55,0,0,0,1.13-1.75,1.47,1.47,0,0,0-1.81-.94"/><path class="cls-1" d="M296.56,459.14l.2-2.93,34.61,2.25s1.58.75,1.36,1.88Z"/><path class="cls-10" d="M314.75,449.16c0,.17-.9.22-1.79.76s-1.37,1.27-1.53,1.19.13-1.08,1.22-1.72S314.79,449,314.75,449.16Z"/><path class="cls-10" d="M318.49,450.85c0,.17-.74.45-1.37,1.18s-.82,1.51-1,1.49-.25-1,.54-1.9S318.49,450.68,318.49,450.85Z"/><path class="cls-10" d="M320.49,455.46c-.16,0-.38-.85.11-1.81s1.32-1.31,1.39-1.16-.45.65-.84,1.44S320.67,455.45,320.49,455.46Z"/><path class="cls-10" d="M314.57,444.88c-.08.16-.88-.11-1.88-.08s-1.79.33-1.88.17.68-.76,1.86-.78S314.66,444.75,314.57,444.88Z"/><path class="cls-10" d="M314.76,441.12a3.29,3.29,0,0,1-1.81-.07,7.89,7.89,0,0,1-1.88-.64,9.86,9.86,0,0,1-1-.59,2.24,2.24,0,0,1-.53-.44.76.76,0,0,1,0-.94.93.93,0,0,1,.79-.38,2.53,2.53,0,0,1,.67.11,6.2,6.2,0,0,1,1.12.43,6.08,6.08,0,0,1,1.63,1.15c.81.8,1.08,1.47,1,1.51s-.48-.51-1.31-1.18a6.9,6.9,0,0,0-1.58-1,6.56,6.56,0,0,0-1-.35c-.38-.12-.71-.13-.81,0s-.05.09,0,.2a1.67,1.67,0,0,0,.39.32,8.88,8.88,0,0,0,.94.58,9.53,9.53,0,0,0,1.73.73A14.48,14.48,0,0,1,314.76,441.12Z"/><path class="cls-10" d="M314.52,441.37a3,3,0,0,1-.42-1.77,6.12,6.12,0,0,1,.81-3.06,1.49,1.49,0,0,1,1.19-.87.85.85,0,0,1,.74.53,2.31,2.31,0,0,1,.16.67,3.81,3.81,0,0,1,0,1.22,4.18,4.18,0,0,1-.83,1.84c-.74.92-1.48,1.1-1.5,1s.57-.41,1.14-1.29a4,4,0,0,0,.63-1.68,3.69,3.69,0,0,0,0-1.05c-.05-.39-.18-.7-.33-.67s-.49.27-.65.57a5.46,5.46,0,0,0-.48,1,6.38,6.38,0,0,0-.41,1.8C314.45,440.68,314.62,441.35,314.52,441.37Z"/><polygon class="cls-10" points="241.08 247.07 246.42 447.11 274.96 446.26 281.76 240.25 241.08 247.07"/><path class="cls-10" d="M300.39,239.91s21.18,84.8,21.83,99.26S317.69,444,317.69,444H289.75l2.33-102.92L270.87,254,276,240.35Z"/><path class="cls-12" d="M283.15,250.32s0,.1,0,.27l0,.8c0,.73-.06,1.75-.11,3.05-.12,2.68-.3,6.5-.52,11.2-.48,9.49-1.15,22.54-1.89,36.95s-1.52,27.45-2,36.94c-.29,4.7-.52,8.51-.68,11.2-.09,1.29-.16,2.31-.21,3,0,.32-.05.58-.07.79a1.14,1.14,0,0,1,0,.27,1.1,1.1,0,0,1,0-.27c0-.21,0-.47,0-.79,0-.74.07-1.76.12-3,.12-2.68.3-6.5.51-11.2.49-9.49,1.16-22.54,1.89-37s1.52-27.45,2-36.94c.28-4.7.51-8.51.68-11.2.09-1.29.16-2.3.21-3,0-.32,0-.58.06-.79A.84.84,0,0,1,283.15,250.32Z"/><path class="cls-2" d="M280,131.17s10.37,51.44,10.52,65.93,5.24,42.81,5.24,42.81h-44.9l-1-78.37-3.2-23.37,6.74-9.62Z"/><path class="cls-11" d="M280.56,132.68s10.71,3.15,13.54,7.11c2.23,3.13,5.25,62.29,5.25,62.29l4.59,52.12-4.49-.42-6.34-19.51Z"/><path class="cls-11" d="M294.1,139.79l30.24,27.75,37.21-12.06L369,171.11l-39.71,18c-5.67,2.42-9.23,1.09-13.17-2.07l-20.83-16.68Z"/><path class="cls-10" d="M354.63,160.46a.83.83,0,0,1-.34,1.11.81.81,0,0,1-1.1-.34.8.8,0,0,1,.33-1.1A.81.81,0,0,1,354.63,160.46Z"/><path class="cls-10" d="M353.91,161.69a.69.69,0,0,1-.25,0,.84.84,0,0,1-.5-.41.84.84,0,0,1,1.49-.79.84.84,0,0,1,.06.64.82.82,0,0,1-.41.5A.9.9,0,0,1,353.91,161.69Zm0-1.63a.84.84,0,0,0-.37.09.79.79,0,0,0-.32,1.07.79.79,0,0,0,1.07.32.79.79,0,0,0,.38-.46.81.81,0,0,0-.06-.61A.79.79,0,0,0,353.9,160.06Z"/><path class="cls-10" d="M357.74,159.72a.81.81,0,1,1-1.43.77.81.81,0,0,1,1.43-.77Z"/><path class="cls-10" d="M357,161a1,1,0,0,1-.25,0,.88.88,0,0,1-.5-.41.84.84,0,0,1,.35-1.14.85.85,0,0,1,1.14.35.84.84,0,0,1,.06.64.88.88,0,0,1-.41.5A.9.9,0,0,1,357,161Zm0-1.64a.86.86,0,0,0-.37.1.79.79,0,0,0,.14,1.45.81.81,0,0,0,.61-.06.79.79,0,0,0-.15-1.45A.85.85,0,0,0,357,159.31Z"/><path class="cls-10" d="M360.71,159.12a.81.81,0,0,1-.33,1.11.83.83,0,0,1-1.11-.34.81.81,0,0,1,.34-1.1A.8.8,0,0,1,360.71,159.12Z"/><path class="cls-10" d="M360,160.35a.69.69,0,0,1-.25,0,.82.82,0,0,1-.5-.41.84.84,0,0,1,1.49-.79h0a.85.85,0,0,1-.35,1.14A.9.9,0,0,1,360,160.35Zm0-1.63a.84.84,0,0,0-.37.09.79.79,0,0,0-.32,1.07.75.75,0,0,0,.46.38.81.81,0,0,0,.61-.06.79.79,0,0,0,.32-1.07h0A.79.79,0,0,0,360,158.72Z"/><polygon class="cls-1" points="361.92 156.26 364.8 155.21 371.41 169.13 368.6 170.33 361.92 156.26"/><path class="cls-10" d="M295.07,150.76a8.83,8.83,0,0,1,.17,1.55c.11,1.09.26,2.52.44,4.24.41,3.67,1,8.56,1.58,14s1.08,10.41,1.31,14c.12,1.8.17,3.26.18,4.27a8.61,8.61,0,0,1-.05,1.56,9.37,9.37,0,0,1-.15-1.55c-.07-1-.18-2.46-.35-4.25-.32-3.58-.86-8.53-1.46-14s-1.14-10.4-1.43-14c-.15-1.79-.23-3.25-.27-4.26A7.84,7.84,0,0,1,295.07,150.76Z"/><path class="cls-10" d="M301.67,157.7a56.7,56.7,0,0,1-1.89,7.45,58.48,58.48,0,0,1-2.39,7.32,57,57,0,0,1,1.89-7.46A58,58,0,0,1,301.67,157.7Z"/><path class="cls-10" d="M324,176.91a3.16,3.16,0,0,1-.67-1.32,9.57,9.57,0,0,1,.44-7c.41-.83.78-1.26.83-1.23a18.77,18.77,0,0,0-1.2,4.74A18.65,18.65,0,0,0,324,176.91Z"/><polygon class="cls-1" points="320.56 209.06 324.43 209.36 322.9 225.5 319.16 225.08 320.56 209.06"/><path class="cls-11" d="M253.45,129.67,232.58,143a13.56,13.56,0,0,0-5.05,15.38l16,50.29-5.77,45.7,45.73-1.94-1.11-20-3.88-35.84a71,71,0,0,0-4.91-19.34Z"/><path class="cls-11" d="M231.65,161.1l20.87,43.68a12.92,12.92,0,0,0,8.68,7l57.92,13.72,1.48-16.86L276.39,192l-22.24-42.68a12.7,12.7,0,0,0-17.82-5h0A12.69,12.69,0,0,0,231.65,161.1Z"/><path class="cls-10" d="M320.6,208.64a.72.72,0,0,1-.24-.06l-.68-.23-2.62-.94-9.7-3.57-32.69-12.22-.09,0-.05-.1-3.85-7.62c-3.62-7.06-7.23-13.71-10.61-19.71-1.69-3-3.32-5.83-4.86-8.47L253,151.87c-.36-.62-.72-1.21-1.1-1.76a14.76,14.76,0,0,0-1.18-1.58,14,14,0,0,0-5.56-4,12.69,12.69,0,0,0-5.13-.91,9.09,9.09,0,0,0-4.3,1.15l.24-.18a5.31,5.31,0,0,1,.77-.42,9.16,9.16,0,0,1,3.28-.75,12.53,12.53,0,0,1,5.24.84,14.13,14.13,0,0,1,5.74,4.07,13.21,13.21,0,0,1,1.22,1.6c.4.57.77,1.16,1.12,1.77l2.27,3.81q2.34,4,4.91,8.46c3.4,6,7,12.63,10.66,19.7,1.33,2.61,2.63,5.18,3.84,7.64l-.14-.13,32.63,12.38,9.64,3.71,2.59,1,.67.27Z"/><path class="cls-10" d="M310.76,219.15a.82.82,0,0,1-1.64,0,.82.82,0,0,1,1.64,0Z"/><path class="cls-10" d="M309.94,220a.84.84,0,1,1,.84-.84A.84.84,0,0,1,309.94,220Zm0-1.63a.79.79,0,1,0,.79.79A.79.79,0,0,0,309.94,218.36Z"/><path class="cls-10" d="M313.86,220a.82.82,0,0,1-1.64,0,.82.82,0,0,1,1.64,0Z"/><path class="cls-10" d="M313,220.81a.84.84,0,1,1,.84-.84A.85.85,0,0,1,313,220.81Zm0-1.63a.79.79,0,1,0,.79.79A.79.79,0,0,0,313,219.18Z"/><circle class="cls-10" cx="315.94" cy="220.84" r="0.82"/><path class="cls-10" d="M315.94,221.68a.84.84,0,1,1,0-1.68.84.84,0,0,1,0,1.68Zm0-1.63a.79.79,0,1,0,.79.79A.79.79,0,0,0,315.94,220.05Z"/><path class="cls-10" d="M319.12,225.5a.85.85,0,0,1-.28,0l-.81-.18-3.12-.75-11.46-2.82c-9.67-2.37-23-5.73-37.82-9.16-1.85-.44-3.68-.79-5.49-1.28a12.12,12.12,0,0,1-4.95-2.48,14.35,14.35,0,0,1-3-4.39L250,199.83,242.48,184l-5-10.68c-.56-1.24-1-2.21-1.33-2.91l-.34-.77a1.42,1.42,0,0,1-.1-.26s.06.07.15.24.22.44.38.74l1.43,2.87c1.23,2.54,3,6.16,5.16,10.61s4.73,9.84,7.59,15.77c.71,1.48,1.45,3,2.19,4.55a14.37,14.37,0,0,0,2.93,4.24,11.66,11.66,0,0,0,4.75,2.35c1.77.48,3.62.83,5.47,1.27,14.81,3.43,28.14,6.85,37.79,9.31l11.42,3,3.09.84.8.24Z"/><path class="cls-10" d="M272.34,222.77s-.22.23-.69.58-1.14.83-2,1.41a32.75,32.75,0,0,1-7.2,3.74,16.57,16.57,0,0,1-8.06.81,10.92,10.92,0,0,1-2.38-.69,2.4,2.4,0,0,1-.79-.43,26.09,26.09,0,0,0,3.22.75,17.49,17.49,0,0,0,7.84-.93,39.09,39.09,0,0,0,7.17-3.56A24.21,24.21,0,0,1,272.34,222.77Z"/><path class="cls-10" d="M274.88,228.57a1.47,1.47,0,0,1,.14.37,9.3,9.3,0,0,1,.27,1.12,12.58,12.58,0,0,1,0,4.25,13.09,13.09,0,0,1-2.6,5.72A12.83,12.83,0,0,1,258.53,244a12.92,12.92,0,0,1-5.19-3.55,12.54,12.54,0,0,1-2.24-3.61,10.55,10.55,0,0,1-.35-1.1c-.06-.25-.09-.39-.07-.39a15.2,15.2,0,0,0,2.93,4.85,12.83,12.83,0,0,0,5.08,3.34,12.5,12.5,0,0,0,13.58-3.79,12.88,12.88,0,0,0,2.61-5.5A15.45,15.45,0,0,0,274.88,228.57Z"/><path class="cls-13" d="M255.7,89.86l.13,37.26a11.08,11.08,0,0,0,11.67,11h0A11.1,11.1,0,0,0,278,127c0-2.8,0-5.14,0-5.43,0,0,9.48-.92,10.13-10.32.32-4.53.2-13.93,0-22.44A17.52,17.52,0,0,0,271.6,71.75l-.91,0C260.88,71.71,255.41,80.05,255.7,89.86Z"/><path class="cls-14" d="M278,121.46a21.91,21.91,0,0,1-12-4.18s2.51,6.93,11.93,6.61Z"/><path class="cls-10" d="M285.81,94.36a1.35,1.35,0,0,1-1.38,1.28,1.28,1.28,0,0,1-1.31-1.29,1.35,1.35,0,0,1,1.37-1.28A1.29,1.29,0,0,1,285.81,94.36Z"/><path class="cls-10" d="M286.07,92.77c-.17.17-1.15-.64-2.59-.72s-2.55.58-2.69.4.11-.39.59-.7a3.74,3.74,0,0,1,2.17-.54,3.5,3.5,0,0,1,2.05.8C286,92.37,286.16,92.7,286.07,92.77Z"/><path class="cls-10" d="M271.77,94.25a1.34,1.34,0,0,1-1.37,1.28,1.28,1.28,0,0,1-1.31-1.29A1.34,1.34,0,0,1,270.46,93,1.28,1.28,0,0,1,271.77,94.25Z"/><path class="cls-10" d="M271.7,92.45c-.18.16-1.15-.65-2.6-.73s-2.54.59-2.69.4.12-.39.6-.7a3.62,3.62,0,0,1,2.16-.53,3.56,3.56,0,0,1,2.06.79C271.65,92.05,271.78,92.37,271.7,92.45Z"/><path class="cls-10" d="M276.27,103.8a9.6,9.6,0,0,1,2.37-.29c.37,0,.73-.07.8-.32a1.94,1.94,0,0,0-.18-1.11c-.3-.91-.61-1.86-.93-2.87-1.29-4.08-2.2-7.43-2-7.48s1.34,3.22,2.63,7.3c.3,1,.6,2,.88,2.89a2.17,2.17,0,0,1,.11,1.46.93.93,0,0,1-.64.5,2.41,2.41,0,0,1-.63.05A9.37,9.37,0,0,1,276.27,103.8Z"/><path class="cls-10" d="M272.28,89.45c-.17.39-1.6.12-3.3.22s-3.11.5-3.31.13c-.09-.17.17-.53.74-.88a5.77,5.77,0,0,1,5-.26C272.05,88.94,272.35,89.27,272.28,89.45Z"/><path class="cls-10" d="M286,89.33c-.27.31-1.25-.09-2.44-.17s-2.23.09-2.44-.26c-.09-.18.09-.49.55-.78a3.56,3.56,0,0,1,3.93.35C286,88.83,286.07,89.17,286,89.33Z"/><path class="cls-13" d="M256.07,96.86c-.16-.08-6.35-2.28-6.51,4.16s6.33,5.27,6.35,5.08S256.07,96.86,256.07,96.86Z"/><path class="cls-14" d="M254,103.62s-.11.07-.3.15a1.09,1.09,0,0,1-.84,0,2.78,2.78,0,0,1-1.22-2.52,3.72,3.72,0,0,1,.35-1.6,1.3,1.3,0,0,1,.87-.84.56.56,0,0,1,.65.33c.08.18,0,.31.07.32s.14-.11.1-.37a.73.73,0,0,0-.25-.41.83.83,0,0,0-.61-.18,1.56,1.56,0,0,0-1.2,1,3.78,3.78,0,0,0-.43,1.78,2.91,2.91,0,0,0,1.56,2.82,1.22,1.22,0,0,0,1-.14C254,103.77,254,103.63,254,103.62Z"/><path class="cls-10" d="M252.51,96.44a3.39,3.39,0,0,1,3,1.76c.36.94.4,2,.76,2.93a2.28,2.28,0,0,0,2.25,1.65,2,2,0,0,0,1.43-1.39,5.54,5.54,0,0,0,.13-2.07c-.2-3-.67-6-.61-9.07a15.43,15.43,0,0,1,2.39-8.62,8.44,8.44,0,0,1,7.76-3.8c2,.27,3.76,1.42,5.72,1.81a7.88,7.88,0,0,0,6.65-1.8,2.27,2.27,0,0,1,.32-.23,1.73,1.73,0,0,0,.73-2,1.7,1.7,0,0,0-.34-.64c-3.73-3.86-10.77-5.28-16-4.27a18.81,18.81,0,0,0-12.87,9.15c-2.51,4.74-2.24,11.56-1.28,16.56"/><path class="cls-10" d="M272.86,104.93c.24,0,.24,1.55,1.58,2.66s3,.94,3,1.16-.37.3-1.08.32a3.85,3.85,0,0,1-2.52-.87,3.4,3.4,0,0,1-1.22-2.24C272.58,105.31,272.76,104.92,272.86,104.93Z"/><path class="cls-13" d="M362.72,157.85s7-6.19,8.38-6.65,11.95-.65,12.66-.12,11.46,6.42,9.68,7.33-9.23-3.32-9.23-3.32l-1.25.17s6.5,3.46,7.65,4.8.05,2.7-1.16,2.14-6.79-3.78-7.23-3.66,5.94,3.85,6.53,4.54c.79.93.28,2.73-.95,2.21-.72-.3-6.6-4.2-6.6-4.2a58.83,58.83,0,0,1,4.76,4.35c.52,1-.48,1.91-1.51,1.28-.7-.43-3.73-3.41-4.67-4,0,0-1-.08-2.57,1.55s-7.58,3.88-7.58,3.88Z"/><path class="cls-14" d="M393.41,158.43a5.59,5.59,0,0,1-2.28-.15,13.17,13.17,0,0,1-2.39-.71c-.83-.4-1.74-.86-2.7-1.35l-2-1,.14,0a32.07,32.07,0,0,1-5.46-.16,33.65,33.65,0,0,1,5.45-.38h.06l.07,0,2,1,2.66,1.38a15.69,15.69,0,0,0,2.27.8C392.55,158.25,393.42,158.34,393.41,158.43Z"/><path class="cls-13" d="M365.34,159.64a2.39,2.39,0,0,0,2.65.91c1-.21,1.87-.74,2.83-1,2.89-.83,6.1.71,8.94-.26.4-.14.84-.43.8-.84s-.48-.58-.85-.7l-9.48-3"/><path class="cls-14" d="M370.23,154.71a3.73,3.73,0,0,1,1.06.22c.67.18,1.63.45,2.82.81l4.16,1.26,1.2.37c.38.15.93.18,1.29.76a.85.85,0,0,1-.15.93,1.72,1.72,0,0,1-.68.45,7.13,7.13,0,0,1-1.44.32,38.45,38.45,0,0,1-5.35-.29,7.59,7.59,0,0,0-2.23.21c-.67.18-1.29.48-1.88.69a3.5,3.5,0,0,1-3,0c-.65-.37-.74-.83-.72-.82s.21.35.82.63a3.46,3.46,0,0,0,2.72-.2,20.15,20.15,0,0,1,1.9-.77,7.66,7.66,0,0,1,2.38-.28,42.76,42.76,0,0,0,5.27.24,5.91,5.91,0,0,0,1.29-.28c.39-.14.66-.42.53-.6s-.53-.37-.94-.49l-1.2-.39L374,156.12c-1.17-.4-2.12-.74-2.77-1A3.8,3.8,0,0,1,370.23,154.71Z"/><path class="cls-13" d="M322.69,209.45l11.69-1.16s15.46,10.59,14,12.92-4,0-4,0,2.76,3.39-1.69,4.45c0,0-1.06,2.33-2.75,2.11l-1.06,0s-1,3-2.39,2.31-5.74-4.44-5.74-4.44l-12-1.06Z"/><path class="cls-15" d="M330,221.5s-3,1.15-3.61,2.35-1,4,.94,4.56a17.72,17.72,0,0,0,3.41-.11l-.74-3.15a22.29,22.29,0,0,1,1.78-1.84C332.38,222.78,331.68,220.71,330,221.5Z"/><path class="cls-15" d="M333.33,223.1s-3,1.15-3.61,2.35a2.64,2.64,0,0,0,1.72,3.74,13.72,13.72,0,0,0,3.09-.11l-.32-.61c-.6-1.18-.86-2.13.2-2.92.06,0,.66-.6.7-.64A1.31,1.31,0,0,0,333.33,223.1Z"/><path class="cls-15" d="M334.05,229a1.75,1.75,0,0,1-.24-2.06,2.81,2.81,0,0,1,1.76-1.28,1.29,1.29,0,0,1,1.36.22,1.14,1.14,0,0,1,.2.9A4.85,4.85,0,0,1,336,229c-.28.35-.62.73-1.07.72s-.78-.43-1-.81"/><polygon class="cls-11" points="270.87 134.72 273.49 133.73 275.77 137.8 274.5 142.15 271.82 142.81 269.15 139.44 270.87 134.72"/><path class="cls-11" d="M271.82,142.81s3.41,18.71,6.24,31.87c0,0,2.33,11,3.27,13.48a37,37,0,0,0,4.29,7l3.29,1.28-2-18.5-12.4-35.83Z"/><g class="cls-16"><polygon points="270.87 134.72 273.49 133.73 275.77 137.8 274.5 142.15 271.82 142.81 269.15 139.44 270.87 134.72"/></g><g class="cls-16"><path d="M271.82,142.81s3.41,18.71,6.24,31.87c0,0,2.67,10.86,3.27,13.48.35,1.55,4.29,7,4.29,7l3.29,1.28-2-18.5-12.4-35.83Z"/></g><polygon class="cls-2" points="255.09 123.35 270.87 134.72 267.45 144.1 253.1 129.32 255.09 123.35"/><polygon class="cls-2" points="273.49 133.73 277.9 123.89 280.4 132 276.93 140.53 273.49 133.73"/><path class="cls-10" d="M270.87,134.72a3.08,3.08,0,0,1-.18.72l-.64,2c-.56,1.68-1.38,4-2.37,6.79l-.13.38-.28-.3-3.67-4.06c-2.86-3.17-5.43-6.06-7.26-8.17l-2.16-2.52a6.23,6.23,0,0,1-.74-1,6,6,0,0,1,.89.84l2.28,2.4c1.91,2.05,4.52,4.9,7.37,8.07l3.66,4.08-.41.08c1-2.74,1.9-5.07,2.54-6.72l.77-1.91A2.62,2.62,0,0,1,270.87,134.72Z"/><path class="cls-10" d="M280.4,132a11.85,11.85,0,0,1-.74,2.3c-.52,1.39-1.26,3.31-2.12,5.41l-.37.91-.26.63-.22-.64a43.5,43.5,0,0,0-3.15-6.46,6.52,6.52,0,0,1,1.32,1.64,21.73,21.73,0,0,1,2.32,4.65l-.49,0c.12-.29.25-.59.37-.9.86-2.11,1.66-4,2.26-5.36A10.43,10.43,0,0,1,280.4,132Z"/><path class="cls-11" d="M481,428.12,487,452.26,497.35,470a2.55,2.55,0,0,1-1.07,3.57h0a2.49,2.49,0,0,1-2.33,0c-4.64-2.5-21.64-11.78-22-13.57-.41-2.07-8.11-25-8.11-25Z"/><g class="cls-17"><path class="cls-3" d="M496.28,473.54l-24.76-15.23.28,1a3.87,3.87,0,0,0,1.54,2.16c2,1.37,7.68,5,20.53,12a2.57,2.57,0,0,0,2.41,0Z"/></g><g class="cls-17"><path class="cls-3" d="M474.3,449.21a1.54,1.54,0,0,1,.95,1.83,1.48,1.48,0,0,1-1.81.95,1.63,1.63,0,0,1-1-1.94,1.53,1.53,0,0,1,2-.78"/></g><path class="cls-10" d="M487.9,464.57a7.59,7.59,0,0,1,1.58-2.45,8,8,0,0,1,2.62-1.29c0-.06-.35-.17-.93-.09a4.1,4.1,0,0,0-3.26,2.89C487.77,464.2,487.83,464.57,487.9,464.57Z"/><path class="cls-10" d="M490.49,467.31c.15.08.7-.92,1.84-1.62a22.87,22.87,0,0,1,2.26-.95,2.83,2.83,0,0,0-2.55.49C490.75,466,490.35,467.28,490.49,467.31Z"/><path class="cls-10" d="M483.58,461.33a13.06,13.06,0,0,1,6-4.5,6.94,6.94,0,0,0-6,4.5Z"/><path class="cls-10" d="M481.11,454.15c.11.12,1.28-.8,3-1.34s3.19-.5,3.2-.66a4.89,4.89,0,0,0-3.37.14A5,5,0,0,0,481.11,454.15Z"/><path class="cls-10" d="M479.15,447.11a12.19,12.19,0,0,1,3.07-1.48,12.69,12.69,0,0,1,3.4-.08c0-.06-.32-.29-1-.45a5.52,5.52,0,0,0-2.57,0,5.45,5.45,0,0,0-2.29,1.16C479.3,446.7,479.1,447.06,479.15,447.11Z"/><path class="cls-10" d="M481.8,444.31a2.13,2.13,0,0,0-.21-.92,6.59,6.59,0,0,0-1.38-2.18,2.94,2.94,0,0,0-1.57-1,1,1,0,0,0-1.06.53,1.72,1.72,0,0,0-.08,1.18,3.62,3.62,0,0,0,3.94,2.38,4.2,4.2,0,0,0,3.38-3.21,1.47,1.47,0,0,0-.26-1.18,1,1,0,0,0-1.15-.23,3.56,3.56,0,0,0-1.36,1.26,7.25,7.25,0,0,0-1.12,2.32,2.25,2.25,0,0,0-.14.93,11.54,11.54,0,0,1,1.57-3,3.36,3.36,0,0,1,1.21-1.07.54.54,0,0,1,.63.13,1,1,0,0,1,.12.78,3.74,3.74,0,0,1-3,2.75,3.13,3.13,0,0,1-3.37-2,1.23,1.23,0,0,1,0-.83.55.55,0,0,1,.58-.3,2.59,2.59,0,0,1,1.34.82A9.63,9.63,0,0,1,481.8,444.31Z"/><path class="cls-11" d="M405.54,432.62l1.29,18.61s-18.48,7.56-18.58,11l36.17-1.2L423.6,432Z"/><path class="cls-1" d="M418,449.29a1.48,1.48,0,0,1,1.08,1.65,1.43,1.43,0,0,1-1.63,1.09,1.56,1.56,0,0,1-1.13-1.76,1.48,1.48,0,0,1,1.82-.94"/><path class="cls-1" d="M424.42,461.05l-.19-2.93-34.61,2.25s-1.59.76-1.37,1.88Z"/><path class="cls-10" d="M406.24,451.07c0,.17.9.22,1.78.76s1.38,1.27,1.54,1.19-.14-1.08-1.22-1.72S406.2,450.91,406.24,451.07Z"/><path class="cls-10" d="M402.5,452.76c0,.18.74.45,1.36,1.18s.83,1.51,1,1.5.26-1-.54-1.91S402.5,452.59,402.5,452.76Z"/><path class="cls-10" d="M400.49,457.38c.17,0,.38-.86-.1-1.81s-1.33-1.31-1.4-1.17.46.65.85,1.44S400.32,457.36,400.49,457.38Z"/><path class="cls-10" d="M406.42,446.79c.08.16.88-.11,1.88-.07s1.79.32,1.87.17-.68-.76-1.86-.79S406.32,446.66,406.42,446.79Z"/><path class="cls-10" d="M406.22,443A3.6,3.6,0,0,0,408,443a8.21,8.21,0,0,0,1.87-.65,7.65,7.65,0,0,0,1-.59,2,2,0,0,0,.54-.44.77.77,0,0,0,0-.94,1,1,0,0,0-.79-.38,2.24,2.24,0,0,0-.68.12,6.08,6.08,0,0,0-1.11.42,6.31,6.31,0,0,0-1.63,1.15c-.82.81-1.08,1.48-1,1.51s.47-.51,1.3-1.18a7.35,7.35,0,0,1,1.59-1,6.23,6.23,0,0,1,1-.35c.38-.12.7-.13.81,0s0,.09,0,.2a2.06,2.06,0,0,1-.4.33,9.56,9.56,0,0,1-.94.58,10.11,10.11,0,0,1-1.72.72A12.46,12.46,0,0,0,406.22,443Z"/><path class="cls-10" d="M406.46,443.28c.07,0,.4-.62.42-1.76a6,6,0,0,0-.31-2,5.51,5.51,0,0,0-.5-1.08,1.51,1.51,0,0,0-1.18-.88.85.85,0,0,0-.74.53,2.36,2.36,0,0,0-.17.67,4.12,4.12,0,0,0,0,1.22,4.18,4.18,0,0,0,.84,1.85c.74.91,1.48,1.1,1.49,1s-.57-.42-1.14-1.3a4.12,4.12,0,0,1-.63-1.68,3.69,3.69,0,0,1,0-1.05c0-.39.18-.7.32-.67s.5.27.66.58a6.61,6.61,0,0,1,.48,1,6.38,6.38,0,0,1,.41,1.8C406.53,442.59,406.37,443.26,406.46,443.28Z"/><polygon class="cls-10" points="395.67 230.19 401.49 446.75 430.02 445.89 427.83 260.03 464.19 451.06 489.96 444.33 456.69 230.61 395.67 230.19"/><path class="cls-12" d="M411.31,447c-.15,0-.26-44.89-.26-100.26s.11-100.26.26-100.26.26,44.88.26,100.26S411.45,447,411.31,447Z"/><path class="cls-12" d="M472.33,451c-.14,0-6.8-43-14.88-96.11s-14.52-96.19-14.38-96.21,6.81,43,14.89,96.13S472.48,451,472.33,451Z"/><path class="cls-10" d="M436.56,94.77A43.63,43.63,0,0,0,439,87.88c.34-1.8.88-4.49.16-6.18s-2.47-3.29-4.67-2.83a10.47,10.47,0,0,0-6-8.19,26.5,26.5,0,0,0-10-2.6,8.51,8.51,0,0,0-3.76.47A4.83,4.83,0,0,0,412.4,71a8.32,8.32,0,0,0-7.35-1.18c-2.76.75-5.9,2.24-7.11,4.82a8.09,8.09,0,0,0-.21,6.11c.53,1.68,2.31,4.32,4,3.7"/><path class="cls-15" d="M422.65,141.48h0a12.35,12.35,0,0,1-12.08-13c.17-3.45.33-6.24.33-6.24s-9.42-1.22-9.77-10.6.74-30.94.74-30.94h0A32.6,32.6,0,0,1,434.72,84l1.41,1-.87,44.31A12.36,12.36,0,0,1,422.65,141.48Z"/><path class="cls-18" d="M410.88,122.14A21.82,21.82,0,0,0,423,118.35s-2.89,7.28-12.27,6.67Z"/><path class="cls-15" d="M435.22,94.8c.16-.08,6.4-2.07,6.35,4.35s-6.47,5-6.48,4.86S435.22,94.8,435.22,94.8Z"/><path class="cls-18" d="M437.06,101.59s.12.08.3.17a1.08,1.08,0,0,0,.84,0,2.75,2.75,0,0,0,1.3-2.47,3.6,3.6,0,0,0-.31-1.6,1.31,1.31,0,0,0-.83-.87.57.57,0,0,0-.66.31c-.09.18-.05.3-.08.31s-.14-.1-.09-.37a.73.73,0,0,1,.26-.4.84.84,0,0,1,.62-.16,1.6,1.6,0,0,1,1.16,1,3.75,3.75,0,0,1,.37,1.8,2.91,2.91,0,0,1-1.65,2.76,1.23,1.23,0,0,1-1-.18C437.07,101.75,437,101.6,437.06,101.59Z"/><path class="cls-10" d="M404.3,95.37a1.35,1.35,0,0,0,1.33,1.32A1.28,1.28,0,0,0,407,95.45a1.34,1.34,0,0,0-1.33-1.32A1.29,1.29,0,0,0,404.3,95.37Z"/><path class="cls-10" d="M404,93.87c.17.17,1.17-.6,2.61-.64s2.52.67,2.67.49-.1-.39-.57-.72a3.7,3.7,0,0,0-2.14-.6,3.52,3.52,0,0,0-2.07.73C404,93.48,403.89,93.8,404,93.87Z"/><path class="cls-10" d="M418.42,95.36a1.35,1.35,0,0,0,1.33,1.31,1.28,1.28,0,0,0,1.35-1.24,1.34,1.34,0,0,0-1.32-1.32A1.3,1.3,0,0,0,418.42,95.36Z"/><path class="cls-10" d="M418.14,93.79c.17.17,1.17-.61,2.61-.64s2.52.66,2.67.48-.1-.39-.57-.71a3.68,3.68,0,0,0-2.14-.61,3.52,3.52,0,0,0-2.07.73C418.2,93.39,418.06,93.71,418.14,93.79Z"/><path class="cls-10" d="M413.18,104.6a9.71,9.71,0,0,0-2.35-.36c-.37,0-.72-.09-.79-.34a1.88,1.88,0,0,1,.22-1.1c.33-.9.66-1.84,1-2.83,1.41-4,2.42-7.33,2.26-7.39s-1.44,3.17-2.85,7.19l-1,2.85a2.13,2.13,0,0,0-.16,1.45,1,1,0,0,0,.62.52,2.52,2.52,0,0,0,.63.07A8.89,8.89,0,0,0,413.18,104.6Z"/><path class="cls-10" d="M417.45,105.49c-.24,0-.2,1.56-1.51,2.7s-3,1-3,1.24.38.29,1.09.29a3.86,3.86,0,0,0,2.49-.94,3.41,3.41,0,0,0,1.17-2.26C417.74,105.87,417.56,105.48,417.45,105.49Z"/><path class="cls-10" d="M417.63,88.15c.15.39,1.59.16,3.28.33s3.08.58,3.29.23c.1-.17-.15-.54-.71-.9a5.76,5.76,0,0,0-5-.43C417.87,87.65,417.56,88,417.63,88.15Z"/><path class="cls-10" d="M404.4,89.69c.26.32,1.24,0,2.44-.09s2.21.16,2.43-.18c.1-.17-.07-.5-.52-.8a3.56,3.56,0,0,0-3.92.22C404.41,89.19,404.28,89.53,404.4,89.69Z"/><path class="cls-10" d="M436.63,85.79c-.06,2.74.62,5.77.21,8.46-.06.41-1.08,1.52-1.17,1.92-.49,2.39-1.45,3.43-2.92,1a20.92,20.92,0,0,1-1.22-4.6L429.61,84a15.22,15.22,0,0,1-7.09,1.87,7.29,7.29,0,0,1-6.18-3.45,7.57,7.57,0,0,1-11.7,1.84,3.15,3.15,0,0,1-4.15,1,3.75,3.75,0,0,1-1.63-4.1c.59-2.3,3-3.6,5.27-4.33,8.85-2.85,18.77-1,26.9,3.46a13.6,13.6,0,0,1,3.3,2.36c.94,1,2.24,2.12,2.31,3.48"/><path class="cls-12" d="M429.89,85a5.22,5.22,0,0,1,1.45.24,4.92,4.92,0,0,1,1.34.86c.46.4.91.92,1.46,1.43A4.8,4.8,0,0,0,436,88.72a3.36,3.36,0,0,0,1.78,0c1-.28,1.38-.82,1.34-.86a10.06,10.06,0,0,1-1.42.48,3.09,3.09,0,0,1-1.54-.13,4.82,4.82,0,0,1-1.61-1.06c-.52-.49-1-1-1.5-1.42a4.63,4.63,0,0,0-1.54-.84C430.46,84.61,429.84,85,429.89,85Z"/><path class="cls-12" d="M431,87.85a2.75,2.75,0,0,1,1,.45,5.72,5.72,0,0,1,.82.93A4.18,4.18,0,0,0,434,90.36,4.39,4.39,0,0,0,437,91c.77-.12,1.17-.4,1.14-.46s-.47.06-1.18.07a4.69,4.69,0,0,1-2.59-.7c-.92-.51-1.38-1.49-2.11-1.91S430.93,87.78,431,87.85Z"/><path class="cls-12" d="M406.25,69.61s-.31-.08-.83.08a3.54,3.54,0,0,0-1.8,1.36c-1.15,1.6-1.42,4.46-.53,7.23a10.15,10.15,0,0,0,4.6,5.64,8.59,8.59,0,0,0,2.05.88,2.14,2.14,0,0,0,.81.14,28.38,28.38,0,0,1-2.66-1.35,10.32,10.32,0,0,1-4.27-5.49c-.85-2.62-.65-5.34.32-6.84a3.66,3.66,0,0,1,1.56-1.37C406,69.68,406.25,69.66,406.25,69.61Z"/><path class="cls-12" d="M398.48,73.5a4.15,4.15,0,0,0,.08,1.81,11.21,11.21,0,0,0,4.75,7.14,4.18,4.18,0,0,0,1.64.78,18.43,18.43,0,0,1-4.27-4.18C398.81,76.29,398.66,73.47,398.48,73.5Z"/><path class="cls-15" d="M346.77,204.19l-13.73.69a3.25,3.25,0,0,0-3.08,3.3c.07,3.13.6,7.43,3,7l1.56-6.83,11.39,10a8.27,8.27,0,0,0,4.1,2l2.68-.28Z"/><polygon class="cls-1" points="412.38 130.7 405.21 133.07 401.65 192.62 401.65 245.45 445.68 250.32 446.19 174.14 443.35 136.23 436.62 128.19 412.38 130.7"/><polygon class="cls-1" points="410.18 133.55 410.18 127.78 436.34 124.14 435.29 137.43 429.27 147.85 419.45 148.4 412.35 144.02 410.18 133.55"/><path class="cls-10" d="M412.52,132.87a6.67,6.67,0,0,1-.15-2.63,7,7,0,0,1,.37-2.62,6.77,6.77,0,0,1,.15,2.64A6.87,6.87,0,0,1,412.52,132.87Z"/><path class="cls-10" d="M419.06,132.4a8.75,8.75,0,0,1-.09-3,8.37,8.37,0,0,1,.44-2.92,8.61,8.61,0,0,1,.08,2.95A8.24,8.24,0,0,1,419.06,132.4Z"/><path class="cls-10" d="M425.39,131.74a9.52,9.52,0,0,1,0-3.12,9.1,9.1,0,0,1,.49-3.08,9.86,9.86,0,0,1,0,3.12A9.72,9.72,0,0,1,425.39,131.74Z"/><path class="cls-10" d="M431.47,130.74a12.16,12.16,0,0,1,.26-5.87,10.23,10.23,0,0,1,0,2.94A11.18,11.18,0,0,1,431.47,130.74Z"/><path class="cls-10" d="M428.56,155.91a3.78,3.78,0,0,1-.35,1c-.25.62-.64,1.5-1.15,2.57-1,2.16-2.53,5.09-4.39,8.21s-3.71,5.86-5.12,7.78c-.7,1-1.28,1.73-1.7,2.25a4.15,4.15,0,0,1-.7.77,35.37,35.37,0,0,1,2.1-3.23c1.33-2,3.12-4.72,5-7.83s3.41-6,4.51-8.11A37,37,0,0,1,428.56,155.91Z"/><path class="cls-12" d="M436.49,127.26l7.1,3.42L457.31,134a11.43,11.43,0,0,1,9.38,12.71l-7.19,56,8.58,54.3-34-1-2-20.2v-56Z"/><path class="cls-10" d="M432.08,192.76a4.81,4.81,0,0,1,.1-.7c.1-.5.23-1.15.39-2l1.51-7.22,5.19-23.77c.57-2.55,1.12-5,1.65-7.42l.07.23-2.36-2.46-.13-.14.1-.16,3.95-6.58v.2l-4.36-10.56c-.49-1.23-.89-2.22-1.18-3a6.91,6.91,0,0,1-.38-1.06,6.37,6.37,0,0,1,.5,1l1.3,2.91,4.52,10.49,0,.1-.05.1c-1.21,2-2.52,4.25-3.91,6.61l0-.3,2.36,2.45.1.1,0,.13c-.53,2.39-1.08,4.87-1.64,7.42-2.08,9.25-4,17.62-5.34,23.74-.69,3-1.26,5.43-1.67,7.19l-.48,1.94A3.48,3.48,0,0,1,432.08,192.76Z"/><path class="cls-12" d="M347.35,201.93l30.08-16.77L392,145.85a21.1,21.1,0,0,1,11.67-12.14l3.87-1.61,0,103.49.77,24.52L392,255.23,400.35,206l-2.88-24.25-2.85,11.73a15.93,15.93,0,0,1-7.43,10l-31.31,16.26Z"/><polygon class="cls-1" points="347.71 202.69 345.18 203.45 352.3 220.43 355.62 219.14 347.71 202.69"/><path class="cls-10" d="M382.87,192.14a21.9,21.9,0,0,0-2.25-3.81,21.64,21.64,0,0,0-3.33-2.91,8.42,8.42,0,0,1,5.58,6.72Z"/><path class="cls-10" d="M351,202.15c0,.07-.14.2-.16.49s.17.63.57.51a.43.43,0,0,0,.2-.73c-.17-.24-.39-.26-.4-.33s.28-.22.66.06a.88.88,0,0,1,.34.73.9.9,0,0,1-.65.77.85.85,0,0,1-1.08-1.09C350.6,202.11,351,202.08,351,202.15Z"/><path class="cls-10" d="M353.38,201.13c0,.06-.15.2-.16.49a.43.43,0,0,0,.57.51.44.44,0,0,0,.2-.74c-.17-.23-.4-.25-.41-.32s.28-.23.67.06a.88.88,0,0,1,.34.72.92.92,0,0,1-1.63.48.88.88,0,0,1-.1-.8C353,201.09,353.38,201.06,353.38,201.13Z"/><path class="cls-10" d="M407.54,194.35a2.75,2.75,0,0,1-.13-.64c-.07-.47-.17-1.08-.28-1.84-.23-1.67-.54-4-.92-6.79-.74-5.8-1.74-13.71-2.85-22.44-.15-1.24-.3-2.47-.45-3.67v-.06l0-.06c.76-1.93,1.5-3.8,2.2-5.59v.19l-2.17-5,0-.07,0-.08c1.34-4.82,2.46-8.86,3.26-11.78.4-1.38.72-2.48.95-3.31a7.71,7.71,0,0,1,.39-1.15,7.93,7.93,0,0,1-.25,1.19c-.2.83-.48,2-.83,3.34-.76,2.93-1.82,7-3.07,11.83l0-.15,2.21,4.94,0,.09,0,.1c-.69,1.79-1.42,3.66-2.17,5.59v-.12c.15,1.2.3,2.42.46,3.67,1.05,8.74,2,16.65,2.69,22.45.32,2.83.58,5.14.76,6.82l.18,1.85A2.66,2.66,0,0,1,407.54,194.35Z"/><path class="cls-10" d="M400.3,206.24a1.87,1.87,0,0,1-.1-.49c-.05-.38-.12-.85-.2-1.41-.16-1.31-.37-3.07-.64-5.21-.53-4.4-1.28-10.47-2.18-17.17s-1.78-12.76-2.42-17.14c-.32-2.13-.57-3.89-.76-5.19-.07-.57-.14-1-.19-1.42a1.73,1.73,0,0,1,0-.5,2.44,2.44,0,0,1,.13.48c.07.38.17.84.28,1.4.23,1.22.55,3,.92,5.17.74,4.37,1.68,10.42,2.58,17.13s1.59,12.79,2,17.2c.22,2.2.38,4,.48,5.22,0,.57.07,1,.09,1.43A1.62,1.62,0,0,1,400.3,206.24Z"/><path class="cls-10" d="M396.15,243a4.17,4.17,0,0,0,.69.84,3.2,3.2,0,0,0,2.75.62,4.67,4.67,0,0,0,3-2.93,18.12,18.12,0,0,0,.84-5.38,12.3,12.3,0,0,0-.55-5.37,9.82,9.82,0,0,0-2.73-3.44A12.75,12.75,0,0,1,398,225.1a2.6,2.6,0,0,1-.49-1s.21.34.65.9a15.22,15.22,0,0,0,2.17,2.11,9.8,9.8,0,0,1,2.92,3.54,12.35,12.35,0,0,1,.63,5.58,17.75,17.75,0,0,1-.91,5.53,5,5,0,0,1-3.34,3.1,3.3,3.3,0,0,1-3-.82,2.43,2.43,0,0,1-.49-.7C396.15,243.13,396.13,243,396.15,243Z"/><path class="cls-10" d="M385,204.19s1-11.47,10.08-12.53C395.05,191.66,395.22,201,385,204.19Z"/><path class="cls-11" d="M433.65,247.14l26.45,17.3,3-2.39,1.41-38.77L439.3,204.19l-3.46,1.19Z"/><polygon class="cls-1" points="439.02 204.74 440.06 246.7 434.5 246.7 436.36 205.57 439.02 204.74"/><path class="cls-15" d="M447.35,256.33a3.25,3.25,0,0,0,3,2,.32.32,0,0,1,.22.19,3,3,0,0,0,2.51,1.56,5.38,5.38,0,0,0,2.84-.82c1.38-.84,3.84-6.36,3.84-6.36l5.83-13-9.8-2.65-12.47,3.88c0,.23-2.91,12-2.91,12a3,3,0,0,0,3.5-1.85,32.26,32.26,0,0,1,2.2-4.12l.93,5.31-3.55,1.21a2.36,2.36,0,0,0,1.52,2.7Z"/><path class="cls-12" d="M451.74,165.11l16.34,30.06-13.3,39.45,14.78,8.32,18.78-43.88a12.45,12.45,0,0,0-.15-10.16l-23.05-49.49Z"/><polygon class="cls-1" points="454.79 234.62 453.41 237.68 467.35 245.19 468.81 242.52 454.79 234.62"/><path class="cls-10" d="M454.78,234.62a1.47,1.47,0,0,1,.05-.2c.05-.16.1-.35.17-.58l.71-2.23c.64-2,1.56-4.79,2.71-8.29l9.41-28.23,0,.21c-1.9-3.23-3.86-6.64-5.83-10.16-3.6-6.43-6.9-12.63-9.73-18.36-1.4-2.87-2.7-5.61-3.8-8.24a16.57,16.57,0,0,1-1.37-7.79,18.09,18.09,0,0,1,1.46-6.37,12.37,12.37,0,0,1,2.89-4,9.49,9.49,0,0,1,2.6-1.72,4.94,4.94,0,0,1,1-.37,11.64,11.64,0,0,0-3.49,2.23,12.51,12.51,0,0,0-2.75,4,17.84,17.84,0,0,0-1.36,6.27,16.28,16.28,0,0,0,1.39,7.6c1.12,2.61,2.43,5.34,3.84,8.2,2.84,5.71,6.16,11.89,9.76,18.31,2,3.52,3.91,6.93,5.8,10.16l.06.1,0,.11c-3.84,11.27-7.18,21.11-9.59,28.17-1.21,3.48-2.17,6.28-2.86,8.24l-.78,2.21-.22.57C454.82,234.56,454.79,234.63,454.78,234.62Z"/><path class="cls-10" d="M479.12,194.89a11.73,11.73,0,0,1-1.61-.57,11.73,11.73,0,0,0-4-.58,11.47,11.47,0,0,0-3.94.83,11.81,11.81,0,0,1-1.57.67,3.8,3.8,0,0,1,1.42-1,9.86,9.86,0,0,1,4.08-1,9.76,9.76,0,0,1,4.13.76A3.82,3.82,0,0,1,479.12,194.89Z"/><polygon class="cls-10" points="448.48 157.96 460.21 197.22 461.87 184.31 448.48 157.96"/><path class="cls-10" d="M467.86,235.1c0,.07-.15.2-.16.49s.17.63.57.51a.44.44,0,0,0,.2-.74c-.17-.23-.39-.25-.41-.32s.28-.23.67.06a.88.88,0,0,1,.34.72.89.89,0,0,1-.66.78.87.87,0,0,1-1-.3.89.89,0,0,1-.1-.79C467.51,235.06,467.86,235,467.86,235.1Z"/><path class="cls-10" d="M469,232.27c0,.07-.15.2-.16.49a.45.45,0,1,0,.77-.22c-.17-.24-.4-.25-.41-.33s.28-.22.67.06a.9.9,0,0,1,.34.73.89.89,0,1,1-1.73-.32C468.69,232.23,469,232.2,469,232.27Z"/><path class="cls-10" d="M485.09,182.26c-1.75.92-2.36,3.5-2.16,5.46s.93,3.89.88,5.86a24.82,24.82,0,0,1-.75,4.17,7.13,7.13,0,0,0,.12,4.17,3.21,3.21,0,0,0,3.31,2.09l1.39-2.8a15.43,15.43,0,0,0-.2-14.06Z"/><path class="cls-11" d="M570.71,393.35c.9-3.11,2.82-6.13,5.8-7.41s6.69-.58,9.86.58,6.29,2.69,9.66,2.9,7.16-1.39,8.17-4.61c.95-3-.87-6.26-3.16-8.46a20,20,0,0,0-32.7,7.85"/><g class="cls-6"><path d="M570.71,393.35c.9-3.11,2.82-6.13,5.8-7.41s6.69-.58,9.86.58,6.29,2.69,9.66,2.9,7.16-1.39,8.17-4.61c.95-3-.87-6.26-3.16-8.46a20,20,0,0,0-32.7,7.85"/></g><path class="cls-11" d="M544,406.88c-4.94-4.69-4.7-12.86-2.23-19.22s7.84-11.23,13.85-14.45A43.88,43.88,0,0,1,593.89,372a18.15,18.15,0,0,0-14.68,8.61c-2.71,4.5-3.31,10-5.54,14.7A23.15,23.15,0,0,1,544,406.88"/><path class="cls-11" d="M541.65,378.68c-5.47-6.46-6.19-16.82-5.39-25.25s2.76-16.9,1.43-25.26c-.79-4.95-2.71-9.68-3.36-14.65s.27-10.59,4.13-13.8c4.42-3.69,11.4-2.82,16,.65s7.28,8.9,9.23,14.32C568,326.6,569.54,339.82,566,352s-11.77,23-23.89,26.7"/><path class="cls-10" d="M539,431.66a4.25,4.25,0,0,1,0-.74c0-.49,0-1.21,0-2.14.07-1.85.25-4.53.66-7.82a105.86,105.86,0,0,1,2.1-11.45A52.67,52.67,0,0,1,547,396.25a55.49,55.49,0,0,1,8.54-11.42,54.74,54.74,0,0,1,8.95-7.44c1.37-.95,2.69-1.66,3.83-2.33s2.18-1.11,3-1.52l2-.82a3.59,3.59,0,0,1,.69-.26,4.9,4.9,0,0,1-.66.34l-1.93.9c-.82.43-1.82.95-3,1.58s-2.42,1.42-3.77,2.37a56.36,56.36,0,0,0-17.28,18.82c-5,8.8-6.4,18-7.4,24.53-.46,3.28-.68,5.95-.81,7.79l-.12,2.13A5.58,5.58,0,0,1,539,431.66Z"/><path class="cls-11" d="M491.85,353.21c-10.13,6.11-10.09,11.66-8.4,16.91s7.9,8.89,13.05,6.93c2.91-1.12,5-3.65,6.82-6.19s3.49-5.26,6-7.09,6.18-2.52,8.72-.71"/><g class="cls-6"><path d="M491.85,353.21c-10.13,6.11-10.09,11.66-8.4,16.91s7.9,8.89,13.05,6.93c2.91-1.12,5-3.65,6.82-6.19s3.49-5.26,6-7.09,6.18-2.52,8.72-.71"/></g><path class="cls-11" d="M484.27,359.9c2.64-3.65,9.18-4.71,13.31-2.89s7.15,5.45,9.86,9.06,5.34,7.42,9.09,9.94,9,3.42,12.72.89a11,11,0,0,0,4.33-7.49,25,25,0,0,0-.6-8.82c-.89-4.24-2.35-8.68-5.75-11.37-3.78-3-9-3.15-13.87-3-5.54.18-11.17.59-16.37,2.51s-10.51,6.08-12.72,11.16"/><path class="cls-10" d="M530.62,423.55s0-.07,0-.22l0-.65c0-.61-.06-1.45-.09-2.51-.07-2.22-.16-5.37-.27-9.24s-.28-8.54-.56-13.69-.67-10.81-1.45-16.7a53.48,53.48,0,0,0-1.68-8.48,45,45,0,0,0-7-13.57,40.53,40.53,0,0,0-4.28-4.69,31.21,31.21,0,0,0-7.57-5.16c-.5-.23-.93-.45-1.31-.61l-1-.38-.61-.25-.2-.09.22.05.62.2,1,.35c.39.14.83.35,1.33.57a30.32,30.32,0,0,1,7.72,5.09,39.21,39.21,0,0,1,4.35,4.69,42.4,42.4,0,0,1,4,6.18,44.34,44.34,0,0,1,3.16,7.48,54,54,0,0,1,1.7,8.56c.78,5.91,1.15,11.58,1.42,16.74s.38,9.8.46,13.7.11,7.06.12,9.24c0,1.07,0,1.91,0,2.52,0,.26,0,.48,0,.65S530.62,423.55,530.62,423.55Z"/><path class="cls-10" d="M534.26,428.13a28.42,28.42,0,0,1-1.11-4.35,45.53,45.53,0,0,1-.46-12.21,81.22,81.22,0,0,1,3.85-17.72c2.08-6.51,4.9-13.47,7.31-21a91.67,91.67,0,0,0,4.34-21.67,152.91,152.91,0,0,0,.32-18.09c-.17-5.15-.45-9.32-.62-12.2-.08-1.42-.15-2.53-.19-3.32,0-.36,0-.64,0-.86a1.13,1.13,0,0,1,0-.3,1.36,1.36,0,0,1,0,.29c0,.22,0,.51.09.86.06.79.16,1.9.28,3.32.22,2.87.55,7,.76,12.2a149.74,149.74,0,0,1-.22,18.14,100.07,100.07,0,0,1-1.42,10.63A94,94,0,0,1,544.28,373c-2.42,7.51-5.25,14.47-7.34,21A82.37,82.37,0,0,0,533,411.6a47.14,47.14,0,0,0,.31,12.15c.25,1.42.48,2.52.68,3.25.08.35.15.63.2.84A1.09,1.09,0,0,1,534.26,428.13Z"/><polygon class="cls-12" points="559.35 432.7 511.83 432.7 510.74 423.56 559.35 423.56 559.35 432.7"/><polygon class="cls-12" points="516.93 431.66 522.87 459.1 548.69 459.1 554.25 431.66 516.93 431.66"/><path class="cls-12" d="M559.35,432.7c0,.13-10.45.2-23.33.16s-23.34-.16-23.34-.29,10.45-.2,23.34-.16S559.35,432.58,559.35,432.7Z"/><path class="cls-10" d="M551.19,446.25a19,19,0,0,0-4.18-2.4,14.9,14.9,0,0,0-5.09-1,18.06,18.06,0,0,0-6.26,1.15c-2.16.74-4.19,1.59-6.16,2.06a14.91,14.91,0,0,1-5.32.16,10.8,10.8,0,0,1-3.42-1.09,7.53,7.53,0,0,1-.83-.52c-.17-.13-.26-.21-.25-.22s.4.23,1.16.59a12.06,12.06,0,0,0,3.39.92,14.79,14.79,0,0,0,5.18-.25c1.9-.47,3.93-1.34,6.11-2.08a17.72,17.72,0,0,1,6.41-1.13,14.58,14.58,0,0,1,5.2,1.14,13.17,13.17,0,0,1,3.1,1.81,8.8,8.8,0,0,1,.73.63C551.13,446.15,551.2,446.23,551.19,446.25Z"/><path class="cls-3" d="M550.83,448.08a20.29,20.29,0,0,0-4-2.37,13.63,13.63,0,0,0-4.9-1,17.8,17.8,0,0,0-6.06,1.09c-2.09.7-4.05,1.51-5.93,2a15.24,15.24,0,0,1-5.12.57,8.6,8.6,0,0,1-3.35-.9,5.82,5.82,0,0,1-.8-.5c-.17-.13-.26-.21-.25-.22s.4.23,1.13.56a9.21,9.21,0,0,0,3.29.74,15.56,15.56,0,0,0,5-.66c1.83-.51,3.78-1.33,5.9-2a17.49,17.49,0,0,1,6.21-1.08,13.41,13.41,0,0,1,5,1.14,13.63,13.63,0,0,1,3,1.79c.32.26.55.47.7.62S550.84,448.07,550.83,448.08Z"/><path class="cls-3" d="M551.66,444.43a21.64,21.64,0,0,0-4.29-2.54,15.88,15.88,0,0,0-5.22-1.25,16.82,16.82,0,0,0-6.46,1.14,57.36,57.36,0,0,1-6.37,2.08,16.33,16.33,0,0,1-5.5,0,12.31,12.31,0,0,1-3.53-1.12,6.19,6.19,0,0,1-.86-.53,1.85,1.85,0,0,1-.27-.23s.42.25,1.21.6a13.47,13.47,0,0,0,3.5,1,16.58,16.58,0,0,0,5.37-.1,62.88,62.88,0,0,0,6.31-2.1,16.85,16.85,0,0,1,6.63-1.13,16,16,0,0,1,8.49,3.29,9.2,9.2,0,0,1,.76.66C551.59,444.33,551.67,444.41,551.66,444.43Z"/><path class="cls-10" d="M559.77,432.74c0,.13-10.69.23-23.87.23s-23.88-.1-23.88-.23,10.69-.23,23.88-.23S559.77,432.62,559.77,432.74Z"/><path class="cls-11" d="M196.62,422.3c1.71,2.44,5,1.63,6.58.14s2.19-3.65,2.78-5.7c1.35-4.71,2.72-9.65,1.71-14.44a8.05,8.05,0,0,0-1.84-3.92,4.19,4.19,0,0,0-4-1.32c-1.68.44-2.72,2.08-3.47,3.64a34.47,34.47,0,0,0-3.4,14.77,11.92,11.92,0,0,0,1.61,6.83"/><g class="cls-19"><path d="M196.62,422.3c1.71,2.44,5,1.63,6.58.14s2.19-3.65,2.78-5.7c1.35-4.71,2.72-9.65,1.71-14.44a8.05,8.05,0,0,0-1.84-3.92,4.19,4.19,0,0,0-4-1.32c-1.68.44-2.72,2.08-3.47,3.64a34.47,34.47,0,0,0-3.4,14.77,11.92,11.92,0,0,0,1.61,6.83"/></g><path class="cls-11" d="M203,434.66a14.77,14.77,0,0,1,9.19-1.11,7.64,7.64,0,0,1,4.54,2c1.13,1.26,1.35,3.46,0,4.53a4.29,4.29,0,0,1-2.86.73c-2.43,0-5.12-.45-7.06,1-1.11.83-1.85,2.22-3.17,2.63a3.14,3.14,0,0,1-3.45-1.54,5.36,5.36,0,0,1-.39-3.94A6.05,6.05,0,0,1,203,434.66Z"/><path class="cls-11" d="M191.93,425.8a8.85,8.85,0,0,0,1.38-8.17,15.66,15.66,0,0,0-4.84-7,26,26,0,0,0-8.67-5.12,9.17,9.17,0,0,0-3.9-.66,4.1,4.1,0,0,0-3.27,2c-.91,1.74,0,3.85.91,5.57a65.72,65.72,0,0,0,5.69,8.67c1.71,2.2,3.67,4.37,6.27,5.37s5.3.88,6.68-.93"/><path class="cls-10" d="M196.51,459.12a5.46,5.46,0,0,0,.15-1.1c.08-.81.18-1.83.3-3a41.5,41.5,0,0,1,.68-4.44,33.72,33.72,0,0,1,1.61-5.24,19.22,19.22,0,0,1,2.68-4.74,10,10,0,0,1,3.38-2.82,9.37,9.37,0,0,1,2.85-.88,6,6,0,0,0,1.1-.16,4.34,4.34,0,0,0-1.12,0,8.7,8.7,0,0,0-3,.77,10,10,0,0,0-3.57,2.84,18.41,18.41,0,0,0-2.77,4.84,31.44,31.44,0,0,0-1.6,5.32,38.79,38.79,0,0,0-.6,4.5c-.09,1.28-.13,2.32-.15,3A5.44,5.44,0,0,0,196.51,459.12Z"/><path class="cls-10" d="M196.72,456.8a3.69,3.69,0,0,0,0-.52c0-.39,0-.87,0-1.47,0-1.28,0-3.13.07-5.41.11-4.56.5-10.87,1.26-17.79s1.78-13.16,2.71-17.64c.21-1.12.43-2.13.64-3s.37-1.65.53-2.26l.34-1.43a1.65,1.65,0,0,0,.09-.51,3,3,0,0,0-.18.48l-.42,1.41c-.19.61-.39,1.37-.61,2.25s-.47,1.89-.71,3a164.25,164.25,0,0,0-2.84,17.65c-.76,6.94-1.11,13.26-1.14,17.83,0,2.29,0,4.14.08,5.42q.06.9.09,1.47A2,2,0,0,0,196.72,456.8Z"/><path class="cls-10" d="M196.75,444.61a11.4,11.4,0,0,0,0-1.54c-.06-1-.2-2.42-.47-4.17a56.37,56.37,0,0,0-1.36-6.07,52.3,52.3,0,0,0-2.54-7.18,38.15,38.15,0,0,0-7.45-11.6,18,18,0,0,0-1.75-1.63c-.27-.23-.51-.46-.75-.64s-.47-.32-.68-.47a8.37,8.37,0,0,0-1.3-.82,44.81,44.81,0,0,1,4.25,3.78A40.59,40.59,0,0,1,192,425.83a57.78,57.78,0,0,1,2.56,7.12c.66,2.23,1.1,4.28,1.44,6s.5,3.14.61,4.12A10,10,0,0,0,196.75,444.61Z"/><path class="cls-11" d="M344.2,40.46a2.45,2.45,0,0,1,.51,0l1.5,0a17.67,17.67,0,0,1,2.42.24c.48.08,1,.13,1.54.24l1.73.43a27.88,27.88,0,0,1,8.31,3.72,28.92,28.92,0,0,1,8.93,38.73,29.15,29.15,0,0,1-13.9,12.09,28.23,28.23,0,0,1-9.64,2.12,27.58,27.58,0,0,1-10.08-1.25l-.3-.1h.23l-16.85,5.84-.68.24.21-.7,4.38-14,.07.33a28.83,28.83,0,0,1-6.76-24.95,28.26,28.26,0,0,1,4.35-10.38,29,29,0,0,1,6.67-7,31.14,31.14,0,0,1,3.49-2.26,32.31,32.31,0,0,1,3.36-1.53,23.23,23.23,0,0,1,3-1,17.53,17.53,0,0,1,2.6-.54c.79-.11,1.49-.23,2.09-.28l1.54,0,.93,0a1.14,1.14,0,0,1,.32,0l-.32,0-.93.08-1.52.11c-.6.07-1.29.2-2.07.32a20.58,20.58,0,0,0-2.56.6,21.84,21.84,0,0,0-3,1,33,33,0,0,0-3.29,1.55,29.75,29.75,0,0,0-3.42,2.27,28.88,28.88,0,0,0-6.5,6.91,27.88,27.88,0,0,0-4.2,10.21,28.26,28.26,0,0,0,6.7,24.37l.14.15-.06.19-4.35,14-.47-.45L335.21,96l.12,0,.12,0,.29.09a27.05,27.05,0,0,0,9.82,1.22,27.81,27.81,0,0,0,9.4-2,28.44,28.44,0,0,0,13.58-11.77,28.49,28.49,0,0,0-8.56-38,28.6,28.6,0,0,0-8.16-3.79l-1.7-.45c-.54-.12-1.05-.18-1.52-.27a17.54,17.54,0,0,0-2.4-.31l-1.49-.11Z"/><polygon class="cls-11" points="327.26 71.2 331.69 66.76 340.24 74.36 357.02 58.21 361.14 62.65 339.61 82.91 327.26 71.2"/><path class="cls-2" d="M594.62,244.94A38.83,38.83,0,1,1,549,214.44,38.79,38.79,0,0,1,594.62,244.94Z"/><path class="cls-8" d="M585.56,246.73a29.59,29.59,0,1,1-34.74-23.24A29.55,29.55,0,0,1,585.56,246.73Z"/><path class="cls-7" d="M585.37,245.82c-.17,0-.55-1.21-1.45-3.34a31.6,31.6,0,0,0-5.11-8.24,30.24,30.24,0,0,0-4.88-4.52,29.87,29.87,0,0,0-6.66-3.66,27.13,27.13,0,0,0-3.92-1.23,27.65,27.65,0,0,0-4.23-.68,28.43,28.43,0,0,0-4.43,0,32.24,32.24,0,0,0-4.52.67,33,33,0,0,0-4.36,1.37,28.21,28.21,0,0,0-4,2,29,29,0,0,0-6.5,5.28,30,30,0,0,0-4.39,6.2,30.44,30.44,0,0,0-2.42,6.2,31.71,31.71,0,0,0-1,9.64c.12,2.31.33,3.6.15,3.64s-.63-1.2-1-3.55a27.49,27.49,0,0,1,.3-10.1A29.86,29.86,0,0,1,533.79,232a28.84,28.84,0,0,1,3.16-3.08,29.46,29.46,0,0,1,8-4.85,30.23,30.23,0,0,1,9.57-2.2,29.25,29.25,0,0,1,4.78.07,27.89,27.89,0,0,1,4.55.79,28.22,28.22,0,0,1,4.19,1.4,30.07,30.07,0,0,1,7,4.1,29.73,29.73,0,0,1,5,5,27.52,27.52,0,0,1,4.7,9C585.42,244.47,585.5,245.79,585.37,245.82Z"/><path class="cls-7" d="M563.22,269.12l1.07,5-4.5.95-1-4.9c-4.51.67-9.09.19-12-1.22l1.31-6a18.59,18.59,0,0,0,9.41,1.34l-1.6-7.52c-5.25-.15-11.19-.63-12.55-7.07-1-4.77,1.58-9.61,8.52-11.92l-1.06-5,4.51-1,1,4.91a20.9,20.9,0,0,1,9.72.81l-1.08,6a19.1,19.1,0,0,0-7.38-.88l1.62,7.66c5.24.11,11.09.61,12.44,7C572.67,262,570.11,266.76,563.22,269.12Zm-8.72-18.94-1.36-6.4c-2.27,1.05-2.94,2.56-2.62,4S552.39,250,554.5,250.18Zm10,9.2c-.33-1.57-1.82-2.15-3.9-2.42l1.32,6.22C564.11,262.2,564.85,260.82,564.54,259.38Z"/><path class="cls-1" d="M148.22,60.8s0-.22,0-.64,0-1,0-1.84c0-1.62,0-4,0-7,0-6.11,0-14.9,0-25.7l.1.1-60.88,0h0l.12-.13c0,12.47,0,24.38,0,35.23l-.11-.12,43.79.06,12.57,0h3.38l-3.33,0-12.55,0-43.86,0h-.12V60.8c0-10.85,0-22.76,0-35.23v-.12h.13l60.88,0h.1v.09c0,10.83,0,19.64,0,25.76,0,3,0,5.41,0,7,0,.8,0,1.41,0,1.83S148.22,60.8,148.22,60.8Z"/><path class="cls-1" d="M148.24,29.84c0,.07-13.61.12-30.41.12s-30.41-.05-30.41-.12,13.61-.13,30.41-.13S148.24,29.77,148.24,29.84Z"/><rect class="cls-2" x="92.61" y="35.65" width="18.81" height="18.81"/><path class="cls-1" d="M143.8,38.75a.8.8,0,0,1-.27,0l-.79,0-2.92,0-9.63,0-9.62,0-2.92,0-.79,0a.9.9,0,0,1-.28,0l.28,0,.79,0,2.92,0,9.62,0,9.63,0,2.92,0,.79,0A.94.94,0,0,1,143.8,38.75Z"/><path class="cls-1" d="M144.41,43l-.28,0-.81,0-3,0-9.84,0-9.84,0-3,0-.81,0-.29,0a1.11,1.11,0,0,1,.29,0l.81,0,3,0,9.84,0,9.84,0,3,0,.81,0A1.07,1.07,0,0,1,144.41,43Z"/><path class="cls-1" d="M144.41,47.15l-.28,0-.81,0-3,0-9.84,0-9.84,0-3,0-.81,0-.29,0a.94.94,0,0,1,.29,0l.81,0,3,0,9.84,0,9.84,0,3,0,.81,0A.9.9,0,0,1,144.41,47.15Z"/><path class="cls-1" d="M144.41,51.35l-.28,0-.81,0-3,0-9.84,0-9.84,0-3,0-.81,0-.29,0a.94.94,0,0,1,.29,0l.81,0,3,0,9.84,0,9.84,0,3,0,.81,0A.9.9,0,0,1,144.41,51.35Z"/><path class="cls-9" d="M612.14,392.56c-.3.88,10,40,10,40l7.05-1.47-9.7-38.53Z"/><polygon class="cls-2" points="666.84 386.97 652.73 432.56 660.96 432.56 674.49 390.21 666.84 386.97"/><polygon class="cls-9" points="679.78 379.91 663.61 432.56 671.84 432.56 687.43 383.15 679.78 379.91"/><polygon class="cls-1" points="617.13 429.33 625.37 457.86 666.84 457.86 674.49 429.33 617.13 429.33"/><path class="cls-1" d="M638.53,429.33a1.31,1.31,0,0,1-.09-.3l-.22-.87-.8-3.37-2.85-12.46-9.31-41.55.26.21h-7.26l.25-.32c3.68,16.35,7,31,9.36,41.58,1.16,5.27,2.1,9.52,2.76,12.5l.72,3.39c.07.36.13.66.18.88a1.67,1.67,0,0,1,0,.31,1.31,1.31,0,0,1-.09-.3c-.06-.22-.13-.51-.23-.87-.19-.8-.46-1.93-.81-3.37-.7-3-1.69-7.21-2.92-12.46-2.42-10.58-5.77-25.21-9.52-41.55l-.07-.31h7.8l0,.2,9.15,41.58c1.13,5.27,2.05,9.52,2.69,12.5.3,1.45.54,2.58.71,3.39l.17.88A1.67,1.67,0,0,1,638.53,429.33Z"/><rect class="cls-3" x="512" y="39.31" width="177.7" height="120.06"/><path class="cls-1" d="M689.71,159.37s0-.75,0-2.18,0-3.57,0-6.34c0-5.56,0-13.71-.06-24.14,0-20.86-.08-50.85-.14-87.4l.26.26L512,39.63h0l.32-.32c0,42.77,0,83.44,0,120.06l-.3-.3,128,.15,36.57.08,9.73,0,2.52,0,.86,0-.83,0H686.4l-9.67,0-36.51.08L512,159.66h-.29v-.29c0-36.62,0-77.29,0-120.06V39H512l177.69.06H690v.26c-.05,36.62-.1,66.66-.13,87.55,0,10.42-.05,18.55-.07,24.09,0,2.75,0,4.86,0,6.29S689.71,159.37,689.71,159.37Z"/><path class="cls-1" d="M512,50c0-.17,39.75-.32,88.78-.32s88.78.15,88.78.32-39.74.33-88.78.33S512,50.2,512,50Z"/><path class="cls-1" d="M519,44.62a1.43,1.43,0,1,1-1.43-1.44A1.44,1.44,0,0,1,519,44.62Z"/><ellipse class="cls-1" cx="522.47" cy="44.62" rx="1.42" ry="1.44"/><ellipse class="cls-1" cx="527.28" cy="44.62" rx="1.42" ry="1.44"/><rect class="cls-1" x="527.28" y="62.54" width="47.4" height="47.83"/><path class="cls-1" d="M665.34,76.06c0,.18-18.49.33-41.29.33s-41.29-.15-41.29-.33,18.48-.32,41.29-.32S665.34,75.89,665.34,76.06Z"/><path class="cls-1" d="M665.34,85c0,.18-18.49.32-41.29.32s-41.29-.14-41.29-.32,18.48-.32,41.29-.32S665.34,84.77,665.34,85Z"/><path class="cls-1" d="M665.34,93.84c0,.18-18.49.32-41.29.32s-41.29-.14-41.29-.32,18.48-.32,41.29-.32S665.34,93.66,665.34,93.84Z"/><path class="cls-1" d="M631.56,102.73a10.8,10.8,0,0,1-1.91.12l-5.23.11c-4.42.05-10.52.09-17.26.09s-12.84,0-17.25-.09l-5.23-.11a10.87,10.87,0,0,1-1.92-.12,10.14,10.14,0,0,1,1.92-.13l5.23-.1c4.41-.06,10.51-.09,17.25-.09s12.84,0,17.26.09l5.23.1A10.08,10.08,0,0,1,631.56,102.73Z"/><rect class="cls-1" x="530.25" y="126.5" width="22.28" height="22.48"/><rect class="cls-1" x="570.65" y="126.5" width="22.28" height="22.48"/><rect class="cls-1" x="611.05" y="126.5" width="22.28" height="22.48"/><rect class="cls-1" x="651.45" y="126.5" width="22.28" height="22.48"/><path class="cls-8" d="M164.7,103.47A39.56,39.56,0,1,1,118.26,72.4,39.5,39.5,0,0,1,164.7,103.47Z"/><path class="cls-7" d="M164.45,102.26c-.23,0-.73-1.62-1.94-4.47a42.1,42.1,0,0,0-6.82-11,40.82,40.82,0,0,0-6.53-6,40.09,40.09,0,0,0-8.9-4.9A36.77,36.77,0,0,0,135,74.19a37.32,37.32,0,0,0-5.66-.9,38.92,38.92,0,0,0-5.92-.05,41.92,41.92,0,0,0-6,.89A43,43,0,0,0,111.57,76a38.65,38.65,0,0,0-14,9.68A39.35,39.35,0,0,0,91.71,94a40.38,40.38,0,0,0-3.24,8.28,42,42,0,0,0-1.32,12.89c.16,3.09.44,4.81.2,4.86s-.85-1.59-1.37-4.74a36.36,36.36,0,0,1,.41-13.5,40.09,40.09,0,0,1,3.07-8.92,40.59,40.59,0,0,1,6-9,38.4,38.4,0,0,1,4.22-4.13,39.15,39.15,0,0,1,5-3.6,39.63,39.63,0,0,1,5.71-2.88,40.67,40.67,0,0,1,12.8-2.94,38.84,38.84,0,0,1,6.39.1,37.47,37.47,0,0,1,6.08,1,37.92,37.92,0,0,1,5.6,1.87,39.65,39.65,0,0,1,16,12.16,36.82,36.82,0,0,1,6.27,12C164.52,100.46,164.63,102.22,164.45,102.26Z"/><path class="cls-7" d="M134.84,133.41l1.43,6.74-6,1.27-1.4-6.56c-6,.9-12.14.25-16-1.63l1.75-8a24.83,24.83,0,0,0,12.58,1.8l-2.13-10c-7-.21-15-.85-16.78-9.46-1.36-6.38,2.12-12.84,11.39-15.94l-1.41-6.68,6-1.28,1.39,6.57a27.82,27.82,0,0,1,13,1.07l-1.44,8.05a25,25,0,0,0-9.87-1.18l2.17,10.23c7,.15,14.83.82,16.63,9.3C147.48,123.87,144.05,130.26,134.84,133.41Zm-11.66-25.33-1.81-8.54c-3,1.39-3.93,3.41-3.51,5.39S120.36,107.8,123.18,108.08Zm13.43,12.31c-.44-2.11-2.43-2.88-5.21-3.24l1.76,8.31C136,124.16,137,122.32,136.61,120.39Z"/></g></svg>