<?xml version="1.0"?>
<svg xmlns="http://www.w3.org/2000/svg" xmlns:xlink="http://www.w3.org/1999/xlink" xmlns:svgjs="http://svgjs.com/svgjs" version="1.1" width="512" height="512" x="0" y="0" viewBox="0 0 64 64" style="enable-background:new 0 0 512 512" xml:space="preserve" class=""><g><g xmlns="http://www.w3.org/2000/svg" id="email_marketing" data-name="email marketing"><path d="m61 29v4l-29 15-29-15v-4a2.006 2.006 0 0 1 2-2h54a2.006 2.006 0 0 1 2 2z" fill="#4190f5" data-original="#ffeb99" style="" class=""/><path d="m46 23h-4a9.966 9.966 0 0 0 -1.34-5l3.46-2a13.854 13.854 0 0 1 1.88 7z" fill="#c6c5ca" data-original="#c6c5ca" style=""/><path d="m42 23h4a13.854 13.854 0 0 1 -1.88 7l-3.46-2a9.966 9.966 0 0 0 1.34-5z" fill="#898890" data-original="#898890" style="" class=""/><path d="m44.12 16-3.46 2a10.19 10.19 0 0 0 -3.66-3.66l2-3.46a13.821 13.821 0 0 1 5.12 5.12z" fill="#898890" data-original="#898890" style="" class=""/><path d="m40.66 28 3.46 2a13.821 13.821 0 0 1 -5.12 5.12l-2-3.46a10.19 10.19 0 0 0 3.66-3.66z" fill="#c6c5ca" data-original="#c6c5ca" style=""/><path d="m37 31.66 2 3.46a13.854 13.854 0 0 1 -7 1.88v-4a9.966 9.966 0 0 0 5-1.34z" fill="#898890" data-original="#898890" style="" class=""/><path d="m39 10.88-2 3.46a9.966 9.966 0 0 0 -5-1.34v-4a13.854 13.854 0 0 1 7 1.88z" fill="#c6c5ca" data-original="#c6c5ca" style=""/><path d="m32 33v4a13.854 13.854 0 0 1 -7-1.88l2-3.46a9.966 9.966 0 0 0 5 1.34z" fill="#c6c5ca" data-original="#c6c5ca" style=""/><path d="m32 9v4a9.966 9.966 0 0 0 -5 1.34l-2-3.46a13.854 13.854 0 0 1 7-1.88z" fill="#898890" data-original="#898890" style="" class=""/><path d="m25 10.88 2 3.46a10.19 10.19 0 0 0 -3.66 3.66l-3.46-2a13.821 13.821 0 0 1 5.12-5.12z" fill="#c6c5ca" data-original="#c6c5ca" style=""/><path d="m27 31.66-2 3.46a13.821 13.821 0 0 1 -5.12-5.12l3.46-2a10.19 10.19 0 0 0 3.66 3.66z" fill="#898890" data-original="#898890" style="" class=""/><path d="m19.88 16 3.46 2a9.966 9.966 0 0 0 -1.34 5h-4a13.854 13.854 0 0 1 1.88-7z" fill="#898890" data-original="#898890" style="" class=""/><path d="m23.34 28-3.46 2a13.854 13.854 0 0 1 -1.88-7h4a9.966 9.966 0 0 0 1.34 5z" fill="#c6c5ca" data-original="#c6c5ca" style=""/><circle cx="32" cy="23" fill="#4190f5" r="10" data-original="#ffde55" style="" class=""/><path d="m42 23a10 10 0 0 1 -11.99 9.8 10.005 10.005 0 0 0 0-19.6 10 10 0 0 1 11.99 9.8z" fill="#0b67dd" data-original="#ebbf00" style="" class=""/><path d="m58 8 4 5h-2v10h-4v-10h-2z" fill="#57a4ff" data-original="#57a4ff" style="" class=""/><path d="m61 33v26a2.006 2.006 0 0 1 -2 2h-6l-15.73-15.73z" fill="#0b67dd" data-original="#ffd422" style="" class=""/><path d="m53 61h-42l15.73-15.73 5.27 2.73 5.27-2.73z" fill="#0b67dd" data-original="#ffd422" style="" class=""/><path d="m48 3 4 5h-2v4h-4v-4h-2z" fill="#57a4ff" data-original="#57a4ff" style="" class=""/><path d="m26.73 45.27-15.73 15.73h-6a2.006 2.006 0 0 1 -2-2v-26z" fill="#0b67dd" data-original="#ffd422" style="" class=""/><path d="m16 3 4 5h-2v4h-4v-4h-2z" fill="#57a4ff" data-original="#57a4ff" style="" class=""/><path d="m6 8 4 5h-2v10h-4v-10h-2z" fill="#57a4ff" data-original="#57a4ff" style="" class=""/><path d="m61 33v3l-23.73 12.27-5.27 2.73-5.27-2.73-23.73-12.27v-3l23.73 12.27 5.27 2.73 5.27-2.73z" fill="#09438d" data-original="#ddb200" style="" class=""/><path d="m59 26h-12.3a14.819 14.819 0 0 0 .3-3 15 15 0 0 0 -30 0 14.819 14.819 0 0 0 .3 3h-12.3a3.009 3.009 0 0 0 -3 3v30a3.009 3.009 0 0 0 3 3h54a3.009 3.009 0 0 0 3-3v-30a3.009 3.009 0 0 0 -3-3zm-14.05-4h-2a11.089 11.089 0 0 0 -.97-3.6l1.73-1.01a13.022 13.022 0 0 1 1.24 4.61zm-2.97 5.6a11.089 11.089 0 0 0 .97-3.6h2a13.022 13.022 0 0 1 -1.24 4.61zm.74 2.74a13.244 13.244 0 0 1 -3.38 3.38l-1-1.74a11.406 11.406 0 0 0 2.64-2.64zm-3.38-18.06a13.244 13.244 0 0 1 3.38 3.38l-1.74 1a11.406 11.406 0 0 0 -2.64-2.64zm-6.34-2.23a13.022 13.022 0 0 1 4.61 1.24l-1.01 1.73a11.089 11.089 0 0 0 -3.6-.97zm8 12.95a9 9 0 1 1 -9-9 9.014 9.014 0 0 1 9 9zm-3.39 11.71a13.022 13.022 0 0 1 -4.61 1.24v-2a11.089 11.089 0 0 0 3.6-.97zm-6.61-.76v2a13.022 13.022 0 0 1 -4.61-1.24l1.01-1.73a11.089 11.089 0 0 0 3.6.97zm-5.34-1.97-1 1.74a13.244 13.244 0 0 1 -3.38-3.38l1.74-1a11.406 11.406 0 0 0 2.64 2.64zm5.34-21.93v2a11.089 11.089 0 0 0 -3.6.97l-1.01-1.73a13.022 13.022 0 0 1 4.61-1.24zm-6.34 2.23 1 1.74a11.406 11.406 0 0 0 -2.64 2.64l-1.74-1a13.244 13.244 0 0 1 3.38-3.38zm-4.37 5.11 1.73 1.01a11.089 11.089 0 0 0 -.97 3.6h-2a13.022 13.022 0 0 1 1.24-4.61zm.76 6.61a11.089 11.089 0 0 0 .97 3.6l-1.73 1.01a13.022 13.022 0 0 1 -1.24-4.61zm-16.05 36a1 1 0 0 1 -1-1v-24.36l21.05 10.89-14.46 14.47zm8.41 0 13.51-13.5 4.62 2.39a1.017 1.017 0 0 0 .92 0l4.62-2.39 13.51 13.5zm46.59-1a1 1 0 0 1 -1 1h-5.59l-14.46-14.47 21.05-10.89zm0-26.61-28 14.48-28-14.48v-3.39a1 1 0 0 1 1-1h12.88a14.969 14.969 0 0 0 28.24 0h12.88a1 1 0 0 1 1 1z" fill="#000000" data-original="#000000" style="" class=""/><path d="m31 30h2v-2a2 2 0 0 0 2-2v-2a2 2 0 0 0 -2-2h-2v-2h4v-2h-2v-2h-2v2a2 2 0 0 0 -2 2v2a2 2 0 0 0 2 2h2v2h-4v2h2z" fill="#000000" data-original="#000000" style="" class=""/><path d="m62.781 12.375-4-5a1.036 1.036 0 0 0 -1.562 0l-4 5a1 1 0 0 0 .781 1.625h1v9a1 1 0 0 0 1 1h4a1 1 0 0 0 1-1v-9h1a1 1 0 0 0 .781-1.625zm-3.781.625v9h-2v-9a1 1 0 0 0 -.922-1l1.922-2.4 1.922 2.4a1 1 0 0 0 -.922 1z" fill="#000000" data-original="#000000" style="" class=""/><path d="m3 14v9a1 1 0 0 0 1 1h4a1 1 0 0 0 1-1v-9h1a1 1 0 0 0 .781-1.625l-4-5a1.036 1.036 0 0 0 -1.562 0l-4 5a1 1 0 0 0 .781 1.625zm3-4.4 1.922 2.4a1 1 0 0 0 -.922 1v9h-2v-9a1 1 0 0 0 -.922-1z" fill="#000000" data-original="#000000" style="" class=""/><path d="m12 9h1v3a1 1 0 0 0 1 1h4a1 1 0 0 0 1-1v-3h1a1 1 0 0 0 .781-1.625l-4-5a1.036 1.036 0 0 0 -1.562 0l-4 5a1 1 0 0 0 .781 1.625zm4-4.4 1.922 2.4a1 1 0 0 0 -.922 1v3h-2v-3a1 1 0 0 0 -.922-1z" fill="#000000" data-original="#000000" style="" class=""/><path d="m44 9h1v3a1 1 0 0 0 1 1h4a1 1 0 0 0 1-1v-3h1a1 1 0 0 0 .781-1.625l-4-5a1.036 1.036 0 0 0 -1.562 0l-4 5a1 1 0 0 0 .781 1.625zm4-4.4 1.922 2.4a1 1 0 0 0 -.922 1v3h-2v-3a1 1 0 0 0 -.922-1z" fill="#000000" data-original="#000000" style="" class=""/></g></g></svg>
