<svg xmlns="http://www.w3.org/2000/svg" viewBox="0 0 750 500"><defs><style>.cls-1{fill:#fff;}.cls-2{fill:#e0e0e0;}.cls-3{fill:#f5f5f5;}.cls-4{fill:#ebebeb;}.cls-5{fill:#2c5eaa;}.cls-6{opacity:0.3;}.cls-7{fill:#375a64;}.cls-8{fill:#263238;}.cls-9{fill:#00805b;}.cls-10{fill:#fafafa;}.cls-11{fill:#1a2e35;}.cls-12{opacity:0.1;}.cls-13{fill:#ffbf9d;}.cls-14{opacity:0.5;}.cls-15{opacity:0.4;}</style></defs><g id="Background_Complete" data-name="Background Complete"><rect class="cls-1" x="580.41" y="144.08" width="131.31" height="88.72"/><path class="cls-2" d="M711.73,232.8s0-.55,0-1.61,0-2.64,0-4.68c0-4.11,0-10.13-.05-17.85,0-15.41-.06-37.57-.1-64.58l.19.19-131.3,0h0l.23-.24c0,31.61,0,61.66,0,88.72l-.21-.22,94.6.11,27,.06,7.18,0h1.89l-1.84,0-7.14,0-27,.06-94.74.11h-.22v-.22c0-27.06,0-57.11,0-88.72v-.23h.25l131.3,0h.19v.19c0,27.06-.08,49.26-.1,64.7,0,7.7,0,13.71-.05,17.8,0,2,0,3.59,0,4.65S711.73,232.8,711.73,232.8Z"/><path class="cls-2" d="M580.41,152c0-.13,29.38-.24,65.6-.24s65.61.11,65.61.24-29.37.24-65.61.24S580.41,152.13,580.41,152Z"/><path class="cls-2" d="M585.6,148a1.06,1.06,0,1,1-2.11,0,1.06,1.06,0,1,1,2.11,0Z"/><ellipse class="cls-2" cx="588.15" cy="148.01" rx="1.05" ry="1.06"/><ellipse class="cls-2" cx="591.7" cy="148.01" rx="1.05" ry="1.06"/><rect class="cls-2" x="591.7" y="161.25" width="35.03" height="35.34"/><path class="cls-2" d="M693.72,171.24c0,.13-13.66.24-30.51.24s-30.51-.11-30.51-.24,13.66-.23,30.51-.23S693.72,171.11,693.72,171.24Z"/><path class="cls-2" d="M693.72,177.81c0,.13-13.66.24-30.51.24s-30.51-.11-30.51-.24,13.66-.24,30.51-.24S693.72,177.68,693.72,177.81Z"/><path class="cls-2" d="M693.72,184.38c0,.13-13.66.24-30.51.24s-30.51-.11-30.51-.24,13.66-.24,30.51-.24S693.72,184.25,693.72,184.38Z"/><path class="cls-2" d="M668.76,191a8.83,8.83,0,0,1-1.41.09l-3.87.08c-3.26,0-7.77.06-12.75.06s-9.49,0-12.75-.06l-3.86-.08a8.9,8.9,0,0,1-1.42-.09,7,7,0,0,1,1.42-.1l3.86-.07c3.26,0,7.77-.07,12.75-.07s9.49,0,12.75.07l3.87.07A6.91,6.91,0,0,1,668.76,191Z"/><rect class="cls-2" x="593.9" y="208.51" width="16.46" height="16.61"/><rect class="cls-2" x="623.75" y="208.51" width="16.46" height="16.61"/><rect class="cls-2" x="653.6" y="208.51" width="16.46" height="16.61"/><rect class="cls-2" x="683.46" y="208.51" width="16.46" height="16.61"/><path class="cls-2" d="M691.54,312.94s0-.32,0-.93,0-1.52,0-2.71c0-2.37,0-5.86,0-10.33,0-8.94,0-21.82-.08-37.65l.14.15-89.2,0h0l.18-.19c0,18.27,0,35.73,0,51.62l-.17-.17,64.17.08,18.42,0,4.92,0h0L685,313l-18.39,0-64.28.08h-.17v-.17c0-15.89,0-33.35,0-51.62v-.18h.19l89.2,0h.15v.14c0,15.86-.06,28.78-.08,37.74,0,4.46,0,7.93,0,10.3,0,1.17,0,2.06,0,2.68S691.54,312.94,691.54,312.94Z"/><path class="cls-2" d="M691.58,267.57c0,.1-20,.19-44.57.19s-44.57-.09-44.57-.19,19.95-.18,44.57-.18S691.58,267.47,691.58,267.57Z"/><rect class="cls-3" x="610.06" y="276.09" width="27.56" height="27.56"/><path class="cls-2" d="M685.07,280.63a1.51,1.51,0,0,1-.4,0l-1.16,0-4.28.06-14.1.05-14.1-.05-4.28-.06-1.16,0a1.6,1.6,0,0,1-.4,0l.4,0,1.16,0,4.28-.06,14.1-.05,14.1.05,4.28.06,1.16,0Z"/><path class="cls-2" d="M686,286.79l-.41,0-1.19,0-4.37.06-14.41.05-14.42-.05-4.37-.06-1.19,0-.41,0a1.2,1.2,0,0,1,.41,0l1.19,0,4.37-.06,14.42-.06,14.41.06,4.37.06,1.19,0A1.2,1.2,0,0,1,686,286.79Z"/><path class="cls-2" d="M686,292.94a1.65,1.65,0,0,1-.41,0l-1.19,0-4.37.06-14.41.05-14.42-.05-4.37-.06-1.19,0a1.65,1.65,0,0,1-.41,0l.41,0,1.19,0,4.37-.06,14.42-.05,14.41.05,4.37.06,1.19,0Z"/><path class="cls-2" d="M686,299.1l-.41,0-1.19,0-4.37.06-14.41,0-14.42,0-4.37-.06-1.19,0-.41,0a1.2,1.2,0,0,1,.41,0l1.19,0,4.37-.06,14.42-.05L680,299l4.37.06,1.19,0A1.2,1.2,0,0,1,686,299.1Z"/><path class="cls-4" d="M653.36,387.32a11.93,11.93,0,0,0-6.77,6.44,21,21,0,0,0-1.65,9.38c.16,6.2,3.1,12.69,6.42,17.92,5.56-4.05,7.44-11.81,8.15-15.81,1.11-6.31-.71-18.4-6.15-17.93"/><path class="cls-4" d="M644.47,430.66a10.19,10.19,0,0,0-2.43-9.93,13.52,13.52,0,0,0-9.66-4c-1.65,0-3.47.3-4.53,1.57a4.34,4.34,0,0,0-.45,4.39,8.78,8.78,0,0,0,3,3.49c4.23,3.2,8.91,5.52,14.1,4.45"/><path class="cls-2" d="M649.34,445.38a20.51,20.51,0,0,0-.35-4.08A18.38,18.38,0,0,0,647.8,437a40.64,40.64,0,0,0-2.24-5,20.54,20.54,0,0,0-6.66-7.33,15,15,0,0,0-2.7-1.34,3.5,3.5,0,0,0-1.08-.27c0,.12,1.46.6,3.51,2a21.81,21.81,0,0,1,6.32,7.26,48.32,48.32,0,0,1,2.26,4.88,21,21,0,0,1,1.3,4.17A28.63,28.63,0,0,0,649.34,445.38Z"/><path class="cls-2" d="M653.93,396.66a11.21,11.21,0,0,0-.38,2c-.21,1.32-.48,3.23-.79,5.59-.62,4.72-1.4,11.26-2.09,18.5s-1.13,13.81-1.35,18.57c-.11,2.38-.18,4.31-.19,5.64a11.09,11.09,0,0,0,0,2.07,11.72,11.72,0,0,0,.24-2.06c.1-1.45.24-3.34.41-5.62.34-4.75.86-11.31,1.55-18.54s1.39-13.65,1.89-18.5c.23-2.28.42-4.17.56-5.62A11.74,11.74,0,0,0,653.93,396.66Z"/><path class="cls-4" d="M652.06,433.7a23.81,23.81,0,0,1,16.57-14.1c1.87-.42,4.2-.44,5.3,1.13s.27,3.77-.81,5.36a20.35,20.35,0,0,1-21.06,8.13"/><path class="cls-2" d="M666.21,424.68a3.4,3.4,0,0,0-1.06.27c-.67.21-1.61.57-2.77,1.06a26.61,26.61,0,0,0-8.23,5.3,16.38,16.38,0,0,0-3.19,4.41,16.41,16.41,0,0,0-1.63,7.18,3.35,3.35,0,0,0,.08,1.09c.14,0,.14-1.55.66-3.95a18,18,0,0,1,1.46-4,17.2,17.2,0,0,1,3.11-4.2,30.14,30.14,0,0,1,8-5.35A34,34,0,0,0,666.21,424.68Z"/></g><g id="Plant"><path class="cls-5" d="M126.25,436.26c.58-2.27-.9-4.54-2.57-6.19s-3.66-3.12-4.52-5.29c-1.41-3.52.48-8.08-1.91-11-1.41-1.73-3.94-2.31-5.19-4.15a9.44,9.44,0,0,1-1.13-3.3,33.55,33.55,0,0,0-8.33-15.6,29,29,0,0,0,3.27,15c1,1.85,2.16,3.65,2.48,5.71.52,3.35-1.35,6.8-.52,10.09.94,3.76,5.16,6.27,5.36,10.14.17,3.27-2.68,6.15-2.47,9.42a9,9,0,0,0,1.45,3.88c2.53,4.2,6.25,7.1,11.88,7l6.9.25Z"/><g class="cls-6"><path class="cls-7" d="M126.25,436.26c.58-2.27-.9-4.54-2.57-6.19s-3.66-3.12-4.52-5.29c-1.41-3.52.48-8.08-1.91-11-1.41-1.73-3.94-2.31-5.19-4.15a9.44,9.44,0,0,1-1.13-3.3,33.55,33.55,0,0,0-8.33-15.6,29,29,0,0,0,3.27,15c1,1.85,2.16,3.65,2.48,5.71.52,3.35-1.35,6.8-.52,10.09.94,3.76,5.16,6.27,5.36,10.14.17,3.27-2.68,6.15-2.47,9.42a9,9,0,0,0,1.45,3.88c2.53,4.2,6.25,7.1,11.88,7l6.9.25Z"/></g><path class="cls-8" d="M132.35,452.41a5.63,5.63,0,0,0,1.9,0,11.49,11.49,0,0,0,2.24-.57,9.25,9.25,0,0,0,2.77-1.52,3.81,3.81,0,0,0,1.14-1.51,7.28,7.28,0,0,0,.33-2.06,17.24,17.24,0,0,1,.16-2.24,6,6,0,0,1,.84-2.22c.81-1.42,2.16-2.78,2.6-4.72a15.71,15.71,0,0,0-.19-6,12.85,12.85,0,0,1,.16-6.48c.74-2.15,2.26-4.1,3-6.54s.41-5.09.57-7.7a10.21,10.21,0,0,1,.89-3.83c.56-1.22,1.34-2.38,1.94-3.66,1.23-2.6,1.44-5.55,1.78-8.43.16-1.46.33-2.93.49-4.41a21.9,21.9,0,0,1,.77-4.41,37.18,37.18,0,0,1,1.65-4.27,14.73,14.73,0,0,0,.8-2.23c.13-.82.17-1.58.22-2.38a28.24,28.24,0,0,0-.18-4.77c-.19-1.6-.48-3.17-.65-4.77l0-.28,0-.31-.29.14a10.71,10.71,0,0,0-3.71,3.13,16.88,16.88,0,0,0-2.28,4.21,51,51,0,0,0-2.15,9,24.65,24.65,0,0,1-2.84,8.35c-.75,1.23-1.67,2.35-2.47,3.55a9.74,9.74,0,0,0-1.71,3.93c-.41,2.92,1.2,5.48.87,8.07a9,9,0,0,1-1.26,3.58c-.63,1.1-1.37,2.12-2.06,3.15a20.45,20.45,0,0,0-1.86,3.18,10.14,10.14,0,0,0-.84,3.46c-.17,2.33.16,4.54,0,6.62a15.2,15.2,0,0,1-1.71,5.67c-.83,1.7-1.76,3.23-2.54,4.72a22.93,22.93,0,0,0-1,2.2,10.81,10.81,0,0,0-.61,2.18,14.15,14.15,0,0,0-.05,3.94,9.87,9.87,0,0,0,2,5,4.93,4.93,0,0,0,.55.61,3.25,3.25,0,0,0,.46.38c.25.19.39.28.39.28a8.65,8.65,0,0,1-1.33-1.32,10,10,0,0,1-1.88-5,13.82,13.82,0,0,1,.09-3.88,10.66,10.66,0,0,1,.61-2.13,22.62,22.62,0,0,1,1-2.17c.79-1.48,1.72-3,2.58-4.72a15.65,15.65,0,0,0,1.76-5.77c.18-2.12-.14-4.34,0-6.61a9.6,9.6,0,0,1,.83-3.34,19.85,19.85,0,0,1,1.83-3.12c.7-1,1.44-2.05,2.09-3.18a9.3,9.3,0,0,0,1.31-3.72c.34-2.76-1.26-5.34-.85-8a9.37,9.37,0,0,1,1.66-3.76c.79-1.18,1.71-2.3,2.48-3.56a25,25,0,0,0,2.91-8.48,51,51,0,0,1,2.13-9,16.44,16.44,0,0,1,2.22-4.1,10.12,10.12,0,0,1,3.56-3l-.32-.18,0,.28c.18,1.61.46,3.19.65,4.77a27.42,27.42,0,0,1,.18,4.7,21.12,21.12,0,0,1-.21,2.3,14.54,14.54,0,0,1-.77,2.15,39.71,39.71,0,0,0-1.67,4.32,21.87,21.87,0,0,0-.77,4.49c-.17,1.48-.33,2.95-.49,4.41-.33,2.9-.55,5.8-1.73,8.31-.58,1.25-1.35,2.4-1.93,3.66a10.5,10.5,0,0,0-.92,4c-.15,2.67.19,5.27-.53,7.63s-2.22,4.3-3,6.53a13.16,13.16,0,0,0-.15,6.64,15.42,15.42,0,0,1,.23,5.94c-.4,1.85-1.71,3.19-2.54,4.66a6.19,6.19,0,0,0-.86,2.31,22.55,22.55,0,0,0-.15,2.26,6.71,6.71,0,0,1-.29,2,3.67,3.67,0,0,1-1.07,1.45,9.35,9.35,0,0,1-2.7,1.53,12.42,12.42,0,0,1-2.21.6,9,9,0,0,1-1.41.13C132.52,452.4,132.35,452.41,132.35,452.41Z"/><path class="cls-8" d="M154.15,371.12a.64.64,0,0,0-.06.21c-.05.17-.1.37-.16.62-.13.55-.29,1.37-.56,2.39s-.89,2.18-1.43,3.61-1.12,3.05-1.64,4.89-1,3.88-1.48,6.07a25.2,25.2,0,0,1-2.21,6.74c-.56,1.12-1.2,2.26-1.7,3.5a16.32,16.32,0,0,0-1,4,78.35,78.35,0,0,1-1.49,8.34c-1.38,5.66-2.7,11-3.9,15.95s-2.33,9.29-3.27,13-1.64,6.67-2.16,8.77l-.57,2.4c-.06.25-.1.45-.14.62a.61.61,0,0,0,0,.22,1,1,0,0,0,.08-.21c0-.16.1-.36.18-.61.15-.58.37-1.37.64-2.37.56-2.1,1.34-5.08,2.31-8.74s2.1-8.1,3.36-13,2.54-10.29,3.94-15.95a79.41,79.41,0,0,0,1.48-8.38,15.9,15.9,0,0,1,1-3.87c.49-1.2,1.11-2.33,1.68-3.47a25.65,25.65,0,0,0,2.2-6.84c.47-2.19.92-4.23,1.42-6.07s1-3.47,1.57-4.89,1.12-2.59,1.37-3.64.37-1.86.48-2.42l.11-.63A.72.72,0,0,0,154.15,371.12Z"/><path class="cls-9" d="M133.57,452.43c4.51-2.68,5.8-10.81,3.92-15.71s-5.17-9.36-5.68-14.58c-.39-4,.92-8.13,0-12.05-1.26-5.29-6.43-9.39-6.37-14.83,0-3.05,1.77-5.92,1.64-9-.17-3.74-3-6.7-4.82-10-2.72-5-2.9-11-3.83-16.65s-3.09-11.71-8.1-14.49c-.74,4.8-2,8.09-1.6,14.59.14,2.33,2.85,6.8,3.22,11.92.22,3.06.37,6.12.56,9.19a29.58,29.58,0,0,0,1.44,8.79c.82,2.14,2.14,4.08,2.74,6.28,1.15,4.15-.36,8.65.57,12.85.78,3.56,3.24,6.62,3.75,10.23.7,5.08-2.58,10.35-.9,15.19.84,2.4,2.81,4.33,3.37,6.8.44,1.93,0,4,.36,5.9.63,3.11,6.57,5.53,9.74,5.34"/><path class="cls-8" d="M111.56,349.91a2.57,2.57,0,0,0,0,.27c0,.21.06.47.11.79.1.7.21,1.71.45,3s.93,2.81,1.48,4.61,1.14,3.86,1.65,6.17,1,4.87,1.4,7.63A31.63,31.63,0,0,0,119,381c.63,1.44,1.34,2.88,1.87,4.42a19.47,19.47,0,0,1,1,4.87,99.42,99.42,0,0,0,1.32,10.5c1.38,7.11,2.7,13.88,3.89,20.05s2.4,11.67,3.36,16.33,1.75,8.38,2.3,11c.27,1.28.49,2.28.65,3l.17.77a1.58,1.58,0,0,0,.08.27.89.89,0,0,0,0-.27c0-.2-.08-.46-.14-.79-.13-.71-.32-1.72-.56-3-.52-2.64-1.26-6.4-2.16-11s-2-10.2-3.26-16.35-2.49-12.94-3.86-20.05a98.12,98.12,0,0,1-1.33-10.46,20.09,20.09,0,0,0-1-5c-.55-1.57-1.27-3-1.9-4.44a32,32,0,0,1-2.32-8.52c-.47-2.75-.92-5.32-1.45-7.64s-1.13-4.39-1.73-6.18-1.27-3.28-1.54-4.57-.41-2.32-.54-3c-.06-.32-.1-.58-.14-.78A1.23,1.23,0,0,0,111.56,349.91Z"/></g><g id="Character_2" data-name="Character 2"><path class="cls-4" d="M163.54,425.28v25.07h5.79a34.81,34.81,0,0,1,0-8c.55-3,6.84-10.58,6.65-17.12Z"/><path class="cls-2" d="M209.86,425.28v25.07h5.79a34.81,34.81,0,0,1,0-8c.55-3,6.84-10.58,6.65-17.12Z"/><path class="cls-4" d="M255.19,425.28v25.07H249.4a35.44,35.44,0,0,0,0-8c-.56-3-6.84-10.58-6.66-17.12Z"/><path class="cls-2" d="M295.28,425.28v25.07h-5.79a34.81,34.81,0,0,0,0-8c-.55-3-6.84-10.58-6.65-17.12Z"/><rect class="cls-3" x="159.6" y="301.52" width="138.72" height="124.57"/><polygon class="cls-2" points="260.95 301.52 261.98 426.09 298.32 426.09 298.32 301.51 260.95 301.52"/><rect class="cls-4" x="165.84" y="310.68" width="89.06" height="31.7"/><rect class="cls-4" x="165.84" y="348.7" width="89.06" height="31.7"/><rect class="cls-4" x="165.84" y="386.71" width="89.06" height="31.7"/><polygon class="cls-2" points="199.98 265.72 196.14 301.37 245.36 301.37 249.44 265.72 199.98 265.72"/><polygon class="cls-1" points="202.01 268.28 198.27 299.48 242.69 299.48 246.28 268.28 202.01 268.28"/><polygon class="cls-4" points="209.48 273.53 207.18 294.23 235.21 294.23 236.65 273.53 209.48 273.53"/><polyline class="cls-4" points="247.68 281.07 257.85 301.51 245.36 301.37 247.68 281.07"/><path class="cls-2" d="M213.63,328.19a3.26,3.26,0,1,1-3.26-3.26A3.25,3.25,0,0,1,213.63,328.19Z"/><path class="cls-2" d="M213.63,366.58a3.26,3.26,0,1,1-3.26-3.26A3.26,3.26,0,0,1,213.63,366.58Z"/><path class="cls-2" d="M213.63,405a3.26,3.26,0,1,1-3.26-3.25A3.26,3.26,0,0,1,213.63,405Z"/><polygon class="cls-2" points="230.49 67.49 151.83 66.72 154.03 169.23 232.68 169.51 230.49 67.49"/><polygon class="cls-10" points="225.41 72.06 156.56 70.27 158.55 163.24 227.39 164.08 225.41 72.06"/><polygon class="cls-4" points="213.66 85.95 167.98 85.19 169.37 150.16 215.02 149.19 213.66 85.95"/><polygon class="cls-3" points="169.37 150.16 214.3 115.81 167.98 85.19 169.37 150.16"/><polygon class="cls-2" points="593.21 45.59 524.21 44.92 526.13 134.84 595.12 135.09 593.21 45.59"/><polygon class="cls-10" points="588.75 49.6 528.35 48.03 530.1 129.59 590.48 130.33 588.75 49.6"/><polygon class="cls-4" points="578.44 61.78 538.37 61.12 539.59 118.12 579.63 117.26 578.44 61.78"/><polygon class="cls-3" points="539.59 118.12 579 87.97 538.37 61.12 539.59 118.12"/><path class="cls-4" d="M515.91,383.68c-.29.89,10,40,10,40l7.06-1.48-9.71-38.53Z"/><polygon class="cls-3" points="570.62 378.1 556.5 423.69 564.74 423.69 578.27 381.33 570.62 378.1"/><polygon class="cls-4" points="583.56 371.04 567.38 423.69 575.62 423.69 591.21 374.27 583.56 371.04"/><polygon class="cls-2" points="520.91 420.45 529.15 448.98 570.62 448.98 578.27 420.45 520.91 420.45"/><path class="cls-2" d="M542.3,420.45l-.09-.29-.22-.88c-.19-.8-.45-1.93-.79-3.37-.68-3-1.65-7.21-2.85-12.45-2.37-10.59-5.65-25.22-9.31-41.55l.25.2H522l.25-.32c3.69,16.35,7,31,9.37,41.59,1.16,5.26,2.1,9.52,2.76,12.49.3,1.45.55,2.59.72,3.39.07.37.13.66.17.89a1,1,0,0,1,0,.3l-.09-.29-.22-.88c-.2-.8-.47-1.93-.82-3.36-.69-3-1.68-7.22-2.91-12.46-2.43-10.59-5.78-25.22-9.52-41.55l-.08-.32h7.8l0,.2c3.59,16.35,6.82,31,9.15,41.59,1.13,5.26,2,9.52,2.69,12.49.3,1.45.53,2.59.7,3.39l.17.89A1,1,0,0,1,542.3,420.45Z"/><path class="cls-11" d="M676.46,450.17c0,.15-136.87.26-305.66.26s-305.69-.11-305.69-.26,136.83-.26,305.69-.26S676.46,450,676.46,450.17Z"/><path class="cls-11" d="M555.53,177.23a3.77,3.77,0,0,0-.71-.22,5,5,0,0,0-2.17,0,7.79,7.79,0,0,0-3.15,1.61,16.65,16.65,0,0,0-3.2,3.73c-2,3.14-3.66,7.48-5.54,12.54a183.49,183.49,0,0,0-5.64,17.63v0a5.18,5.18,0,0,1-1.16,1.44,2.29,2.29,0,0,1-1.82.58,3.38,3.38,0,0,1-1.67-1c-.47-.44-.91-.9-1.35-1.36a30.85,30.85,0,0,0-2.77-2.71,5.12,5.12,0,0,0-3.51-1.43,4.74,4.74,0,0,0-3.21,2.14,8.16,8.16,0,0,0-1.11,4c-.17,2.87.66,5.75,1.16,8.75s1.13,6,1.71,9.18c.3,1.57.59,3.15.89,4.76l.45,2.41a3.11,3.11,0,0,1-.29,2.56,1.27,1.27,0,0,1-1.33.46,3.33,3.33,0,0,1-1.18-.62l-2-1.52a45.48,45.48,0,0,0-4.24-2.85,16.16,16.16,0,0,0-4.74-2,5.5,5.5,0,0,0-2.52,0,3.75,3.75,0,0,0-2.06,1.38,8.46,8.46,0,0,0-1.35,5,28.6,28.6,0,0,0,.53,5.42A69,69,0,0,0,506.55,258a14.57,14.57,0,0,1,.87,2.78,2,2,0,0,1-.37,1.54,1.59,1.59,0,0,1-.29.29.93.93,0,0,1-.39.23,1.22,1.22,0,0,1-.87-.19,15.05,15.05,0,0,1-2.31-1.84l-2.14-2a31.85,31.85,0,0,0-4.55-3.66,9.75,9.75,0,0,0-2.63-1.2,3.27,3.27,0,0,0-2.67.34,3.82,3.82,0,0,0-1.51,2.31,11.88,11.88,0,0,0-.36,2.93,25.3,25.3,0,0,0,.75,6A52,52,0,0,0,494.43,277a85.71,85.71,0,0,0,6.47,10.76,59.94,59.94,0,0,0,3.9,5l4.06,5,0,.06-.24-.09,6.36-.93a56.21,56.21,0,0,0,6.27-1.08,87,87,0,0,0,12-3.61,52.26,52.26,0,0,0,10.95-5.58,25,25,0,0,0,4.57-3.92,11.48,11.48,0,0,0,1.71-2.41,3.87,3.87,0,0,0,.44-2.73,3.25,3.25,0,0,0-1.75-2,9.41,9.41,0,0,0-2.75-.88,30.71,30.71,0,0,0-5.83-.35l-2.92,0a14.74,14.74,0,0,1-3-.2,1.19,1.19,0,0,1-.78-.44,1.13,1.13,0,0,1-.13-.43,1.85,1.85,0,0,1,0-.41,2,2,0,0,1,.77-1.39,13.79,13.79,0,0,1,2.51-1.47,69.79,69.79,0,0,0,9.51-5.93,27.62,27.62,0,0,0,4-3.66,8.5,8.5,0,0,0,2.36-4.61,3.69,3.69,0,0,0-.6-2.4,5.52,5.52,0,0,0-1.85-1.71,16.36,16.36,0,0,0-4.84-1.72,43.77,43.77,0,0,0-5.06-.74l-2.52-.24a3.39,3.39,0,0,1-1.29-.34,1.27,1.27,0,0,1-.67-1.24,3.18,3.18,0,0,1,1.51-2.09l2-1.48,3.85-2.92,7.44-5.65c2.39-1.88,4.94-3.46,6.74-5.69a8.27,8.27,0,0,0,1.85-3.69,4.74,4.74,0,0,0-.95-3.74,3.34,3.34,0,0,0-1.63-1,8.37,8.37,0,0,0-1.93-.32,33,33,0,0,0-3.86.14c-.64,0-1.28.1-1.91.1a3.32,3.32,0,0,1-1.89-.41,2.31,2.31,0,0,1-1-1.65,5.21,5.21,0,0,1,.11-1.85v0a182.14,182.14,0,0,0,7.66-16.81c2-5,3.73-9.29,4.35-13a17,17,0,0,0,.2-4.9A7.87,7.87,0,0,0,557.6,179a4.74,4.74,0,0,0-1.54-1.51,4.09,4.09,0,0,0-.67-.33,2.78,2.78,0,0,1,.69.29,4.73,4.73,0,0,1,1.6,1.5,8.09,8.09,0,0,1,1.22,3.37,17.19,17.19,0,0,1-.16,4.95c-.6,3.72-2.3,8-4.29,13a181.17,181.17,0,0,1-7.62,16.87l0,0a4.73,4.73,0,0,0-.1,1.72,2,2,0,0,0,.82,1.43,3.12,3.12,0,0,0,1.71.35c.61,0,1.24,0,1.88-.1a29.67,29.67,0,0,1,3.91-.15,8.18,8.18,0,0,1,2,.32,3.86,3.86,0,0,1,1.8,1.08,5.07,5.07,0,0,1,1,4,8.37,8.37,0,0,1-1.92,3.87c-1.84,2.3-4.42,3.89-6.79,5.77l-7.43,5.66-3.84,2.93-2,1.48a4.29,4.29,0,0,0-.89.79,2,2,0,0,0-.46,1,.82.82,0,0,0,.46.82,2.84,2.84,0,0,0,1.12.28l2.52.24a45.09,45.09,0,0,1,5.1.74,16.31,16.31,0,0,1,5,1.77,6,6,0,0,1,2,1.85,4.24,4.24,0,0,1,.68,2.68,9,9,0,0,1-2.47,4.89,29.68,29.68,0,0,1-4.1,3.73,70,70,0,0,1-9.57,6,14.22,14.22,0,0,0-2.42,1.41,1.54,1.54,0,0,0-.6,1.05,1.67,1.67,0,0,0,0,.31c0,.08,0,.27.07.25a.85.85,0,0,0,.46.21,14.7,14.7,0,0,0,2.84.18l2.92,0a32.85,32.85,0,0,1,5.92.35,10.13,10.13,0,0,1,2.9.93,3.77,3.77,0,0,1,2,2.37,4.34,4.34,0,0,1-.48,3.08,12.08,12.08,0,0,1-1.78,2.52,25.46,25.46,0,0,1-4.66,4,52.88,52.88,0,0,1-11.06,5.65,87.57,87.57,0,0,1-12.1,3.63,57.78,57.78,0,0,1-6.29,1.08l-6.37.93-.15,0-.09-.11-.05-.06-4.06-5a61.31,61.31,0,0,1-3.91-5.05A87.51,87.51,0,0,1,494,277.26a52.8,52.8,0,0,1-4.37-11.61,25.18,25.18,0,0,1-.77-6.1,12.76,12.76,0,0,1,.38-3.06,4.34,4.34,0,0,1,1.72-2.59,3.77,3.77,0,0,1,3.08-.41,10,10,0,0,1,2.76,1.26,31.74,31.74,0,0,1,4.62,3.72l2.14,2a14,14,0,0,0,2.22,1.77.85.85,0,0,0,.49.16s.15-.09.22-.14a2.28,2.28,0,0,0,.22-.22,1.53,1.53,0,0,0,.26-1.18,14.16,14.16,0,0,0-.84-2.67A69,69,0,0,1,503,247.32a28.42,28.42,0,0,1-.53-5.51,8.94,8.94,0,0,1,1.46-5.28,4.19,4.19,0,0,1,2.3-1.54,6.29,6.29,0,0,1,2.73,0,16.71,16.71,0,0,1,4.88,2,47.56,47.56,0,0,1,4.27,2.88l2,1.52a3,3,0,0,0,1,.55.83.83,0,0,0,.89-.29,2,2,0,0,0,.33-1,4.49,4.49,0,0,0-.13-1.18c-.15-.81-.29-1.61-.44-2.41-.3-1.6-.59-3.18-.88-4.75-.57-3.13-1.14-6.2-1.69-9.18s-1.32-5.9-1.15-8.85a8.49,8.49,0,0,1,1.18-4.15,5.12,5.12,0,0,1,3.49-2.3,3.88,3.88,0,0,1,2.05.41,8.66,8.66,0,0,1,1.71,1.11,33.14,33.14,0,0,1,2.8,2.75c.43.46.87.92,1.32,1.34a3.09,3.09,0,0,0,1.5.89,2,2,0,0,0,1.57-.51,4.86,4.86,0,0,0,1.09-1.34l0,0a180.63,180.63,0,0,1,5.72-17.64c1.9-5.06,3.55-9.4,5.63-12.55a16.63,16.63,0,0,1,3.26-3.74,7.88,7.88,0,0,1,3.21-1.6,4.79,4.79,0,0,1,2.2,0A3.1,3.1,0,0,1,555.53,177.23Z"/><path class="cls-11" d="M550.28,190.83a1.1,1.1,0,0,1-.1.33l-.34.94c-.33.85-.79,2.06-1.37,3.6-1.22,3.15-3,7.65-5.09,13.2l-16.61,43.64C520.31,269.6,514.4,285,510,296.13c-2.18,5.56-4,10.06-5.24,13.15l-1.46,3.56-.39.92a2.85,2.85,0,0,1-.15.31,1.1,1.1,0,0,1,.1-.33c.08-.24.2-.55.34-.94.33-.85.79-2.06,1.37-3.6,1.22-3.14,2.95-7.65,5.09-13.2l16.61-43.64c6.46-17.05,12.37-32.47,16.76-43.59,2.18-5.56,4-10.05,5.24-13.15l1.46-3.56c.17-.38.3-.69.39-.92Z"/><path class="cls-11" d="M550.82,225.34a16.24,16.24,0,0,1-2.5,1.49l-6.12,3.41c-2.4,1.33-4.58,2.51-6.19,3.32a12.3,12.3,0,0,1-2.67,1.16,22,22,0,0,1,2.5-1.49l6.1-3.45c2.4-1.33,4.6-2.49,6.21-3.28A15.24,15.24,0,0,1,550.82,225.34Z"/><path class="cls-11" d="M532.53,234.12c-.13.06-2.51-4.47-5.31-10.14s-5-10.3-4.84-10.36,2.5,4.47,5.31,10.13S532.66,234.06,532.53,234.12Z"/><path class="cls-11" d="M523.79,260.75a14.7,14.7,0,0,1-2.2-2c-1.3-1.3-3-3.14-4.85-5.29s-3.35-4.16-4.41-5.65a14.54,14.54,0,0,1-1.61-2.5,18.88,18.88,0,0,1,1.9,2.27c1.14,1.44,2.71,3.42,4.52,5.55s3.49,4,4.71,5.37A20.35,20.35,0,0,1,523.79,260.75Z"/><path class="cls-11" d="M542.08,256.46a14.06,14.06,0,0,1-2.64.77c-1.64.41-3.92.95-6.44,1.51s-4.82,1-6.48,1.35a14.16,14.16,0,0,1-2.72.41,14.73,14.73,0,0,1,2.64-.77c1.64-.41,3.92-.94,6.45-1.5s4.81-1,6.47-1.36A14.26,14.26,0,0,1,542.08,256.46Z"/><path class="cls-11" d="M537.35,281a24.56,24.56,0,0,1-3.4.91c-2.12.49-5,1.14-8.28,1.83s-6.18,1.28-8.32,1.68a23.38,23.38,0,0,1-3.47.54,22.89,22.89,0,0,1,3.4-.9c2.11-.5,5-1.15,8.28-1.83s6.18-1.28,8.31-1.68A24.47,24.47,0,0,1,537.35,281Z"/><path class="cls-11" d="M514.4,285.64a4.39,4.39,0,0,1-.75-.68c-.46-.47-1.1-1.15-1.89-2-1.57-1.72-3.68-4.14-5.9-6.92s-4.13-5.36-5.46-7.27c-.67-1-1.19-1.74-1.54-2.29a3.85,3.85,0,0,1-.5-.88,3.84,3.84,0,0,1,.66.76l1.68,2.19c1.4,1.85,3.35,4.4,5.57,7.16s4.27,5.23,5.77,7A27.33,27.33,0,0,1,514.4,285.64Z"/><path class="cls-9" d="M504.4,352.62c-17.36-14-19.88-37.93-17.7-59.14.37-3.54.23-7.3,2.13-10.3s6-4.86,9.07-3.14c2.55,1.42,3.48,4.56,4.79,7.2a20.82,20.82,0,0,0,7.77,8.52c2.18,1.33,4.93,2.23,7.24,1.16,3.18-1.48,3.83-5.69,4-9.22L523,268c.22-3.53.46-7.14,1.79-10.41s4-6.22,7.39-6.93,7.44,1.51,7.91,5a32.48,32.48,0,0,1-.2,4.4c0,1.48.57,3.14,1.93,3.65s2.86-.4,4-1.36c3.89-3.31,6.67-7.73,9.3-12.14s5.18-8.93,8.76-12.59,8.35-6.42,13.43-6.36,10.24,3.55,11.18,8.6-2.31,9.91-5.74,13.72a78.93,78.93,0,0,1-17.48,14.51,6.56,6.56,0,0,0-3,2.77c-.93,2.3,1.14,4.79,3.41,5.72,2.57,1.06,5.45,1,8.18,1.49s5.63,1.93,6.49,4.61c1.2,3.7-2.08,7.28-5.22,9.55a67.75,67.75,0,0,1-20.76,10.16c-2.67.77-5.46,1.42-7.67,3.1s-3.71,4.76-2.61,7.34,4.29,3.59,7,3.27,5.29-1.62,8-2.42c5-1.5,11.22-.74,14,3.67,1.85,2.89,1.77,6.74.51,10a25.84,25.84,0,0,1-5.95,8.35A68,68,0,0,1,537.32,354c-11.52,3.13-22,3.47-32.92-1.39"/><g class="cls-12"><path d="M504.4,352.62c-17.36-14-19.88-37.93-17.7-59.14.37-3.54.23-7.3,2.13-10.3s6-4.86,9.07-3.14c2.55,1.42,3.48,4.56,4.79,7.2a20.82,20.82,0,0,0,7.77,8.52c2.18,1.33,4.93,2.23,7.24,1.16,3.18-1.48,3.83-5.69,4-9.22L523,268c.22-3.53.46-7.14,1.79-10.41s4-6.22,7.39-6.93,7.44,1.51,7.91,5a32.48,32.48,0,0,1-.2,4.4c0,1.48.57,3.14,1.93,3.65s2.86-.4,4-1.36c3.89-3.31,6.67-7.73,9.3-12.14s5.18-8.93,8.76-12.59,8.35-6.42,13.43-6.36,10.24,3.55,11.18,8.6-2.31,9.91-5.74,13.72a78.93,78.93,0,0,1-17.48,14.51,6.56,6.56,0,0,0-3,2.77c-.93,2.3,1.14,4.79,3.41,5.72,2.57,1.06,5.45,1,8.18,1.49s5.63,1.93,6.49,4.61c1.2,3.7-2.08,7.28-5.22,9.55a67.75,67.75,0,0,1-20.76,10.16c-2.67.77-5.46,1.42-7.67,3.1s-3.71,4.76-2.61,7.34,4.29,3.59,7,3.27,5.29-1.62,8-2.42c5-1.5,11.22-.74,14,3.67,1.85,2.89,1.77,6.74.51,10a25.84,25.84,0,0,1-5.95,8.35A68,68,0,0,1,537.32,354c-11.52,3.13-22,3.47-32.92-1.39"/></g><path class="cls-11" d="M503,368.37a156,156,0,0,1,7.76-28.7,318.8,318.8,0,0,1,14.89-33.19L530,298c1.44-2.78,2.86-5.55,4.42-8.16a159.22,159.22,0,0,1,9.81-14.53c3.35-4.47,6.68-8.58,9.83-12.41s6.17-7.33,9-10.41A125.36,125.36,0,0,1,577.81,239c1.85-1.46,3.32-2.54,4.33-3.26l1.15-.81a2.36,2.36,0,0,1,.4-.25,2.19,2.19,0,0,1-.36.31l-1.11.86c-1,.75-2.43,1.87-4.25,3.35a131.74,131.74,0,0,0-14.48,13.63c-2.85,3.09-5.84,6.6-9,10.44s-6.45,8-9.77,12.43A157.5,157.5,0,0,0,535,290.15c-1.55,2.6-3,5.34-4.39,8.14l-4.35,8.49a327.48,327.48,0,0,0-14.91,33.1,159.27,159.27,0,0,0-7.87,28.56"/><path class="cls-11" d="M534.65,289.8a6.69,6.69,0,0,1-.25-1.53c-.11-1-.24-2.42-.37-4.19-.25-3.55-.44-8.46-.63-13.88s-.45-10.32-.76-13.85c-.15-1.77-.28-3.2-.39-4.19a6.62,6.62,0,0,1-.09-1.54,7.59,7.59,0,0,1,.34,1.51c.18,1,.39,2.4.6,4.17.43,3.54.76,8.45.95,13.87s.33,10.19.44,13.88c.07,1.67.12,3.08.17,4.21A8,8,0,0,1,534.65,289.8Z"/><path class="cls-11" d="M580.61,284.44a11,11,0,0,1-1.83.09c-1.17,0-2.86.05-5,.15-4.18.16-10,.59-16.31,1.34s-12.07,1.7-16.19,2.49c-2.06.39-3.72.74-4.87,1a9.28,9.28,0,0,1-1.8.31,10.38,10.38,0,0,1,1.74-.56c1.13-.31,2.78-.74,4.84-1.18,4.1-.92,9.83-1.93,16.2-2.7a160,160,0,0,1,16.38-1.15c2.1,0,3.8,0,5,.06A9.68,9.68,0,0,1,580.61,284.44Z"/><path class="cls-11" d="M511.42,338.88a2.26,2.26,0,0,1-.27-.58c-.18-.46-.4-1-.67-1.69-.57-1.48-1.34-3.63-2.25-6.31-1.83-5.35-4.13-12.82-6.56-21.09s-4.65-15.76-6.37-21.14c-.84-2.61-1.54-4.76-2.05-6.36L492.7,280a2.35,2.35,0,0,1-.15-.62,2.47,2.47,0,0,1,.27.58c.18.45.4,1,.66,1.69.57,1.47,1.34,3.63,2.26,6.3,1.83,5.35,4.13,12.82,6.55,21.1s4.66,15.75,6.38,21.13c.84,2.62,1.53,4.77,2.05,6.37l.55,1.74A2.27,2.27,0,0,1,511.42,338.88Z"/><path class="cls-11" d="M573.06,323.58a2.72,2.72,0,0,1-.62.2l-1.79.47-6.6,1.65c-5.58,1.39-13.25,3.41-21.73,5.64s-16.18,4.19-21.79,5.47c-2.8.64-5.07,1.13-6.65,1.44l-1.82.35a2.77,2.77,0,0,1-.64.08s.21-.1.61-.21l1.8-.47,6.6-1.65c5.57-1.39,13.25-3.4,21.73-5.64s16.18-4.18,21.78-5.46c2.8-.64,5.08-1.14,6.65-1.45l1.82-.35A2.42,2.42,0,0,1,573.06,323.58Z"/><rect class="cls-7" x="265.93" y="76.57" width="242.51" height="332.3"/><polygon class="cls-2" points="498.86 389.11 453.94 389.11 286.13 389.11 286.13 90 498.86 90 498.86 351.9 498.86 389.11"/><polygon class="cls-4" points="495.49 383.56 450.98 383.56 284.68 383.56 284.68 86.05 495.49 86.05 495.49 346.55 495.49 383.56"/><polygon class="cls-10" points="472.84 360.41 448.56 380.18 280.75 380.18 280.75 86.8 493.48 86.8 493.48 343.68 472.84 360.41"/><path class="cls-11" d="M472.84,360.41s.43-.37,1.3-1.08l3.89-3.18,15.39-12.53,0,.06c0-42.19-.08-136-.15-256.88l.23.24-210.87,0h-1.85l.26-.26c0,110.3,0,212.05-.06,293.38l-.2-.21,167.81.12-.06,0,18.24-14.79,4.57-3.69c1-.82,1.53-1.22,1.53-1.22l-1.5,1.26-4.54,3.72-18.18,14.86,0,0h0l-167.81.12h-.21v-.21c0-81.33,0-183.08-.05-293.38v-.26h2.11l210.87,0h.24v.23c-.07,120.93-.13,214.69-.15,256.88v0l0,0-15.45,12.47-3.92,3.15C473.29,360.07,472.84,360.41,472.84,360.41Z"/><path class="cls-9" d="M358.41,66.3h58.15a14.15,14.15,0,0,1,14.15,14.15V96.15a0,0,0,0,1,0,0H343.65a0,0,0,0,1,0,0V81.06A14.76,14.76,0,0,1,358.41,66.3Z"/><polygon class="cls-9" points="364.98 66.3 361.8 50.2 411.93 50.2 409.14 66.3 364.98 66.3"/><path class="cls-9" d="M338.84,169.38H303V133.54h35.84Zm-34.84-1h33.84V134.54H304Z"/><path class="cls-11" d="M465.48,142.2c0,.14-25,.26-55.71.26s-55.72-.12-55.72-.26,24.94-.26,55.72-.26S465.48,142.06,465.48,142.2Z"/><path class="cls-11" d="M465.48,149.65c0,.14-25,.26-55.71.26s-55.72-.12-55.72-.26,24.94-.26,55.72-.26S465.48,149.5,465.48,149.65Z"/><path class="cls-11" d="M465.48,157.09c0,.15-25,.26-55.71.26s-55.72-.11-55.72-.26,24.94-.26,55.72-.26S465.48,157,465.48,157.09Z"/><path class="cls-11" d="M465.48,164.54c0,.14-25,.26-55.71.26s-55.72-.12-55.72-.26,24.94-.26,55.72-.26S465.48,164.4,465.48,164.54Z"/><path class="cls-9" d="M338.84,224.62H303V188.78h35.84Zm-34.84-1h33.84V189.78H304Z"/><polygon class="cls-9" points="310.12 207.44 314.88 202.32 322.81 208.67 340.96 191.05 345.31 196.17 322.46 218.71 310.12 207.44"/><path class="cls-11" d="M465.48,197.43c0,.15-25,.26-55.71.26s-55.72-.11-55.72-.26,24.94-.26,55.72-.26S465.48,197.29,465.48,197.43Z"/><path class="cls-11" d="M465.48,204.88c0,.14-25,.26-55.71.26s-55.72-.12-55.72-.26,24.94-.26,55.72-.26S465.48,204.74,465.48,204.88Z"/><path class="cls-11" d="M465.48,212.33c0,.14-25,.26-55.71.26s-55.72-.12-55.72-.26,24.94-.26,55.72-.26S465.48,212.18,465.48,212.33Z"/><path class="cls-11" d="M465.48,219.77c0,.15-25,.26-55.71.26s-55.72-.11-55.72-.26,24.94-.26,55.72-.26S465.48,219.63,465.48,219.77Z"/><path class="cls-9" d="M338.84,278.06H303V242.23h35.84Zm-34.84-1h33.84V243.23H304Z"/><polygon class="cls-9" points="310.12 260.88 314.88 255.77 322.81 262.12 340.96 244.5 345.31 249.62 322.46 272.16 310.12 260.88"/><path class="cls-11" d="M465.48,250.88c0,.14-25,.26-55.71.26s-55.72-.12-55.72-.26,24.94-.26,55.72-.26S465.48,250.74,465.48,250.88Z"/><path class="cls-11" d="M465.48,258.33c0,.14-25,.26-55.71.26s-55.72-.12-55.72-.26,24.94-.26,55.72-.26S465.48,258.18,465.48,258.33Z"/><path class="cls-11" d="M465.48,265.77c0,.15-25,.27-55.71.27s-55.72-.12-55.72-.27,24.94-.26,55.72-.26S465.48,265.63,465.48,265.77Z"/><path class="cls-11" d="M465.48,273.22c0,.15-25,.26-55.71.26s-55.72-.11-55.72-.26S379,273,409.77,273,465.48,273.08,465.48,273.22Z"/><path class="cls-9" d="M338.84,329.67H303V293.83h35.84Zm-34.84-1h33.84V294.83H304Z"/><polygon class="cls-9" points="310.12 312.49 314.88 307.38 322.81 313.72 340.96 296.1 345.31 301.23 322.46 323.77 310.12 312.49"/><path class="cls-11" d="M465.48,302.49c0,.14-25,.26-55.71.26s-55.72-.12-55.72-.26,24.94-.26,55.72-.26S465.48,302.34,465.48,302.49Z"/><path class="cls-11" d="M465.48,309.93c0,.15-25,.26-55.71.26s-55.72-.11-55.72-.26,24.94-.26,55.72-.26S465.48,309.79,465.48,309.93Z"/><path class="cls-11" d="M465.48,317.38c0,.14-25,.26-55.71.26s-55.72-.12-55.72-.26,24.94-.26,55.72-.26S465.48,317.24,465.48,317.38Z"/><path class="cls-11" d="M465.48,324.83c0,.14-25,.26-55.71.26s-55.72-.12-55.72-.26,24.94-.26,55.72-.26S465.48,324.68,465.48,324.83Z"/><polygon class="cls-2" points="455.23 331.61 431.91 379.91 448.56 379.91 455.23 331.61"/><polygon class="cls-10" points="448.56 380.18 455.23 331.88 493.48 343.68 448.56 380.18"/><path class="cls-11" d="M448.56,380.18l12.86-10.58,31.89-26.11.09.44-14.77-4.55-23.47-7.26.31-.2c-2,14-3.71,26-4.92,34.59-1.21,8.3-1.83,12.59-2,13.67a2.1,2.1,0,0,1,0-.21l.09-.67c.08-.63.19-1.5.34-2.63.31-2.35.75-5.72,1.31-10,1.16-8.61,2.78-20.72,4.67-34.86l0-.29.27.09,23.49,7.23,14.76,4.56.46.14-.37.3-32.28,26-9.43,7.57-2.51,2-.65.51C448.63,380.14,448.56,380.19,448.56,380.18Z"/><g class="cls-6"><polyline points="408.46 50.2 405.7 66.3 409.14 66.3 411.93 50.2 407.54 50.2"/></g><path class="cls-13" d="M261.63,220h0a9,9,0,0,0,9.67-8.63c.19-4.9.36-9.85.36-9.85s7.42-.69,8-8,.29-24.3.29-24.3h0a25.57,25.57,0,0,0-25.86,1.66l.45,25.85v13.9C254.55,215.27,257,219.65,261.63,220Z"/><path class="cls-11" d="M272.3,184.53a3.78,3.78,0,0,0-5-1.1,4.28,4.28,0,0,0-1.42,5.34,5.61,5.61,0,0,0,3.6,2.73,2.81,2.81,0,0,1,2.21,3,9.43,9.43,0,0,1-2.58,5.12,13.53,13.53,0,0,1-8.5,4c-3.13.37-6.71-.28-8.53-2.85-1.33-1.87-1.42-4.31-1.47-6.61L250.26,178a22.75,22.75,0,0,1,.37-5.83,7.81,7.81,0,0,1,3.07-4.82c1.79-1.17,4.05-1.27,6.08-1.93,2.55-.82,4.71-2.51,7.09-3.73s5.29-1.94,7.68-.74c1.72.86,2.87,2.57,4.53,3.52,2.38,1.35,5.61,1,6.76,4.53a5.91,5.91,0,0,1,0,3.74c-1.61,4.75-7.49,6.66-11.73,4.61-.08.8.71,2.59-.14,5.14-.27.81-.36,2-1.63,2.07"/><path class="cls-11" d="M252,169.41a24.89,24.89,0,0,0,2.36-7.37,8.46,8.46,0,0,0-2.31-7.13,7,7,0,0,0-4.84-1.72,8.18,8.18,0,0,0-7.38,5.85,8.8,8.8,0,0,0,3,9,9.55,9.55,0,0,0,9.52,1.25"/><path class="cls-9" d="M253.47,166.74a2.89,2.89,0,0,1-1.08,2.37,2.85,2.85,0,0,1-2.4,1,15.46,15.46,0,0,0,2-1.39A15.75,15.75,0,0,0,253.47,166.74Z"/><path class="cls-11" d="M251.06,168.53a7,7,0,0,1-2,1.46,5.63,5.63,0,0,1-2.62.74,3.66,3.66,0,0,1-3.07-1.37,4.06,4.06,0,0,1-.54-3.32,6.29,6.29,0,0,1,1.23-2.43,7.94,7.94,0,0,1,1.74-1.76,21.85,21.85,0,0,1-1.44,2,6.55,6.55,0,0,0-1.06,2.32,3.7,3.7,0,0,0,.49,2.91,3.22,3.22,0,0,0,2.65,1.2,5.72,5.72,0,0,0,2.46-.59C250.24,169,251,168.45,251.06,168.53Z"/><path class="cls-11" d="M238.58,176.82a3.71,3.71,0,0,1,.35.82,8.11,8.11,0,0,0,1.09,2.09,3,3,0,0,0,2.87,1.32,4,4,0,0,0,2.77-2.78,28.4,28.4,0,0,0,.75-4.27,6.58,6.58,0,0,1,1.4-3.36,3.61,3.61,0,0,1,2.14-1.22,1.45,1.45,0,0,1,.9.07s-.33,0-.86.13a3.55,3.55,0,0,0-1.9,1.26,6.44,6.44,0,0,0-1.21,3.2,25.15,25.15,0,0,1-.73,4.35,4.37,4.37,0,0,1-3.17,3.1,2.94,2.94,0,0,1-2-.39,4.13,4.13,0,0,1-1.26-1.19,7.29,7.29,0,0,1-1-2.25A2.32,2.32,0,0,1,238.58,176.82Z"/><path class="cls-13" d="M235,238.52s-3.75,27.42,0,30.89,7.34,2.33,7.34,2.33l7.13-6,1.4-27.25Z"/><polygon class="cls-9" points="312.42 161.54 317.18 156.43 325.11 162.78 343.26 145.16 347.61 150.28 324.76 172.82 312.42 161.54"/><path class="cls-13" d="M334.78,162.93l-6.9,4.43c-.31-2.72-2.39-5.43-2.29-4.06s0,8.48,0,8.48L313.3,197.67c-1.67,4.1-5.06,6.68-7.59,7.29l-11.49,3.42,4.49,15.18,16-5.29a13.79,13.79,0,0,0,8.75-8.78l11-33.52a51.56,51.56,0,0,0,1.78-6.61C336.68,166.57,334.78,162.93,334.78,162.93Z"/><path class="cls-9" d="M278.25,446.11l-.18-7.68-14.38.23.13,11.24.9,0c4,.16,20.21.52,22.85-.33C290.51,448.66,278.25,446.11,278.25,446.11Z"/><g class="cls-14"><path class="cls-1" d="M269,449.7a5,5,0,0,0-1.89-3,4.83,4.83,0,0,0-3.38-1l.06,4Z"/></g><g class="cls-15"><path class="cls-1" d="M284.24,447.57s4.31,1.17,3.78,1.88-16.94,1-24.2.45l0-.33,19.16-.13S283.41,447.62,284.24,447.57Z"/></g><path class="cls-11" d="M263.62,449.57l.24,0,.71,0,2.62.08c2.21,0,5.26.06,8.63,0s6.43-.16,8.63-.27l2.62-.15.71-.05a.75.75,0,0,0,.24,0h-.25l-.71,0-2.61.09c-2.21.08-5.26.17-8.63.22s-6.42,0-8.63,0h-3.57Z"/><path class="cls-11" d="M283,449.67a5.36,5.36,0,0,1,.47-1.26,5.63,5.63,0,0,1,.87-1,1.86,1.86,0,0,0-1,.92A2,2,0,0,0,283,449.67Z"/><path class="cls-11" d="M278.72,447.58s.24-.23.45-.56.33-.63.29-.65-.24.22-.44.56S278.68,447.55,278.72,447.58Z"/><path class="cls-11" d="M277.55,447s.26-.12.5-.35.42-.43.38-.47-.25.12-.5.35S277.51,446.94,277.55,447Z"/><path class="cls-11" d="M276.79,445.63a1.65,1.65,0,0,0,.75.09.38.38,0,1,0,0-.18A2.05,2.05,0,0,0,276.79,445.63Z"/><path class="cls-11" d="M276.52,444.68a1.56,1.56,0,0,0,.84.23,1.44,1.44,0,0,0,.87-.13,5,5,0,0,0-.86,0A4.21,4.21,0,0,0,276.52,444.68Z"/><path class="cls-11" d="M279.19,446.32a2.87,2.87,0,0,0,.92,0,5.85,5.85,0,0,0,1-.24,2.14,2.14,0,0,0,.55-.24.46.46,0,0,0,.23-.29.36.36,0,0,0-.15-.37,1.71,1.71,0,0,0-2.09.53,1.93,1.93,0,0,0-.29.62.6.6,0,0,0,0,.25,3.1,3.1,0,0,1,.41-.79,1.74,1.74,0,0,1,.78-.53,1.47,1.47,0,0,1,1.11.06c.14.11.09.28-.07.38a2.42,2.42,0,0,1-.52.23,5.5,5.5,0,0,1-1,.26C279.54,446.28,279.19,446.29,279.19,446.32Z"/><path class="cls-11" d="M279.43,446.36a.93.93,0,0,0,.1-.65,1.6,1.6,0,0,0-.27-.67.93.93,0,0,0-.77-.46.36.36,0,0,0-.28.43,1.05,1.05,0,0,0,.16.42,2.88,2.88,0,0,0,.45.55c.29.28.52.38.53.36s-.18-.16-.44-.45a3.27,3.27,0,0,1-.4-.55c-.13-.19-.22-.54,0-.58s.47.2.61.38a1.57,1.57,0,0,1,.28.59A3.78,3.78,0,0,1,279.43,446.36Z"/><path class="cls-11" d="M263.85,445.63s.41-.05,1.06,0a4.56,4.56,0,0,1,2.33.92,4.64,4.64,0,0,1,1.48,2c.23.62.26,1,.29,1a.74.74,0,0,0,0-.29,4.14,4.14,0,0,0-.17-.78,4.51,4.51,0,0,0-1.49-2.12,4.44,4.44,0,0,0-2.43-.9,3.68,3.68,0,0,0-.79,0A.9.9,0,0,0,263.85,445.63Z"/><path class="cls-11" d="M265.25,439.62a23.23,23.23,0,0,0-.08,3,24.17,24.17,0,0,0,.09,2.95,23.13,23.13,0,0,0,.08-2.95A24.27,24.27,0,0,0,265.25,439.62Z"/><path class="cls-11" d="M270.82,448.27a8.66,8.66,0,0,0,2.11.17,7.7,7.7,0,0,0,2.1-.2c0-.05-.94,0-2.1,0S270.83,448.22,270.82,448.27Z"/><path class="cls-11" d="M268,448.31s.08.2.18.41.15.4.2.4.07-.23-.05-.47S268,448.27,268,448.31Z"/><path class="cls-11" d="M266.92,447s.06.18.22.33.3.24.33.21-.06-.18-.21-.33S267,447,266.92,447Z"/><path class="cls-11" d="M265.39,446.42c0,.05.21.05.42.12s.36.18.4.14-.08-.23-.35-.31S265.38,446.38,265.39,446.42Z"/><path class="cls-11" d="M264.31,446.15c0,.05.06.12.18.17s.24,0,.25,0-.07-.11-.19-.16S264.32,446.11,264.31,446.15Z"/><path class="cls-9" d="M227.49,443.65l4.88-5.93-11.06-9.21-7.22,8.61.64.61c2.91,2.71,15,13.57,17.54,14.65C235.12,453.59,227.49,443.65,227.49,443.65Z"/><g class="cls-14"><path class="cls-1" d="M218.17,440.37a5,5,0,0,0,.55-3.53,4.84,4.84,0,0,0-1.92-3L214.23,437Z"/></g><g class="cls-15"><path class="cls-1" d="M231.08,448.67s2.5,3.69,1.64,3.89-13.48-10.32-18.63-15.44l.22-.24,14.61,12.4S230.41,448.16,231.08,448.67Z"/></g><path class="cls-11" d="M214.14,436.73l.17.18.52.49,1.94,1.76c1.64,1.48,3.94,3.48,6.53,5.65s5,4.06,6.72,5.42l2.08,1.59.57.42c.13.1.2.15.21.14l-.19-.16-.55-.45-2-1.64c-1.73-1.38-4.1-3.3-6.69-5.46s-4.9-4.15-6.56-5.6l-2-1.72-.54-.46Z"/><path class="cls-11" d="M228.77,449.45a5.88,5.88,0,0,1,1.18-.65,5.63,5.63,0,0,1,1.32-.19,2.32,2.32,0,0,0-2.5.84Z"/><path class="cls-11" d="M226.89,445.08a1.65,1.65,0,0,0,.7-.14c.38-.12.67-.25.65-.3a1.67,1.67,0,0,0-.7.14C227.17,444.9,226.88,445,226.89,445.08Z"/><path class="cls-11" d="M226.39,443.86c0,.05.27.07.61.06s.6-.06.6-.11-.28-.07-.61-.06S226.39,443.81,226.39,443.86Z"/><path class="cls-11" d="M226.69,442.34s.2.29.52.56.6.46.63.42-.2-.29-.52-.56S226.73,442.31,226.69,442.34Z"/><path class="cls-11" d="M227.11,441.45a1.51,1.51,0,0,0,.49.72c.35.34.72.51.74.46a6.6,6.6,0,0,0-.62-.59C227.39,441.72,227.16,441.42,227.11,441.45Z"/><path class="cls-11" d="M228.07,444.43a2.85,2.85,0,0,0,.71.58,5.73,5.73,0,0,0,.9.47,2.83,2.83,0,0,0,.58.18.53.53,0,0,0,.36-.07.38.38,0,0,0,.13-.38,1.7,1.7,0,0,0-1.93-1,1.55,1.55,0,0,0-.63.28c-.13.1-.18.17-.17.18a2.53,2.53,0,0,1,.82-.34,1.67,1.67,0,0,1,.94.11,1.47,1.47,0,0,1,.8.77c0,.17-.11.27-.3.24a2.57,2.57,0,0,1-.54-.16,5.75,5.75,0,0,1-.89-.42C228.36,444.63,228.09,444.4,228.07,444.43Z"/><path class="cls-11" d="M228.22,444.61s.26-.07.5-.42a1.61,1.61,0,0,0,.24-.68,1,1,0,0,0-.29-.86.39.39,0,0,0-.5.15,1,1,0,0,0-.14.42,2.88,2.88,0,0,0,0,.71,1.3,1.3,0,0,0,.16.62s0-.24,0-.63a3.32,3.32,0,0,1,.06-.67c0-.24.18-.56.39-.44s.22.45.22.69a1.67,1.67,0,0,1-.19.63A3.13,3.13,0,0,1,228.22,444.61Z"/><path class="cls-11" d="M216.89,433.9s.34.23.79.71a4.57,4.57,0,0,1,1.17,2.22,4.63,4.63,0,0,1-.2,2.5c-.23.61-.48.94-.45,1s.08-.07.19-.22a3.6,3.6,0,0,0,.37-.7,4.37,4.37,0,0,0,.26-2.58,4.29,4.29,0,0,0-1.87-2.76A.8.8,0,0,0,216.89,433.9Z"/><path class="cls-11" d="M221.87,430.26a21.46,21.46,0,0,0-2,2.19,28,28,0,0,0-1.86,2.3,24.46,24.46,0,0,0,2-2.19A28,28,0,0,0,221.87,430.26Z"/><path class="cls-11" d="M220.45,440.45a8.5,8.5,0,0,0,1.48,1.51,8,8,0,0,0,1.73,1.21s-.73-.6-1.61-1.35S220.49,440.42,220.45,440.45Z"/><path class="cls-11" d="M218.29,438.64s-.07.2-.13.43-.15.41-.11.44.2-.13.28-.39S218.34,438.63,218.29,438.64Z"/><path class="cls-11" d="M218.32,437s-.07.17,0,.39.07.37.12.37.07-.18.05-.39S218.37,436.94,218.32,437Z"/><path class="cls-11" d="M217.54,435.51s.13.16.24.36.16.37.21.37.08-.23-.06-.47S217.56,435.46,217.54,435.51Z"/><path class="cls-11" d="M216.89,434.6s0,.13,0,.24.15.18.19.16,0-.13,0-.24S216.94,434.57,216.89,434.6Z"/><path class="cls-11" d="M257.42,283s-4.79,20.26-3.43,24.27,10.13,6.33,10.13,6.33l-.3,55.48L215.3,429l17.92,14.66s52.53-60.09,57.16-71-3-90.65-3-90.65Z"/><path class="cls-11" d="M282.21,274.71l2.37,168.52-24.68.13L247.51,306.1h0c-2.62-2.49-6.3-6.78-5.8-16.32l.6-11.09Z"/><path class="cls-7" d="M256.18,378.44s0-.1.14-.25l.47-.69c.45-.65,1.07-1.51,1.83-2.6l6.7-9.27,0,.13c-.54-5.85-1.19-12.95-1.89-20.6-.9-10-1.62-19.1-2.05-25.68-.22-3.29-.36-6-.44-7.8,0-.88-.06-1.59-.07-2.12a3.77,3.77,0,0,1,0-.74,4.74,4.74,0,0,1,.09.73c0,.54.1,1.24.17,2.12.15,1.89.35,4.54.61,7.78.52,6.57,1.3,15.65,2.2,25.67.67,7.67,1.36,14.75,1.8,20.63v.07l0,.06L258.82,375l-1.93,2.53-.52.66A1.69,1.69,0,0,1,256.18,378.44Z"/><path class="cls-7" d="M263.76,308.82a33.21,33.21,0,0,1-6.54-1,33,33,0,0,1-6.38-1.74,57.83,57.83,0,0,1,6.49,1.23A54,54,0,0,1,263.76,308.82Z"/><path class="cls-7" d="M280.66,366.35a24.85,24.85,0,0,0-6.66-1.73,25.38,25.38,0,0,0-6.86.66,5.68,5.68,0,0,1,1.92-.75,15.15,15.15,0,0,1,9.82.78A5.63,5.63,0,0,1,280.66,366.35Z"/><path class="cls-7" d="M289.37,374.16c.11.09-6.83,9.41-15.51,20.82s-15.81,20.59-15.92,20.5,6.83-9.41,15.51-20.82S289.26,374.08,289.37,374.16Z"/><path class="cls-7" d="M286,287.23a4.25,4.25,0,0,1-1.39,1.83A6.87,6.87,0,0,1,274.58,288a4.05,4.05,0,0,1-1-2.08,21.62,21.62,0,0,0,1.26,1.85,6.86,6.86,0,0,0,9.55,1C285.5,287.94,286,287.17,286,287.23Z"/><path class="cls-11" d="M252.3,200.52a21.53,21.53,0,0,1-1.17-30"/><path class="cls-9" d="M238.43,216.24s-5.36,6.06-6.47,29.23c0,0,15.27,2.9,15.55,2.06S238.43,216.24,238.43,216.24Z"/><g class="cls-6"><path d="M238.43,216.24s-5.36,6.06-6.47,29.23c0,0,15.27,2.9,15.55,2.06S238.43,216.24,238.43,216.24Z"/></g><path class="cls-9" d="M240.91,283.72H287.8L287,276.4s-5.36-27.87-5.32-28.24l.84-1.77a17.67,17.67,0,0,0,.21-14.75h0l23-7.85-5.62-18.94c-10.42,1.76-26.17,3.72-26.17,3.72l-2.34.2s-16.26.84-16.61.89c-6.8.82-14.71,1.34-17.6,8.62-1.55,3.89-.08,9.73,2.45,15.75l6,18.5c2.4,10.17-1.43,9.69-3.54,19.92C242,274,240.88,282.3,240.91,283.72Z"/><g class="cls-6"><path d="M240.91,283.72H287.8L287,276.4s-5.36-27.87-5.32-28.24l.84-1.77a17.67,17.67,0,0,0,.21-14.75h0l23-7.85-5.62-18.94c-10.42,1.76-26.17,3.72-26.17,3.72l-2.34.2s-16.26.84-16.61.89c-6.8.82-14.71,1.34-17.6,8.62-1.55,3.89-.08,9.73,2.45,15.75l6,18.5c2.4,10.17-1.43,9.69-3.54,19.92C242,274,240.88,282.3,240.91,283.72Z"/></g><path class="cls-11" d="M305.51,224.1a4.47,4.47,0,0,1-1,.43c-.66.24-1.63.58-2.83,1-2.4.81-5.74,1.89-9.42,3.06s-7,2.35-9.3,3.32c-1.17.47-2.11.89-2.76,1.17a3.82,3.82,0,0,1-1,.4,4.72,4.72,0,0,1,.94-.58c.63-.34,1.54-.81,2.7-1.33a88.51,88.51,0,0,1,9.29-3.47c3.69-1.18,7-2.2,9.47-2.92,1.21-.36,2.2-.64,2.88-.82A4.68,4.68,0,0,1,305.51,224.1Z"/><path class="cls-10" d="M302.79,214c0,.15-13.86.26-31,.26s-31-.11-31-.26,13.86-.26,31-.26S302.79,213.87,302.79,214Z"/><path class="cls-10" d="M304.22,223.22c0,.15-15.43.26-34.46.26s-34.45-.11-34.45-.26,15.42-.26,34.45-.26S304.22,223.08,304.22,223.22Z"/><path class="cls-10" d="M239.15,233.7a16,16,0,0,1-5.75,0,16,16,0,0,1,5.75,0Z"/><path class="cls-10" d="M284.21,234c0,.14-10.09.26-22.53.26s-22.53-.12-22.53-.26,10.08-.26,22.53-.26S284.21,233.88,284.21,234Z"/><path class="cls-10" d="M283.22,244.82c0,.14-9.06.26-20.22.26s-20.23-.12-20.23-.26,9-.26,20.23-.26S283.22,244.67,283.22,244.82Z"/><path class="cls-10" d="M282.92,254.82c0,.14-8.2.26-18.32.26s-18.34-.12-18.34-.26,8.21-.26,18.34-.26S282.92,254.68,282.92,254.82Z"/><path class="cls-10" d="M284.53,262.92c0,.14-8.78.26-19.61.26s-19.61-.12-19.61-.26,8.78-.26,19.61-.26S284.53,262.77,284.53,262.92Z"/><path class="cls-10" d="M287.07,273.24c0,.14-10,.26-22.31.26s-22.31-.12-22.31-.26,10-.26,22.31-.26S287.07,273.09,287.07,273.24Z"/><path class="cls-11" d="M245.57,251.67a3.7,3.7,0,0,1-.42-.93l-1-2.55c-.83-2.17-2-5.15-3.2-8.47s-2.21-6.37-2.84-8.61c-.31-1.12-.55-2-.68-2.66a4.2,4.2,0,0,1-.17-1,36.42,36.42,0,0,1,1.2,3.55c.72,2.2,1.77,5.22,3,8.54s2.31,6.32,3,8.52c.37,1.1.65,2,.83,2.62A4.14,4.14,0,0,1,245.57,251.67Z"/><rect class="cls-1" x="67.54" y="181.49" width="148.64" height="60.37"/><path class="cls-5" d="M216.18,241.86s0-.37,0-1.08,0-1.76,0-3.13c0-2.76,0-6.8,0-12,0-10.42-.06-25.49-.09-44.14l.16.16-148.63.07h0l.24-.23c0,21.14,0,41.55,0,60.37l-.23-.22,106.57.1,30.92.06,8.27,0,2.15,0h0l-2.11,0-8.23,0-30.86.06-106.73.11h-.22v-.23c0-18.82,0-39.23,0-60.37v-.24h.24l148.63.07h.17v.17c0,18.69-.07,33.8-.09,44.24,0,5.2,0,9.24,0,12,0,1.36,0,2.4,0,3.11S216.18,241.86,216.18,241.86Z"/><path class="cls-5" d="M67.69,189.63c0-.13,33.23-.24,74.2-.24s74.21.11,74.21.24-33.22.23-74.21.23S67.69,189.76,67.69,189.63Z"/><g class="cls-6"><circle class="cls-5" cx="72.84" cy="185.99" r="1.08"/></g><g class="cls-6"><path class="cls-5" d="M77.61,186a1.08,1.08,0,1,1-1.08-1.08A1.07,1.07,0,0,1,77.61,186Z"/></g><g class="cls-6"><path class="cls-5" d="M81.25,186a1.08,1.08,0,1,1-1.07-1.08A1.07,1.07,0,0,1,81.25,186Z"/></g><rect class="cls-5" x="80.18" y="199.44" width="35.9" height="35.9"/><g class="cls-14"><rect class="cls-1" x="80.18" y="199.44" width="35.9" height="35.9"/></g><path class="cls-5" d="M205.9,209.06c0,.13-18.48.24-41.26.24s-41.26-.11-41.26-.24,18.47-.23,41.26-.23S205.9,208.93,205.9,209.06Z"/><path class="cls-5" d="M205.9,216.38c0,.13-18.48.23-41.26.23s-41.26-.1-41.26-.23,18.47-.24,41.26-.24S205.9,216.25,205.9,216.38Z"/><path class="cls-5" d="M176.5,223.69a2.34,2.34,0,0,1-.54.05l-1.55,0-5.69.08-18.78.07-18.79-.07-5.69-.08-1.54,0a2.24,2.24,0,0,1-.54-.05,2.24,2.24,0,0,1,.54-.05l1.54,0,5.69-.08,18.79-.07,18.78.07,5.69.08,1.55,0A2.34,2.34,0,0,1,176.5,223.69Z"/></g></svg>