<svg xmlns="http://www.w3.org/2000/svg" viewBox="0 0 750 500"><defs><style>.cls-1,.cls-13{fill:#2c5eaa;}.cls-1,.cls-3{fill-rule:evenodd;}.cls-2{opacity:0.4;}.cls-3,.cls-8{fill:#fff;}.cls-4{fill:#f5f5f5;}.cls-5{fill:#fa982f;}.cls-6{fill:#f9b44d;}.cls-7{fill:#263238;}.cls-9{opacity:0.2;}.cls-10{fill:#e0e0e0;}.cls-11{fill:#ebebeb;}.cls-12{font-size:9.12px;font-family:OpenSans, Open Sans;}.cls-14{fill:#455a64;}.cls-15{opacity:0.6;}.cls-16{fill:#ffbe9d;}.cls-17{fill:#eb996e;}.cls-18{fill:#fafafa;}</style></defs><g id="Character_2" data-name="Character 2"><path class="cls-1" d="M51.88,293.14a31.91,31.91,0,0,1-6.94-4.89l-7.42,2.64-7-11,5.56-5.58a31.66,31.66,0,0,1-1.46-8.37l-7.11-3.37,2.85-12.71,7.87,0a31.91,31.91,0,0,1,4.89-6.94l-2.64-7.42,11-7,5.58,5.56a31.66,31.66,0,0,1,8.37-1.46l3.38-7.11,12.71,2.85v7.87a31.91,31.91,0,0,1,6.94,4.89l7.42-2.64,7,11-5.55,5.58a32,32,0,0,1,1.45,8.36l7.11,3.38-2.85,12.71H95.18a31.91,31.91,0,0,1-4.89,6.94l2.64,7.42-11,7-5.58-5.55A32.07,32.07,0,0,1,68,296.75l-3.37,7.11L51.9,301l0-7.87Zm11.21-14.95a14,14,0,1,0-10.58-16.7A14,14,0,0,0,63.09,278.19Z"/><path class="cls-1" d="M98.7,221.15a15.89,15.89,0,0,1-3.45-2.43L91.57,220l-3.45-5.46,2.75-2.76a15.64,15.64,0,0,1-.72-4.15L86.62,206l1.42-6.3h3.9a15.59,15.59,0,0,1,2.43-3.44l-1.31-3.68,5.45-3.46,2.77,2.75a16,16,0,0,1,4.15-.72l1.68-3.53,6.3,1.42v3.9a15.59,15.59,0,0,1,3.44,2.43l3.68-1.31,3.46,5.46-2.75,2.76a16,16,0,0,1,.72,4.15l3.52,1.68-1.41,6.3h-3.9a15.89,15.89,0,0,1-2.43,3.45l1.31,3.68L113.6,225l-2.77-2.75a15.9,15.9,0,0,1-4.15.72L105,226.47l-6.3-1.42v-3.9Zm5.56-7.42A6.93,6.93,0,1,0,99,205.45,6.93,6.93,0,0,0,104.26,213.73Z"/><g class="cls-2"><path class="cls-3" d="M98.7,221.15a15.89,15.89,0,0,1-3.45-2.43L91.57,220l-3.45-5.46,2.75-2.76a15.64,15.64,0,0,1-.72-4.15L86.62,206l1.42-6.3h3.9a15.59,15.59,0,0,1,2.43-3.44l-1.31-3.68,5.45-3.46,2.77,2.75a16,16,0,0,1,4.15-.72l1.68-3.53,6.3,1.42v3.9a15.59,15.59,0,0,1,3.44,2.43l3.68-1.31,3.46,5.46-2.75,2.76a16,16,0,0,1,.72,4.15l3.52,1.68-1.41,6.3h-3.9a15.89,15.89,0,0,1-2.43,3.45l1.31,3.68L113.6,225l-2.77-2.75a15.9,15.9,0,0,1-4.15.72L105,226.47l-6.3-1.42v-3.9Zm5.56-7.42A6.93,6.93,0,1,0,99,205.45,6.93,6.93,0,0,0,104.26,213.73Z"/></g><path class="cls-4" d="M154,81.91A38.33,38.33,0,1,1,109,51.8,38.29,38.29,0,0,1,154,81.91Z"/><path class="cls-5" d="M145,83.67a29.21,29.21,0,1,1-34.29-22.94A29.18,29.18,0,0,1,145,83.67Z"/><path class="cls-6" d="M144.84,82.78c-.17,0-.54-1.2-1.43-3.3a30.69,30.69,0,0,0-5-8.13,29.42,29.42,0,0,0-4.82-4.46A28.71,28.71,0,0,0,127,63.27a26.45,26.45,0,0,0-3.87-1.22,28.25,28.25,0,0,0-4.18-.67,27.68,27.68,0,0,0-4.37,0,28.69,28.69,0,0,0-8.76,2,28,28,0,0,0-7.39,4.37,26.07,26.07,0,0,0-3,2.78,29.07,29.07,0,0,0-6.72,12.25,31.11,31.11,0,0,0-1,9.51c.12,2.28.32,3.55.15,3.59s-.63-1.18-1-3.5a27.05,27.05,0,0,1,.31-10,29.35,29.35,0,0,1,2.27-6.59A29.53,29.53,0,0,1,97,66.09a27.85,27.85,0,0,1,3.7-2.66A29.76,29.76,0,0,1,105,61.3a30,30,0,0,1,9.45-2.17,30.88,30.88,0,0,1,4.72.07,28.25,28.25,0,0,1,4.49.78,27.17,27.17,0,0,1,4.14,1.38,29.24,29.24,0,0,1,11.84,9,27.26,27.26,0,0,1,4.63,8.84C144.89,81.44,145,82.75,144.84,82.78Z"/><path class="cls-6" d="M123,105.77l1.06,5-4.45.94-1-4.84c-4.45.67-9,.19-11.81-1.21L108,99.7a18.25,18.25,0,0,0,9.29,1.33l-1.57-7.42c-5.19-.16-11.05-.63-12.4-7-1-4.71,1.57-9.48,8.42-11.77l-1-4.93,4.45-.94,1,4.84a20.53,20.53,0,0,1,9.6.8l-1.06,5.94a18.45,18.45,0,0,0-7.29-.87l1.6,7.55c5.18.11,11,.61,12.28,6.87C132.31,98.73,129.78,103.45,123,105.77Zm-8.61-18.7L113,80.76c-2.24,1-2.9,2.52-2.59,4S112.28,86.87,114.37,87.07Zm9.92,9.09c-.33-1.55-1.8-2.12-3.85-2.39l1.3,6.14C123.86,99,124.59,97.59,124.29,96.16Z"/><path class="cls-4" d="M677.29,256.51A22.42,22.42,0,1,1,651,238.9,22.4,22.4,0,0,1,677.29,256.51Z"/><path class="cls-6" d="M672.05,257.54a17.08,17.08,0,1,1-20-13.42A17.07,17.07,0,0,1,672.05,257.54Z"/><path class="cls-5" d="M672,257a10.17,10.17,0,0,1-.84-1.93,18.21,18.21,0,0,0-3-4.76,17.46,17.46,0,0,0-2.82-2.61,17.2,17.2,0,0,0-3.84-2.11,15,15,0,0,0-2.27-.71,16.13,16.13,0,0,0-2.44-.4,18.19,18.19,0,0,0-2.56,0,19.58,19.58,0,0,0-2.61.39,18.35,18.35,0,0,0-2.51.79,16.41,16.41,0,0,0-2.3,1.14,14.87,14.87,0,0,0-2,1.42,15.76,15.76,0,0,0-1.73,1.62,17.29,17.29,0,0,0-2.53,3.59,17.73,17.73,0,0,0-1.4,3.58,18.05,18.05,0,0,0-.57,5.56,8.85,8.85,0,0,1,.08,2.1,5.18,5.18,0,0,1-.59-2.05,15.65,15.65,0,0,1,.18-5.83,17.31,17.31,0,0,1,1.33-3.85,17.55,17.55,0,0,1,2.6-3.9,16.25,16.25,0,0,1,1.83-1.78,16.55,16.55,0,0,1,2.16-1.56,17.27,17.27,0,0,1,2.47-1.24,18.6,18.6,0,0,1,2.71-.86,18.31,18.31,0,0,1,2.81-.41,17.46,17.46,0,0,1,5.39.49,16.76,16.76,0,0,1,2.42.81,17.07,17.07,0,0,1,6.93,5.26,15.83,15.83,0,0,1,2.71,5.16A5.34,5.34,0,0,1,672,257Z"/><path class="cls-5" d="M659.16,270.47l.62,2.91-2.6.55-.61-2.83a12.54,12.54,0,0,1-6.91-.71l.76-3.47a10.73,10.73,0,0,0,5.43.77l-.92-4.34c-3-.09-6.46-.36-7.25-4.08-.58-2.76.92-5.55,4.93-6.89L652,249.5l2.6-.55.6,2.83a12,12,0,0,1,5.62.47l-.62,3.47a11,11,0,0,0-4.27-.51l.94,4.42c3,.06,6.4.35,7.18,4C664.61,266.35,663.13,269.11,659.16,270.47Zm-5-10.94-.78-3.69c-1.31.6-1.7,1.47-1.52,2.33S652.9,259.41,654.12,259.53Zm5.8,5.32c-.19-.91-1-1.25-2.25-1.4l.76,3.59C659.67,266.48,660.1,265.68,659.92,264.85Z"/><path class="cls-6" d="M684.7,432l-1.16,4.83-4.32-1,1.13-4.7c-4.21-1.29-8-3.61-9.91-6l3.64-4.69a18,18,0,0,0,7.63,5.08l1.74-7.21c-4.51-2.31-9.48-5.2-8-11.37,1.1-4.57,5.36-7.7,12.37-6.83l1.15-4.79,4.32,1-1.14,4.7a20.09,20.09,0,0,1,8.13,4.74l-3.44,4.78a18.14,18.14,0,0,0-6.06-3.83L689,414c4.52,2.27,9.4,5.13,7.93,11.22C695.88,429.69,691.67,432.79,684.7,432Zm.27-20.11,1.48-6.13c-2.41,0-3.62,1-4,2.43S683.22,410.81,685,411.87Zm4.92,12.18c.36-1.51-.69-2.63-2.39-3.72l-1.43,5.95C688.34,426.33,689.56,425.43,689.89,424.05Z"/><path class="cls-5" d="M683.9,111l.38,8.57-7.66.34-.37-8.34c-7.6-.13-15-2.18-19.33-5.29l3.79-9.52a31.14,31.14,0,0,0,15.1,4.78l-.57-12.79c-8.59-1.69-18.21-4.11-18.69-15.06-.36-8.11,5.23-15.34,17.27-17.25l-.38-8.5,7.66-.34.37,8.34c5.76.21,11.42,1.5,15.75,4l-3.41,9.59a31.4,31.4,0,0,0-11.9-3.47l.58,13c8.59,1.62,18,4,18.53,14.83C701.37,101.89,695.86,109,683.9,111Zm-9.15-33.51-.48-10.87c-4,1.1-5.53,3.39-5.42,5.92S671.33,76.59,674.75,77.51Zm14,17.88c-.12-2.68-2.4-4-5.74-5l.46,10.57C687.24,99.9,688.84,97.84,688.73,95.39Z"/><path class="cls-7" d="M515,447.25c0,.15-103.87.26-232,.26s-232-.11-232-.26S154.84,447,283,447,515,447.11,515,447.25Z"/><rect class="cls-8" x="161.86" y="35.03" width="409.51" height="307.19" rx="8.94"/><path class="cls-7" d="M562.43,342.23a9.35,9.35,0,0,0,3.55-.77,8.88,8.88,0,0,0,3.48-2.75,9,9,0,0,0,1.85-5.79c0-9.45,0-23.38-.06-41.31,0-35.89-.06-87.8-.11-152q0-24.06,0-50.35,0-13.14,0-26.79V45.27a12.83,12.83,0,0,0-.28-3.41,8.61,8.61,0,0,0-4-5.33,8.39,8.39,0,0,0-3.21-1.13,31.49,31.49,0,0,0-3.52-.1H446.79l-276,0a8.65,8.65,0,0,0-7.38,4.12,8.44,8.44,0,0,0-1.26,4.17c0,1.5,0,3,0,4.55V172.82c0,46.16,0,90.68,0,133.1v15.81c0,2.61,0,5.22,0,7.82,0,1.3,0,2.6,0,3.89a8.66,8.66,0,0,0,6.47,8.21,13.59,13.59,0,0,0,3.74.29h77.47l104.93,0,152,.1,41.31.06,10.74,0,3.66,0-3.66,0-10.74,0-41.31.06-152,.11-104.93,0H172.37a14.3,14.3,0,0,1-3.89-.31,9.23,9.23,0,0,1-6.9-8.76c0-1.29,0-2.59,0-3.9v-7.82q0-7.86,0-15.81c0-42.42,0-86.94,0-133.1V48.2c0-1.52,0-3,0-4.57a9,9,0,0,1,1.35-4.49,9.29,9.29,0,0,1,7.93-4.43l276,0H560.12a33.39,33.39,0,0,1,3.59.1,9,9,0,0,1,3.42,1.21,9.22,9.22,0,0,1,4.22,5.66,13.74,13.74,0,0,1,.29,3.54V62.52q0,13.65,0,26.79,0,26.26,0,50.35c0,64.15-.08,116.06-.1,152,0,17.93,0,31.86-.06,41.31a9.06,9.06,0,0,1-5.44,8.6,9.73,9.73,0,0,1-2.65.68C562.74,342.23,562.43,342.23,562.43,342.23Z"/><rect class="cls-5" x="372.51" y="81.81" width="179.56" height="81.18" rx="8.21"/><g class="cls-9"><path class="cls-8" d="M469.4,119v3.22h-2.88v-3.14a13.68,13.68,0,0,1-7.16-2.29l1.58-3.51a11.67,11.67,0,0,0,5.58,2v-4.8c-3.19-.78-6.75-1.84-6.75-6,0-3,2.21-5.67,6.75-6.18V95.2h2.88v3.13a13,13,0,0,1,5.83,1.75l-1.44,3.54a11.77,11.77,0,0,0-4.39-1.5V107c3.19.75,6.69,1.81,6.69,5.87C476.09,115.87,473.91,118.45,469.4,119Zm-2.88-12.71v-4.08c-1.52.35-2.13,1.18-2.13,2.13S465.26,105.89,466.52,106.29Zm5,6.93c0-1-.84-1.55-2.07-2v4C470.83,114.89,471.47,114.14,471.47,113.22Z"/></g><g class="cls-9"><path class="cls-8" d="M483.17,139.3v2.49H481v-2.42a10.54,10.54,0,0,1-5.54-1.79l1.22-2.71a9.08,9.08,0,0,0,4.32,1.58v-3.72c-2.47-.6-5.23-1.42-5.23-4.6,0-2.36,1.71-4.39,5.23-4.79v-2.47h2.22v2.43a10,10,0,0,1,4.52,1.35l-1.11,2.74a9.34,9.34,0,0,0-3.41-1.16V130c2.47.58,5.19,1.4,5.19,4.54C488.36,136.87,486.67,138.88,483.17,139.3ZM481,129.46V126.3c-1.18.27-1.65.91-1.65,1.65S480,129.15,481,129.46Zm3.83,5.36c0-.77-.65-1.2-1.61-1.53v3.07C484.29,136.12,484.78,135.54,484.78,134.82Z"/></g><path class="cls-8" d="M500.22,116a2,2,0,0,1,0,.51c0,.39,0,.87,0,1.46,0,1.34,0,3.18,0,5.48v19.2l-.07-.18a8.12,8.12,0,0,0,3.78,1.94,19,19,0,0,0,4.62.53,15.6,15.6,0,0,0,9.27-2.77l-.11.24v0c0-9.83,0-18.93,0-26.39l0,.1a3.85,3.85,0,0,0-1.43-1.37,8.59,8.59,0,0,0-1.84-.81,16.71,16.71,0,0,0-3.7-.64,23,23,0,0,0-6.1.34,9.86,9.86,0,0,0-3.6,1.46,5.42,5.42,0,0,0-.77.66,2.65,2.65,0,0,1-.24.26s.19-.47.92-1a9.54,9.54,0,0,1,3.62-1.62,22.77,22.77,0,0,1,6.2-.48,16.75,16.75,0,0,1,3.81.61,6,6,0,0,1,3.62,2.44l0,0V116c0,7.46,0,16.56.06,26.39v.18l-.11.09a16,16,0,0,1-9.69,2.91,19.35,19.35,0,0,1-4.77-.57,8.44,8.44,0,0,1-4.09-2.17l-.06-.07v-.11c.1-7.85.19-14.5.25-19.27.05-2.29.09-4.12.12-5.45,0-.59,0-1.06.05-1.44A1.91,1.91,0,0,1,500.22,116Z"/><path class="cls-8" d="M518.15,116.07a7.55,7.55,0,0,1-2.35,1.55,14.85,14.85,0,0,1-6.67,1.34,16,16,0,0,1-6.69-1.17,7.49,7.49,0,0,1-2.4-1.49c.06-.09,1,.46,2.57,1.07a18,18,0,0,0,6.52.94,16.42,16.42,0,0,0,6.48-1.11C517.18,116.55,518.09,116,518.15,116.07Z"/><path class="cls-8" d="M518.15,122.66a7.35,7.35,0,0,1-2.35,1.55,14.85,14.85,0,0,1-6.67,1.34,15.71,15.71,0,0,1-6.69-1.17,7.82,7.82,0,0,1-2.4-1.48c.06-.1,1,.45,2.57,1.06a18,18,0,0,0,6.52,1,16.78,16.78,0,0,0,6.48-1.11A27.32,27.32,0,0,1,518.15,122.66Z"/><path class="cls-8" d="M518.15,129.25a7.35,7.35,0,0,1-2.35,1.55,14.85,14.85,0,0,1-6.67,1.34,15.71,15.71,0,0,1-6.69-1.17,7.82,7.82,0,0,1-2.4-1.48c.06-.1,1,.45,2.57,1.06a18,18,0,0,0,6.52.95,16.78,16.78,0,0,0,6.48-1.11C517.18,129.73,518.09,129.16,518.15,129.25Z"/><path class="cls-8" d="M518.15,135.84a7.35,7.35,0,0,1-2.35,1.55,14.72,14.72,0,0,1-6.67,1.34,15.71,15.71,0,0,1-6.69-1.17,7.82,7.82,0,0,1-2.4-1.48c.06-.1,1,.45,2.57,1.06a18,18,0,0,0,6.52,1,16.6,16.6,0,0,0,6.48-1.11C517.18,136.32,518.09,135.75,518.15,135.84Z"/><path class="cls-8" d="M518.23,102.51a4.76,4.76,0,0,1,0,.78q0,.83,0,2.22c0,2,0,4.81.06,8.33,0,7.16,0,17.17,0,28.83l-.07-.19a8,8,0,0,0,3.85,2,19.22,19.22,0,0,0,4.65.52,15.53,15.53,0,0,0,9.16-2.77l-.12.24v0c0-15.4.07-29.43.09-39.9l0,.09a4,4,0,0,0-1.48-1.41,8.5,8.5,0,0,0-1.87-.8,16.57,16.57,0,0,0-3.74-.64,23.55,23.55,0,0,0-6.09.38,9.65,9.65,0,0,0-3.55,1.46,5,5,0,0,0-.75.66c-.15.17-.22.26-.23.26a.92.92,0,0,1,.17-.3,4.47,4.47,0,0,1,.73-.73,9.26,9.26,0,0,1,3.57-1.61,22.75,22.75,0,0,1,6.17-.5,17.53,17.53,0,0,1,3.84.6,6,6,0,0,1,3.67,2.45l0,0v.06c0,10.47.05,24.5.08,39.9v.18l-.11.09a16,16,0,0,1-9.58,2.92,19.64,19.64,0,0,1-4.8-.55,8.45,8.45,0,0,1-4.18-2.2l-.06-.06v-.12c.1-11.69.18-21.72.24-28.9.06-3.51.1-6.31.13-8.3,0-.93,0-1.66.06-2.21A3.2,3.2,0,0,1,518.23,102.51Z"/><path class="cls-8" d="M536.16,116.07a7.72,7.72,0,0,1-2.35,1.55,14.91,14.91,0,0,1-6.67,1.34,16.11,16.11,0,0,1-6.7-1.17,7.51,7.51,0,0,1-2.39-1.49c.06-.09,1,.46,2.57,1.07a18,18,0,0,0,6.52.94,16.42,16.42,0,0,0,6.48-1.11C535.19,116.55,536.1,116,536.16,116.07Z"/><path class="cls-8" d="M536.16,122.66a7.51,7.51,0,0,1-2.35,1.55,14.91,14.91,0,0,1-6.67,1.34,15.79,15.79,0,0,1-6.7-1.17,7.84,7.84,0,0,1-2.39-1.48c.06-.1,1,.45,2.57,1.06a18,18,0,0,0,6.52,1,16.78,16.78,0,0,0,6.48-1.11A27.32,27.32,0,0,1,536.16,122.66Z"/><path class="cls-8" d="M536.16,109.31a7.62,7.62,0,0,1-2.35,1.56,14.91,14.91,0,0,1-6.67,1.34,16.11,16.11,0,0,1-6.7-1.17,7.51,7.51,0,0,1-2.39-1.49c.06-.1,1,.46,2.57,1.06a18,18,0,0,0,6.52,1,16.6,16.6,0,0,0,6.48-1.11C535.19,109.8,536.1,109.22,536.16,109.31Z"/><path class="cls-8" d="M536.16,102.51a7.72,7.72,0,0,1-2.35,1.55,14.91,14.91,0,0,1-6.67,1.34,16,16,0,0,1-6.7-1.17,7.84,7.84,0,0,1-2.39-1.48c.06-.1,1,.45,2.57,1.06a18,18,0,0,0,6.52.94,16.42,16.42,0,0,0,6.48-1.11C535.19,103,536.1,102.41,536.16,102.51Z"/><path class="cls-8" d="M536.16,129.25a7.51,7.51,0,0,1-2.35,1.55,14.91,14.91,0,0,1-6.67,1.34,15.79,15.79,0,0,1-6.7-1.17,7.84,7.84,0,0,1-2.39-1.48c.06-.1,1,.45,2.57,1.06a18,18,0,0,0,6.52.95,16.78,16.78,0,0,0,6.48-1.11C535.19,129.73,536.1,129.16,536.16,129.25Z"/><path class="cls-8" d="M536.16,135.84a7.51,7.51,0,0,1-2.35,1.55,14.78,14.78,0,0,1-6.67,1.34,15.79,15.79,0,0,1-6.7-1.17,7.84,7.84,0,0,1-2.39-1.48c.06-.1,1,.45,2.57,1.06a18,18,0,0,0,6.52,1,16.6,16.6,0,0,0,6.48-1.11C535.19,136.32,536.1,135.75,536.16,135.84Z"/><rect class="cls-10" x="185.3" y="81.81" width="179.56" height="81.18" rx="8.22"/><path class="cls-11" d="M269,118.94v3.22h-2.88V119a13.62,13.62,0,0,1-7.16-2.3l1.59-3.5a11.59,11.59,0,0,0,5.57,2v-4.8c-3.19-.78-6.75-1.84-6.75-6,0-3,2.21-5.66,6.75-6.18V95.13H269v3.14a12.92,12.92,0,0,1,5.83,1.75l-1.43,3.54a11.69,11.69,0,0,0-4.4-1.5V107c3.19.75,6.7,1.81,6.7,5.86C275.7,115.8,273.51,118.39,269,118.94Zm-2.88-12.71v-4.08c-1.52.34-2.13,1.18-2.13,2.13S264.86,105.83,266.12,106.23Zm4.95,6.93c0-1-.84-1.55-2.07-2v4C270.43,114.83,271.07,114.08,271.07,113.16Z"/><path class="cls-11" d="M282.78,139.24v2.49h-2.23V139.3a10.48,10.48,0,0,1-5.54-1.78l1.22-2.71a9.08,9.08,0,0,0,4.32,1.58v-3.72c-2.47-.6-5.23-1.42-5.23-4.61,0-2.36,1.71-4.38,5.23-4.78v-2.47h2.23v2.42a10.12,10.12,0,0,1,4.51,1.36l-1.11,2.74a9.11,9.11,0,0,0-3.4-1.16V130c2.47.57,5.18,1.4,5.18,4.54C288,136.81,286.27,138.81,282.78,139.24Zm-2.23-9.84v-3.16c-1.18.27-1.65.91-1.65,1.65S279.57,129.09,280.55,129.4Zm3.83,5.36c0-.78-.65-1.2-1.6-1.53v3.07C283.89,136.05,284.38,135.47,284.38,134.76Z"/><path class="cls-7" d="M207.31,123.32v18.26h-4.22V126.71h-3.65v-3.39Z"/><path class="cls-7" d="M224.13,138.13v3.45H210.34v-2.74l7-6.65c1.62-1.54,1.9-2.48,1.9-3.37,0-1.43-1-2.27-2.92-2.27a4.46,4.46,0,0,0-3.78,1.83l-3.08-2a8.49,8.49,0,0,1,7.25-3.39c4.07,0,6.78,2.08,6.78,5.4,0,1.77-.49,3.39-3.05,5.76l-4.2,4Z"/><path class="cls-7" d="M225.82,132.45c0-6,3.34-9.44,7.83-9.44s7.82,3.41,7.82,9.44-3.31,9.44-7.82,9.44S225.82,138.47,225.82,132.45Zm11.4,0c0-4.15-1.46-5.87-3.57-5.87s-3.55,1.72-3.55,5.87,1.46,5.87,3.55,5.87S237.22,136.6,237.22,132.45Z"/><rect class="cls-4" x="297.88" y="107.19" width="52.6" height="33.77" rx="3.17"/><rect class="cls-10" x="303.84" y="113.41" width="8.58" height="3.12"/><path class="cls-10" d="M314.2,122.92c0,.18-2.72.33-6.07.33s-6.07-.15-6.07-.33,2.72-.32,6.07-.32S314.2,122.74,314.2,122.92Z"/><path class="cls-10" d="M322.51,122.92c0,.18-1.36.33-3,.33s-3-.15-3-.33,1.36-.32,3-.32S322.51,122.74,322.51,122.92Z"/><path class="cls-10" d="M345.09,122.92c0,.18-2,.33-4.53.33s-4.54-.15-4.54-.33,2-.32,4.54-.32S345.09,122.74,345.09,122.92Z"/><path class="cls-10" d="M333.88,122.92c0,.18-2,.33-4.38.33s-4.38-.15-4.38-.33,2-.32,4.38-.32S333.88,122.74,333.88,122.92Z"/><path class="cls-10" d="M311.26,130.49c0,.18-2,.32-4.49.32s-4.48-.14-4.48-.32,2-.32,4.48-.32S311.26,130.31,311.26,130.49Z"/><path class="cls-10" d="M318.87,133.71c0,.18-3.71.32-8.29.32s-8.29-.14-8.29-.32,3.71-.32,8.29-.32S318.87,133.53,318.87,133.71Z"/><path class="cls-10" d="M345.09,133.71c0,.18-1.57.32-3.5.32s-3.51-.14-3.51-.32,1.57-.32,3.51-.32S345.09,133.53,345.09,133.71Z"/><text class="cls-12" transform="translate(199.44 114.25)">Referred</text><path class="cls-8" d="M388.56,113.36H386.5v-.54h4.75v.54h-2.06v5.35h-.63Z"/><path class="cls-8" d="M391.21,116.5a2.25,2.25,0,1,1,2.25,2.25A2.17,2.17,0,0,1,391.21,116.5Zm3.89,0a1.65,1.65,0,1,0-1.64,1.72A1.62,1.62,0,0,0,395.1,116.5Z"/><path class="cls-8" d="M399.25,118.44a1.43,1.43,0,0,1-.93.31,1.17,1.17,0,0,1-1.3-1.29v-2.67h-.79v-.5H397v-1h.6v1H399v.5h-1.34v2.64a.71.71,0,0,0,.76.81A1,1,0,0,0,399,118Z"/><path class="cls-8" d="M403.67,116v2.74h-.57V118a1.67,1.67,0,0,1-1.52.73c-1,0-1.62-.52-1.62-1.29s.44-1.25,1.71-1.25h1.4v-.27c0-.76-.43-1.17-1.25-1.17a2.3,2.3,0,0,0-1.47.52l-.27-.44a2.81,2.81,0,0,1,1.8-.6A1.57,1.57,0,0,1,403.67,116Zm-.6,1.41v-.72h-1.38c-.86,0-1.14.33-1.14.79s.41.83,1.12.83A1.41,1.41,0,0,0,403.07,117.38Z"/><path class="cls-8" d="M405.29,112.47h.6v6.24h-.6Z"/><path class="cls-8" d="M413.89,118.71l-1.34-1.89-.47,0H410.5v1.87h-.62v-5.89h2.2c1.49,0,2.4.76,2.4,2a1.83,1.83,0,0,1-1.34,1.85l1.43,2Zm0-3.87c0-.94-.62-1.48-1.8-1.48H410.5v3h1.56C413.24,116.31,413.86,115.76,413.86,114.84Z"/><path class="cls-8" d="M419.67,116.68H416a1.63,1.63,0,0,0,1.73,1.54,1.75,1.75,0,0,0,1.36-.58l.33.39a2.15,2.15,0,0,1-1.7.72,2.19,2.19,0,0,1-2.32-2.25,2.15,2.15,0,1,1,4.3,0S419.67,116.61,419.67,116.68Zm-3.69-.44h3.13a1.57,1.57,0,0,0-3.13,0Z"/><path class="cls-8" d="M424.53,114.29l-2,4.42H422l-2-4.42h.62l1.66,3.76,1.67-3.76Z"/><path class="cls-8" d="M429.09,116.68h-3.7a1.65,1.65,0,0,0,1.74,1.54,1.71,1.71,0,0,0,1.35-.58l.34.39a2.34,2.34,0,0,1-4-1.53,2.15,2.15,0,1,1,4.3,0S429.09,116.61,429.09,116.68Zm-3.7-.44h3.14a1.57,1.57,0,0,0-3.14,0Z"/><path class="cls-8" d="M434.38,116.14v2.57h-.59V116.2a1.24,1.24,0,0,0-1.33-1.41,1.45,1.45,0,0,0-1.55,1.6v2.32h-.6v-4.42h.58v.81a1.85,1.85,0,0,1,1.68-.85A1.69,1.69,0,0,1,434.38,116.14Z"/><path class="cls-8" d="M440,114.29v4.42h-.57v-.81a1.75,1.75,0,0,1-1.59.85,1.71,1.71,0,0,1-1.86-1.9v-2.56h.6v2.5c0,.94.48,1.42,1.32,1.42a1.44,1.44,0,0,0,1.51-1.61v-2.31Z"/><path class="cls-8" d="M445.5,116.68h-3.69a1.63,1.63,0,0,0,1.74,1.54,1.74,1.74,0,0,0,1.35-.58l.33.39a2.15,2.15,0,0,1-1.7.72,2.19,2.19,0,0,1-2.32-2.25,2.15,2.15,0,1,1,4.3,0S445.5,116.61,445.5,116.68Zm-3.69-.44h3.13a1.57,1.57,0,0,0-3.13,0Z"/><path class="cls-8" d="M393.43,141.72v2.07h-1.85v-2a8.8,8.8,0,0,1-4.6-1.48l1-2.26a7.39,7.39,0,0,0,3.58,1.32v-3.09c-2.05-.5-4.34-1.18-4.34-3.83,0-2,1.42-3.64,4.34-4v-2.06h1.85v2a8.34,8.34,0,0,1,3.76,1.13l-.93,2.27a7.61,7.61,0,0,0-2.83-1V134c2.06.48,4.31,1.17,4.31,3.78C397.74,139.71,396.34,141.37,393.43,141.72Zm-1.85-8.17v-2.62c-1,.22-1.36.75-1.36,1.36S390.77,133.29,391.58,133.55Zm3.19,4.46c0-.65-.54-1-1.34-1.28v2.55C394.36,139.08,394.77,138.6,394.77,138Z"/><path class="cls-8" d="M403.78,128.63v13h-3V131H398.2v-2.41Z"/><path class="cls-8" d="M415.82,137.51c0,2.29-1.69,4.29-5.38,4.29a8.93,8.93,0,0,1-4.94-1.39l1.18-2.29a6.22,6.22,0,0,0,3.68,1.16c1.5,0,2.42-.63,2.42-1.68s-.66-1.68-3-1.68h-3.31l.67-7.29H415V131h-5.4l-.2,2.46h1.05C414.3,133.5,415.82,135.21,415.82,137.51Z"/><path class="cls-8" d="M420.53,139.91a4.4,4.4,0,0,1-.5,1.85L419,144.42h-1.83l.82-2.94a1.6,1.6,0,0,1-1-1.57,1.79,1.79,0,0,1,3.57,0Z"/><path class="cls-8" d="M421.63,135.1c0-4.27,2.37-6.69,5.55-6.69s5.55,2.42,5.55,6.69-2.35,6.7-5.55,6.7S421.63,139.38,421.63,135.1Zm8.08,0c0-2.94-1-4.16-2.53-4.16s-2.51,1.22-2.51,4.16,1,4.16,2.51,4.16S429.71,138,429.71,135.1Z"/><path class="cls-8" d="M434.18,135.1c0-4.27,2.37-6.69,5.55-6.69s5.55,2.42,5.55,6.69-2.35,6.7-5.55,6.7S434.18,139.38,434.18,135.1Zm8.08,0c0-2.94-1-4.16-2.53-4.16s-2.52,1.22-2.52,4.16,1,4.16,2.52,4.16S442.26,138,442.26,135.1Z"/><path class="cls-8" d="M446.73,135.1c0-4.27,2.37-6.69,5.55-6.69s5.54,2.42,5.54,6.69-2.34,6.7-5.54,6.7S446.73,139.38,446.73,135.1Zm8.08,0c0-2.94-1-4.16-2.53-4.16s-2.52,1.22-2.52,4.16,1,4.16,2.52,4.16S454.81,138,454.81,135.1Z"/><path class="cls-10" d="M539.16,323.7s.22,0,.66-.05a14.37,14.37,0,0,0,1.92-.25,12.64,12.64,0,0,0,9.32-8.44,11.88,11.88,0,0,0,.57-3.16c.07-1.12,0-2.31,0-3.53,0-4.9,0-10.55,0-16.91,0-12.72,0-28.29,0-46.36q0-13.56,0-28.95,0-7.68,0-15.8c0-2.7,0-5.44,0-8.22,0-1.38,0-2.8-.06-4.16a12.64,12.64,0,0,0-1.12-4,12.26,12.26,0,0,0-5.84-5.9,12.56,12.56,0,0,0-4.12-1.17c-1.43-.1-2.94,0-4.42-.05H479l-85.41,0-195.69,0a12.43,12.43,0,0,0-6.06,1.59,12.29,12.29,0,0,0-4.47,4.36,12.12,12.12,0,0,0-1.75,6c0,2.13,0,4.29,0,6.43v75.47q0,12.29,0,24.33v15a18.74,18.74,0,0,0,.14,2.92,12.1,12.1,0,0,0,2.12,5.31,12.2,12.2,0,0,0,9.75,5.19h34.45l159.83.07,107.75.1,29.3.06,7.62,0c1.71,0,2.59,0,2.59,0l-2.59,0-7.62,0-29.3.06-107.75.1L232.07,324H197.61a12.81,12.81,0,0,1-10.24-5.44,12.67,12.67,0,0,1-2.23-5.58,19.09,19.09,0,0,1-.15-3V295q0-12,0-24.33V195.19c0-2.15,0-4.28,0-6.45a12.57,12.57,0,0,1,1.84-6.28,12.85,12.85,0,0,1,4.7-4.59,13.18,13.18,0,0,1,6.38-1.68l195.69,0,85.41,0,38.71,0H536c1.49,0,2.95-.05,4.46.06a12.91,12.91,0,0,1,4.28,1.22,12.73,12.73,0,0,1,6.06,6.12,13.38,13.38,0,0,1,1.15,4.14c.1,1.44.05,2.82.06,4.21,0,2.78,0,5.52,0,8.22q0,8.12,0,15.8,0,15.38,0,28.95c0,18.07,0,33.64-.06,46.36,0,6.36,0,12,0,16.91,0,1.23,0,2.4,0,3.54a12.69,12.69,0,0,1-.59,3.2,12.94,12.94,0,0,1-2.88,4.8,12.7,12.7,0,0,1-6.59,3.65,13.23,13.23,0,0,1-1.93.22Z"/><rect class="cls-11" x="297.35" y="268.13" width="11.91" height="47.27"/><rect class="cls-11" x="315.18" y="282.43" width="11.91" height="32.97"/><rect class="cls-11" x="280.25" y="282.43" width="11.91" height="32.97"/><rect class="cls-11" x="245.32" y="311.01" width="11.91" height="4.39"/><rect class="cls-11" x="263.02" y="304.39" width="11.91" height="11.01"/><rect class="cls-11" x="228.27" y="311.74" width="11.91" height="3.65"/><rect class="cls-11" x="210.39" y="311.74" width="11.91" height="3.65"/><rect class="cls-11" x="333.96" y="289.06" width="11.91" height="26.33"/><rect class="cls-11" x="352.74" y="296.3" width="11.91" height="19.1"/><rect class="cls-11" x="371.52" y="282.43" width="11.91" height="32.97"/><rect class="cls-11" x="390.3" y="261.84" width="11.91" height="53.55"/><rect class="cls-11" x="409.09" y="245.99" width="11.91" height="69.4"/><rect class="cls-11" x="427.87" y="268.13" width="11.91" height="47.27"/><rect class="cls-11" x="446.65" y="225.69" width="11.91" height="89.7"/><rect class="cls-11" x="465.43" y="268.13" width="11.91" height="47.27"/><rect class="cls-11" x="484.21" y="282.43" width="11.91" height="32.97"/><rect class="cls-11" x="502.99" y="288.62" width="11.91" height="26.78"/><rect class="cls-11" x="521.77" y="296.3" width="11.91" height="19.1"/><path class="cls-13" d="M220.17,315.4s.39,0,1.17,0l3.43,0,13.2-.06h4.54a34.16,34.16,0,0,0,5-.26A25.92,25.92,0,0,0,258,311.25a20.43,20.43,0,0,0,4.7-4.11,27.51,27.51,0,0,0,3.24-5.8c1.86-4.22,3.55-8.8,5.27-13.62s3.46-9.91,5.3-15.2c.93-2.64,1.88-5.33,3-8a47.67,47.67,0,0,1,4.07-7.94,33.34,33.34,0,0,1,6.09-7,27.28,27.28,0,0,1,8.23-4.81,28.81,28.81,0,0,1,9.67-1.71,36,36,0,0,1,10,1.23,26.49,26.49,0,0,1,4.82,1.86,23.52,23.52,0,0,1,4.34,2.91,27,27,0,0,1,6.47,8.37,63.52,63.52,0,0,1,3.74,10.12c1.09,3.45,2.18,6.94,3.4,10.41,2.44,6.92,5.23,13.95,9.48,20.23a27.62,27.62,0,0,0,7.93,8,15,15,0,0,0,5.25,2.09,16.88,16.88,0,0,0,2.84.29c1-.06,1.94,0,2.9-.15a19.24,19.24,0,0,0,7.47-2.11,16.94,16.94,0,0,0,5.64-5.21,74.84,74.84,0,0,0,4-6.64,73.87,73.87,0,0,0,3.42-6.91c4.06-9.39,6.59-19.17,10.39-28.2a107,107,0,0,1,6-13.17,46.94,46.94,0,0,1,8.53-11.14,28.36,28.36,0,0,1,11.59-7,38.25,38.25,0,0,1,12.93-1.57A41.12,41.12,0,0,1,451,228.94a31.57,31.57,0,0,1,10.17,6.12c5.81,5.13,10,11.15,14.85,15.92s10.64,7.64,16.1,9.44a67.27,67.27,0,0,0,15.48,2.95h0l21.78.07,5.63,0c1.26,0,1.91,0,1.91,0s-.65,0-1.91.05l-5.63,0-21.78.07h0A67.33,67.33,0,0,1,492,260.79c-5.51-1.8-11.47-4.58-16.3-9.49s-9.11-10.8-14.87-15.86a31.32,31.32,0,0,0-10-6,40.59,40.59,0,0,0-12.08-2.33A37.63,37.63,0,0,0,426,228.67a27.82,27.82,0,0,0-11.35,6.84,46.44,46.44,0,0,0-8.41,11,106.84,106.84,0,0,0-5.94,13.11c-3.78,9-6.29,18.76-10.39,28.23a72.48,72.48,0,0,1-3.44,7,77.34,77.34,0,0,1-4.07,6.71,17.74,17.74,0,0,1-5.86,5.4,19.85,19.85,0,0,1-7.72,2.18c-1,.14-2,.1-3,.15a16.08,16.08,0,0,1-8.43-2.47,28.26,28.26,0,0,1-8.12-8.22c-4.3-6.37-7.1-13.44-9.55-20.39-1.22-3.49-2.31-7-3.39-10.44a64.64,64.64,0,0,0-3.7-10,26.39,26.39,0,0,0-6.31-8.19,23,23,0,0,0-4.23-2.84,26.66,26.66,0,0,0-4.71-1.82,35.45,35.45,0,0,0-9.84-1.22,28.42,28.42,0,0,0-9.48,1.66A28.86,28.86,0,0,0,284,256.84c-3.3,5-5.12,10.6-7,15.85l-5.34,15.18c-1.74,4.82-3.44,9.41-5.32,13.63a27.53,27.53,0,0,1-3.33,5.89,20.83,20.83,0,0,1-4.79,4.16,26.25,26.25,0,0,1-10.69,3.76,36.17,36.17,0,0,1-5,.23l-4.54,0-13.2-.06-3.43,0C220.56,315.42,220.17,315.4,220.17,315.4Z"/><path class="cls-13" d="M335.53,205.63H268.59a1.9,1.9,0,0,0-1.9,1.9v23a1.9,1.9,0,0,0,1.9,1.9h33.89a1.88,1.88,0,0,1,1.4.62c1.06,1.18,2.48,2.71,3.52,3.83a1.9,1.9,0,0,0,2.8,0l3.45-3.8a1.92,1.92,0,0,1,1.41-.62h20.47a1.9,1.9,0,0,0,1.9-1.9v-23A1.9,1.9,0,0,0,335.53,205.63Z"/><path class="cls-4" d="M262.13,271.21h-55.8a1.13,1.13,0,0,0-1.13,1.13V286a1.12,1.12,0,0,0,1.13,1.13h20.15a1.13,1.13,0,0,1,.84.37c.63.7,1.47,1.61,2.09,2.28a1.14,1.14,0,0,0,1.67,0l2-2.26a1.14,1.14,0,0,1,.83-.37h28.17a1.12,1.12,0,0,0,1.13-1.13v-13.7A1.13,1.13,0,0,0,262.13,271.21Z"/><path class="cls-13" d="M311.06,243.15a2.61,2.61,0,1,1-2.61-2.6A2.61,2.61,0,0,1,311.06,243.15Z"/><path class="cls-7" d="M308.45,245.79a2.64,2.64,0,1,1,2.64-2.64A2.64,2.64,0,0,1,308.45,245.79Zm0-5.21a2.58,2.58,0,1,0,2.58,2.57A2.57,2.57,0,0,0,308.45,240.58Z"/><path class="cls-8" d="M284.14,223.36v1.27H283v-1.24a5.43,5.43,0,0,1-2.84-.91l.63-1.39a4.63,4.63,0,0,0,2.21.81V220c-1.27-.31-2.68-.73-2.68-2.36,0-1.21.88-2.25,2.68-2.45v-1.27h1.14v1.24a5.18,5.18,0,0,1,2.31.7l-.57,1.4a4.67,4.67,0,0,0-1.74-.59v1.94c1.26.29,2.65.71,2.65,2.32C286.79,222.11,285.93,223.14,284.14,223.36Zm-1.14-5V216.7c-.6.14-.84.47-.84.85S282.5,218.16,283,218.32Zm2,2.75c0-.4-.33-.62-.82-.79v1.57C284.71,221.73,285,221.43,285,221.07Z"/><path class="cls-8" d="M290.52,215.29v8h-1.85v-6.5h-1.59v-1.48Z"/><path class="cls-8" d="M297.93,220.76c0,1.41-1,2.64-3.31,2.64a5.54,5.54,0,0,1-3-.85l.72-1.42a3.84,3.84,0,0,0,2.27.72c.92,0,1.49-.38,1.49-1s-.41-1-1.85-1h-2l.41-4.49h4.86v1.48h-3.32l-.13,1.52h.65C297,218.29,297.93,219.35,297.93,220.76Z"/><path class="cls-8" d="M300.84,222.24a2.7,2.7,0,0,1-.31,1.14l-.65,1.64h-1.13l.5-1.81a1,1,0,0,1-.61-1,1.1,1.1,0,0,1,2.2,0Z"/><path class="cls-8" d="M301.52,219.28c0-2.63,1.46-4.13,3.42-4.13s3.42,1.5,3.42,4.13-1.45,4.12-3.42,4.12S301.52,221.91,301.52,219.28Zm5,0c0-1.81-.64-2.57-1.56-2.57s-1.55.76-1.55,2.57.64,2.56,1.55,2.56S306.5,221.09,306.5,219.28Z"/><path class="cls-8" d="M309.25,219.28c0-2.63,1.46-4.13,3.42-4.13s3.42,1.5,3.42,4.13-1.45,4.12-3.42,4.12S309.25,221.91,309.25,219.28Zm5,0c0-1.81-.64-2.57-1.56-2.57s-1.55.76-1.55,2.57.64,2.56,1.55,2.56S314.23,221.09,314.23,219.28Z"/><path class="cls-8" d="M317,219.28c0-2.63,1.46-4.13,3.41-4.13s3.42,1.5,3.42,4.13-1.44,4.12-3.42,4.12S317,221.91,317,219.28Zm5,0c0-1.81-.63-2.57-1.56-2.57s-1.55.76-1.55,2.57.64,2.56,1.55,2.56S322,221.09,322,219.28Z"/><path class="cls-7" d="M167.55,34.41H565.62a6,6,0,0,1,6,6V57.52a0,0,0,0,1,0,0h-410a0,0,0,0,1,0,0V40.38A6,6,0,0,1,167.55,34.41Z"/><circle class="cls-4" cx="176.44" cy="46.28" r="3.3"/><circle class="cls-4" cx="186.72" cy="46.28" r="3.3"/><circle class="cls-4" cx="197" cy="46.28" r="3.3"/><path class="cls-13" d="M630,447.25a19.35,19.35,0,0,0,19.15-15.6c3.18-16.14,7.28-38.72,7.4-64.07.08-15.55-3.39-35.25-8.2-50-7-21.6-22.07-40.63-43.91-46.87-28.37-8.09-38.63-5-58.75,5.56-21.88,11.48-27.8,33-50.58,42.58-22.12,9.3-48.78,6.12-68.94,19.12-17.74,11.44-26.39,33.41-27.09,54.5a116.82,116.82,0,0,0,3.24,33.34c2.74,11.51,13.13,21.38,25,21.47Z"/><g class="cls-2"><path d="M630,447.25a19.35,19.35,0,0,0,19.15-15.6c3.18-16.14,7.28-38.72,7.4-64.07.08-15.55-3.39-35.25-8.2-50-7-21.6-22.07-40.63-43.91-46.87-28.37-8.09-38.63-5-58.75,5.56-21.88,11.48-27.8,33-50.58,42.58-22.12,9.3-48.78,6.12-68.94,19.12-17.74,11.44-26.39,33.41-27.09,54.5a116.82,116.82,0,0,0,3.24,33.34c2.74,11.51,13.13,21.38,25,21.47Z"/></g><path class="cls-7" d="M615.43,274.54a2.46,2.46,0,0,1,.22.4c.14.29.33.69.57,1.21l2.17,4.67,1.55,3.38c.55,1.24,1,2.64,1.62,4.11s1.19,3.07,1.83,4.75,1.26,3.48,1.86,5.39,1.24,3.9,1.91,6c.35,1,.62,2.11.9,3.21l.86,3.36c.3,1.13.6,2.29.9,3.47.15.59.3,1.18.46,1.78s.24,1.21.37,1.82q.74,3.69,1.52,7.58a242.33,242.33,0,0,1,3.5,34.19,286.3,286.3,0,0,1-1.35,34.35c-.64,5.25-1.15,10.25-2,14.88-.37,2.32-.69,4.57-1.08,6.72s-.81,4.19-1.19,6.16c-.7,3.93-1.58,7.44-2.28,10.54-.35,1.54-.69,3-1,4.31s-.67,2.51-1,3.59l-1.35,5c-.15.54-.27,1-.36,1.28s-.13.44-.14.44a2.72,2.72,0,0,1,.08-.45c.08-.32.18-.75.31-1.3.29-1.18.71-2.85,1.24-5l.9-3.6c.3-1.33.62-2.77,1-4.31.67-3.1,1.51-6.62,2.19-10.55.37-2,.75-4,1.15-6.16s.68-4.39,1-6.71c.79-4.63,1.28-9.62,1.9-14.86a296.69,296.69,0,0,0,1.3-34.29,246.26,246.26,0,0,0-3.45-34.11c-.51-2.58-1-5.11-1.49-7.56-.12-.61-.25-1.22-.37-1.82l-.45-1.78c-.29-1.17-.59-2.33-.87-3.46l-.85-3.36c-.27-1.09-.54-2.17-.88-3.21-.65-2.07-1.28-4.07-1.87-6s-1.14-3.73-1.81-5.4l-1.79-4.75c-.57-1.48-1-2.88-1.58-4.13l-1.5-3.39-2.06-4.71c-.22-.53-.4-.93-.53-1.24A4,4,0,0,1,615.43,274.54Z"/><path class="cls-14" d="M429,447.1l-18.93,29.62-37-23.35c2.44-3.4,26.05,1.59,26.05,1.59l11.35-19.48Z"/><g class="cls-15"><path class="cls-8" d="M411.62,460.58a1.79,1.79,0,0,1,0,2.38,1.72,1.72,0,0,1-2.37,0,1.89,1.89,0,0,1,.06-2.52,1.78,1.78,0,0,1,2.46.29"/></g><g class="cls-15"><path class="cls-8" d="M410.09,476.72l1.8-3.06-36.13-21.25s-2.1-.32-2.64,1Z"/></g><path class="cls-7" d="M398.69,454.4c-.1.18.75.83,1.27,2s.51,2.2.73,2.24.6-1.18-.06-2.55S398.76,454.2,398.69,454.4Z"/><path class="cls-7" d="M393.8,453.55c-.15.15.44.95.57,2.1s-.2,2.07,0,2.18.95-.85.76-2.27S393.91,453.38,393.8,453.55Z"/><path class="cls-7" d="M388.67,456.8c.14.14,1-.6,1.12-1.88s-.44-2.21-.61-2.11,0,1-.13,2S388.5,456.67,388.67,456.8Z"/><path class="cls-7" d="M401.77,450.24c0,.22,1,.49,1.94,1.2s1.57,1.54,1.76,1.45-.17-1.23-1.33-2.05S401.77,450.05,401.77,450.24Z"/><path class="cls-7" d="M405.42,446.41c-.05.08.6.64,1.86,1.16a9.81,9.81,0,0,0,2.32.63,9.09,9.09,0,0,0,1.42.11,2.86,2.86,0,0,0,.83-.08,1,1,0,0,0,.69-.91,1.16,1.16,0,0,0-.53-.91,2.68,2.68,0,0,0-.76-.35,7.27,7.27,0,0,0-1.4-.33,7.94,7.94,0,0,0-2.41,0c-1.36.25-2.08.74-2,.82s.82-.19,2.1-.3a8.82,8.82,0,0,1,2.24.12,7.47,7.47,0,0,1,1.27.34c.46.14.8.35.79.59s0,.12-.18.18a2.13,2.13,0,0,1-.61.06,11.42,11.42,0,0,1-1.33-.06,12.8,12.8,0,0,1-2.22-.44A14.54,14.54,0,0,0,405.42,446.41Z"/><path class="cls-7" d="M405.5,446.82c0,.07.81-.35,1.61-1.48a7.12,7.12,0,0,0,1.27-3.61,1.82,1.82,0,0,0-.59-1.68,1,1,0,0,0-1.1,0,2.85,2.85,0,0,0-.62.56,4.73,4.73,0,0,0-.79,1.24,5.1,5.1,0,0,0-.42,2.41c.12,1.42.74,2.11.79,2.06a18.68,18.68,0,0,1-.26-2.07,5,5,0,0,1,.51-2.11,4.74,4.74,0,0,1,.71-1.05c.31-.35.66-.58.78-.45a1.28,1.28,0,0,1,.26,1,7.44,7.44,0,0,1-.17,1.29,8.06,8.06,0,0,1-.81,2.08C406,446.18,405.41,446.73,405.5,446.82Z"/><path class="cls-14" d="M455.49,354.87l-11.34,33.27-41.47-13.89c1.57-3.88,25.69-4.65,25.69-4.65L434.76,348Z"/><g class="cls-15"><path class="cls-8" d="M441.8,372.1a1.79,1.79,0,0,1,.52,2.33,1.72,1.72,0,0,1-2.3.53,1.87,1.87,0,0,1-.54-2.46,1.79,1.79,0,0,1,2.45-.3"/></g><g class="cls-15"><path class="cls-8" d="M444.15,388.14l1-3.4L405,372.69s-2.11.19-2.34,1.56Z"/></g><path class="cls-7" d="M427.77,369.17c-.06.2.92.63,1.7,1.62s1,2,1.24,2,.3-1.29-.66-2.46S427.79,369,427.77,369.17Z"/><path class="cls-7" d="M422.82,369.51c-.11.18.65.82,1.05,1.9s.29,2.06.5,2.12.72-1,.19-2.38S422.89,369.32,422.82,369.51Z"/><path class="cls-7" d="M418.6,373.89c.17.1.79-.82.64-2.1s-.94-2-1.09-1.9.25.93.36,2S418.41,373.8,418.6,373.89Z"/><path class="cls-7" d="M429.77,364.4c0,.21,1.05.25,2.17.71s1.89,1.12,2.05,1-.45-1.15-1.78-1.67S429.73,364.21,429.77,364.4Z"/><path class="cls-7" d="M432.41,359.81a4.14,4.14,0,0,0,2.08.69,10.31,10.31,0,0,0,2.4.06,10.53,10.53,0,0,0,1.4-.24,2.52,2.52,0,0,0,.79-.28.91.91,0,0,0,.45-1,1.16,1.16,0,0,0-.73-.76,3,3,0,0,0-.81-.16,8,8,0,0,0-3.78.63c-1.26.57-1.84,1.22-1.79,1.28s.75-.38,2-.79a8.78,8.78,0,0,1,2.2-.42,7.36,7.36,0,0,1,1.32,0c.48,0,.85.15.9.39s0,.12-.13.21a2,2,0,0,1-.58.21,13,13,0,0,1-1.3.26,12.09,12.09,0,0,1-2.27.09A16.34,16.34,0,0,0,432.41,359.81Z"/><path class="cls-7" d="M432.57,360.19c.07.05.71-.54,1.22-1.82a7,7,0,0,0,.48-2.37,7.93,7.93,0,0,0-.1-1.44,1.81,1.81,0,0,0-1-1.49,1,1,0,0,0-1.06.29,2.82,2.82,0,0,0-.47.69,4.76,4.76,0,0,0-.47,1.39,5.1,5.1,0,0,0,.17,2.45c.45,1.34,1.22,1.87,1.26,1.81a16.59,16.59,0,0,1-.75-1.95,5.09,5.09,0,0,1,0-2.17,4.54,4.54,0,0,1,.45-1.19c.21-.42.49-.72.64-.62s.45.52.5.92a7.48,7.48,0,0,1,.14,1.3,8,8,0,0,1-.29,2.21C433,359.44,432.47,360.12,432.57,360.19Z"/><path class="cls-7" d="M524.19,345.37s-31.21-50.08-39.77-64c-9.92-16.08-30.25-14-35.14.47,1.1-3.26-3.79,11.1-20.26,64.73l27.74,7.94,13.5-27.63,11.43,32.72Z"/><path class="cls-7" d="M530.06,342.75H472.7a31.59,31.59,0,0,0-23.64,10.63,21.11,21.11,0,0,0-4.32,7.88l-42,78.36,26.84,14.81,50.14-71.57,28,.33,62.35-38.93Z"/><path class="cls-14" d="M473.1,367.57a9.67,9.67,0,0,1,1.47,2,32.11,32.11,0,0,1,4.37,10.92,9.42,9.42,0,0,1,.28,2.44c-.16,0-.73-3.67-2.44-7.91S473,367.66,473.1,367.57Z"/><path class="cls-10" d="M413.83,296.84l23.35,45.91h73.66l-3-6-21.34-.63-17.38-38.71a6.75,6.75,0,0,0-6.15-4H415.91A2.34,2.34,0,0,0,413.83,296.84Z"/><path class="cls-7" d="M451.51,317.15a3,3,0,1,1-3-3A3,3,0,0,1,451.51,317.15Z"/><polygon class="cls-16" points="520.05 289.56 508.7 328.42 466.66 332.93 466.66 340.39 528.43 341.25 536.84 290.64 520.05 289.56"/><path class="cls-13" d="M600.82,264.08c-2.45-11.08-19-15.3-26.46-15.32-10.41,0-9.47-.66-19.69,1.18l-1.35,0c-31.11-1.26-34.68,41.46-34.68,41.46l14.17,1.16h0L529.07,322l-10.86,20.83,59.73-.1,3.35-48.63,25-.66S603.31,275.3,600.82,264.08Z"/><path class="cls-7" d="M534.53,273.32c.16,0-.89,10.39-2.34,23.16s-2.77,23.12-2.93,23.1.9-10.39,2.35-23.17S534.37,273.3,534.53,273.32Z"/><g class="cls-9"><path d="M580.19,273.32c-2.55,12.17-5.87,24.69-8.42,36.86-.54,2.59-1.12,5.27-2.7,7.39a17.29,17.29,0,0,1-3.64,3.34c-5,3.77-10.31,7.29-16.21,9.44A145.87,145.87,0,0,0,574.46,326a5.23,5.23,0,0,0,4.92-5.57c1.84-15.61,1.31-31.36.81-47.07"/></g><path class="cls-16" d="M497.66,327.5l18.52-2.23,13.05,8.56,49.89-12L580.59,294l22.39-.55-.52,32.68A19,19,0,0,1,583,344.7l-73.08-2-3.1-6.22L491.11,336Z"/><path class="cls-17" d="M579.12,321.87a6.23,6.23,0,0,1-.93.28l-2.72.71-10,2.49-33.09,8-3.08.74-.12,0-.1-.07-13-8.58.18,0-18.53,2.15.12-.07-4.89,6.21-1.32,1.63a3.69,3.69,0,0,1-.48.54,4.29,4.29,0,0,1,.4-.6l1.25-1.69,4.75-6.32.05-.06h.08L516.15,325h.09l.08.06,13.06,8.53-.22,0,3.08-.73L565.36,325l10.06-2.31,2.74-.6A6.31,6.31,0,0,1,579.12,321.87Z"/><path class="cls-17" d="M508.41,332.8a44.85,44.85,0,0,1-7.19.29H499.9l.18-.07a33.47,33.47,0,0,1-4.66,3.59,33.69,33.69,0,0,1,4.29-4l.08-.07h1.43A44.85,44.85,0,0,1,508.41,332.8Z"/><path class="cls-17" d="M587.84,326.52c-.15.1-1.11-2.24-3.63-3.79s-5-1.46-5-1.64a3.13,3.13,0,0,1,1.61-.13,8.54,8.54,0,0,1,6.43,4.05C587.77,325.88,587.91,326.5,587.84,326.52Z"/><path class="cls-7" d="M606.3,293.62h0l-5.45.2c-4.61.15-11,.3-18,.44l-2.26.05h-.28V294c-.26-6.52-.14-12.32,0-16.5.07-2.08.15-3.76.22-4.92a11.46,11.46,0,0,1,.16-1.79,10.2,10.2,0,0,1,.05,1.8c0,1.25,0,2.91,0,4.92,0,4.17-.06,10,.2,16.46l-.29-.27,2.26-.05c7-.14,13.39-.23,18-.27l5.45,0C607.58,293.4,604.3,293.55,606.3,293.62Z"/><path class="cls-7" d="M567.81,293.8a8.7,8.7,0,0,1-.71,1.43c-.24.46-.55,1-.94,1.63s-.82,1.35-1.36,2.1a51.16,51.16,0,0,1-4,5.13,57,57,0,0,1-5.7,5.54,58.07,58.07,0,0,1-6.48,4.64,53,53,0,0,1-5.75,3c-.83.4-1.62.68-2.3,1s-1.28.48-1.77.64a10.22,10.22,0,0,1-1.55.45,9.2,9.2,0,0,1,1.48-.64c.48-.19,1.06-.42,1.73-.72s1.44-.61,2.26-1a59.34,59.34,0,0,0,5.65-3.1,62.45,62.45,0,0,0,6.39-4.63,61.19,61.19,0,0,0,5.69-5.47,55.82,55.82,0,0,0,4-5c.56-.73,1-1.44,1.41-2s.75-1.14,1-1.58A10.45,10.45,0,0,1,567.81,293.8Z"/><path class="cls-18" d="M599.73,262a3.69,3.69,0,0,1-.73,0l-2.09-.07-7.66-.29c-6.48-.22-15.43-.4-25.32-.27s-18.83.57-25.3,1l-7.66.5-2.08.13a3.11,3.11,0,0,1-.73,0,6.27,6.27,0,0,1,.72-.11l2.08-.23c1.8-.19,4.41-.42,7.65-.67,6.46-.49,15.42-1,25.32-1.12s18.85.1,25.33.42c3.24.16,5.86.32,7.67.46l2.08.17A3.5,3.5,0,0,1,599.73,262Z"/><path class="cls-18" d="M533.27,282.36a82.76,82.76,0,0,1-13.11,0,82.76,82.76,0,0,1,13.11,0Z"/><path class="cls-18" d="M580.06,284.62a1.46,1.46,0,0,1-.47.11l-1.34.19c-1.17.16-2.87.36-5,.58-4.2.44-10,.9-16.45,1.16s-12.28.23-16.5.12c-2.11,0-3.81-.12-5-.19L534,286.5a2,2,0,0,1-.47-.06,1.61,1.61,0,0,1,.48,0h1.35l5,0c4.22,0,10,0,16.47-.28s12.24-.65,16.44-1l5-.41,1.35-.1Z"/><path class="cls-18" d="M604.11,280.53c0,.15-5.32.74-11.91,1.33s-11.94.95-12,.8,5.32-.73,11.91-1.32S604.09,280.39,604.11,280.53Z"/><path class="cls-18" d="M552.25,311a17.47,17.47,0,0,1-3.15.26c-2,.07-4.64.11-7.61,0s-5.66-.24-7.6-.41a16.78,16.78,0,0,1-3.14-.4,20.94,20.94,0,0,1,3.16,0c1.94.07,4.63.18,7.59.25s5.65.09,7.6.11A22.2,22.2,0,0,1,552.25,311Z"/><path class="cls-18" d="M579.72,311.83a5,5,0,0,1-1.13.25c-.73.12-1.8.28-3.11.44-2.64.33-6.29.66-10.34.82s-7.72.11-10.38,0c-1.32-.06-2.39-.13-3.13-.19a5.59,5.59,0,0,1-1.15-.16,4.79,4.79,0,0,1,1.16-.05l3.13,0c2.65,0,6.31,0,10.35-.14s7.68-.43,10.32-.67l3.12-.27A5.11,5.11,0,0,1,579.72,311.83Z"/><path class="cls-18" d="M536.38,331a19.09,19.09,0,0,1-9.69-3.91c.08-.13,2.09,1.08,4.77,2.15S536.41,330.82,536.38,331Z"/><path class="cls-16" d="M561.31,194.67h-.95a18.14,18.14,0,0,0-18.24,16.46c-.7,8.63-1.36,18.18-1.29,22.81.14,9.58,10,11.05,10,11.05l-.36,8.52a11.72,11.72,0,0,0,11,12.1h0a11.74,11.74,0,0,0,12.4-11.14l2-40.5C576.79,204,571.56,195.23,561.31,194.67Z"/><path class="cls-17" d="M550.74,245a24.45,24.45,0,0,0,12.89-3.7s-3,6.9-12.84,6.06Z"/><path class="cls-7" d="M545.61,217.08a1.38,1.38,0,0,0,1.35,1.38,1.32,1.32,0,0,0,1.45-1.23,1.38,1.38,0,0,0-1.36-1.38A1.32,1.32,0,0,0,545.61,217.08Z"/><path class="cls-7" d="M544.24,215.82c.18.18,1.24-.59,2.75-.59s2.63.73,2.79.55-.1-.4-.58-.74a4,4,0,0,0-2.23-.67,3.74,3.74,0,0,0-2.19.7C544.31,215.41,544.16,215.74,544.24,215.82Z"/><path class="cls-7" d="M559.73,217.53a1.38,1.38,0,0,0,1.36,1.38,1.32,1.32,0,0,0,1.44-1.24,1.38,1.38,0,0,0-1.35-1.38A1.34,1.34,0,0,0,559.73,217.53Z"/><path class="cls-7" d="M558.36,216.06c.18.18,1.24-.59,2.76-.59s2.62.74,2.78.56-.09-.4-.58-.75a3.91,3.91,0,0,0-2.23-.66,3.76,3.76,0,0,0-2.19.69C558.44,215.66,558.28,216,558.36,216.06Z"/><path class="cls-7" d="M553.64,227a9.85,9.85,0,0,0-2.45-.43c-.39,0-.76-.11-.82-.37a1.9,1.9,0,0,1,.25-1.11c.37-.91.74-1.87,1.14-2.87,1.58-4.08,2.72-7.44,2.55-7.5s-1.59,3.2-3.16,7.28c-.38,1-.75,2-1.09,2.89a2.07,2.07,0,0,0-.2,1.47,1,1,0,0,0,.64.55,2.8,2.8,0,0,0,.65.09A10.18,10.18,0,0,0,553.64,227Z"/><path class="cls-7" d="M558.1,228c-.25,0-.25,1.58-1.65,2.72s-3.15,1-3.16,1.19.39.31,1.13.33a4.22,4.22,0,0,0,2.64-.9,3.44,3.44,0,0,0,1.27-2.29C558.39,228.39,558.21,228,558.1,228Z"/><path class="cls-7" d="M558.71,210.29c.15.4,1.66.21,3.43.41s3.22.68,3.45.32c.1-.18-.15-.55-.73-.94a6.18,6.18,0,0,0-5.24-.55C559,209.79,558.64,210.1,558.71,210.29Z"/><path class="cls-7" d="M544.79,211.55c.27.34,1.31,0,2.56,0s2.31.22,2.56-.13c.1-.17-.06-.51-.53-.82a3.76,3.76,0,0,0-4.12.13C544.82,211.05,544.67,211.39,544.79,211.55Z"/><path class="cls-16" d="M574.46,221.07c.16-.07,6.75-2,6.55,4.59s-6.91,5-6.92,4.82S574.46,221.07,574.46,221.07Z"/><path class="cls-17" d="M575.63,228.06s.12.08.31.17a1.26,1.26,0,0,0,.88.05,2.83,2.83,0,0,0,1.42-2.5,3.78,3.78,0,0,0-.28-1.64,1.35,1.35,0,0,0-.86-.91.61.61,0,0,0-.7.3c-.09.18,0,.31-.09.32s-.14-.11-.08-.38a.78.78,0,0,1,.28-.41.87.87,0,0,1,.65-.14,1.66,1.66,0,0,1,1.2,1.05,3.79,3.79,0,0,1,.35,1.84,3,3,0,0,1-1.8,2.78,1.31,1.31,0,0,1-1.07-.21C575.64,228.21,575.61,228.07,575.63,228.06Z"/><path class="cls-7" d="M570,201.59l-28.06.6a12.64,12.64,0,0,1,4.12-4.64,22.28,22.28,0,0,1,12.71-4.46c4.58-.07,13.89,5.36,17.21,8.43,2.65,2.46,2.64,4.59,2.64,4.59.42,3.54-1.62,7.57-2.43,11-.42,1.8-1.22,7.23-1.22,7.23h0c-1.55,0-2.12-1.21-1.89-2.69l.29-5.85a8.7,8.7,0,0,1-2.77-10.3C571,205,571.9,202.58,570,201.59Z"/><path class="cls-17" d="M564.15,222.32a.18.18,0,0,0,.2-.15.17.17,0,0,0-.13-.2.17.17,0,0,0-.2.14A.18.18,0,0,0,564.15,222.32Z"/><path class="cls-17" d="M561.26,221.68a.19.19,0,0,0,.2-.17.18.18,0,0,0-.12-.23.19.19,0,0,0-.2.17A.17.17,0,0,0,561.26,221.68Z"/><path class="cls-17" d="M559.31,221.64c.09,0,.18-.1.2-.24s0-.28-.13-.29-.18.1-.2.25S559.22,221.63,559.31,221.64Z"/><path class="cls-17" d="M562.73,224.08c.1,0,.17,0,.17-.1s-.08-.1-.17-.1-.16,0-.16.1S562.64,224.08,562.73,224.08Z"/><path class="cls-17" d="M560.08,223.49a.18.18,0,0,0,.18-.17.17.17,0,0,0-.15-.2.18.18,0,0,0-.18.17A.18.18,0,0,0,560.08,223.49Z"/><path class="cls-17" d="M546.28,221.92a.18.18,0,0,0,.2-.15.16.16,0,0,0-.12-.21.17.17,0,0,0-.2.14A.18.18,0,0,0,546.28,221.92Z"/><path class="cls-17" d="M544.31,221.74a.18.18,0,0,0,.19-.18c0-.12,0-.22-.15-.22a.18.18,0,0,0-.18.18C544.16,221.64,544.22,221.74,544.31,221.74Z"/><path class="cls-17" d="M548,222a.17.17,0,0,0,.2-.11.16.16,0,0,0-.14-.17.15.15,0,0,0-.19.11A.15.15,0,0,0,548,222Z"/><path class="cls-17" d="M546.57,223.88a.18.18,0,0,0,.23-.11.17.17,0,0,0-.08-.23.18.18,0,0,0-.23.1A.18.18,0,0,0,546.57,223.88Z"/><path class="cls-17" d="M544.88,223.56c.09,0,.15-.11.13-.18a.16.16,0,0,0-.2-.09.15.15,0,0,0-.12.18A.16.16,0,0,0,544.88,223.56Z"/><path class="cls-7" d="M576.2,201.89a7.81,7.81,0,0,0-1.57-7,8.36,8.36,0,0,0-6.72-3,27.15,27.15,0,0,1-3.91.27c-2.43-.26-4.3-2.15-6.56-3.07A8.68,8.68,0,0,0,547.35,192c-.85,1.24-1.41,2.77-2.72,3.55-1.13.68-2.55.62-3.82,1a6.08,6.08,0,0,0-4.2,6,7.2,7.2,0,0,0,4.48,6,9.23,9.23,0,0,0,7.76-.54c2.11-1.14,4-3.1,6.43-3s4.7,2.37,7.16,1.9a7,7,0,0,0,3.23-2.11,5.68,5.68,0,0,1,3.35-1.88c1.31-.08,2,1.68,1.53,2.88l5.65-3.92"/><path class="cls-14" d="M542.52,198.72l.05.1a1.85,1.85,0,0,0,.16.26,4.58,4.58,0,0,0,.81.89,4.92,4.92,0,0,0,1.67.94,4.83,4.83,0,0,0,2.54.15,5.09,5.09,0,0,0,2.69-1.49,30.06,30.06,0,0,0,1.93-2.88,3.91,3.91,0,0,1,1.36-1.19,4,4,0,0,1,1.86-.4,4.28,4.28,0,0,1,1.91.5,3.54,3.54,0,0,1,1.41,1.41,20.47,20.47,0,0,0,1,1.84,2.35,2.35,0,0,0,1.8,1.07,3.56,3.56,0,0,0,2-.55,7.68,7.68,0,0,0,1.49-1.2,6.15,6.15,0,0,1,2.78-1.93,3.59,3.59,0,0,1,2.82.64,4.89,4.89,0,0,1,1.55,1.87,8,8,0,0,1,.58,1.76c.1.49.15.89.18,1.16a2.23,2.23,0,0,0,.06.4s0,0,0-.1,0-.17,0-.31a10.73,10.73,0,0,0-.14-1.17,7.19,7.19,0,0,0-.55-1.8,4.81,4.81,0,0,0-1.57-2,3.81,3.81,0,0,0-3-.71,6.49,6.49,0,0,0-2.91,2,6.85,6.85,0,0,1-1.45,1.16,3.31,3.31,0,0,1-1.81.51,2.08,2.08,0,0,1-1.59-1,20.61,20.61,0,0,1-1-1.82,3.78,3.78,0,0,0-1.51-1.51,4.62,4.62,0,0,0-2-.53,4.32,4.32,0,0,0-2,.43,4.25,4.25,0,0,0-1.44,1.28,32.72,32.72,0,0,1-1.9,2.88,4.83,4.83,0,0,1-2.56,1.45,4.87,4.87,0,0,1-4.1-1A6.69,6.69,0,0,1,542.52,198.72Z"/><path class="cls-14" d="M537.44,198.82a1.59,1.59,0,0,0-.12.53,4.11,4.11,0,0,0,.15,1.46,4.94,4.94,0,0,0,1,1.93,6,6,0,0,0,2.22,1.57,9.22,9.22,0,0,0,4.89.54,13.49,13.49,0,0,0,1.47-.28,2.92,2.92,0,0,0,.53-.17c0-.05-.77.14-2,.27a9.78,9.78,0,0,1-4.76-.6,6,6,0,0,1-2.14-1.49,5.17,5.17,0,0,1-1.06-1.82A5.53,5.53,0,0,1,537.44,198.82Z"/><path class="cls-13" d="M610.64,295.89c-.17,12.86-8,24.71-18.23,32.52s-22.65,12.15-35,15.71-25,6.5-36.63,12c-16.11,7.62-31,18.08-40.12,33.4S468.31,425,469.33,442.75l136.78-13.68,7.49-77.74Z"/><path class="cls-7" d="M488.06,378.61a2.37,2.37,0,0,1-.35.55l-1.09,1.54c-.48.66-1.07,1.46-1.68,2.45s-1.4,2.05-2.1,3.33-1.56,2.63-2.31,4.17-1.55,3.19-2.33,5a84.16,84.16,0,0,0-4,11.87,93.73,93.73,0,0,0-2.11,12.35c-.17,1.92-.34,3.75-.39,5.46s-.1,3.32-.11,4.78,0,2.77.05,3.93.08,2.16.12,3,.07,1.39.09,1.88a3,3,0,0,1,0,.66,4.57,4.57,0,0,1-.1-.65c0-.49-.1-1.11-.18-1.88s-.17-1.81-.21-3-.15-2.49-.13-3.95,0-3.07.05-4.79.18-3.56.34-5.49a89.86,89.86,0,0,1,2.09-12.43,79.07,79.07,0,0,1,4-11.94c.8-1.77,1.55-3.45,2.39-5s1.62-2.91,2.37-4.16,1.54-2.33,2.18-3.31,1.25-1.76,1.76-2.4l1.17-1.48A2.51,2.51,0,0,1,488.06,378.61Z"/><g class="cls-2"><path d="M610.64,295.89c-.17,12.86-8,24.71-18.23,32.52s-22.65,12.15-35,15.71-25,6.5-36.63,12c-16.11,7.62-31,18.08-40.12,33.4S468.31,425,469.33,442.75l136.78-13.68,7.49-77.74Z"/></g><path class="cls-7" d="M604.21,160s0,.14,0,.39,0,.65,0,1.09c0,1,0,2.37.06,4.09,0,3.54.06,8.49.11,14.42l-.22-.22,20,0-.26.26h0V174.6c0-1.76,0-3.49,0-5.17,0-3.35,0-6.52,0-9.43l.23.23-14.42-.12-4.09-.06-1.09,0-.39,0a1.25,1.25,0,0,1,.34,0l1.05,0,4-.06,14.57-.11h.22V160c0,2.91,0,6.08,0,9.43,0,1.68,0,3.41,0,5.17V180h0l-.26.26-20,0H604V180c0-6,.09-11,.12-14.56,0-1.7,0-3.06,0-4,0-.43,0-.77,0-1A1.34,1.34,0,0,1,604.21,160Z"/><path class="cls-13" d="M628.37,155.54c.33.27-4,6.05-9.6,12.91-1.18,1.43-2.32,2.79-3.37,4.05l-.5.59-.56-.5c-4.7-4.2-7.91-7.36-7.69-7.62s3.82,2.46,8.66,6.5l-1,.09,3.31-4.1C623.2,160.6,628,155.26,628.37,155.54Z"/><path class="cls-14" d="M613.6,139.68a2.38,2.38,0,0,1,.5,0l1.46,0c.32,0,.68,0,1.08,0l1.29.18,1.51.22,1.68.41a27.28,27.28,0,0,1,8.16,3.56,29.32,29.32,0,0,1,8.44,8.22,29.65,29.65,0,0,1,4.79,13.42,32.39,32.39,0,0,1,.08,3.95c-.05.67,0,1.34-.13,2s-.21,1.35-.31,2a28.93,28.93,0,0,1-2.74,8,30.78,30.78,0,0,1-5.25,7.21,30.34,30.34,0,0,1-7.55,5.43,27.67,27.67,0,0,1-9.21,2.83,18.28,18.28,0,0,1-2.46.21,22.76,22.76,0,0,1-2.48,0,29.1,29.1,0,0,1-14.88-4.79l.3,0-10.08,4.05-.6.24.17-.62,3-10.79,0,.27A29,29,0,0,1,585,173.59a26.52,26.52,0,0,1-.39-6.31,21.74,21.74,0,0,1,.29-3c.08-.49.15-1,.23-1.47s.24-1,.35-1.43a28.81,28.81,0,0,1,11.25-16.4,27.48,27.48,0,0,1,6.7-3.54l1.51-.54,1.43-.36,1.31-.32c.42-.09.83-.13,1.21-.19.76-.09,1.43-.23,2-.25l1.48-.05.9,0a.9.9,0,0,1,.31,0l-.31,0-.9.07-1.47.1c-.58,0-1.25.19-2,.3A28.65,28.65,0,0,0,586,161.47c-.11.46-.26.92-.34,1.4s-.15,1-.22,1.45a19.53,19.53,0,0,0-.27,3,25.56,25.56,0,0,0,.41,6.19,28.5,28.5,0,0,0,5.31,12l.09.12,0,.15L588,196.59l-.43-.38,10.08-4.06.16-.06.14.09a28.36,28.36,0,0,0,9.68,4.07,28.73,28.73,0,0,0,4.86.62,21.82,21.82,0,0,0,2.43,0,17.4,17.4,0,0,0,2.4-.21,26.61,26.61,0,0,0,9-2.75,28.13,28.13,0,0,0,12.55-12.35,28.33,28.33,0,0,0,2.71-7.86c.11-.66.21-1.33.31-2s.09-1.32.14-2a28,28,0,0,0-4.7-17.08,29,29,0,0,0-8.25-8.17,27.23,27.23,0,0,0-8-3.62l-1.66-.44-1.49-.25-1.28-.21c-.39,0-.75,0-1.07-.08l-1.45-.1Z"/><path class="cls-13" d="M172.87,353.74a48.9,48.9,0,0,0-46.65-12.8,84.94,84.94,0,0,0,47.2,14.75"/><path class="cls-13" d="M157.05,297.71c1.94-13.74-3.4-29.21-13.69-39.2-.34,13.62,5.41,28.95,13.69,39.2"/><path class="cls-13" d="M165.28,323.68a73.46,73.46,0,0,0-33.71-32.22,46.32,46.32,0,0,0,33.83,32.37"/><path class="cls-13" d="M167,328.69c-8.3.23-16.7-.06-24.73-2.18s-15.72-6.21-21.07-12.57a82.72,82.72,0,0,1,45.68,13.94"/><path class="cls-13" d="M162.77,312.19c4.21-15.8,11.16-26.72,23.58-35.58a32.87,32.87,0,0,1-23.58,35.58"/><path class="cls-13" d="M194.11,339.43a23.41,23.41,0,0,0-14.21-21.66c.69,8.16,7.1,17.59,14.21,21.66"/><path class="cls-13" d="M198.07,326.11a34.85,34.85,0,0,1,22.83-29.72c-2.87,13.2-10.5,24.19-22.83,29.72"/><path class="cls-13" d="M192.1,349.74c2.92-4.19,7.7-6.79,12.65-8.08s10.1-1.41,15.21-1.52a35.62,35.62,0,0,1-27.48,11.45"/><path class="cls-13" d="M186.16,383.41A39,39,0,0,1,233.77,406c-17.3-3.28-34.36-11-47.61-22.55"/><path class="cls-13" d="M167.18,371.71c2.88,8.49,2.32,18.75-4.06,26.07a31.17,31.17,0,0,1,4.06-26.07"/><path class="cls-13" d="M156,367a31.92,31.92,0,0,1-17.65,25.92,2,2,0,0,1-1.56.26c-.78-.32-.85-1.38-.75-2.21,1.25-10.88,9.31-21.4,20-24"/><path class="cls-13" d="M148.64,365.89a26.2,26.2,0,0,1-38.27.19c12.16-1.33,26.2-2.21,38.27-.19"/><path class="cls-7" d="M146.82,268.64a1.91,1.91,0,0,0,.11.36l.37,1c.34.92.84,2.24,1.47,3.94s1.41,3.8,2.28,6.24l1.41,3.91,1.52,4.4c2.16,6.16,4.55,13.55,7.13,21.78s5.2,17.35,7.82,27,4.88,18.82,6.83,27.23,3.53,16,4.71,22.43c.3,1.61.59,3.13.86,4.58s.48,2.81.7,4.09c.44,2.55.81,4.76,1.07,6.56s.48,3.18.63,4.16q.12.68.18,1.08a1.52,1.52,0,0,0,.08.36,1.71,1.71,0,0,0,0-.37c0-.27-.08-.63-.13-1.09-.13-1-.32-2.37-.55-4.16s-.58-4-1-6.58c-.2-1.28-.43-2.65-.66-4.1s-.54-3-.83-4.59c-1.14-6.43-2.74-14-4.61-22.47s-4.21-17.63-6.8-27.25-5.3-18.72-7.86-27-5-15.61-7.23-21.76c-.54-1.54-1.06-3-1.55-4.39l-1.44-3.9c-.9-2.43-1.68-4.52-2.36-6.22s-1.19-3-1.55-3.91l-.42-1A3.3,3.3,0,0,0,146.82,268.64Z"/><path class="cls-7" d="M213.64,303.44s-.08.06-.21.2l-.59.61c-.5.54-1.24,1.35-2.16,2.42a83.3,83.3,0,0,0-7.16,9.55,63.77,63.77,0,0,0-7.49,16c-2,6.38-3.25,13.63-4.49,21.2-2.48,15.17-5.51,28.76-7.71,38.58-1.11,4.89-2,8.86-2.63,11.64-.3,1.35-.54,2.41-.7,3.16-.07.35-.13.62-.17.83a1.26,1.26,0,0,0-.05.28s0-.09.09-.27.13-.48.22-.82c.18-.75.45-1.8.78-3.14.67-2.77,1.61-6.73,2.78-11.6,2.28-9.81,5.37-23.4,7.85-38.58,1.24-7.58,2.47-14.81,4.44-21.15a64.87,64.87,0,0,1,7.36-16,91.19,91.19,0,0,1,7-9.61c.89-1.08,1.61-1.91,2.09-2.47l.55-.64Z"/><path class="cls-7" d="M145,365.37a1.23,1.23,0,0,0,.44.08l1.26.14.91.09,1.08.16c.77.12,1.65.23,2.61.44l1.51.3,1.62.41c1.12.26,2.29.67,3.53,1a52.06,52.06,0,0,1,7.7,3.4,43.17,43.17,0,0,1,6.9,4.8,32.45,32.45,0,0,1,2.65,2.54,25.83,25.83,0,0,1,2.1,2.42,23.82,23.82,0,0,1,1.55,2.14,14.93,14.93,0,0,1,1.07,1.69c.25.43.47.79.64,1.09s.24.37.26.36a2.63,2.63,0,0,0-.17-.4l-.58-1.14a11.89,11.89,0,0,0-1-1.74,23.06,23.06,0,0,0-1.51-2.2,25.64,25.64,0,0,0-2.07-2.48,34.59,34.59,0,0,0-2.65-2.61,42.62,42.62,0,0,0-7-4.88,49,49,0,0,0-7.79-3.39c-1.25-.37-2.43-.77-3.57-1l-1.64-.39-1.52-.27c-1-.19-1.86-.28-2.64-.38l-1.09-.12-.91,0-1.27-.05A2,2,0,0,0,145,365.37Z"/><path class="cls-7" d="M141.54,303.73a6.36,6.36,0,0,0,.88.84l2.5,2.17c2.13,1.82,5.09,4.31,8.37,7s6.29,5.17,8.47,6.92l2.59,2.06a6.44,6.44,0,0,0,1,.71,6,6,0,0,0-.88-.85L162,320.45c-2.12-1.82-5.08-4.31-8.37-7s-6.28-5.17-8.46-6.93l-2.6-2.05A5.88,5.88,0,0,0,141.54,303.73Z"/><path class="cls-7" d="M138.55,319.82c0,.12,6.35,2.12,14.26,4.46s14.37,4.13,14.4,4-6.35-2.12-14.26-4.46S138.59,319.7,138.55,319.82Z"/><path class="cls-7" d="M162.13,313.41a4.51,4.51,0,0,0,.66-.91l1.69-2.57c1.42-2.16,3.45-5.11,5.85-8.24s4.71-5.87,6.41-7.83l2-2.3a5.24,5.24,0,0,0,.7-.89,5.73,5.73,0,0,0-.84.76c-.52.51-1.25,1.26-2.13,2.21-1.77,1.9-4.13,4.61-6.54,7.76s-4.4,6.14-5.76,8.35c-.68,1.11-1.21,2-1.56,2.65A7.08,7.08,0,0,0,162.13,313.41Z"/><path class="cls-7" d="M184.32,322.35a20.2,20.2,0,0,0,1.49,2.46c1,1.5,2.25,3.59,3.59,5.94s2.48,4.54,3.28,6.12a21,21,0,0,0,1.35,2.55,16.21,16.21,0,0,0-1.06-2.69c-.72-1.63-1.82-3.84-3.16-6.21s-2.69-4.43-3.72-5.89A15.82,15.82,0,0,0,184.32,322.35Z"/><path class="cls-7" d="M191.9,350.18a32.37,32.37,0,0,0,3.25-1.43c2-.9,4.78-2.07,7.93-3.17s6-1.92,8.17-2.46,3.44-.84,3.43-.91a4.2,4.2,0,0,0-1,.1c-.61.09-1.48.25-2.55.49a70.07,70.07,0,0,0-8.26,2.34,73.53,73.53,0,0,0-7.91,3.31c-1,.49-1.77.91-2.3,1.22A4,4,0,0,0,191.9,350.18Z"/><path class="cls-7" d="M185.93,383.46a1.26,1.26,0,0,0,.39.13l1.15.3,4.25,1a139.66,139.66,0,0,1,13.88,3.66,61.87,61.87,0,0,1,12.94,6.08c1.55,1,2.76,1.86,3.57,2.48a11,11,0,0,0,1.28,1s-.08-.11-.28-.3-.49-.46-.89-.79a35.88,35.88,0,0,0-3.5-2.61,56.52,56.52,0,0,0-13-6.25,116.55,116.55,0,0,0-14-3.54l-4.28-.84A10.79,10.79,0,0,0,185.93,383.46Z"/><path class="cls-7" d="M164.32,391.66c.13,0,.89-4.46,1.7-10s1.37-10.06,1.24-10.08-.89,4.46-1.7,10S164.2,391.64,164.32,391.66Z"/><path class="cls-7" d="M141.83,383.5a25.14,25.14,0,0,0,2-2.41c1.21-1.51,2.9-3.6,4.8-5.87s3.67-4.28,5-5.74a25.84,25.84,0,0,0,2-2.41s-.26.17-.65.55-1,.94-1.62,1.64c-1.35,1.4-3.15,3.39-5.06,5.66s-3.56,4.4-4.71,6c-.58.78-1,1.42-1.34,1.88A3.25,3.25,0,0,0,141.83,383.5Z"/><polygon class="cls-14" points="201.36 404.36 201.36 415.47 198.58 415.47 188.7 446.65 166.79 446.65 157.22 415.78 153.51 415.47 153.51 404.36 201.36 404.36"/><path class="cls-7" d="M155.37,415.78c0,.13,9.67.23,21.6.23s21.61-.1,21.61-.23-9.67-.23-21.61-.23S155.37,415.65,155.37,415.78Z"/><path class="cls-7" d="M139.61,344.29a9.33,9.33,0,0,0,1.4.38l3.85.92c3.24.81,7.69,2,12.52,3.65s9.11,3.34,12.18,4.66l3.62,1.59a9.71,9.71,0,0,0,1.35.54,9,9,0,0,0-1.27-.71c-.83-.43-2-1-3.57-1.72a126.24,126.24,0,0,0-12.16-4.8,129,129,0,0,0-12.59-3.53c-1.64-.36-3-.62-3.89-.78A8.64,8.64,0,0,0,139.61,344.29Z"/><path class="cls-18" d="M162.64,433.1c0,.13,6.79.23,15.16.23s15.16-.1,15.16-.23-6.79-.23-15.16-.23S162.64,433,162.64,433.1Z"/><path class="cls-18" d="M161.79,430.52c0,.13,7.19.23,16.06.23s16.07-.1,16.07-.23-7.19-.23-16.07-.23S161.79,430.39,161.79,430.52Z"/></g></svg>