<svg xmlns="http://www.w3.org/2000/svg" viewBox="0 0 750 500"><defs><style>.cls-1,.cls-2{fill:#e0e0e0;}.cls-1,.cls-11,.cls-14,.cls-15,.cls-9{fill-rule:evenodd;}.cls-14,.cls-3{fill:#f5f5f5;}.cls-4,.cls-9{fill:#2c5eaa;}.cls-5{opacity:0.3;}.cls-6{fill:#375a64;}.cls-7{fill:#263238;}.cls-8{fill:#00805b;}.cls-10{opacity:0.4;}.cls-11,.cls-19{fill:#fff;}.cls-12{fill:#fafafa;}.cls-13,.cls-15{fill:#ebebeb;}.cls-16{fill:#455a64;}.cls-17{fill:#e8505b;}.cls-18{opacity:0.2;}.cls-20{fill:#ffbe9d;}.cls-21{fill:#eb996e;}</style></defs><g id="Background_Complete" data-name="Background Complete"><path class="cls-1" d="M136,176.32a28.25,28.25,0,0,1-7.51.18l-3.88,5.79-10.76-4.14,1-6.9a27.82,27.82,0,0,1-5.45-5.18l-6.84,1.35-4.67-10.54,5.59-4.16a27.92,27.92,0,0,1-.19-7.52l-5.79-3.88,4.15-10.75,6.9,1a28.05,28.05,0,0,1,5.18-5.44l-1.35-6.84L123,114.62l4.16,5.58a28.25,28.25,0,0,1,7.51-.18l3.88-5.79,10.76,4.15-1,6.89a28.41,28.41,0,0,1,5.45,5.18l6.83-1.35,4.68,10.54-5.59,4.16a27.92,27.92,0,0,1,.19,7.52l5.79,3.88L161.45,166l-6.9-1a28.39,28.39,0,0,1-5.18,5.45l1.35,6.83-10.54,4.68L136,176.32Zm.08-16.54a12.37,12.37,0,1,0-16.32-6.29A12.36,12.36,0,0,0,136.1,159.78Z"/><path class="cls-2" d="M253.13,97s0-.22,0-.63,0-1,0-1.85c0-1.62,0-4,0-7,0-6.1,0-14.89-.05-25.69l.1.1-60.88,0h0l.12-.12c0,12.47,0,24.38,0,35.22l-.11-.11L236,97l12.58,0h0l-12.55,0-43.86.06h-.12V97c0-10.84,0-22.75,0-35.22v-.12h.13l60.88,0h.09v.1c0,10.82,0,19.64-.05,25.75,0,3,0,5.41,0,7,0,.8,0,1.41,0,1.83S253.13,97,253.13,97Z"/><path class="cls-2" d="M253.15,66.07c0,.07-13.62.13-30.41.13s-30.42-.06-30.42-.13S205.94,66,222.74,66,253.15,66,253.15,66.07Z"/><rect class="cls-3" x="197.52" y="71.88" width="18.81" height="18.81"/><path class="cls-2" d="M248.71,75l-.27,0-.8,0-2.91,0-9.63,0-9.62,0-2.92,0-.79,0-.28,0,.28,0,.79,0,2.92,0,9.62,0,9.63,0,2.91,0,.8,0Z"/><path class="cls-2" d="M249.32,79.19l-.28,0-.81,0-3,0-9.83,0-9.84,0-3,0-.82,0-.28,0,.28,0,.82,0,3,0,9.84,0,9.83,0,3,0,.81,0Z"/><path class="cls-2" d="M249.32,83.39l-.28,0-.81,0-3,0-9.83,0-9.84,0-3,0-.82,0-.28,0a1.07,1.07,0,0,1,.28,0l.82,0,3,0,9.84,0,9.83,0,3,0,.81,0A1.07,1.07,0,0,1,249.32,83.39Z"/><path class="cls-2" d="M249.32,87.59l-.28,0-.81,0-3,0-9.83,0-9.84,0-3,0-.82,0-.28,0a1.07,1.07,0,0,1,.28,0l.82,0,3,0,9.84,0,9.83,0,3,0,.81,0A1.07,1.07,0,0,1,249.32,87.59Z"/><path class="cls-2" d="M680.54,342.38s0-.32,0-.94,0-1.52,0-2.7c0-2.38,0-5.86,0-10.33,0-8.94,0-21.83-.08-37.65l.15.14-89.21,0h0l.18-.18c0,18.27,0,35.72,0,51.62l-.17-.17,64.17.08,18.42,0,4.92,0h0l-4.88,0-18.39,0-64.28.09h-.17v-.17c0-15.9,0-33.35,0-51.62v-.18h.19l89.21,0h.14v.14c0,15.86-.06,28.77-.08,37.73,0,4.46,0,7.94,0,10.31,0,1.17,0,2.06,0,2.67S680.54,342.38,680.54,342.38Z"/><path class="cls-2" d="M680.57,297c0,.1-20,.18-44.57.18s-44.57-.08-44.57-.18,20-.18,44.57-.18S680.57,296.91,680.57,297Z"/><rect class="cls-3" x="599.05" y="305.52" width="27.56" height="27.56"/><path class="cls-2" d="M674.07,310.07l-.41,0-1.16,0-4.28.06-14.1.05L640,310.2l-4.28-.06-1.16,0-.4,0a1.17,1.17,0,0,1,.4,0l1.16,0,4.28-.06,14.1-.06,14.1.06,4.28.06,1.16,0A1.2,1.2,0,0,1,674.07,310.07Z"/><path class="cls-2" d="M675,316.22a1.65,1.65,0,0,1-.41,0l-1.19,0-4.37.06-14.41,0-14.42,0-4.37-.06-1.19,0a1.65,1.65,0,0,1-.41,0,2.18,2.18,0,0,1,.41,0l1.19,0,4.37-.06,14.42,0,14.41,0,4.37.06,1.19,0A2.18,2.18,0,0,1,675,316.22Z"/><path class="cls-2" d="M675,322.38l-.41,0-1.19,0-4.37.06-14.41.05-14.42-.05-4.37-.06-1.19,0-.41,0a1.65,1.65,0,0,1,.41,0l1.19,0,4.37-.06,14.42-.05,14.41.05,4.37.06,1.19,0A1.65,1.65,0,0,1,675,322.38Z"/><path class="cls-2" d="M675,328.53a1.2,1.2,0,0,1-.41,0l-1.19,0-4.37.06-14.41.06-14.42-.06-4.37-.06-1.19,0a1.2,1.2,0,0,1-.41,0l.41,0,1.19,0,4.37-.06,14.42,0,14.41,0,4.37.06,1.19,0Z"/></g><g id="Plant"><path class="cls-4" d="M644.3,456.14c.59-2.26-.9-4.54-2.56-6.18s-3.66-3.12-4.53-5.29c-1.4-3.53.49-8.09-1.91-11-1.41-1.73-3.93-2.31-5.18-4.16a9.44,9.44,0,0,1-1.13-3.3,33.57,33.57,0,0,0-8.34-15.6,29.19,29.19,0,0,0,3.27,15c1,1.84,2.17,3.65,2.49,5.71.52,3.35-1.35,6.79-.53,10.08.94,3.76,5.17,6.28,5.37,10.15.17,3.27-2.69,6.14-2.47,9.41a8.79,8.79,0,0,0,1.45,3.88c2.53,4.21,6.25,7.1,11.88,7l6.9.24Z"/><g class="cls-5"><path class="cls-6" d="M644.3,456.14c.59-2.26-.9-4.54-2.56-6.18s-3.66-3.12-4.53-5.29c-1.4-3.53.49-8.09-1.91-11-1.41-1.73-3.93-2.31-5.18-4.16a9.44,9.44,0,0,1-1.13-3.3,33.57,33.57,0,0,0-8.34-15.6,29.19,29.19,0,0,0,3.27,15c1,1.84,2.17,3.65,2.49,5.71.52,3.35-1.35,6.79-.53,10.08.94,3.76,5.17,6.28,5.37,10.15.17,3.27-2.69,6.14-2.47,9.41a8.79,8.79,0,0,0,1.45,3.88c2.53,4.21,6.25,7.1,11.88,7l6.9.24Z"/></g><path class="cls-7" d="M650.41,472.29a5.31,5.31,0,0,0,1.9,0,11.38,11.38,0,0,0,2.24-.56,9.61,9.61,0,0,0,2.77-1.52,3.84,3.84,0,0,0,1.14-1.52,6.94,6.94,0,0,0,.32-2.06,21.67,21.67,0,0,1,.16-2.23,6.18,6.18,0,0,1,.85-2.22c.81-1.43,2.16-2.78,2.6-4.72a15.71,15.71,0,0,0-.19-6.05,12.85,12.85,0,0,1,.16-6.48c.74-2.16,2.25-4.11,3-6.54s.4-5.1.56-7.71a10.51,10.51,0,0,1,.9-3.83c.56-1.22,1.33-2.37,1.94-3.66,1.22-2.59,1.44-5.54,1.77-8.43.17-1.45.33-2.92.5-4.41a21.34,21.34,0,0,1,.77-4.41,38.66,38.66,0,0,1,1.65-4.27,15.46,15.46,0,0,0,.8-2.23c.13-.81.17-1.57.22-2.37a28.36,28.36,0,0,0-.18-4.78c-.19-1.59-.48-3.17-.65-4.76l0-.28,0-.32-.28.14a10.65,10.65,0,0,0-3.71,3.14,17,17,0,0,0-2.29,4.2,52,52,0,0,0-2.14,9,24.59,24.59,0,0,1-2.84,8.34c-.75,1.23-1.67,2.35-2.47,3.55a9.72,9.72,0,0,0-1.71,3.94c-.41,2.91,1.2,5.48.86,8.06a8.87,8.87,0,0,1-1.26,3.58c-.62,1.11-1.36,2.13-2.06,3.15a20,20,0,0,0-1.85,3.19,10.16,10.16,0,0,0-.85,3.46c-.17,2.32.16,4.53,0,6.62a15.3,15.3,0,0,1-1.7,5.67c-.83,1.69-1.76,3.23-2.54,4.72a22.93,22.93,0,0,0-1,2.2,10,10,0,0,0-.61,2.18A13.71,13.71,0,0,0,647,466a10,10,0,0,0,2,5,5.6,5.6,0,0,0,.56.6,2.88,2.88,0,0,0,.45.39c.26.19.4.27.4.27a8.31,8.31,0,0,1-1.34-1.32,10,10,0,0,1-1.87-5,13.46,13.46,0,0,1,.09-3.88,10.39,10.39,0,0,1,.61-2.13c.29-.71.66-1.43,1.05-2.17.78-1.47,1.72-3,2.57-4.71a15.53,15.53,0,0,0,1.77-5.77c.18-2.13-.14-4.34,0-6.62a9.94,9.94,0,0,1,.83-3.34,19.92,19.92,0,0,1,1.84-3.12c.69-1,1.44-2,2.08-3.17a9.26,9.26,0,0,0,1.32-3.73c.33-2.75-1.26-5.33-.85-8a9.35,9.35,0,0,1,1.66-3.77c.78-1.17,1.7-2.29,2.48-3.55a24.85,24.85,0,0,0,2.9-8.49,51.42,51.42,0,0,1,2.14-9,16.23,16.23,0,0,1,2.22-4.09,10.25,10.25,0,0,1,3.56-3l-.32-.17c0,.08,0,.18,0,.27.17,1.62.46,3.2.65,4.77A28.64,28.64,0,0,1,674,397c0,.77-.09,1.57-.21,2.3a13.9,13.9,0,0,1-.78,2.15,39.65,39.65,0,0,0-1.66,4.32,21.92,21.92,0,0,0-.78,4.48c-.16,1.49-.32,3-.49,4.41-.33,2.9-.54,5.8-1.72,8.31-.58,1.25-1.36,2.41-1.93,3.67a10.52,10.52,0,0,0-.93,4c-.15,2.66.2,5.27-.52,7.62s-2.22,4.31-3,6.54a13,13,0,0,0-.15,6.64,15.37,15.37,0,0,1,.22,5.93c-.4,1.86-1.71,3.2-2.54,4.67a6.24,6.24,0,0,0-.85,2.3,20.24,20.24,0,0,0-.15,2.26,6.78,6.78,0,0,1-.29,2,3.82,3.82,0,0,1-1.07,1.45,9.44,9.44,0,0,1-2.71,1.52,11.43,11.43,0,0,1-2.21.6,9.12,9.12,0,0,1-1.4.14Z"/><path class="cls-7" d="M672.21,391a.8.8,0,0,0-.07.21l-.15.62c-.14.54-.3,1.36-.56,2.39s-.89,2.18-1.43,3.6a50.89,50.89,0,0,0-1.64,4.9c-.53,1.84-1,3.88-1.48,6.07a25.68,25.68,0,0,1-2.21,6.74c-.56,1.12-1.2,2.25-1.71,3.49a16.42,16.42,0,0,0-1,4,78.53,78.53,0,0,1-1.49,8.35l-3.9,15.94c-1.23,4.89-2.34,9.29-3.27,13l-2.17,8.78c-.24,1-.43,1.81-.56,2.39-.06.25-.1.46-.14.63s0,.21,0,.21a.8.8,0,0,0,.07-.2l.18-.62c.16-.57.38-1.36.65-2.37.55-2.1,1.34-5.07,2.31-8.74s2.09-8.1,3.36-13,2.54-10.29,3.93-15.94a77.18,77.18,0,0,0,1.49-8.39,15.71,15.71,0,0,1,1-3.86c.48-1.21,1.11-2.34,1.68-3.47a25.77,25.77,0,0,0,2.2-6.84c.47-2.2.92-4.23,1.42-6.07s1-3.47,1.57-4.89,1.11-2.59,1.37-3.65.37-1.86.48-2.41l.11-.63A.74.74,0,0,0,672.21,391Z"/><path class="cls-8" d="M651.63,472.31c4.5-2.68,5.8-10.81,3.92-15.7s-5.17-9.37-5.68-14.58c-.39-4,.92-8.13,0-12-1.26-5.29-6.43-9.39-6.37-14.83,0-3,1.77-5.92,1.63-9-.17-3.74-3-6.71-4.81-10-2.73-5-2.9-11-3.84-16.66s-3.08-11.71-8.09-14.49c-.74,4.8-2,8.09-1.61,14.59.15,2.34,2.86,6.81,3.23,11.93.22,3.06.37,6.12.56,9.18a29.33,29.33,0,0,0,1.44,8.8c.82,2.14,2.13,4.08,2.74,6.28,1.14,4.15-.36,8.64.56,12.84.79,3.56,3.25,6.63,3.75,10.24.71,5.07-2.57,10.34-.89,15.18.83,2.4,2.81,4.33,3.37,6.81.43,1.92,0,4,.35,5.89.64,3.12,6.58,5.53,9.75,5.34"/><path class="cls-7" d="M629.62,369.8a1.1,1.1,0,0,0,0,.27c0,.2.06.46.1.79.11.69.22,1.71.46,3s.93,2.81,1.48,4.61,1.14,3.85,1.65,6.17.94,4.87,1.39,7.62a32.33,32.33,0,0,0,2.31,8.63c.64,1.44,1.35,2.88,1.88,4.42a20.31,20.31,0,0,1,1,4.87,96.69,96.69,0,0,0,1.32,10.49c1.38,7.11,2.7,13.89,3.89,20.05s2.4,11.68,3.36,16.34,1.75,8.37,2.3,11c.27,1.27.49,2.27.64,3,.08.32.14.57.18.77a.91.91,0,0,0,.08.26l0-.27c0-.2-.08-.46-.14-.78-.13-.72-.32-1.72-.57-3-.51-2.63-1.25-6.39-2.16-11s-2-10.2-3.26-16.35-2.49-12.93-3.85-20a98.3,98.3,0,0,1-1.33-10.47,20.48,20.48,0,0,0-1-5c-.55-1.57-1.27-3-1.9-4.45a31.42,31.42,0,0,1-2.32-8.52c-.47-2.75-.92-5.31-1.46-7.63a62.42,62.42,0,0,0-1.72-6.18c-.57-1.8-1.27-3.28-1.55-4.57s-.4-2.32-.53-3c-.06-.33-.11-.59-.14-.79A1.23,1.23,0,0,0,629.62,369.8Z"/></g><g id="Gears"><path class="cls-9" d="M79.74,299.78a31.91,31.91,0,0,1-6.94-4.89l-7.41,2.64-7-11L64,281a31.66,31.66,0,0,1-1.46-8.36l-7.11-3.38,2.86-12.71h7.86a32,32,0,0,1,4.9-7l-2.64-7.41,11-7L85,240.71a32.06,32.06,0,0,1,8.36-1.45l3.38-7.11L109.41,235v7.87a31.57,31.57,0,0,1,6.94,4.89l7.42-2.64,7,11-5.55,5.58a32.06,32.06,0,0,1,1.45,8.36l7.11,3.38-2.85,12.71H123a32,32,0,0,1-4.89,6.95l2.64,7.41-11,7-5.58-5.55a32.5,32.5,0,0,1-8.37,1.46l-3.37,7.1-12.71-2.85,0-7.87ZM91,284.83a14,14,0,1,0-10.58-16.69A14,14,0,0,0,91,284.83Z"/><path class="cls-7" d="M169.63,262.61a6.12,6.12,0,0,1-1.92-.6,8.13,8.13,0,0,1-4.59-7.59,8.19,8.19,0,0,1,1.28-4.19,7.64,7.64,0,0,1,1.56-1.81,7.43,7.43,0,0,1,2.11-1.34,8.28,8.28,0,0,1,9.61,2.15,8,8,0,0,1,1.33,2.11,7.45,7.45,0,0,1,.64,2.31A8.28,8.28,0,0,1,179,258a8.17,8.17,0,0,1-7.4,4.91,6,6,0,0,1-2-.28,16,16,0,0,0,2,.1,8.12,8.12,0,0,0,4.9-1.93,7.91,7.91,0,0,0,2.71-7.08,7.27,7.27,0,0,0-.61-2.18,7.64,7.64,0,0,0-1.27-2,8,8,0,0,0-4.21-2.51,7.87,7.87,0,0,0-4.88.48,7.86,7.86,0,0,0-3.49,3,8,8,0,0,0,3,11.39A17.49,17.49,0,0,0,169.63,262.61Z"/><path class="cls-7" d="M163.13,271.29a1.45,1.45,0,0,1,0,.28c0,.22,0,.5,0,.87,0,.79,0,1.93,0,3.42l-.05-.08,7.38,1.61-.13.07c.58-1.25,1.24-2.64,1.94-4.13l0-.08h.09a18.9,18.9,0,0,0,4.81-.85l.09,0,.06.06,3.25,3.22-.21,0,6.38-4.05-.08.21c-.48-1.33-1-2.8-1.54-4.3l0-.11.08-.08a18.54,18.54,0,0,0,2.8-4l.06-.11h.12l4.56,0-.2.16c.52-2.31,1.08-4.81,1.65-7.37l.12.24-4.13-1.95-.12-.06v-.13a18.47,18.47,0,0,0-.83-4.8l0-.13.1-.09,3.22-3.24,0,.28c-1.28-2-2.65-4.19-4.05-6.38l.28.09-4.31,1.54-.13,0-.1-.09a18.59,18.59,0,0,0-4-2.8h0c-.05-.09.13.2-.12-.21h0v-4.55l.18.22-7.37-1.65.25-.13-2,4.12-.06.13H171a18.71,18.71,0,0,0-4.8.83l-.13.05-.09-.1c-1.1-1.09-2.18-2.16-3.24-3.23l.28,0-6.39,4,.09-.25c.51,1.46,1,2.89,1.52,4.3l.05.12-.09.1a18.5,18.5,0,0,0-2.81,4l-.06.11h-4.69l.19-.15c-.58,2.6-1.14,5-1.67,7.37l-.09-.2c1.44.7,2.8,1.35,4.12,2l.09,0v.1a19,19,0,0,0,.82,4.81l0,.09-.06.06-3.24,3.23,0-.17,4,6.4-.12,0,4.31-1.51h0l0,0a19.91,19.91,0,0,0,2.94,2.26l.78.47.26.16-.28-.13c-.18-.09-.45-.23-.8-.44a17.51,17.51,0,0,1-3-2.21h.08l-4.29,1.56-.08,0,0-.07-4.07-6.36-.06-.1.08-.07,3.21-3.25,0,.15a18.64,18.64,0,0,1-.86-4.89l.09.14-4.13-1.94-.12-.07,0-.13c.51-2.34,1.06-4.79,1.64-7.38l0-.15h.15l4.57,0-.18.11a18.79,18.79,0,0,1,2.86-4.08l0,.21-1.54-4.3-.05-.16.14-.09,6.38-4,.15-.09.12.12,3.24,3.22-.22-.05A18.32,18.32,0,0,1,171,236l-.2.13,2-4.13.08-.16.18,0,7.37,1.65.18,0v.18c0,.76,0,1.52,0,2.28v2.28h0c-.25-.41-.07-.11-.12-.21h0a18.68,18.68,0,0,1,4.07,2.87l-.23-.05,4.3-1.53.18-.06.09.15,4,6.39.09.15-.13.13-3.22,3.23.05-.22a18.58,18.58,0,0,1,.86,4.91l-.13-.19,4.12,2,.16.08,0,.16c-.58,2.56-1.14,5.06-1.66,7.38l0,.16h-4.73l.18-.11a18.86,18.86,0,0,1-2.88,4.07l0-.2c.54,1.51,1.06,3,1.53,4.31l0,.14-.13.07-6.39,4-.11.07-.1-.09-3.22-3.23.15,0a18.63,18.63,0,0,1-4.89.83l.11-.08-2,4.12,0,.09-.09,0-7.37-1.69-.05,0v-.05c0-1.47,0-2.61,0-3.39,0-.37,0-.66,0-.88A1.85,1.85,0,0,1,163.13,271.29Z"/><path class="cls-9" d="M126.56,227.79a16.2,16.2,0,0,1-3.45-2.42l-3.67,1.31L116,221.22l2.75-2.77a16,16,0,0,1-.72-4.15l-3.53-1.68,1.42-6.3h3.9a15.82,15.82,0,0,1,2.43-3.44l-1.31-3.68,5.46-3.46,2.76,2.76a16.06,16.06,0,0,1,4.15-.73l1.68-3.52,6.3,1.41v3.91a15.51,15.51,0,0,1,3.45,2.42l3.68-1.31,3.45,5.46-2.75,2.77a16,16,0,0,1,.72,4.15l3.53,1.67L151.94,221H148a15.82,15.82,0,0,1-2.43,3.44l1.31,3.68-5.46,3.46-2.76-2.76a15.64,15.64,0,0,1-4.15.72l-1.68,3.53-6.3-1.41v-3.91Zm5.56-7.42a6.93,6.93,0,1,0-5.25-8.28A6.93,6.93,0,0,0,132.12,220.37Z"/><g class="cls-10"><path class="cls-11" d="M126.56,227.79a16.2,16.2,0,0,1-3.45-2.42l-3.67,1.31L116,221.22l2.75-2.77a16,16,0,0,1-.72-4.15l-3.53-1.68,1.42-6.3h3.9a15.82,15.82,0,0,1,2.43-3.44l-1.31-3.68,5.46-3.46,2.76,2.76a16.06,16.06,0,0,1,4.15-.73l1.68-3.52,6.3,1.41v3.91a15.51,15.51,0,0,1,3.45,2.42l3.68-1.31,3.45,5.46-2.75,2.77a16,16,0,0,1,.72,4.15l3.53,1.67L151.94,221H148a15.82,15.82,0,0,1-2.43,3.44l1.31,3.68-5.46,3.46-2.76-2.76a15.64,15.64,0,0,1-4.15.72l-1.68,3.53-6.3-1.41v-3.91Zm5.56-7.42a6.93,6.93,0,1,0-5.25-8.28A6.93,6.93,0,0,0,132.12,220.37Z"/></g></g><g id="Character_2" data-name="Character 2"><polygon class="cls-2" points="724.68 67.49 646.03 66.72 648.22 169.23 726.87 169.51 724.68 67.49"/><polygon class="cls-12" points="719.61 72.06 650.76 70.27 652.75 163.24 721.58 164.08 719.61 72.06"/><polygon class="cls-13" points="707.86 85.95 662.17 85.19 663.57 150.16 709.21 149.19 707.86 85.95"/><polygon class="cls-3" points="663.57 150.16 708.5 115.81 662.17 85.19 663.57 150.16"/><path class="cls-13" d="M245.82,403.68c-.3.88,10,40,10,40l7.06-1.47-9.71-38.53Z"/><polygon class="cls-3" points="300.52 398.09 286.41 443.68 294.64 443.68 308.17 401.32 300.52 398.09"/><polygon class="cls-13" points="313.47 391.03 297.29 443.68 305.52 443.68 321.11 394.26 313.47 391.03"/><polygon class="cls-2" points="250.82 440.44 259.05 468.97 300.52 468.97 308.17 440.44 250.82 440.44"/><path class="cls-2" d="M272.21,440.44a1.1,1.1,0,0,1-.09-.29l-.22-.87-.8-3.37-2.85-12.46c-2.37-10.59-5.65-25.22-9.31-41.55l.26.2h-7.26l.25-.31c3.68,16.34,7,31,9.36,41.58,1.17,5.26,2.1,9.52,2.76,12.5.31,1.44.55,2.58.72,3.39.07.36.13.65.18.88a1.73,1.73,0,0,1,0,.3,1.1,1.1,0,0,1-.09-.29c-.06-.22-.13-.51-.23-.87-.19-.8-.46-1.93-.81-3.37-.69-3-1.69-7.21-2.91-12.46-2.43-10.59-5.78-25.22-9.53-41.55l-.07-.32h7.8l0,.21c3.6,16.34,6.82,31,9.15,41.58,1.14,5.26,2,9.52,2.69,12.5l.71,3.39.17.88A1.73,1.73,0,0,1,272.21,440.44Z"/><path class="cls-13" d="M618.28,257.72a9.44,9.44,0,1,1-9.44-9.44A9.44,9.44,0,0,1,618.28,257.72Z"/><circle class="cls-13" cx="580.81" cy="257.72" r="10.06" transform="translate(-12.12 486.18) rotate(-45)"/><circle class="cls-13" cx="559.27" cy="239.93" r="10.67"/><circle class="cls-13" cx="554.89" cy="212.58" r="11.15" transform="translate(247.63 721.19) rotate(-79.82)"/><circle class="cls-13" cx="568.54" cy="188.64" r="11.52"/><circle class="cls-13" cx="594.78" cy="179.18" r="12.56" transform="translate(-23.09 243.22) rotate(-22.68)"/><circle class="cls-13" cx="629.66" cy="239.71" r="9.12" transform="translate(252.21 797.8) rotate(-76.77)"/><circle class="cls-13" cx="634.54" cy="212.27" r="8.46" transform="translate(-33.95 240.97) rotate(-20.96)"/><circle class="cls-13" cx="620.47" cy="188.32" r="7.73" transform="translate(335.42 770.72) rotate(-80.8)"/><path class="cls-12" d="M221.16,168.17h-4a3.16,3.16,0,0,0-1.22.13,1.93,1.93,0,0,0-1,.86,2.08,2.08,0,0,0-.22.65,3.32,3.32,0,0,0,0,.71v.74a3.33,3.33,0,0,1,0,.77,2,2,0,0,1-.9,1.3,1.87,1.87,0,0,1-.8.28c-.29,0-.57,0-.86,0H197.38a1.94,1.94,0,0,1-.59-.06,1.88,1.88,0,0,1-1-.62,2,2,0,0,1-.49-1.09,4.19,4.19,0,0,1,0-.61v-.61a3,3,0,0,0-.12-1.19,2,2,0,0,0-.72-.94,1.92,1.92,0,0,0-1.17-.32h-9.34a6.55,6.55,0,0,0-2.72.51,6.46,6.46,0,0,0-2.27,1.69,6.31,6.31,0,0,0-1.28,2.59c-.06.23-.08.48-.12.72s0,.41,0,.62v99.56a6.11,6.11,0,0,0,.25,1.95,6.23,6.23,0,0,0,2.4,3.32,6.49,6.49,0,0,0,4,1.08h36.82c1.31,0,2.63,0,3.91,0a6.13,6.13,0,0,0,3.51-1.36,6,6,0,0,0,2.05-3.1,6.8,6.8,0,0,0,.23-1.85v-9.32c0-19.59,0-37.23,0-52.05s0-26.8,0-35.09v-2.93a6.44,6.44,0,0,0-.45-2.5,6,6,0,0,0-1.18-1.85,5.85,5.85,0,0,0-1.41-1.15,5.93,5.93,0,0,0-2.32-.82c-.28-.05-.49,0-.63-.06h-3.55Z"/><path class="cls-12" d="M572.83,168.17h-4.05a3.13,3.13,0,0,0-1.21.13,1.93,1.93,0,0,0-1,.86,2.1,2.1,0,0,0-.23.65,5.47,5.47,0,0,0,0,.71v.74a4,4,0,0,1,0,.77,2,2,0,0,1-.91,1.3,1.83,1.83,0,0,1-.79.28c-.29,0-.57,0-.86,0H549.05a2,2,0,0,1-.59-.06,1.89,1.89,0,0,1-1-.62,2.1,2.1,0,0,1-.5-1.09c0-.21,0-.41,0-.61v-.61a3.18,3.18,0,0,0-.12-1.19,2,2,0,0,0-.72-.94,1.92,1.92,0,0,0-1.17-.32h-9.34a6.55,6.55,0,0,0-2.72.51,6.37,6.37,0,0,0-2.27,1.69,6.19,6.19,0,0,0-1.28,2.59c-.06.23-.08.48-.13.72s0,.41,0,.62v99.56a6.4,6.4,0,0,0,.24,1.95,6.19,6.19,0,0,0,2.41,3.32,6.47,6.47,0,0,0,4,1.08h36.82c1.31,0,2.62,0,3.91,0a6.16,6.16,0,0,0,3.51-1.36,6.45,6.45,0,0,0,1.27-1.39,6.11,6.11,0,0,0,.77-1.71,6.44,6.44,0,0,0,.24-1.85v-9.32c0-19.59,0-37.23,0-52.05s0-26.8,0-35.09c0-1,0-2,0-2.93a6.26,6.26,0,0,0-.46-2.5,6.17,6.17,0,0,0-1.17-1.85,5.85,5.85,0,0,0-1.41-1.15,6,6,0,0,0-2.32-.82c-.28-.05-.49,0-.64-.06h-3.55Z"/><path class="cls-1" d="M343.22,88.67a20.17,20.17,0,0,1,.13,5.37l4.14,2.78-3,7.69-4.93-.72a20.43,20.43,0,0,1-3.71,3.9l1,4.88-7.54,3.35-3-4a19.75,19.75,0,0,1-5.37.13l-2.78,4.14-7.69-3,.72-4.93a20.37,20.37,0,0,1-3.89-3.71l-4.89,1L299.1,98l4-3a20.24,20.24,0,0,1-.13-5.38l-4.14-2.77,3-7.7,4.93.72a20,20,0,0,1,3.7-3.89l-1-4.89L317,67.8l3,4a20.59,20.59,0,0,1,5.37-.13l2.78-4.14,7.69,3-.72,4.93a20,20,0,0,1,3.89,3.7l4.89-1,3.34,7.53-4,3Zm-11.83-.06a8.85,8.85,0,1,0-4.5,11.68A8.84,8.84,0,0,0,331.39,88.61Z"/><path class="cls-14" d="M339.22,44a13.64,13.64,0,0,1,.09,3.55L342,49.35l-2,5.08L336.82,54a13.24,13.24,0,0,1-2.45,2.57l.64,3.23L330,62l-2-2.64a13.22,13.22,0,0,1-3.55.09l-1.83,2.73-5.09-2,.48-3.26a13.84,13.84,0,0,1-2.58-2.44l-3.23.63-2.21-5,2.64-2a13.29,13.29,0,0,1-.08-3.56l-2.74-1.83,2-5.09,3.26.48a13.24,13.24,0,0,1,2.45-2.57l-.64-3.23,5-2.21,2,2.64a13.22,13.22,0,0,1,3.55-.09L329.24,30l5.08,2-.48,3.26a13.29,13.29,0,0,1,2.58,2.45l3.23-.64,2.21,5-2.64,2Zm-7.82,0a5.85,5.85,0,1,0-3,7.72A5.84,5.84,0,0,0,331.4,43.92Z"/><path class="cls-1" d="M479.65,374.92a23.77,23.77,0,0,1,.16,6.3l4.85,3.25-3.48,9-5.78-.84a23.74,23.74,0,0,1-4.34,4.57l1.13,5.73-8.84,3.92-3.49-4.69a23.79,23.79,0,0,1-6.3.16l-3.26,4.85-9-3.48.85-5.78a23.74,23.74,0,0,1-4.57-4.34l-5.73,1.13-3.92-8.84,4.68-3.49a23.79,23.79,0,0,1-.15-6.3l-4.86-3.26,3.48-9,5.78.85a23.8,23.8,0,0,1,4.35-4.57l-1.13-5.73,8.84-3.92,3.48,4.68a23.85,23.85,0,0,1,6.31-.15l3.25-4.86,9,3.48-.84,5.78a23.8,23.8,0,0,1,4.57,4.35l5.73-1.13,3.92,8.83-4.69,3.5Zm-13.87-.07a10.37,10.37,0,1,0-5.27,13.69A10.37,10.37,0,0,0,465.78,374.85Z"/><path class="cls-14" d="M456.31,428.46a14.12,14.12,0,0,1,.09,3.67l2.83,1.89-2,5.26-3.37-.49a13.83,13.83,0,0,1-2.53,2.66l.66,3.34-5.15,2.28-2-2.73a13.31,13.31,0,0,1-3.67.09l-1.9,2.83-5.26-2,.5-3.37a13.85,13.85,0,0,1-2.66-2.53l-3.34.66-2.29-5.15,2.73-2a14.12,14.12,0,0,1-.09-3.67L426,427.25l2-5.26,3.37.49a13.83,13.83,0,0,1,2.53-2.66l-.66-3.34,5.15-2.28,2,2.73a13.71,13.71,0,0,1,3.67-.09L446,414l5.26,2-.5,3.37a13.85,13.85,0,0,1,2.66,2.53l3.34-.65,2.29,5.14-2.73,2Zm-8.08,0a6,6,0,1,0-3.08,8A6,6,0,0,0,448.23,428.42Z"/><path class="cls-15" d="M370.35,68.71a11.86,11.86,0,0,1,.08,3.2l2.47,1.66-1.77,4.59-2.94-.43A12.18,12.18,0,0,1,366,80.06l.57,2.92-4.5,2-1.77-2.38a12.36,12.36,0,0,1-3.21.08l-1.66,2.47-4.59-1.77.43-3a11.88,11.88,0,0,1-2.33-2.21l-2.92.58-2-4.5,2.38-1.78a12.34,12.34,0,0,1-.08-3.21l-2.47-1.65,1.77-4.6,2.95.43a11.83,11.83,0,0,1,2.21-2.32l-.58-2.92,4.5-2,1.78,2.39a12.34,12.34,0,0,1,3.21-.08l1.66-2.47,4.59,1.77-.43,2.94A12.18,12.18,0,0,1,367.82,63l2.92-.58,2,4.5-2.39,1.78Zm-7.06,0a5.28,5.28,0,1,0-2.69,7A5.28,5.28,0,0,0,363.29,68.67Z"/><path class="cls-13" d="M531.3,401.14a19.32,19.32,0,0,1,12-1.46c2.18.36,4.45,1,5.93,2.65s1.76,4.51.06,5.92a5.68,5.68,0,0,1-3.74.95c-3.17,0-6.69-.6-9.23,1.31-1.45,1.09-2.41,2.9-4.14,3.44a4.11,4.11,0,0,1-4.5-2,7,7,0,0,1-.51-5.16A7.88,7.88,0,0,1,531.3,401.14Z"/><path class="cls-13" d="M522.94,385c2.23,3.19,6.57,2.13,8.58.18s2.86-4.76,3.64-7.46c1.77-6.14,3.55-12.59,2.24-18.85a10.61,10.61,0,0,0-2.41-5.13A5.5,5.5,0,0,0,529.8,352c-2.19.58-3.55,2.73-4.53,4.76a45,45,0,0,0-4.44,19.3c0,3.1.35,6.36,2.11,8.93"/><path class="cls-13" d="M516.8,389.56c2.43-2.87,2.89-7.07,1.81-10.68a20.59,20.59,0,0,0-6.33-9.17A33.87,33.87,0,0,0,501,363a12,12,0,0,0-5.1-.87,5.31,5.31,0,0,0-4.27,2.59c-1.19,2.27,0,5,1.18,7.28a87.4,87.4,0,0,0,7.44,11.33c2.23,2.87,4.79,5.71,8.19,7s6.93,1.14,8.73-1.21"/><path class="cls-2" d="M522.78,433.1a6.64,6.64,0,0,0,.21-1.45c.1-1.06.23-2.38.38-4s.43-3.64.89-5.8a44.13,44.13,0,0,1,2.11-6.84,25.25,25.25,0,0,1,3.5-6.2,12.8,12.8,0,0,1,4.42-3.67A12,12,0,0,1,538,404a7.48,7.48,0,0,0,1.44-.21,7,7,0,0,0-1.47,0,11.67,11.67,0,0,0-3.88,1,13.13,13.13,0,0,0-4.66,3.71,24.78,24.78,0,0,0-3.63,6.32,42.09,42.09,0,0,0-2.09,7,48.68,48.68,0,0,0-.77,5.88c-.13,1.68-.17,3-.2,4A6.9,6.9,0,0,0,522.78,433.1Z"/><path class="cls-2" d="M523.06,430.06a3.42,3.42,0,0,0,0-.68c0-.5,0-1.14,0-1.92,0-1.67,0-4.08.09-7.07.14-6,.66-12.38,1.65-21.43.94-8.51,2.2-18.41,3.53-24.85.29-1.47.57-2.78.84-3.94s.48-2.15.69-3,.33-1.38.45-1.87a2.76,2.76,0,0,0,.12-.66,2.58,2.58,0,0,0-.23.63c-.15.48-.33,1.09-.56,1.84s-.5,1.79-.79,2.94-.62,2.47-.93,3.93a219.13,219.13,0,0,0-3.72,23.06c-1,9.07-1.44,17.33-1.48,23.31,0,3,0,5.41.11,7.08,0,.78.08,1.41.12,1.92A2.75,2.75,0,0,0,523.06,430.06Z"/><path class="cls-2" d="M523.1,414.13a13.43,13.43,0,0,0,0-2c-.07-1.29-.25-3.16-.61-5.44a74.2,74.2,0,0,0-1.77-7.93,64.87,64.87,0,0,0-3.32-9.38,50,50,0,0,0-9.74-15.17,25.31,25.31,0,0,0-2.29-2.13c-.35-.29-.66-.59-1-.82l-.88-.62a11.3,11.3,0,0,0-1.7-1.08,59,59,0,0,1,5.55,4.95,52.73,52.73,0,0,1,9.49,15.1,75.65,75.65,0,0,1,3.34,9.3c.87,2.91,1.44,5.59,1.88,7.85s.66,4.11.8,5.39A12.92,12.92,0,0,0,523.1,414.13Z"/><polygon class="cls-2" points="507.7 442.22 509.3 464.09 537.39 464.09 538.98 442.22 507.7 442.22"/><rect class="cls-2" x="504.99" y="433.61" width="37.34" height="8.62"/><polygon class="cls-13" points="504.99 463.25 504.99 465.64 506.75 465.64 541.72 465.64 541.72 463.25 504.99 463.25"/><polygon class="cls-2" points="508.46 469.84 506.75 465.64 540.38 465.64 538.37 469.84 508.46 469.84"/><path class="cls-3" d="M538.46,449.37a1.08,1.08,0,0,1-.13.2l-.42.56-1.64,2.09-.07.09-.07-.09c-1-1.43-2.4-3.33-4-5.56h.23l-4,5.6-.12.18-.14-.17-4.69-5.58h.27l-.26.33-4.2,5.26-.14.17-.13-.18c-1.42-2-2.75-3.9-4-5.6h.23l-4.87,5.56-.09.09-.06-.11-1.53-2.56-.39-.68c-.09-.16-.13-.24-.12-.25a2.53,2.53,0,0,1,.16.22l.43.66,1.61,2.51h-.16l4.8-5.62.12-.14.11.15c1.22,1.69,2.56,3.57,4,5.58H519l4.19-5.27.25-.33.14-.16.14.16,4.68,5.6h-.27l4-5.58.12-.16.11.16,3.94,5.62h-.15c.72-.86,1.29-1.55,1.71-2l.45-.53C538.4,449.42,538.45,449.36,538.46,449.37Z"/><path class="cls-3" d="M539.37,442.08c0,.1-7,.17-15.71.17s-15.72-.07-15.72-.17,7-.18,15.72-.18S539.37,442,539.37,442.08Z"/><path class="cls-3" d="M540.79,465.87c0,.1-7.65.18-17.08.18s-17.08-.08-17.08-.18,7.64-.17,17.08-.17S540.79,465.78,540.79,465.87Z"/><path class="cls-16" d="M672,470.31c0,.14-132.14.26-295.11.26s-295.13-.12-295.13-.26,132.11-.26,295.13-.26S672,470.16,672,470.31Z"/><rect class="cls-7" x="108.62" y="422.92" width="56.43" height="7.75"/><path class="cls-7" d="M165.14,430.77H108.52v-7.94h56.62Zm-56.43-.19h56.23V423H108.71Z"/><polygon class="cls-7" points="113.85 428.1 121.97 468.17 152.02 468.17 159.87 430.68 113.85 428.1"/><polygon class="cls-16" points="113.85 464.38 118.18 470.33 154.71 470.33 159.87 464.38 113.85 464.38"/><path class="cls-7" d="M134.71,429.27c-.11,0-.25-18.57-.32-41.46s0-41.46.09-41.46.25,18.56.31,41.46S134.82,429.27,134.71,429.27Z"/><path class="cls-7" d="M147.28,382.81a2,2,0,0,1-.15.43c-.13.32-.3.72-.51,1.21l-.36.86c-.12.33-.25.68-.38,1.05s-.28.79-.44,1.21-.26.9-.41,1.38a54.8,54.8,0,0,0-1.58,6.91,83,83,0,0,0-.87,8.64,116.1,116.1,0,0,0,.44,15.78c.18,2,.37,3.64.5,4.77.06.52.1.95.14,1.29a1.46,1.46,0,0,1,0,.46,3.34,3.34,0,0,1-.1-.44c-.05-.34-.13-.77-.22-1.29-.18-1.12-.4-2.75-.62-4.76a104,104,0,0,1-.57-15.83,80.72,80.72,0,0,1,.91-8.68,51.94,51.94,0,0,1,1.68-6.93c.15-.48.28-.95.44-1.38s.32-.83.47-1.21.28-.72.41-1,.28-.6.4-.86l.57-1.17A2.48,2.48,0,0,1,147.28,382.81Z"/><path class="cls-7" d="M145.84,367.8a4.81,4.81,0,0,1-.18.61c-.15.43-.35,1-.59,1.73-.13.37-.28.79-.43,1.24s-.29,1-.46,1.5c-.33,1.07-.71,2.29-1.05,3.67-.18.68-.37,1.4-.57,2.14s-.34,1.54-.52,2.35c-.4,1.62-.68,3.37-1,5.21-.62,3.68-1.17,7.76-1.54,12.06s-.52,8.41-.57,12.15,0,7.11.19,9.94c.05,1.41.14,2.69.21,3.81s.14,2.09.21,2.88.1,1.36.14,1.82a3.74,3.74,0,0,1,0,.63,3.9,3.9,0,0,1-.1-.63c-.06-.45-.13-1.05-.22-1.81s-.18-1.75-.27-2.87-.21-2.4-.27-3.82c-.19-2.83-.27-6.2-.28-10s.18-7.87.54-12.19.94-8.39,1.58-12.09c.37-1.84.67-3.59,1.08-5.21.19-.81.38-1.6.55-2.35l.6-2.15c.36-1.37.76-2.59,1.11-3.66.17-.53.34-1,.49-1.49l.46-1.24c.28-.71.5-1.27.66-1.7A2.83,2.83,0,0,1,145.84,367.8Z"/><path class="cls-7" d="M131.14,432.55s0-.07,0-.22,0-.37-.05-.64c0-.59-.1-1.41-.17-2.45-.14-2.17-.33-5.25-.57-9.05-.49-7.63-1.19-18.17-2.48-29.77-.66-5.8-1.42-11.31-2.21-16.3-.42-2.49-.8-4.86-1.23-7.07s-.83-4.26-1.22-6.13-.79-3.56-1.12-5-.64-2.75-.91-3.79-.44-1.81-.58-2.39c-.06-.26-.11-.46-.14-.62a1,1,0,0,1,0-.22,1.08,1.08,0,0,1,.08.2c0,.17.1.37.18.62l.66,2.37c.28,1,.62,2.3,1,3.78s.79,3.15,1.18,5,.85,3.92,1.26,6.13.85,4.58,1.28,7.07c.81,5,1.58,10.51,2.24,16.31,1.29,11.61,1.95,22.17,2.37,29.81.2,3.82.35,6.91.44,9.05l.09,2.46v.64A.72.72,0,0,1,131.14,432.55Z"/><path class="cls-17" d="M134.25,355.27c-.25-2.63-2.9-4.61-5.54-4.64a8.7,8.7,0,0,0-6.72,3.65,21,21,0,0,0-3.24,7.18,48.72,48.72,0,0,0-2,19.1,28.94,28.94,0,0,0,7.95,17.23c.75.73,1.72,1.47,2.74,1.25a3.39,3.39,0,0,0,1.45-.89,42.76,42.76,0,0,0,13.87-32.52,13.17,13.17,0,0,0-1.74-7c-1.34-2-4.49-4.18-6.78-3.37"/><path class="cls-17" d="M114.53,334.21,110.81,341c-.09.15-.2.33-.38.34s-.34-.17-.45-.33l-9.84-15.09,2.27-1.29Z"/><g class="cls-18"><path d="M114.53,334.21,110.81,341c-.09.15-.2.33-.38.34s-.34-.17-.45-.33l-9.84-15.09,2.27-1.29Z"/></g><path class="cls-17" d="M134.48,346.35l-33.55-19.8a1.6,1.6,0,0,1-.82-.82,1.55,1.55,0,0,1,.6-1.35,23.09,23.09,0,0,1,17.93-7,20.48,20.48,0,0,1,16.2,10.08c3.24,5.79,3.35,13.44-.36,18.93"/><path class="cls-7" d="M105.76,320.23a2.19,2.19,0,0,1,.44-.05,12.47,12.47,0,0,1,1.27-.06,24.54,24.54,0,0,1,4.66.37,27.52,27.52,0,0,1,13.74,6.63,27.67,27.67,0,0,1,8,13,24.74,24.74,0,0,1,.83,4.6,8.4,8.4,0,0,1,.05,1,1.52,1.52,0,0,1-.26.73,5.37,5.37,0,0,0,.06-1.69,29.41,29.41,0,0,0-1-4.54,27.43,27.43,0,0,0-21.49-19.44,29.51,29.51,0,0,0-4.61-.5A16.56,16.56,0,0,1,105.76,320.23Z"/><path class="cls-7" d="M129.94,332.68a8.13,8.13,0,0,1-1.7.78c-1.07.42-2.56,1-4.23,1.49s-3.21.95-4.32,1.22a8.62,8.62,0,0,1-1.83.35,9.32,9.32,0,0,1,1.75-.62l4.27-1.34,4.26-1.37A9.94,9.94,0,0,1,129.94,332.68Z"/><path class="cls-7" d="M124.65,318.49a23.23,23.23,0,0,1,.19,7.5,23.66,23.66,0,0,1-.19-3.74A24.52,24.52,0,0,1,124.65,318.49Z"/><path class="cls-7" d="M100.64,326.18a14.8,14.8,0,0,1,2.43-.86c1.53-.47,3.65-1.07,6-1.64s4.52-1,6.09-1.28a14.51,14.51,0,0,1,2.56-.34,20.65,20.65,0,0,1-2.5.62c-1.55.35-3.7.83-6.06,1.39s-4.49,1.12-6,1.52A19.81,19.81,0,0,1,100.64,326.18Z"/><path class="cls-17" d="M120.33,349.57c-2.89-2.19-5.94-2.62-9.56-2.48a29.21,29.21,0,0,0-10.46,2.7c-5.65,2.48-11,6.13-14.35,11.3s-4.56,12-2,17.64a2.53,2.53,0,0,0,1.15,1.39A2.7,2.7,0,0,0,87,380c6.44-2.1,12.92-4.22,18.83-7.51s11.3-7.85,14.48-13.83a11.8,11.8,0,0,0,1.52-4.59,5.68,5.68,0,0,0-1.47-4.48"/><path class="cls-7" d="M120.38,348.89a2.08,2.08,0,0,1-.46.19l-1.35.46-1,.32-1.14.45c-.81.33-1.75.66-2.75,1.14l-1.58.72c-.54.25-1.09.56-1.67.86-1.16.57-2.34,1.3-3.6,2a56.69,56.69,0,0,0-14.19,12.49c-.9,1.15-1.78,2.23-2.49,3.31-.37.54-.75,1-1.07,1.55l-.91,1.48c-.61.92-1,1.82-1.48,2.58-.21.39-.42.74-.59,1.08l-.45.92L85,379.76a4,4,0,0,1-.24.44,1.51,1.51,0,0,1,.17-.47c.14-.34.33-.78.56-1.31l.42-.95c.16-.34.36-.7.56-1.09.41-.78.84-1.69,1.43-2.63l.9-1.5c.32-.51.69-1,1-1.57.71-1.1,1.58-2.19,2.48-3.35a55.19,55.19,0,0,1,14.28-12.57c1.27-.74,2.47-1.47,3.65-2,.58-.29,1.14-.59,1.69-.84l1.6-.7c1-.47,2-.78,2.79-1.09.41-.15.79-.3,1.15-.42l1-.29,1.38-.39A1.61,1.61,0,0,1,120.38,348.89Z"/><path class="cls-7" d="M97.84,361.09a66.28,66.28,0,0,1-7,2.26,65.59,65.59,0,0,1-7.13,1.88,66.28,66.28,0,0,1,7-2.26A71.66,71.66,0,0,1,97.84,361.09Z"/><path class="cls-7" d="M97.55,376.58a12.29,12.29,0,0,1-.15-2.19c0-1.35,0-3.22,0-5.28s.17-3.93.28-5.28a12,12,0,0,1,.28-2.17,11.87,11.87,0,0,1,0,2.19c0,1.48-.1,3.28-.17,5.27s-.09,3.79-.13,5.27A11.53,11.53,0,0,1,97.55,376.58Z"/><path class="cls-7" d="M110.82,369.82c-.11,0-.46-3.79-.79-8.48s-.5-8.5-.39-8.51a84.68,84.68,0,0,1,.79,8.48C110.76,366,110.93,369.81,110.82,369.82Z"/><path class="cls-7" d="M94.31,352.46a12.82,12.82,0,0,1,2.24-.07c1.39,0,3.31.05,5.42.12s4,.16,5.41.24a11.49,11.49,0,0,1,2.24.22,12.82,12.82,0,0,1-2.24.07c-1.39,0-3.31-.05-5.42-.12s-4-.16-5.42-.24A11.31,11.31,0,0,1,94.31,352.46Z"/><path class="cls-7" d="M126.15,398.67a2.23,2.23,0,0,1-.05-.45c0-.34,0-.76-.06-1.29-.05-1.12-.06-2.74,0-4.75s.17-4.39.41-7,.64-5.53,1.18-8.55,1.22-5.86,1.91-8.43,1.42-4.85,2.09-6.75,1.25-3.41,1.7-4.45c.2-.48.37-.88.51-1.19a1.87,1.87,0,0,1,.2-.4,2.09,2.09,0,0,1-.13.43c-.11.32-.26.72-.44,1.22-.4,1.05-.94,2.58-1.57,4.48s-1.32,4.19-2,6.75-1.32,5.4-1.87,8.41-.93,5.89-1.21,8.52-.43,5-.5,7-.11,3.62-.11,4.74c0,.52,0,.95,0,1.29A1.29,1.29,0,0,1,126.15,398.67Z"/><path class="cls-7" d="M127.92,376.71a9.44,9.44,0,0,1-1.34,1.46c-.87.87-2.1,2-3.5,3.27s-2.72,2.3-3.7,3a9.14,9.14,0,0,1-1.63,1.14,10.55,10.55,0,0,1,1.45-1.35l3.61-3.14,3.58-3.16A10.06,10.06,0,0,1,127.92,376.71Z"/><path class="cls-7" d="M138.54,385.26a15.79,15.79,0,0,1-1.43-2l-3.31-4.84-3.39-4.79a14.59,14.59,0,0,1-1.35-2,14,14,0,0,1,1.58,1.86c.93,1.18,2.18,2.84,3.49,4.73s2.44,3.63,3.22,4.91A12.67,12.67,0,0,1,138.54,385.26Z"/><path class="cls-7" d="M133,358.36c.06.09-3.47,2.47-7.88,5.3s-8,5.06-8.1,5,3.47-2.47,7.88-5.31S132.92,358.27,133,358.36Z"/><path class="cls-7" d="M142.92,369.09a66.07,66.07,0,0,1-5.33-4.93,68.2,68.2,0,0,1-5.06-5.21,63.26,63.26,0,0,1,5.34,4.93A64.64,64.64,0,0,1,142.92,369.09Z"/><path class="cls-17" d="M145.42,368.88l3-.25a15.16,15.16,0,0,0,6.12-1.87,23.78,23.78,0,0,1,2.85-1.44c3.74-1.5,7.92-1.23,12-1.43a49.48,49.48,0,0,0,19-4.86,1.86,1.86,0,0,0,.82-.75c.63-1.14-.53-2.15-1.52-2.76-5.1-3.14-10.3-6.33-16.08-7.89s-12.35-1.29-17.29,2.1c-5.8,4-7.91,12.18-8.89,19.15"/><path class="cls-7" d="M189.27,357.9a2.52,2.52,0,0,1-.51-.24l-1.44-.75c-1.24-.65-3-1.62-5.3-2.7a49.24,49.24,0,0,0-8.2-3.17,27.27,27.27,0,0,0-10.64-.86,18.17,18.17,0,0,0-9.69,4.17,21.33,21.33,0,0,0-5.05,7.09,58.82,58.82,0,0,0-2.2,5.52l-.54,1.53a3.21,3.21,0,0,1-.21.52,2.94,2.94,0,0,1,.14-.55c.11-.39.27-.91.46-1.55a51.6,51.6,0,0,1,2.09-5.59,21.3,21.3,0,0,1,5.06-7.25,18.42,18.42,0,0,1,9.89-4.29,27,27,0,0,1,10.79.91,47.47,47.47,0,0,1,8.23,3.26c2.25,1.12,4,2.13,5.25,2.83l1.4.81A3.41,3.41,0,0,1,189.27,357.9Z"/><path class="cls-7" d="M182,361.81c-.06.09-4-2.47-8.84-5.72s-8.69-6-8.62-6.06,4,2.47,8.84,5.73S182.06,361.72,182,361.81Z"/><path class="cls-7" d="M177.78,349.83a10.14,10.14,0,0,1-2.89.51,9.76,9.76,0,0,1-2.94,0,17.73,17.73,0,0,1,2.91-.3A18,18,0,0,1,177.78,349.83Z"/><path class="cls-7" d="M160.44,347.57a7.78,7.78,0,0,1-1.3,2,9.18,9.18,0,0,1-1.64,1.87,7.24,7.24,0,0,1,1.29-2A8.45,8.45,0,0,1,160.44,347.57Z"/><path class="cls-7" d="M164,364.14a10.35,10.35,0,0,1-1.91-1c-1.14-.69-2.69-1.71-4.34-2.91s-3.11-2.33-4.15-3.17a11.44,11.44,0,0,1-1.65-1.41,11.72,11.72,0,0,1,1.82,1.19c1.18.86,2.62,1.91,4.22,3.06s3.16,2.25,4.26,3A12.68,12.68,0,0,1,164,364.14Z"/><path class="cls-17" d="M149.88,381.74c-2.89-.76-6.33,2.05-6.92,5s.5,5.92,1.78,8.61A44.05,44.05,0,0,0,156.69,411,29.5,29.5,0,0,0,175,417.68c-1.22-5.67.32-11.59-.36-17.35a22.55,22.55,0,0,0-20-19.8c-1.85-.2-4-.49-4.72,1.21"/><path class="cls-7" d="M175,417.68s-.15-.05-.41-.19a7.34,7.34,0,0,1-1.08-.72,11.18,11.18,0,0,1-2.85-3.82c-.46-.89-1-1.86-1.48-2.94l-1.56-3.43a33.82,33.82,0,0,0-1.9-3.67,28.77,28.77,0,0,0-2.63-3.58c-2-2.32-4.1-4.33-5.94-6.25a41,41,0,0,1-4.53-5.43,20.23,20.23,0,0,1-2.21-4.22c-.19-.54-.32-.95-.39-1.24a2.32,2.32,0,0,1-.09-.45s.2.59.63,1.63a21.16,21.16,0,0,0,2.3,4.12,42.53,42.53,0,0,0,4.56,5.34c1.84,1.89,4,3.9,6,6.24A29.51,29.51,0,0,1,166,402.7a32.15,32.15,0,0,1,1.91,3.73c.54,1.21,1,2.36,1.52,3.44s1,2.06,1.43,2.95a11.69,11.69,0,0,0,2.7,3.83A15.24,15.24,0,0,0,175,417.68Z"/><path class="cls-7" d="M160,413a8.8,8.8,0,0,1,.27-1.94c.23-1.19.6-2.82,1.1-4.6s1-3.37,1.46-4.5a8.92,8.92,0,0,1,.79-1.8,9.64,9.64,0,0,1-.52,1.89c-.36,1.15-.85,2.74-1.35,4.52s-.91,3.38-1.2,4.55A10,10,0,0,1,160,413Z"/><path class="cls-7" d="M174.4,399.05a10.93,10.93,0,0,1-2-.47c-1.25-.32-3-.77-4.88-1.2s-3.65-.76-4.92-1a12.08,12.08,0,0,1-2-.45,10,10,0,0,1,2.09.17c1.28.17,3,.46,5,.89s3.64.92,4.87,1.32A9.81,9.81,0,0,1,174.4,399.05Z"/><path class="cls-7" d="M149.3,403.1a11.21,11.21,0,0,1,.31-2.25c.25-1.38.66-3.28,1.2-5.35s1.11-3.92,1.56-5.25a12,12,0,0,1,.83-2.11,13.22,13.22,0,0,1-.55,2.2c-.39,1.34-.91,3.2-1.45,5.26s-1,3.94-1.31,5.3A15.64,15.64,0,0,1,149.3,403.1Z"/><path class="cls-7" d="M167.78,386.92c0,.11-3.62-.18-8.06-.65s-8-.94-8-1,3.62.18,8.06.65S167.79,386.81,167.78,386.92Z"/><path class="cls-16" d="M165.13,430.64c0,.11-12.67.2-28.3.2s-28.31-.09-28.31-.2,12.67-.2,28.31-.2S165.13,430.53,165.13,430.64Z"/><path class="cls-16" d="M156.32,447c0,.12-8.54.21-19.07.21s-19.08-.09-19.08-.21,8.54-.2,19.08-.2S156.32,446.84,156.32,447Z"/><path class="cls-16" d="M156,449.29c0,.11-8.4.2-18.74.2s-18.74-.09-18.74-.2,8.38-.2,18.74-.2S156,449.17,156,449.29Z"/><path class="cls-16" d="M156.65,445c0,.11-8.83.2-19.73.2s-19.73-.09-19.73-.2,8.84-.2,19.73-.2S156.65,444.92,156.65,445Z"/><path class="cls-12" d="M276.08,126.15h-6.46a5.18,5.18,0,0,0-1.95.21,3.16,3.16,0,0,0-1.89,2.4,6.1,6.1,0,0,0,0,1.14v1.19a5.65,5.65,0,0,1-.08,1.22,3.27,3.27,0,0,1-1.44,2.08,3.1,3.1,0,0,1-1.27.44c-.46,0-.9,0-1.37,0H238.14a3.27,3.27,0,0,1-.93-.09,3.09,3.09,0,0,1-1.61-1,3.31,3.31,0,0,1-.79-1.75,7.92,7.92,0,0,1,0-1v-1a5,5,0,0,0-.2-1.9,3.08,3.08,0,0,0-1.15-1.51,3,3,0,0,0-1.86-.51h-14.9a9.92,9.92,0,0,0-8,3.52,9.88,9.88,0,0,0-2,4.11c-.1.38-.13.78-.2,1.16s0,.66-.05,1v158.8a10.31,10.31,0,0,0,.4,3.13,9.84,9.84,0,0,0,3.84,5.28,10.18,10.18,0,0,0,6.32,1.73h58.74c2.09,0,4.19,0,6.24,0a9.84,9.84,0,0,0,5.6-2.17,10.21,10.21,0,0,0,2-2.23,9.71,9.71,0,0,0,1.24-2.72,10.52,10.52,0,0,0,.37-2.95v-3c0-4,0-8,0-11.86,0-31.25,0-59.38,0-83s0-42.75.06-56v-4.68a10.17,10.17,0,0,0-.72-4,9.94,9.94,0,0,0-1.87-3,9.43,9.43,0,0,0-2.25-1.83,9.6,9.6,0,0,0-3.71-1.31c-.44-.08-.78-.06-1-.09l-.34,0h-5.32Z"/><path class="cls-7" d="M281.51,126.27h.34a7.36,7.36,0,0,1,1,.07,9.37,9.37,0,0,1,3.72,1.29,9.47,9.47,0,0,1,2.26,1.83,9.84,9.84,0,0,1,1.89,3,10.37,10.37,0,0,1,.75,4v4.68c0,13.22,0,32.34,0,56s0,51.77,0,83V295a10.7,10.7,0,0,1-.38,3,10.1,10.1,0,0,1-1.27,2.8,10.71,10.71,0,0,1-2.07,2.29,10,10,0,0,1-5.72,2.22c-2.09.07-4.15,0-6.24,0H263.22l-25.93,0h-20a10.46,10.46,0,0,1-6.46-1.78,10.19,10.19,0,0,1-3.94-5.43,11,11,0,0,1-.41-3.36V278.15q0-13.17,0-25.94c0-17,0-33.4,0-49s0-30.47,0-44.37q0-10.41,0-20.1V136.3c0-.4,0-.8.06-1.2s.1-.8.2-1.18a10.06,10.06,0,0,1,2.09-4.21,10.05,10.05,0,0,1,8.09-3.58h14.84a3.15,3.15,0,0,1,2,.54,3.28,3.28,0,0,1,1.21,1.59,5.49,5.49,0,0,1,.2,2v1a7.48,7.48,0,0,0,0,.95,3.18,3.18,0,0,0,.74,1.66,3,3,0,0,0,1.52.94,3.74,3.74,0,0,0,.89.09h4.5l13.08,0h5.77c.45,0,.91,0,1.35,0a3,3,0,0,0,1.21-.42,3.17,3.17,0,0,0,1.39-2,5.44,5.44,0,0,0,.08-1.21v-1.18a7.45,7.45,0,0,1,0-1.16,3.44,3.44,0,0,1,.38-1.06,3.11,3.11,0,0,1,1.58-1.4,4.8,4.8,0,0,1,2-.21h6.44l4,0,1.35,0H269.77a4.78,4.78,0,0,0-1.94.21,3.1,3.1,0,0,0-1.53,1.36,3.38,3.38,0,0,0-.36,1,7.09,7.09,0,0,0-.05,1.14c0,.39,0,.78,0,1.18a6.41,6.41,0,0,1-.08,1.23,3.23,3.23,0,0,1-1.44,2.07,2.94,2.94,0,0,1-1.26.45c-.46,0-.9,0-1.36,0H238.41a3.27,3.27,0,0,1-.93-.09,3,3,0,0,1-1.6-1,3.38,3.38,0,0,1-.79-1.75,7.92,7.92,0,0,1,0-1v-1a5.05,5.05,0,0,0-.2-1.9,3.14,3.14,0,0,0-1.14-1.5,3,3,0,0,0-1.86-.51H217a10.12,10.12,0,0,0-4.33.82,10,10,0,0,0-3.6,2.7,9.76,9.76,0,0,0-2,4.11c-.1.38-.13.77-.2,1.16s0,.78,0,1.18v22.52c0,13.89,0,28.74,0,44.36s0,32,0,49v42.55a10.66,10.66,0,0,0,.4,3.28,9.9,9.9,0,0,0,3.82,5.28,10.22,10.22,0,0,0,6.31,1.73h20l25.93,0h12.63c2.08,0,4.17,0,6.22,0a9.81,9.81,0,0,0,5.58-2.17,10.66,10.66,0,0,0,2-2.23,9.68,9.68,0,0,0,1.23-2.72,10.16,10.16,0,0,0,.37-2.95v-3c0-4,0-8,0-11.86,0-31.25,0-59.39.05-83s0-42.75.05-56c0-1.65,0-3.21,0-4.68a10.17,10.17,0,0,0-.72-4,9.94,9.94,0,0,0-1.87-2.95,9.94,9.94,0,0,0-5.94-3.14,7.85,7.85,0,0,0-1-.09Z"/><path class="cls-7" d="M283.43,142.33s-1.64.09-3.66.11-3.66,0-3.66-.05,1.63-.09,3.66-.1S283.43,142.29,283.43,142.33Z"/><path class="cls-7" d="M283.45,144.21s-1.64.09-3.67.1-3.66,0-3.66,0,1.64-.09,3.66-.11S283.45,144.16,283.45,144.21Z"/><path class="cls-7" d="M283.46,146.08s-1.64.09-3.66.11-3.66,0-3.66-.05,1.64-.09,3.66-.11S283.46,146,283.46,146.08Z"/><path class="cls-7" d="M216.81,148.22h.58l1.56,0,0,0c0-.34,0-.72,0-1.13,0-.21,0-.41,0-.65a.61.61,0,0,1,.53-.49c.25,0,.47,0,.74,0a.6.6,0,0,1,.52.6c0,.53,0,1.08,0,1.66l-.08-.07,2,0-.08.07c0-.79,0-1.61,0-2.46,0-.21,0-.41,0-.62a.64.64,0,0,0-.27-.47l-.87-.85-.83-.82-.4-.4c-.14-.13-.25-.27-.41-.3a.55.55,0,0,0-.45.08c-.12.11-.25.25-.37.37l-.71.71c-.44.46-.91.88-1.24,1.28a1.33,1.33,0,0,0-.1.74v.7c0,.42,0,.8,0,1.12s0,.52,0,.71a1,1,0,0,1,0,.26,2.17,2.17,0,0,1,0-.24c0-.19,0-.42,0-.7l0-1.13c0-.22,0-.46,0-.71v-.39a.87.87,0,0,1,.11-.41c.37-.45.8-.84,1.25-1.32l.7-.72c.13-.12.23-.25.39-.38a.67.67,0,0,1,.57-.11,1.1,1.1,0,0,1,.47.34l.41.4.83.81.86.85a1.7,1.7,0,0,1,.22.24.59.59,0,0,1,.11.33v.63c0,.84,0,1.67,0,2.46v.08h-2.12v-.07c0-.57,0-1.13,0-1.66a.47.47,0,0,0-.4-.47c-.22,0-.49,0-.71,0a.5.5,0,0,0-.43.39c0,.2,0,.43,0,.63v1.18H219l-1.59,0h-.55Z"/><path class="cls-7" d="M266.55,213.86c0,.28-7.85.51-17.53.51s-17.52-.23-17.52-.51,7.84-.51,17.52-.51S266.55,213.58,266.55,213.86Z"/><rect class="cls-17" x="232.07" y="162.46" width="34.02" height="45.27" transform="translate(62.6 433.14) rotate(-89.68)"/><polygon class="cls-17" points="226.35 201.98 242.28 180.92 252 194.21 258.68 187.17 271.62 202.23 226.35 201.98"/><path class="cls-17" d="M256.24,178.41a3.56,3.56,0,1,1-3.54-3.59A3.56,3.56,0,0,1,256.24,178.41Z"/><g class="cls-18"><polygon points="226.35 201.98 242.28 180.92 252 194.21 258.68 187.17 271.62 202.23 226.35 201.98"/></g><g class="cls-18"><path d="M256.24,178.41a3.56,3.56,0,1,1-3.54-3.59A3.56,3.56,0,0,1,256.24,178.41Z"/></g><path class="cls-7" d="M280.19,226.38c0,.29-13.91.52-31.07.52s-31.08-.23-31.08-.52,13.91-.51,31.08-.51S280.19,226.1,280.19,226.38Z"/><path class="cls-7" d="M280.19,235.05c0,.28-13.91.51-31.07.51s-31.08-.23-31.08-.51,13.91-.52,31.08-.52S280.19,234.76,280.19,235.05Z"/><path class="cls-7" d="M280.19,243.71c0,.28-13.91.51-31.07.51S218,244,218,243.71s13.91-.52,31.08-.52S280.19,243.42,280.19,243.71Z"/><path class="cls-7" d="M280.19,252.37c0,.28-13.91.51-31.07.51s-31.08-.23-31.08-.51,13.91-.51,31.08-.51S280.19,252.09,280.19,252.37Z"/><path class="cls-7" d="M280.19,261c0,.29-13.91.52-31.07.52S218,261.32,218,261s13.91-.51,31.08-.51S280.19,260.75,280.19,261Z"/><path class="cls-7" d="M266.82,268.94c0,.14-2,.27-5.22.37s-7.69.15-12.62.15-9.38-.06-12.61-.15-5.22-.23-5.22-.37,2-.27,5.22-.36,7.69-.15,12.61-.15,9.39.06,12.62.15S266.82,268.8,266.82,268.94Z"/><path class="cls-12" d="M338.2,111.61H331a5.31,5.31,0,0,0-2.16.23,3.37,3.37,0,0,0-1.71,1.52,3.49,3.49,0,0,0-.4,1.15,7.68,7.68,0,0,0-.06,1.28c0,.43,0,.87,0,1.32a7.12,7.12,0,0,1-.09,1.37,3.65,3.65,0,0,1-1.6,2.31,3.45,3.45,0,0,1-1.41.5c-.51,0-1,0-1.52,0H296a4.12,4.12,0,0,1-1-.1,3.49,3.49,0,0,1-1.79-1.11,3.69,3.69,0,0,1-.87-2,9.75,9.75,0,0,1,0-1.08V116a5.77,5.77,0,0,0-.21-2.12,3.49,3.49,0,0,0-1.28-1.68,3.35,3.35,0,0,0-2.07-.57H272.18a10.94,10.94,0,0,0-8.84,3.92,11.15,11.15,0,0,0-2.28,4.59c-.11.43-.14.86-.22,1.29s0,.74,0,1.11V299.67a11.63,11.63,0,0,0,.44,3.48A11,11,0,0,0,265.5,309a11.37,11.37,0,0,0,7,1.94h22.26l28.92,0H337.8c2.32,0,4.65,0,6.93,0a10.9,10.9,0,0,0,6.22-2.41,11.57,11.57,0,0,0,2.25-2.49,11,11,0,0,0,1.37-3,11.5,11.5,0,0,0,.42-3.3v-3.35q0-6.71,0-13.23c0-34.85,0-66.23.05-92.59s0-47.68.06-62.42c0-1.85,0-3.59,0-5.22a11.36,11.36,0,0,0-.81-4.46,11,11,0,0,0-2.08-3.28,10.64,10.64,0,0,0-2.5-2,10.37,10.37,0,0,0-4.12-1.45,8.49,8.49,0,0,0-1.12-.1l-.38,0h-1.5Z"/><path class="cls-7" d="M344.19,111.51h.38a7.77,7.77,0,0,1,1.12.08,11.15,11.15,0,0,1,6.68,3.48,11.11,11.11,0,0,1,2.1,3.31,11.3,11.3,0,0,1,.83,4.49c0,1.63,0,3.37,0,5.21,0,14.75,0,36.08,0,62.43s0,57.74,0,92.59v16.58a11.67,11.67,0,0,1-.42,3.37,11.15,11.15,0,0,1-1.42,3.12,11.66,11.66,0,0,1-2.3,2.56,11.25,11.25,0,0,1-6.39,2.48c-2.32.07-4.62,0-6.95,0H272.6a11.7,11.7,0,0,1-7.2-2,11.35,11.35,0,0,1-4.39-6.06,12.19,12.19,0,0,1-.46-3.74V280.9q0-14.68,0-28.93c0-19,0-37.25,0-54.68s0-34,0-49.48q0-11.62,0-22.43V122.7c0-.45,0-.9.06-1.34s.12-.89.23-1.32a11.26,11.26,0,0,1,2.33-4.69,11.5,11.5,0,0,1,4.1-3.07,11.68,11.68,0,0,1,4.92-.93h16.56A3.53,3.53,0,0,1,291,112a3.72,3.72,0,0,1,1.35,1.78,5.82,5.82,0,0,1,.22,2.18V117a7.4,7.4,0,0,0,0,1.06,3.43,3.43,0,0,0,.82,1.85,3.28,3.28,0,0,0,1.69,1,4.19,4.19,0,0,0,1,.1h5l14.59,0h6.44a14.93,14.93,0,0,0,1.5,0,3.25,3.25,0,0,0,1.36-.47,3.55,3.55,0,0,0,1.55-2.23,6,6,0,0,0,.08-1.34c0-.45,0-.89,0-1.33a8,8,0,0,1,0-1.29,4,4,0,0,1,.42-1.18,3.48,3.48,0,0,1,1.77-1.56,5.59,5.59,0,0,1,2.2-.24l7.17,0,4.42,0c1,0,1.5,0,1.5,0H331.1a5.5,5.5,0,0,0-2.16.24,3.37,3.37,0,0,0-1.71,1.52,3.51,3.51,0,0,0-.41,1.15,8.88,8.88,0,0,0-.05,1.27v1.33a6.38,6.38,0,0,1-.08,1.37,3.65,3.65,0,0,1-1.6,2.31,3.51,3.51,0,0,1-1.41.5c-.51,0-1,0-1.52,0h-26a4.08,4.08,0,0,1-1-.1,3.45,3.45,0,0,1-1.79-1.11,3.69,3.69,0,0,1-.87-2,7.8,7.8,0,0,1,0-1.08v-1.08a5.79,5.79,0,0,0-.22-2.12,3.48,3.48,0,0,0-1.28-1.68,3.37,3.37,0,0,0-2.06-.57H272.26a11,11,0,0,0-8.85,3.93,11.25,11.25,0,0,0-2.27,4.59c-.11.42-.14.86-.22,1.29s-.05.88-.06,1.32v2.68q0,10.8,0,22.43V280.9q0,7.35,0,14.8v3.73a11.8,11.8,0,0,0,.45,3.65,11,11,0,0,0,4.27,5.89,11.33,11.33,0,0,0,7,1.93h22.27l28.91,0h14.1c2.32,0,4.65,0,6.93,0a10.9,10.9,0,0,0,6.22-2.41,11.52,11.52,0,0,0,2.24-2.49,10.7,10.7,0,0,0,1.38-3,11.79,11.79,0,0,0,.42-3.29V283.11c0-34.85,0-66.23.05-92.59s.05-47.68.07-62.43v-5.21a11.36,11.36,0,0,0-.8-4.46,10.91,10.91,0,0,0-2.08-3.28,10.64,10.64,0,0,0-2.5-2,10.42,10.42,0,0,0-4.12-1.45,8.9,8.9,0,0,0-1.12-.11Z"/><path class="cls-7" d="M346.33,129.43s-1.83.1-4.08.12-4.09,0-4.09-.06,1.83-.1,4.08-.12S346.33,129.38,346.33,129.43Z"/><path class="cls-7" d="M346.35,131.52s-1.83.1-4.09.12-4.08,0-4.08-.06,1.83-.1,4.08-.12S346.35,131.47,346.35,131.52Z"/><path class="cls-7" d="M346.36,133.61s-1.82.1-4.08.12-4.08,0-4.09-.06,1.83-.1,4.09-.12S346.36,133.56,346.36,133.61Z"/><path class="cls-7" d="M272,136h.17l.47,0,1.75,0-.05.05c0-.39,0-.81,0-1.26,0-.24,0-.46,0-.73a.68.68,0,0,1,.59-.54c.28,0,.52,0,.83,0a.68.68,0,0,1,.57.67c0,.59,0,1.21,0,1.85l-.08-.08,2.2,0-.08.09c0-.89,0-1.8,0-2.74v-.7a.69.69,0,0,0-.31-.52l-1-.95-.93-.92-.45-.44a1.1,1.1,0,0,0-.46-.34.56.56,0,0,0-.5.1c-.13.11-.28.27-.41.4l-.79.8c-.5.51-1,1-1.39,1.43a1.54,1.54,0,0,0-.11.82v.78c0,.47,0,.89,0,1.24s0,.59,0,.8,0,.29,0,.29a2.39,2.39,0,0,1,0-.26c0-.22,0-.48,0-.79s0-.78,0-1.26c0-.25,0-.51,0-.79s0-.28,0-.43a.84.84,0,0,1,.13-.46c.4-.5.89-.94,1.39-1.47l.78-.81c.14-.13.26-.27.43-.42a.74.74,0,0,1,.63-.12,1.1,1.1,0,0,1,.53.38l.45.44.93.91,1,1a1.51,1.51,0,0,1,.24.26.63.63,0,0,1,.12.37c0,.24,0,.47,0,.71,0,.93,0,1.85,0,2.74V136h-.09l-2.2,0h-.08V136c0-.64,0-1.26,0-1.85a.53.53,0,0,0-.44-.53,7.12,7.12,0,0,0-.8,0,.51.51,0,0,0-.47.42,5.58,5.58,0,0,0,0,.71V136H272Z"/><path class="cls-17" d="M316.51,147.43a7.38,7.38,0,1,1-7.37-7.37A7.37,7.37,0,0,1,316.51,147.43Z"/><path class="cls-19" d="M311.67,150.41h-5.06v-.62a2.53,2.53,0,0,1,2.53-2.53h0a2.53,2.53,0,0,1,2.53,2.53Z"/><path class="cls-19" d="M310.62,146a1.49,1.49,0,1,1-1.48-1.49A1.48,1.48,0,0,1,310.62,146Z"/><path class="cls-7" d="M327.5,166.93c0,.31-8.75.57-19.54.57s-19.55-.26-19.55-.57,8.75-.58,19.55-.58S327.5,166.61,327.5,166.93Z"/><rect class="cls-17" x="272.21" y="182.25" width="25.36" height="33.75" transform="translate(84.18 482.9) rotate(-89.68)"/><polygon class="cls-17" points="267.94 211.71 279.82 196.01 287.06 205.92 292.05 200.67 301.69 211.9 267.94 211.71"/><path class="cls-17" d="M290.23,194.14a2.66,2.66,0,1,1-2.64-2.67A2.65,2.65,0,0,1,290.23,194.14Z"/><g class="cls-18"><polygon points="267.94 211.71 279.82 196.01 287.06 205.92 292.05 200.67 301.69 211.9 267.94 211.71"/></g><g class="cls-18"><path d="M290.23,194.14a2.66,2.66,0,1,1-2.64-2.67A2.65,2.65,0,0,1,290.23,194.14Z"/></g><rect class="cls-17" x="277.49" y="210.07" width="58.63" height="78.01" transform="translate(56.03 554.48) rotate(-89.68)"/><polygon class="cls-17" points="267.64 278.17 295.09 241.88 311.84 264.77 323.35 252.65 345.65 278.61 267.64 278.17"/><path class="cls-17" d="M319.16,237.55a6.15,6.15,0,1,1-6.11-6.18A6.14,6.14,0,0,1,319.16,237.55Z"/><g class="cls-18"><polygon points="267.64 278.17 295.09 241.88 311.84 264.77 323.35 252.65 345.65 278.61 267.64 278.17"/></g><g class="cls-18"><path d="M319.16,237.55a6.15,6.15,0,1,1-6.11-6.18A6.14,6.14,0,0,1,319.16,237.55Z"/></g><rect class="cls-17" x="316.76" y="182.25" width="25.36" height="33.75" transform="translate(128.48 527.45) rotate(-89.68)"/><polygon class="cls-17" points="312.5 211.71 324.37 196.01 331.62 205.92 336.6 200.67 346.24 211.9 312.5 211.71"/><circle class="cls-17" cx="332.12" cy="194.12" r="2.66"/><g class="cls-18"><polygon points="312.5 211.71 324.37 196.01 331.62 205.92 336.6 200.67 346.24 211.9 312.5 211.71"/></g><g class="cls-18"><circle cx="332.12" cy="194.12" r="2.66"/></g><path class="cls-12" d="M547.75,121.49h-6.43a5.15,5.15,0,0,0-1.94.21,3.16,3.16,0,0,0-1.89,2.4,6.14,6.14,0,0,0,0,1.14v1.19a5.72,5.72,0,0,1-.07,1.23,3.3,3.3,0,0,1-1.44,2.07,3.13,3.13,0,0,1-1.26.45c-.46,0-.91,0-1.37,0H510a3.37,3.37,0,0,1-.94-.09,3.11,3.11,0,0,1-1.6-1,3.29,3.29,0,0,1-.78-1.75,6.29,6.29,0,0,1,0-1c0-.32,0-.64,0-1a5,5,0,0,0-.19-1.9,3.12,3.12,0,0,0-1.15-1.51,3,3,0,0,0-1.85-.51H488.56a9.84,9.84,0,0,0-7.93,3.52,10,10,0,0,0-2,4.12c-.1.38-.12.77-.19,1.15s0,.66,0,1V290.12a10.25,10.25,0,0,0,.4,3.12,9.82,9.82,0,0,0,3.82,5.28,10.2,10.2,0,0,0,6.3,1.74h20l25.93,0H547.4c2.08,0,4.17,0,6.22,0a9.77,9.77,0,0,0,5.57-2.16,10.37,10.37,0,0,0,2-2.23,9.61,9.61,0,0,0,1.24-2.73,10.08,10.08,0,0,0,.37-2.95v-3q0-6,0-11.86c0-31.24,0-59.38,0-83s0-42.76.06-56c0-1.65,0-3.21,0-4.67a10.37,10.37,0,0,0-.73-4,9.91,9.91,0,0,0-4.1-4.78,9.3,9.3,0,0,0-3.7-1.3,8.66,8.66,0,0,0-1-.1l-.34,0h-5.31Z"/><rect class="cls-13" x="492.25" y="188.78" width="55.84" height="11.41"/><path class="cls-7" d="M553.25,121.4h.34a7.72,7.72,0,0,1,1,.08,10,10,0,0,1,6,3.12,10,10,0,0,1,1.89,3,10.37,10.37,0,0,1,.74,4v4.68c0,13.22,0,32.34,0,56s0,51.77,0,83v14.86a10.37,10.37,0,0,1-.38,3,9.82,9.82,0,0,1-1.27,2.8,10.67,10.67,0,0,1-2.06,2.29,10.05,10.05,0,0,1-5.73,2.22c-2.08.06-4.15,0-6.24,0H535l-25.93,0h-20a10.48,10.48,0,0,1-6.46-1.78,10.16,10.16,0,0,1-3.93-5.44,10.89,10.89,0,0,1-.42-3.35v-3.35q0-6.68,0-13.26V247.35c0-17,0-33.4,0-49s0-30.47,0-44.37q0-10.41,0-20.1c0-.81,0-1.61,0-2.41,0-.4,0-.8.05-1.2s.1-.8.2-1.19a10,10,0,0,1,10.18-7.78H503.6a3.21,3.21,0,0,1,1.95.55,3.28,3.28,0,0,1,1.21,1.59,5.28,5.28,0,0,1,.21,2c0,.33,0,.65,0,1a7.24,7.24,0,0,0,0,.94,3,3,0,0,0,.74,1.66,2.92,2.92,0,0,0,1.51,1,3.39,3.39,0,0,0,.9.08h4.49l13.08,0h5.77c.45,0,.92,0,1.35,0a2.93,2.93,0,0,0,1.22-.43,3.16,3.16,0,0,0,1.39-2,5.47,5.47,0,0,0,.07-1.21c0-.4,0-.8,0-1.19a6.33,6.33,0,0,1,.05-1.15A3.32,3.32,0,0,1,538,123a3.18,3.18,0,0,1,1.59-1.4,5.15,5.15,0,0,1,2-.21l6.43,0,4,0h1.35l-1.35,0H541.51a4.76,4.76,0,0,0-1.94.21A3,3,0,0,0,538,123a3.16,3.16,0,0,0-.36,1,6.14,6.14,0,0,0,0,1.14v1.19a5.13,5.13,0,0,1-.08,1.23,3.25,3.25,0,0,1-1.43,2.07,3,3,0,0,1-1.27.45c-.46,0-.9,0-1.36,0H510.15a4.28,4.28,0,0,1-.94-.09,3.26,3.26,0,0,1-2.38-2.74,6.35,6.35,0,0,1,0-1v-1a5.24,5.24,0,0,0-.19-1.9,3.1,3.1,0,0,0-1.15-1.5,3,3,0,0,0-1.85-.52H488.75a10.28,10.28,0,0,0-4.33.83,9.78,9.78,0,0,0-5.64,6.81c-.1.38-.13.77-.2,1.16s0,.78-.05,1.18V154c0,13.9,0,28.75,0,44.37v49q0,12.75,0,25.94V289.9a10.66,10.66,0,0,0,.4,3.28,9.92,9.92,0,0,0,3.83,5.28,10.26,10.26,0,0,0,6.3,1.73h20l25.93,0h12.63c2.09,0,4.18,0,6.22,0a9.77,9.77,0,0,0,5.58-2.16,10.39,10.39,0,0,0,2-2.23,9.84,9.84,0,0,0,1.24-2.72,10.54,10.54,0,0,0,.37-3V275.27c0-31.25,0-59.39,0-83s0-42.75.06-56V131.6a10.25,10.25,0,0,0-.72-4,10,10,0,0,0-1.86-2.94,9.88,9.88,0,0,0-5.94-3.14,6.54,6.54,0,0,0-1-.09Z"/><path class="cls-7" d="M555.16,137.47s-1.63.09-3.66.11-3.66,0-3.66-.05,1.64-.09,3.66-.11S555.16,137.43,555.16,137.47Z"/><path class="cls-7" d="M555.18,139.34s-1.64.1-3.66.11-3.66,0-3.66,0,1.63-.1,3.66-.11S555.18,139.3,555.18,139.34Z"/><path class="cls-7" d="M555.2,141.22s-1.64.09-3.67.11-3.66,0-3.66-.05,1.64-.09,3.66-.11S555.19,141.18,555.2,141.22Z"/><path class="cls-7" d="M488.55,143.36h.15l.42,0,1.57,0-.05,0c0-.35,0-.72,0-1.13,0-.21,0-.41,0-.66a.61.61,0,0,1,.52-.48h.75a.6.6,0,0,1,.51.6c0,.53,0,1.08,0,1.66l-.07-.08,2,0-.07.08c0-.79,0-1.62,0-2.46v-.62a.62.62,0,0,0-.28-.47l-.86-.85-.83-.82-.41-.4c-.14-.13-.24-.27-.41-.3a.52.52,0,0,0-.45.08c-.12.1-.24.25-.37.36l-.7.72c-.45.46-.91.88-1.25,1.28a1.42,1.42,0,0,0-.1.74v.69c0,.43,0,.8,0,1.12v.72c0,.17,0,.25,0,.26a1.1,1.1,0,0,1,0-.24c0-.19,0-.42,0-.7l0-1.13c0-.23,0-.46,0-.71v-.39a.77.77,0,0,1,.11-.41c.36-.45.8-.85,1.25-1.32l.7-.72a4.54,4.54,0,0,1,.38-.38.68.68,0,0,1,.57-.11,1,1,0,0,1,.47.34l.41.39.83.82.87.85a1.74,1.74,0,0,1,.22.24.64.64,0,0,1,.1.33c0,.21,0,.42,0,.63,0,.84,0,1.66,0,2.46v.08h-2.12v-.07c0-.58,0-1.13,0-1.66a.48.48,0,0,0-.4-.48h-.72a.48.48,0,0,0-.42.39c0,.19,0,.42,0,.63v1.17h-2.18Z"/><rect class="cls-13" x="492.37" y="205.79" width="55.84" height="11.41"/><rect class="cls-13" x="492.37" y="222.34" width="55.84" height="11.41"/><path class="cls-17" d="M534.79,256.42h-28a5.71,5.71,0,0,1-5.7-5.71h0a5.7,5.7,0,0,1,5.7-5.7h28a5.7,5.7,0,0,1,5.7,5.7h0A5.71,5.71,0,0,1,534.79,256.42Z"/><path class="cls-7" d="M538.16,177c0,.29-7.84.52-17.52.52s-17.52-.23-17.52-.52,7.84-.51,17.52-.51S538.16,176.71,538.16,177Z"/><path class="cls-12" d="M502,109.69H494.8a5.31,5.31,0,0,0-2.16.23,3.41,3.41,0,0,0-1.71,1.52,3.93,3.93,0,0,0-.4,1.15,6.76,6.76,0,0,0,0,1.28v1.32a6.4,6.4,0,0,1-.09,1.37,3.65,3.65,0,0,1-1.6,2.31,3.31,3.31,0,0,1-1.41.5c-.51.05-1,0-1.52,0h-26a3.71,3.71,0,0,1-1-.1A3.42,3.42,0,0,1,457,118.2a3.67,3.67,0,0,1-.88-2,9.75,9.75,0,0,1,0-1.08V114.1a5.58,5.58,0,0,0-.21-2.12,3.49,3.49,0,0,0-1.28-1.68,3.33,3.33,0,0,0-2.07-.57H436a11,11,0,0,0-8.84,3.92,11.15,11.15,0,0,0-2.28,4.59c-.11.43-.14.86-.22,1.3s0,.73-.05,1.1V297.75a11.43,11.43,0,0,0,.45,3.49,11,11,0,0,0,4.26,5.88,11.37,11.37,0,0,0,7,1.94h22.26l28.92,0h14.09c2.32,0,4.65,0,6.94,0a10.83,10.83,0,0,0,6.21-2.41,11.57,11.57,0,0,0,2.25-2.49,11.36,11.36,0,0,0,1.38-3,11.49,11.49,0,0,0,.41-3.3v-3.35q0-6.69,0-13.23c0-34.85,0-66.23.05-92.59s0-47.68.06-62.42c0-1.85,0-3.58,0-5.22a11.36,11.36,0,0,0-.81-4.46,10.84,10.84,0,0,0-2.08-3.28,10.16,10.16,0,0,0-2.5-2,10.26,10.26,0,0,0-4.12-1.46,8.49,8.49,0,0,0-1.12-.1l-.38,0h-1.5Z"/><path class="cls-7" d="M508,109.81h.38a10.1,10.1,0,0,1,1.12.09,10.64,10.64,0,0,1,4.15,1.43,10.75,10.75,0,0,1,2.53,2,11.06,11.06,0,0,1,2.1,3.3,11.39,11.39,0,0,1,.83,4.5c0,1.63,0,3.37,0,5.21,0,14.74,0,36.07,0,62.43s0,57.74,0,92.58V298a11.67,11.67,0,0,1-.42,3.37,11,11,0,0,1-1.42,3.12,11.89,11.89,0,0,1-2.3,2.56,11.25,11.25,0,0,1-6.39,2.48c-2.32.07-4.62,0-6.95,0H436.39a11.8,11.8,0,0,1-7.21-2,11.38,11.38,0,0,1-4.39-6.06,12.21,12.21,0,0,1-.46-3.75V294q0-7.44,0-14.79V250.28c0-19,0-37.26,0-54.68s0-34,0-49.48c0-7.75,0-15.24,0-22.43V121c0-.45,0-.9.06-1.34s.12-.89.23-1.32a11.32,11.32,0,0,1,2.33-4.69,11.5,11.5,0,0,1,4.1-3.07,11.68,11.68,0,0,1,4.92-.93H452.6a3.53,3.53,0,0,1,2.18.61,3.72,3.72,0,0,1,1.35,1.78,5.8,5.8,0,0,1,.22,2.18v1.08a7.26,7.26,0,0,0,0,1,3.62,3.62,0,0,0,.82,1.86,3.33,3.33,0,0,0,1.69,1,3.37,3.37,0,0,0,1,.1h5l14.59,0h6.44c.5,0,1,0,1.5,0a3.25,3.25,0,0,0,1.36-.47,3.55,3.55,0,0,0,1.55-2.23,6.81,6.81,0,0,0,.09-1.35V114a6.93,6.93,0,0,1,.06-1.29,3.68,3.68,0,0,1,.41-1.18,3.55,3.55,0,0,1,1.77-1.57,5.58,5.58,0,0,1,2.2-.23l7.17,0,4.42,0H508l-1.5,0H494.88a5.5,5.5,0,0,0-2.16.24,3.32,3.32,0,0,0-1.71,1.52,3.49,3.49,0,0,0-.4,1.15,7.56,7.56,0,0,0-.06,1.27v1.32a6.34,6.34,0,0,1-.08,1.37,3.64,3.64,0,0,1-1.6,2.32,3.35,3.35,0,0,1-1.41.49c-.51,0-1,0-1.52,0h-26a4.09,4.09,0,0,1-1-.11,3.43,3.43,0,0,1-1.79-1.1,3.69,3.69,0,0,1-.87-2,7.92,7.92,0,0,1,0-1.08v-1.08a5.79,5.79,0,0,0-.21-2.12,3.51,3.51,0,0,0-1.29-1.68,3.37,3.37,0,0,0-2.06-.57H436a11.36,11.36,0,0,0-4.83.92,11.23,11.23,0,0,0-4,3,11,11,0,0,0-2.28,4.59c-.11.42-.14.86-.22,1.29s-.05.87-.06,1.32v2.68c0,7.19,0,14.68,0,22.43V279.21q0,7.35,0,14.79v3.73a11.86,11.86,0,0,0,.45,3.66,11,11,0,0,0,4.27,5.89,11.36,11.36,0,0,0,7,1.93h22.26l28.92,0h14.09c2.32,0,4.65,0,6.93,0a10.9,10.9,0,0,0,6.22-2.41,11.83,11.83,0,0,0,2.25-2.49,11,11,0,0,0,1.37-3,11.79,11.79,0,0,0,.42-3.29V281.41c0-34.84,0-66.23.06-92.58s0-47.69.06-62.43c0-1.84,0-3.58,0-5.21a11.55,11.55,0,0,0-.81-4.46,11.09,11.09,0,0,0-2.08-3.29,10.84,10.84,0,0,0-2.5-2,11,11,0,0,0-5.24-1.56Z"/><path class="cls-7" d="M510.11,127.73s-1.83.1-4.08.12-4.09,0-4.09,0,1.83-.1,4.09-.12S510.11,127.69,510.11,127.73Z"/><path class="cls-7" d="M510.13,129.82c0,.05-1.83.1-4.09.12s-4.08,0-4.08-.05,1.83-.1,4.08-.12S510.13,129.78,510.13,129.82Z"/><path class="cls-7" d="M510.15,131.91c0,.05-1.83.1-4.09.12S502,132,502,132s1.82-.1,4.08-.12S510.14,131.87,510.15,131.91Z"/><path class="cls-7" d="M435.81,134.3H436l.47,0,1.75,0-.05.05c0-.39,0-.81,0-1.26,0-.24,0-.46,0-.73a.68.68,0,0,1,.59-.54,7.66,7.66,0,0,1,.83,0,.66.66,0,0,1,.57.67c0,.59,0,1.2,0,1.84l-.08-.08,2.2,0-.08.09c0-.89,0-1.81,0-2.75v-.69a.69.69,0,0,0-.31-.52l-1-.95-.93-.92-.45-.44a1.08,1.08,0,0,0-.45-.34.58.58,0,0,0-.51.1c-.13.11-.28.27-.41.4s-.53.54-.79.79c-.5.52-1,1-1.39,1.44a1.51,1.51,0,0,0-.11.82V132c0,.48,0,.9,0,1.25s0,.59,0,.8a1.36,1.36,0,0,1,0,.29s0-.09,0-.27,0-.47,0-.78,0-.78,0-1.26c0-.25,0-.51,0-.79s0-.29,0-.43a.84.84,0,0,1,.13-.46c.4-.5.89-.94,1.39-1.48l.78-.8c.14-.14.26-.27.43-.42a.76.76,0,0,1,.64-.12,1.18,1.18,0,0,1,.52.37l.46.45.93.91,1,.94a3.32,3.32,0,0,1,.25.27.7.7,0,0,1,.11.37c0,.23,0,.47,0,.7,0,.94,0,1.86,0,2.75v.08H440v-.08c0-.63,0-1.25,0-1.84a.51.51,0,0,0-.44-.53c-.25,0-.55,0-.8,0a.53.53,0,0,0-.47.43c0,.22,0,.48,0,.7v1.32h-2.44Z"/><circle class="cls-17" cx="473.01" cy="175.54" r="18.48" transform="translate(227.16 616.11) rotate(-81.2)"/><path class="cls-19" d="M479.35,183H466.67v-1.56a6.34,6.34,0,0,1,6.34-6.34h0a6.34,6.34,0,0,1,6.34,6.34Z"/><circle class="cls-19" cx="473.01" cy="171.81" r="3.73"/><rect class="cls-13" x="440.08" y="215.17" width="62.28" height="12.72"/><rect class="cls-13" x="440.08" y="233.63" width="62.28" height="12.72"/><path class="cls-17" d="M487.39,271.64H456.13a6.36,6.36,0,0,1-6.36-6.37h0a6.36,6.36,0,0,1,6.36-6.36h31.26a6.36,6.36,0,0,1,6.36,6.36h0A6.37,6.37,0,0,1,487.39,271.64Z"/><path class="cls-7" d="M491.28,207.51c0,.31-8.75.57-19.54.57s-19.55-.26-19.55-.57,8.75-.58,19.55-.58S491.28,207.19,491.28,207.51Z"/><path class="cls-2" d="M448.68,224.34h-2.75a.49.49,0,0,1-.49-.49h0a1.83,1.83,0,0,1,1.83-1.84h.06a1.84,1.84,0,0,1,1.84,1.84h0A.49.49,0,0,1,448.68,224.34Z"/><path class="cls-2" d="M448.4,221.05a1.1,1.1,0,1,1-1.1-1.1A1.09,1.09,0,0,1,448.4,221.05Z"/><rect class="cls-2" x="445.66" y="240.2" width="3.28" height="2.32"/><path class="cls-2" d="M449.31,240.69h-1.1V240a.93.93,0,0,0-1.86,0v.72h-1.1V240a2,2,0,0,1,4.06,0Z"/><path class="cls-12" d="M436,70.65l-10.69,0a8.06,8.06,0,0,0-3.22.35,5,5,0,0,0-2.54,2.26A5.27,5.27,0,0,0,419,75a11.88,11.88,0,0,0-.08,1.9v2a8.74,8.74,0,0,1-.13,2,5.4,5.4,0,0,1-2.38,3.45,5.18,5.18,0,0,1-2.1.74c-.76.06-1.5,0-2.27,0H373.24a5.48,5.48,0,0,1-1.55-.15A5.13,5.13,0,0,1,369,83.33a5.49,5.49,0,0,1-1.3-2.91,10.75,10.75,0,0,1-.06-1.6V77.21a8.53,8.53,0,0,0-.32-3.15,5.14,5.14,0,0,0-1.91-2.5,5,5,0,0,0-3.08-.85H337.7a16.36,16.36,0,0,0-13.17,5.84,16.56,16.56,0,0,0-3.39,6.84c-.16.62-.21,1.28-.33,1.92s-.05,1.09-.07,1.64v263.6a17.13,17.13,0,0,0,.66,5.19,16.37,16.37,0,0,0,6.35,8.76,16.94,16.94,0,0,0,10.47,2.88h33.15l43.07,0h21c3.45,0,6.92.06,10.33,0a16.21,16.21,0,0,0,9.26-3.59,17.53,17.53,0,0,0,3.34-3.7,16.18,16.18,0,0,0,2.05-4.52,17.25,17.25,0,0,0,.62-4.9v-5q0-10,0-19.68c0-51.87,0-98.57.08-137.8s.07-71,.09-92.91c0-2.74,0-5.33,0-7.77A17,17,0,0,0,460,80.9a16.32,16.32,0,0,0-3.1-4.89,16.47,16.47,0,0,0-9.86-5.21,13.39,13.39,0,0,0-1.67-.15l-.56,0-2.24,0Z"/><path class="cls-7" d="M445,70.71l.57,0a11,11,0,0,1,1.66.13A15.46,15.46,0,0,1,453.39,73a15.91,15.91,0,0,1,3.75,3,16.36,16.36,0,0,1,3.13,4.91,17.16,17.16,0,0,1,1.23,6.67c0,2.43,0,5,0,7.75,0,21.9,0,53.59.06,92.74s0,85.78,0,137.54v24.64a17.71,17.71,0,0,1-.63,5,16.54,16.54,0,0,1-2.1,4.63,17.67,17.67,0,0,1-3.42,3.8,16.64,16.64,0,0,1-9.5,3.69c-3.44.1-6.87,0-10.33.05H414.68l-43,0H338.65a17.41,17.41,0,0,1-10.71-3,16.8,16.8,0,0,1-6.51-9,18.09,18.09,0,0,1-.69-5.56v-5.54q0-11.07,0-22,0-21.83,0-43c0-28.18,0-55.35,0-81.24s0-50.49,0-73.51q0-17.26,0-33.31c0-1.34,0-2.67,0-4,0-.66,0-1.33.09-2s.17-1.31.34-2a16.81,16.81,0,0,1,3.45-7,16.68,16.68,0,0,1,13.41-5.94l14.32,0h10.27a5.26,5.26,0,0,1,3.24.91,5.42,5.42,0,0,1,2,2.64,8.74,8.74,0,0,1,.33,3.24v1.6a11.61,11.61,0,0,0,.05,1.57,5.16,5.16,0,0,0,1.23,2.75,4.86,4.86,0,0,0,2.51,1.56,5.64,5.64,0,0,0,1.48.15H381l21.67,0h9.56c.75,0,1.52,0,2.24,0a5,5,0,0,0,2-.71,5.17,5.17,0,0,0,2.3-3.31,8.38,8.38,0,0,0,.13-2c0-.66,0-1.32,0-2a12.16,12.16,0,0,1,.08-1.91,5.5,5.5,0,0,1,.62-1.76A5.19,5.19,0,0,1,422.28,71a8.18,8.18,0,0,1,3.26-.35l10.66,0,6.56,0,2.23,0-2.23,0-6.56,0-10.66,0a8,8,0,0,0-3.21.35,5,5,0,0,0-2.54,2.25,5.4,5.4,0,0,0-.59,1.72,9.73,9.73,0,0,0-.08,1.88v2a8.74,8.74,0,0,1-.13,2,5.38,5.38,0,0,1-2.38,3.44,5.08,5.08,0,0,1-2.09.74c-.76.07-1.5,0-2.26,0H373.58a6.19,6.19,0,0,1-1.54-.15,5.15,5.15,0,0,1-2.66-1.65,5.5,5.5,0,0,1-1.3-2.89A12.43,12.43,0,0,1,368,78.9V77.3a8.75,8.75,0,0,0-.32-3.15,5.16,5.16,0,0,0-1.91-2.49,5,5,0,0,0-3.07-.85H338.14A16.31,16.31,0,0,0,325,76.64a16.4,16.4,0,0,0-3.38,6.82c-.17.63-.22,1.28-.33,1.92s-.08,1.3-.09,2v4q0,16,0,33.31c0,23,0,47.62,0,73.51s0,53.06,0,81.24v64.95c0,1.84,0,3.69,0,5.54a18.06,18.06,0,0,0,.67,5.43,16.36,16.36,0,0,0,6.34,8.75,16.86,16.86,0,0,0,10.44,2.87h33.07l43,0,20.93,0c3.45,0,6.91.05,10.31-.05a16.17,16.17,0,0,0,9.24-3.58,17.48,17.48,0,0,0,3.33-3.7,16,16,0,0,0,2-4.51,16.79,16.79,0,0,0,.62-4.89v-5q0-9.93,0-19.65c0-51.76.06-98.38.08-137.54s.07-70.84.09-92.74c0-2.73,0-5.32,0-7.75a16.9,16.9,0,0,0-1.2-6.62,16.37,16.37,0,0,0-3.09-4.88,16.48,16.48,0,0,0-9.83-5.2,13.42,13.42,0,0,0-1.66-.15Z"/><path class="cls-7" d="M448.17,97.33c0,.07-2.71.15-6.06.18s-6.07,0-6.07-.08,2.71-.15,6.06-.18S448.17,97.26,448.17,97.33Z"/><path class="cls-7" d="M448.2,100.44c0,.07-2.72.15-6.07.17s-6.07,0-6.07-.07,2.72-.15,6.07-.18S448.2,100.37,448.2,100.44Z"/><path class="cls-7" d="M448.22,103.54c0,.07-2.71.15-6.06.18s-6.07,0-6.07-.08,2.71-.15,6.06-.18S448.22,103.47,448.22,103.54Z"/><path class="cls-7" d="M337.8,107.08h.25l.7,0,2.59-.07-.07.08c0-.58,0-1.21,0-1.88,0-.35,0-.68,0-1.08a1,1,0,0,1,.87-.8c.42,0,.79,0,1.24,0a1,1,0,0,1,.85,1c0,.88,0,1.79,0,2.74l-.12-.12,3.27,0-.12.13c0-1.32,0-2.68,0-4.08,0-.34,0-.69,0-1a1.08,1.08,0,0,0-.46-.78l-1.43-1.4-1.38-1.36c-.22-.23-.44-.45-.67-.66a1.45,1.45,0,0,0-.67-.51.9.9,0,0,0-.75.14c-.2.17-.41.41-.61.6l-1.17,1.19c-.74.76-1.51,1.46-2.07,2.12a2.42,2.42,0,0,0-.16,1.22v1.16c0,.7,0,1.32,0,1.85s0,.87,0,1.19,0,.42,0,.42a1.7,1.7,0,0,1,0-.39q0-.47,0-1.17c0-.53,0-1.15,0-1.87,0-.37,0-.76,0-1.17,0-.21,0-.42,0-.64a1.21,1.21,0,0,1,.18-.69c.6-.74,1.32-1.39,2.07-2.18l1.16-1.2c.21-.2.38-.41.63-.62a1.14,1.14,0,0,1,1-.19,1.75,1.75,0,0,1,.78.56l.67.66c.46.44.92.9,1.39,1.36l1.43,1.4a2.88,2.88,0,0,1,.36.4,1.06,1.06,0,0,1,.18.55v1c0,1.4,0,2.76,0,4.07v.13h-.13l-3.27,0H344V107c0-1,0-1.86,0-2.74a.8.8,0,0,0-.66-.79c-.38,0-.82,0-1.19,0a.79.79,0,0,0-.7.63c0,.33,0,.71,0,1.05v1.95h-.07l-2.63,0H338C337.87,107.09,337.79,107.09,337.8,107.08Z"/><rect class="cls-3" x="332.92" y="123.5" width="114.62" height="20.85" rx="8.79"/><path class="cls-7" d="M438.74,144.34l.66-.05a8.72,8.72,0,0,0,4.65-1.82,8.67,8.67,0,0,0,2.61-3.31,8.16,8.16,0,0,0,.69-2.43,21.46,21.46,0,0,0,.08-2.81,18.5,18.5,0,0,0-.13-3,8.77,8.77,0,0,0-1.14-3.06,8.68,8.68,0,0,0-5.78-4,23.72,23.72,0,0,0-4-.15h-4.23l-90.44.06a8.59,8.59,0,0,0-8.55,7.86c-.08,1,0,2.14,0,3.2a10,10,0,0,0,.32,3.1,8.71,8.71,0,0,0,3.56,4.86,8.29,8.29,0,0,0,2.77,1.18,13.2,13.2,0,0,0,3,.23h17.82l40.66,0,27.41.07,7.46,0,1.93,0,.66,0s-.22,0-.66,0l-1.93,0-7.46,0-27.41.07-40.66,0H342.8a13.12,13.12,0,0,1-3.11-.23,8.63,8.63,0,0,1-2.91-1.24,9,9,0,0,1-3.73-5.1,10.27,10.27,0,0,1-.34-3.21c0-1.08,0-2.12,0-3.23a9,9,0,0,1,9-8.26l90.44.06h4.23a24.6,24.6,0,0,1,4,.17,8.93,8.93,0,0,1,5.93,4.17,8.74,8.74,0,0,1,1.16,3.14,19.18,19.18,0,0,1,.12,3.09,23.72,23.72,0,0,1-.1,2.83,8.73,8.73,0,0,1-.72,2.48,8.86,8.86,0,0,1-2.69,3.34,9,9,0,0,1-2.81,1.43,8.8,8.8,0,0,1-1.91.33C439,144.35,438.74,144.34,438.74,144.34Z"/><path class="cls-7" d="M440.51,133.42s0-.33-.2-.9a3.78,3.78,0,0,0-1.38-2,3.52,3.52,0,1,0,1.38,3.78c.17-.56.16-.9.2-.9s0,.09,0,.25a2.72,2.72,0,0,1-.06.69,3.73,3.73,0,0,1-1.37,2.18,3.87,3.87,0,0,1-3.73.61,4,4,0,0,1,0-7.46,3.92,3.92,0,0,1,3.73.61,3.76,3.76,0,0,1,1.37,2.18,2.79,2.79,0,0,1,.06.7Q440.54,133.42,440.51,133.42Z"/><path class="cls-7" d="M442.59,139.93a7.62,7.62,0,0,1-1.85-1.68,7.36,7.36,0,0,1-1.53-2,7.6,7.6,0,0,1,1.85,1.69A7.41,7.41,0,0,1,442.59,139.93Z"/><path class="cls-2" d="M348.39,131.83h-2v-.53h4.7v.53h-2v5.29h-.62Z"/><path class="cls-2" d="M355.26,135.12H351.6a1.62,1.62,0,0,0,1.72,1.52,1.73,1.73,0,0,0,1.34-.57l.33.38a2.31,2.31,0,0,1-4-1.52,2.1,2.1,0,0,1,2.14-2.21,2.08,2.08,0,0,1,2.12,2.21S355.26,135.05,355.26,135.12Zm-3.66-.44h3.1a1.55,1.55,0,0,0-3.1,0Z"/><path class="cls-2" d="M359.13,137.12l-1.39-1.83-1.39,1.83h-.67l1.73-2.24-1.65-2.13h.67l1.31,1.71,1.32-1.71h.64l-1.64,2.13,1.74,2.24Z"/><path class="cls-2" d="M363.09,136.85a1.43,1.43,0,0,1-.93.31,1.16,1.16,0,0,1-1.28-1.27v-2.64h-.78v-.5h.78v-1h.59v1h1.33v.5h-1.33v2.61a.71.71,0,0,0,.76.8,1,1,0,0,0,.65-.23Z"/><path class="cls-17" d="M411.1,164.2c0,.12-8.39.21-18.73.21s-18.74-.09-18.74-.21S382,164,392.37,164,411.1,164.08,411.1,164.2Z"/><path class="cls-7" d="M441,171.89c0,.12-15.08.21-33.67.21s-33.68-.09-33.68-.21,15.08-.21,33.68-.21S441,171.77,441,171.89Z"/><path class="cls-7" d="M440.19,177.38c0,.12-14.9.21-33.28.21s-33.28-.09-33.28-.21,14.9-.21,33.28-.21S440.19,177.26,440.19,177.38Z"/><path class="cls-7" d="M412.93,182.62c0,.12-8.8.21-19.65.21s-19.65-.09-19.65-.21,8.8-.21,19.65-.21S412.93,182.5,412.93,182.62Z"/><path class="cls-17" d="M411.1,206c0,.11-8.39.21-18.73.21s-18.74-.1-18.74-.21,8.39-.22,18.74-.22S411.1,205.88,411.1,206Z"/><path class="cls-7" d="M441,213.69c0,.11-15.08.21-33.67.21s-33.68-.1-33.68-.21,15.08-.22,33.68-.22S441,213.57,441,213.69Z"/><path class="cls-7" d="M440.19,219.18c0,.12-14.9.21-33.28.21s-33.28-.09-33.28-.21,14.9-.21,33.28-.21S440.19,219.06,440.19,219.18Z"/><path class="cls-7" d="M412.93,224.42c0,.12-8.8.21-19.65.21s-19.65-.09-19.65-.21,8.8-.22,19.65-.22S412.93,224.3,412.93,224.42Z"/><path class="cls-17" d="M411.1,247.79c0,.12-8.39.22-18.73.22s-18.74-.1-18.74-.22,8.39-.21,18.74-.21S411.1,247.68,411.1,247.79Z"/><path class="cls-7" d="M441,255.48c0,.12-15.08.22-33.67.22s-33.68-.1-33.68-.22,15.08-.21,33.68-.21S441,255.37,441,255.48Z"/><path class="cls-7" d="M440.19,261c0,.11-14.9.21-33.28.21s-33.28-.1-33.28-.21,14.9-.22,33.28-.22S440.19,260.86,440.19,261Z"/><path class="cls-7" d="M412.93,266.22c0,.11-8.8.21-19.65.21s-19.65-.1-19.65-.21,8.8-.22,19.65-.22S412.93,266.1,412.93,266.22Z"/><path class="cls-17" d="M411.1,289.59c0,.12-8.39.22-18.73.22s-18.74-.1-18.74-.22,8.39-.21,18.74-.21S411.1,289.47,411.1,289.59Z"/><path class="cls-7" d="M441,297.28c0,.12-15.08.22-33.67.22s-33.68-.1-33.68-.22,15.08-.21,33.68-.21S441,297.16,441,297.28Z"/><path class="cls-7" d="M440.19,302.77c0,.12-14.9.22-33.28.22s-33.28-.1-33.28-.22,14.9-.21,33.28-.21S440.19,302.66,440.19,302.77Z"/><path class="cls-7" d="M412.93,308c0,.12-8.8.22-19.65.22s-19.65-.1-19.65-.22,8.8-.21,19.65-.21S412.93,307.9,412.93,308Z"/><path class="cls-17" d="M411.1,331.1c0,.11-8.39.21-18.73.21s-18.74-.1-18.74-.21,8.39-.22,18.74-.22S411.1,331,411.1,331.1Z"/><path class="cls-7" d="M441,338.79c0,.11-15.08.21-33.67.21s-33.68-.1-33.68-.21,15.08-.22,33.68-.22S441,338.67,441,338.79Z"/><path class="cls-7" d="M440.19,344.28c0,.12-14.9.21-33.28.21s-33.28-.09-33.28-.21,14.9-.21,33.28-.21S440.19,344.16,440.19,344.28Z"/><path class="cls-7" d="M412.93,349.52c0,.12-8.8.21-19.65.21s-19.65-.09-19.65-.21,8.8-.21,19.65-.21S412.93,349.4,412.93,349.52Z"/><rect class="cls-17" x="337.23" y="160.18" width="22.94" height="30.52" transform="translate(171.31 523.16) rotate(-89.68)"/><polygon class="cls-17" points="333.37 186.83 344.11 172.63 350.67 181.59 355.17 176.84 363.9 187 333.37 186.83"/><path class="cls-17" d="M353.53,170.94a2.41,2.41,0,1,1-2.39-2.42A2.42,2.42,0,0,1,353.53,170.94Z"/><g class="cls-18"><polygon points="333.37 186.83 344.11 172.63 350.67 181.59 355.17 176.84 363.9 187 333.37 186.83"/></g><g class="cls-18"><path d="M353.53,170.94a2.41,2.41,0,1,1-2.39-2.42A2.42,2.42,0,0,1,353.53,170.94Z"/></g><rect class="cls-17" x="337.23" y="201.45" width="22.94" height="30.52" transform="translate(130.05 564.2) rotate(-89.68)"/><polygon class="cls-17" points="333.37 228.1 344.11 213.9 350.67 222.85 355.17 218.11 363.9 228.27 333.37 228.1"/><path class="cls-17" d="M353.53,212.2a2.41,2.41,0,1,1-2.39-2.42A2.4,2.4,0,0,1,353.53,212.2Z"/><g class="cls-18"><polygon points="333.37 228.1 344.11 213.9 350.67 222.85 355.17 218.11 363.9 228.27 333.37 228.1"/></g><g class="cls-18"><path d="M353.53,212.2a2.41,2.41,0,1,1-2.39-2.42A2.4,2.4,0,0,1,353.53,212.2Z"/></g><rect class="cls-17" x="337.23" y="242.71" width="22.94" height="30.52" transform="translate(88.78 605.23) rotate(-89.68)"/><polygon class="cls-17" points="333.37 269.36 344.11 255.16 350.67 264.12 355.17 259.38 363.9 269.53 333.37 269.36"/><path class="cls-17" d="M353.53,253.47a2.41,2.41,0,1,1-2.39-2.42A2.42,2.42,0,0,1,353.53,253.47Z"/><g class="cls-18"><polygon points="333.37 269.36 344.11 255.16 350.67 264.12 355.17 259.38 363.9 269.53 333.37 269.36"/></g><g class="cls-18"><path d="M353.53,253.47a2.41,2.41,0,1,1-2.39-2.42A2.42,2.42,0,0,1,353.53,253.47Z"/></g><rect class="cls-17" x="337.23" y="283.98" width="22.94" height="30.52" transform="translate(47.52 646.27) rotate(-89.68)"/><polygon class="cls-17" points="333.37 310.63 344.11 296.43 350.67 305.39 355.17 300.64 363.9 310.8 333.37 310.63"/><path class="cls-17" d="M353.53,294.73a2.41,2.41,0,1,1-2.39-2.41A2.4,2.4,0,0,1,353.53,294.73Z"/><g class="cls-18"><polygon points="333.37 310.63 344.11 296.43 350.67 305.39 355.17 300.64 363.9 310.8 333.37 310.63"/></g><g class="cls-18"><path d="M353.53,294.73a2.41,2.41,0,1,1-2.39-2.41A2.4,2.4,0,0,1,353.53,294.73Z"/></g><rect class="cls-17" x="337.23" y="325.05" width="22.94" height="30.52" transform="translate(6.45 687.1) rotate(-89.68)"/><polygon class="cls-17" points="333.37 351.69 344.11 337.49 350.67 346.45 355.17 341.71 363.9 351.86 333.37 351.69"/><path class="cls-17" d="M353.53,335.8a2.41,2.41,0,1,1-2.39-2.42A2.4,2.4,0,0,1,353.53,335.8Z"/><g class="cls-18"><polygon points="333.37 351.69 344.11 337.49 350.67 346.45 355.17 341.71 363.9 351.86 333.37 351.69"/></g><g class="cls-18"><path d="M353.53,335.8a2.41,2.41,0,1,1-2.39-2.42A2.4,2.4,0,0,1,353.53,335.8Z"/></g><circle class="cls-17" cx="562.93" cy="124.58" r="10.88" transform="translate(312.92 644.1) rotate(-76.78)"/><path class="cls-19" d="M562.27,128.12A.47.47,0,0,1,562,128l-3.67-3a.5.5,0,0,1,.64-.78l3.28,2.7,4.64-5.69a.52.52,0,0,1,.71-.07.5.5,0,0,1,.07.7l-5,6.08a.45.45,0,0,1-.34.18Z"/><circle class="cls-17" cx="515.98" cy="109.66" r="14.92"/><path class="cls-19" d="M515.08,114.83a1,1,0,0,1-.63-.23l-5-4.14a1,1,0,0,1-.14-1.4,1,1,0,0,1,1.41-.14l4.24,3.5,6.18-7.56a1,1,0,0,1,1.4-.14,1,1,0,0,1,.14,1.41l-6.8,8.33a1,1,0,0,1-.68.36Z"/><path class="cls-7" d="M452.7,312.26a31.09,31.09,0,0,1-22-36c-.28.77-.55,1.54-.78,2.35a31.09,31.09,0,0,0,59.82,17c.23-.8.41-1.61.57-2.41A31.08,31.08,0,0,1,452.7,312.26Z"/><path class="cls-16" d="M468,257.3a31.1,31.1,0,0,1,22,36c.28-.77.55-1.54.77-2.35A31.09,31.09,0,0,0,431,274c-.23.8-.41,1.61-.57,2.41A31.08,31.08,0,0,1,468,257.3Z"/><path class="cls-7" d="M491.14,290.75s0-.17.09-.5l.3-1.44c.07-.32.15-.68.24-1.07s.1-.83.16-1.3a23.41,23.41,0,0,0,.25-3.26,29.43,29.43,0,0,0-1.07-8.87A31,31,0,0,0,475,254.63a30.18,30.18,0,0,0-3.64-1.5c-.63-.2-1.26-.44-1.91-.62l-2-.46c-.34-.07-.67-.16-1-.21l-1-.13c-.69-.08-1.38-.19-2.09-.24a32.21,32.21,0,0,0-4.28,0,31.1,31.1,0,0,0-4.36.61c-.72.16-1.43.38-2.16.57a16.87,16.87,0,0,0-2.14.73,36.32,36.32,0,0,0-4.18,1.9,35.65,35.65,0,0,0-3.88,2.62,29.8,29.8,0,0,0-6.56,7,30.68,30.68,0,0,0-5.33,18.72,29.8,29.8,0,0,0,1.92,9.38,33.55,33.55,0,0,0,1.93,4.27,34.63,34.63,0,0,0,2.55,3.81,15.22,15.22,0,0,0,1.44,1.75c.52.54,1,1.11,1.53,1.63a34.24,34.24,0,0,0,3.39,2.8,32.42,32.42,0,0,0,3.63,2.29c.62.32,1.27.59,1.9.89l.95.43c.32.14.65.23,1,.35l1.94.66c.64.2,1.31.32,2,.48a28,28,0,0,0,3.88.63,31.11,31.11,0,0,0,24.05-8.26,29.71,29.71,0,0,0,5.57-7,22.61,22.61,0,0,0,1.5-2.91c.2-.43.4-.82.55-1.19l.36-1c.22-.59.38-1.06.5-1.39s.19-.47.19-.47,0,.17-.14.49-.26.8-.45,1.41c-.1.31-.21.66-.34,1s-.33.77-.52,1.2a22.38,22.38,0,0,1-1.47,2.95,29.82,29.82,0,0,1-5.55,7.09,31.23,31.23,0,0,1-24.29,8.48,28.42,28.42,0,0,1-3.93-.63c-.66-.16-1.33-.28-2-.48l-2-.66c-.33-.12-.67-.21-1-.35l-1-.44c-.64-.3-1.3-.57-1.93-.9a31.91,31.91,0,0,1-3.69-2.31,32.9,32.9,0,0,1-3.45-2.84c-.54-.53-1-1.1-1.56-1.65a16.53,16.53,0,0,1-1.46-1.77,34.53,34.53,0,0,1-2.6-3.88,36.06,36.06,0,0,1-2-4.33,30.19,30.19,0,0,1-1.95-9.54,31.06,31.06,0,0,1,5.41-19,30.24,30.24,0,0,1,6.68-7.08,35.82,35.82,0,0,1,4-2.65,37.39,37.39,0,0,1,4.24-1.93,17.43,17.43,0,0,1,2.18-.73c.74-.19,1.46-.42,2.2-.58A30.65,30.65,0,0,1,459,251a31.75,31.75,0,0,1,4.36,0c.71.05,1.41.17,2.12.25l1,.13c.35.05.69.15,1,.23l2,.47c.66.17,1.3.43,1.94.63a29.37,29.37,0,0,1,3.68,1.54,31.25,31.25,0,0,1,16.19,20,29.29,29.29,0,0,1,1,8.95,21.49,21.49,0,0,1-.3,3.27c-.07.47-.11.91-.19,1.31s-.18.74-.25,1.06q-.24.92-.36,1.44A4.92,4.92,0,0,1,491.14,290.75Z"/><path class="cls-7" d="M479.32,308.48c.4.27,29.84,27.42,40.68,37.58a4.71,4.71,0,0,0,6.51-.06h0a4.71,4.71,0,0,0-.06-6.84L486,301.83Z"/><path class="cls-20" d="M328.06,210l.6-2.36a9,9,0,0,0-.1-4.71l-2.47-8.24a3.1,3.1,0,0,0-1.42-1.79c-1.88-1.08-5.59-3.16-5.91-2.9-2.27,1.89,2.81,5.23,2.81,5.23s2,2.18.41,3.8c-1.77,1.84-5.08-2.2-5.08-2.2s.17-.42.33-.34a6.58,6.58,0,0,0,3.19,1.37v-2.68l-3-1.88a3,3,0,0,0-2.23-.4l-1,.23a2.62,2.62,0,0,0-1.64,1.11l-1,1.48-.42.57a1.91,1.91,0,0,0-.2,1.9l.48,1.05-.65.92a2.83,2.83,0,0,0-.34,2.64l5.07,7L323,222l8.12-8.72Z"/><path class="cls-21" d="M312.34,202.71a1.57,1.57,0,0,1-.27-.51,1.39,1.39,0,0,1,.24-1.29l0,0,0-.06-.08-.18a12.13,12.13,0,0,0-1.09-2,13.28,13.28,0,0,0,.91,2.07l.09.18v-.1a1.45,1.45,0,0,0-.22,1.46C312.09,202.61,312.33,202.74,312.34,202.71Z"/><path class="cls-21" d="M313,193.62a2.3,2.3,0,0,0-.16,1.41,10.82,10.82,0,0,0,1.37,3.22,4.13,4.13,0,0,1,.47.94,2.47,2.47,0,0,1,.06,1,2.47,2.47,0,0,0,.18,1.5,2.86,2.86,0,0,0,1,1s-.67-.07-1.18-.92a2.45,2.45,0,0,1-.27-1.62,2.66,2.66,0,0,0-.07-.89,4.25,4.25,0,0,0-.45-.87,9.48,9.48,0,0,1-1.32-3.35C312.45,194.08,312.94,193.57,313,193.62Z"/><path class="cls-21" d="M317,196.66a5.52,5.52,0,0,0-.38-1.12c-.31-.57-.64-1-.57-1.08s.51.3.85.94S317.06,196.7,317,196.66Z"/><polygon class="cls-16" points="330.84 251.86 333.93 255.73 349.99 236.44 328.96 208.78 318.57 216.94 330.84 251.86"/><polygon class="cls-17" points="402.28 438.5 403.61 469.84 420.54 469.46 419.27 438.06 402.28 438.5"/><path class="cls-7" d="M411.92,468.47c.15,0-.12-6.87-.58-15.33s-1-15.31-1.1-15.3.12,6.87.59,15.33S411.78,468.48,411.92,468.47Z"/><polygon class="cls-7" points="403.52 467.68 420.45 467.25 420.54 469.46 403.61 469.84 403.52 467.68"/><path class="cls-7" d="M420.13,459.43s-.13-.27-.46-.67a11.71,11.71,0,0,0-1.58-1.54,12,12,0,0,0-2.82-1.71,8.82,8.82,0,0,0-4-.72,8.92,8.92,0,0,0-6.46,3.17,7.29,7.29,0,0,0-1.15,1.89,2.19,2.19,0,0,0-.24.78,18.51,18.51,0,0,1,1.66-2.44,9,9,0,0,1,6.22-2.89,10.26,10.26,0,0,1,6.54,2.21C419.33,458.59,420.06,459.49,420.13,459.43Z"/><g class="cls-5"><polygon points="419.63 447 419.77 450.45 402.8 450.75 402.69 448.15 419.63 447"/></g><path class="cls-17" d="M362.44,440.38l.83,19.07s-19.11,7.25-19.3,10.79l37-.27L381,440.19Z"/><path class="cls-2" d="M374.47,457.83a1.52,1.52,0,0,1,1.06,1.73,1.46,1.46,0,0,1-1.7,1.08,1.6,1.6,0,0,1-1.12-1.84,1.51,1.51,0,0,1,1.9-.92"/><path class="cls-7" d="M381,470v-3l-35.85,1.36s-1.66.73-1.46,1.9Z"/><path class="cls-7" d="M362.93,459.58c0,.18.92.26,1.82.83s1.39,1.35,1.56,1.27-.12-1.12-1.22-1.8S362.89,459.41,362.93,459.58Z"/><path class="cls-7" d="M359,461.22c0,.18.75.49,1.38,1.25s.81,1.58,1,1.57.29-1-.51-2S359,461.05,359,461.22Z"/><path class="cls-7" d="M356.84,465.92c.17,0,.42-.87-.06-1.86s-1.33-1.39-1.4-1.24.45.68.83,1.51S356.66,465.91,356.84,465.92Z"/><path class="cls-7" d="M363.23,455.18c.08.16.91-.09,1.94,0s1.84.38,1.93.22-.68-.8-1.9-.86S363.14,455,363.23,455.18Z"/><path class="cls-7" d="M362.54,451.07a3.46,3.46,0,0,0,1.86,0,8.74,8.74,0,0,0,2-.62,9.14,9.14,0,0,0,1.06-.57,2.43,2.43,0,0,0,.57-.45.79.79,0,0,0,.07-1,1,1,0,0,0-.8-.41,2.36,2.36,0,0,0-.7.1,7.92,7.92,0,0,0-1.16.41,6.43,6.43,0,0,0-1.71,1.14c-.86.81-1.15,1.49-1.09,1.53s.5-.51,1.37-1.18a7.18,7.18,0,0,1,1.66-.95,6.35,6.35,0,0,1,1.07-.34c.4-.11.74-.11.84.06s0,.09,0,.21a2.09,2.09,0,0,1-.41.32,10.18,10.18,0,0,1-1,.58,10.79,10.79,0,0,1-1.8.7A13.09,13.09,0,0,0,362.54,451.07Z"/><path class="cls-7" d="M362.78,451.33a3,3,0,0,0,.47-1.81,5.77,5.77,0,0,0-.27-2,5.25,5.25,0,0,0-.48-1.13,1.55,1.55,0,0,0-1.2-.94.89.89,0,0,0-.78.53,2.43,2.43,0,0,0-.18.69,3.74,3.74,0,0,0,0,1.25,4.23,4.23,0,0,0,.81,1.93c.73,1,1.5,1.17,1.51,1.11s-.58-.44-1.14-1.36a4.21,4.21,0,0,1-.6-1.76,3.93,3.93,0,0,1,0-1.08c.06-.39.2-.71.35-.67s.5.29.66.6a7,7,0,0,1,.47,1,6.76,6.76,0,0,1,.38,1.86C362.87,450.62,362.68,451.3,362.78,451.33Z"/><g class="cls-5"><polygon points="381.02 451.63 380.98 455.86 363.12 455.86 363.12 452.02 381.02 451.63"/></g><path class="cls-20" d="M440.92,134.13l2.65,10.28s1,5.68-1.66,5.68c-2.34,0-2.56-3.05-2.56-3.05s1.16-6.22-1.9-5.88c-.43.05-1.55,4.34-2.09,6.52a3.23,3.23,0,0,0,.32,2.36l4.41,7.81a9.37,9.37,0,0,0,3.46,3.47l2.21,1.26.29,4.63,12.41.2-3.78-14.47-1.58-8.84a3,3,0,0,0-2.22-1.65l-1.17-.17-.44-1.12a2,2,0,0,0-1.58-1.22l-.72-.09-1-2.51c-.34-.83-2.77-6.3-3.67-6.29C442.28,131.05,440.26,131.6,440.92,134.13Z"/><path class="cls-21" d="M449.77,146.58a8.62,8.62,0,0,0-.23-1.13,4.32,4.32,0,0,0-1.69-2.15,12,12,0,0,1-.93-2.69,3.32,3.32,0,0,1-.13-1.17s.08.44.27,1.13a16,16,0,0,0,.95,2.6l.61.5a3.85,3.85,0,0,1,.5.58,4,4,0,0,1,.56,1.16,3.1,3.1,0,0,1,.12.85A.9.9,0,0,1,449.77,146.58Z"/><path class="cls-21" d="M451.66,145.54a1.72,1.72,0,0,0-.18-.57,1.47,1.47,0,0,0-1.15-.75h-.07l0-.06-.07-.19a13.35,13.35,0,0,1-.71-2.25,12.71,12.71,0,0,1,.91,2.18l.07.19-.09-.07a1.54,1.54,0,0,1,1.26.9C451.77,145.28,451.69,145.55,451.66,145.54Z"/><path class="cls-20" d="M378.61,195.27l22.5-.29-2.51-19.17s1.54-.33,1.64-8.66.49-22.51.49-22.51h0a29,29,0,0,0-29.12,3.66l-1.24.95Z"/><path class="cls-20" d="M373,159.51c-.14-.06-5.73-1.7-5.55,4s5.87,4.34,5.87,4.18S373,159.51,373,159.51Z"/><path class="cls-20" d="M399.76,158.32c.14-.06,5.22-1.43,5,4.27s-5.87,4.34-5.87,4.17S399.76,158.32,399.76,158.32Z"/><path class="cls-7" d="M371.14,158.87c.85,4.78.68,7.29,1.47,10.48,1.25,5.05,3.76,8.92,8.3,11.44s10.7,2.47,14.61-1c2.71-2.38,4.63-5.07,5-8.66s.81-9.93.83-13.54c.05-6.51.49-12.73.49-12.73l-18.6-3.37-10.58,6.29Z"/><path class="cls-7" d="M390.32,183.67a6.07,6.07,0,0,1-3.26.28,6,6,0,0,1-3.12-1c.06-.14,1.43.29,3.18.48S390.3,183.52,390.32,183.67Z"/><path class="cls-7" d="M372,167c-.55-4.89-.9-10.49-1.67-15.65-.28-1.94-1-4.73-.8-6.68a16.1,16.1,0,0,1,1.22-5.73,8.06,8.06,0,0,1,12.55-2.52,6,6,0,0,1,11,2.54,4.19,4.19,0,0,1,6.92,4.2,4.09,4.09,0,0,1,2.76,6.27c-.86,1.33-2.41,2.06-3.36,3.32a4.78,4.78,0,0,0-.29,5.15"/><path class="cls-16" d="M397.86,149.31a1.5,1.5,0,0,1-.21.53,3.87,3.87,0,0,1-1.08,1.22,3.94,3.94,0,0,1-2.42.76,4.13,4.13,0,0,1-3-1.4l.39-.1a3.86,3.86,0,0,1-2.48,2.85,4.43,4.43,0,0,1-4.19-.53,6.27,6.27,0,0,1-2.36-3.09l.45,0a5.25,5.25,0,0,1-4.21,2.31,4.83,4.83,0,0,1-3.54-1.45,5,5,0,0,1-1.29-2.18,1.84,1.84,0,0,1-.1-.9s.07.31.27.85a5.18,5.18,0,0,0,1.34,2,4.58,4.58,0,0,0,3.3,1.24,4.81,4.81,0,0,0,3.8-2.14l.28-.43.17.48a5.89,5.89,0,0,0,2.18,2.83,4,4,0,0,0,3.72.49,3.43,3.43,0,0,0,2.22-2.46l.09-.47.3.36a3.81,3.81,0,0,0,2.66,1.32,3.7,3.7,0,0,0,2.25-.61A5.55,5.55,0,0,0,397.86,149.31Z"/><path class="cls-16" d="M397.82,147A5.14,5.14,0,0,0,397,145a3.35,3.35,0,0,0-2-1.31,3.5,3.5,0,0,0-2.83.54l-.45.32,0-.56a4.18,4.18,0,0,0-.2-1.63,4.24,4.24,0,0,0-5.18-2.92,6.26,6.26,0,0,0-2.42,1.36,1.68,1.68,0,0,1,.47-.63,4.52,4.52,0,0,1,1.85-1.09,4.66,4.66,0,0,1,3.2.18,4.84,4.84,0,0,1,2.58,2.94,4.66,4.66,0,0,1,.2,1.84l-.4-.23a4,4,0,0,1,3.25-.56,3.64,3.64,0,0,1,2.12,1.56,3.81,3.81,0,0,1,.57,1.64C397.9,146.83,397.85,147.05,397.82,147Z"/><path class="cls-16" d="M386,147.21c-.07,0,0-.32,0-.78a3.66,3.66,0,0,0-.58-1.69c-.37-.59-.82-1.19-1.07-1.51a.54.54,0,0,0-.6-.11s0-.13.13-.23a.61.61,0,0,1,.69.05,5,5,0,0,1,.65.65,9.59,9.59,0,0,1,.65.88,3.13,3.13,0,0,1,.5,2C386.25,147,386,147.24,386,147.21Z"/><path class="cls-16" d="M374.94,140c-.06,0,0-.44.35-1a2.78,2.78,0,0,1,.84-.89,2.22,2.22,0,0,1,1.52-.33,3.58,3.58,0,0,1,2.25,1.42c.42.52.61.88.56.93s-.36-.24-.83-.68a3.86,3.86,0,0,0-2.05-1.15,2.18,2.18,0,0,0-2,.92C375.19,139.71,375,140.08,374.94,140Z"/><path class="cls-16" d="M377.83,164.22a12.73,12.73,0,0,1-2.65-7.71c.15,0,.45,1.79,1.18,3.9S378,164.14,377.83,164.22Z"/><path class="cls-16" d="M380.33,165.58A6.73,6.73,0,0,1,379,163a6.92,6.92,0,0,1-.68-2.85,10.81,10.81,0,0,1,1.17,2.67A10.8,10.8,0,0,1,380.33,165.58Z"/><path class="cls-16" d="M396,166a10.89,10.89,0,0,1-3.47,9.19,31.51,31.51,0,0,0,2.34-4.36A30.52,30.52,0,0,0,396,166Z"/><path class="cls-16" d="M398.49,161.81a8.8,8.8,0,0,1-1.57,8.61,25.14,25.14,0,0,0,1.42-4.19A24.93,24.93,0,0,0,398.49,161.81Z"/><polyline class="cls-7" points="391.29 318.94 396.76 371.7 400.69 451.16 421.66 451.16 422.23 282.05 362.19 286.33 349.75 375.06 360.53 452.71 383.54 452.71 378.15 378.87 391.29 318.94"/><path class="cls-16" d="M391.29,318.94a63.57,63.57,0,0,1-8.51,7.66,31.64,31.64,0,0,1,4.08-4A31,31,0,0,1,391.29,318.94Z"/><path class="cls-16" d="M391.23,317.88a60.58,60.58,0,0,1,.11-6.77,59.09,59.09,0,0,1,.39-6.76,60.44,60.44,0,0,1-.5,13.53Z"/><path class="cls-16" d="M398.16,298.19a1.57,1.57,0,0,1,.34,0l1-.06,4-.19,14.22-.6H418v.25c0,4.43,0,9.45,0,14.76v.46l-.17.06-9.24,3.71-.09,0-.09,0-8.17-2.84-.13,0,0-.13c-.6-4.61-1.09-8.45-1.45-11.2-.16-1.28-.28-2.31-.38-3.08a8.53,8.53,0,0,1-.1-1.05,2.18,2.18,0,0,1,.07.3c0,.23.08.5.14.83.12.78.28,1.82.49,3.12.41,2.71,1,6.48,1.66,11l-.14-.18,8.19,2.78h-.17l9.24-3.73-.16.24v-.28c0-5.31,0-10.33,0-14.76l.24.23-14.06.35-4,.07h-1.48Z"/><path class="cls-16" d="M367.89,298.45a1.11,1.11,0,0,1,.31,0l.93,0,3.6-.12,13-.3h.24v.24c-.14,4.38-.3,9.43-.47,14.8v.14l-.11.07-1.5,1-7.6,5-.14.09-.13-.09-8.56-5.21-.11-.07v-.12c.16-4.6.3-8.43.39-11.18.06-1.28.1-2.31.14-3.07a9.42,9.42,0,0,1,.07-1.05,1,1,0,0,1,0,.3v.83c0,.78,0,1.82,0,3.13,0,2.71-.1,6.5-.16,11.05l-.11-.19,8.6,5.15H376l7.6-5,1.5-1-.12.21c.19-5.38.38-10.43.54-14.81l.23.24-12.83.07h-4.62Z"/><path class="cls-16" d="M415.75,322.35a14.68,14.68,0,0,1-2.84-.09c-1.75-.13-4.16-.37-6.82-.71s-5-.73-6.77-1.05a14.09,14.09,0,0,1-2.77-.64,16.93,16.93,0,0,1,2.82.27l6.79.9,6.78.86A17.07,17.07,0,0,1,415.75,322.35Z"/><path class="cls-16" d="M415.26,381.17s-.08.3-.49.66a3.35,3.35,0,0,1-2.15.73,5.1,5.1,0,0,1-3.13-1.2,22.37,22.37,0,0,1-2.86-2.89,40.09,40.09,0,0,1-4.24-6,12.83,12.83,0,0,1-1.33-2.73,26.6,26.6,0,0,1,1.64,2.53,53,53,0,0,0,4.33,5.83,23.55,23.55,0,0,0,2.76,2.85,4.85,4.85,0,0,0,2.84,1.21,3.27,3.27,0,0,0,2-.52C415.06,381.38,415.23,381.14,415.26,381.17Z"/><path class="cls-16" d="M373.85,383a1.4,1.4,0,0,1-.28.67,4.39,4.39,0,0,1-1.45,1.38,5.55,5.55,0,0,1-2.88.75,6.74,6.74,0,0,1-3.46-1.1,12.2,12.2,0,0,1-4.17-5,10.85,10.85,0,0,1-1-2.47,18.68,18.68,0,0,1,1.36,2.3,13.18,13.18,0,0,0,4.12,4.7,6.5,6.5,0,0,0,3.2,1.06,5.49,5.49,0,0,0,2.69-.59A6.12,6.12,0,0,0,373.85,383Z"/><path class="cls-16" d="M375.19,375.06a5.17,5.17,0,0,1-1.73,1,13.81,13.81,0,0,1-4.7,1.05,13.67,13.67,0,0,1-4.77-.66,5.14,5.14,0,0,1-1.8-.86,21.6,21.6,0,0,0,6.55,1A22.14,22.14,0,0,0,375.19,375.06Z"/><path class="cls-16" d="M443.43,188.84H412.86s-4.16-2.39-6.17-2a7.92,7.92,0,0,0-3.75,2.55L407,223.08l9.9-7.32,36.86-3.84a11.74,11.74,0,0,0,8.42-3.69h0a11.74,11.74,0,0,0,3.11-9.43l-6.82-36.22-14,.46-.55,9.19Z"/><path class="cls-16" d="M359.27,197.33a18.77,18.77,0,0,0-7.38,8.58c-1.79,4.28-14,25.66-20.38,36.84A10.58,10.58,0,0,0,333,255.32h0c3.9,4.08,8.56,2.49,14.25.63,2.55-.83,14-18.44,14-18.44Z"/><polygon class="cls-16" points="364.59 273.72 357.58 213.41 359.27 197.33 377.12 189.73 400.23 188.22 422.23 190.64 417.09 252.5 422.72 287.39 361.08 290.18 364.59 273.72"/><path class="cls-7" d="M364.56,273.46c-.14,0-1.82-13.41-3.75-30s-3.37-30-3.23-30.06,1.82,13.42,3.75,30S364.7,273.45,364.56,273.46Z"/><path class="cls-7" d="M421.78,204.17a2.3,2.3,0,0,1,0,.55c0,.41-.09.92-.14,1.55-.15,1.41-.34,3.34-.58,5.68-.49,4.87-1.15,11.47-1.88,18.77s-1.27,14-1.63,18.78c-.17,2.35-.31,4.28-.41,5.7-.05.63-.09,1.14-.12,1.55a2.29,2.29,0,0,1-.08.54,1.85,1.85,0,0,1,0-.54q0-.62,0-1.56c0-1.35.12-3.3.24-5.71.27-4.82.78-11.48,1.48-18.81s1.45-14,2-18.76c.3-2.39.55-4.33.75-5.67.09-.62.17-1.13.23-1.54A2,2,0,0,1,421.78,204.17Z"/><path class="cls-7" d="M411.18,264.22a9.08,9.08,0,0,1-1,1.19,14.35,14.35,0,0,1-1.25,1.31c-.52.48-1.08,1.06-1.78,1.6a26,26,0,0,1-2.32,1.76,32.14,32.14,0,0,1-2.83,1.78,38.31,38.31,0,0,1-7,3,39,39,0,0,1-7.53,1.38c-1.18.05-2.29.13-3.34.07a25.25,25.25,0,0,1-2.9-.2c-.89-.07-1.68-.25-2.38-.37a14.08,14.08,0,0,1-1.76-.41,8.65,8.65,0,0,1-1.47-.46c0-.12,2.14.54,5.64.87a28.35,28.35,0,0,0,2.88.14c1,0,2.13-.06,3.29-.12a36.61,36.61,0,0,0,14.39-4.29c1-.58,2-1.11,2.82-1.71s1.63-1.15,2.32-1.69C409.69,265.84,411.09,264.14,411.18,264.22Z"/><g class="cls-5"><path d="M378.59,275.48c-3-.86-3.17-3.69-2-4.9s3.05-1.37,4.71-1.13a23.48,23.48,0,0,0,5,.67c2.74-.18,5-2.09,6.94-4.07s3.71-4.2,6.21-5.34,6-.73,7.3,1.68a5.22,5.22,0,0,1-.3,5,11.52,11.52,0,0,1-3.71,3.64,30.34,30.34,0,0,1-24.12,4.45"/></g><path class="cls-7" d="M415,190.07a8,8,0,0,1,4,3.19,8.06,8.06,0,0,1,1.77,4.81,14.58,14.58,0,0,0-5.78-8Z"/><path class="cls-12" d="M412.9,189.39a4.17,4.17,0,0,0-.5-.3,2.56,2.56,0,0,0-1.66-.1,4.64,4.64,0,0,0-2.28,1.35,24.94,24.94,0,0,1-2.52,2.56,7.5,7.5,0,0,1-4.14,1.28c-1.57.07-3.24-.09-5-.14a99.19,99.19,0,0,0-11.42.25,73.55,73.55,0,0,0-20.2,4.46,61.56,61.56,0,0,0-5.75,2.55l-1.51.8-.54.27.52-.31,1.49-.83a59.77,59.77,0,0,1,5.74-2.62,71.87,71.87,0,0,1,20.23-4.53,97.15,97.15,0,0,1,11.44-.23c1.76.05,3.43.22,5,.15a7.3,7.3,0,0,0,4.06-1.22,26,26,0,0,0,2.52-2.52,4.64,4.64,0,0,1,2.34-1.35,2.53,2.53,0,0,1,1.69.14A1.57,1.57,0,0,1,412.9,189.39Z"/><path class="cls-12" d="M419.83,201.75s-.21-.07-.62-.14a6.54,6.54,0,0,0-1.8-.06,10,10,0,0,0-2.77.74,32.42,32.42,0,0,0-3.39,1.74,19.29,19.29,0,0,1-4.25,1.83,27.27,27.27,0,0,1-5.26.85c-3.74.23-7.85.29-12.15.62-8.62.6-16.37,1.64-21.95,2.55-2.8.45-5.05.87-6.6,1.16l-1.79.34-.63.1.62-.15L361,211c1.55-.31,3.8-.76,6.59-1.22,5.58-1,13.34-2,22-2.61,4.31-.34,8.43-.39,12.16-.61a27.66,27.66,0,0,0,5.22-.83,18.37,18.37,0,0,0,4.23-1.79,31.27,31.27,0,0,1,3.42-1.72,10.08,10.08,0,0,1,2.8-.71,6.37,6.37,0,0,1,1.82.1A3.44,3.44,0,0,1,419.83,201.75Z"/><path class="cls-12" d="M420,218.76s-.77.36-2.21.92a65.55,65.55,0,0,1-6.22,2.07,93,93,0,0,1-21.35,3.19,195.37,195.37,0,0,1-21.6-.51l-6.53-.51-1.78-.16-.62-.06.62,0,1.78.12,6.54.44a207.66,207.66,0,0,0,21.58.45,95.57,95.57,0,0,0,21.32-3.12c2.66-.73,4.78-1.46,6.23-2,.72-.26,1.28-.5,1.66-.64S420,218.76,420,218.76Z"/><path class="cls-12" d="M417.64,238.38s-.73.32-2.08.78a41.63,41.63,0,0,1-5.86,1.5,59.86,59.86,0,0,1-8.93.92c-3.38.11-7.1,0-11-.23-7.78-.51-14.82-1.07-19.92-.88-2.55.06-4.61.23-6,.39-.71.07-1.26.16-1.63.21l-.57.06a52.35,52.35,0,0,1,8.22-.81c5.12-.22,12.17.31,19.95.82,3.88.23,7.59.35,11,.24a61.61,61.61,0,0,0,8.91-.86,45.51,45.51,0,0,0,5.87-1.43c.68-.2,1.2-.42,1.55-.53Z"/><path class="cls-12" d="M415.74,253.57s-2.83.93-7.5,2c-2.34.54-5.15,1.08-8.28,1.56s-6.61.86-10.27,1.09-7.15.23-10.32.16-6-.3-8.41-.56c-4.77-.5-7.69-1.09-7.69-1.09l.54.06,1.53.22c1.32.2,3.25.43,5.63.66s5.24.42,8.41.51,6.65,0,10.3-.17,7.11-.62,10.25-1.07,5.94-1,8.27-1.52,4.23-1,5.52-1.34l1.49-.39Z"/><path class="cls-12" d="M417.85,259.12l-.52.2-1.5.54c-1.31.48-3.17,1.24-5.44,2.24s-5,2.26-8,3.51a52.18,52.18,0,0,1-10.22,3.13,85,85,0,0,1-19.38,1.07c-2.48-.1-4.49-.23-5.88-.32l-1.59-.12c-.37,0-.56-.05-.56-.05h.56l1.6.08,5.88.25a86.73,86.73,0,0,0,19.33-1.13,53,53,0,0,0,10.19-3.09c3-1.24,5.73-2.49,8-3.47s4.16-1.72,5.47-2.18S417.85,259.12,417.85,259.12Z"/><path class="cls-12" d="M421,275.68s-.68.47-2,1.21a40.45,40.45,0,0,1-5.77,2.64A63.71,63.71,0,0,1,392.63,283c-8.19.15-15.59-.5-20.94-.73-2.68-.13-4.84-.2-6.34-.23l-1.73,0-.6,0s.21,0,.6,0h1.73c1.5,0,3.67.06,6.35.18,5.35.19,12.75.81,20.93.66a64.49,64.49,0,0,0,20.54-3.41,41.72,41.72,0,0,0,5.78-2.57c.67-.34,1.16-.67,1.51-.85S421,275.68,421,275.68Z"/><path class="cls-12" d="M430.3,214.62a.94.94,0,0,1,.05-.25l.19-.71c.18-.61.39-1.51.63-2.63a40.39,40.39,0,0,0-.27-17.64c-.26-1.11-.51-2-.7-2.61-.08-.25-.15-.48-.21-.7a.8.8,0,0,1-.06-.25s0,.08.1.24l.24.69c.22.6.49,1.49.77,2.59a38,38,0,0,1,.27,17.71c-.25,1.12-.49,2-.69,2.62l-.23.7A1.78,1.78,0,0,1,430.3,214.62Z"/><path class="cls-12" d="M445.11,211a.82.82,0,0,1,0-.23c0-.2,0-.42,0-.65,0-.57.05-1.39,0-2.4a38.35,38.35,0,0,0-.93-7.84,38,38,0,0,0-2.56-7.47c-.43-.91-.81-1.65-1.08-2.14l-.31-.58c-.06-.13-.1-.2-.09-.21a1.8,1.8,0,0,1,.13.19l.34.56c.3.48.69,1.21,1.14,2.12a34.83,34.83,0,0,1,3.5,15.37c0,1,0,1.84-.1,2.41l-.07.65A1.42,1.42,0,0,1,445.11,211Z"/><path class="cls-12" d="M465.12,204.06a2,2,0,0,1-.19-.2l-.51-.6c-.43-.53-1.08-1.27-1.91-2.15a48.42,48.42,0,0,0-15.34-11c-1.11-.5-2-.88-2.66-1.12l-.73-.28a1.34,1.34,0,0,1-.25-.12l.27.08.74.25c.65.22,1.57.57,2.69,1.06a45.58,45.58,0,0,1,15.39,11c.81.9,1.45,1.66,1.86,2.2l.48.62A1.3,1.3,0,0,1,465.12,204.06Z"/><path class="cls-12" d="M460.58,175.72a2.9,2.9,0,0,1-.64,0l-1.73,0c-1.46,0-3.48,0-5.71,0s-4.26.12-5.72.2l-1.73.09a4.3,4.3,0,0,1-.63,0,3.44,3.44,0,0,1,.63-.09c.4,0,1-.1,1.72-.16,1.46-.11,3.49-.22,5.72-.26s4.26,0,5.72.07l1.74.09A4,4,0,0,1,460.58,175.72Z"/><path class="cls-12" d="M347.29,215.41a2.48,2.48,0,0,1,.38.39c.23.27.57.64,1,1.09a26.59,26.59,0,0,0,3.74,3.12,48.62,48.62,0,0,0,4.18,2.53l1.3.71a2.89,2.89,0,0,1,.47.28,2.46,2.46,0,0,1-.5-.2c-.32-.15-.78-.37-1.34-.66a37.93,37.93,0,0,1-4.22-2.49,22.78,22.78,0,0,1-3.74-3.19,10.94,10.94,0,0,1-1-1.14A2.77,2.77,0,0,1,347.29,215.41Z"/><path class="cls-12" d="M351.51,207.41s.23.34.7.8a16,16,0,0,0,2,1.59,25.18,25.18,0,0,0,2.21,1.34,10.77,10.77,0,0,1,.95.51,11.31,11.31,0,0,1-3.27-1.67,12,12,0,0,1-2-1.67A2.52,2.52,0,0,1,351.51,207.41Z"/><path class="cls-12" d="M358.62,241.52a.67.67,0,0,1-.22-.09l-.61-.32c-.52-.28-1.27-.71-2.16-1.29a44.54,44.54,0,0,1-6.52-5.17,41.5,41.5,0,0,1-5.43-6.29,22.19,22.19,0,0,1-1.34-2.14l-.33-.6a1.1,1.1,0,0,1-.1-.21,1,1,0,0,1,.13.19l.37.58c.3.51.77,1.23,1.39,2.09a45.5,45.5,0,0,0,5.46,6.23,48.54,48.54,0,0,0,6.45,5.2c.88.59,1.61,1,2.12,1.34l.59.35Z"/><path class="cls-7" d="M330.84,251.86a4.94,4.94,0,0,1-.19-1.15,18.87,18.87,0,0,1-.07-3.16,20.46,20.46,0,0,1,3.32-9.83c2.15-3.44,4.12-6.54,5.57-8.77l1.74-2.62a4.85,4.85,0,0,1,.7-.92,5.45,5.45,0,0,1-.53,1l-1.6,2.71c-1.36,2.28-3.28,5.4-5.43,8.84a21.21,21.21,0,0,0-3.4,9.59C330.72,250.2,331,251.85,330.84,251.86Z"/><path class="cls-12" d="M348.34,255.9a12.91,12.91,0,0,1-3.45-.51,16.22,16.22,0,0,1-11.45-11.46,12.77,12.77,0,0,1-.52-3.45.92.92,0,0,1,0,.24c0,.16,0,.39.09.69a17.08,17.08,0,0,0,.53,2.48,16.4,16.4,0,0,0,11.34,11.35,17.44,17.44,0,0,0,2.49.53c.3,0,.53.06.69.09A.92.92,0,0,1,348.34,255.9Z"/><path class="cls-12" d="M338.3,221.76a.74.74,0,0,1-.18.12l-.52.32c-.45.27-1.1.68-1.86,1.23a26.67,26.67,0,0,0-9.08,11.36c-.36.87-.63,1.59-.78,2.09-.07.2-.13.39-.2.58s-.07.2-.08.19,0-.07,0-.21.1-.38.16-.58a18.16,18.16,0,0,1,.73-2.13,25.45,25.45,0,0,1,3.72-6.38,25.11,25.11,0,0,1,5.4-5,17.86,17.86,0,0,1,1.91-1.18l.54-.28Z"/><path class="cls-12" d="M332.69,214.36a3.36,3.36,0,0,1-.57.2c-.37.11-.9.3-1.54.56A17.9,17.9,0,0,0,326,217.9a26,26,0,0,0-3.72,3.9c-.43.54-.77,1-1,1.3a3.12,3.12,0,0,1-.38.47,3.75,3.75,0,0,1,.31-.52c.21-.32.53-.78.94-1.34a23.21,23.21,0,0,1,3.71-4,16.68,16.68,0,0,1,4.67-2.76,14.57,14.57,0,0,1,1.57-.5A3.62,3.62,0,0,1,332.69,214.36Z"/></g></svg>