<?xml version="1.0" encoding="utf-8"?>
<!-- Generator: Adobe Illustrator 24.3.0, SVG Export Plug-In . SVG Version: 6.00 Build 0)  -->
<svg version="1.1" id="Layer_1" xmlns="http://www.w3.org/2000/svg" xmlns:xlink="http://www.w3.org/1999/xlink" x="0px" y="0px"
	 viewBox="0 0 750 500" style="enable-background:new 0 0 750 500;" xml:space="preserve">
<style type="text/css">
	.st0{fill:url(#SVGID_1_);}
	.st1{fill:#7D97F4;}
	.st2{opacity:0.62;fill:#FFFFFF;}
	.st3{opacity:0.79;}
	.st4{fill:#91B3FA;}
	.st5{opacity:0.76;}
	.st6{fill:url(#SVGID_2_);}
	.st7{fill:url(#SVGID_3_);}
	.st8{fill:url(#SVGID_4_);}
	.st9{fill:#FFFFFF;}
	.st10{opacity:0.71;}
	.st11{opacity:0.65;fill:#FFFFFF;}
	.st12{opacity:0.75;fill:#FFFFFF;}
	.st13{opacity:0.75;}
	.st14{fill:url(#SVGID_5_);}
	.st15{fill:url(#SVGID_6_);}
	.st16{fill:url(#SVGID_7_);}
	.st17{fill:url(#SVGID_8_);}
	.st18{fill:url(#SVGID_9_);}
	.st19{fill:url(#SVGID_10_);}
	.st20{fill:url(#SVGID_11_);}
	.st21{fill:#17A3B6;}
	.st22{fill:url(#SVGID_12_);}
	.st23{fill:url(#SVGID_13_);}
	.st24{fill:url(#SVGID_14_);}
	.st25{fill:url(#SVGID_15_);}
	.st26{opacity:0.6;fill:#FFFFFF;}
	.st27{opacity:0.72;fill:#FFFFFF;}
	.st28{fill:#111E37;}
	.st29{opacity:0.3;}
	.st30{fill:url(#SVGID_16_);}
	.st31{fill:url(#SVGID_17_);}
	.st32{fill:url(#SVGID_18_);}
	.st33{fill:url(#SVGID_19_);}
	.st34{fill:url(#SVGID_20_);}
	.st35{opacity:0.7;fill:#FFFFFF;}
	.st36{fill:url(#SVGID_21_);}
	.st37{fill:url(#SVGID_22_);}
	.st38{fill:url(#SVGID_23_);}
	.st39{fill:url(#SVGID_24_);}
</style>
<g>
	<linearGradient id="SVGID_1_" gradientUnits="userSpaceOnUse" x1="659.9656" y1="580.831" x2="281.6983" y2="111.0467">
		<stop  offset="0" style="stop-color:#DAE3FE"/>
		<stop  offset="1" style="stop-color:#E9EFFD"/>
	</linearGradient>
	<path class="st0" d="M557.1,394.8c-8.8,9.1-17,15-23.6,19.6c-76.9,54.5-167.9,38.6-187.3,34.7c-28.6-5.7-83.8-16.8-123.7-63.2
		c-60.4-70.2-51-180.7-4.1-253.6c8.6-13.3,53.8-87.4,145.8-99.3c55.7-7.2,120.6,7.3,167.6,46.2C630.4,160.8,623.4,325.8,557.1,394.8
		z"/>
	<g>
		<g>
			<path class="st1" d="M394.4,437.9c0,0,84-212.2,208.8-235.4c2.2-0.4,4.2,1.4,4.1,3.6C606,232.3,590,370.8,394.4,437.9z"/>
			<path class="st2" d="M580.7,237c-6.4,9.1-13,17.9-19.8,26.7c-1.7,2.2-3.4,4.4-5.1,6.6c-1.7,2.2-3.4,4.4-5.2,6.5l-5.2,6.5
				c-1.8,2.1-3.5,4.3-5.3,6.4c-3.6,4.2-7.1,8.5-10.7,12.7L518.5,315c-7.4,8.3-14.8,16.5-22.4,24.6l-5.7,6.1c-1.9,2.1-3.8,4-5.8,6
				l-11.6,12l-11.9,11.7c-2,1.9-3.9,3.9-6,5.8l-6.1,5.6c-4.1,3.8-8.1,7.5-12.3,11.2l-12.6,10.8l-3.2,2.7c-1.1,0.9-2.1,1.8-3.2,2.7
				l-6.5,5.2c-2.2,1.7-4.4,3.4-6.6,5.1c-2.2,1.7-4.4,3.4-6.6,5.1c-0.2,0.1-0.4,0.1-0.5-0.1c-0.1-0.2-0.1-0.4,0.1-0.5l0,0
				c2.1-1.8,4.2-3.6,6.3-5.4c2.1-1.8,4.2-3.6,6.4-5.3l6.4-5.3c2.1-1.8,4.1-3.7,6.2-5.5l12.5-10.9l12.2-11.2l6.1-5.6
				c1-0.9,2-1.9,3-2.9l3-2.9l12-11.5c7.8-7.8,15.8-15.6,23.3-23.7c3.8-4,7.7-8,11.4-12.1c3.7-4.1,7.5-8.2,11.1-12.3l10.9-12.5
				c3.6-4.2,7.1-8.5,10.7-12.7c1.8-2.1,3.5-4.3,5.3-6.4l5.3-6.4c1.8-2.1,3.4-4.3,5.2-6.5c1.7-2.2,3.4-4.3,5.1-6.5
				c6.8-8.8,13.4-17.6,19.8-26.7l0,0c0.1-0.2,0.4-0.2,0.5-0.1C580.8,236.5,580.8,236.8,580.7,237L580.7,237z"/>
		</g>
		<g class="st3">
			<path class="st4" d="M374,316.2c0,0,40.8-187.4,164.1-284.5c1.6-1.3,4-0.5,4.5,1.5C550.3,64.6,590.7,264.7,374,316.2z"/>
			<path class="st2" d="M525,85.8c-1.4,5.4-3.1,10.8-4.8,16.1c-1.7,5.3-3.6,10.6-5.5,15.9c-3.9,10.5-8.1,20.9-12.7,31.1
				c-1.1,2.6-2.3,5.1-3.5,7.7c-1.2,2.5-2.4,5.1-3.6,7.6c-1.2,2.5-2.5,5-3.8,7.5l-1.9,3.7l-2,3.7c-5.3,9.9-10.8,19.7-16.8,29.2
				c-6,9.5-12.2,18.8-19,27.8c-0.8,1.1-1.6,2.3-2.5,3.4l-2.6,3.3l-2.6,3.3c-0.9,1.1-1.7,2.2-2.6,3.3l-5.4,6.5l-1.3,1.6l-1.4,1.6
				l-2.8,3.2c-14.8,16.9-31.4,32.2-49.3,45.7c-0.1,0.1-0.4,0.1-0.5-0.1c-0.1-0.1-0.1-0.3,0.1-0.5l0,0l6.5-5.3l3.3-2.6l3.2-2.8
				l6.3-5.5l6.1-5.8c1-1,2-1.9,3-2.9l2.9-3c2-2,3.9-4,5.9-6c3.8-4.1,7.6-8.2,11.2-12.4l2.7-3.2l1.4-1.6l1.3-1.6l5.3-6.5
				c0.9-1.1,1.7-2.2,2.6-3.3l2.6-3.3l2.6-3.3c0.8-1.1,1.6-2.3,2.5-3.4c6.7-9,12.8-18.3,18.8-27.7c6-9.4,11.6-19.1,16.8-29l2-3.7
				l1.9-3.7c1.3-2.5,2.6-5,3.8-7.5c2.5-5,4.9-10.1,7.2-15.1c4.7-10.2,9-20.5,13-30.9c2-5.2,4-10.5,5.8-15.7c0.9-2.6,1.8-5.3,2.7-8
				c0.9-2.7,1.7-5.3,2.5-8l0,0c0.1-0.2,0.2-0.3,0.4-0.2C524.9,85.4,525,85.6,525,85.8z"/>
		</g>
	</g>
	<g class="st5">
		<path class="st4" d="M310,306.1c0,0-15.9-166.2-112.4-262.9c-1.3-1.3-3.4-0.8-4,0.9C183.5,70.4,127.9,239.2,310,306.1z"/>
		<path class="st2" d="M203.9,91.2c1.6,9.6,3.8,19.1,6.2,28.5c2.4,9.4,5.1,18.8,8.1,28c1.5,4.6,3.1,9.2,4.7,13.8
			c0.8,2.3,1.7,4.6,2.5,6.9l1.3,3.4l1.3,3.4c3.5,9.1,7.4,18,11.6,26.8c4.2,8.8,8.5,17.5,13.4,25.9c0.6,1.1,1.2,2.1,1.8,3.2l1.9,3.1
			l1.9,3.1c0.6,1,1.2,2.1,1.9,3.1l3.9,6.2l1,1.5l1,1.5l2,3c2.7,4.1,5.6,8,8.4,11.9c1.4,2,3,3.8,4.4,5.8l2.2,2.9
			c0.8,1,1.6,1.9,2.3,2.8l4.7,5.6l4.9,5.4l2.4,2.7l2.5,2.6l5.1,5.3l0,0c0.1,0.1,0.1,0.3,0,0.5c-0.1,0.1-0.3,0.1-0.5,0
			c-14.1-13.5-26.9-28.4-37.9-44.6l-2.1-3l-1-1.5l-1-1.5l-4-6.2c-0.7-1-1.3-2.1-1.9-3.1l-1.9-3.1l-1.9-3.1c-0.6-1.1-1.2-2.1-1.8-3.2
			c-4.9-8.5-9.3-17.2-13.5-26c-4.2-8.8-8-17.8-11.5-27l-1.3-3.4l-1.3-3.4c-0.8-2.3-1.7-4.6-2.5-6.9c-0.8-2.3-1.6-4.6-2.4-6.9
			c-0.7-2.3-1.5-4.6-2.2-7c-5.7-18.7-10.5-37.7-13.3-57c0-0.2,0.1-0.4,0.3-0.4C203.7,90.9,203.8,91,203.9,91.2L203.9,91.2z"/>
	</g>
	<g>
		<linearGradient id="SVGID_2_" gradientUnits="userSpaceOnUse" x1="464.8861" y1="30.9339" x2="13.9033" y2="849.1463">
			<stop  offset="0" style="stop-color:#09005D"/>
			<stop  offset="1" style="stop-color:#1A0F91"/>
		</linearGradient>
		<path class="st6" d="M224.4,53.1c-1.4,65.2-5.9,290.2-3.7,369.9c0.2,8.4,6,15.2,13.2,15.5c35.7,1.4,166.6,4.8,225,2
			c12.2-0.6,21.8-12.1,22.1-26.4c1.2-68.5,3.9-261-2.5-349.2c-0.8-10.6-7.9-19-16.9-20C422.7,40.3,291.3,29.2,240.8,33
			C231.7,33.7,224.6,42.4,224.4,53.1z"/>
		<path class="st1" d="M240.3,73.1c-1.9,52.6-8,227.8-6.1,292.5c0.3,9.5,6.7,17.1,14.7,17.7c33.3,2.3,146.8,7.3,195.6,2.7
			c8.8-0.8,15.7-9.1,16.2-19.4c2.5-53.7,9.6-216.8,7.7-280.8c-0.3-10.2-7.1-18.6-15.8-19.5c-36-3.8-156.6-12.8-198.1-10.1
			C246.8,56.7,240.6,64,240.3,73.1z"/>
		<linearGradient id="SVGID_3_" gradientUnits="userSpaceOnUse" x1="329.5962" y1="-203.4814" x2="345.0069" y2="-46.292">
			<stop  offset="0" style="stop-color:#4F52FF"/>
			<stop  offset="1" style="stop-color:#4042E2"/>
		</linearGradient>
		<path class="st7" d="M329.6,46L329.6,46c0,2,1.3,3.7,3,3.8c8.4,0.5,32.2,2,42.8,2.7c2.1,0.1,3.7-2.1,3.3-4.5l-0.1-0.4
			c-0.3-1.6-1.4-2.9-2.9-3c-7.2-0.8-28.8-2.9-43.2-2.3C330.9,42.3,329.6,44,329.6,46z"/>
		<g>
			<g>
				<linearGradient id="SVGID_4_" gradientUnits="userSpaceOnUse" x1="296.3493" y1="133.7304" x2="395.9608" y2="133.7304">
					<stop  offset="0" style="stop-color:#4F52FF"/>
					<stop  offset="1" style="stop-color:#4042E2"/>
				</linearGradient>
				<circle class="st8" cx="346.2" cy="133.7" r="49.8"/>
				<path class="st9" d="M361.4,114.9c0,8.4-6.8,17.5-15.3,17.5c-8.4,0-15.3-9.1-15.3-17.5c0-8.4,6.8-14.4,15.3-14.4
					C354.6,100.5,361.4,106.5,361.4,114.9z"/>
				<path class="st9" d="M327.2,164.9h37.3c3.9,0,7.4-2.5,8.6-6.3l2-6.3c1.5-4.6-0.9-9.6-5.4-11.2c-15.2-5.5-30.9-4.8-46.9,0.5
					c-4.5,1.5-7,6.3-5.8,10.9l1.5,5.7C319.5,162.2,323.1,164.9,327.2,164.9z"/>
			</g>
			<g class="st10">
				<path class="st11" d="M435.9,263.1H265.7c-3.7,0-6.7-3-6.7-6.7v-14.8c0-3.7,3-6.7,6.7-6.7h170.3c3.7,0,6.7,3,6.7,6.7v14.8
					C442.7,260.1,439.7,263.1,435.9,263.1z"/>
				<path class="st11" d="M434.9,309.2H264.7c-3.7,0-6.7-3-6.7-6.7v-14.8c0-3.7,3-6.7,6.7-6.7h170.3c3.7,0,6.7,3,6.7,6.7v14.8
					C441.7,306.2,438.7,309.2,434.9,309.2z"/>
				<path class="st11" d="M398.1,364.2H296c-4.6,0-8.3-3.7-8.3-8.3v-19.4c0-4.6,3.7-8.3,8.3-8.3h102.1c4.6,0,8.3,3.7,8.3,8.3v19.4
					C406.4,360.5,402.7,364.2,398.1,364.2z"/>
			</g>
			<path class="st12" d="M370.5,256.9H273c-3.3,0-6-2.7-6-6v-3.7c0-3.3,2.7-6,6-6h97.5c3.3,0,6,2.7,6,6v3.7
				C376.5,254.2,373.8,256.9,370.5,256.9z"/>
			<g class="st13">
				<circle class="st9" cx="270.8" cy="294.3" r="6.4"/>
				<circle class="st9" cx="288.5" cy="294.6" r="6.4"/>
				
					<ellipse transform="matrix(0.2298 -0.9732 0.9732 0.2298 -52.1735 524.96)" class="st9" cx="305.6" cy="295.4" rx="6.4" ry="6.4"/>
				<circle class="st9" cx="323.3" cy="295.8" r="6.4"/>
				<circle class="st9" cx="341" cy="295.6" r="6.4"/>
				<circle class="st9" cx="358.7" cy="295.9" r="6.4"/>
			</g>
		</g>
	</g>
	<g>
		
			<linearGradient id="SVGID_5_" gradientUnits="userSpaceOnUse" x1="-6884.8496" y1="447.8872" x2="-6829.0728" y2="304.2984" gradientTransform="matrix(-1 0 0 1 -6408.3174 0)">
			<stop  offset="0" style="stop-color:#FEBBBA"/>
			<stop  offset="1" style="stop-color:#FF928E"/>
		</linearGradient>
		<path class="st14" d="M432.3,317l19.8,4.9l-4.9,37c0,0,7.4,7.4,9.9,17.3c2.5,9.9,4.7,51.4,4.7,51.4l4.7,2.8l0.6,2.4l-13.6,18.3
			l2.3-14.6c0.4-2.3-0.3-7-0.1-7.1c-7.4-19.8-23.3-75.4-23.3-75.4V317z"/>
		
			<linearGradient id="SVGID_6_" gradientUnits="userSpaceOnUse" x1="-6885.6968" y1="909.7495" x2="-6701.3472" y2="-1244.8394" gradientTransform="matrix(-1 0 0 1 -6408.3174 0)">
			<stop  offset="0" style="stop-color:#FEBBBA"/>
			<stop  offset="1" style="stop-color:#FF928E"/>
		</linearGradient>
		<path class="st15" d="M426.5,433.1c0.2,0,0.4,0,0.6,0c-1-11.9-5.3-64.3-9.7-84c-4.9-22.2,7.4-66.7,7.4-66.7l22.2,22.2l-12.3,42
			c8.5,12.7-1.4,87-1.2,87l0,0.2l3.2,4.4l-0.4,2.4l-19.7,11.6l7.7-12.6C425.7,437.7,426.4,435.4,426.5,433.1z"/>
		
			<linearGradient id="SVGID_7_" gradientUnits="userSpaceOnUse" x1="-6879.0703" y1="220.7307" x2="-6855.4277" y2="220.7307" gradientTransform="matrix(-1 0 0 1 -6408.3174 0)">
			<stop  offset="0" style="stop-color:#FEBBBA"/>
			<stop  offset="1" style="stop-color:#FF928E"/>
		</linearGradient>
		<path class="st16" d="M451.5,183.8c0,0,43.3,48.8,0,73.8l-4.4-3.2c0,0,21.5-20.6,0-45.8L451.5,183.8z"/>
		
			<linearGradient id="SVGID_8_" gradientUnits="userSpaceOnUse" x1="-6603.0034" y1="451.9594" x2="-6546.7622" y2="365.6717" gradientTransform="matrix(-1 0 0 1 -6173.1567 0)">
			<stop  offset="0" style="stop-color:#4F52FF"/>
			<stop  offset="1" style="stop-color:#4042E2"/>
		</linearGradient>
		<path class="st17" d="M415.4,454.1h6.3c1.2,0,2.3-0.5,3-1.5c2-2.5,6-7.5,8-7.6c2.6-0.2,2.3,9.1,2.3,9.1h1.5l1.9-11.5
			c0.5-2.9-1-5.8-3.6-7.1l0,0c0,0-0.6,4.4-3.8,6.4c-3.2,2-13.2,8.9-13.2,8.9s-1.2-0.2-2.6,0.1C413.1,451.1,413.4,454.1,415.4,454.1z
			"/>
		
			<linearGradient id="SVGID_9_" gradientUnits="userSpaceOnUse" x1="-6653.6772" y1="478.2372" x2="-6591.2729" y2="370.3775" gradientTransform="matrix(-1 0 0 1 -6173.1567 0)">
			<stop  offset="0" style="stop-color:#4F52FF"/>
			<stop  offset="1" style="stop-color:#4042E2"/>
		</linearGradient>
		<path class="st18" d="M452.9,453.3l5.8-2.4c1.1-0.5,1.9-1.4,2.2-2.5c0.8-3.1,2.6-9.3,4.4-10.1c2.3-1.2,5.6,7.5,5.6,7.5l1.3-0.6
			l-2.8-11.4c-0.7-2.9-3.1-4.9-6.1-5.2l0,0c0,0,1.2,4.3-1.1,7.4c-2.2,3.1-8.7,13.4-8.7,13.4s-1.2,0.3-2.3,1.1
			C449.6,451.5,451,454.1,452.9,453.3z"/>
		<linearGradient id="SVGID_10_" gradientUnits="userSpaceOnUse" x1="489.9043" y1="215.6906" x2="440.5947" y2="282.4642">
			<stop  offset="0" style="stop-color:#4F52FF"/>
			<stop  offset="1" style="stop-color:#4042E2"/>
		</linearGradient>
		<path class="st19" d="M419.2,244.8c0,0,0.7,4.5-0.3,16.7c-1.1,12.2-6.2,41-5.1,68.5c0,0,14.5,3.4,39.6,1.8c0,0,10.6-42.9,8-59.2
			c-2.6-16.3-16.6-28-16.6-28L419.2,244.8z"/>
		
			<linearGradient id="SVGID_11_" gradientUnits="userSpaceOnUse" x1="-6853.25" y1="167.9795" x2="-6836.459" y2="167.9795" gradientTransform="matrix(-1 0 0 1 -6408.3174 0)">
			<stop  offset="0" style="stop-color:#FEBBBA"/>
			<stop  offset="1" style="stop-color:#FF928E"/>
		</linearGradient>
		<polygon class="st20" points="429.9,163.1 428.1,183.8 444.9,183.8 440.8,152.1 		"/>
		<path class="st21" d="M449.9,181c-5.8-0.3-18.8-0.9-27.9-0.4c-4.8,0.3-8.9,3.7-9.9,8.5l-2.2,10.7c-0.8,4-0.7,8.1,0.4,12.1l9,33
			c0,0,8,4.8,25.6-0.3c0,0,15.4-36.8,9.1-60.3C453.4,182.4,451.8,181.1,449.9,181z"/>
		
			<linearGradient id="SVGID_12_" gradientUnits="userSpaceOnUse" x1="-6754.7324" y1="177.5528" x2="-6899.958" y2="260.7498" gradientTransform="matrix(-1 0 0 1 -6408.3174 0)">
			<stop  offset="0" style="stop-color:#FEBBBA"/>
			<stop  offset="1" style="stop-color:#FF928E"/>
		</linearGradient>
		<path class="st22" d="M412.5,187.1c-2.5,6.5-4.7,13.3-7.1,19.7c-1.2,3.2-2.5,6.3-3.8,9.2c-0.7,1.4-1.4,2.8-2.1,4
			c-0.7,1.2-1.4,2.2-1.8,2.6c-0.1,0.1,0.2,0.1,0.3,0.1c0.1,0-1.7,0.3-2.2,0.4l-2.1,0c-3-0.2-6.3-0.7-9.7-1.3
			c-6.8-1.3-13.8-3-21.1-4.4l-0.1,0c-1.4-0.3-2.7,0.7-3,2c-0.2,0.9,0.2,1.8,0.8,2.4c2.9,2.6,6,4.7,9.2,6.7c1.6,1,3.3,2,4.9,2.9
			c1.7,0.9,3.4,1.7,5.2,2.6c3.6,1.6,7.3,3,11.5,3.9c1.1,0.2,2.2,0.4,3.4,0.5c1.3,0,2.5,0.2,3.9,0.1c0.7-0.1,1.5-0.2,2.3-0.3
			c0.4-0.1,0.7-0.1,1.2-0.2c0.5-0.2,1-0.3,1.5-0.5c1.1-0.4,1.7-0.8,2.6-1.3c0.7-0.5,1.4-1,2-1.5c2.3-2,3.8-3.9,5-5.8
			c1.3-1.9,2.3-3.8,3.2-5.6c1.8-3.7,3.2-7.4,4.4-11.1c2.3-7.4,3.9-14.7,4.6-22.4c0.3-3.7-2.4-7-6.1-7.3c-3.1-0.3-5.8,1.6-6.9,4.3
			L412.5,187.1z"/>
		
			<linearGradient id="SVGID_13_" gradientUnits="userSpaceOnUse" x1="-6740.3022" y1="202.7411" x2="-6885.5278" y2="285.938" gradientTransform="matrix(-1 0 0 1 -6408.3174 0)">
			<stop  offset="0" style="stop-color:#FEBBBA"/>
			<stop  offset="1" style="stop-color:#FF928E"/>
		</linearGradient>
		<path class="st23" d="M365.2,220.7l-3-7.1l-15.8-3.9c0,0-1.3,2.7,5.4,3.9c0,0-2.4,2.6-1.1,5.7C352,222.4,365.4,225.5,365.2,220.7z
			"/>
		
			<linearGradient id="SVGID_14_" gradientUnits="userSpaceOnUse" x1="-6825.2832" y1="167.9728" x2="-6857.9131" y2="120.2588" gradientTransform="matrix(-1 0 0 1 -6408.3174 0)">
			<stop  offset="0" style="stop-color:#FEBBBA"/>
			<stop  offset="1" style="stop-color:#FF928E"/>
		</linearGradient>
		<path class="st24" d="M422.8,139.1c-0.6,0.4-5.3,17-1.4,24c4,7,16-0.8,19.3-10.9C444,142,438.8,129.6,422.8,139.1z"/>
		
			<linearGradient id="SVGID_15_" gradientUnits="userSpaceOnUse" x1="-6607.4053" y1="133.8827" x2="-6653.6309" y2="193.9759" gradientTransform="matrix(-1 0 0 1 -6173.1567 0)">
			<stop  offset="0" style="stop-color:#09005D"/>
			<stop  offset="1" style="stop-color:#1A0F91"/>
		</linearGradient>
		<path class="st25" d="M454.1,152.1c2.7,13.3,11.7,9.6,18.1,15.6c10.3,9.6,25.1-0.3,39.4,8.8c10.4,6.6,15.3,23.3,10.4,36.9
			c-6.9,18.7-30.4,26.5-42.6,20.7c-11.6-5.5-10-21.8-25.7-28.1c-6.7-2.7-9.9-0.9-13.9-4.9c-7-7-5.1-20.5-4.4-25.7
			c1.6-11.3,5.4-13.3,3.5-18.3c-3.5-9.6-19.9-7.7-21.3-14.5c-1.2-6.2,10.6-18,21.8-16.1C456.8,129.4,452.9,146.2,454.1,152.1z"/>
		<path class="st26" d="M516.8,210.1c0.2,0,0.4-0.1,0.4-0.3c2.2-9.2,1.2-16.8-3-22.4c-7-9.4-20.5-10.4-20.7-10.4
			c-0.2,0-0.5,0.2-0.5,0.4c0,0.2,0.2,0.5,0.4,0.5c0.1,0,13.3,0.9,20,10c4,5.5,5,12.8,2.8,21.7c-0.1,0.2,0.1,0.5,0.3,0.5
			C516.7,210.1,516.8,210.1,516.8,210.1z"/>
		<path class="st27" d="M472.4,218.6C472.4,218.6,472.4,218.6,472.4,218.6c0.2,0,0.3-0.2,0.2-0.3c-2.2-8.3-5.9-14-11.3-17.1
			c-3.9-2.2-7.5-2.4-10.7-2.6c-3.1-0.2-5.7-0.3-7.9-2.2c-4.4-3.9-4.2-13.4,0.8-28.1c0-0.1,0-0.2-0.1-0.3c-0.1,0-0.2,0-0.3,0.1
			c-5,14.9-5.2,24.5-0.6,28.6c2.3,2,5,2.2,8.2,2.3c3.1,0.2,6.7,0.4,10.5,2.6c5.2,3,8.9,8.7,11,16.8
			C472.2,218.5,472.3,218.6,472.4,218.6z"/>
		<path class="st27" d="M447.7,148.8C447.7,148.8,447.8,148.8,447.7,148.8c0.2-0.1,0.3-0.2,0.2-0.3c-1.7-5.1-6.7-4.3-11.9-3.5
			c-3.3,0.5-6.7,1-9.7,0.2c-2.2-0.6-3.5-1.6-3.8-3c-0.6-2.3,1.6-4.8,1.6-4.8c0.1-0.1,0.1-0.2,0-0.3c-0.1-0.1-0.2-0.1-0.3,0
			c-0.1,0.1-2.4,2.7-1.7,5.2c0.4,1.5,1.8,2.6,4.1,3.3c3,0.9,6.5,0.4,9.9-0.2c5.3-0.8,9.8-1.5,11.4,3.2
			C447.5,148.8,447.6,148.8,447.7,148.8z"/>
	</g>
	<g>
		<g>
			<path class="st28" d="M497.7,97.2c0-23.4,19.8-42.3,43.6-42.3c23.1,0,41.3,18,41.3,40.1c0,22.1-18.2,41.1-41.3,42.3
				C517.5,138.5,497.7,120.6,497.7,97.2z"/>
		</g>
		<g>
			<path class="st21" d="M501.7,97.1c0-21.2,17.9-38.4,39.5-38.4c20.9,0,37.4,16.3,37.4,36.3c0,20.1-16.5,37.2-37.4,38.3
				C519.6,134.5,501.7,118.3,501.7,97.1z"/>
		</g>
		<g>
			<path class="st9" d="M528.4,94.7h-3.5V80.6c0-5.5,4.1-10.2,9.6-10.9l7.2-0.9c3.1-0.4,6.2,0.6,8.6,2.7c2.3,2.1,3.7,5.1,3.7,8.2V92
				h-3.5V79.7c0-2.1-0.9-4.2-2.5-5.6c-1.6-1.4-3.7-2.1-5.8-1.8l-7.2,0.9c-3.7,0.5-6.5,3.6-6.5,7.4V94.7z"/>
			<path class="st9" d="M523.8,91.6l31-1.7c1.3-0.1,2.3,0.9,2.3,2.2v24.6c0,1.2-1,2.2-2.2,2.2h-30.3c-1.2,0-2.2-0.9-2.2-2.1
				l-0.7-22.9C521.7,92.6,522.6,91.6,523.8,91.6z"/>
			<path class="st28" d="M544.5,111.8l-1.9-5.4c-0.2-0.6-0.1-1.4,0.4-1.9c1-1,1.5-2.3,1.5-3.8c-0.1-2.6-2.3-4.8-4.9-4.9
				c-2.9-0.1-5.3,2.2-5.3,5.1c0,1.6,0.7,3,1.9,4c0.6,0.5,0.8,1.3,0.6,2l-1.7,4.9c-0.4,1.2,0.5,2.4,1.7,2.4h6
				C544,114.2,544.9,112.9,544.5,111.8z"/>
		</g>
	</g>
	<g>
		<g>
			<g class="st29">
				
					<linearGradient id="SVGID_16_" gradientUnits="userSpaceOnUse" x1="-53.8867" y1="9456.21" x2="43.7217" y2="9456.21" gradientTransform="matrix(-0.4445 -0.8958 0.8958 -0.4445 -8244.0029 4582.1045)">
					<stop  offset="0" style="stop-color:#FF928E"/>
					<stop  offset="1" style="stop-color:#FE7062"/>
				</linearGradient>
				<path class="st30" d="M283.1,408.6c0.4,0.8,0.1,1.8-0.6,2.2c-1.6,1.1-3.2,2.1-4.9,3c-0.8,0.4-1.8,0.1-2.2-0.7c0,0,0,0,0,0
					c-0.4-0.9-0.1-1.9,0.7-2.3c1.6-0.9,3.2-1.8,4.7-2.8c0.8-0.5,1.8-0.3,2.3,0.5C283.1,408.5,283.1,408.5,283.1,408.6z M270.1,415.2
					c0,0.1,0.1,0.1,0.1,0.2c0.3,0.9-0.1,1.9-1,2.2c-1.8,0.7-3.6,1.3-5.4,1.8c-0.9,0.2-1.8-0.3-2-1.2c-0.2-0.9,0.3-1.9,1.2-2.1
					c1.7-0.5,3.5-1,5.1-1.7C268.9,414.1,269.7,414.4,270.1,415.2z M256,418.7c0.1,0.2,0.1,0.4,0.2,0.6c0.1,1-0.5,1.8-1.5,1.9
					c-1.9,0.2-3.8,0.4-5.7,0.4c-0.9,0-1.7-0.7-1.7-1.7c0-1,0.7-1.8,1.6-1.8c1.8-0.1,3.6-0.2,5.4-0.4
					C255.1,417.6,255.7,418,256,418.7z M241.5,418.8c0.1,0.3,0.2,0.6,0.2,1c-0.1,1-0.9,1.7-1.8,1.5c-1.9-0.2-3.8-0.5-5.6-0.9
					c-0.9-0.2-1.5-1.1-1.3-2.1c0.2-0.9,1-1.6,1.9-1.4c1.8,0.4,3.5,0.6,5.3,0.9C240.8,417.9,241.3,418.2,241.5,418.8z M227.4,415.4
					c0.2,0.4,0.2,0.9,0.1,1.3c-0.3,0.9-1.2,1.4-2.1,1.1c-1.8-0.6-3.6-1.4-5.3-2.2c-0.8-0.4-1.2-1.4-0.9-2.3c0.4-0.9,1.4-1.3,2.2-0.9
					c1.6,0.8,3.3,1.5,5,2.1C226.9,414.7,227.2,415,227.4,415.4z M214.3,408.9c0.2,0.5,0.2,1.2-0.1,1.7c-0.5,0.8-1.5,1.1-2.3,0.6
					c-1.6-1-3.2-2.2-4.7-3.3c-0.7-0.6-0.9-1.7-0.3-2.4c0.5-0.8,1.6-0.9,2.3-0.4c1.4,1.1,2.9,2.2,4.5,3.2
					C214,408.4,214.2,408.6,214.3,408.9z M183.6,353.4c0.1,0.2,0.2,0.5,0.2,0.7c0.1,1.9,0.2,3.8,0.4,5.6c0.1,1-0.5,1.8-1.4,1.9
					c-0.9,0.1-1.7-0.6-1.9-1.5c-0.2-2-0.4-4-0.4-5.9c0-1,0.7-1.8,1.6-1.8C182.7,352.4,183.3,352.8,183.6,353.4z M202.9,399.5
					c0.3,0.6,0.2,1.5-0.3,2c-0.6,0.7-1.7,0.7-2.4,0c-1.3-1.4-2.6-2.9-3.9-4.4c-0.6-0.7-0.5-1.8,0.2-2.5c0.7-0.6,1.7-0.5,2.3,0.2
					c1.2,1.4,2.4,2.8,3.7,4.1C202.7,399.2,202.8,399.3,202.9,399.5z M185.7,368.4c0,0.1,0.1,0.2,0.1,0.3c0.5,1.8,1,3.6,1.6,5.4
					c0.3,0.9-0.1,1.9-1,2.2c-0.9,0.3-1.8-0.1-2.1-1.1c-0.6-1.9-1.2-3.8-1.7-5.7c-0.2-0.9,0.3-1.9,1.2-2.1
					C184.6,367.3,185.4,367.7,185.7,368.4z M193.8,387.7c0.4,0.8,0.1,1.8-0.6,2.2c-0.8,0.5-1.8,0.3-2.3-0.5c-1-1.7-2-3.4-2.8-5.2
					c0,0,0,0,0,0c-0.4-0.8-0.1-1.9,0.7-2.3c0.8-0.4,1.8-0.1,2.2,0.7c0.8,1.7,1.7,3.3,2.7,4.9C193.7,387.5,193.8,387.6,193.8,387.7z"
					/>
				
					<linearGradient id="SVGID_17_" gradientUnits="userSpaceOnUse" x1="48.6055" y1="9432.3291" x2="54.4031" y2="9432.3291" gradientTransform="matrix(-0.4445 -0.8958 0.8958 -0.4445 -8244.0029 4582.1045)">
					<stop  offset="0" style="stop-color:#FF928E"/>
					<stop  offset="1" style="stop-color:#FE7062"/>
				</linearGradient>
				<path class="st31" d="M184.2,341.1c0.1,0.3,0.2,0.7,0.2,1c-0.1,0.9-0.2,1.8-0.3,2.7c-0.1,1-0.9,1.7-1.8,1.5
					c-0.9-0.1-1.6-1-1.5-1.9c0.1-0.9,0.2-1.9,0.3-2.8c0.1-1,1-1.6,1.9-1.5C183.6,340.3,184,340.6,184.2,341.1z"/>
			</g>
			<g class="st29">
				
					<linearGradient id="SVGID_18_" gradientUnits="userSpaceOnUse" x1="79.3527" y1="9475.5752" x2="83.3623" y2="9475.5752" gradientTransform="matrix(-0.4445 -0.8958 0.8958 -0.4445 -8244.0029 4582.1045)">
					<stop  offset="0" style="stop-color:#FF928E"/>
					<stop  offset="1" style="stop-color:#FE7062"/>
				</linearGradient>
				<path class="st32" d="M210.6,295.7c0.4,0.8,0.2,1.7-0.5,2.2c-0.7,0.5-1.4,1.1-2.1,1.6c-0.7,0.6-1.8,0.5-2.3-0.3
					c-0.6-0.8-0.4-1.9,0.3-2.5c0.7-0.6,1.5-1.2,2.2-1.7c0.7-0.6,1.8-0.4,2.3,0.4C210.5,295.6,210.6,295.6,210.6,295.7z"/>
				
					<linearGradient id="SVGID_19_" gradientUnits="userSpaceOnUse" x1="-16.2185" y1="9518.6045" x2="84.4174" y2="9518.6045" gradientTransform="matrix(-0.4445 -0.8958 0.8958 -0.4445 -8244.0029 4582.1045)">
					<stop  offset="0" style="stop-color:#FF928E"/>
					<stop  offset="1" style="stop-color:#FE7062"/>
				</linearGradient>
				<path class="st33" d="M306.3,320.9c0.3,0.7,0.7,1.4,1,2.2c0.4,0.9,0,1.9-0.8,2.3s-1.8,0-2.2-0.9c-0.7-1.7-1.5-3.4-2.4-5
					c-0.4-0.8-0.2-1.9,0.6-2.4c0.8-0.5,1.8-0.2,2.3,0.7C305.3,318.8,305.8,319.9,306.3,320.9z M310.4,331.7c0,0.1,0.1,0.2,0.1,0.3
					c0.5,1.9,1,3.8,1.4,5.7c0.2,0.9-0.4,1.9-1.3,2.1c-0.9,0.2-1.8-0.4-2-1.4c-0.4-1.8-0.8-3.6-1.3-5.4c-0.3-0.9,0.2-1.9,1.1-2.2
					C309.2,330.6,310,331,310.4,331.7z M299.9,310.2c0.3,0.7,0.2,1.7-0.5,2.2c-0.7,0.6-1.8,0.4-2.3-0.3c-1.1-1.5-2.2-2.9-3.4-4.3
					c-0.6-0.7-0.6-1.8,0.1-2.5c0.7-0.6,1.7-0.6,2.3,0.1c1.2,1.5,2.4,3,3.6,4.5C299.8,310,299.9,310.1,299.9,310.2z M312.9,346.5
					c0.1,0.2,0.2,0.4,0.2,0.7c0.1,1.9,0.2,3.9,0.2,5.9c0,1-0.8,1.7-1.7,1.7c-0.9,0-1.7-0.8-1.6-1.8c0-1.8,0-3.7-0.2-5.6
					c-0.1-1,0.6-1.8,1.5-1.9C312,345.4,312.6,345.8,312.9,346.5z M290.1,299.3c0.3,0.6,0.2,1.4-0.2,1.9c-0.6,0.7-1.6,0.8-2.3,0.2
					c-1.3-1.2-2.8-2.3-4.2-3.4c-0.7-0.6-0.9-1.7-0.4-2.4c0.5-0.8,1.6-1,2.3-0.4c1.5,1.1,3,2.3,4.4,3.6
					C289.9,298.9,290,299.1,290.1,299.3z M278.3,290.9c0.2,0.5,0.2,1.1,0,1.6c-0.4,0.9-1.4,1.2-2.2,0.7c-1.6-0.9-3.2-1.7-4.8-2.4
					c-0.8-0.4-1.2-1.4-0.9-2.3c0.4-0.9,1.3-1.3,2.2-0.9c1.7,0.8,3.4,1.6,5,2.5C277.9,290.3,278.2,290.6,278.3,290.9z M265,285.4
					c0.2,0.4,0.2,0.8,0.1,1.2c-0.2,0.9-1.1,1.5-2,1.2c-1.7-0.5-3.4-0.9-5.2-1.2c-0.9-0.2-1.5-1.1-1.3-2c0.2-0.9,1-1.6,1.9-1.4
					c1.8,0.3,3.7,0.8,5.4,1.3C264.4,284.7,264.8,285,265,285.4z M250.9,283.2c0.1,0.3,0.2,0.5,0.2,0.8c0,1-0.8,1.7-1.7,1.7
					c-1.8-0.1-3.5-0.1-5.3,0c-0.9,0-1.7-0.7-1.7-1.7c0-1,0.7-1.8,1.6-1.8c1.9-0.1,3.7-0.1,5.6,0
					C250.1,282.2,250.7,282.6,250.9,283.2z M236.7,284.2c0.1,0.1,0.1,0.3,0.1,0.5c0.2,0.9-0.4,1.9-1.3,2c-1.7,0.3-3.5,0.7-5.2,1.2
					c-0.9,0.3-1.8-0.3-2-1.2c-0.2-0.9,0.3-1.9,1.2-2.1c1.8-0.5,3.6-0.9,5.4-1.3C235.7,283.1,236.4,283.5,236.7,284.2z M223,288.4
					C223.1,288.5,223.1,288.5,223,288.4c0.4,1,0,2-0.8,2.4c-1.2,0.5-2.4,1.1-3.5,1.7c-0.4,0.2-0.8,0.4-1.2,0.7
					c-0.8,0.4-1.8,0.1-2.2-0.7c-0.4-0.9-0.1-1.9,0.7-2.4c0.4-0.2,0.9-0.5,1.3-0.7c1.2-0.6,2.5-1.2,3.7-1.8
					C221.7,287.2,222.7,287.6,223,288.4z"/>
				
					<linearGradient id="SVGID_20_" gradientUnits="userSpaceOnUse" x1="-26.4785" y1="9538.0127" x2="-20.7526" y2="9538.0127" gradientTransform="matrix(-0.4445 -0.8958 0.8958 -0.4445 -8244.0029 4582.1045)">
					<stop  offset="0" style="stop-color:#FF928E"/>
					<stop  offset="1" style="stop-color:#FE7062"/>
				</linearGradient>
				<path class="st34" d="M312.4,361.5c0.1,0.3,0.2,0.7,0.2,1c-0.1,0.9-0.3,1.9-0.5,2.8c-0.2,0.9-1,1.6-1.9,1.4
					c-0.9-0.2-1.5-1.1-1.3-2.1c0.2-0.9,0.3-1.8,0.4-2.7c0.1-1,1-1.6,1.9-1.5C311.7,360.6,312.1,361,312.4,361.5z"/>
			</g>
			<g>
				<path class="st21" d="M294.1,368.3c0.1-0.3,0.1-0.7-0.2-0.9l-6.9-6.8c0.9-4.6,1-9.3,0.4-14l7.3-6.3c0.3-0.2,0.3-0.6,0.2-0.9
					l-4-11.2c-0.1-0.3-0.4-0.5-0.7-0.5l-9.4,0.3c-2.5-4-5.6-7.4-9.1-10.2l0.9-9.9c0-0.3-0.2-0.7-0.5-0.8l-10.3-4.9
					c-0.3-0.1-0.7-0.1-0.9,0.2l-6.5,7.2c-4.3-0.9-8.8-1.1-13.3-0.5l-6-7.7c-0.2-0.3-0.6-0.4-0.9-0.2l-10.6,4.2
					c-0.3,0.1-0.5,0.4-0.5,0.8l0.3,9.9c-3.8,2.7-7,5.9-9.7,9.6l-9.4-0.9c-0.3,0-0.6,0.2-0.8,0.5l-4.7,10.8c-0.1,0.3-0.1,0.7,0.2,0.9
					l6.9,6.8c-0.9,4.6-1,9.3-0.4,14L198,364c-0.3,0.2-0.3,0.6-0.2,0.9l4,11.2c0.1,0.3,0.4,0.5,0.7,0.5l9.4-0.3
					c2.5,4,5.6,7.4,9.1,10.2l-0.9,9.9c0,0.3,0.2,0.7,0.5,0.8l10.3,4.9c0.3,0.1,0.7,0.1,0.9-0.2l6.5-7.2c4.3,0.9,8.8,1.1,13.3,0.5
					l6,7.7c0.2,0.3,0.6,0.4,0.9,0.2l10.6-4.2c0.3-0.1,0.5-0.4,0.5-0.8l-0.3-9.9c3.8-2.7,7-5.9,9.7-9.6l9.4,0.9
					c0.3,0,0.6-0.2,0.8-0.5L294.1,368.3z"/>
				<path class="st35" d="M256.6,346.8c2.5,5.2,1,11.7-3.7,15.2c-5.2,3.8-12.3,2.4-15.9-3c-1.7-2.6-2.4-5.8-1.9-9
					c0.5-3.1,2.2-5.9,4.7-7.7c5.2-3.8,12.3-2.4,15.9,3C256,345.8,256.3,346.3,256.6,346.8z M238.5,356.1c0.2,0.4,0.4,0.8,0.7,1.2
					c2.8,4.2,8.2,5.2,12.2,2.3c4-2.9,4.9-8.6,2.2-12.8c-2.8-4.2-8.2-5.2-12.2-2.3c-1.9,1.4-3.2,3.5-3.6,5.9
					C237.4,352.4,237.7,354.4,238.5,356.1z"/>
				<path class="st35" d="M271.2,338.9c0.4,0.9,0.8,1.8,1.2,2.8l0,0c0.1,0.3,0.2,0.6,0.3,0.9c0.5,1.5,0.9,3,1.1,4.6c0,0,0,0,0,0.1
					c0,0.1,0,0.1,0,0.2c0,0.1,0,0.2,0.1,0.4c0,0.3-0.1,0.6-0.4,0.7c-0.1,0-0.1,0.1-0.2,0.1c-0.4,0.1-0.7-0.2-0.8-0.6
					c-0.3-2-0.8-3.9-1.4-5.8c-3.3-9.3-10.9-15.7-19.6-17.6c-4.8-1.1-9.9-0.8-14.9,1.2c-0.9,0.3-1.7,0.7-2.5,1.1
					c-5.5,2.9-9.8,7.6-12.4,13.5c-2.9,6.8-3.2,14.4-0.7,21.5c5.2,14.5,20.6,21.9,34.4,16.4c0.8-0.3,1.7-0.7,2.5-1.1
					c3.5-1.8,6.6-4.4,9-7.6c0.1-0.1,0.1-0.1,0.2-0.2c0.2-0.1,0.5-0.1,0.7,0.1c0.3,0.2,0.3,0.7,0.1,1c-2.6,3.4-5.8,6.1-9.5,8
					c-0.8,0.4-1.7,0.8-2.6,1.2c-14.5,5.7-30.7-2-36.1-17.2c-2.6-7.4-2.4-15.4,0.7-22.5c2.7-6.2,7.2-11.2,13-14.2
					c0.9-0.4,1.7-0.8,2.6-1.2c7-2.8,14.6-2.5,21.5,0.8C263.6,328,268.4,332.8,271.2,338.9z"/>
			</g>
		</g>
		<g>
			<g class="st29">
				
					<linearGradient id="SVGID_21_" gradientUnits="userSpaceOnUse" x1="-111.7238" y1="9534.209" x2="-108.8602" y2="9534.209" gradientTransform="matrix(-0.4445 -0.8958 0.8958 -0.4445 -8244.0029 4582.1045)">
					<stop  offset="0" style="stop-color:#FF928E"/>
					<stop  offset="1" style="stop-color:#FE7062"/>
				</linearGradient>
				<path class="st36" d="M347.7,441.6c0.2,0.4,0.1,0.9-0.2,1.3c-0.6,0.6-1.3,1.2-2,1.8c-0.4,0.4-1.1,0.3-1.4-0.2
					c-0.4-0.5-0.3-1.1,0.1-1.5c0.6-0.6,1.3-1.1,1.9-1.7c0.4-0.4,1.1-0.4,1.5,0.1C347.6,441.4,347.6,441.5,347.7,441.6z"/>
				
					<linearGradient id="SVGID_22_" gradientUnits="userSpaceOnUse" x1="-113.058" y1="9503.9492" x2="-58.696" y2="9503.9492" gradientTransform="matrix(-0.4445 -0.8958 0.8958 -0.4445 -8244.0029 4582.1045)">
					<stop  offset="0" style="stop-color:#FF928E"/>
					<stop  offset="1" style="stop-color:#FE7062"/>
				</linearGradient>
				<path class="st37" d="M341.4,446.6c0.2,0.5,0.1,1.1-0.4,1.4c-1.3,0.8-2.6,1.6-3.9,2.3c-0.3,0.1-0.6,0.3-0.9,0.4
					c-0.5,0.3-1.1,0-1.4-0.5c-0.2-0.5,0-1.2,0.5-1.4c0.3-0.1,0.5-0.3,0.8-0.4c1.3-0.7,2.5-1.4,3.8-2.2
					C340.4,445.9,341,446,341.4,446.6C341.4,446.6,341.4,446.6,341.4,446.6z M331.7,451.4c0,0,0,0.1,0.1,0.1
					c0.2,0.6-0.1,1.2-0.7,1.4c-1.7,0.6-3.5,1.1-5.3,1.4c-0.6,0.1-1.1-0.3-1.2-0.9c-0.1-0.6,0.3-1.2,0.8-1.3c1.7-0.3,3.4-0.8,5-1.4
					C331,450.7,331.5,450.9,331.7,451.4z M321.3,453.5c0.1,0.1,0.1,0.3,0.1,0.4c0,0.6-0.4,1.1-1,1.2c-1.8,0.1-3.7,0.1-5.5,0
					c-0.6,0-1-0.5-1-1.1c0-0.6,0.5-1.1,1.1-1c1.7,0.1,3.5,0.1,5.2,0C320.7,452.9,321.1,453.2,321.3,453.5z M310.6,452.9
					c0.1,0.2,0.1,0.4,0.1,0.7c-0.1,0.6-0.6,1-1.2,0.9c-1.8-0.3-3.6-0.8-5.3-1.4c-0.5-0.2-0.8-0.8-0.7-1.4c0.2-0.6,0.7-0.9,1.3-0.7
					c1.7,0.5,3.4,1,5.1,1.3C310.2,452.4,310.5,452.6,310.6,452.9z M300.4,449.6c0.1,0.3,0.1,0.6,0,0.9c-0.2,0.5-0.8,0.8-1.4,0.5
					c-1.7-0.8-3.3-1.7-4.8-2.7c-0.5-0.3-0.6-1-0.3-1.5c0.3-0.5,0.9-0.7,1.4-0.4c1.5,0.9,3,1.8,4.6,2.6
					C300.2,449.2,300.3,449.4,300.4,449.6z M291.3,443.8c0.2,0.4,0.1,0.8-0.1,1.1c-0.4,0.5-1,0.5-1.4,0.2c-1.4-1.2-2.8-2.5-4.1-3.8
					c-0.4-0.4-0.4-1.1,0-1.5c0.4-0.4,1.1-0.4,1.5,0c1.2,1.3,2.5,2.5,3.9,3.7C291.2,443.5,291.3,443.6,291.3,443.8z M283.8,435.8
					c0.2,0.5,0.1,1-0.3,1.3c-0.4,0.4-1.1,0.3-1.4-0.2c-1.1-1.5-2.1-3.1-3.1-4.8c-0.3-0.5-0.1-1.2,0.4-1.5c0.5-0.3,1.1-0.1,1.4,0.4
					c0.9,1.6,1.9,3.1,2.9,4.5C283.8,435.7,283.8,435.7,283.8,435.8z M276.6,420.8c0,0.1,0,0.1,0.1,0.2c0.4,1.5,0.9,3,1.5,4.5
					c0.1,0.2,0.2,0.4,0.3,0.7c0.2,0.5,0,1.2-0.5,1.4c-0.5,0.2-1.1,0-1.4-0.6c-0.1-0.2-0.2-0.5-0.3-0.7c-0.6-1.5-1.1-3.1-1.6-4.7
					c-0.2-0.6,0.2-1.2,0.7-1.3C275.9,420.1,276.4,420.4,276.6,420.8z"/>
			</g>
			<g class="st29">
				
					<linearGradient id="SVGID_23_" gradientUnits="userSpaceOnUse" x1="-87.6811" y1="9556.0039" x2="-25.0737" y2="9556.0039" gradientTransform="matrix(-0.4445 -0.8958 0.8958 -0.4445 -8244.0029 4582.1045)">
					<stop  offset="0" style="stop-color:#FF928E"/>
					<stop  offset="1" style="stop-color:#FE7062"/>
				</linearGradient>
				<path class="st38" d="M356.7,387.4c0.2,0.5,0,1.2-0.5,1.4c-0.5,0.3-1.1,0.1-1.4-0.5c-0.8-1.6-1.7-3.2-2.6-4.6
					c-0.3-0.5-0.2-1.2,0.3-1.5c0.5-0.3,1.1-0.2,1.4,0.3C355,384,355.9,385.7,356.7,387.4C356.7,387.4,356.7,387.4,356.7,387.4z
					 M358.8,392.4c0,0,0,0.1,0,0.1c0.6,1.8,1.1,3.6,1.6,5.4c0.1,0.6-0.2,1.2-0.8,1.3c-0.6,0.1-1.1-0.2-1.2-0.8
					c-0.4-1.7-0.9-3.5-1.5-5.2c-0.2-0.6,0.1-1.2,0.6-1.4C358.1,391.7,358.6,391.9,358.8,392.4z M350.8,378.2c0.2,0.4,0.1,1-0.2,1.3
					c-0.4,0.4-1.1,0.3-1.4-0.1c-1.1-1.4-2.3-2.6-3.6-3.8c-0.4-0.4-0.5-1.1-0.1-1.5c0.4-0.4,1-0.5,1.5-0.1c1.3,1.3,2.6,2.6,3.8,4
					C350.7,378.1,350.8,378.2,350.8,378.2z M361.3,403.2c0.1,0.1,0.1,0.2,0.1,0.4c0.2,1.9,0.3,3.8,0.3,5.6c0,0.6-0.5,1.1-1,1.1
					c-0.6,0-1-0.5-1-1.1c0-1.8-0.1-3.6-0.3-5.4c-0.1-0.6,0.3-1.1,0.9-1.2C360.7,402.5,361.1,402.8,361.3,403.2z M343,370.9
					c0.2,0.3,0.1,0.8-0.1,1.1c-0.3,0.5-1,0.6-1.4,0.3c-1.4-1-2.9-2-4.4-2.8c-0.5-0.3-0.7-0.9-0.4-1.5c0.3-0.5,0.9-0.7,1.4-0.4
					c1.6,0.9,3.1,1.9,4.6,3C342.8,370.6,342.9,370.7,343,370.9z M333.8,365.7c0.1,0.3,0.1,0.6,0,0.9c-0.2,0.6-0.8,0.8-1.3,0.6
					c-1.6-0.6-3.2-1.2-4.9-1.6c-0.6-0.1-0.9-0.7-0.7-1.3c0.1-0.6,0.7-0.9,1.2-0.8c1.7,0.5,3.5,1,5.1,1.7
					C333.5,365.3,333.6,365.4,333.8,365.7z M323.6,363c0.1,0.2,0.1,0.4,0.1,0.6c-0.1,0.6-0.6,1-1.1,0.9c-1.7-0.2-3.4-0.4-5.1-0.4
					c-0.6,0-1-0.5-1-1.1c0-0.6,0.5-1.1,1-1.1c1.8,0,3.6,0.1,5.4,0.4C323.1,362.4,323.4,362.7,323.6,363z"/>
				
					<linearGradient id="SVGID_24_" gradientUnits="userSpaceOnUse" x1="-94.6851" y1="9558.9531" x2="-90.3487" y2="9558.9531" gradientTransform="matrix(-0.4445 -0.8958 0.8958 -0.4445 -8244.0029 4582.1045)">
					<stop  offset="0" style="stop-color:#FF928E"/>
					<stop  offset="1" style="stop-color:#FE7062"/>
				</linearGradient>
				<path class="st39" d="M361.2,414.2c0.1,0.2,0.1,0.4,0.1,0.6c-0.1,0.9-0.3,1.8-0.4,2.7c-0.1,0.6-0.6,1-1.2,0.9
					c-0.6-0.1-0.9-0.7-0.8-1.3c0.2-0.8,0.3-1.7,0.4-2.6c0.1-0.6,0.6-1,1.2-0.9C360.7,413.7,361,413.9,361.2,414.2z"/>
			</g>
			<g>
				<path class="st21" d="M348.9,419.6c0.1-0.2,0-0.5-0.1-0.6l-4.6-4.6c0.6-3,0.7-6.2,0.3-9.4l4.9-4.2c0.2-0.1,0.2-0.4,0.2-0.6
					l-2.7-7.5c-0.1-0.2-0.3-0.4-0.5-0.4l-6.3,0.2c-1.7-2.7-3.8-5-6.1-6.9l0.6-6.6c0-0.2-0.1-0.5-0.3-0.5l-6.9-3.3
					c-0.2-0.1-0.4,0-0.6,0.1l-4.3,4.8c-2.9-0.6-5.9-0.7-8.9-0.3l-4-5.1c-0.1-0.2-0.4-0.2-0.6-0.2l-7.1,2.8c-0.2,0.1-0.3,0.3-0.3,0.5
					l0.2,6.6c-2.5,1.8-4.7,3.9-6.5,6.4l-6.3-0.6c-0.2,0-0.4,0.1-0.5,0.3l-3.1,7.3c-0.1,0.2,0,0.5,0.1,0.6l4.6,4.6
					c-0.6,3-0.7,6.2-0.3,9.4l-4.9,4.2c-0.2,0.1-0.2,0.4-0.2,0.6l2.7,7.5c0.1,0.2,0.3,0.4,0.5,0.4l6.3-0.2c1.7,2.7,3.8,5,6.1,6.9
					l-0.6,6.6c0,0.2,0.1,0.5,0.3,0.5l6.9,3.3c0.2,0.1,0.4,0,0.6-0.1l4.3-4.8c2.9,0.6,5.9,0.7,8.9,0.3l4,5.1c0.1,0.2,0.4,0.2,0.6,0.2
					l7.1-2.8c0.2-0.1,0.3-0.3,0.3-0.5l-0.2-6.6c2.5-1.8,4.7-3.9,6.5-6.4l6.3,0.6c0.2,0,0.4-0.1,0.5-0.3L348.9,419.6z"/>
				<path class="st35" d="M323.9,405.1c0.7,1.6,1,3.3,0.7,5.1c-0.4,2.1-1.5,4-3.2,5.2c-3.5,2.6-8.4,1.6-10.8-2.1
					c-2.4-3.7-1.6-8.8,1.9-11.4c1.7-1.2,3.8-1.7,5.8-1.3c2,0.4,3.8,1.6,5,3.4C323.6,404.4,323.8,404.8,323.9,405.1z M311.8,411.4
					c0.1,0.3,0.3,0.5,0.4,0.8c1.8,2.7,5.4,3.4,8,1.5c1.3-0.9,2.1-2.3,2.4-3.9c0.3-1.6-0.1-3.2-0.9-4.5l0,0c-0.9-1.3-2.2-2.2-3.7-2.5
					c-1.5-0.3-3,0.1-4.3,1C311.3,405.5,310.6,408.8,311.8,411.4z"/>
				<path class="st35" d="M334.1,399.6c0.3,0.6,0.6,1.2,0.8,1.9c0.5,1.3,0.8,2.6,1,4c0,0.1,0,0.1,0,0.2c0.1,0.5-0.2,0.9-0.6,1.1
					c-0.1,0-0.2,0.1-0.3,0.1c-0.6,0.1-1.1-0.3-1.2-0.9c-0.2-1.3-0.5-2.5-0.9-3.7l0,0c0-0.1,0-0.1-0.1-0.2c-1.1-2.9-2.7-5.3-4.9-7.3
					c-1.2-1-2.5-1.9-3.9-2.6c0,0,0,0,0,0c0,0-0.1,0-0.1-0.1c-4.2-2-8.9-2.2-13.2-0.5c-0.6,0.2-1.1,0.5-1.6,0.7
					c-3.6,1.8-6.4,4.9-8,8.7c-1.9,4.4-2.1,9.4-0.4,13.9c1.6,4.5,4.8,8.2,9.1,10.2c4.2,2,8.9,2.2,13.2,0.5c0.6-0.2,1.1-0.5,1.6-0.7
					c2.3-1.2,4.3-2.9,5.8-4.9c0.1-0.1,0.2-0.2,0.3-0.3c0.3-0.2,0.8-0.1,1.1,0.1c0.4,0.4,0.5,1,0.2,1.5c-1.8,2.3-4,4.2-6.5,5.5
					c-0.6,0.3-1.2,0.6-1.8,0.8c-4.8,1.9-10.1,1.7-14.8-0.5c-4.7-2.2-8.3-6.3-10.1-11.4c-1.8-5.1-1.7-10.6,0.5-15.5
					c1.9-4.3,5-7.7,9-9.8c0.6-0.3,1.2-0.6,1.8-0.8C319.3,386,329.8,390.4,334.1,399.6z"/>
			</g>
		</g>
	</g>
</g>
</svg>
