<?xml version="1.0"?>
<svg xmlns="http://www.w3.org/2000/svg" xmlns:xlink="http://www.w3.org/1999/xlink" xmlns:svgjs="http://svgjs.com/svgjs" version="1.1" width="512" height="512" x="0" y="0" viewBox="0 0 64 64" style="enable-background:new 0 0 512 512" xml:space="preserve" class=""><g><g xmlns="http://www.w3.org/2000/svg" id="detail"><path d="m54 3v58h-1c-3.31 0-8-2.69-8-6h-35v-48a4 4 0 0 1 4-4z" fill="#e6ebdd" data-original="#ebe5dd" style="" class=""/><path d="m54 3v58h-1a8.564 8.564 0 0 1 -3-.6v-57.4z" fill="#a9c091" data-original="#c0ab91" style="" class=""/><circle cx="32" cy="22" fill="#3f903f" r="15" data-original="#ffde55" style="" class=""/><path d="m47 22a15.005 15.005 0 0 1 -15 15 14.6 14.6 0 0 1 -2-.14 14.993 14.993 0 0 0 0-29.72 14.6 14.6 0 0 1 2-.14 15.005 15.005 0 0 1 15 15z" fill="#266826" data-original="#ebbf00" style="" class=""/><path d="m53 61h-44a6.009 6.009 0 0 1 -6-6h42c0 3.31 4.69 6 8 6z" fill="#c6c5ca" data-original="#c6c5ca" style="" class=""/><path d="m53 61h-4c-3.31 0-8-2.69-8-6h4c0 3.31 4.69 6 8 6z" fill="#acabb1" data-original="#acabb1" style="" class=""/><path d="m61 9h-7v-6h1a6 6 0 0 1 6 6z" fill="#c6c5ca" data-original="#c6c5ca" style="" class=""/><path d="m53 61h-44a6.009 6.009 0 0 1 -6-6h42c0 3.31 4.69 6 8 6z" fill="#7da766" data-original="#a78966" style="" class=""/><path d="m61 9h-7v-6h1a6 6 0 0 1 6 6z" fill="#7da766" data-original="#a78966" style="" class=""/><path d="m40 15v14h-16v-14h4v6l4-2 4 2v-6z" fill="#a9c091" data-original="#c0ab91" style="" class=""/><path d="m36 15v6l-4-2-4 2v-6z" fill="#ff7956" data-original="#ff7956" style="" class=""/><path d="m13 44h2v2h-2z" fill="#000000" data-original="#000000" style="" class=""/><path d="m17 44h34v2h-34z" fill="#000000" data-original="#000000" style="" class=""/><path d="m13 40h2v2h-2z" fill="#000000" data-original="#000000" style="" class=""/><path d="m17 40h34v2h-34z" fill="#000000" data-original="#000000" style="" class=""/><path d="m13 48h2v2h-2z" fill="#000000" data-original="#000000" style="" class=""/><path d="m17 48h34v2h-34z" fill="#000000" data-original="#000000" style="" class=""/><path d="m55 2h-41a5 5 0 0 0 -5 5v47h-6a1 1 0 0 0 -1 1 7.008 7.008 0 0 0 7 7h45a1 1 0 0 0 1-1v-51h6a1 1 0 0 0 1-1 7.008 7.008 0 0 0 -7-7zm-46 58a5.009 5.009 0 0 1 -4.9-4h40.01a6.945 6.945 0 0 0 3 4zm44 0c-2.99 0-7-2.47-7-5a1 1 0 0 0 -1-1h-34v-47a3.009 3.009 0 0 1 3-3h39zm2-52v-4a5.009 5.009 0 0 1 4.9 4z" fill="#000000" data-original="#000000" style="" class=""/><path d="m32 6a16 16 0 1 0 16 16 16.021 16.021 0 0 0 -16-16zm0 30a14 14 0 1 1 14-14 14.015 14.015 0 0 1 -14 14z" fill="#000000" data-original="#000000" style="" class=""/><path d="m40 14h-16a1 1 0 0 0 -1 1v14a1 1 0 0 0 1 1h16a1 1 0 0 0 1-1v-14a1 1 0 0 0 -1-1zm-11 2h6v3.38l-2.55-1.27a.956.956 0 0 0 -.9 0l-2.55 1.27zm10 12h-14v-12h2v5a1 1 0 0 0 1.45.89l3.55-1.77 3.55 1.77a1.03 1.03 0 0 0 .45.11 1.014 1.014 0 0 0 .53-.15 1 1 0 0 0 .47-.85v-5h2z" fill="#000000" data-original="#000000" style="" class=""/></g></g></svg>
