<?xml version="1.0" encoding="utf-8"?>
<!-- Generator: Adobe Illustrator 24.3.0, SVG Export Plug-In . SVG Version: 6.00 Build 0)  -->
<svg version="1.1" id="Layer_1" xmlns="http://www.w3.org/2000/svg" xmlns:xlink="http://www.w3.org/1999/xlink" x="0px" y="0px"
	 viewBox="0 0 750 500" style="enable-background:new 0 0 750 500;" xml:space="preserve">
<style type="text/css">
	.st0{fill:url(#SVGID_1_);}
	.st1{fill:url(#SVGID_2_);}
	.st2{fill:#BDD0FB;}
	.st3{fill:url(#SVGID_3_);}
	.st4{fill:#91B3FA;}
	.st5{fill:#7D97F4;}
	.st6{fill:url(#SVGID_4_);}
	.st7{filter:url(#Adobe_OpacityMaskFilter);}
	.st8{filter:url(#Adobe_OpacityMaskFilter_1_);}
	.st9{mask:url(#SVGID_5_);fill:url(#SVGID_6_);}
	.st10{opacity:0.53;fill:url(#SVGID_7_);}
	.st11{fill:url(#SVGID_8_);}
	.st12{fill:url(#SVGID_9_);}
	.st13{fill:url(#SVGID_10_);}
	.st14{fill:url(#SVGID_11_);}
	.st15{fill:url(#SVGID_12_);}
	.st16{opacity:0.78;fill:#FFFFFF;}
	.st17{fill:url(#SVGID_13_);}
	.st18{fill:url(#SVGID_14_);}
	.st19{fill:url(#SVGID_15_);}
	.st20{fill:#FFFFFF;}
	.st21{fill:url(#SVGID_16_);}
	.st22{fill:url(#SVGID_17_);}
	.st23{fill:url(#SVGID_18_);}
	.st24{fill:url(#SVGID_19_);}
	.st25{fill:url(#SVGID_20_);}
	.st26{fill:url(#SVGID_21_);}
	.st27{fill:url(#SVGID_22_);}
	.st28{fill:url(#SVGID_23_);}
	.st29{fill:url(#SVGID_24_);}
	.st30{fill:url(#SVGID_25_);}
	.st31{fill:url(#SVGID_26_);}
	.st32{fill:url(#SVGID_27_);}
	.st33{fill:url(#SVGID_28_);}
	.st34{fill:url(#SVGID_29_);}
	.st35{fill:url(#SVGID_30_);}
	.st36{fill:url(#SVGID_31_);}
	.st37{fill:url(#SVGID_32_);}
	.st38{fill:url(#SVGID_33_);}
	.st39{fill:url(#SVGID_34_);}
	.st40{fill:url(#SVGID_35_);}
	.st41{fill:url(#SVGID_36_);}
	.st42{fill:url(#SVGID_37_);}
	.st43{fill:url(#SVGID_38_);}
	.st44{fill:url(#SVGID_39_);}
	.st45{fill:url(#SVGID_40_);}
	.st46{fill:url(#SVGID_41_);}
	.st47{fill:url(#SVGID_42_);}
	.st48{fill:url(#SVGID_43_);}
	.st49{fill:url(#SVGID_44_);}
	.st50{fill:url(#SVGID_45_);}
	.st51{fill:url(#SVGID_46_);}
	.st52{fill:url(#SVGID_47_);}
	.st53{fill:url(#SVGID_48_);}
	.st54{fill:url(#SVGID_49_);}
	.st55{fill:url(#SVGID_50_);}
	.st56{fill:url(#SVGID_51_);}
	.st57{fill:#17A3B6;}
	.st58{fill:url(#SVGID_52_);}
	.st59{fill:url(#SVGID_53_);}
	.st60{fill:url(#SVGID_54_);}
	.st61{fill:url(#SVGID_55_);}
	.st62{fill:url(#SVGID_56_);}
	.st63{fill:url(#SVGID_57_);}
	.st64{fill:url(#SVGID_58_);}
	.st65{fill:url(#SVGID_59_);}
	.st66{fill:#111E37;}
</style>
<g>
	<linearGradient id="SVGID_1_" gradientUnits="userSpaceOnUse" x1="618.2558" y1="499.5414" x2="332.4569" y2="195.3039">
		<stop  offset="0" style="stop-color:#DAE3FE"/>
		<stop  offset="1" style="stop-color:#E9EFFD"/>
	</linearGradient>
	<path class="st0" d="M532.4,377.5c-10.6,10.9-20,17.3-27.2,22.1c-70.5,47.1-151.1,33.5-176,28.9C289,421,255.1,415.7,226,389.3
		c-66.2-59.8-63-184.7-12.4-262c6-9.2,56.5-84.1,137.3-94.6c2-0.3,3.4-0.4,4.7-0.5c12.5-1.3,89.9-8.3,153,44.6
		c9,7.6,23.6,21.2,37.1,42C595,194.9,595.1,312.9,532.4,377.5z"/>
	<g>
		<linearGradient id="SVGID_2_" gradientUnits="userSpaceOnUse" x1="467.9969" y1="292.2684" x2="559.7163" y2="292.2684">
			<stop  offset="0" style="stop-color:#4F52FF"/>
			<stop  offset="1" style="stop-color:#4042E2"/>
		</linearGradient>
		<path class="st1" d="M494.2,178.1l36-8.4c0,0,24-2.2,27.3,19.2s2.3,148,1.3,174.1c-0.3,8.6-0.3,16.6,0.4,23.5
			c1.5,14.4-9.7,27.1-24.3,27.3l-66.9,1.2L494.2,178.1z"/>
		<g>
			<path class="st2" d="M475.1,425.2c0,0,7.2-100.7,58.3-162.1c0.7-0.8,1.8-0.6,2.2,0.4C541.1,279,572.4,379,475.1,425.2z"/>
			<linearGradient id="SVGID_3_" gradientUnits="userSpaceOnUse" x1="477.09" y1="356.2126" x2="531.1597" y2="356.2126">
				<stop  offset="0" style="stop-color:#DAE3FE"/>
				<stop  offset="1" style="stop-color:#E9EFFD"/>
			</linearGradient>
			<path class="st3" d="M531.2,292.3c-0.4,5.9-1.3,11.7-2.3,17.5c-1,5.8-2.2,11.5-3.6,17.2c-2.8,11.4-6.3,22.6-10.7,33.6
				c-2.2,5.5-4.5,10.9-7.1,16.2c-1.3,2.7-2.7,5.3-4,7.9c-1.4,2.6-2.8,5.2-4.4,7.7c-6,10.1-13,19.7-21,28.3c-0.2,0.3-0.6,0.3-0.9,0
				c-0.2-0.2-0.3-0.6-0.1-0.8l0,0c7.1-9.2,13.5-18.9,19.1-29.1c1.4-2.5,2.7-5.1,4.1-7.7c1.3-2.6,2.6-5.2,3.8-7.8
				c0.6-1.3,1.2-2.6,1.8-4l1.8-4c0.6-1.3,1.1-2.7,1.7-4c0.6-1.3,1.1-2.7,1.6-4c1.1-2.7,2.1-5.4,3.1-8.1c1-2.7,1.9-5.5,2.8-8.2
				c1.9-5.5,3.5-11.1,5.1-16.6c1.6-5.6,3-11.2,4.3-16.9c1.3-5.7,2.5-11.4,3.5-17.1l0,0c0.1-0.3,0.4-0.6,0.7-0.5
				C531,291.7,531.2,292,531.2,292.3z"/>
		</g>
		<g>
			<path class="st4" d="M481.4,414.2c0,0,52.7-88.6,110-90c1,0,1.8,0.9,1.6,1.9C590.5,337.7,573.5,398.3,481.4,414.2z"/>
			<path class="st2" d="M579.3,338.3c-3.5,3.6-7,7.2-10.7,10.6c-1.8,1.7-3.7,3.4-5.5,5.1c-1.9,1.7-3.7,3.4-5.6,5
				c-7.5,6.6-15.3,13-23.2,19.1c-3.9,3.1-8,6-12.1,9l-6.2,4.3c-1,0.7-2.1,1.4-3.1,2.1l-3.2,2.1c-8.3,5.6-17,10.6-25.8,15.5
				c-0.3,0.2-0.7,0.1-0.9-0.2c-0.2-0.3-0.1-0.7,0.2-0.9l0,0l6.5-3.8l3.2-1.9c1.1-0.6,2.1-1.3,3.2-2l6.4-4c2.1-1.4,4.2-2.8,6.2-4.1
				l3.1-2.1l3.1-2.1l6.1-4.3c4-3,8.1-5.9,12-9c4-3,7.9-6.2,11.8-9.3l5.8-4.8l5.7-4.9c1.9-1.6,3.8-3.3,5.6-5c1.9-1.7,3.7-3.4,5.5-5
				c3.7-3.4,7.3-6.8,10.8-10.4l0,0c0.2-0.2,0.6-0.3,0.9,0C579.5,337.6,579.5,338,579.3,338.3z"/>
		</g>
		<path class="st5" d="M421.1,179.8c0,0,65.5,3.6,109.1-10.1c0,0-29-2-29,64.9c0,51.1,7.6,148.8,1,167.3
			c-6.6,18.5-31.4,43.4-66.9,22C399.8,402.5,421.1,179.8,421.1,179.8z"/>
		<linearGradient id="SVGID_4_" gradientUnits="userSpaceOnUse" x1="480.6709" y1="152.3725" x2="349.9095" y2="-119.4353">
			<stop  offset="0" style="stop-color:#4042E2"/>
			<stop  offset="1" style="stop-color:#4F52FF"/>
		</linearGradient>
		<path class="st6" d="M403.7,79.5c0,0,72.2,7.9,81.5-4.4c0,0-7.4-22-29.4-20.6C433.9,56,403.7,79.5,403.7,79.5z"/>
		<path class="st4" d="M168.8,104.3c6.3,70.8,19.5,220.5,25.3,293.5c1.3,16.3,14.3,29.1,30.6,30.1c58,3.7,188.5,10.9,238.5,4.2h0
			c-11.5-5.7-18.7-17.4-18.6-30.2l2.7-327.3c0.1-11.6,11.6-19.9,22.4-15.8c6.8,2.6,12,8,15.5,16.3c-4.7-13.8-12.2-23.9-29.4-20.6
			c0,0-168.4,1.7-250.2,6.8C183.5,62.7,166.8,82.1,168.8,104.3z"/>
		<defs>
			<filter id="Adobe_OpacityMaskFilter" filterUnits="userSpaceOnUse" x="175.2" y="62" width="272.2" height="368">
				<feFlood  style="flood-color:white;flood-opacity:1" result="back"/>
				<feBlend  in="SourceGraphic" in2="back" mode="normal"/>
			</filter>
		</defs>
		<mask maskUnits="userSpaceOnUse" x="175.2" y="62" width="272.2" height="368" id="SVGID_5_">
			<g class="st7">
				<defs>
					<filter id="Adobe_OpacityMaskFilter_1_" filterUnits="userSpaceOnUse" x="175.2" y="62" width="272.2" height="368">
						<feFlood  style="flood-color:white;flood-opacity:1" result="back"/>
						<feBlend  in="SourceGraphic" in2="back" mode="normal"/>
					</filter>
				</defs>
				<mask maskUnits="userSpaceOnUse" x="175.2" y="62" width="272.2" height="368" id="SVGID_5_">
					<g class="st8">
					</g>
				</mask>
				<linearGradient id="SVGID_6_" gradientUnits="userSpaceOnUse" x1="413.6432" y1="131.3831" x2="65.1439" y2="577.3553">
					<stop  offset="0" style="stop-color:#FFFFFF"/>
					<stop  offset="1" style="stop-color:#000000"/>
				</linearGradient>
				<path class="st9" d="M210.5,70.7L436.8,62c-9.3,69.1-5.4,209.8-1.8,348.5c0.2,8.2,5,15.6,12.5,19.1l0,0c0,0-151,1.7-215.8-2.9
					c-15.3-1.1-27.7-12.6-30-27.8c-8.9-59.4-30.2-212.9-25.8-294.2C176.8,86.2,191.8,71.4,210.5,70.7z"/>
			</g>
		</mask>
		<linearGradient id="SVGID_7_" gradientUnits="userSpaceOnUse" x1="413.6432" y1="131.3831" x2="65.1439" y2="577.3553">
			<stop  offset="0" style="stop-color:#FFFFFF"/>
			<stop  offset="1" style="stop-color:#FFFFFF"/>
		</linearGradient>
		<path class="st10" d="M210.5,70.7L436.8,62c-9.3,69.1-5.4,209.8-1.8,348.5c0.2,8.2,5,15.6,12.5,19.1l0,0c0,0-151,1.7-215.8-2.9
			c-15.3-1.1-27.7-12.6-30-27.8c-8.9-59.4-30.2-212.9-25.8-294.2C176.8,86.2,191.8,71.4,210.5,70.7z"/>
		<g>
			<linearGradient id="SVGID_8_" gradientUnits="userSpaceOnUse" x1="207.4064" y1="189.1508" x2="243.5882" y2="189.1508">
				<stop  offset="0" style="stop-color:#DAE3FE"/>
				<stop  offset="1" style="stop-color:#E9EFFD"/>
			</linearGradient>
			<path class="st11" d="M207.5,177.9l2.6,25.4c0.5,4.6,4.3,8.2,9,8.4l14.8,0.6c5.3,0.2,9.8-4.1,9.8-9.4v-27.3
				c0-5.5-4.7-9.8-10.2-9.4l-17.4,1.4C210.8,168,206.9,172.6,207.5,177.9z"/>
			<linearGradient id="SVGID_9_" gradientUnits="userSpaceOnUse" x1="254.2105" y1="173.4253" x2="407.5251" y2="173.4253">
				<stop  offset="0" style="stop-color:#DAE3FE"/>
				<stop  offset="1" style="stop-color:#E9EFFD"/>
			</linearGradient>
			<path class="st12" d="M259.4,170.1c24.6-0.8,118.9-3.8,142.7-4.6c3-0.1,5.5,2.3,5.5,5.3l0,0c0,2.9-2.3,5.2-5.1,5.3l-142.6,5.3
				c-2.7,0.1-5.1-1.9-5.5-4.6l-0.1-0.7C253.9,172.9,256.2,170.2,259.4,170.1z"/>
			<linearGradient id="SVGID_10_" gradientUnits="userSpaceOnUse" x1="257.0211" y1="198.0375" x2="359.9299" y2="198.0375">
				<stop  offset="0" style="stop-color:#DAE3FE"/>
				<stop  offset="1" style="stop-color:#E9EFFD"/>
			</linearGradient>
			<path class="st13" d="M257.8,203.5L257.8,203.5c0.4,0.7,1.2,1.1,2,1.1l97.9-2.1c1.2,0,2.2-1,2.2-2.3v-6.5c0-1.3-1.1-2.3-2.3-2.3
				l-95.2,3.6C258.2,195.2,255.6,199.8,257.8,203.5z"/>
		</g>
		<g>
			<linearGradient id="SVGID_11_" gradientUnits="userSpaceOnUse" x1="207.4064" y1="259.5082" x2="243.5882" y2="259.5082">
				<stop  offset="0" style="stop-color:#DAE3FE"/>
				<stop  offset="1" style="stop-color:#E9EFFD"/>
			</linearGradient>
			<path class="st14" d="M207.5,248.2l2.6,25.4c0.5,4.6,4.3,8.2,9,8.4l14.8,0.6c5.3,0.2,9.8-4.1,9.8-9.4v-27.3
				c0-5.5-4.7-9.8-10.2-9.4l-17.4,1.4C210.8,238.3,206.9,243,207.5,248.2z"/>
			<linearGradient id="SVGID_12_" gradientUnits="userSpaceOnUse" x1="254.2105" y1="243.7829" x2="407.5251" y2="243.7829">
				<stop  offset="0" style="stop-color:#DAE3FE"/>
				<stop  offset="1" style="stop-color:#E9EFFD"/>
			</linearGradient>
			<path class="st15" d="M259.4,240.4c24.6-0.8,118.9-3.8,142.7-4.6c3-0.1,5.5,2.3,5.5,5.3v0c0,2.9-2.3,5.2-5.1,5.3l-142.6,5.3
				c-2.7,0.1-5.1-1.9-5.5-4.6l-0.1-0.7C253.9,243.3,256.2,240.5,259.4,240.4z"/>
			<path class="st16" d="M257.8,273.8L257.8,273.8c0.4,0.7,1.2,1.1,2,1.1l97.9-2.1c1.2,0,2.2-1,2.2-2.3v-6.5c0-1.3-1.1-2.3-2.3-2.3
				l-95.2,3.6C258.2,265.6,255.6,270.2,257.8,273.8z"/>
		</g>
		<g>
			<linearGradient id="SVGID_13_" gradientUnits="userSpaceOnUse" x1="207.4064" y1="329.8658" x2="243.5882" y2="329.8658">
				<stop  offset="0" style="stop-color:#DAE3FE"/>
				<stop  offset="1" style="stop-color:#E9EFFD"/>
			</linearGradient>
			<path class="st17" d="M207.5,318.6l2.6,25.4c0.5,4.6,4.3,8.2,9,8.4l14.8,0.6c5.3,0.2,9.8-4.1,9.8-9.4v-27.3
				c0-5.5-4.7-9.8-10.2-9.4l-17.4,1.4C210.8,308.7,206.9,313.4,207.5,318.6z"/>
			<linearGradient id="SVGID_14_" gradientUnits="userSpaceOnUse" x1="254.2105" y1="314.1404" x2="407.5251" y2="314.1404">
				<stop  offset="0" style="stop-color:#DAE3FE"/>
				<stop  offset="1" style="stop-color:#E9EFFD"/>
			</linearGradient>
			<path class="st18" d="M259.4,310.8c24.6-0.8,118.9-3.8,142.7-4.6c3-0.1,5.5,2.3,5.5,5.3l0,0c0,2.9-2.3,5.2-5.1,5.3l-142.6,5.3
				c-2.7,0.1-5.1-1.9-5.5-4.6l-0.1-0.7C253.9,313.7,256.2,310.9,259.4,310.8z"/>
			<linearGradient id="SVGID_15_" gradientUnits="userSpaceOnUse" x1="257.0211" y1="338.7525" x2="359.9299" y2="338.7525">
				<stop  offset="0" style="stop-color:#DAE3FE"/>
				<stop  offset="1" style="stop-color:#E9EFFD"/>
			</linearGradient>
			<path class="st19" d="M257.8,344.2L257.8,344.2c0.4,0.7,1.2,1.1,2,1.1l97.9-2.1c1.2,0,2.2-1,2.2-2.3v-6.5c0-1.3-1.1-2.3-2.3-2.3
				l-95.2,3.6C258.2,335.9,255.6,340.6,257.8,344.2z"/>
		</g>
		<path class="st20" d="M492.7,326c-0.6,0-1.1-0.5-1.1-1.1c0,0-0.1-3.5-0.4-15.4c0-0.6,0.5-1.1,1.1-1.1c0.6,0,1.1,0.5,1.1,1.1
			c0.3,11.9,0.4,15.4,0.4,15.4C493.8,325.5,493.3,326,492.7,326C492.7,326,492.7,326,492.7,326z"/>
		<path class="st20" d="M491.9,297c-0.6,0-1.1-0.5-1.1-1.1c-0.2-7.7-0.6-16.3-1-25.4c-0.5-12.2-1.1-24.9-1.4-37.1
			c-0.8-32.2,4.5-44.6,9.1-49.2c2.5-2.6,4.6-2.6,4.8-2.6c0.6,0,1.1,0.5,1.1,1.1c0,0.6-0.5,1.1-1.1,1.1c-0.3,0-12.9,1.4-11.8,49.6
			c0.3,12.2,0.8,24.8,1.4,37.1c0.4,9.1,0.8,17.6,1,25.4C493,296.5,492.5,297,491.9,297C491.9,297,491.9,297,491.9,297z"/>
		<linearGradient id="SVGID_16_" gradientUnits="userSpaceOnUse" x1="378.093" y1="314.6973" x2="329.9227" y2="438.0271">
			<stop  offset="0" style="stop-color:#09005D"/>
			<stop  offset="1" style="stop-color:#1A0F91"/>
		</linearGradient>
		<path class="st21" d="M332.2,415.7c-1.1,0-2.2-0.5-3.4-1.6c-4.3-4-5.5-10.1-5.8-15.9c-2,2.2-4.1,4.4-6.1,6.6l-1.1-1.1
			c2.4-2.5,4.8-5.1,7.1-7.8c-0.2-8,0.2-16,1.1-24c0.6-4.9,1.4-10,3.5-14.7c0.7-1.5,1.8-3.6,3.7-5c2-1.4,4.6-1.6,6.4-0.4
			c2,1.3,2.5,3.8,2.7,5.6c1.3,10.4-2.7,20-6.4,26.2c-2.7,4.6-6,8.8-9.5,12.8c0.2,6,1,12.5,5.3,16.5c0.9,0.8,1.7,1.2,2.4,1.2
			c1.2,0,2.2-1.2,3-2.4c3.7-5.2,6.5-10.9,8.5-16.9c0.2-1.8,0.7-3.6,1.5-5.3l1.4,0.5c-0.4,1.7-0.9,3.4-1.4,5.1
			c-0.2,1.7-0.1,3.4,0.2,5.1c0.2,0.9,0.9,3.9,3.1,4.3c1.6,0.3,3.3-0.9,5.2-3.8l7.7-11.7l-1,4.2c-0.3,1.5-0.9,5,1.1,5.9
			c1.2,0.5,2.4-0.2,3.9-1c1.4-0.8,2.9-1.6,4.6-1.4l0.8,0.1l-0.1,0.8c-0.1,0.5-0.7,4.4,1.4,4.9c0.9,0.2,1.7-0.4,2.9-1.5
			c0.9-0.9,1.9-1.8,3.2-2.1l0.4,1.5c-0.9,0.2-1.7,0.9-2.5,1.7c-1.2,1.1-2.5,2.3-4.3,1.9c-2.3-0.5-2.9-3.2-2.7-5.7
			c-0.9,0.1-1.9,0.7-2.8,1.2c-1.6,0.9-3.3,1.9-5.2,1.1c-1.5-0.6-2.4-2.2-2.4-4.3l-3.6,5.4c-1.4,2.2-3.7,5-6.8,4.4
			c-2.1-0.4-3.7-2.5-4.3-5.5c-0.1-0.4-0.2-0.8-0.2-1.3c-1.9,4.7-4.3,9.1-7.2,13.3c-1,1.4-2.3,3-4.2,3
			C332.3,415.7,332.3,415.7,332.2,415.7z M334.9,352.6c-1,0-2,0.4-2.8,0.9c-1.6,1.1-2.6,3-3.2,4.4c-2,4.5-2.8,9.5-3.4,14.3
			c-0.8,7.3-1.2,14.7-1.1,22.1c3-3.6,5.8-7.3,8.2-11.3c3.5-6,7.5-15.2,6.2-25.2c-0.3-2.4-1-3.8-2.1-4.5
			C336.2,352.8,335.6,352.6,334.9,352.6z"/>
		<path class="st16" d="M399.7,138.4l-180.3,5.3c-6.5,0.2-11.9-4.8-12.2-11.3l-0.7-13.5c-0.3-6.7,4.9-12.3,11.6-12.5l181.2-4.8
			c6.8-0.2,12.3,5.3,12.2,12.1l-0.2,12.9C411.1,133.1,406,138.2,399.7,138.4z"/>
	</g>
	<g>
		
			<linearGradient id="SVGID_17_" gradientUnits="userSpaceOnUse" x1="-3761.3223" y1="-11901.9883" x2="-3752.5776" y2="-11901.9883" gradientTransform="matrix(-0.9813 0.1926 -0.1926 -0.9813 -5640.4468 -10674.708)">
			<stop  offset="0" style="stop-color:#FEBBBA"/>
			<stop  offset="1" style="stop-color:#FF928E"/>
		</linearGradient>
		<path class="st22" d="M342.9,280.4c0,0-6-3.9-6.8-3c-0.3,0.3-1,1.4-1.6,2.6c-0.5,0.8-0.3,1.9,0.4,2.6l1.6,1.6
			c1.5,1.5,4,1.4,5.3-0.3C342.3,283.1,342.8,282,342.9,280.4z"/>
		<g>
			<g>
				
					<linearGradient id="SVGID_18_" gradientUnits="userSpaceOnUse" x1="-954.4724" y1="271.6633" x2="-914.6535" y2="271.6633" gradientTransform="matrix(1 0 0 1 1290.1023 0)">
					<stop  offset="0" style="stop-color:#FEBBBA"/>
					<stop  offset="1" style="stop-color:#FF928E"/>
				</linearGradient>
				<path class="st23" d="M349,272.9c0,0-2.1-5.4-4.5-4.9c-2.4,0.5-5,2.3-5,2.3l-3.9,5.2c0,0,10.9,4.3,14.7,1.8
					c0,0,11.1,1.9,25.1-0.4c-2-4.3-3.2-8.6-3.9-11.9C364.4,269.2,356.7,272.2,349,272.9z"/>
				<linearGradient id="SVGID_19_" gradientUnits="userSpaceOnUse" x1="453.7731" y1="138.0115" x2="429.5171" y2="185.8404">
					<stop  offset="0" style="stop-color:#09005D"/>
					<stop  offset="1" style="stop-color:#1A0F91"/>
				</linearGradient>
				<path class="st24" d="M407.8,233.5c0,0-15.9,20-36.3,31.6c0.7,3.3,1.9,7.6,3.9,11.9c10.6-1.7,22.9-5.9,33.3-15.1L407.8,233.5z"
					/>
			</g>
			<linearGradient id="SVGID_20_" gradientUnits="userSpaceOnUse" x1="492.5041" y1="157.6538" x2="468.2481" y2="205.4825">
				<stop  offset="0" style="stop-color:#09005D"/>
				<stop  offset="1" style="stop-color:#1A0F91"/>
			</linearGradient>
			<path class="st25" d="M427.7,322.3c-3.1-14.8-6.2-23.3-16.6-51.3c-3.3-8.8-6.3-17.7-4.8-27l1.6-10.4c0,0,20.2-6.8,42.7-0.3
				c0,0,30.6,13.3,9.8,78.9C450.9,322.7,440,325.7,427.7,322.3z"/>
			
				<linearGradient id="SVGID_21_" gradientUnits="userSpaceOnUse" x1="-865.3779" y1="231.8362" x2="-871.7631" y2="212.6806" gradientTransform="matrix(1 0 0 1 1290.1023 0)">
				<stop  offset="0" style="stop-color:#FEBBBA"/>
				<stop  offset="1" style="stop-color:#FF928E"/>
			</linearGradient>
			<path class="st26" d="M411.3,220.2l5.2,12.6c0.3,0.8,1,1.4,1.9,1.5c3,0.5,10.3,1.3,15.1-1.8c0.6-0.4,0.7-1.2,0.3-1.7l-9.7-13.9
				L411.3,220.2z"/>
			<g>
				<linearGradient id="SVGID_22_" gradientUnits="userSpaceOnUse" x1="409.8096" y1="208.3288" x2="432.7593" y2="218.3069">
					<stop  offset="0" style="stop-color:#FEBBBA"/>
					<stop  offset="1" style="stop-color:#FF928E"/>
				</linearGradient>
				<path class="st27" d="M416.7,200.9c-0.2,0.2-9.3,18-9.3,18l10.3,5l11.1-15.6C428.8,208.3,420.4,197.5,416.7,200.9z"/>
				
					<linearGradient id="SVGID_23_" gradientUnits="userSpaceOnUse" x1="3550.2507" y1="4481.3477" x2="3577.6655" y2="4481.3477" gradientTransform="matrix(-0.6854 -0.7281 -0.7281 0.6854 6122.6152 -264.4985)">
					<stop  offset="0" style="stop-color:#09005D"/>
					<stop  offset="1" style="stop-color:#1A0F91"/>
				</linearGradient>
				<path class="st28" d="M424.1,210.2l-5.1,8.6c-0.1,0.1-0.2,0.2-0.3,0.4c-0.6,0.6-2.7,2.2-4.3,0c-1.4-1.9-2.7-3.7-4.1-4.4
					c-0.8-0.4-1.8-0.1-2.2,0.7c-0.8,1.7-2.5,5.1-3.5,8.3c-0.3,0.8,0.2,1.7,1,2c2.1,0.8,6.2,2.4,9.9,2.9c0.6,0.1,1.2-0.2,1.6-0.7
					c1.6-2.2,6-8.2,7.5-9.7c1.4-1.4,4-0.9,5.2-0.5c0.4,0.1,0.9,0.1,1.3-0.2c1.2-0.7,3.3-2.5,1.4-5.5c-0.5-0.7-0.2-1.7,0.5-2.2
					c1.3-0.9,2.8-2.5,1.4-5.2c-1.4-2.7-3.9-2.9-5.5-2.7c-0.7,0.1-1.5-0.3-1.8-1c-0.1-0.3-0.4-0.6-0.8-0.7c-0.9-0.2-1.5-1-1.3-1.9
					c0.3-1.5,0.1-3.5-2.3-4.8c-4.4-2.4-8.3,1.5-9.3,4.9c-1,3.4,4,5.7,7.1,6.1c2.3,0.3,3.6,2.8,4.1,4.1
					C424.4,209.2,424.4,209.8,424.1,210.2z"/>
				<linearGradient id="SVGID_24_" gradientUnits="userSpaceOnUse" x1="408.3795" y1="211.618" x2="431.3292" y2="221.5961">
					<stop  offset="0" style="stop-color:#FEBBBA"/>
					<stop  offset="1" style="stop-color:#FF928E"/>
				</linearGradient>
				<path class="st29" d="M422.3,220.9c0,0,2.2-5.2,4.7-5c2.5,0.2,4.5,2.7,1.4,5.6C424.6,225,422.3,220.9,422.3,220.9z"/>
			</g>
			<g>
				
					<linearGradient id="SVGID_25_" gradientUnits="userSpaceOnUse" x1="1338.3679" y1="453.8179" x2="1366.8894" y2="453.8179" gradientTransform="matrix(-1 0 0 1 1791.7585 0)">
					<stop  offset="0" style="stop-color:#4042E2"/>
					<stop  offset="1" style="stop-color:#4F52FF"/>
				</linearGradient>
				<path class="st30" d="M425.7,452.4c4.9,0.4,13.4,1.1,20.1,1.4c4,0.2,6.3-0.2,7.7-0.7c0,0.2,0,0.3,0,0.4c0,0.7-0.6,1.3-1.3,1.3
					c-12.6,0.7-22.7,0.2-26.3,0c-0.7,0-1.2-0.8-0.8-1.5C425.2,453.1,425.4,452.7,425.7,452.4z"/>
				<linearGradient id="SVGID_26_" gradientUnits="userSpaceOnUse" x1="522.2328" y1="427.1334" x2="418.9594" y2="456.5688">
					<stop  offset="0" style="stop-color:#09005D"/>
					<stop  offset="1" style="stop-color:#1A0F91"/>
				</linearGradient>
				<path class="st31" d="M445.7,453.8c-6.7-0.3-15.2-1-20.1-1.4c4.8-5.9,20.1-9.9,20.1-9.9h4.3c3,4.3,3.4,8.3,3.4,10.5
					C452.1,453.6,449.7,454,445.7,453.8z"/>
				
					<linearGradient id="SVGID_27_" gradientUnits="userSpaceOnUse" x1="1341.0011" y1="440.4239" x2="1349.0352" y2="440.4239" gradientTransform="matrix(-1 0 0 1 1791.7585 0)">
					<stop  offset="0" style="stop-color:#FEBBBA"/>
					<stop  offset="1" style="stop-color:#FF928E"/>
				</linearGradient>
				<path class="st32" d="M450.8,435.5l-0.4,8c0,0.9-0.7,1.6-1.6,1.7c-0.9,0.1-2,0.1-3.2-0.3c-0.8-0.3-1.3-0.9-1.4-1.7l-1.4-7.8
					H450.8z"/>
			</g>
			<g>
				<g>
					
						<linearGradient id="SVGID_28_" gradientUnits="userSpaceOnUse" x1="1281.5081" y1="453.2028" x2="1292.4379" y2="453.2028" gradientTransform="matrix(-1 0 0 1 1791.7585 0)">
						<stop  offset="0" style="stop-color:#4042E2"/>
						<stop  offset="1" style="stop-color:#4F52FF"/>
					</linearGradient>
					<path class="st33" d="M506.7,453.8c2.1-0.3,3.1-1.4,3.5-2.6c0,0,0,0,0,0c0.3,1.2-0.4,2.5-1.9,3.1c-1.7,0.7-3.7,0.9-5.1,0.8
						c-1.6-0.1-3.1-0.7-3.9-1.8l0,0C500.9,454.2,503.2,454.3,506.7,453.8z"/>
					<linearGradient id="SVGID_29_" gradientUnits="userSpaceOnUse" x1="464.6595" y1="421.1507" x2="529.0183" y2="463.0587">
						<stop  offset="0" style="stop-color:#09005D"/>
						<stop  offset="1" style="stop-color:#1A0F91"/>
					</linearGradient>
					<path class="st34" d="M496.7,435.5h3.6c5.4-0.1,8.8,11.3,9.9,15.7c-0.4,1.2-1.4,2.3-3.5,2.6c-3.5,0.5-5.8,0.4-7.4-0.4
						c-2.9-3.8-4.4-9.5-5.1-12.8C493.5,436.9,496.7,435.5,496.7,435.5z"/>
				</g>
				
					<linearGradient id="SVGID_30_" gradientUnits="userSpaceOnUse" x1="1289.9264" y1="433.7266" x2="1299.5277" y2="433.7266" gradientTransform="matrix(-1 0 0 1 1791.7585 0)">
					<stop  offset="0" style="stop-color:#FEBBBA"/>
					<stop  offset="1" style="stop-color:#FF928E"/>
				</linearGradient>
				<path class="st35" d="M499.8,428.1l2,7.8c0.2,1-0.2,2-1.1,2.4c-1.1,0.6-2.7,1.2-4.1,1c-0.7-0.1-1.2-0.6-1.5-1.2l-2.9-8.3
					L499.8,428.1z"/>
			</g>
			
				<linearGradient id="SVGID_31_" gradientUnits="userSpaceOnUse" x1="-1044.4277" y1="447.8242" x2="-897.9201" y2="245.2704" gradientTransform="matrix(-1 0 0 1 -541.2414 0)">
				<stop  offset="0" style="stop-color:#09005D"/>
				<stop  offset="1" style="stop-color:#1A0F91"/>
			</linearGradient>
			<path class="st36" d="M502.1,430.4c-2.5,2.2-10.4,2.5-10.4,2.5c-28.7-69-40.7-88-40.7-88c4.2,26,0.9,92.9,0.9,92.9
				c-4.7,2.1-10.9,0-10.9,0c-0.4-42.6-6.4-88.4-14.1-117.8c19.4-0.4,30-4.7,33.4-7.3C476.4,338.7,502.1,430.4,502.1,430.4z"/>
			<g>
				
					<linearGradient id="SVGID_32_" gradientUnits="userSpaceOnUse" x1="-1856.5332" y1="1004.4947" x2="-1857.4242" y2="922.2271" gradientTransform="matrix(0.9919 -0.127 0.127 0.9919 2181.8499 -810.6853)">
					<stop  offset="0" style="stop-color:#FF928E"/>
					<stop  offset="1" style="stop-color:#FE7062"/>
				</linearGradient>
				<path class="st37" d="M422,339.2l3.6,22.2c0.6,3.9,4.2,6.6,8.1,6.1l53.5-6.5c2.6-0.3,4.6-2.5,4.7-5.1c0.1-5.7-0.1-16-2.5-25.3
					L422,339.2z"/>
				<path class="st20" d="M435.5,366.1c-0.1,0-0.2-0.1-0.2-0.2c0-0.1,0.1-0.2,0.2-0.2l1.4-0.2c0.1,0,0.2,0.1,0.2,0.2
					c0,0.1-0.1,0.2-0.2,0.2L435.5,366.1C435.5,366.1,435.5,366.1,435.5,366.1z M432.2,366C432.2,366,432.2,366,432.2,366
					c-0.5-0.1-1-0.3-1.4-0.5c-0.1,0-0.1-0.1-0.1-0.2c0-0.1,0.1-0.1,0.2-0.1c0.4,0.2,0.8,0.4,1.3,0.5c0.1,0,0.2,0.1,0.1,0.2
					C432.4,366,432.3,366,432.2,366z M440.2,365.5c-0.1,0-0.2-0.1-0.2-0.2c0-0.1,0.1-0.2,0.2-0.2l1.4-0.2c0.1,0,0.2,0.1,0.2,0.2
					c0,0.1-0.1,0.2-0.2,0.2L440.2,365.5C440.2,365.5,440.2,365.5,440.2,365.5z M444.8,364.9c-0.1,0-0.2-0.1-0.2-0.2
					c0-0.1,0.1-0.2,0.2-0.2l1.4-0.2c0.1,0,0.2,0.1,0.2,0.2c0,0.1-0.1,0.2-0.2,0.2L444.8,364.9C444.8,364.9,444.8,364.9,444.8,364.9z
					 M449.5,364.4c-0.1,0-0.2-0.1-0.2-0.2c0-0.1,0.1-0.2,0.2-0.2l1.4-0.2c0.1,0,0.2,0.1,0.2,0.2c0,0.1-0.1,0.2-0.2,0.2L449.5,364.4
					C449.5,364.4,449.5,364.4,449.5,364.4z M454.1,363.8c-0.1,0-0.2-0.1-0.2-0.2c0-0.1,0.1-0.2,0.2-0.2l1.4-0.2
					c0.1,0,0.2,0.1,0.2,0.2c0,0.1-0.1,0.2-0.2,0.2L454.1,363.8C454.2,363.8,454.1,363.8,454.1,363.8z M428.4,363.5
					c-0.1,0-0.1,0-0.1-0.1c-0.3-0.4-0.5-0.8-0.8-1.2c0-0.1,0-0.2,0.1-0.2c0.1,0,0.2,0,0.2,0.1c0.2,0.4,0.4,0.8,0.7,1.2
					c0.1,0.1,0,0.2,0,0.2C428.5,363.5,428.4,363.5,428.4,363.5z M458.8,363.2c-0.1,0-0.2-0.1-0.2-0.2c0-0.1,0.1-0.2,0.2-0.2l1.4-0.2
					c0.1,0,0.2,0.1,0.2,0.2c0,0.1-0.1,0.2-0.2,0.2L458.8,363.2C458.8,363.2,458.8,363.2,458.8,363.2z M463.5,362.7
					c-0.1,0-0.2-0.1-0.2-0.2c0-0.1,0.1-0.2,0.2-0.2l1.4-0.2c0.1,0,0.2,0.1,0.2,0.2c0,0.1-0.1,0.2-0.2,0.2L463.5,362.7
					C463.5,362.7,463.5,362.7,463.5,362.7z M468.1,362.1c-0.1,0-0.2-0.1-0.2-0.2c0-0.1,0.1-0.2,0.2-0.2l1.4-0.2
					c0.1,0,0.2,0.1,0.2,0.2c0,0.1-0.1,0.2-0.2,0.2L468.1,362.1C468.1,362.1,468.1,362.1,468.1,362.1z M472.8,361.5
					c-0.1,0-0.2-0.1-0.2-0.2c0-0.1,0.1-0.2,0.2-0.2l1.4-0.2c0.1,0,0.2,0.1,0.2,0.2c0,0.1-0.1,0.2-0.2,0.2L472.8,361.5
					C472.8,361.5,472.8,361.5,472.8,361.5z M477.4,361c-0.1,0-0.2-0.1-0.2-0.2c0-0.1,0.1-0.2,0.2-0.2l1.4-0.2c0.1,0,0.2,0.1,0.2,0.2
					c0,0.1-0.1,0.2-0.2,0.2L477.4,361C477.5,361,477.4,361,477.4,361z M482.1,360.4c-0.1,0-0.2-0.1-0.2-0.2c0-0.1,0.1-0.2,0.2-0.2
					l1.4-0.2c0.1,0,0.2,0.1,0.2,0.2c0,0.1-0.1,0.2-0.2,0.2L482.1,360.4C482.1,360.4,482.1,360.4,482.1,360.4z M486.7,359.7
					c-0.1,0-0.1,0-0.2-0.1c0-0.1,0-0.2,0.1-0.2c0.4-0.1,0.8-0.4,1.2-0.6c0.1-0.1,0.2,0,0.2,0c0.1,0.1,0,0.2,0,0.2
					C487.7,359.3,487.3,359.5,486.7,359.7C486.8,359.7,486.8,359.7,486.7,359.7z M426.8,359.1c-0.1,0-0.2-0.1-0.2-0.1l-0.2-1.4
					c0-0.1,0-0.2,0.1-0.2c0.1,0,0.2,0,0.2,0.1l0.2,1.4C427,359,427,359.1,426.8,359.1C426.9,359.1,426.8,359.1,426.8,359.1z
					 M489.9,356.5C489.9,356.5,489.9,356.5,489.9,356.5c-0.1,0-0.2-0.1-0.2-0.2c0.1-0.4,0.2-0.9,0.2-1.3c0-0.1,0.1-0.2,0.2-0.2
					c0,0,0,0,0,0c0.1,0,0.2,0.1,0.2,0.2c0,0.5-0.1,1-0.2,1.4C490,356.4,490,356.5,489.9,356.5z M426.1,354.5c-0.1,0-0.2-0.1-0.2-0.1
					l-0.2-1.4c0-0.1,0-0.2,0.1-0.2c0.1,0,0.2,0.1,0.2,0.1l0.2,1.4C426.3,354.4,426.2,354.5,426.1,354.5
					C426.1,354.5,426.1,354.5,426.1,354.5z M490.1,351.8c-0.1,0-0.2-0.1-0.2-0.2c0-0.5,0-0.9,0-1.4c0-0.1,0.1-0.2,0.2-0.2
					c0.1,0,0.2,0.1,0.2,0.2c0,0.5,0,1,0,1.4C490.3,351.7,490.2,351.8,490.1,351.8C490.1,351.8,490.1,351.8,490.1,351.8z
					 M425.3,349.9c-0.1,0-0.2-0.1-0.2-0.1l-0.2-1.4c0-0.1,0-0.2,0.1-0.2c0.1,0,0.2,0,0.2,0.1l0.2,1.4
					C425.5,349.8,425.5,349.8,425.3,349.9C425.4,349.9,425.4,349.9,425.3,349.9z M490,347.1c-0.1,0-0.2-0.1-0.2-0.2
					c0-0.5-0.1-0.9-0.1-1.4c0-0.1,0.1-0.2,0.2-0.2c0.1,0,0.2,0.1,0.2,0.2c0,0.5,0.1,0.9,0.1,1.4C490.2,347,490.1,347.1,490,347.1
					C490,347.1,490,347.1,490,347.1z M424.6,345.2c-0.1,0-0.2-0.1-0.2-0.1l-0.2-1.4c0-0.1,0-0.2,0.1-0.2c0.1,0,0.2,0.1,0.2,0.1
					l0.2,1.4C424.8,345.1,424.7,345.2,424.6,345.2C424.6,345.2,424.6,345.2,424.6,345.2z M489.7,342.4c-0.1,0-0.2-0.1-0.2-0.2
					c0-0.5-0.1-0.9-0.1-1.4c0-0.1,0.1-0.2,0.2-0.2c0.1,0,0.2,0.1,0.2,0.2c0.1,0.5,0.1,0.9,0.1,1.4
					C489.9,342.3,489.8,342.4,489.7,342.4C489.7,342.4,489.7,342.4,489.7,342.4z M423.9,340.6c-0.1,0-0.2-0.1-0.2-0.1l-0.3-1.6
					l1.3-0.2c0.1,0,0.2,0.1,0.2,0.2c0,0.1-0.1,0.2-0.2,0.2l-0.9,0.1l0.2,1.2C424,340.5,424,340.6,423.9,340.6
					C423.9,340.6,423.9,340.6,423.9,340.6z M428,338.6c-0.1,0-0.2-0.1-0.2-0.2c0-0.1,0.1-0.2,0.2-0.2l1.4-0.2c0.1,0,0.2,0.1,0.2,0.2
					c0,0.1-0.1,0.2-0.2,0.2L428,338.6C428,338.6,428,338.6,428,338.6z M432.7,338.1c-0.1,0-0.2-0.1-0.2-0.2c0-0.1,0.1-0.2,0.2-0.2
					l1.4-0.2c0.1,0,0.2,0.1,0.2,0.2c0,0.1-0.1,0.2-0.2,0.2L432.7,338.1C432.7,338.1,432.7,338.1,432.7,338.1z M489.1,337.8
					c-0.1,0-0.2-0.1-0.2-0.1c-0.1-0.5-0.1-0.9-0.2-1.4c0-0.1,0-0.2,0.1-0.2c0.1,0,0.2,0,0.2,0.1c0.1,0.5,0.2,0.9,0.2,1.4
					C489.3,337.7,489.2,337.8,489.1,337.8C489.1,337.8,489.1,337.8,489.1,337.8z M437.3,337.5c-0.1,0-0.2-0.1-0.2-0.2
					c0-0.1,0.1-0.2,0.2-0.2l1.4-0.2c0.1,0,0.2,0.1,0.2,0.2c0,0.1-0.1,0.2-0.2,0.2L437.3,337.5C437.3,337.5,437.3,337.5,437.3,337.5z
					 M442,336.9c-0.1,0-0.2-0.1-0.2-0.2c0-0.1,0.1-0.2,0.2-0.2l1.4-0.2c0.1,0,0.2,0.1,0.2,0.2c0,0.1-0.1,0.2-0.2,0.2L442,336.9
					C442,336.9,442,336.9,442,336.9z M446.6,336.3c-0.1,0-0.2-0.1-0.2-0.2c0-0.1,0.1-0.2,0.2-0.2l1.4-0.2c0.1,0,0.2,0.1,0.2,0.2
					c0,0.1-0.1,0.2-0.2,0.2L446.6,336.3C446.6,336.3,446.6,336.3,446.6,336.3z M451.3,335.7c-0.1,0-0.2-0.1-0.2-0.2
					c0-0.1,0.1-0.2,0.2-0.2l1.4-0.2c0.1,0,0.2,0.1,0.2,0.2c0,0.1-0.1,0.2-0.2,0.2L451.3,335.7C451.3,335.7,451.3,335.7,451.3,335.7z
					 M455.9,335.1c-0.1,0-0.2-0.1-0.2-0.2c0-0.1,0.1-0.2,0.2-0.2l1.4-0.2c0.1,0,0.2,0.1,0.2,0.2c0,0.1-0.1,0.2-0.2,0.2L455.9,335.1
					C456,335.1,455.9,335.1,455.9,335.1z M460.6,334.5c-0.1,0-0.2-0.1-0.2-0.2c0-0.1,0.1-0.2,0.2-0.2l1.4-0.2c0.1,0,0.2,0.1,0.2,0.2
					c0,0.1-0.1,0.2-0.2,0.2L460.6,334.5C460.6,334.5,460.6,334.5,460.6,334.5z M465.2,333.9c-0.1,0-0.2-0.1-0.2-0.2
					c0-0.1,0.1-0.2,0.2-0.2l1.4-0.2c0.1,0,0.2,0.1,0.2,0.2c0,0.1-0.1,0.2-0.2,0.2L465.2,333.9C465.3,333.9,465.3,333.9,465.2,333.9z
					 M469.9,333.3c-0.1,0-0.2-0.1-0.2-0.2c0-0.1,0.1-0.2,0.2-0.2l1.4-0.2c0.1,0,0.2,0.1,0.2,0.2c0,0.1-0.1,0.2-0.2,0.2L469.9,333.3
					C469.9,333.3,469.9,333.3,469.9,333.3z M488.2,333.2c-0.1,0-0.2-0.1-0.2-0.1c-0.1-0.5-0.2-0.9-0.3-1.4c0-0.1,0-0.2,0.1-0.2
					c0.1,0,0.2,0,0.2,0.1c0.1,0.5,0.2,0.9,0.3,1.4C488.4,333,488.4,333.1,488.2,333.2C488.3,333.2,488.3,333.2,488.2,333.2z
					 M474.6,332.7c-0.1,0-0.2-0.1-0.2-0.2c0-0.1,0.1-0.2,0.2-0.2l1.4-0.2c0.1,0,0.2,0.1,0.2,0.2c0,0.1-0.1,0.2-0.2,0.2L474.6,332.7
					C474.6,332.7,474.6,332.7,474.6,332.7z M479.2,332.1c-0.1,0-0.2-0.1-0.2-0.2c0-0.1,0.1-0.2,0.2-0.2l1.4-0.2
					c0.1,0,0.2,0.1,0.2,0.2c0,0.1-0.1,0.2-0.2,0.2L479.2,332.1C479.2,332.1,479.2,332.1,479.2,332.1z M483.9,331.5
					c-0.1,0-0.2-0.1-0.2-0.2c0-0.1,0.1-0.2,0.2-0.2l1.4-0.2c0.1,0,0.2,0.1,0.2,0.2c0,0.1-0.1,0.2-0.2,0.2L483.9,331.5
					C483.9,331.5,483.9,331.5,483.9,331.5z"/>
				
					<linearGradient id="SVGID_33_" gradientUnits="userSpaceOnUse" x1="-1871.0105" y1="905.2773" x2="-1871.4065" y2="895.6747" gradientTransform="matrix(0.9919 -0.127 0.127 0.9919 2181.8499 -810.6853)">
					<stop  offset="0" style="stop-color:#E1473D"/>
					<stop  offset="1" style="stop-color:#E9605A"/>
				</linearGradient>
				<path class="st38" d="M435.6,321l-0.1-1.7c0.1-0.4,0.5-0.8,0.9-0.9c1.6-0.5,5.7-1.5,7.9-0.2l0.6,2L435.6,321z"/>
				
					<linearGradient id="SVGID_34_" gradientUnits="userSpaceOnUse" x1="-1871.5115" y1="890.8611" x2="-1869.5317" y2="918.3788" gradientTransform="matrix(0.9919 -0.127 0.127 0.9919 2181.8499 -810.6853)">
					<stop  offset="0" style="stop-color:#E1473D"/>
					<stop  offset="1" style="stop-color:#E9605A"/>
				</linearGradient>
				<path class="st39" d="M440.6,318.7c-0.4,0.1-0.8,0.2-1.2,0.1c-0.5-0.1-0.9-0.4-0.9-0.9l-0.7-5.4l2.7-0.4l0.7,5.4
					C441.3,318.1,441,318.5,440.6,318.7z"/>
				
					<linearGradient id="SVGID_35_" gradientUnits="userSpaceOnUse" x1="-1844.261" y1="904.176" x2="-1844.657" y2="894.5735" gradientTransform="matrix(0.9919 -0.127 0.127 0.9919 2181.8499 -810.6853)">
					<stop  offset="0" style="stop-color:#E1473D"/>
					<stop  offset="1" style="stop-color:#E9605A"/>
				</linearGradient>
				<path class="st40" d="M462.2,317.6l-0.1-1.7c0.1-0.4,0.5-0.8,0.9-0.9c1.6-0.5,5.7-1.5,7.9-0.2l0.6,2L462.2,317.6z"/>
				
					<linearGradient id="SVGID_36_" gradientUnits="userSpaceOnUse" x1="-1844.8337" y1="888.9438" x2="-1842.8541" y2="916.4614" gradientTransform="matrix(0.9919 -0.127 0.127 0.9919 2181.8499 -810.6853)">
					<stop  offset="0" style="stop-color:#E1473D"/>
					<stop  offset="1" style="stop-color:#E9605A"/>
				</linearGradient>
				<path class="st41" d="M467.2,315.3c-0.4,0.1-0.8,0.2-1.2,0.1c-0.5-0.1-0.9-0.4-0.9-0.9l-0.8-6l2.7-0.4l0.8,6
					C467.9,314.7,467.6,315.1,467.2,315.3z"/>
				
					<linearGradient id="SVGID_37_" gradientUnits="userSpaceOnUse" x1="-1855.8219" y1="875.545" x2="-1858.494" y2="895.1407" gradientTransform="matrix(0.9919 -0.127 0.127 0.9919 2181.8499 -810.6853)">
					<stop  offset="0" style="stop-color:#E1473D"/>
					<stop  offset="1" style="stop-color:#E9605A"/>
				</linearGradient>
				<path class="st42" d="M437.7,313.9l29.4-4.8c0.7-0.1,1.2-0.7,1.2-1.3c0-0.9,0-2.3-0.4-3.8c-0.5-1.6-2-2.6-3.7-2.5
					c-5.5,0.6-19.5,2.4-26.9,6.4c-0.8,0.4-1.3,1.2-1.4,2.1c-0.1,0.8-0.1,1.9,0.3,3C436.5,313.7,437.1,314,437.7,313.9z"/>
				<linearGradient id="SVGID_38_" gradientUnits="userSpaceOnUse" x1="440.8489" y1="307.2153" x2="431.7956" y2="255.7994">
					<stop  offset="0" style="stop-color:#FEBBBA"/>
					<stop  offset="1" style="stop-color:#FF928E"/>
				</linearGradient>
				<path class="st43" d="M437,312.8c-0.2,0-0.4-0.1-0.5-0.4c0,0-0.3-1.2-0.1-2.4c0.1-1,0.8-1.8,1.7-2.2c1.6-0.7,4.7-1.9,7.3-2.3
					c0.3,0,0.5,0.1,0.5,0.4c0,0.3-0.1,0.5-0.4,0.5c-2.6,0.4-5.8,1.7-7,2.3c-0.6,0.3-1,0.8-1.1,1.4c-0.1,1,0.1,2,0.1,2
					c0.1,0.3-0.1,0.5-0.4,0.6C437.1,312.8,437,312.8,437,312.8z"/>
				
					<linearGradient id="SVGID_39_" gradientUnits="userSpaceOnUse" x1="-1855.0175" y1="890.8088" x2="-1864.816" y2="982.2627" gradientTransform="matrix(0.9919 -0.127 0.127 0.9919 2181.8499 -810.6853)">
					<stop  offset="0" style="stop-color:#FF928E"/>
					<stop  offset="1" style="stop-color:#FE7062"/>
				</linearGradient>
				<path class="st44" d="M421.8,322.1c9.5-1.3,50.7-7.1,62.9-7.1c1,0,2,0.6,2.3,1.6c1.1,3.1,3.5,10.4,4.3,17.8
					c0.1,1-0.5,1.9-1.5,2.3l-26.7,8.7l-9.7,1.2l-29.9-2.1c-1.1-0.1-1.9-0.8-2.1-1.9c-0.7-3.7-2.1-12.3-1.8-18.1
					C419.7,323.3,420.6,322.3,421.8,322.1z"/>
				<path class="st20" d="M453.4,344.3l-1.4-0.1c-0.1,0-0.2-0.1-0.2-0.2c0-0.1,0.1-0.2,0.2-0.2l1.4,0.1l0.8-0.1
					c0.1,0,0.2,0.1,0.2,0.2c0,0.1-0.1,0.2-0.2,0.2L453.4,344.3z M448.6,344C448.6,344,448.6,344,448.6,344l-1.4-0.1
					c-0.1,0-0.2-0.1-0.2-0.2c0-0.1,0.1-0.2,0.2-0.2l1.4,0.1c0.1,0,0.2,0.1,0.2,0.2C448.8,343.9,448.7,344,448.6,344z M457.4,343.8
					c-0.1,0-0.2-0.1-0.2-0.2c0-0.1,0.1-0.2,0.2-0.2l1.4-0.2c0.1,0,0.2,0.1,0.2,0.2c0,0.1-0.1,0.2-0.2,0.2L457.4,343.8
					C457.4,343.8,457.4,343.8,457.4,343.8z M444,343.7C444,343.7,444,343.7,444,343.7l-1.4-0.1c-0.1,0-0.2-0.1-0.2-0.2
					c0-0.1,0.1-0.2,0.2-0.2l1.4,0.1c0.1,0,0.2,0.1,0.2,0.2C444.1,343.6,444.1,343.7,444,343.7z M439.3,343.3
					C439.3,343.3,439.3,343.3,439.3,343.3l-1.4-0.1c-0.1,0-0.2-0.1-0.2-0.2c0-0.1,0.1-0.2,0.2-0.2l1.4,0.1c0.1,0,0.2,0.1,0.2,0.2
					C439.5,343.3,439.4,343.3,439.3,343.3z M462,343.2c-0.1,0-0.2-0.1-0.2-0.2c0-0.1,0.1-0.2,0.2-0.2l0.6-0.1l0.8-0.3
					c0.1,0,0.2,0,0.2,0.1c0,0.1,0,0.2-0.1,0.2l-0.8,0.3L462,343.2C462,343.2,462,343.2,462,343.2z M434.6,343
					C434.6,343,434.6,343,434.6,343l-1.4-0.1c-0.1,0-0.2-0.1-0.2-0.2c0-0.1,0.1-0.2,0.2-0.2l1.4,0.1c0.1,0,0.2,0.1,0.2,0.2
					C434.8,342.9,434.7,343,434.6,343z M429.9,342.7C429.9,342.7,429.9,342.7,429.9,342.7l-1.4-0.1c-0.1,0-0.2-0.1-0.2-0.2
					c0-0.1,0.1-0.2,0.2-0.2l1.4,0.1c0.1,0,0.2,0.1,0.2,0.2C430.1,342.6,430,342.7,429.9,342.7z M425.2,342.4
					C425.2,342.4,425.2,342.4,425.2,342.4l-1.4-0.1c-0.1,0-0.2-0.1-0.2-0.2c0-0.1,0.1-0.2,0.2-0.2l1.4,0.1c0.1,0,0.2,0.1,0.2,0.2
					C425.4,342.3,425.3,342.4,425.2,342.4z M466.5,341.8c-0.1,0-0.1,0-0.2-0.1c0-0.1,0-0.2,0.1-0.2l1.3-0.4c0.1,0,0.2,0,0.2,0.1
					c0,0.1,0,0.2-0.1,0.2L466.5,341.8C466.6,341.8,466.5,341.8,466.5,341.8z M471,340.4c-0.1,0-0.1,0-0.2-0.1c0-0.1,0-0.2,0.1-0.2
					l1.3-0.4c0.1,0,0.2,0,0.2,0.1c0,0.1,0,0.2-0.1,0.2L471,340.4C471,340.4,471,340.4,471,340.4z M423.2,339.1
					c-0.1,0-0.2-0.1-0.2-0.1c-0.1-0.4-0.1-0.9-0.2-1.4c0-0.1,0.1-0.2,0.1-0.2c0.1,0,0.2,0.1,0.2,0.1c0.1,0.5,0.1,0.9,0.2,1.4
					C423.4,339,423.3,339.1,423.2,339.1C423.2,339.1,423.2,339.1,423.2,339.1z M475.4,338.9c-0.1,0-0.1,0-0.2-0.1
					c0-0.1,0-0.2,0.1-0.2l1.3-0.4c0.1,0,0.2,0,0.2,0.1c0,0.1,0,0.2-0.1,0.2L475.4,338.9C475.5,338.9,475.5,338.9,475.4,338.9z
					 M479.9,337.5c-0.1,0-0.1,0-0.2-0.1c0-0.1,0-0.2,0.1-0.2l1.3-0.4c0.1,0,0.2,0,0.2,0.1c0,0.1,0,0.2-0.1,0.2L479.9,337.5
					C479.9,337.5,479.9,337.5,479.9,337.5z M484.4,336c-0.1,0-0.1,0-0.2-0.1c0-0.1,0-0.2,0.1-0.2l1.3-0.4c0.1,0,0.2,0,0.2,0.1
					c0,0.1,0,0.2-0.1,0.2L484.4,336C484.4,336,484.4,336,484.4,336z M488.8,334.6c-0.1,0-0.1,0-0.2-0.1c0-0.1,0-0.1,0-0.2
					c0-0.4-0.1-0.8-0.1-1.2c0-0.1,0.1-0.2,0.2-0.2c0.1,0,0.2,0.1,0.2,0.2c0.1,0.4,0.1,0.9,0.2,1.3l0,0.1L488.8,334.6
					C488.9,334.6,488.9,334.6,488.8,334.6z M422.6,334.5c-0.1,0-0.2-0.1-0.2-0.2c-0.1-0.5-0.1-0.9-0.2-1.4c0-0.1,0.1-0.2,0.2-0.2
					c0.1,0,0.2,0.1,0.2,0.2c0.1,0.5,0.1,0.9,0.2,1.4C422.7,334.4,422.7,334.4,422.6,334.5C422.6,334.5,422.6,334.5,422.6,334.5z
					 M488.2,330c-0.1,0-0.2-0.1-0.2-0.1c-0.1-0.5-0.2-0.9-0.3-1.4c0-0.1,0-0.2,0.1-0.2c0.1,0,0.2,0,0.2,0.1c0.1,0.5,0.2,0.9,0.3,1.4
					C488.4,329.9,488.3,330,488.2,330C488.2,330,488.2,330,488.2,330z M422.1,329.8c-0.1,0-0.2-0.1-0.2-0.2c0-0.5-0.1-0.9-0.1-1.4
					c0-0.1,0.1-0.2,0.2-0.2c0.1,0,0.2,0.1,0.2,0.2c0,0.5,0,0.9,0.1,1.4C422.3,329.7,422.2,329.8,422.1,329.8
					C422.1,329.8,422.1,329.8,422.1,329.8z M487.2,325.4c-0.1,0-0.2-0.1-0.2-0.1c-0.1-0.5-0.2-0.9-0.4-1.4c0-0.1,0-0.2,0.1-0.2
					c0.1,0,0.2,0,0.2,0.1c0.1,0.4,0.2,0.9,0.4,1.4C487.4,325.3,487.3,325.4,487.2,325.4C487.2,325.4,487.2,325.4,487.2,325.4z
					 M422,325.1C422,325.1,422,325.1,422,325.1c-0.1,0-0.2-0.1-0.2-0.2l0-0.3c0-0.2,0.1-0.3,0.3-0.3l0.9-0.1c0.1,0,0.2,0.1,0.2,0.1
					c0,0.1-0.1,0.2-0.1,0.2l-0.9,0.1l0,0.3C422.2,325,422.1,325.1,422,325.1z M426.3,324.1c-0.1,0-0.2-0.1-0.2-0.2
					c0-0.1,0.1-0.2,0.2-0.2l1.4-0.2c0.1,0,0.2,0.1,0.2,0.2c0,0.1-0.1,0.2-0.2,0.2L426.3,324.1C426.3,324.1,426.3,324.1,426.3,324.1z
					 M430.9,323.4c-0.1,0-0.2-0.1-0.2-0.2c0-0.1,0.1-0.2,0.2-0.2l1.4-0.2c0.1,0,0.2,0.1,0.2,0.2c0,0.1-0.1,0.2-0.2,0.2L430.9,323.4
					C430.9,323.4,430.9,323.4,430.9,323.4z M435.6,322.8c-0.1,0-0.2-0.1-0.2-0.2c0-0.1,0.1-0.2,0.2-0.2l1.4-0.2
					c0.1,0,0.2,0.1,0.2,0.2c0,0.1-0.1,0.2-0.2,0.2L435.6,322.8C435.6,322.8,435.6,322.8,435.6,322.8z M440.2,322.2
					c-0.1,0-0.2-0.1-0.2-0.2c0-0.1,0.1-0.2,0.2-0.2l1.4-0.2c0.1,0,0.2,0.1,0.2,0.2c0,0.1-0.1,0.2-0.2,0.2L440.2,322.2
					C440.2,322.2,440.2,322.2,440.2,322.2z M444.9,321.6c-0.1,0-0.2-0.1-0.2-0.2c0-0.1,0.1-0.2,0.2-0.2l1.4-0.2
					c0.1,0,0.2,0.1,0.2,0.2c0,0.1-0.1,0.2-0.2,0.2L444.9,321.6C444.9,321.6,444.9,321.6,444.9,321.6z M449.6,321l0-0.3l1.4-0.2
					c0.1,0,0.2,0.1,0.2,0.2c0,0.1-0.1,0.2-0.2,0.2L449.6,321z M485.9,320.9c-0.1,0-0.1,0-0.2-0.1c-0.1-0.5-0.3-0.9-0.4-1.3
					c0-0.1,0-0.2,0.1-0.2c0.1,0,0.2,0,0.2,0.1c0.1,0.4,0.3,0.9,0.4,1.3C486.1,320.8,486,320.9,485.9,320.9
					C485.9,320.9,485.9,320.9,485.9,320.9z M449.5,320.8L449.5,320.8L449.5,320.8z M454.2,320.4c-0.1,0-0.2-0.1-0.2-0.2
					c0-0.1,0.1-0.2,0.2-0.2l1.4-0.2c0.1,0,0.2,0.1,0.2,0.2c0,0.1-0.1,0.2-0.2,0.2L454.2,320.4C454.2,320.4,454.2,320.4,454.2,320.4z
					 M458.9,319.8c-0.1,0-0.2-0.1-0.2-0.2c0-0.1,0.1-0.2,0.2-0.2l1.4-0.2c0.1,0,0.2,0.1,0.2,0.2c0,0.1-0.1,0.2-0.2,0.2L458.9,319.8
					C458.9,319.8,458.9,319.8,458.9,319.8z M463.5,319.3c-0.1,0-0.2-0.1-0.2-0.2c0-0.1,0.1-0.2,0.2-0.2l1.4-0.2
					c0.1,0,0.2,0.1,0.2,0.2c0,0.1-0.1,0.2-0.2,0.2L463.5,319.3C463.5,319.3,463.5,319.3,463.5,319.3z M468.2,318.8
					c-0.1,0-0.2-0.1-0.2-0.2c0-0.1,0.1-0.2,0.2-0.2l1.4-0.1c0.1,0,0.2,0.1,0.2,0.2s-0.1,0.2-0.2,0.2L468.2,318.8
					C468.2,318.8,468.2,318.8,468.2,318.8z M472.9,318.3c-0.1,0-0.2-0.1-0.2-0.2c0-0.1,0.1-0.2,0.2-0.2c0.5,0,0.9-0.1,1.4-0.1
					c0.1,0,0.2,0.1,0.2,0.2c0,0.1-0.1,0.2-0.2,0.2C473.8,318.2,473.4,318.3,472.9,318.3C472.9,318.3,472.9,318.3,472.9,318.3z
					 M477.5,317.9c-0.1,0-0.2-0.1-0.2-0.2c0-0.1,0.1-0.2,0.2-0.2c0.5,0,1-0.1,1.4-0.1c0.1,0,0.2,0.1,0.2,0.2c0,0.1-0.1,0.2-0.2,0.2
					C478.5,317.8,478,317.9,477.5,317.9C477.5,317.9,477.5,317.9,477.5,317.9z M482.2,317.6c-0.1,0-0.2-0.1-0.2-0.2
					c0-0.1,0.1-0.2,0.2-0.2c0.5,0,1,0,1.4-0.1c0,0,0,0,0,0c0.1,0,0.2,0.1,0.2,0.2c0,0.1-0.1,0.2-0.2,0.2
					C483.2,317.6,482.7,317.6,482.2,317.6C482.2,317.6,482.2,317.6,482.2,317.6z"/>
				
					<linearGradient id="SVGID_40_" gradientUnits="userSpaceOnUse" x1="-1854.3071" y1="902.0948" x2="-1858.1674" y2="932.6793" gradientTransform="matrix(0.9919 -0.127 0.127 0.9919 2181.8499 -810.6853)">
					<stop  offset="0" style="stop-color:#E1473D"/>
					<stop  offset="1" style="stop-color:#E9605A"/>
				</linearGradient>
				<path class="st45" d="M462.7,349.5l-8.5,1.1c-1.1,0.1-2.2-0.6-2.4-1.7l-2-8.1c-0.3-1.3,0.6-2.6,1.9-2.7l10.2-1.3
					c1.3-0.2,2.4,0.8,2.5,2.1l0.3,8.3C464.7,348.3,463.9,349.3,462.7,349.5z"/>
				
					<linearGradient id="SVGID_41_" gradientUnits="userSpaceOnUse" x1="-1862.5803" y1="926.0908" x2="-1851.3553" y2="926.0908" gradientTransform="matrix(0.9919 -0.127 0.127 0.9919 2181.8499 -810.6853)">
					<stop  offset="0" style="stop-color:#FF928E"/>
					<stop  offset="1" style="stop-color:#FE7062"/>
				</linearGradient>
				<path class="st46" d="M461.5,348.1l-6.5,0.8c-0.8,0.1-1.6-0.4-1.9-1.3l-1.5-6.1c-0.2-1,0.4-2,1.4-2.1l7.8-1
					c1-0.1,1.9,0.6,1.9,1.6l0.2,6.3C463,347.2,462.4,348,461.5,348.1z"/>
			</g>
			<linearGradient id="SVGID_42_" gradientUnits="userSpaceOnUse" x1="464.081" y1="287.4748" x2="442.3392" y2="329.2859">
				<stop  offset="0" style="stop-color:#FEBBBA"/>
				<stop  offset="1" style="stop-color:#FF928E"/>
			</linearGradient>
			<path class="st47" d="M456.4,282.8c2,8.3,2.1,16.4,1.8,19.4c-0.1,1.1-1,2-2.1,2.1c-1.3,0.1-3,0.2-4.5,0.3c-1.7,0.1-3.6-1-4.8-1.9
				c-0.6-0.5-1.5,0.3-1.1,1c0.6,1.2,1.7,2.2,2.8,3c0.6,0.5,2.8,1.4,2.6,2.3c0,0.3-0.2,0.6-0.4,0.8c-1.2,1.4-3,2.2-4.7,2.7
				c-0.2,0.1-0.5,0.1-0.6,0.3c0,1.1,3.5,2.4,4.4,2.7c1.4,0.5,2.8,0.6,4.2,0.5c3.5-0.4,6.8-2.8,8.7-5.8c5.1-7.9,7.7-17.4,8.7-24.7
				C466.4,280.8,459.3,282,456.4,282.8z"/>
			<g>
				<linearGradient id="SVGID_43_" gradientUnits="userSpaceOnUse" x1="507.8634" y1="165.4433" x2="483.6074" y2="213.272">
					<stop  offset="0" style="stop-color:#09005D"/>
					<stop  offset="1" style="stop-color:#1A0F91"/>
				</linearGradient>
				<path class="st48" d="M471.2,286.3c3.8-28.6-18.2-50.6-18.2-50.6L439.8,251c9.9,12.4,14.7,23.8,16.8,32.7
					C459.6,282.9,466.4,281.6,471.2,286.3z"/>
				<linearGradient id="SVGID_44_" gradientUnits="userSpaceOnUse" x1="515.6346" y1="189.8631" x2="377.9218" y2="345.6172">
					<stop  offset="0" style="stop-color:#4042E2"/>
					<stop  offset="1" style="stop-color:#4F52FF"/>
				</linearGradient>
				<path class="st49" d="M456.4,283.6c-0.4,0-0.7-0.2-0.8-0.6c-2.7-11-8.3-21.9-16.7-32.4c-0.3-0.3-0.2-0.9,0.1-1.1
					c0.3-0.3,0.9-0.2,1.1,0.1c8.6,10.7,14.3,21.8,17,33c0.1,0.4-0.2,0.9-0.6,1C456.5,283.6,456.4,283.6,456.4,283.6z"/>
			</g>
		</g>
		<g>
			<g>
				
					<linearGradient id="SVGID_45_" gradientUnits="userSpaceOnUse" x1="-1029.8971" y1="446.3155" x2="-1011.1867" y2="446.3155" gradientTransform="matrix(1 0 0 1 1290.1023 0)">
					<stop  offset="0" style="stop-color:#09005D"/>
					<stop  offset="1" style="stop-color:#1A0F91"/>
				</linearGradient>
				<path class="st50" d="M278.9,453c0-0.1,0-0.3,0-0.4c-2.1-8.4-12.6-13.6-12.6-13.6l-4.1,0.3c-2.4,7.4-2.1,11.9-1.7,13.9
					c0,0.1,0,0.1,0,0.2C263.9,453.7,271,453.9,278.9,453z"/>
				
					<linearGradient id="SVGID_46_" gradientUnits="userSpaceOnUse" x1="-983.0566" y1="424.2425" x2="-1051.1255" y2="477.6904" gradientTransform="matrix(1 0 0 1 1290.1023 0)">
					<stop  offset="0" style="stop-color:#4042E2"/>
					<stop  offset="1" style="stop-color:#4F52FF"/>
				</linearGradient>
				<path class="st51" d="M260.5,453.4c0.2,0.7,0.7,1.2,1.3,1.3c4.9,1,12.6,0.2,15.8-0.2c0.7-0.1,1.2-0.8,1.3-1.5
					C271,453.9,263.9,453.7,260.5,453.4z"/>
				
					<linearGradient id="SVGID_47_" gradientUnits="userSpaceOnUse" x1="-1024.694" y1="425.0145" x2="-1028.2679" y2="456.2059" gradientTransform="matrix(1 0 0 1 1290.1023 0)">
					<stop  offset="0" style="stop-color:#A22B25"/>
					<stop  offset="1" style="stop-color:#C0423C"/>
				</linearGradient>
				<path class="st52" d="M260.5,433.1l1.8,8.5c0.1,0.6,0.6,1.1,1.2,1.1c0.7,0.1,1.7,0.1,2.7,0c0.9-0.1,1.5-1.1,1.4-2l-1.2-7.5
					H260.5z"/>
				
					<linearGradient id="SVGID_48_" gradientUnits="userSpaceOnUse" x1="-970.9646" y1="439.6203" x2="-1039.0336" y2="493.0682" gradientTransform="matrix(1 0 0 1 1290.1023 0)">
					<stop  offset="0" style="stop-color:#4042E2"/>
					<stop  offset="1" style="stop-color:#4F52FF"/>
				</linearGradient>
				<path class="st53" d="M296.9,453.3c-4.6-0.1-6.9-0.7-8.2-1.2c0,0.5,0,0.9,0,1.4c0,0.5,0.4,0.9,0.9,0.9l25.1-0.2
					c0.8,0,1.3-0.9,0.9-1.7C312.3,452.9,303.9,453.5,296.9,453.3z"/>
				
					<linearGradient id="SVGID_49_" gradientUnits="userSpaceOnUse" x1="-1001.4062" y1="446.791" x2="-974.4728" y2="446.791" gradientTransform="matrix(1 0 0 1 1290.1023 0)">
					<stop  offset="0" style="stop-color:#09005D"/>
					<stop  offset="1" style="stop-color:#1A0F91"/>
				</linearGradient>
				<path class="st54" d="M315.6,452.6c0-0.1-0.1-0.1-0.1-0.2c-2.2-3.1-7.9-9.3-19-12l-5.4-0.2c0,0-2.4,4.1-2.4,11.8
					c1.2,0.5,3.6,1,8.2,1.2C303.9,453.5,312.3,452.9,315.6,452.6z"/>
				
					<linearGradient id="SVGID_50_" gradientUnits="userSpaceOnUse" x1="-824.4782" y1="407.8645" x2="-828.0523" y2="439.0563" gradientTransform="matrix(0.998 -6.290000e-02 6.290000e-02 0.998 1091.2083 -30.5994)">
					<stop  offset="0" style="stop-color:#A22B25"/>
					<stop  offset="1" style="stop-color:#C0423C"/>
				</linearGradient>
				<path class="st55" d="M289.9,432.4c0.1,0.4,1.2,6.4,1.6,8.7c0.1,0.6,0.5,1,1,1c0.9,0.1,2.4,0.1,3.7-0.3c0.7-0.2,1.1-0.9,1.1-1.7
					l-0.6-9.5L289.9,432.4z"/>
				<linearGradient id="SVGID_51_" gradientUnits="userSpaceOnUse" x1="264.4217" y1="460.6828" x2="290.8818" y2="267.0421">
					<stop  offset="0" style="stop-color:#4F52FF"/>
					<stop  offset="1" style="stop-color:#4042E2"/>
				</linearGradient>
				<path class="st56" d="M285.8,321.4c0,0,7.4,50.7,12.7,110.9c0.1,1.1-0.8,2.1-1.9,2.3c-1.6,0.3-4,0.7-6,0.7
					c-1.1,0-1.9-0.8-2.1-1.9c-1.8-10.6-14.7-67.7-18.1-80.2c0,0-3.9,53.3-2.7,81c0,0.7-0.5,1.3-1.2,1.4c-1,0.1-2.7,0.2-4.8,0
					c-0.8-0.1-1.4-0.7-1.6-1.5c-1.3-9-8.7-62.5-8.4-101.1c0-2.2,2.6-20,2.6-20L285.8,321.4z"/>
			</g>
			<path class="st57" d="M253.2,324.3c-0.8-0.3-1.3-1-1.4-1.8c-1-9.5-5.7-68.5,24.2-92.7c0,0,1.7-4.5,15.8,6.6
				c14.1,11.1,6.6,22.6,3.2,38.6c-4.1,19.3-11.3,35.1-8.1,47c0.2,0.8-0.2,1.7-1,2C275.1,328,264.1,328.2,253.2,324.3z"/>
			<linearGradient id="SVGID_52_" gradientUnits="userSpaceOnUse" x1="276.2486" y1="247.6474" x2="295.4924" y2="204.349">
				<stop  offset="0" style="stop-color:#A22B25"/>
				<stop  offset="1" style="stop-color:#C0423C"/>
			</linearGradient>
			<path class="st58" d="M287.8,212.1c0,0.8-12,17.8-12,17.8s2.1,4.2,12.4,7.7l8.9-18.2L287.8,212.1z"/>
			<g>
				<linearGradient id="SVGID_53_" gradientUnits="userSpaceOnUse" x1="269.8784" y1="179.8585" x2="297.2091" y2="221.5378">
					<stop  offset="0" style="stop-color:#A22B25"/>
					<stop  offset="1" style="stop-color:#C0423C"/>
				</linearGradient>
				<path class="st59" d="M297.2,202.4c0,0,4.3,9.8,4.5,14.9c0.3,5.1,1.4,8.5-4.5,9.5c-5.9,1-10.9-1.9-13.6-7c0,0-4.2-7.9-3.3-11.1
					C281.2,205.4,297.2,202.4,297.2,202.4z"/>
				<linearGradient id="SVGID_54_" gradientUnits="userSpaceOnUse" x1="272.4371" y1="187.1472" x2="292.96" y2="211.1843">
					<stop  offset="0" style="stop-color:#09005D"/>
					<stop  offset="1" style="stop-color:#1A0F91"/>
				</linearGradient>
				<path class="st60" d="M285.6,216.1l0.3-0.1c0.4-0.2,0.6-0.7,0.4-1.1c-0.8-1.6-2.5-5.3-0.4-6.2c2.7-1.1,13.5-3.3,15.8-7.1
					c2.2-3.7,0.3-8.4-2.7-9.8c-0.2-0.1-0.4,0-0.5,0.2l-0.2,0.5c-0.2,0.3-0.6,0.3-0.7-0.1l0,0c-0.1-0.3-0.5-0.4-0.7-0.1
					c-0.7,1.1-2.6,3-7.8,3.9c-7.3,1.4-12.2,4.3-12.3,9.4c0,0.3-0.3,0.5-0.6,0.3c-0.5-0.3-1.4-0.5-2.6,0.5c-2,1.7-1.2,6.1,3.2,9.7
					c0.2,0.2,0.2,0.5,0,0.6c-0.8,0.5-2,1.8,1.1,3.4c3.2,1.7,5.6,1.6,6.5,1.4c0.2,0,0.4-0.3,0.3-0.5l-1-4.4c-0.1-0.3,0.1-0.5,0.4-0.5
					H285.6z"/>
				<linearGradient id="SVGID_55_" gradientUnits="userSpaceOnUse" x1="262.7318" y1="184.5448" x2="290.0626" y2="226.2242">
					<stop  offset="0" style="stop-color:#A22B25"/>
					<stop  offset="1" style="stop-color:#C0423C"/>
				</linearGradient>
				<path class="st61" d="M285.8,217c0,0-1.6-6.2-4.4-4.5c-2.8,1.8,1.5,7,3.7,7.2L285.8,217z"/>
			</g>
			<g>
				<path class="st57" d="M296.5,241.5l0.8,22.2c2.3,0.8,4.6,1.4,6.7,1.9c1.3-4.3,4.3-9.5,6.7-13.4
					C301.9,249,296.5,241.5,296.5,241.5z"/>
				<linearGradient id="SVGID_56_" gradientUnits="userSpaceOnUse" x1="356.3859" y1="239.248" x2="304.1694" y2="265.2228">
					<stop  offset="0" style="stop-color:#A22B25"/>
					<stop  offset="1" style="stop-color:#C0423C"/>
				</linearGradient>
				<path class="st62" d="M340.4,241.1c-12.1,13-21.8,13.8-29.8,11c-2.4,3.9-5.3,9.2-6.7,13.4c32.2,7.1,39.8-22.5,39.8-22.5
					L340.4,241.1z"/>
				<linearGradient id="SVGID_57_" gradientUnits="userSpaceOnUse" x1="355.6215" y1="232.7334" x2="337.7607" y2="251.388">
					<stop  offset="0" style="stop-color:#A22B25"/>
					<stop  offset="1" style="stop-color:#C0423C"/>
				</linearGradient>
				<path class="st63" d="M342.9,239.7c0,0,1.4-1.5,4-1c2.6,0.5,4.9,1.4,6.5,0c1.6-1.4,2.2,0.5,2.2,0.5l-4.8,3.7L342.9,239.7z"/>
				<linearGradient id="SVGID_58_" gradientUnits="userSpaceOnUse" x1="356.6341" y1="238.9402" x2="304.4178" y2="264.9149">
					<stop  offset="0" style="stop-color:#A22B25"/>
					<stop  offset="1" style="stop-color:#C0423C"/>
				</linearGradient>
				<path class="st64" d="M340,242.3c0,0,1-4,3.8-3.4c2.9,0.5,9.4,4.1,11.1,3.4c1.7-0.7,3.8-2.2,4.9-1.7l-1.9,2.4c0,0,5-2.9,5.9-1.1
					l-8.3,4.7C355.5,246.6,343.3,245.4,340,242.3z"/>
			</g>
			<linearGradient id="SVGID_59_" gradientUnits="userSpaceOnUse" x1="378.4546" y1="283.0123" x2="226.918" y2="255.6103">
				<stop  offset="0" style="stop-color:#A22B25"/>
				<stop  offset="1" style="stop-color:#C0423C"/>
			</linearGradient>
			<path class="st65" d="M283.1,270.5c0,0,22.7,19,47.2,10.7c1.5-0.5,3.2-0.4,4.6,0.3l7,3.7c3,1.6,6.6,0.5,8.3-2.3
				c1-1.6,1.8-3.5,2-5.3l-13.8-5.6l1-1.7c0,0-6.7-0.6-8.5,4.3c0,0-12.8,5.3-34.5-18.5C296.6,256.2,286.7,264.5,283.1,270.5z"/>
			<path class="st66" d="M281.9,270.3c-0.1,0-0.2,0-0.2-0.1c-9.6-6.5-14.1-16.9-14.1-17c-0.1-0.2,0-0.4,0.2-0.5
				c0.2-0.1,0.4,0,0.5,0.2c0,0.1,4.5,10.3,13.8,16.6c0.2,0.1,0.2,0.4,0.1,0.5C282.1,270.2,282,270.3,281.9,270.3z"/>
			<path class="st66" d="M296.1,255.8c-0.1,0-0.3-0.1-0.3-0.2c0,0-2.9-4.6-8.5-14.6c-1.7-3.1-4-5-6.7-5.8c-4.5-1.3-8.9,1.2-8.9,1.2
				c-0.2,0.1-0.4,0-0.5-0.1c-0.1-0.2,0-0.4,0.1-0.5c0.2-0.1,4.7-2.6,9.5-1.3c2.9,0.8,5.3,2.9,7.2,6.1c5.5,9.9,8.5,14.5,8.5,14.5
				c0.1,0.2,0.1,0.4-0.1,0.5C296.3,255.8,296.2,255.8,296.1,255.8z"/>
		</g>
	</g>
</g>
</svg>
