<?xml version="1.0"?>
<svg xmlns="http://www.w3.org/2000/svg" xmlns:xlink="http://www.w3.org/1999/xlink" xmlns:svgjs="http://svgjs.com/svgjs" version="1.1" width="512" height="512" x="0" y="0" viewBox="0 0 24 24" style="enable-background:new 0 0 512 512" xml:space="preserve" class=""><g><path xmlns="http://www.w3.org/2000/svg" d="m13.861 3.609h-6.144-4.578c-1.417 0-2.564 1.147-2.564 2.564v9.081 2.573c0 1.417 1.147 2.564 2.564 2.564h6.144 4.578c1.417 0 2.564-1.147 2.564-2.564v-9.081-2.573c0-1.417-1.147-2.564-2.564-2.564z" fill="#ffcccc" data-original="#2196f3" style="" class=""/><path xmlns="http://www.w3.org/2000/svg" d="m11.875 2.125h-.99c-.297-1.035-1.251-1.8-2.385-1.8s-2.088.765-2.385 1.8h-.99c-.369 0-.675.306-.675.675v1.8c0 .864.711 1.575 1.575 1.575h4.95c.864 0 1.575-.711 1.575-1.575v-1.8c0-.369-.306-.675-.675-.675z" fill="#ff0707" data-original="#1976d2" style="" class=""/><path xmlns="http://www.w3.org/2000/svg" d="m22.875 23.138c-.229 0-.447-.116-.573-.317-1.361-2.178-3.702-3.033-5.972-3.033h-.03v1.8c0 .27-.161.514-.409.62-.247.106-.535.055-.731-.131l-4.25-4.275c-.134-.127-.21-.305-.21-.49s.076-.362.21-.49l4.25-4.275c.196-.186.485-.237.731-.131.248.106.409.35.409.62v1.829c3.893.339 7.25 3.349 7.25 7.596 0 .301-.2.566-.489.649-.062.019-.124.028-.186.028z" fill="#ff0707" data-original="#ffc107" style="" class=""/><path xmlns="http://www.w3.org/2000/svg" d="m23.25 24c-.254 0-.497-.129-.636-.353-1.513-2.419-3.558-3.647-6.08-3.647h-.034v2c0 .3-.179.571-.454.689-.274.118-.595.062-.812-.146l-5-4.75c-.15-.141-.234-.337-.234-.543s.084-.402.233-.544l5-4.75c.217-.206.539-.263.812-.146.276.119.455.39.455.69v2.032c4.325.377 7.5 3.998 7.5 8.718 0 .335-.222.629-.543.721-.069.019-.138.029-.207.029zm-7.5-5.5h.784c2.123 0 4.005.738 5.555 2.159-.931-2.777-3.349-4.659-6.339-4.659-.414 0-.75-.336-.75-.75v-1.003l-3.161 3.003 3.161 3.003v-1.003c0-.414.336-.75.75-.75z" fill="#000000" data-original="#000000" style="" class=""/><path xmlns="http://www.w3.org/2000/svg" d="m9.55 21h-6.8c-1.517 0-2.75-1.233-2.75-2.75v-12.5c0-1.517 1.233-2.75 2.75-2.75h1.88c.414 0 .75.336.75.75s-.336.75-.75.75h-1.88c-.689 0-1.25.561-1.25 1.25v12.5c0 .689.561 1.25 1.25 1.25h6.8c.414 0 .75.336.75.75s-.336.75-.75.75z" fill="#000000" data-original="#000000" style="" class=""/><path xmlns="http://www.w3.org/2000/svg" d="m16.25 10.3c-.414 0-.75-.336-.75-.75v-3.8c0-.689-.561-1.25-1.25-1.25h-1.87c-.414 0-.75-.336-.75-.75s.336-.75.75-.75h1.87c1.516 0 2.75 1.233 2.75 2.75v3.8c0 .414-.336.75-.75.75z" fill="#000000" data-original="#000000" style="" class=""/><path xmlns="http://www.w3.org/2000/svg" d="m11.25 6.5h-5.5c-.965 0-1.75-.785-1.75-1.75v-2c0-.414.336-.75.75-.75h1.104c.327-1.153 1.39-2 2.646-2s2.319.847 2.646 2h1.104c.414 0 .75.336.75.75v2c0 .965-.785 1.75-1.75 1.75zm-5.75-3v1.25c0 .138.112.25.25.25h5.5c.138 0 .25-.112.25-.25v-1.25h-1c-.414 0-.75-.336-.75-.75 0-.689-.561-1.25-1.25-1.25s-1.25.561-1.25 1.25c0 .414-.336.75-.75.75z" fill="#000000" data-original="#000000" style="" class=""/><path xmlns="http://www.w3.org/2000/svg" d="m13.25 9.5h-9.5c-.414 0-.75-.336-.75-.75s.336-.75.75-.75h9.5c.414 0 .75.336.75.75s-.336.75-.75.75z" fill="#000000" data-original="#000000" style="" class=""/><path xmlns="http://www.w3.org/2000/svg" d="m12.19 12.5h-8.44c-.414 0-.75-.336-.75-.75s.336-.75.75-.75h8.44c.414 0 .75.336.75.75s-.336.75-.75.75z" fill="#000000" data-original="#000000" style="" class=""/><path xmlns="http://www.w3.org/2000/svg" d="m9.03 15.5h-5.28c-.414 0-.75-.336-.75-.75s.336-.75.75-.75h5.28c.414 0 .75.336.75.75s-.336.75-.75.75z" fill="#000000" data-original="#000000" style="" class=""/></g></svg>
