<?xml version="1.0" encoding="utf-8"?>
<!-- Generator: Adobe Illustrator 24.3.0, SVG Export Plug-In . SVG Version: 6.00 Build 0)  -->
<svg version="1.1" id="Layer_1" xmlns="http://www.w3.org/2000/svg" xmlns:xlink="http://www.w3.org/1999/xlink" x="0px" y="0px"
	 viewBox="0 0 750 500" style="enable-background:new 0 0 750 500;" xml:space="preserve">
<style type="text/css">
	.st0{fill:url(#SVGID_1_);}
	.st1{fill:#7D97F4;}
	.st2{fill:#91B3FA;}
	.st3{opacity:0.83;fill:#FFFFFF;}
	.st4{opacity:0.75;fill:#FFFFFF;}
	.st5{fill:#F4AE00;}
	.st6{fill:#FFC41D;}
	.st7{fill:#FFFFFF;}
	.st8{fill:#FFCE55;}
	.st9{fill:#FFEAC0;}
	.st10{opacity:0.78;fill:#FFFFFF;}
	.st11{fill:#102D5B;}
	.st12{fill:#17A3B6;}
	.st13{fill:url(#SVGID_2_);}
	.st14{fill:url(#SVGID_3_);}
	.st15{fill:url(#SVGID_4_);}
	.st16{fill:url(#SVGID_5_);}
	.st17{fill:url(#SVGID_6_);}
	.st18{fill:#666694;}
	.st19{fill:url(#SVGID_7_);}
	.st20{fill:url(#SVGID_8_);}
	.st21{fill:url(#SVGID_9_);}
	.st22{fill:url(#SVGID_10_);}
	.st23{fill:url(#SVGID_11_);}
	.st24{fill:url(#SVGID_12_);}
	.st25{fill:url(#SVGID_13_);}
	.st26{fill:url(#SVGID_14_);}
	.st27{fill:url(#SVGID_15_);}
</style>
<g>
	<linearGradient id="SVGID_1_" gradientUnits="userSpaceOnUse" x1="642.6159" y1="470.5623" x2="321.9179" y2="189.9518">
		<stop  offset="0" style="stop-color:#DAE3FE"/>
		<stop  offset="1" style="stop-color:#E9EFFD"/>
	</linearGradient>
	<path class="st0" d="M588.1,324.8c-41.4,97.6-151.9,152.3-247.6,137.5c-15.6-2.4-58.3-9.5-96.1-43.3
		C171.6,354.2,156,225.6,214.8,135C257.5,69.1,334.1,31.7,406.9,33.6c15.7,0.4,75.8,2.9,128.6,46.4c7.8,6.4,24.9,21.6,40.3,45.7
		C612,182.3,615.1,261.2,588.1,324.8z"/>
	<g>
		<g>
			<g>
				
					<ellipse transform="matrix(0.2117 -0.9773 0.9773 0.2117 252.4846 549.8983)" class="st1" cx="467.1" cy="118.4" rx="38.7" ry="38.7"/>
				
					<ellipse transform="matrix(0.8281 -0.5606 0.5606 0.8281 13.9165 282.2462)" class="st2" cx="467.1" cy="118.4" rx="37.4" ry="37.4"/>
				<path class="st3" d="M432.6,117C432.6,117,432.6,117,432.6,117c-0.2,0-0.4-0.2-0.4-0.4c0.1-1.5,0.2-2.9,0.5-4.4
					c0-0.2,0.2-0.4,0.5-0.3c0.2,0,0.4,0.2,0.3,0.5c-0.3,1.4-0.4,2.9-0.5,4.3C433,116.8,432.8,117,432.6,117z"/>
				<path class="st3" d="M436.3,103.3c-0.1,0-0.1,0-0.2,0c-0.2-0.1-0.3-0.3-0.2-0.5c6-11.9,18-19.2,31.2-19.2c2.1,0,4.2,0.2,6.3,0.6
					c0.2,0,0.4,0.2,0.3,0.5c0,0.2-0.2,0.4-0.5,0.3c-2-0.4-4.1-0.6-6.2-0.6c-13,0-24.7,7.2-30.5,18.8
					C436.5,103.2,436.4,103.3,436.3,103.3z"/>
				
					<ellipse transform="matrix(0.9239 -0.3827 0.3827 0.9239 -10.0151 188.1501)" class="st4" cx="467.9" cy="119.2" rx="31.7" ry="31.7"/>
			</g>
		</g>
		<g>
			<path class="st2" d="M477.2,106.7c0,5.6-4.5,11.5-10.1,11.5s-10.1-6-10.1-11.5c0-5.6,4.5-9.5,10.1-9.5S477.2,101.2,477.2,106.7z"
				/>
			<path class="st2" d="M454.7,139.6h24.5c2.6,0,4.9-1.7,5.7-4.1l1.3-4.1c1-3-0.6-6.3-3.6-7.4c-10-3.7-20.3-3.2-30.9,0.3
				c-3,1-4.6,4.2-3.8,7.2l1,3.7C449.7,137.8,452,139.6,454.7,139.6z"/>
		</g>
	</g>
	<g>
		
			<ellipse transform="matrix(0.1373 -0.9905 0.9905 0.1373 -89.7229 728.9891)" class="st5" cx="373.6" cy="416" rx="39.6" ry="39.6"/>
		
			<ellipse transform="matrix(0.2369 -0.9715 0.9715 0.2369 -119.0421 680.4465)" class="st6" cx="373.6" cy="416" rx="38.3" ry="38.3"/>
		<path class="st7" d="M342,400.5c-0.1,0-0.1,0-0.2,0c-0.2-0.1-0.3-0.4-0.2-0.6c6.1-12.1,18.4-19.7,32-19.7c2.2,0,4.3,0.2,6.5,0.6
			c0.2,0,0.4,0.3,0.3,0.5c0,0.2-0.3,0.4-0.5,0.3c-2.1-0.4-4.2-0.6-6.3-0.6c-13.3,0-25.2,7.4-31.2,19.2
			C342.3,400.4,342.2,400.5,342,400.5z"/>
		
			<ellipse transform="matrix(0.8702 -0.4927 0.4927 0.8702 -156.7693 238.6051)" class="st8" cx="374.5" cy="416.8" rx="32.4" ry="32.4"/>
		<g>
			<path class="st9" d="M371.3,440.9v-3.5c-3.7-0.1-7.3-1-9.9-2.1c-0.9-0.4-1.4-1.4-1.1-2.4l0.9-3.3c0.3-1.2,1.6-1.8,2.8-1.3
				c2.6,1.1,5.7,1.9,9.1,1.9c3.5,0,6.2-1.2,6.2-3.7c0-2.2-2-3.5-7-4.9c-7-1.9-12.1-5-12.1-11.2c0-5.6,4.1-9.8,11.2-11v-3.5
				c0-1.1,0.9-2.1,2.1-2.1h2.1c1.1,0,2.1,0.9,2.1,2.1v3.2c3.4,0.1,5.9,0.7,7.8,1.4c1,0.4,1.6,1.4,1.3,2.5l-0.8,3
				c-0.3,1.2-1.6,1.8-2.7,1.4c-1.8-0.7-4.4-1.4-7.7-1.4c-4.2,0-5.4,1.7-5.4,3.3c0,1.9,2.5,3.2,8,4.9c7.8,2.3,11,5.6,11,11.4
				c0,5.3-4,10.1-11.6,11.3v3.9c0,1.1-0.9,2.1-2.1,2.1h-2.1C372.2,443,371.3,442.1,371.3,440.9z"/>
		</g>
	</g>
	<g>
		
			<ellipse transform="matrix(0.1856 -0.9826 0.9826 0.1856 62.1043 776.9499)" class="st5" cx="499.8" cy="351" rx="38.4" ry="38.4"/>
		
			<ellipse transform="matrix(0.4899 -0.8718 0.8718 0.4899 -51.0566 614.7562)" class="st6" cx="499.8" cy="351" rx="37.1" ry="37.1"/>
		<path class="st10" d="M469.2,336.1c-0.1,0-0.1,0-0.2,0c-0.2-0.1-0.3-0.3-0.2-0.5c5.9-11.8,17.8-19.1,30.9-19.1
			c2.1,0,4.2,0.2,6.3,0.6c0.2,0,0.4,0.3,0.3,0.5c0,0.2-0.3,0.4-0.5,0.3c-2-0.4-4.1-0.5-6.1-0.5c-12.9,0-24.4,7.2-30.2,18.7
			C469.4,336,469.3,336.1,469.2,336.1z"/>
		
			<ellipse transform="matrix(0.9484 -0.3171 0.3171 0.9484 -85.7182 176.8741)" class="st8" cx="500.6" cy="351.8" rx="31.4" ry="31.4"/>
		<g>
			<path class="st9" d="M497.6,375.2l0-3.4c-3.6-0.1-7.1-1-9.6-2.1c-0.9-0.4-1.4-1.4-1.1-2.3l0.9-3.2c0.3-1.2,1.6-1.8,2.7-1.3
				c2.5,1,5.6,1.9,8.9,1.8c3.4,0,6-1.2,6-3.6c0-2.2-2-3.4-6.8-4.7c-6.8-1.8-11.7-4.8-11.7-10.8c0-5.4,3.9-9.5,10.8-10.7l0-3.4
				c0-1.1,0.9-2,2-2l2,0c1.1,0,2,0.9,2,2l0,3.1c3.3,0.1,5.7,0.7,7.6,1.4c1,0.3,1.5,1.4,1.2,2.4l-0.8,2.9c-0.3,1.1-1.5,1.8-2.6,1.3
				c-1.8-0.7-4.2-1.3-7.5-1.3c-4.1,0-5.2,1.7-5.2,3.2c0,1.9,2.4,3.1,7.7,4.8c7.6,2.3,10.7,5.4,10.7,11c0,5.2-3.8,9.8-11.3,11l0,3.8
				c0,1.1-0.9,2-2,2l-2,0C498.5,377.2,497.6,376.3,497.6,375.2z"/>
		</g>
	</g>
	<g>
		
			<ellipse transform="matrix(5.357777e-02 -0.9986 0.9986 5.357777e-02 264.7162 823.8605)" class="st5" cx="567" cy="272.3" rx="49.8" ry="49.8"/>
		
			<ellipse transform="matrix(0.3467 -0.938 0.938 0.3467 115.0405 709.7205)" class="st6" cx="567" cy="272.3" rx="48.1" ry="48.1"/>
		<path class="st10" d="M526.1,255.4c-0.1,0-0.2,0-0.2,0c-0.3-0.1-0.4-0.4-0.3-0.7c6.7-15.7,21.5-26.2,38.5-27.3
			c2.7-0.2,5.5-0.1,8.1,0.2c0.3,0,0.5,0.3,0.5,0.6c0,0.3-0.3,0.5-0.6,0.5c-2.6-0.3-5.3-0.4-8-0.2c-16.6,1.1-31,11.3-37.6,26.6
			C526.5,255.3,526.3,255.4,526.1,255.4z"/>
		
			<ellipse transform="matrix(0.8784 -0.4779 0.4779 0.8784 -61.5192 304.7)" class="st8" cx="568.1" cy="273.3" rx="40.8" ry="40.8"/>
		<g>
			<path class="st9" d="M566.1,303.7l-0.3-4.4c-4.6,0.1-9.3-0.7-12.6-1.9c-1.2-0.4-1.9-1.7-1.6-2.9l0.9-4.2c0.3-1.5,1.9-2.4,3.4-1.9
				c3.3,1.1,7.3,2,11.6,1.7c4.4-0.3,7.7-2,7.5-5.1c-0.2-2.8-2.8-4.3-9.1-5.5c-9-1.8-15.5-5.3-16-13c-0.5-7,4.3-12.7,13.1-14.7
				l-0.3-4.4c-0.1-1.4,1-2.7,2.4-2.7l2.6-0.2c1.4-0.1,2.7,1,2.7,2.4l0.3,4c4.3-0.1,7.4,0.4,10,1.1c1.3,0.4,2.1,1.7,1.8,3l-0.8,3.9
				c-0.3,1.5-1.8,2.4-3.3,2c-2.3-0.7-5.6-1.4-9.8-1.1c-5.3,0.3-6.6,2.6-6.5,4.6c0.2,2.4,3.4,3.9,10.4,5.5c10,2.3,14.3,6.1,14.8,13.4
				c0.4,6.7-4.2,13-13.7,15.2l0.3,5c0.1,1.4-1,2.7-2.4,2.7l-2.6,0.2C567.4,306.3,566.1,305.2,566.1,303.7z"/>
		</g>
	</g>
	<g>
		
			<ellipse transform="matrix(5.357777e-02 -0.9986 0.9986 5.357777e-02 -251.2845 548.4278)" class="st5" cx="163.7" cy="406.8" rx="49.8" ry="49.8"/>
		
			<ellipse transform="matrix(0.3467 -0.938 0.938 0.3467 -274.6161 419.2979)" class="st6" cx="163.7" cy="406.8" rx="48.1" ry="48.1"/>
		<path class="st10" d="M122.8,389.9c-0.1,0-0.2,0-0.2,0c-0.3-0.1-0.4-0.4-0.3-0.7c6.7-15.7,21.5-26.2,38.5-27.3
			c2.7-0.2,5.5-0.1,8.1,0.2c0.3,0,0.5,0.3,0.5,0.6c0,0.3-0.3,0.5-0.6,0.5c-2.6-0.3-5.3-0.4-8-0.2c-16.6,1.1-31,11.3-37.6,26.6
			C123.2,389.8,123,389.9,122.8,389.9z"/>
		
			<ellipse transform="matrix(0.8784 -0.4779 0.4779 0.8784 -174.8229 128.3225)" class="st8" cx="164.8" cy="407.8" rx="40.8" ry="40.8"/>
		<g>
			<path class="st9" d="M162.7,438.2l-0.3-4.4c-4.6,0.1-9.3-0.7-12.6-1.9c-1.2-0.4-1.9-1.7-1.6-2.9l0.9-4.2c0.3-1.5,1.9-2.4,3.4-1.9
				c3.3,1.1,7.3,2,11.6,1.7c4.4-0.3,7.7-2,7.5-5.1c-0.2-2.8-2.8-4.3-9.1-5.5c-9-1.8-15.5-5.3-16-13c-0.5-7,4.3-12.7,13.1-14.7
				l-0.3-4.4c-0.1-1.4,1-2.7,2.4-2.7l2.6-0.2c1.4-0.1,2.7,1,2.7,2.4l0.3,4c4.3-0.1,7.4,0.4,10,1.1c1.3,0.4,2.1,1.7,1.8,3l-0.8,3.9
				c-0.3,1.5-1.8,2.4-3.3,2c-2.3-0.7-5.6-1.4-9.8-1.1c-5.3,0.3-6.6,2.6-6.5,4.6c0.2,2.4,3.4,3.9,10.4,5.5c10,2.3,14.3,6.1,14.8,13.4
				c0.4,6.7-4.2,13-13.7,15.2l0.3,5c0.1,1.4-1,2.7-2.4,2.7l-2.6,0.2C164.1,440.8,162.8,439.7,162.7,438.2z"/>
		</g>
	</g>
	<g>
		
			<ellipse transform="matrix(0.1826 -0.9832 0.9832 0.1826 -32.4627 821.4301)" class="st5" cx="477.8" cy="430.2" rx="32.2" ry="32.2"/>
		
			<ellipse transform="matrix(0.3216 -0.9469 0.9469 0.3216 -83.2307 744.3135)" class="st6" cx="477.8" cy="430.2" rx="31.1" ry="31.1"/>
		<path class="st10" d="M453,416c-0.1,0-0.1,0-0.2,0c-0.2-0.1-0.2-0.3-0.1-0.5c5.6-9.5,15.9-15,27-14.3c1.8,0.1,3.5,0.4,5.2,0.8
			c0.2,0,0.3,0.2,0.2,0.4c0,0.2-0.2,0.3-0.4,0.2c-1.7-0.4-3.4-0.7-5.1-0.8c-10.8-0.7-20.9,4.6-26.3,13.9
			C453.2,415.9,453.1,416,453,416z"/>
		
			<ellipse transform="matrix(4.213868e-02 -0.9991 0.9991 4.213868e-02 27.697 890.8107)" class="st8" cx="478.4" cy="431" rx="26.4" ry="26.4"/>
		<g>
			<path class="st9" d="M474.6,450.3l0.2-2.9c-3-0.3-5.9-1.2-7.9-2.3c-0.7-0.4-1.1-1.2-0.8-2l0.9-2.6c0.3-1,1.4-1.4,2.3-0.9
				c2,1,4.5,1.9,7.3,2c2.9,0.2,5.1-0.6,5.2-2.6c0.1-1.8-1.5-3-5.4-4.3c-5.6-1.9-9.5-4.7-9.2-9.7c0.3-4.5,3.8-7.8,9.6-8.3l0.2-2.9
				c0.1-0.9,0.9-1.6,1.8-1.6l1.7,0.1c0.9,0.1,1.6,0.9,1.6,1.8l-0.2,2.6c2.8,0.3,4.7,0.9,6.3,1.6c0.8,0.3,1.2,1.2,0.9,2.1l-0.8,2.4
				c-0.3,0.9-1.4,1.4-2.3,1c-1.4-0.7-3.5-1.4-6.2-1.5c-3.4-0.2-4.5,1.1-4.6,2.4c-0.1,1.6,1.9,2.8,6.2,4.4c6.2,2.3,8.7,5.1,8.4,9.8
				c-0.3,4.3-3.8,8-10,8.6l-0.2,3.2c-0.1,0.9-0.9,1.6-1.8,1.6l-1.7-0.1C475.2,452.1,474.5,451.3,474.6,450.3z"/>
		</g>
	</g>
	<g>
		
			<ellipse transform="matrix(0.1826 -0.9832 0.9832 0.1826 -137.0791 496.2537)" class="st5" cx="229.9" cy="330.6" rx="32.2" ry="32.2"/>
		
			<ellipse transform="matrix(0.3216 -0.9469 0.9469 0.3216 -157.0255 441.9812)" class="st6" cx="229.9" cy="330.6" rx="31.1" ry="31.1"/>
		<path class="st10" d="M205.1,316.3c-0.1,0-0.1,0-0.2,0c-0.2-0.1-0.2-0.3-0.1-0.5c5.6-9.5,15.9-15,27-14.3c1.8,0.1,3.5,0.4,5.2,0.8
			c0.2,0,0.3,0.2,0.2,0.4c0,0.2-0.2,0.3-0.4,0.2c-1.7-0.4-3.4-0.7-5.1-0.8c-10.8-0.7-20.9,4.6-26.3,13.9
			C205.4,316.3,205.2,316.3,205.1,316.3z"/>
		
			<ellipse transform="matrix(4.213868e-02 -0.9991 0.9991 4.213868e-02 -110.1569 547.6828)" class="st8" cx="230.6" cy="331.3" rx="26.4" ry="26.4"/>
		<g>
			<path class="st9" d="M226.7,350.7l0.2-2.9c-3-0.3-5.9-1.2-7.9-2.3c-0.7-0.4-1.1-1.2-0.8-2l0.9-2.6c0.3-1,1.4-1.4,2.3-0.9
				c2,1,4.5,1.9,7.3,2c2.9,0.2,5.1-0.6,5.2-2.6c0.1-1.8-1.5-3-5.4-4.3c-5.6-1.9-9.5-4.7-9.2-9.7c0.3-4.5,3.8-7.8,9.6-8.3l0.2-2.9
				c0.1-0.9,0.9-1.6,1.8-1.6l1.7,0.1c0.9,0.1,1.6,0.9,1.6,1.8l-0.2,2.6c2.8,0.3,4.7,0.9,6.3,1.6c0.8,0.3,1.2,1.2,0.9,2.1l-0.8,2.4
				c-0.3,0.9-1.4,1.4-2.3,1c-1.4-0.7-3.5-1.4-6.2-1.5c-3.4-0.2-4.5,1.1-4.6,2.4c-0.1,1.6,1.9,2.8,6.2,4.4c6.2,2.3,8.7,5.1,8.4,9.8
				c-0.3,4.3-3.8,8-10,8.6l-0.2,3.2c-0.1,0.9-0.9,1.6-1.8,1.6l-1.7-0.1C227.3,352.4,226.6,351.6,226.7,350.7z"/>
		</g>
	</g>
	<g>
		
			<ellipse transform="matrix(0.1826 -0.9832 0.9832 0.1826 -181.3433 595.4255)" class="st5" cx="267.4" cy="406.8" rx="32.2" ry="32.2"/>
		
			<ellipse transform="matrix(0.3216 -0.9469 0.9469 0.3216 -203.7356 529.2036)" class="st6" cx="267.4" cy="406.8" rx="31.1" ry="31.1"/>
		<path class="st10" d="M242.6,392.5c-0.1,0-0.1,0-0.2,0c-0.2-0.1-0.2-0.3-0.1-0.5c5.6-9.5,15.9-15,27-14.3c1.8,0.1,3.5,0.4,5.2,0.8
			c0.2,0,0.3,0.2,0.2,0.4c0,0.2-0.2,0.3-0.4,0.2c-1.7-0.4-3.4-0.7-5.1-0.8c-10.8-0.7-20.9,4.6-26.3,13.9
			C242.9,392.5,242.7,392.5,242.6,392.5z"/>
		
			<ellipse transform="matrix(4.213868e-02 -0.9991 0.9991 4.213868e-02 -150.3648 658.1589)" class="st8" cx="268.1" cy="407.5" rx="26.4" ry="26.4"/>
		<g>
			<path class="st9" d="M264.2,426.9l0.2-2.9c-3-0.3-5.9-1.2-7.9-2.3c-0.7-0.4-1.1-1.2-0.8-2l0.9-2.6c0.3-1,1.4-1.4,2.3-0.9
				c2,1,4.5,1.9,7.3,2c2.9,0.2,5.1-0.6,5.2-2.6c0.1-1.8-1.5-3-5.4-4.3c-5.6-1.9-9.5-4.7-9.2-9.7c0.3-4.5,3.8-7.8,9.6-8.3l0.2-2.9
				c0.1-0.9,0.9-1.6,1.8-1.6l1.7,0.1c0.9,0.1,1.6,0.9,1.6,1.8l-0.2,2.6c2.8,0.3,4.7,0.9,6.3,1.6c0.8,0.3,1.2,1.2,0.9,2.1l-0.8,2.4
				c-0.3,0.9-1.4,1.4-2.3,1c-1.4-0.7-3.5-1.4-6.2-1.5c-3.4-0.2-4.5,1.1-4.6,2.4c-0.1,1.6,1.9,2.8,6.2,4.4c6.2,2.3,8.7,5.1,8.4,9.8
				c-0.3,4.3-3.8,8-10,8.6l-0.2,3.2c-0.1,0.9-0.9,1.6-1.8,1.6l-1.7-0.1C264.9,428.6,264.2,427.8,264.2,426.9z"/>
		</g>
	</g>
	<g>
		<g>
			<path class="st11" d="M439,334.4c-51.3,0-102.5,0-153.8,0c-30.1-61.2-60.2-123.7-90.3-185.6c111.5,0,223,0,334.5,0
				C499.3,210.7,469.2,273.1,439,334.4z"/>
			<path class="st12" d="M540.2,151.1c0,2.1-1.7,3.9-3.9,3.9h-348c-2.1,0-3.9-1.7-3.9-3.9v-5.8c0-2.1,1.7-3.9,3.9-3.9h348
				c2.1,0,3.9,1.7,3.9,3.9V151.1z"/>
			<path class="st11" d="M428,406.8c-43.9,0-87.8,0-131.7,0c-3.8-22.9-7.6-48.3-11.5-72.4c51.5,0,103.1,0,154.6,0
				C435.6,358.5,431.8,383.9,428,406.8z"/>
		</g>
		<path class="st11" d="M431.9,407.4c0,2.7-1.6,4.3-3.6,4.3H294.9c-1.9,0-3.4-1.7-3.4-4.3v-3c0-2.7,1.5-5.1,3.4-5.1h133.4
			c1.9,0,3.6,2.4,3.6,5.1V407.4z"/>
		<g>
			<path class="st2" d="M276.8,303.4c-0.4,0-0.8-0.2-1-0.7l-58.6-134.3c-0.2-0.6,0-1.2,0.6-1.4c0.6-0.2,1.2,0,1.4,0.6l58.6,134.3
				c0.2,0.6,0,1.2-0.6,1.4C277.1,303.4,276.9,303.4,276.8,303.4z"/>
		</g>
		<g>
			<path class="st2" d="M298.6,390.6c-0.5,0-1-0.4-1.1-1l-5.5-44.6c-0.1-0.6,0.4-1.1,1-1.2c0.6-0.1,1.1,0.4,1.2,1l5.5,44.6
				c0.1,0.6-0.4,1.1-1,1.2C298.7,390.6,298.6,390.6,298.6,390.6z"/>
		</g>
	</g>
	<g>
		<g>
			<path class="st12" d="M353.5,293.6c-0.4,0-0.8-0.2-1-0.5c-0.4-0.5-0.9-1.1-1.3-1.7c-0.4-0.6-0.3-1.4,0.3-1.8
				c0.6-0.4,1.4-0.3,1.8,0.3c0.4,0.5,0.8,1.1,1.2,1.6c0.5,0.6,0.4,1.4-0.2,1.8C354.1,293.5,353.8,293.6,353.5,293.6z"/>
			<path class="st12" d="M348.4,286.1c-0.5,0-0.9-0.2-1.1-0.7c-0.7-1.3-1.4-2.6-2-3.9c-0.3-0.7,0-1.4,0.7-1.7c0.7-0.3,1.4,0,1.7,0.7
				c0.6,1.3,1.2,2.5,1.9,3.7c0.3,0.6,0.1,1.4-0.5,1.8C348.8,286,348.6,286.1,348.4,286.1z M344.1,275.7c-0.6,0-1.1-0.4-1.2-0.9
				c-0.4-1.4-0.8-2.8-1-4.3c-0.1-0.7,0.3-1.4,1-1.5c0.7-0.1,1.4,0.3,1.5,1c0.3,1.4,0.6,2.7,1,4.1c0.2,0.7-0.2,1.4-0.9,1.6
				C344.4,275.6,344.2,275.7,344.1,275.7z M342.2,264.6c-0.7,0-1.3-0.5-1.3-1.2c-0.1-0.9-0.1-1.9-0.1-2.9c0-0.5,0-1,0-1.5
				c0-0.7,0.6-1.3,1.3-1.3c0.7,0,1.3,0.6,1.3,1.3c0,0.5,0,1,0,1.5c0,0.9,0,1.8,0.1,2.7C343.6,263.9,343,264.5,342.2,264.6
				C342.3,264.6,342.3,264.6,342.2,264.6z M342.9,253.3c-0.1,0-0.1,0-0.2,0c-0.7-0.1-1.2-0.8-1.1-1.5c0.2-1.4,0.6-2.9,0.9-4.3
				c0.2-0.7,0.9-1.1,1.6-0.9c0.7,0.2,1.1,0.9,0.9,1.6c-0.4,1.3-0.6,2.7-0.9,4.1C344.1,252.9,343.5,253.3,342.9,253.3z M346,242.5
				c-0.2,0-0.3,0-0.5-0.1c-0.7-0.3-1-1-0.7-1.7c0.6-1.3,1.2-2.7,1.9-4c0.3-0.6,1.1-0.9,1.8-0.6c0.6,0.3,0.9,1.1,0.6,1.7
				c-0.6,1.2-1.2,2.5-1.8,3.8C347,242.2,346.5,242.5,346,242.5z M351.4,232.7c-0.3,0-0.5-0.1-0.7-0.2c-0.6-0.4-0.7-1.2-0.3-1.8
				c0.8-1.2,1.8-2.4,2.7-3.5c0.5-0.5,1.3-0.6,1.8-0.2c0.5,0.5,0.6,1.3,0.2,1.8c-0.9,1.1-1.8,2.2-2.6,3.3
				C352.3,232.5,351.9,232.7,351.4,232.7z M358.9,224.3c-0.4,0-0.7-0.1-1-0.4c-0.5-0.5-0.4-1.4,0.1-1.8c1.1-1,2.2-1.9,3.4-2.8
				c0.6-0.4,1.4-0.3,1.8,0.3c0.4,0.6,0.3,1.4-0.3,1.8c-1.1,0.8-2.2,1.7-3.2,2.7C359.6,224.2,359.2,224.3,358.9,224.3z M368.1,217.8
				c-0.5,0-0.9-0.2-1.1-0.7c-0.3-0.6-0.1-1.4,0.5-1.8c1.3-0.7,2.6-1.4,3.9-2c0.7-0.3,1.4,0,1.7,0.7c0.3,0.7,0,1.4-0.7,1.7
				c-1.3,0.6-2.5,1.2-3.7,1.9C368.5,217.7,368.3,217.8,368.1,217.8z M378.5,213.5c-0.6,0-1.1-0.4-1.2-0.9c-0.2-0.7,0.2-1.4,0.9-1.6
				c1.4-0.4,2.8-0.8,4.3-1c0.7-0.1,1.4,0.3,1.5,1c0.1,0.7-0.3,1.4-1,1.5c-1.4,0.3-2.7,0.6-4.1,1
				C378.7,213.5,378.6,213.5,378.5,213.5z M389.6,211.6c-0.7,0-1.3-0.5-1.3-1.2c0-0.7,0.5-1.3,1.2-1.4c1-0.1,2-0.1,3-0.1
				c0,0,0,0,0,0c0.5,0,1,0,1.4,0c0.7,0,1.3,0.6,1.3,1.3c0,0.7-0.6,1.3-1.3,1.3c-0.5,0-0.9,0-1.4,0c0,0,0,0,0,0
				C391.5,211.5,390.6,211.5,389.6,211.6C389.6,211.6,389.6,211.6,389.6,211.6z"/>
			<path class="st12" d="M402.9,212.6c-0.1,0-0.2,0-0.3,0c-0.7-0.1-1.3-0.3-2-0.4c-0.7-0.1-1.2-0.8-1.1-1.5c0.1-0.7,0.8-1.2,1.5-1.1
				c0.7,0.1,1.4,0.3,2.1,0.4c0.7,0.1,1.1,0.8,1,1.5C404,212.2,403.5,212.6,402.9,212.6z"/>
		</g>
		<g>
			<path class="st12" d="M435.1,235.2c-0.4,0-0.9-0.2-1.1-0.6c-0.4-0.6-0.7-1.1-1.1-1.7c-0.4-0.6-0.3-1.4,0.3-1.8
				c0.6-0.4,1.4-0.3,1.8,0.3c0.4,0.6,0.8,1.2,1.2,1.8c0.4,0.6,0.2,1.4-0.4,1.8C435.6,235.1,435.4,235.2,435.1,235.2z"/>
			<path class="st12" d="M392.5,312.1c-1.3,0-2.6-0.1-3.9-0.2c-0.7-0.1-1.3-0.7-1.2-1.4c0.1-0.7,0.7-1.2,1.4-1.2
				c1.2,0.1,2.5,0.1,3.7,0.1l0.4,0c0,0,0,0,0,0c0.7,0,1.3,0.6,1.3,1.3c0,0.7-0.6,1.3-1.3,1.3L392.5,312.1z M399.7,311.6
				c-0.6,0-1.2-0.5-1.3-1.1c-0.1-0.7,0.4-1.4,1.1-1.5c1.3-0.2,2.7-0.5,4-0.8c0.7-0.2,1.4,0.3,1.6,1c0.2,0.7-0.3,1.4-1,1.6
				c-1.4,0.3-2.8,0.6-4.3,0.8C399.8,311.6,399.7,311.6,399.7,311.6z M410.4,308.8c-0.5,0-1-0.3-1.2-0.8c-0.3-0.7,0.1-1.4,0.8-1.7
				c1.3-0.5,2.6-1,3.8-1.6c0.6-0.3,1.4,0,1.7,0.6c0.3,0.6,0,1.4-0.6,1.7c-1.3,0.6-2.6,1.2-4,1.7
				C410.7,308.7,410.6,308.8,410.4,308.8z M420.2,303.7c-0.4,0-0.8-0.2-1.1-0.6c-0.4-0.6-0.2-1.4,0.4-1.8c1.1-0.8,2.3-1.6,3.3-2.4
				c0.6-0.4,1.4-0.3,1.8,0.2c0.4,0.6,0.3,1.4-0.2,1.8c-1.1,0.9-2.3,1.7-3.5,2.5C420.7,303.7,420.5,303.7,420.2,303.7z M428.7,296.6
				c-0.3,0-0.6-0.1-0.9-0.4c-0.5-0.5-0.5-1.3,0-1.8c0.9-1,1.9-2,2.7-3.1c0.5-0.6,1.3-0.6,1.8-0.2c0.6,0.5,0.6,1.3,0.2,1.8
				c-0.9,1.1-1.9,2.2-2.9,3.2C429.4,296.5,429.1,296.6,428.7,296.6z M435.5,287.9c-0.2,0-0.5-0.1-0.7-0.2c-0.6-0.4-0.8-1.2-0.4-1.8
				c0.7-1.2,1.4-2.4,2-3.6c0.3-0.6,1.1-0.9,1.7-0.6c0.6,0.3,0.9,1.1,0.6,1.7c-0.6,1.3-1.3,2.6-2.1,3.8
				C436.3,287.6,435.9,287.9,435.5,287.9z M440.1,277.8c-0.1,0-0.3,0-0.4-0.1c-0.7-0.2-1-1-0.8-1.6c0.4-1.3,0.8-2.6,1.1-4
				c0.2-0.7,0.9-1.1,1.6-1c0.7,0.2,1.1,0.9,1,1.6c-0.3,1.4-0.8,2.8-1.2,4.2C441.2,277.5,440.7,277.8,440.1,277.8z M442.5,267
				c0,0-0.1,0-0.1,0c-0.7-0.1-1.2-0.7-1.2-1.4c0.1-1.4,0.2-2.7,0.3-4.1c0-0.7,0.6-1.3,1.3-1.3c0.7,0,1.3,0.6,1.3,1.3
				c0,1.4-0.1,2.9-0.3,4.3C443.7,266.5,443.2,267,442.5,267z M442.4,255.9c-0.6,0-1.2-0.5-1.3-1.1c-0.2-1.4-0.4-2.7-0.7-4.1
				c-0.1-0.7,0.3-1.4,1-1.5c0.7-0.1,1.4,0.3,1.5,1c0.3,1.4,0.5,2.8,0.7,4.3c0.1,0.7-0.4,1.4-1.1,1.4
				C442.5,255.9,442.5,255.9,442.4,255.9z M439.9,245.1c-0.5,0-1-0.3-1.2-0.9c-0.5-1.3-1-2.6-1.5-3.8c-0.3-0.7,0-1.4,0.7-1.7
				c0.7-0.3,1.4,0,1.7,0.7c0.6,1.3,1.1,2.7,1.6,4c0.2,0.7-0.1,1.4-0.8,1.7C440.2,245.1,440.1,245.1,439.9,245.1z"/>
			<path class="st12" d="M381.8,310.9c-0.1,0-0.2,0-0.3,0c-0.7-0.2-1.4-0.3-2.1-0.5c-0.7-0.2-1.1-0.9-0.9-1.6
				c0.2-0.7,0.9-1.1,1.6-0.9c0.6,0.2,1.3,0.3,2,0.5c0.7,0.2,1.1,0.8,1,1.5C382.9,310.5,382.4,310.9,381.8,310.9z"/>
		</g>
		<g>
			<path class="st12" d="M378.1,296.3c0.2,0.1,0.5,0.1,0.7-0.1l5.4-5c3.3,0.9,6.8,1.2,10.3,1l4.3,5.9c0.2,0.2,0.4,0.3,0.7,0.2
				l8.4-2.6c0.2-0.1,0.4-0.3,0.4-0.6l0.3-7.3c3.1-1.8,5.7-4,8-6.6l7.3,1.1c0.3,0,0.5-0.1,0.6-0.3l4.1-7.8c0.1-0.2,0.1-0.5-0.1-0.7
				l-5-5.4c0.9-3.3,1.2-6.8,1-10.3l5.9-4.3c0.2-0.2,0.3-0.4,0.2-0.7l-2.6-8.4c-0.1-0.2-0.3-0.4-0.6-0.4l-7.3-0.3
				c-1.8-3.1-4-5.7-6.6-8l1.1-7.3c0-0.3-0.1-0.5-0.3-0.6l-7.8-4.1c-0.2-0.1-0.5-0.1-0.7,0.1l-5.4,5c-3.3-0.9-6.8-1.2-10.3-1
				l-4.3-5.9c-0.2-0.2-0.4-0.3-0.7-0.2l-8.4,2.6c-0.2,0.1-0.4,0.3-0.4,0.6l-0.3,7.3c-3.1,1.8-5.7,4-8,6.6l-7.3-1.1
				c-0.3,0-0.5,0.1-0.6,0.3l-4.1,7.8c-0.1,0.2-0.1,0.5,0.1,0.7l5,5.4c-0.9,3.3-1.2,6.8-1,10.3l-5.9,4.3c-0.2,0.2-0.3,0.4-0.2,0.7
				l2.6,8.4c0.1,0.2,0.3,0.4,0.6,0.4l7.3,0.3c1.8,3.1,4,5.7,6.6,8l-1.1,7.3c0,0.3,0.1,0.5,0.3,0.6L378.1,296.3z"/>
			<path class="st7" d="M390.4,269.4c-0.1,0-0.2,0-0.3-0.1c-2.5-0.6-4.5-2.1-5.8-4.3c-1.3-2.2-1.7-4.7-1.1-7.2
				c0.6-2.5,2.1-4.5,4.3-5.8c4.5-2.7,10.3-1.3,13,3.2c1.3,2.2,1.7,4.7,1.1,7.2c-0.6,2.5-2.1,4.5-4.3,5.8
				C395.2,269.5,392.7,269.9,390.4,269.4z M393.6,254.1c-1.5-0.3-3.1-0.1-4.5,0.8c-1.4,0.9-2.4,2.2-2.8,3.8
				c-0.4,1.6-0.1,3.3,0.7,4.7c0.9,1.4,2.2,2.4,3.8,2.8c1.6,0.4,3.3,0.1,4.7-0.7l0,0c1.4-0.9,2.4-2.2,2.8-3.8
				c0.4-1.6,0.1-3.3-0.7-4.7C396.7,255.4,395.3,254.4,393.6,254.1z"/>
			<path class="st7" d="M394,281.9c-0.3-0.1-0.6-0.4-0.6-0.7c0-0.1,0-0.2,0-0.2c0.1-0.3,0.4-0.6,0.7-0.6c1.4-0.1,2.9-0.4,4.3-0.8
				c0.1,0,0.1,0,0.2-0.1c4.9-1.5,8.9-4.8,11.5-9.2c0.1-0.1,0.1-0.2,0.2-0.3c0.1-0.1,0.1-0.3,0.2-0.4c0.9-1.7,1.5-3.5,1.9-5.3
				c0.7-3.4,0.6-6.9-0.5-10.3c-3.3-10.8-14.8-16.9-25.5-13.6c-7.3,2.2-12.5,8.3-14,15.3c-0.7,3.3-0.6,6.8,0.4,10.3
				c1.1,3.5,3.1,6.7,5.8,9.2c0.2,0.2,0.3,0.5,0.3,0.8c0,0.1-0.1,0.3-0.2,0.4c-0.3,0.3-0.8,0.4-1.2,0.1c-3-2.7-5.1-6.1-6.3-9.9
				c-1.1-3.7-1.2-7.5-0.5-11.1c1.6-7.6,7.2-14.1,15.1-16.5c11.6-3.6,24,3,27.6,14.6c1.1,3.7,1.3,7.5,0.5,11.1
				c-0.4,2-1.1,3.9-2.1,5.7c-2.8,5.2-7.4,9-13,10.8c-0.1,0-0.1,0-0.2,0.1c-1.4,0.4-2.9,0.7-4.4,0.8
				C394.2,281.9,394.1,281.9,394,281.9z"/>
		</g>
	</g>
	<g>
		<g>
			<path class="st12" d="M302.8,215.3c-0.5,0-1-0.3-1.2-0.8c-0.3-0.7-0.6-1.3-0.8-2c-0.2-0.7,0.1-1.4,0.8-1.7
				c0.7-0.2,1.4,0.1,1.7,0.8c0.2,0.6,0.5,1.2,0.7,1.9c0.3,0.7,0,1.4-0.7,1.7C303.2,215.3,303,215.3,302.8,215.3z"/>
			<path class="st12" d="M300.4,206.8c-0.6,0-1.2-0.5-1.3-1.1c-0.2-1.3-0.3-2.6-0.4-3.9c0-0.1,0-0.3,0-0.4c0-0.7,0.5-1.3,1.2-1.3
				c0.7,0,1.3,0.5,1.3,1.2c0,0.1,0,0.3,0,0.4c0.1,1.2,0.2,2.4,0.4,3.6c0.1,0.7-0.4,1.4-1.1,1.5C300.5,206.8,300.4,206.8,300.4,206.8
				z M300.3,195.9c-0.1,0-0.1,0-0.2,0c-0.7-0.1-1.2-0.8-1.1-1.5c0.2-1.4,0.5-2.9,0.9-4.2c0.2-0.7,0.9-1.1,1.6-0.9
				c0.7,0.2,1.1,0.9,0.9,1.6c-0.4,1.3-0.6,2.6-0.8,3.9C301.5,195.4,300.9,195.9,300.3,195.9z M303.6,185.4c-0.2,0-0.4,0-0.6-0.1
				c-0.6-0.3-0.9-1.1-0.6-1.7c0.6-1.3,1.4-2.6,2.1-3.8c0.4-0.6,1.2-0.8,1.8-0.4c0.6,0.4,0.8,1.2,0.4,1.8c-0.7,1.1-1.4,2.3-2,3.5
				C304.5,185.1,304,185.4,303.6,185.4z M309.8,176.4c-0.3,0-0.6-0.1-0.9-0.4c-0.5-0.5-0.5-1.3,0-1.8c1-1,2.1-2,3.2-2.9
				c0.6-0.5,1.4-0.4,1.8,0.2c0.5,0.6,0.4,1.4-0.2,1.8c-1,0.9-2,1.8-3,2.7C310.5,176.3,310.2,176.4,309.8,176.4z M318.5,169.8
				c-0.5,0-0.9-0.2-1.1-0.7c-0.3-0.6-0.1-1.4,0.5-1.8c1.3-0.7,2.6-1.3,3.9-1.8c0.7-0.3,1.4,0.1,1.7,0.7c0.3,0.7-0.1,1.4-0.7,1.7
				c-1.2,0.5-2.5,1.1-3.6,1.7C319,169.7,318.7,169.8,318.5,169.8z M343.9,166.4c-0.1,0-0.2,0-0.3,0c-1.3-0.3-2.6-0.5-4-0.7
				c-0.7-0.1-1.2-0.7-1.1-1.4s0.7-1.2,1.4-1.1c1.4,0.2,2.9,0.4,4.3,0.8c0.7,0.2,1.1,0.9,1,1.6C345,166,344.5,166.4,343.9,166.4z
				 M328.8,166.1c-0.6,0-1.2-0.4-1.3-1.1c-0.1-0.7,0.3-1.4,1-1.5c1.4-0.3,2.9-0.5,4.3-0.6c0.7-0.1,1.3,0.5,1.4,1.2
				c0.1,0.7-0.5,1.3-1.2,1.4c-1.3,0.1-2.7,0.3-4,0.5C329,166.1,328.9,166.1,328.8,166.1z"/>
			<path class="st12" d="M352.2,169.6c-0.2,0-0.4,0-0.6-0.2c-0.6-0.3-1.2-0.6-1.8-0.9c-0.7-0.3-0.9-1.1-0.6-1.7
				c0.3-0.7,1.1-0.9,1.7-0.6c0.7,0.3,1.3,0.6,1.9,0.9c0.6,0.3,0.9,1.1,0.5,1.8C353.1,169.3,352.7,169.6,352.2,169.6z"/>
		</g>
		<g>
			<path class="st12" d="M370,191.8c-0.6,0-1.1-0.4-1.3-1c-0.2-0.6-0.4-1.3-0.6-1.9c-0.2-0.7,0.1-1.4,0.8-1.6
				c0.7-0.2,1.4,0.1,1.6,0.8c0.2,0.7,0.4,1.4,0.6,2.1c0.2,0.7-0.2,1.4-0.9,1.6C370.3,191.8,370.1,191.8,370,191.8z"/>
			<path class="st12" d="M336.3,236.8c-0.7,0-1.3-0.6-1.3-1.3c0-0.7,0.6-1.3,1.3-1.3c0.4,0,0.8,0,1.2,0c0.9,0,1.8-0.1,2.8-0.3
				c0.7-0.1,1.4,0.4,1.5,1.1c0.1,0.7-0.4,1.4-1.1,1.5c-1,0.1-2,0.2-3,0.3C337.1,236.8,336.7,236.8,336.3,236.8
				C336.3,236.8,336.3,236.8,336.3,236.8z M329.6,236.3c-0.1,0-0.1,0-0.2,0c-1.4-0.2-2.8-0.6-4.2-1c-0.7-0.2-1.1-0.9-0.9-1.6
				c0.2-0.7,0.9-1.1,1.6-0.9c1.3,0.4,2.6,0.7,3.9,0.9c0.7,0.1,1.2,0.8,1.1,1.5C330.8,235.9,330.2,236.3,329.6,236.3z M346.9,235
				c-0.5,0-1.1-0.3-1.2-0.9c-0.2-0.7,0.1-1.4,0.8-1.6c1.3-0.4,2.5-0.9,3.7-1.5c0.6-0.3,1.4,0,1.7,0.6c0.3,0.6,0,1.4-0.6,1.7
				c-1.3,0.6-2.6,1.1-4,1.6C347.1,235,347,235,346.9,235z M356.5,230.1c-0.4,0-0.8-0.2-1.1-0.5c-0.4-0.6-0.3-1.4,0.3-1.8
				c1.1-0.8,2.1-1.6,3.1-2.5c0.5-0.5,1.4-0.4,1.8,0.1c0.5,0.5,0.4,1.4-0.1,1.8c-1,1-2.2,1.9-3.3,2.7
				C357,230,356.7,230.1,356.5,230.1z M364.1,222.6c-0.3,0-0.5-0.1-0.8-0.3c-0.6-0.4-0.7-1.2-0.3-1.8c0.8-1.1,1.5-2.2,2.2-3.3
				c0.4-0.6,1.2-0.8,1.8-0.5c0.6,0.4,0.8,1.2,0.5,1.8c-0.7,1.2-1.5,2.4-2.4,3.6C364.9,222.4,364.5,222.6,364.1,222.6z M369.2,213.1
				c-0.1,0-0.3,0-0.4-0.1c-0.7-0.2-1-1-0.8-1.7c0.4-1.2,0.8-2.5,1.1-3.8c0.2-0.7,0.9-1.1,1.6-1c0.7,0.2,1.1,0.9,1,1.6
				c-0.3,1.4-0.7,2.8-1.2,4.1C370.3,212.7,369.8,213.1,369.2,213.1z M371.3,202.5C371.2,202.5,371.2,202.5,371.3,202.5
				c-0.8,0-1.3-0.6-1.3-1.3c0-0.4,0-0.8,0-1.3c0-0.6,0-1.2,0-1.9c0-0.3,0-0.6-0.1-0.8c-0.1-0.7,0.5-1.3,1.2-1.4
				c0.7-0.1,1.3,0.5,1.4,1.2c0,0.3,0,0.6,0.1,0.9c0,0.7,0.1,1.3,0.1,2c0,0.5,0,0.9,0,1.4C372.5,201.9,371.9,202.5,371.3,202.5z"/>
			<path class="st12" d="M319.4,232.9c-0.2,0-0.4,0-0.6-0.1c-0.6-0.3-1.3-0.7-1.9-1c-0.6-0.4-0.8-1.2-0.5-1.8
				c0.4-0.6,1.2-0.8,1.8-0.5c0.6,0.3,1.2,0.7,1.8,1c0.6,0.3,0.9,1.1,0.6,1.7C320.3,232.7,319.8,232.9,319.4,232.9z"/>
		</g>
		<g>
			<path class="st12" d="M318.8,221.6c0.1,0.1,0.3,0.2,0.5,0.1l4.6-2.4c2.1,1.2,4.4,2.2,6.9,2.7l1.8,4.9c0.1,0.2,0.2,0.3,0.4,0.3
				l6.3-0.1c0.2,0,0.3-0.1,0.4-0.3l1.6-5c2.4-0.6,4.7-1.6,6.7-3l4.7,2.2c0.2,0.1,0.4,0,0.5-0.1l4.3-4.5c0.1-0.1,0.2-0.3,0.1-0.5
				l-2.4-4.6c1.2-2.1,2.2-4.4,2.7-6.9l4.9-1.8c0.2-0.1,0.3-0.2,0.3-0.4l-0.1-6.3c0-0.2-0.1-0.3-0.3-0.4l-5-1.6
				c-0.6-2.4-1.6-4.7-3-6.7l2.2-4.7c0.1-0.2,0-0.4-0.1-0.5l-4.5-4.3c-0.1-0.1-0.3-0.2-0.5-0.1l-4.6,2.4c-2.1-1.2-4.4-2.2-6.9-2.7
				l-1.8-4.9c-0.1-0.2-0.2-0.3-0.4-0.3l-6.3,0.1c-0.2,0-0.3,0.1-0.4,0.3l-1.6,5c-2.4,0.6-4.7,1.6-6.7,3l-4.7-2.2
				c-0.2-0.1-0.4,0-0.5,0.1l-4.3,4.5c-0.1,0.1-0.2,0.3-0.1,0.5l2.4,4.6c-1.2,2.1-2.2,4.4-2.7,6.9l-4.9,1.8c-0.2,0.1-0.3,0.2-0.3,0.4
				l0.1,6.3c0,0.2,0.1,0.3,0.3,0.4l5,1.6c0.6,2.4,1.6,4.7,3,6.7l-2.2,4.7c-0.1,0.2,0,0.4,0.1,0.5L318.8,221.6z"/>
			<path class="st7" d="M333.9,207.4c-0.8-0.2-1.6-0.5-2.3-0.9c-1.9-1.1-3.2-2.8-3.8-4.8c-0.6-2.1-0.3-4.2,0.8-6.1
				c1.1-1.9,2.8-3.2,4.8-3.8c2.1-0.6,4.2-0.3,6.1,0.8c1.9,1.1,3.2,2.8,3.8,4.8c1.2,4.2-1.3,8.7-5.6,9.8l0,0
				C336.4,207.6,335.1,207.7,333.9,207.4z M337.1,204.9L337.1,204.9L337.1,204.9z M336.2,196.5c-0.5-0.1-1-0.1-1.5,0
				c-0.8,0.2-1.5,0.7-1.9,1.5c-0.4,0.7-0.5,1.6-0.3,2.4c0.2,0.8,0.7,1.5,1.5,1.9c0.7,0.4,1.6,0.5,2.4,0.3l0,0
				c1.7-0.5,2.6-2.2,2.2-3.8c-0.2-0.8-0.7-1.5-1.5-1.9C336.8,196.7,336.5,196.6,336.2,196.5z"/>
			<path class="st7" d="M332.6,215.1c-0.4-0.1-0.7-0.5-0.6-1c0,0,0,0,0,0c0.1-0.4,0.5-0.7,1-0.6c1,0.2,2,0.3,3,0.3c0,0,0,0,0.1,0
				c7.6-0.2,13.8-6.4,13.9-14c0-0.2,0-0.4,0-0.6c-0.2-7.9-6.7-14.1-14.6-14c-3.8,0.1-7.4,1.6-10,4.4c-1.8,1.9-3.1,4.3-3.6,6.8
				c-0.2,1.1-0.3,2.2-0.3,3.3c0.1,2.6,0.8,5.1,2.2,7.3c0.1,0.2,0.2,0.4,0.1,0.6c0,0.2-0.2,0.4-0.4,0.5c-0.4,0.2-0.9,0.1-1.1-0.3
				c-1.5-2.4-2.4-5.2-2.4-8.1c0-1.3,0.1-2.5,0.4-3.7c0.6-2.8,2-5.5,4.1-7.6c2.9-3.1,6.9-4.8,11.1-4.9c8.8-0.2,16.1,6.8,16.2,15.6
				c0,1.3-0.1,2.5-0.4,3.7c-1.5,7-7.7,12.4-15.2,12.5c-0.1,0-0.2,0-0.3,0c-1,0-1.9-0.1-2.9-0.3c0,0,0,0,0,0
				C332.7,215.1,332.7,215.1,332.6,215.1C332.6,215.1,332.6,215.1,332.6,215.1z"/>
		</g>
	</g>
	<g>
		<g>
			<g>
				
					<ellipse transform="matrix(0.1602 -0.9871 0.9871 0.1602 232.6513 436.2845)" class="st1" cx="372.7" cy="81.4" rx="43.2" ry="43.2"/>
				
					<ellipse transform="matrix(0.9239 -0.3827 0.3827 0.9239 -2.7855 148.8318)" class="st2" cx="372.7" cy="81.4" rx="41.8" ry="41.8"/>
				<path class="st3" d="M334.2,79.8C334.2,79.8,334.2,79.8,334.2,79.8c-0.3,0-0.5-0.2-0.4-0.5c0.1-1.6,0.3-3.3,0.6-4.9
					c0-0.2,0.3-0.4,0.5-0.4c0.2,0,0.4,0.3,0.4,0.5c-0.3,1.6-0.5,3.2-0.6,4.8C334.6,79.6,334.4,79.8,334.2,79.8z"/>
				<path class="st3" d="M338.2,64.5c-0.1,0-0.1,0-0.2,0c-0.2-0.1-0.3-0.4-0.2-0.6c6.7-13.2,20-21.5,34.9-21.5c2.4,0,4.7,0.2,7,0.6
					c0.2,0,0.4,0.3,0.4,0.5c0,0.2-0.3,0.4-0.5,0.4c-2.3-0.4-4.6-0.6-6.9-0.6c-14.5,0-27.5,8-34.1,21
					C338.6,64.4,338.4,64.5,338.2,64.5z"/>
				
					<ellipse transform="matrix(0.4927 -0.8702 0.8702 0.4927 117.9016 366.9001)" class="st3" cx="373.6" cy="82.3" rx="35.4" ry="35.4"/>
			</g>
		</g>
		<g>
			<path class="st2" d="M384,68.3c0,6.2-5,12.9-11.2,12.9c-6.2,0-11.2-6.7-11.2-12.9c0-6.2,5-10.6,11.2-10.6
				C379,57.7,384,62.1,384,68.3z"/>
			<path class="st2" d="M358.9,105.1h27.4c2.9,0,5.4-1.9,6.3-4.6l1.5-4.6c1.1-3.4-0.7-7-4-8.2c-11.2-4.1-22.7-3.6-34.5,0.4
				c-3.3,1.1-5.1,4.6-4.2,8l1.1,4.2C353.2,103.1,355.9,105.1,358.9,105.1z"/>
		</g>
	</g>
	<g>
		<g>
			<path class="st1" d="M316.1,461.1c-0.8,0-1.4-0.6-1.4-1.4V291.8c0-0.8,0.6-1.4,1.4-1.4c0.8,0,1.4,0.6,1.4,1.4v167.9
				C317.5,460.5,316.9,461.1,316.1,461.1z"/>
		</g>
		<g>
			<path class="st1" d="M278,461.1c-0.8,0-1.4-0.6-1.4-1.4V291.8c0-0.8,0.6-1.4,1.4-1.4s1.4,0.6,1.4,1.4v167.9
				C279.4,460.5,278.8,461.1,278,461.1z"/>
		</g>
		<path class="st2" d="M184.5,462.2c-0.2,0-0.4,0-0.5-0.1c-0.7-0.3-1-1.1-0.7-1.8l71.8-169c0.3-0.7,1.1-1,1.8-0.7
			c0.7,0.3,1,1.1,0.7,1.8l-71.8,169C185.6,461.9,185.1,462.2,184.5,462.2z"/>
		<path class="st2" d="M228.9,462.2c-0.2,0-0.4,0-0.5-0.1c-0.7-0.3-1-1.1-0.7-1.8l71.8-169c0.3-0.7,1.1-1,1.8-0.7
			c0.7,0.3,1,1.1,0.7,1.8l-71.8,169C230,461.9,229.4,462.2,228.9,462.2z"/>
		<path class="st2" d="M318.3,293.4h-65.8c-1.1,0-2-0.9-2-2l0,0c0-1.1,0.9-2,2-2h65.8c1.1,0,2,0.9,2,2l0,0
			C320.3,292.5,319.4,293.4,318.3,293.4z"/>
		<path class="st2" d="M289.9,319.1h-44.5c-0.8,0-1.4-0.6-1.4-1.4c0-0.8,0.6-1.4,1.4-1.4h44.5c0.8,0,1.4,0.6,1.4,1.4
			C291.3,318.4,290.6,319.1,289.9,319.1z"/>
		<rect x="231.7" y="348.2" class="st2" width="44.5" height="2.8"/>
		<rect x="218.5" y="380.2" class="st2" width="44.5" height="2.8"/>
		<path class="st2" d="M249.1,414.9h-44.5c-0.8,0-1.4-0.6-1.4-1.4s0.6-1.4,1.4-1.4h44.5c0.8,0,1.4,0.6,1.4,1.4
			S249.9,414.9,249.1,414.9z"/>
		<path class="st2" d="M235.7,446.9h-44.5c-0.8,0-1.4-0.6-1.4-1.4c0-0.8,0.6-1.4,1.4-1.4h44.5c0.8,0,1.4,0.6,1.4,1.4
			C237.1,446.2,236.5,446.9,235.7,446.9z"/>
	</g>
	<g>
		
			<linearGradient id="SVGID_2_" gradientUnits="userSpaceOnUse" x1="-6811.3564" y1="-40.7524" x2="-6796.1255" y2="-40.7524" gradientTransform="matrix(0.9987 5.070000e-02 -5.070000e-02 0.9987 7060.0508 668.7253)">
			<stop  offset="0" style="stop-color:#09005D"/>
			<stop  offset="1" style="stop-color:#1A0F91"/>
		</linearGradient>
		<path class="st13" d="M262,277.4c0,0-1.8,2.6-2.6,10c-0.1,0.7,0.4,1.3,1.1,1.3l13.2,0.7c0.5,0,0.9-0.5,0.8-1
			c-0.7-2.3-2.7-8-7.8-11.5L262,277.4z"/>
		
			<linearGradient id="SVGID_3_" gradientUnits="userSpaceOnUse" x1="-6636.4414" y1="-317.0556" x2="-6630.2642" y2="-317.0556" gradientTransform="matrix(0.9937 -0.112 0.112 0.9937 6890.7295 -151.5002)">
			<stop  offset="0" style="stop-color:#FEBBBA"/>
			<stop  offset="1" style="stop-color:#FF928E"/>
		</linearGradient>
		<path class="st14" d="M260.2,273.4l1.4,6.2c0.1,0.5,0.6,0.9,1.1,0.9c0.7,0,1.8-0.1,2.8-0.3c0.9-0.3,1.5-1.2,1.4-2.1l-0.7-6
			L260.2,273.4z"/>
		
			<linearGradient id="SVGID_4_" gradientUnits="userSpaceOnUse" x1="-6718.2104" y1="-266.8396" x2="-6694.313" y2="-266.8396" gradientTransform="matrix(0.9994 3.490000e-02 -3.490000e-02 0.9994 6994.3804 784.7653)">
			<stop  offset="0" style="stop-color:#09005D"/>
			<stop  offset="1" style="stop-color:#1A0F91"/>
		</linearGradient>
		<path class="st15" d="M292.2,277.9c0,0-2.7,3.8-2.8,9.3c0,1.3,1,2.3,2.3,2.4l20.5,0.7c1,0,1.4-1.2,0.6-1.8
			c-3.8-2.9-11.3-8.2-16.7-10.4L292.2,277.9z"/>
		
			<linearGradient id="SVGID_5_" gradientUnits="userSpaceOnUse" x1="-6803.6973" y1="-84.534" x2="-6797.5542" y2="-84.534" gradientTransform="matrix(0.9907 0.1362 -0.1362 0.9907 7020.1812 1284.7368)">
			<stop  offset="0" style="stop-color:#FEBBBA"/>
			<stop  offset="1" style="stop-color:#FF928E"/>
		</linearGradient>
		<path class="st16" d="M291.7,271.3l0.5,7.9c0.1,0.9,0.8,1.6,1.7,1.5c0.5,0,1.2-0.2,1.9-0.5c0.7-0.3,1.1-1,1.1-1.7l-0.4-9.5
			L291.7,271.3z"/>
		
			<linearGradient id="SVGID_6_" gradientUnits="userSpaceOnUse" x1="-6640.686" y1="-370.7121" x2="-6598.8032" y2="-370.7121" gradientTransform="matrix(0.9937 -0.112 0.112 0.9937 6890.7295 -151.5002)">
			<stop  offset="0" style="stop-color:#09005D"/>
			<stop  offset="1" style="stop-color:#1A0F91"/>
		</linearGradient>
		<path class="st17" d="M250.8,167.2c0,0-5,5.5-5.3,11.5c-0.4,6,14.3,100.6,14.3,100.6s5.6,0.3,8.3-1.7c0,0-3.6-62.1-2.6-76.7
			c0,0,20.7,62.4,25.7,73.6c0,0,5.4,0,7-1.2c0,0-12.9-82.5-19-96.7L250.8,167.2z"/>
		<path class="st18" d="M264.9,199.1c-0.3,0-0.6-0.2-0.8-0.5l-3.2-8.4l-5.1-2.5c-0.4-0.2-0.6-0.7-0.4-1.1c0.2-0.4,0.7-0.6,1.1-0.4
			l5.4,2.7c0.2,0.1,0.3,0.2,0.4,0.4l3.4,8.7c0.2,0.4,0,0.9-0.5,1C265.1,199,265,199.1,264.9,199.1z"/>
		<linearGradient id="SVGID_7_" gradientUnits="userSpaceOnUse" x1="380.7351" y1="-40.8739" x2="321.5331" y2="65.0664">
			<stop  offset="0" style="stop-color:#E1473D"/>
			<stop  offset="1" style="stop-color:#E9605A"/>
		</linearGradient>
		<path class="st19" d="M299,106.1c-23.4,0.7-29,6.2-29,6.2l13.1,16.4c0,0,22.8-3,37.7-17.5c-3.4-3-6-6.4-7.7-9
			C309.2,104.3,304.5,105.9,299,106.1z"/>
		
			<linearGradient id="SVGID_8_" gradientUnits="userSpaceOnUse" x1="-6564.5415" y1="-496.1011" x2="-6541.7114" y2="-496.1011" gradientTransform="matrix(0.9937 -0.112 0.112 0.9937 6890.7295 -151.5002)">
			<stop  offset="0" style="stop-color:#FEBBBA"/>
			<stop  offset="1" style="stop-color:#FF928E"/>
		</linearGradient>
		<path class="st20" d="M331.6,67.9c-0.1-0.7-1.1-0.8-1.4-0.1l-2.3,6.7c-0.4,1.3-0.5,2.7-0.1,4l1.5,3.6c0.5,1.8,0.3,3.7-0.7,5.2
			c-2.3,3.7-7.4,10.6-15.3,14.9c1.7,2.7,4.2,6.1,7.7,9c5.5-5.3,9.9-12.1,11.8-20.9c1.3-0.6,2.1-1.9,1.8-3.3L331.6,67.9z"/>
		<linearGradient id="SVGID_9_" gradientUnits="userSpaceOnUse" x1="333.8183" y1="86.0322" x2="253.5839" y2="180.2883">
			<stop  offset="0" style="stop-color:#FF928E"/>
			<stop  offset="1" style="stop-color:#FE7062"/>
		</linearGradient>
		<path class="st21" d="M307.8,115.4c-9.2-7.9-25.2-10.1-34.4-10.7c-4-0.3-7.7,2.4-8.7,6.3c-2.8,11.4-10.7,41-12.3,46.1
			c-1.3,4.2-2.7,8.3-3.6,10.9c-0.5,1.5,0.3,3.2,1.8,3.8c8,2.8,22.1,5.4,27.8,6.4c1.3,0.2,2.4-0.8,2.2-2.1c-0.1-1.1,0.1-2.2,0.5-3.1
			l17-37.3c14.7,13,26.3,13,34.7,8.9c-2-4.4-3.5-8.9-4.5-13.4C315.4,130.3,307.8,115.4,307.8,115.4z"/>
		
			<linearGradient id="SVGID_10_" gradientUnits="userSpaceOnUse" x1="-6512.8442" y1="-491.124" x2="-6562.1748" y2="-429.7518" gradientTransform="matrix(0.9937 -0.112 0.112 0.9937 6890.7295 -151.5002)">
			<stop  offset="0" style="stop-color:#FEBBBA"/>
			<stop  offset="1" style="stop-color:#FF928E"/>
		</linearGradient>
		<path class="st22" d="M349.8,126.2l-2.7-2.9c-7,6.1-13.2,8-18.5,7.7c1,4.5,2.5,9,4.5,13.4C344.2,139,349.8,126.2,349.8,126.2z"/>
		
			<linearGradient id="SVGID_11_" gradientUnits="userSpaceOnUse" x1="-6503.4912" y1="-483.6077" x2="-6552.8232" y2="-422.2337" gradientTransform="matrix(0.9937 -0.112 0.112 0.9937 6890.7295 -151.5002)">
			<stop  offset="0" style="stop-color:#FEBBBA"/>
			<stop  offset="1" style="stop-color:#FF928E"/>
		</linearGradient>
		<path class="st23" d="M348.1,126.4l13.3-1l11.4-8.2c-1.9-0.9-11.5,2.5-11.5,2.5s-10.5-0.4-13.3-0.1c-2.3,0.3-1.6,3.6-1.3,4.7
			c0.1,0.2,0.1,0.4,0.1,0.4L348.1,126.4z"/>
		
			<linearGradient id="SVGID_12_" gradientUnits="userSpaceOnUse" x1="-6568.3433" y1="-528.2117" x2="-6616.1196" y2="-440.4273" gradientTransform="matrix(0.9937 -0.112 0.112 0.9937 6890.7295 -151.5002)">
			<stop  offset="0" style="stop-color:#FEBBBA"/>
			<stop  offset="1" style="stop-color:#FF928E"/>
		</linearGradient>
		<path class="st24" d="M284,87.1l-5,17.8c0,0,8.6,4.6,15,3.4l1.8-15.7L284,87.1z"/>
		<g>
			
				<linearGradient id="SVGID_13_" gradientUnits="userSpaceOnUse" x1="-5450.7573" y1="-1320.4702" x2="-5471.8726" y2="-1292.5366" gradientTransform="matrix(0.7472 -0.6646 0.6646 0.7472 5241.8457 -2558.8906)">
				<stop  offset="0" style="stop-color:#FEBBBA"/>
				<stop  offset="1" style="stop-color:#FF928E"/>
			</linearGradient>
			<path class="st25" d="M294.5,74.2c0.2,0.2,7.1,17.3,7.1,17.3l-9.8,3.7L282.8,80C282.8,80,291.4,70.7,294.5,74.2z"/>
			
				<linearGradient id="SVGID_14_" gradientUnits="userSpaceOnUse" x1="-5466.8833" y1="-1313.7319" x2="-5441.6606" y2="-1313.7319" gradientTransform="matrix(0.7472 -0.6646 0.6646 0.7472 5241.8457 -2558.8906)">
				<stop  offset="0" style="stop-color:#09005D"/>
				<stop  offset="1" style="stop-color:#1A0F91"/>
			</linearGradient>
			<path class="st26" d="M286.9,82l4.1,8.4c0.1,0.1,0.1,0.2,0.2,0.3c0.5,0.5,2.3,2.3,4,0.3c1.5-1.8,3-3.4,4.4-3.8
				c0.6-0.2,1.3,0.1,1.6,0.8c0.6,1.6,2,5.1,2.7,8.3c0.1,0.7-0.2,1.3-0.9,1.5c-1.9,0.6-6.1,1.7-9.6,1.9c-0.5,0-0.9-0.2-1.2-0.6
				c-1.2-2-4.9-8.1-6.2-9.6c-1.2-1.4-3.7-1.1-4.8-0.9c-0.3,0.1-0.7,0-1-0.2c-1-0.7-3-2.6-0.8-5.4c0.5-0.6,0.4-1.4-0.2-1.9
				c-1.2-0.9-2.5-2.5-1-4.9c1.6-2.4,4-2.4,5.5-2c0.6,0.1,1.2-0.2,1.5-0.8c0.1-0.3,0.4-0.6,1-0.6c0.8,0,1.3-0.7,1.2-1.5
				c-0.2-1.4,0.1-3.3,2.5-4.4c4.3-1.9,7.5,2.1,8.1,5.2c0.6,3.2-4.1,4.9-7,5c-2.2,0.1-3.6,2.4-4.1,3.5
				C286.7,81.2,286.7,81.6,286.9,82z"/>
			
				<linearGradient id="SVGID_15_" gradientUnits="userSpaceOnUse" x1="-5481.6831" y1="-1298.3492" x2="-5464.7466" y2="-1315.7252" gradientTransform="matrix(0.7472 -0.6646 0.6646 0.7472 5241.8457 -2558.8906)">
				<stop  offset="0" style="stop-color:#FEBBBA"/>
				<stop  offset="1" style="stop-color:#FF928E"/>
			</linearGradient>
			<path class="st27" d="M287.4,92.5c0,0-1.3-5.5-3.7-5.5c-2.3,0-4.4,2.1-1.7,5C285.3,95.5,287.4,92.5,287.4,92.5z"/>
		</g>
	</g>
</g>
</svg>
