<?xml version="1.0" encoding="utf-8"?>
<!-- Generator: Adobe Illustrator 24.3.0, SVG Export Plug-In . SVG Version: 6.00 Build 0)  -->
<svg version="1.1" id="Layer_1" xmlns="http://www.w3.org/2000/svg" xmlns:xlink="http://www.w3.org/1999/xlink" x="0px" y="0px"
	 viewBox="0 0 750 500" style="enable-background:new 0 0 750 500;" xml:space="preserve">
<style type="text/css">
	.st0{fill:#FFC557;}
	.st1{fill:none;stroke:#FFC557;stroke-miterlimit:10;}
	.st2{fill:none;stroke:#648AC9;stroke-width:0.8104;stroke-miterlimit:10;}
	.st3{fill:none;stroke:#95B1DB;stroke-miterlimit:10;}
	.st4{fill:none;stroke:#95B1DB;stroke-width:2;stroke-miterlimit:10;}
	.st5{fill:#839DC9;}
	.st6{fill:#73ACFF;}
	.st7{fill:#48A4FF;}
	.st8{fill:#3E96FF;}
	.st9{fill:#CBD9EC;}
	.st10{clip-path:url(#SVGID_2_);}
	.st11{fill:#F38C84;}
	.st12{fill:#FF768F;}
	.st13{opacity:0.2;fill:#FF768F;}
	.st14{fill:#05093D;}
	.st15{fill:#F38C84;stroke:#F38C84;stroke-width:1.1297;stroke-miterlimit:10;}
	.st16{fill:#CA5C3B;}
	.st17{fill:#FFFFFF;}
	.st18{fill:#F4D100;}
	.st19{fill:none;stroke:#FFFFFF;stroke-width:3;stroke-miterlimit:10;}
	.st20{fill:none;stroke:#FFFFFF;stroke-miterlimit:10;}
	.st21{clip-path:url(#SVGID_4_);}
	.st22{fill:#FBB78B;stroke:#FBB78B;stroke-width:1.2036;stroke-linecap:round;stroke-linejoin:round;stroke-miterlimit:10;}
	.st23{fill:#FBB78B;stroke:#FBB78B;stroke-width:1.1709;stroke-miterlimit:10;}
	.st24{fill:#E6795C;stroke:#E6795C;stroke-width:1.1586;stroke-miterlimit:10;}
	.st25{fill:#EB8383;}
	.st26{fill:#FCCC4F;}
	.st27{clip-path:url(#SVGID_6_);}
	.st28{fill:#FCFCFC;}
	.st29{clip-path:url(#SVGID_8_);}
	.st30{fill:#A34E65;}
	.st31{fill:#FFBBAA;stroke:#FFBBAA;stroke-width:1.2122;stroke-linecap:round;stroke-linejoin:round;stroke-miterlimit:10;}
	.st32{fill:#FFBBAA;stroke:#FFBBAA;stroke-width:1.1792;stroke-miterlimit:10;}
	.st33{fill:#F08992;stroke:#F08992;stroke-width:1.1746;stroke-linecap:round;stroke-linejoin:round;stroke-miterlimit:10;}
	.st34{fill:#FFBBAA;stroke:#FFBBAA;stroke-width:1.1626;stroke-miterlimit:10;}
	.st35{fill:#F08992;}
	.st36{fill:#020F2B;}
	.st37{fill:#F1ABA5;}
	.st38{fill:#EC7165;}
	.st39{fill:#F79288;}
	.st40{fill:#F1A9A5;}
	.st41{fill:#FF6E95;}
	.st42{fill:#2D4773;}
	.st43{fill:none;stroke:#FFFFFF;stroke-width:0.3961;stroke-miterlimit:10;}
	.st44{opacity:0.21;}
	.st45{fill:#C20034;}
	.st46{fill:#D15449;}
	.st47{fill:#FF6B82;}
	.st48{fill:#FFEBF1;}
	.st49{opacity:0.6;fill:#4E7A8F;}
	.st50{fill:#FAFAFA;}
	.st51{fill:#F0A5A9;}
	.st52{fill:#E6777D;}
	.st53{fill:none;stroke:#FFFFFF;stroke-width:0.4846;stroke-miterlimit:10;}
	.st54{fill:none;stroke:#020F2B;stroke-width:0.4846;stroke-miterlimit:10;}
	.st55{fill:#ACADAF;}
	.st56{fill:#606060;}
	.st57{fill:#020F2B;stroke:#1D254A;stroke-width:0;stroke-miterlimit:10;}
	.st58{fill:none;stroke:#1D254A;stroke-width:0.5144;stroke-miterlimit:10;}
	.st59{fill:none;stroke:#1D254A;stroke-width:0.328;stroke-miterlimit:10;}
	.st60{fill:none;stroke:#1D254A;stroke-width:0.3361;stroke-miterlimit:10;}
	.st61{fill:#DAE5F7;}
	.st62{fill:#FFFFFF;stroke:#FFFFFF;stroke-width:0.161;stroke-miterlimit:10;}
	.st63{fill:#D8CFCE;}
	.st64{opacity:0.37;fill:#839DC9;}
	.st65{fill:none;stroke:#7289B5;stroke-width:1.03;stroke-miterlimit:10;}
	.st66{fill:#7289B5;}
	.st67{fill:#1B1A4D;stroke:#1B1A4D;stroke-width:0.7725;stroke-linecap:round;stroke-linejoin:round;stroke-miterlimit:10;}
	.st68{opacity:0.74;fill:#FFFFFF;}
	.st69{fill:none;stroke:#FFD375;stroke-width:2.7834;stroke-miterlimit:10;}
	.st70{fill:none;stroke:#FFD375;stroke-width:3.7378;stroke-linecap:round;stroke-miterlimit:10;}
	.st71{fill:#B4CEF7;}
	.st72{fill:none;stroke:#FFFFFF;stroke-width:0.7004;stroke-miterlimit:10;}
	.st73{fill:none;stroke:#FFFFFF;stroke-width:0.7004;stroke-linecap:round;stroke-miterlimit:10;}
	.st74{opacity:0.57;}
	.st75{clip-path:url(#SVGID_10_);fill:#FFFFFF;stroke:#FFFFFF;stroke-width:0.6619;stroke-miterlimit:10;}
</style>
<g>
	<path class="st0" d="M488.6,70.3c0,3.3-2.7,6-6,6s-6-2.7-6-6c0-3.3,2.7-6,6-6S488.6,67,488.6,70.3z"/>
	<circle class="st1" cx="511" cy="98.7" r="4.5"/>
	<path class="st2" d="M619.9,168.5c0,1.3-1,2.3-2.3,2.3c-1.3,0-2.3-1-2.3-2.3c0-1.3,1-2.3,2.3-2.3
		C618.9,166.2,619.9,167.2,619.9,168.5z"/>
	<circle class="st0" cx="87.4" cy="325.9" r="8.3"/>
	<circle class="st0" cx="131.9" cy="81.8" r="4.5"/>
	<circle class="st0" cx="640.2" cy="274.8" r="4"/>
	<line class="st3" x1="77.6" y1="390.5" x2="713" y2="390.5"/>
	<circle class="st4" cx="115.5" cy="167.6" r="3.5"/>
	<path class="st5" d="M677.1,320.7c0,2.2-1.8,4-4,4s-4-1.8-4-4c0-2.2,1.8-4,4-4S677.1,318.5,677.1,320.7z"/>
	<path class="st5" d="M696.2,239c0,1.2-0.9,2.1-2.1,2.1c-1.2,0-2.1-0.9-2.1-2.1c0-1.2,0.9-2.1,2.1-2.1
		C695.2,236.9,696.2,237.8,696.2,239z"/>
</g>
<g>
	<g>
		<path class="st6" d="M405.3,392.8H171.2V112.2c0-14.4,11.1-26.6,25.4-26.6l208.7,0.6V392.8z"/>
		<polygon class="st7" points="175.5,392.8 405.3,392.8 405.3,114.1 212.4,88.6 		"/>
	</g>
	<g>
		<path class="st8" d="M502.7,110.3c0-13.8-11.2-25-25-25H218.9v0.2l-24.7-0.1c15.1,0,24.6,10.6,24.6,23.5l0.1-0.1v292.8
			c0,19.3,15.7,35,35,35h189.8l60-0.8L502.7,110.3z"/>
		<g>
			<g>
				
					<ellipse transform="matrix(0.7071 -0.7071 0.7071 0.7071 -23.3428 237.9653)" class="st9" cx="275.6" cy="147.2" rx="36.3" ry="36.3"/>
				<g>
					<defs>
						
							<ellipse id="SVGID_1_" transform="matrix(0.7071 -0.7071 0.7071 0.7071 -23.3428 237.9653)" cx="275.6" cy="147.2" rx="36.3" ry="36.3"/>
					</defs>
					<clipPath id="SVGID_2_">
						<use xlink:href="#SVGID_1_"  style="overflow:visible;"/>
					</clipPath>
					<g class="st10">
						<g>
							<path class="st11" d="M364.5,158.6c0.4-2.2,0.6-3.6,0.6-3.6s1.4-13-4.3-21.5c-0.8-1.2,1.8,2.6,1.8,2.6s-3.7-5.4-4.6-5.9
								c-0.9-0.4,2.5,5.6,2.5,5.6s-3.8-6.5-4.8-6.4c-1.1,0.1,1.9,7.6,1.9,7.6s-2.3-8.2-3.4-8.2c-1.2,0,0.7,19.4-1.4,17.1
								c-0.7-0.8-3.8-6.1-5.4-5.7c-1.6,0.3,5.8,12.3,5.8,12.3l0,0c0.2,0.4,0,0.9-0.2,1.3L364.5,158.6z"/>
							<g>
								<path class="st12" d="M351.9,153.4l-5.3,14c-3.6,9-12.7,18.3-21.1,15.3l-26.8-9.7c-3-1.5-6.2-2.5-9.2-2.8
									c-0.2-0.1-0.3-0.1-0.3-0.1l-7.3-3.6l-16,3l-5.7,4.2c-14.3,2.7-44.6,12.3-44.6,12.3c6.3,4.4,11.7,12.5,11.7,12.5
									s-1.2,1.9-2.8,4.6c4.3,5.4,9,11,16.6,14.3c1.7,0.8,5.3,1.6,7.4,2.3l-5.4,56.4l59.1,1c0,0,9-40.1,10.7-65.8l1.1,0.4
									c13.8,4.8,29-0.1,39.4-11.9c8.5-9.6,12.7-40.5,12.7-40.5L351.9,153.4z"/>
								<path class="st13" d="M248.5,219.7c-2.2-0.7-5.7-1.5-7.4-2.3c-7.6-3.3-12.3-8.9-16.6-14.3c1.6-2.7,2.8-4.6,2.8-4.6
									L248.5,219.7z"/>
								<path class="st13" d="M312.9,211.4l-38.3,65.5l27.5,0.3C302.1,277.1,311.5,233.6,312.9,211.4z"/>
								<line class="st12" x1="348.8" y1="161.8" x2="364.3" y2="169"/>
							</g>
						</g>
						<g>
							<g>
								<path class="st11" d="M281,152.4l2.4,17.5c0,0-23.1,18.6-21.7,3.6l2.9-20.5L281,152.4z"/>
								<path class="st14" d="M279.5,134.4l2,19.3c0,0-19.2,23.8-17.5,0.5l4.1-20.4L279.5,134.4z"/>
							</g>
							<g>
								<g>
									<g>
										<path class="st15" d="M259.5,142.8l3.3-0.9l0.8,4l-3.3,0.9c-1,0.3-2-0.4-2.2-1.5l0,0C257.8,144.2,258.4,143.1,259.5,142.8
											z"/>
										<path class="st16" d="M259.8,143.8l1.4-0.4l0.3,1.6l-1.4,0.4c-0.4,0.1-0.8-0.2-0.9-0.6l0,0
											C259.1,144.4,259.3,143.9,259.8,143.8z"/>
									</g>
									<g>
										<path class="st15" d="M285.8,141.7l-3.4,0.5l-0.3-4.1l3.4-0.5c1-0.1,2,0.7,2,1.8l0,0C287.6,140.6,286.8,141.6,285.8,141.7
											z"/>
										<path class="st16" d="M285.6,139l-1.4,0.2l0.1,1.7l1.4-0.2c0.4-0.1,0.8-0.5,0.7-0.9l0,0
											C286.4,139.2,286.1,138.9,285.6,139z"/>
									</g>
									<path class="st15" d="M272.9,156.8L272.9,156.8c-8.1,0.4-11.5-5-11.6-11.9l0-0.5c-0.1-6.8,3.6-17.7,9.9-18.2l0-0.1
										c6.3-0.5,12.9,9.7,13,16.5l0,0.5C284.3,149.9,281.9,156.2,272.9,156.8z"/>
								</g>
								<g>
									<path class="st17" d="M273.5,152.3L273.5,152.3c-2.8,0.3-5.1-1.5-5.2-3.9l0-0.3l10.1-0.9l0,0.3
										C278.5,149.9,276.3,152.1,273.5,152.3z"/>
									<path class="st14" d="M270.5,142.2c0,0.5-0.3,0.9-0.7,0.9c-0.4,0-0.7-0.4-0.7-0.9c0-0.5,0.3-0.9,0.7-0.9
										C270.2,141.3,270.5,141.7,270.5,142.2z"/>
									<path class="st14" d="M276.4,141.5c0,0.5-0.3,0.9-0.7,0.9c-0.4,0-0.7-0.4-0.7-0.9c0-0.5,0.3-0.9,0.7-0.9
										C276.1,140.6,276.4,141,276.4,141.5z"/>
									<path class="st16" d="M274.2,145.9l-2.3,0.1c-0.3,0-0.5-0.3-0.4-0.7l0.9-2.9c0.1-0.4,0.5-0.4,0.7-0.1l1.4,2.8
										C274.7,145.4,274.5,145.8,274.2,145.9z"/>
									<path class="st14" d="M266.7,139.6c-0.6,0.6,0.2-1.7,1.1-2.1c0.9-0.4,1.9,0,2.2,0.8C270.1,138.4,268.2,138.3,266.7,139.6z"
										/>
									<path class="st14" d="M277.5,137.9c0.8,0.4-0.6-1.6-1.6-1.8c-1-0.1-1.9,0.5-2,1.3C274,137.4,275.7,136.9,277.5,137.9z"/>
								</g>
								<path class="st14" d="M282.4,129.8c-0.1-0.2-0.2-0.3-0.2-0.5c0.8-0.4,1.3-0.6,1.3-0.6s-1-13.6-2.5-13.8
									c-0.6-0.1-17.3,3.8-21.5,14.9c-0.1,0.3-0.1,0.6,0,0.9c-0.1,0.2-0.2,0.4-0.3,0.7c-0.6,1.7-0.7,3.6-0.5,5.3
									c0.1,0.8,1.6,5.6,2.4,5.7c0.4,0,2.3-6.2,3.4-9.6c1.9,0.2,4.2,0.3,6.4,0c2.6-0.3,5.1-1.1,7.3-1.9c1.6,2.2,5,6.5,5.6,6.5
									C284.4,137.4,282.9,131,282.4,129.8z"/>
							</g>
						</g>
					</g>
				</g>
			</g>
			<g>
				<path class="st18" d="M330.5,120.6l0.7,2c0.1,0.3,0.4,0.5,0.6,0.5h2.1c0.7,0,0.9,0.8,0.4,1.2l-1.7,1.2c-0.2,0.2-0.3,0.5-0.2,0.8
					l0.7,2c0.2,0.6-0.5,1.1-1,0.8l-1.7-1.2c-0.2-0.2-0.6-0.2-0.8,0l-1.7,1.2c-0.5,0.4-1.2-0.1-1-0.8l0.7-2c0.1-0.3,0-0.6-0.2-0.8
					l-1.7-1.2c-0.5-0.4-0.3-1.2,0.4-1.2h2.1c0.3,0,0.6-0.2,0.6-0.5l0.7-2C329.4,120,330.3,120,330.5,120.6z"/>
				<path class="st18" d="M344.3,120.6l0.7,2c0.1,0.3,0.4,0.5,0.6,0.5h2.1c0.7,0,0.9,0.8,0.4,1.2l-1.7,1.2c-0.2,0.2-0.3,0.5-0.2,0.8
					l0.7,2c0.2,0.6-0.5,1.1-1,0.8l-1.7-1.2c-0.2-0.2-0.6-0.2-0.8,0l-1.7,1.2c-0.5,0.4-1.2-0.1-1-0.8l0.7-2c0.1-0.3,0-0.6-0.2-0.8
					l-1.7-1.2c-0.5-0.4-0.3-1.2,0.4-1.2h2.1c0.3,0,0.6-0.2,0.6-0.5l0.7-2C343.2,120,344.1,120,344.3,120.6z"/>
				<path class="st18" d="M358.1,120.6l0.7,2c0.1,0.3,0.4,0.5,0.6,0.5h2.1c0.7,0,0.9,0.8,0.4,1.2l-1.7,1.2c-0.2,0.2-0.3,0.5-0.2,0.8
					l0.7,2c0.2,0.6-0.5,1.1-1,0.8l-1.7-1.2c-0.2-0.2-0.6-0.2-0.8,0l-1.7,1.2c-0.5,0.4-1.2-0.1-1-0.8l0.7-2c0.1-0.3,0-0.6-0.2-0.8
					l-1.7-1.2c-0.5-0.4-0.3-1.2,0.4-1.2h2.1c0.3,0,0.6-0.2,0.6-0.5l0.7-2C357,120,357.8,120,358.1,120.6z"/>
				<path class="st18" d="M371.8,120.6l0.7,2c0.1,0.3,0.4,0.5,0.6,0.5h2.1c0.7,0,0.9,0.8,0.4,1.2l-1.7,1.2c-0.2,0.2-0.3,0.5-0.2,0.8
					l0.7,2c0.2,0.6-0.5,1.1-1,0.8l-1.7-1.2c-0.2-0.2-0.6-0.2-0.8,0l-1.7,1.2c-0.5,0.4-1.2-0.1-1-0.8l0.7-2c0.1-0.3,0-0.6-0.2-0.8
					l-1.7-1.2c-0.5-0.4-0.3-1.2,0.4-1.2h2.1c0.3,0,0.6-0.2,0.6-0.5l0.7-2C370.8,120,371.6,120,371.8,120.6z"/>
				<path class="st9" d="M385.6,120.6l0.7,2c0.1,0.3,0.4,0.5,0.6,0.5h2.1c0.7,0,0.9,0.8,0.4,1.2l-1.7,1.2c-0.2,0.2-0.3,0.5-0.2,0.8
					l0.7,2c0.2,0.6-0.5,1.1-1,0.8l-1.7-1.2c-0.2-0.2-0.6-0.2-0.8,0l-1.7,1.2c-0.5,0.4-1.2-0.1-1-0.8l0.7-2c0.1-0.3,0-0.6-0.2-0.8
					l-1.7-1.2c-0.5-0.4-0.3-1.2,0.4-1.2h2.1c0.3,0,0.6-0.2,0.6-0.5l0.7-2C384.6,120,385.4,120,385.6,120.6z"/>
			</g>
			<path class="st17" d="M397.2,143.2h-74c-1.9,0-3.5-1.6-3.5-3.5V138c0-1.9,1.6-3.5,3.5-3.5h74c1.9,0,3.5,1.6,3.5,3.5v1.6
				C400.7,141.6,399.2,143.2,397.2,143.2z"/>
			<rect x="447.2" y="152.1" class="st19" width="27.3" height="27.3"/>
			<line class="st20" x1="233" y1="197.3" x2="472.5" y2="197.3"/>
			<line class="st19" x1="320.2" y1="154.1" x2="427.9" y2="154.1"/>
			<line class="st19" x1="320.2" y1="166" x2="427.9" y2="166"/>
			<line class="st19" x1="320.2" y1="178" x2="427.9" y2="178"/>
		</g>
		<g>
			<g>
				
					<ellipse transform="matrix(0.7071 -0.7071 0.7071 0.7071 -96.7071 268.3539)" class="st9" cx="275.6" cy="250.9" rx="36.3" ry="36.3"/>
				<g>
					<defs>
						
							<ellipse id="SVGID_3_" transform="matrix(0.9724 -0.2334 0.2334 0.9724 -50.9923 71.311)" cx="275.8" cy="251.1" rx="36.3" ry="36.3"/>
					</defs>
					<clipPath id="SVGID_4_">
						<use xlink:href="#SVGID_3_"  style="overflow:visible;"/>
					</clipPath>
					<g class="st21">
						<g>
							<g>
								<g>
									<path class="st14" d="M263.1,232.3c0.7-3.4,2.8-9.9,8.3-11.3c5.4-1.4,10.1-1,15.4,2.6c10.1,7,3.9,43.3,3.9,43.3
										s-3.8,8.3-31.8-2.5C259,264.3,262.2,236.8,263.1,232.3z"/>
								</g>
								<g>
									<path class="st22" d="M267.7,245.3c0,0-2.7,20.8-2.9,22.5c0,0,9,10.8,18.2,1.5c0,0-1.6-5-4.4-18L267.7,245.3z"/>
									<path class="st14" d="M275,274.1c0,0-0.9,4.4,8.3-4.8c0,0-0.8-4.2-1.4-6.5L275,274.1z"/>
									<path class="st14" d="M279.3,251.4c-0.8,2.7-5.4,5-8,4.4c-3.1-0.7-4.5-6.2-4.2-8.6c0.2-1.9,5.6-3,8.1-2.3
										C277.8,245.8,280.1,248.7,279.3,251.4z"/>
								</g>
								<g>
									<g>
										<g>
											<path class="st23" d="M263.7,234.9l3.6,0.6l-0.7,4L263,239c-1.1-0.2-1.9-1.3-1.7-2.4v0
												C261.5,235.5,262.6,234.7,263.7,234.9z"/>
											<path class="st24" d="M263.3,236l1.5,0.3l-0.3,1.7l-1.5-0.3c-0.5-0.1-0.8-0.5-0.7-1l0,0
												C262.4,236.2,262.9,235.9,263.3,236z"/>
										</g>
										<g>
											<path class="st23" d="M287.2,243.4l-3.5-1.1l1.2-3.9l3.5,1.1c1.1,0.3,1.7,1.5,1.3,2.6l0,0
												C289.4,243.1,288.3,243.7,287.2,243.4z"/>
											<path class="st24" d="M288.1,240.6l-1.4-0.5l-0.5,1.6l1.4,0.5c0.4,0.1,0.9-0.1,1.1-0.5l0,0
												C288.8,241.2,288.6,240.7,288.1,240.6z"/>
										</g>
										<path class="st23" d="M279.9,226.8L279.9,226.8c6.5,2.1,9,8.8,7,15.3l-0.2,0.5c-2.1,6.5-9,10.7-14.5,8.8l0,0
											c-4.2-1.6-9.9-9.6-7.8-16.1l0.2-0.5C266.6,228.4,273.4,224.8,279.9,226.8z"/>
									</g>
									<g>
										<path class="st17" d="M273.5,246.8l0.5,0.1c1.7,0.4,3.4-0.6,3.8-2.3l0,0l-6.6-1.6l0,0
											C270.8,244.7,271.8,246.4,273.5,246.8z"/>
										<path class="st14" d="M277.4,240.3c-0.1,0.5,0.1,0.9,0.4,1s0.7-0.2,0.9-0.7c0.1-0.5-0.1-0.9-0.4-1
											C277.9,239.5,277.5,239.8,277.4,240.3z"/>
										<path class="st14" d="M272.3,239.1c-0.1,0.5,0,0.9,0.4,1c0.4,0.1,0.8-0.2,0.9-0.6c0.1-0.5,0-0.9-0.4-1
											C272.9,238.3,272.5,238.6,272.3,239.1z"/>
										<path class="st25" d="M273.9,242.3l1.7,0.5c0.2,0.1,0.4-0.2,0.4-0.4l-0.2-2.4c0-0.3-0.3-0.4-0.5-0.2l-1.5,1.9
											C273.6,241.9,273.7,242.3,273.9,242.3z"/>
										<path class="st14" d="M271.2,236.7c-0.5,0.2,0.6-1,1.3-1c0.7,0,1.2,0.5,1.2,1.1C273.7,236.8,272.6,236.3,271.2,236.7z"/>
										<path class="st14" d="M280.7,238.9c0.4,0.4-0.1-1.2-0.7-1.5c-0.6-0.3-1.3-0.1-1.5,0.4
											C278.5,237.9,279.7,237.9,280.7,238.9z"/>
									</g>
								</g>
								<g>
									<path class="st14" d="M272.3,226.1c-4.9,8.1,16.1,13.1,16.1,13.1s3.3-15.8-14.2-16.3C263,222.6,272.8,225.3,272.3,226.1z"
										/>
									<path class="st14" d="M273.8,225.9c0,0-5.1,7.2-6.4,8.4c-1.5,1.4-3.8-0.2-3.8-0.2S264.4,222.9,273.8,225.9z"/>
								</g>
								<g>
									<g>
										<path class="st26" d="M292.9,248.9c0,2.4-1.9,4.3-4.3,4.3s-4.3-1.9-4.3-4.3c0-2.4,1.9-4.3,4.3-4.3
											S292.9,246.5,292.9,248.9z"/>
										<path class="st26" d="M288.9,244.1c0,0.5-0.4,0.9-0.9,0.9c-0.5,0-0.9-0.4-0.9-0.9c0-0.5,0.4-0.9,0.9-0.9
											C288.5,243.2,288.9,243.6,288.9,244.1z"/>
									</g>
									<g>
										<path class="st26" d="M264.4,245.8c-1.1,2.1-3.7,2.8-5.8,1.7c-2.1-1.1-2.8-3.7-1.7-5.8c1.1-2.1,3.7-2.8,5.8-1.7
											C264.7,241.1,265.5,243.7,264.4,245.8z"/>
										<path class="st26" d="M263.1,239.6c-0.2,0.4-0.7,0.6-1.2,0.3c-0.4-0.2-0.6-0.7-0.3-1.2c0.2-0.4,0.7-0.6,1.2-0.3
											C263.2,238.6,263.3,239.2,263.1,239.6z"/>
									</g>
								</g>
							</g>
							<g>
								<g>
									<path class="st26" d="M311.3,291.4l-9.2-22.6c-3.2-4.9-6.1-6.3-10-5.8c-1.3,0.2-2.3,0.5-3.2,1l-6.3,1.2
										c-9.2,6.2-17.3-2.9-17.3-2.9c-7-5.5-22,5-22,5l1.7,9.7c0,0,6.5,24.2,6.5,25c0.4,7.6-0.1,20.8,0,20.6
										c0.1-0.2,40.8,5.2,41.1,4.6c0.3-0.6,0.4-5.2,1.1-21.8c0.1-2.2,0.1-4.3,0.1-6.5L311.3,291.4z"/>
									<g>
										<defs>
											<path id="SVGID_5_" d="M311.3,291.4l-9.2-22.6c-3.2-4.9-6.1-6.3-10-5.8c-1.3,0.2-2.3,0.5-3.2,1l-6.3,1.2
												c-9.2,6.2-17.3-2.9-17.3-2.9c-7-5.5-24.5,5-24.5,5l4.2,9.7c0,0,6.5,24.2,6.5,25c0.4,7.6-0.1,20.8,0,20.6
												c0.1-0.2,40.8,5.2,41.1,4.6c0.3-0.6,0.4-5.2,1.1-21.8c0.1-2.2,0.1-4.3,0.1-6.5L311.3,291.4z"/>
										</defs>
										<clipPath id="SVGID_6_">
											<use xlink:href="#SVGID_5_"  style="overflow:visible;"/>
										</clipPath>
										<g class="st27">
											<g>
												<g>
													<path class="st17" d="M272,324.3c-12.1-9.8-25.1-21.8-25.9-38.5c-0.2,0.1-0.5,0.3-0.7,0.4c7.2,3.1,14.7,6.3,20.6,11.7
														c3,2.8,5.6,6.1,7.9,9.5c2.2,3.3,4.4,6.7,6.2,10.3c2.2,4.2,3.9,8.5,4.9,13.2c0.1,0.6,1.1,0.4,0.9-0.3
														c-1.7-8.2-5.9-15.6-10.5-22.6c-2.2-3.3-4.5-6.6-7.3-9.4c-2.8-2.8-6.1-5.2-9.5-7.2c-4.1-2.3-8.4-4.2-12.7-6
														c-0.3-0.1-0.8,0-0.7,0.4c0.8,16.9,13.8,29.3,26.2,39.2C271.8,325.4,272.5,324.7,272,324.3L272,324.3z"/>
												</g>
											</g>
											<g>
												<g>
													<path class="st17" d="M240.4,255.3c10.4,17.1,21.7,34.8,39.4,45.1c4.6,2.7,9.6,4.7,14.8,6c0.4,0.1,0.7-0.3,0.6-0.7
														c-8.5-18.5-20.9-35.2-36.2-48.6c-4.3-3.8-8.8-7.7-14.2-9.9c-0.6-0.2-0.8,0.7-0.3,0.9c4.9,2.1,9.1,5.6,13.1,9.1
														c3.7,3.2,7.3,6.7,10.7,10.3c6.8,7.3,12.9,15.3,18.1,23.8c2.9,4.8,5.6,9.8,7.9,14.9c0.2-0.2,0.4-0.5,0.6-0.7
														c-19.4-4.7-33.6-19.9-44.3-35.8c-3.3-4.8-6.3-9.8-9.3-14.8C240.9,254.3,240.1,254.8,240.4,255.3L240.4,255.3z"/>
												</g>
											</g>
											<g>
												<g>
													<path class="st17" d="M285.8,264.7c1.6,7.6,5.4,14.8,11.4,19.8c6,5,13.9,7.4,21.6,6.3c0.6-0.1,0.4-1-0.3-0.9
														c-7.6,1.1-15.5-1.5-21.2-6.6c-5.6-4.9-9.1-11.7-10.5-18.9C286.6,263.8,285.6,264.1,285.8,264.7L285.8,264.7z"/>
												</g>
											</g>
										</g>
									</g>
								</g>
							</g>
						</g>
					</g>
				</g>
			</g>
			<g>
				<path class="st18" d="M330.5,224.4l0.7,2c0.1,0.3,0.4,0.5,0.6,0.5h2.1c0.7,0,0.9,0.8,0.4,1.2l-1.7,1.2c-0.2,0.2-0.3,0.5-0.2,0.8
					l0.7,2c0.2,0.6-0.5,1.1-1,0.8l-1.7-1.2c-0.2-0.2-0.6-0.2-0.8,0l-1.7,1.2c-0.5,0.4-1.2-0.1-1-0.8l0.7-2c0.1-0.3,0-0.6-0.2-0.8
					l-1.7-1.2c-0.5-0.4-0.3-1.2,0.4-1.2h2.1c0.3,0,0.6-0.2,0.6-0.5l0.7-2C329.4,223.8,330.3,223.8,330.5,224.4z"/>
				<path class="st18" d="M344.3,224.4l0.7,2c0.1,0.3,0.4,0.5,0.6,0.5h2.1c0.7,0,0.9,0.8,0.4,1.2l-1.7,1.2c-0.2,0.2-0.3,0.5-0.2,0.8
					l0.7,2c0.2,0.6-0.5,1.1-1,0.8l-1.7-1.2c-0.2-0.2-0.6-0.2-0.8,0l-1.7,1.2c-0.5,0.4-1.2-0.1-1-0.8l0.7-2c0.1-0.3,0-0.6-0.2-0.8
					l-1.7-1.2c-0.5-0.4-0.3-1.2,0.4-1.2h2.1c0.3,0,0.6-0.2,0.6-0.5l0.7-2C343.2,223.8,344.1,223.8,344.3,224.4z"/>
				<path class="st18" d="M358.1,224.4l0.7,2c0.1,0.3,0.4,0.5,0.6,0.5h2.1c0.7,0,0.9,0.8,0.4,1.2l-1.7,1.2c-0.2,0.2-0.3,0.5-0.2,0.8
					l0.7,2c0.2,0.6-0.5,1.1-1,0.8l-1.7-1.2c-0.2-0.2-0.6-0.2-0.8,0l-1.7,1.2c-0.5,0.4-1.2-0.1-1-0.8l0.7-2c0.1-0.3,0-0.6-0.2-0.8
					l-1.7-1.2c-0.5-0.4-0.3-1.2,0.4-1.2h2.1c0.3,0,0.6-0.2,0.6-0.5l0.7-2C357,223.8,357.8,223.8,358.1,224.4z"/>
				<path class="st18" d="M371.8,224.4l0.7,2c0.1,0.3,0.4,0.5,0.6,0.5h2.1c0.7,0,0.9,0.8,0.4,1.2l-1.7,1.2c-0.2,0.2-0.3,0.5-0.2,0.8
					l0.7,2c0.2,0.6-0.5,1.1-1,0.8l-1.7-1.2c-0.2-0.2-0.6-0.2-0.8,0l-1.7,1.2c-0.5,0.4-1.2-0.1-1-0.8l0.7-2c0.1-0.3,0-0.6-0.2-0.8
					l-1.7-1.2c-0.5-0.4-0.3-1.2,0.4-1.2h2.1c0.3,0,0.6-0.2,0.6-0.5l0.7-2C370.8,223.8,371.6,223.8,371.8,224.4z"/>
				<path class="st18" d="M385.6,224.4l0.7,2c0.1,0.3,0.4,0.5,0.6,0.5h2.1c0.7,0,0.9,0.8,0.4,1.2l-1.7,1.2c-0.2,0.2-0.3,0.5-0.2,0.8
					l0.7,2c0.2,0.6-0.5,1.1-1,0.8l-1.7-1.2c-0.2-0.2-0.6-0.2-0.8,0l-1.7,1.2c-0.5,0.4-1.2-0.1-1-0.8l0.7-2c0.1-0.3,0-0.6-0.2-0.8
					l-1.7-1.2c-0.5-0.4-0.3-1.2,0.4-1.2h2.1c0.3,0,0.6-0.2,0.6-0.5l0.7-2C384.6,223.8,385.4,223.8,385.6,224.4z"/>
			</g>
			<path class="st17" d="M397.2,246.9h-74c-1.9,0-3.5-1.6-3.5-3.5v-1.6c0-1.9,1.6-3.5,3.5-3.5h74c1.9,0,3.5,1.6,3.5,3.5v1.6
				C400.7,245.3,399.2,246.9,397.2,246.9z"/>
			<rect x="447.2" y="255.8" class="st19" width="27.3" height="27.3"/>
			<line class="st20" x1="233" y1="301.1" x2="472.5" y2="301.1"/>
			<line class="st19" x1="320.2" y1="257.8" x2="427.9" y2="257.8"/>
			<line class="st19" x1="320.2" y1="269.8" x2="427.9" y2="269.8"/>
			<line class="st19" x1="320.2" y1="281.8" x2="427.9" y2="281.8"/>
		</g>
		<g>
			<g>
				
					<ellipse transform="matrix(0.7071 -0.7071 0.7071 0.7071 -170.5417 298.9371)" class="st28" cx="275.6" cy="355.3" rx="36.3" ry="36.3"/>
				<g>
					<defs>
						
							<ellipse id="SVGID_7_" transform="matrix(0.7071 -0.7071 0.7071 0.7071 -170.5417 298.9371)" cx="275.6" cy="355.3" rx="36.3" ry="36.3"/>
					</defs>
					<clipPath id="SVGID_8_">
						<use xlink:href="#SVGID_7_"  style="overflow:visible;"/>
					</clipPath>
					<g class="st29">
						<g>
							<g>
								<path class="st30" d="M270.4,328.8c0,0-14.5,5.7-18.9,21.3c-4.5,15.7-10.7,29.9-22.1,30.8c-11.5,0.8-23.5,9-24.2,11.4
									c-0.7,2.5,37,56.6,68.4,43.3l4-28.5l0.5,22.2c0,0,1,4.2,12.1-3.1C301.3,418.8,304.7,319.1,270.4,328.8z"/>
								<g>
									<g>
										<path class="st30" d="M278.4,328.5c-6.4-1.6-13.3-0.3-18.8,3.3c-5.9,3.9-9.1,10.1-10.7,16.8c-1.7,7-2,14.4-4.5,21.2
											c-1.3,3.7-3.4,7.2-6.9,9c-3.3,1.7-7.3,2-11,1.9c-4.6,0-9.4-0.5-13.9,0.9c-3.8,1.1-7.3,3.5-9.8,6.6c-0.8,1,0.6,2.5,1.4,1.4
											c2.2-2.8,5.2-5,8.7-6c4-1.2,8.3-0.9,12.4-0.9c7.1,0.1,14.5-0.8,18.6-7.3c7.6-11.9,3.1-28.8,13.5-39.3
											c5.3-5.3,13.3-7.6,20.5-5.8C279.1,330.8,279.6,328.8,278.4,328.5L278.4,328.5z"/>
									</g>
								</g>
							</g>
							<g>
								<path class="st31" d="M282.3,352.2c0,0,2.5,21.7,2.9,23.4c0,0-6.6,7.4-16.1,2.1c0,0,1-6.4,2.7-19.7L282.3,352.2z"/>
								<path class="st14" d="M273.1,338.3L273.1,338.3c-4.2,0.9-5.7,7.3-4.1,14.3l0.1,0.5c1.5,6.9,5.9,10.5,9.4,10.7
									c2.9,0.2,6-6.6,4.5-13.5l0.4-1.1C281.8,342.2,277.3,337.3,273.1,338.3z"/>
							</g>
							<g>
								<g>
									<g>
										<path class="st32" d="M264.6,350.4l3.5-1.2l-1.3-3.9l-3.5,1.2c-1.1,0.4-1.7,1.5-1.3,2.6l0,0
											C262.4,350.2,263.6,350.8,264.6,350.4z"/>
										<path class="st32" d="M288.6,340.7l-3.6,1l1.1,4l3.6-1c1.1-0.3,1.7-1.5,1.4-2.5l0,0C290.8,341,289.7,340.4,288.6,340.7z"
											/>
										<path class="st33" d="M289,341.7l-1.5,0.4l0.5,1.6l1.5-0.4c0.5-0.1,0.7-0.6,0.6-1l0,0C290,341.9,289.5,341.6,289,341.7z"
											/>
										<path class="st33" d="M263.6,347.6l1.4-0.5l0.6,1.6l-1.4,0.5c-0.4,0.2-0.9-0.1-1.1-0.5l0,0
											C263,348.3,263.2,347.8,263.6,347.6z"/>
									</g>
									<path class="st34" d="M273.2,334.1L273.2,334.1c-6.7,1.6-9.8,8-8.3,14.5l0.1,0.5c1.5,6.5,9.7,11.6,14,10.5
										c4.4-1.2,10.5-9.6,9-16.1l-0.1-0.5C286.4,336.5,279.8,332.5,273.2,334.1z"/>
								</g>
								<g>
									<path class="st17" d="M277.8,354l0.5-0.1c1.7-0.5,2.8-2.2,2.3-4l0,0l-6.8,1.8l0,0C274.3,353.5,276.1,354.5,277.8,354z"/>
									<path class="st14" d="M278.1,346.2c0.1,0.5,0.5,0.8,0.9,0.7c0.4-0.1,0.6-0.6,0.4-1.1c-0.1-0.5-0.5-0.8-0.9-0.7
										C278.2,345.3,278,345.7,278.1,346.2z"/>
									<path class="st14" d="M272.9,347.6c0.1,0.5,0.5,0.8,0.9,0.8c0.4-0.1,0.6-0.5,0.5-1c-0.1-0.5-0.5-0.8-0.9-0.8
										C273,346.6,272.8,347.1,272.9,347.6z"/>
									<path class="st35" d="M276,349.8l1.8-0.4c0.2-0.1,0.3-0.4,0.2-0.6l-1.3-2.1c-0.2-0.3-0.5-0.2-0.5,0.1l-0.5,2.5
										C275.5,349.6,275.7,349.9,276,349.8z"/>
									<path class="st14" d="M270.8,346c-0.4,0.4,0-1.2,0.7-1.5c0.6-0.3,1.3-0.1,1.6,0.4C273,344.9,271.8,345,270.8,346z"/>
									<path class="st14" d="M280.5,343.4c0.6,0.2-0.6-1-1.3-1c-0.7,0-1.2,0.6-1.2,1.2C278,343.5,279.1,343,280.5,343.4z"/>
								</g>
							</g>
						</g>
						<g>
							<g>
								<path class="st12" d="M285.4,374.3c-2.2,3.5-9.3,6.4-16.1-4c0,0-11.1-7.1-19.2,6.1c-7.3,11.9-7.3,12.3-7.3,12.3l15.1,12.9
									l1,28l43.2,1.4c0,0-4.6-20-3.8-23.2c0.1-0.5,13.3-22.1,13.3-22.1S294.3,360,285.4,374.3z"/>
								<line class="st12" x1="258.5" y1="419.3" x2="299" y2="420.3"/>
							</g>
						</g>
						<path class="st30" d="M263.7,345.4c0,0,7.6-2.4,9.4-11.3c0,0,8.1,7.7,14.6,6.3c0,0-6.4-11.8-15.2-8.2
							C263.7,335.8,263.8,341.2,263.7,345.4z"/>
					</g>
				</g>
			</g>
			<g>
				<path class="st18" d="M330.5,328.8l0.7,2c0.1,0.3,0.4,0.5,0.6,0.5h2.1c0.7,0,0.9,0.8,0.4,1.2l-1.7,1.2c-0.2,0.2-0.3,0.5-0.2,0.8
					l0.7,2c0.2,0.6-0.5,1.1-1,0.8l-1.7-1.2c-0.2-0.2-0.6-0.2-0.8,0l-1.7,1.2c-0.5,0.4-1.2-0.1-1-0.8l0.7-2c0.1-0.3,0-0.6-0.2-0.8
					l-1.7-1.2c-0.5-0.4-0.3-1.2,0.4-1.2h2.1c0.3,0,0.6-0.2,0.6-0.5l0.7-2C329.4,328.2,330.3,328.2,330.5,328.8z"/>
				<path class="st18" d="M344.3,328.8l0.7,2c0.1,0.3,0.4,0.5,0.6,0.5h2.1c0.7,0,0.9,0.8,0.4,1.2l-1.7,1.2c-0.2,0.2-0.3,0.5-0.2,0.8
					l0.7,2c0.2,0.6-0.5,1.1-1,0.8L344,336c-0.2-0.2-0.6-0.2-0.8,0l-1.7,1.2c-0.5,0.4-1.2-0.1-1-0.8l0.7-2c0.1-0.3,0-0.6-0.2-0.8
					l-1.7-1.2c-0.5-0.4-0.3-1.2,0.4-1.2h2.1c0.3,0,0.6-0.2,0.6-0.5l0.7-2C343.2,328.2,344.1,328.2,344.3,328.8z"/>
				<path class="st18" d="M358.1,328.8l0.7,2c0.1,0.3,0.4,0.5,0.6,0.5h2.1c0.7,0,0.9,0.8,0.4,1.2l-1.7,1.2c-0.2,0.2-0.3,0.5-0.2,0.8
					l0.7,2c0.2,0.6-0.5,1.1-1,0.8l-1.7-1.2c-0.2-0.2-0.6-0.2-0.8,0l-1.7,1.2c-0.5,0.4-1.2-0.1-1-0.8l0.7-2c0.1-0.3,0-0.6-0.2-0.8
					l-1.7-1.2c-0.5-0.4-0.3-1.2,0.4-1.2h2.1c0.3,0,0.6-0.2,0.6-0.5l0.7-2C357,328.2,357.8,328.2,358.1,328.8z"/>
				<path class="st9" d="M371.8,328.8l0.7,2c0.1,0.3,0.4,0.5,0.6,0.5h2.1c0.7,0,0.9,0.8,0.4,1.2l-1.7,1.2c-0.2,0.2-0.3,0.5-0.2,0.8
					l0.7,2c0.2,0.6-0.5,1.1-1,0.8l-1.7-1.2c-0.2-0.2-0.6-0.2-0.8,0l-1.7,1.2c-0.5,0.4-1.2-0.1-1-0.8l0.7-2c0.1-0.3,0-0.6-0.2-0.8
					l-1.7-1.2c-0.5-0.4-0.3-1.2,0.4-1.2h2.1c0.3,0,0.6-0.2,0.6-0.5l0.7-2C370.8,328.2,371.6,328.2,371.8,328.8z"/>
				<path class="st9" d="M385.6,328.8l0.7,2c0.1,0.3,0.4,0.5,0.6,0.5h2.1c0.7,0,0.9,0.8,0.4,1.2l-1.7,1.2c-0.2,0.2-0.3,0.5-0.2,0.8
					l0.7,2c0.2,0.6-0.5,1.1-1,0.8l-1.7-1.2c-0.2-0.2-0.6-0.2-0.8,0l-1.7,1.2c-0.5,0.4-1.2-0.1-1-0.8l0.7-2c0.1-0.3,0-0.6-0.2-0.8
					l-1.7-1.2c-0.5-0.4-0.3-1.2,0.4-1.2h2.1c0.3,0,0.6-0.2,0.6-0.5l0.7-2C384.6,328.2,385.4,328.2,385.6,328.8z"/>
			</g>
			<path class="st17" d="M397.2,351.3h-74c-1.9,0-3.5-1.6-3.5-3.5v-1.6c0-1.9,1.6-3.5,3.5-3.5h74c1.9,0,3.5,1.6,3.5,3.5v1.6
				C400.7,349.8,399.2,351.3,397.2,351.3z"/>
			<rect x="447.2" y="360.3" class="st19" width="27.3" height="27.3"/>
			<line class="st20" x1="233" y1="405.5" x2="472.5" y2="405.5"/>
			<line class="st19" x1="320.2" y1="362.2" x2="427.9" y2="362.2"/>
			<line class="st19" x1="320.2" y1="374.2" x2="427.9" y2="374.2"/>
			<line class="st19" x1="320.2" y1="386.2" x2="427.9" y2="386.2"/>
		</g>
	</g>
	<path class="st6" d="M249.3,436.7c9.4,0,22.9-12.6,22.9-21.9h258.4c0,0-1,21.9-25.9,21.9H249.3"/>
</g>
<g>
	<g>
		<g>
			<path class="st36" d="M584.7,255.7L566.2,176c-0.3-2.1,3.5-7.1,5.3-8.1c5-2.9,11.2-3.3,16.8-2.1c18.4,3.8,34,77.2,30.9,75.5
				c0,0-27.6,14.4-36.5,8.5"/>
			<path class="st37" d="M586.2,182.9c0,0.3,0.2,0.5,0.5,0.5c1.2,0,3.8-0.3,4.2,2.8c0.4,3.1-2.5,4.8-4.3,4.9c-0.5,0-1.7,0.1-2,0.5
				c-1.1,1.1-1.6,3.7-2.4,6.8c-1.8,6.9,3.6,10.1,3.6,10.1s-18.1,8.9-17.9,0c0,0,1.4-16.4,1.3-16.5c-1.4-1.4-6.9-2-3.5-13.7
				c3.2-10.8,11.1-10.1,13.2-9.7C580.6,168.8,586.6,169.2,586.2,182.9z"/>
			<path class="st36" d="M573.3,167.5c0,0,11.1,14.7,13,15.9C586.4,183.4,594,165.4,573.3,167.5z"/>
			<g>
				<path class="st38" d="M589.5,187.1c0,0-1.8-3.8-4.1,1.3"/>
				<path class="st39" d="M576.1,183c-1.5,0-2.7,1.2-2.8,2.7c0,1.5,1.2,2.7,2.7,2.8c1.5,0,2.7-1.2,2.8-2.7
					C578.8,184.2,577.6,183,576.1,183z"/>
				<path class="st39" d="M564.8,184c1.2-0.2,2.2-1.3,2.2-2.6c0-1-0.5-1.9-1.3-2.4C565.7,179,564.5,182,564.8,184z"/>
				<path class="st17" d="M567.1,182.6l4.1,2.1c0,0-2,1.5-3.1,0.7C567,184.5,567.1,182.6,567.1,182.6z"/>
				<path class="st38" d="M570.2,179.6l-0.7,3l-1.4-0.6c-0.3-0.1-0.3-0.5-0.1-0.7L570.2,179.6z"/>
				<path d="M575.5,178.4c0.4,0.5,0.2-1.3-0.4-1.7c-0.6-0.4-1.4-0.3-1.7,0.2C573.4,177,574.7,177.2,575.5,178.4z"/>
				<path d="M567.7,175.5c-0.6,0.2,0.7-1.1,1.4-1c0.7,0.1,1.3,0.6,1.2,1.2C570.3,175.7,569.2,175.1,567.7,175.5z"/>
				<path d="M573.2,180.6c-0.2,0.5-0.6,0.8-0.8,0.7c-0.2-0.1-0.3-0.6-0.1-1.1c0.2-0.5,0.6-0.8,0.8-0.7
					C573.3,179.6,573.4,180.1,573.2,180.6z"/>
				<path d="M569.3,178.8c-0.2,0.5-0.5,0.8-0.8,0.7c-0.2-0.1-0.3-0.6-0.1-1c0.2-0.5,0.5-0.8,0.8-0.7
					C569.5,177.9,569.5,178.3,569.3,178.8z"/>
				<path d="M569.2,191.9c0,0,5.2,1,7.8,0.8C579.6,192.6,566.5,207.6,569.2,191.9z"/>
			</g>
		</g>
		<ellipse class="st5" cx="605.7" cy="453.8" rx="54" ry="3.1"/>
		<g>
			<path class="st40" d="M572.1,430.8l-1.9,13.3c0,0-3,8.9-5.8,5.4c-2.8-3.4-5.6-5.2-5.6-5.2l-0.9-13.9L572.1,430.8z"/>
			<path class="st39" d="M564.7,431.3l-0.5,18.2c0,0,8.9,1.3,5.6-4.6l1.9-12.6L564.7,431.3z"/>
			<path class="st40" d="M616.7,429.8l4.2,13.3c0,0,3.2,2.8,4.3,2.7c2.1-0.1,3.2-3.7,3.2-3.7l0.3-12.3H616.7z"/>
			<path class="st39" d="M622.7,426.2l2.9,22c0,0,6,1.6,2.7-4.4L629,427L622.7,426.2z"/>
			<path class="st41" d="M557.9,444.3l-11.2,9.1c-0.6,0.4-0.2,1.1,0.7,1.1l16.5,0.1c0.4,0,0.8-0.2,0.9-0.4l1.2-2.6
				c0.4-0.7,1.1-0.8,1,0l0.6,2.5c0,0.4,3.9,0.3,3.9-0.1c0.2-2.2-0.2-9.4-0.6-11.4c-0.1-0.3-0.3-0.5-0.7-0.6l0,0
				c-0.4-0.1-0.7,0-0.9,0.3c-1.1,1.1-4.7,4.3-6.6,3.7c-1.3-0.4-2.9-1.2-3.4-1.7C558.9,444,558.3,444,557.9,444.3z"/>
			<path class="st41" d="M628.5,441.6l6.3,10.6c0.7,1,0.3,2.3-0.9,3c-2,1.2-3.6,3.5-4.9,3.6c-2.3,0.1-5.8-2.3-7.8-3.2
				c-1.4-0.6-2.4-1.5-2.3-2.6l1.6-10.7c0-0.1,0.3-0.2,0.4-0.1l2.4,2.2c0.8,0.7,3,0.6,3.5-0.2c0.4-0.6,1.3-2.6,1.3-2.6
				C628.2,441.5,628.4,441.5,628.5,441.6z"/>
		</g>
		<g>
			<path class="st42" d="M594.8,254.4c5.1,9.1,7.8,15.7,10.8,27.2c3.4,13.4,40.4,126.4,42,150.7c-4.2,1-32.2,0.9-34.8,0.7
				c-8.5-24.3-29.9-103-33.5-118.3c-0.6-2.3-4.2-1.8-3.9,0.6c2.1,17.4,13.2,90.9,18.7,117.8c-2.2,1.1-34.3,0.9-36.8,0.6
				c-2.8-29.9-17.5-143.2,4.7-180C572.1,252.2,584.5,254.1,594.8,254.4z"/>
			<path class="st43" d="M563.2,257.6c0,0-9.1,22.4-9.1,54c0,31.6,10.4,111.7,10.4,111.7"/>
			<line class="st43" x1="625.9" y1="423.3" x2="589.8" y2="256.6"/>
			<path class="st43" d="M583.4,257.5c0,0,0.3,29,13.3,26.7"/>
			<path class="st44" d="M562.1,258.2l41.8,31.5c0,0,1.7-17-5.7-31L562.1,258.2z"/>
			<path class="st43" d="M556.5,285.5c13,2.3,10.9-26.5,10.9-26.5"/>
		</g>
		<path class="st45" d="M581.5,204.9c0,0,2.7-0.8,2.2-0.2c-0.4,0.6-1.4,1.2-2.3,1.8L581.5,204.9z"/>
		<line class="st43" x1="592.1" y1="423.5" x2="556" y2="423.5"/>
		<line class="st43" x1="646.4" y1="423.2" x2="609.1" y2="423.5"/>
		<path class="st46" d="M607.2,308.7c0-0.2,0.2-2.6,0.2-2.6l-1.1,3.4L607.2,308.7z"/>
		<path class="st46" d="M600.5,312l-0.7,0.6c0,0,0.8,1.4,1.1,1.3C600.9,313.9,600.3,313.3,600.5,312z"/>
		<g>
			<path class="st37" d="M521.8,229.3c0,0,27.3,37.9,33.8,33.4c0,0,7.4-5.2,3.7-26.4c0-2.1,0-3.5,0.1-3.8c0,0,1.6-20.9,5-25.2
				c0.4-0.5,1.5-1.4,1.4-1.4c-10.5-2.6-14.5,23.8-17.4,36c-0.1,0.5-20.2-19-20.2-19s-10.5-13.9-11.2-13.1c-1.1,1.1,3,7.3,3,7.3
				s-0.3,0.7-1.1,1.1c-0.8,0.4-1.2,0.9-1.5,1.9c-0.3,1.1-1.3,1.7-1.5,2.3C515.6,223.1,519.6,227.7,521.8,229.3z"/>
			<path class="st37" d="M527.7,222.8c0,0-2.1-6-3-5.8c-0.9,0.2-4.8,1.9-4.7,3.4c0.1,1.5,3.4,0.3,3.4,0.3s-0.6,3.4,1.1,3.8
				C526.2,224.8,527.7,222.8,527.7,222.8z"/>
			<g>
				<path class="st39" d="M522.5,220.3c0,0,0.1,1.5-1.1,1.8c0,0-0.3,1.6-1.9,1.2c0,0,0.4,0.7-0.5,0.9
					C519,224.2,523.1,228.7,522.5,220.3z"/>
				<g>
					<path class="st38" d="M523.3,217.4c-0.7,0.5-1.5,1-2.2,1.4c-0.4,0.2-0.8,0.4-1.1,0.7c-0.1,0.1-0.3,0.3-0.3,0.3
						c0,0.1,0,0.2,0.1,0.3c0.2,0.2,0.6,0.4,1,0.5c0.4,0.1,0.8,0.1,1.3,0.1c0.2,0,0.4-0.1,0.8,0.2c0.2,0.2,0.1,0.4,0.1,0.5l-0.1,0.3
						c-0.1,0.4-0.3,0.9-0.4,1.3l0,0l0.2-1.3c0-0.2,0.2-0.5,0-0.6c-0.2-0.1-0.4-0.1-0.6-0.1c-0.9,0-1.8-0.1-2.5-0.7
						c-0.2-0.2-0.3-0.4-0.2-0.6c0.1-0.2,0.2-0.4,0.4-0.5c0.4-0.3,0.8-0.4,1.2-0.6L523.3,217.4L523.3,217.4z"/>
				</g>
				<g>
					<path class="st38" d="M519.8,216.9c0.2,0,0.4,0.1,0.5,0.2c0.2,0.1,0.3,0.2,0.4,0.3c0.1,0.1,0.2,0.2,0.3,0.4
						c0.1,0.2,0.1,0.3,0.1,0.5l0,0C520.7,217.9,520.2,217.4,519.8,216.9L519.8,216.9z"/>
				</g>
				<g>
					<path class="st38" d="M518,219.2c0.4,0.3,0.8,0.5,1.1,0.8c0.4,0.3,0.7,0.6,1.1,0.8c0.3,0.3,0.7,0.6,1.1,0.8
						c0.2,0.1,0.3,0.2,0.5,0.3c0.2,0.1,0.4,0,0.6-0.1l0,0c-0.3,0.4-0.9,0.3-1.3,0.1c-0.4-0.2-0.8-0.5-1.2-0.8
						C519.2,220.6,518.6,219.9,518,219.2L518,219.2z"/>
				</g>
				<g>
					<path class="st38" d="M521.5,222.1c0,0.5,0,1.2-0.6,1.6c-0.3,0.2-0.7,0.2-1,0.1c-0.3-0.1-0.6-0.2-0.8-0.4
						c-0.5-0.4-0.8-0.8-1.2-1.2c-0.3-0.4-0.6-0.9-0.9-1.4l0,0c0.3,0.4,0.7,0.8,1.1,1.2c0.4,0.4,0.7,0.8,1.2,1.1
						c0.4,0.3,1,0.6,1.5,0.3C521.2,223.2,521.3,222.6,521.5,222.1L521.5,222.1z"/>
				</g>
				<g>
					<path class="st38" d="M519.6,223.1c0.1,0.3,0.1,0.7,0,1c-0.1,0.2-0.1,0.4-0.3,0.5c-0.1,0.1-0.3,0.2-0.3,0.2
						c-0.1,0-0.2,0.1-0.3,0.1c-0.4,0.1-0.8-0.1-1.1-0.2c-0.1-0.1-0.3-0.1-0.5-0.3c-0.2-0.1-0.2-0.3-0.3-0.5l0,0
						c0.2,0.3,0.5,0.4,0.8,0.5c0.3,0.1,0.6,0.2,0.9,0.2c0.2,0,0.3,0,0.4-0.1c0.1-0.1,0.2-0.3,0.3-0.4
						C519.5,223.7,519.6,223.4,519.6,223.1L519.6,223.1z"/>
				</g>
			</g>
		</g>
		<path class="st47" d="M565.7,205.9c0,0-6.8-1-9.5,4.6c-2.7,5.5-8.7,30.3-8.7,30.3l-16.7-16l-6.5,11.8c0,0,23.8,30.1,30.7,27.9
			C561.7,262.4,565.7,213.5,565.7,205.9z"/>
		<g>
			<path class="st47" d="M564.6,207.1c0.3,0.7-8.4,21.5-8.1,28.5c0.4,7.1,5.2,19,4.8,20.1c0,0,5.5,4.3,35.8-0.4
				c9.3-8.2,1.1-35.9-2-44.7c0,0-6-3-8.5-3.2C586.6,207.4,576.5,210.6,564.6,207.1z"/>
			<path class="st48" d="M586.7,207.4l-4.3-5.6c0,0-5.1,3.6-12.8,6.3l0.1,2c0.3,4,4.6,6.3,8,4.3
				C581.3,212.3,585.1,209.7,586.7,207.4z"/>
			<path class="st48" d="M568.6,201.5c0,0-1.3,4.9,1.1,6.7l-0.7,1.7c-0.8,2.3-4.2,1.9-4.4-0.5c-0.1-1-0.1-1.8,0.1-2.5L568.6,201.5z"
				/>
		</g>
		<g>
			<path class="st0" d="M590.2,318.7l39.2-25.1l-16.3-25.4l-33.9,21.7c-2.9,1.9-3.8,5.8-1.9,8.8L590.2,318.7z"/>
		</g>
		<g>
			<path class="st49" d="M604.1,273.2c0,0,6.3,2.9,1.4,20.8c-0.3,0.9-0.5,2-0.3,3l1.1,7.7c0.2,0.8,0.3,1.9-0.4,2.4
				c-0.9,0.6-5.9,5.2-6.5,5.4c-1.2,0.4,0.1-5.7-0.1-8.9c0-0.6-0.2,2-0.2,3.2l-0.2,2.5c-1.5-0.7-1.5-3.6-1.7-4.5
				c-0.3-1.3-0.1-2.1,0.1-2.4c0.7-1.4,2-4.2,2.2-6.8c0.1-1.5-0.9-7-1.8-17.3L604.1,273.2z"/>
			<path class="st37" d="M604.9,229.6c11.7,65.4,4.1,77.9,3.3,78.4c-1,0.6-6.4,5.7-7.1,5.9c-1.4,0.5,0.1-6.2-0.1-9.7
				c0-0.6-0.2,2.2-0.3,3.5l-0.2,2.7c-1.6-0.7-1.6-3.9-1.9-5c-0.3-1.4-0.1-2.3,0.1-2.7c0.7-1.6,2.2-4.6,2.4-7.4
				c0.1-1.6-11-54.8-12.9-62.6c-2.7-10.6,0.7-22.8,4.4-23.2C597.4,209,603.9,224.2,604.9,229.6z"/>
			<path class="st47" d="M613.1,291.5c-0.5-2,2-40.2-6.5-65.1c-3.8-11.2-9.3-17.4-13.9-16.9c-3.7,0.4-7.1,12.6-4.4,23.2
				c2,7.8,6.1,42.7,9.5,60.5L613.1,291.5z"/>
		</g>
	</g>
	<g>
		<path class="st0" d="M597.6,157.3l7.8-7.8h29.4c6,0,10.8-4.8,10.8-10.8v-2.3c0-6-4.8-10.8-10.8-10.8h-26.4
			c-6,0-10.8,4.8-10.8,10.8V157.3z"/>
		<g>
			<path class="st50" d="M630,137.2c0,1.5,1.2,2.7,2.7,2.7s2.7-1.2,2.7-2.7c0-1.5-1.2-2.7-2.7-2.7S630,135.7,630,137.2z"/>
			<path class="st50" d="M620.1,137.2c0,1.5,1.2,2.7,2.7,2.7c1.5,0,2.7-1.2,2.7-2.7c0-1.5-1.2-2.7-2.7-2.7
				C621.3,134.5,620.1,135.7,620.1,137.2z"/>
			<path class="st50" d="M610.2,137.2c0,1.5,1.2,2.7,2.7,2.7c1.5,0,2.7-1.2,2.7-2.7c0-1.5-1.2-2.7-2.7-2.7
				C611.4,134.5,610.2,135.7,610.2,137.2z"/>
		</g>
	</g>
</g>
<g>
	<g>
		<ellipse class="st5" cx="127.6" cy="435.8" rx="62.9" ry="3.6"/>
		<g>
			<polygon class="st51" points="182.8,425.8 180.9,422 169.4,422.4 169.2,425.8 174.6,435.1 184.3,427.6 			"/>
			<path class="st52" d="M175.8,422.3l-0.5,8.8c0,0-3-1.7-6.5-4.8l0.5-5L175.8,422.3z"/>
			<path class="st42" d="M183.5,425.6c0,0-3.4-0.1-7.3,2.9c-2.3,1.8-5.9-1.9-6.9-2.8c-0.2-0.2-0.5,0-0.6,0.3l-1.4,12.4h34.1
				c0.4,0,0.7-0.4,0.7-0.9v-2.6c0-0.4-0.2-0.8-0.5-0.9L183.5,425.6z"/>
			<line class="st53" x1="185.4" y1="426.3" x2="180" y2="429.5"/>
			<line class="st53" x1="187.8" y1="427.5" x2="182.3" y2="430.7"/>
		</g>
		<g>
			<polygon class="st51" points="127.2,425.8 125.3,422 114.8,420.4 113.6,425.8 118.9,435.1 128.7,427.6 			"/>
			<path class="st52" d="M119.1,422.1l1,8.3c0,0-3-1.7-6.5-4.8l1-4.3L119.1,422.1z"/>
			<path class="st42" d="M127.9,425.6c0,0-3.4-0.1-7.3,2.9c-2.3,1.8-5.9-1.9-6.9-2.8c-0.2-0.2-0.5,0-0.6,0.3l-1.4,12.4h34.1
				c0.4,0,0.7-0.4,0.7-0.9v-2.6c0-0.4-0.2-0.8-0.5-0.9L127.9,425.6z"/>
			<line class="st53" x1="130.6" y1="426.5" x2="125.1" y2="429.7"/>
			<line class="st53" x1="133" y1="427.8" x2="127.5" y2="430.9"/>
		</g>
		<path class="st36" d="M168.7,147.1c2.4-3.8,3.2-9.4-1-11.9c-2.2-1.3-5-1-6.9,0.6c-0.9,0.7-1.6,1.7-2.1,2.7c-0.8-1.2-2.1-2-3.6-2
			c-1.3,0-2.9,1-3.8,2.4c-1.3-0.4-2.8-0.5-4-0.2c-2.9,0.7-3.5,4.6-1.8,6.8c-2.1,2.8-2.7,6.7,0.3,16.5l0,0.1l4,2.2l0.1-0.2l0,0l0,0
			l0.1-0.2l-0.3-0.2l4-13c0.5-0.4,3.9-2.6,5.6-1.2c1.8,1.4,3.8,2.7,5.4,2.1c0.7-0.3,1.3-1,1.8-1.6
			C167.6,149.3,168.3,148.3,168.7,147.1z M167,136.5c1.5,0.9,2.2,2.4,2.2,4.1c-0.7-3.2-3.8-4.8-6.8-4
			C163.7,135.8,165.5,135.7,167,136.5z M147.1,162.1c0.5,0.1,1.1,0.5,1.8,1.1l-0.9-0.5L147.1,162.1z"/>
		<g>
			<path class="st42" d="M180.7,276.3c0,0,4.4,52.5,4.8,67c0.4,14.5-2.5,79.2-2.5,79.2l-18.3,0.3c0,0-12.8-108.5-30.5-143.5
				L180.7,276.3z"/>
			<path class="st53" d="M158.6,279c0,0,12.5,60.7,12.5,70s1.8,73.3,1.8,73.3"/>
			<line class="st53" x1="163.8" y1="415.8" x2="183.2" y2="415.8"/>
		</g>
		<g>
			<path class="st42" d="M180.7,276.3c0,0-10.2,43.8-20.5,74.8c-8.3,25-26.8,73-26.8,73l-20.5-0.5l17.8-71.7
				c0.9-3.7,1.5-7.6,1.8-11.4c0.9-14.5-2.1-43.9-3.3-62.8L180.7,276.3z"/>
			<g>
				<path class="st54" d="M145.2,277.1c0,0,4.8,56.7,0.5,65.6c-4.3,8.8-25.3,80.7-25.3,80.7"/>
				<line class="st54" x1="115.1" y1="417" x2="135.6" y2="417"/>
				<line class="st54" x1="162.4" y1="276.6" x2="147.1" y2="296.7"/>
			</g>
		</g>
		<g>
			<path class="st51" d="M156.2,193.6c0,0-0.6-4.7,3.8-5.4c4.4-0.7,16.1-3.8,46,6.4c0,0,5.2-28.9,5.2-31.2c0.1-6.1,2.1-14,6.8-18.2
				c0.4-0.3,0.7,15.1,0.8,23.3c0,0,4,41.5-0.9,45.6C213,218.4,151.4,207.9,156.2,193.6z"/>
			<path class="st55" d="M165,186.5c0,0-16.9-2.8-16.4,10.3s33.3,22.1,42.3,19.9l-2.8-29.2L165,186.5z"/>
			<path class="st56" d="M190.8,216.3c-2.6,3.1-28.3-3.5-31.1-7.7c0,0-0.4-14.4,0.7-14.6C171.5,190.9,190.8,216.3,190.8,216.3z"/>
		</g>
		<g>
			<path class="st55" d="M141.1,185c0,0-22.9,2.3-24.4,21.3c-1.4,19,10.4,71.6,10.4,71.6l57.4-1.8l-3.1-65.3
				c-0.2-4.8-1.7-9.5-4.3-13.6c-2.4-3.7-5.2-8-6.8-8.2l-25.7-6.6L141.1,185z"/>
			<path class="st56" d="M136.3,192.1c-13.9-5.6-18.9,4.7-19.6,14.2c-1.4,19,10.4,71.6,10.4,71.6l57.4-1.8"/>
		</g>
		<path class="st17" d="M166.7,251.2c0.1,1,0,1.8-0.4,1.9c-0.3,0-0.7-0.7-0.8-1.7c-0.1-1,0-1.8,0.4-1.9
			C166.2,249.4,166.5,250.2,166.7,251.2z"/>
		<g>
			<path class="st51" d="M148.3,167.8l-1.3,12.9l13.3,11.1l2-5.8l-1-10.7l-10.7-9.7c0,0-1.7,1.2-1.9,1.6S148.3,167.8,148.3,167.8z"
				/>
			<path class="st36" d="M150.4,165.7l10.7,9.7l0.8,6.3c0,0-9.7-2.7-10.1-10.7"/>
		</g>
		<g>
			<g>
				<path class="st17" d="M162.2,200.2c0.1,1,0,1.8-0.4,1.9c-0.3,0-0.7-0.7-0.8-1.7c-0.1-1,0-1.8,0.4-1.9
					C161.7,198.4,162.1,199.2,162.2,200.2z"/>
				<path class="st17" d="M163.1,210.4c0.1,1,0,1.8-0.4,1.9s-0.7-0.7-0.8-1.7c-0.1-1,0-1.8,0.4-1.9S163,209.4,163.1,210.4z"/>
				<path class="st17" d="M164,220.6c0.1,1,0,1.8-0.4,1.9c-0.3,0-0.7-0.7-0.8-1.7c-0.1-1,0-1.8,0.4-1.9
					C163.5,218.8,163.9,219.6,164,220.6z"/>
				<path class="st17" d="M164.9,230.8c0.1,1,0,1.8-0.4,1.9c-0.3,0-0.7-0.7-0.8-1.7c-0.1-1,0-1.8,0.4-1.9S164.8,229.8,164.9,230.8z"
					/>
				<path class="st17" d="M165.8,241c0.1,1,0,1.8-0.4,1.9c-0.3,0-0.7-0.7-0.8-1.7c-0.1-1,0-1.8,0.4-1.9
					C165.3,239.2,165.7,240,165.8,241z"/>
				<path class="st17" d="M167.6,261.4c0.1,1,0,1.8-0.4,1.9c-0.3,0-0.7-0.7-0.8-1.7c-0.1-1,0-1.8,0.4-1.9
					C167.1,259.6,167.4,260.4,167.6,261.4z"/>
				<path class="st17" d="M168.5,271.6c0.1,1,0,1.8-0.4,1.9c-0.3,0-0.7-0.7-0.8-1.7c-0.1-1,0-1.8,0.4-1.9
					C168,269.8,168.3,270.6,168.5,271.6z"/>
			</g>
			<g>
				<polygon class="st17" points="146.5,179.8 139.4,183.1 157.1,198.1 160.2,191.8 				"/>
				<path class="st17" d="M162.2,184.7c0.3,0.1,3.1,2,3.1,2l0.1,9.5l-5.2-4.4L162.2,184.7z"/>
			</g>
		</g>
		<g>
			<g>
				<path class="st42" d="M177.8,250.5l12.8-40.1c0.7-2.2,2.3-4,4.4-4.9l26.2-11.3c0.8-0.3,1.6,0.4,1.3,1.3l-12.9,39.3
					c-0.7,2.1-2.2,3.8-4.2,4.8l-26.2,12.3C178.3,252.1,177.5,251.4,177.8,250.5z"/>
				<path class="st17" d="M180,252.9l12.8-40.1c0.7-2.2,2.3-4,4.4-4.9l26.2-11.3c0.8-0.3,1.6,0.4,1.3,1.3l-12.9,39.3
					c-0.7,2.1-2.2,3.8-4.2,4.8l-26.2,12.3C180.5,254.5,179.7,253.7,180,252.9z"/>
				<polygon class="st57" points="186.5,223.5 196.1,226.4 184,231.3 				"/>
				<line class="st58" x1="197.8" y1="215" x2="220.5" y2="205.3"/>
				<line class="st58" x1="197.8" y1="219.2" x2="216.6" y2="211.5"/>
				<polygon class="st0" points="187.7,243.3 211.9,232.7 210.4,237.8 185.7,248.9 				"/>
			</g>
			<path class="st51" d="M196.3,230.6c-1.4,1.3-26.8,27.3-39,39.1c-3.3,3.2-8.6,2.4-10.9-1.6L125,232.2l20.3-15.7
				c0.1,0.2,10.7,18.2,13.2,27.3c0.8,3,2.2,2.7,4.6,1.3l18.5-11.4c0,0,0-3.2,0.4-4.5c0.8-2.3,4.5-5.4,4.5-5.4l-1.6,4.9
				c-0.3,0.8-1.2,1.4,0.3,1.6l11.7-8.7c0,0,1.1-0.1,0.1,1.1c-1,1.2-2.1,2.4-2,2.5s3.4-2.2,3.5-1.3c0.1,0.9-2.6,2.9-2.5,3
				c0.1,0.1,3.1-2.4,3.3-1.6c0.2,0.8-2.1,2.4-2.2,2.7c-0.1,0.3,2.5-1.7,2.6-1.2C199.7,227.1,197.1,229.9,196.3,230.6z"/>
			<path class="st55" d="M139.9,200.5c0,0-5.8-16.2-16.9-9.4c-11.1,6.8-2.9,40.1,3.3,46.9l23.9-16.6L139.9,200.5z"/>
		</g>
		<g>
			<path class="st51" d="M149.4,162.1c-0.1,0.3-0.6,0.4-0.8,0.2c-0.9-0.9-2.6-2-3.2,1.4c-0.8,4.6,4,3.8,4.4,4.5
				c0.8,1.3,3.3,5.5,7,7.2c2.3,1,5.7,1.2,8.1-1.2c2.5-2.4,3.6-0.8,2.6-26.3c0,0-1.1,2.2-2.8,2.8c-1.6,0.6-4.3-1.7-6.1-2.2
				c-1.5-0.4-4.5-1.5-6.3,3.7C151.5,154.5,150.2,160.1,149.4,162.1z"/>
			<g>
				<path class="st59" d="M166.6,160.5c0,0-0.4-2.1-1.3,0.1"/>
				<path class="st59" d="M159.3,160.7l-11.6,0.3c0,0-2.2-0.2-2.8,1.7"/>
				<ellipse class="st60" cx="168.3" cy="159.5" rx="1.8" ry="4.1"/>
				<ellipse class="st59" cx="162.2" cy="160" rx="3" ry="4.9"/>
			</g>
			<g>
				<path class="st17" d="M167.4,166.1c0,0-1.5,0.7-5.2,0.4c0,0,2,2.7,3.4,2.2C167.1,168.2,167.4,166.1,167.4,166.1z"/>
				<path class="st52" d="M146.1,163.3l2.6,1.9C148.6,165.2,147.7,160.6,146.1,163.3z"/>
				<path class="st36" d="M164.4,160.7c0,0.6-0.2,1-0.5,1c-0.3,0-0.5-0.5-0.5-1c0-0.6,0.2-1,0.5-1
					C164.2,159.7,164.4,160.2,164.4,160.7z"/>
				<path class="st36" d="M167.6,160.2c0,0.6-0.2,1-0.5,1c-0.3,0-0.5-0.5-0.5-1c0-0.6,0.2-1,0.5-1
					C167.4,159.2,167.6,159.7,167.6,160.2z"/>
				<path class="st36" d="M160.2,156.4c-0.7,0.5,0.4-1.8,1.4-2.1c1-0.3,2,0.2,2.2,1.1C163.8,155.4,162,155.1,160.2,156.4z"/>
				<path class="st36" d="M167.7,156.1c-1-0.1-1.8,0-1.8,0c0.1-0.8,0.9-1.4,1.8-1.4"/>
				<path class="st52" d="M166.1,160.2l1.5,4.3c0,0.1,0,0.1-0.1,0.2l-1.8,0.1c-0.1,0-0.1-0.1-0.1-0.1l0.3-4.4
					C165.9,160.1,166,160.1,166.1,160.2z"/>
			</g>
		</g>
	</g>
	<g>
		<path class="st47" d="M135.3,132.7l-7.8-7.8H98c-6,0-10.8-4.9-10.8-10.8v-2.4c0-6,4.9-10.8,10.8-10.8h26.4c6,0,10.8,4.9,10.8,10.8
			V132.7z"/>
		<g>
			<circle class="st50" cx="100.1" cy="112.5" r="2.7"/>
			<path class="st50" d="M112.7,112.5c0,1.5-1.2,2.7-2.7,2.7s-2.7-1.2-2.7-2.7c0-1.5,1.2-2.7,2.7-2.7S112.7,111,112.7,112.5z"/>
			<circle class="st50" cx="119.9" cy="112.5" r="2.7"/>
		</g>
	</g>
</g>
<g>
	<g>
		<g>
			
				<ellipse transform="matrix(0.54 -0.8417 0.8417 0.54 83.7413 691.7615)" class="st61" cx="674.7" cy="269.3" rx="23.2" ry="23.2"/>
			<g>
				<path class="st5" d="M682.6,292.4h-31.3c-2.1,0-3.7-1.7-3.7-3.7v-40.5c0-2.1,1.7-3.7,3.7-3.7h31.3c2.1,0,3.7,1.7,3.7,3.7v40.5
					C686.4,290.7,684.7,292.4,682.6,292.4z"/>
				<g>
					<path class="st62" d="M677.3,288.4H654c-0.9,0-1.5-0.7-1.5-1.5v-37.3c0-0.8,0.7-1.5,1.5-1.5h26.7c0.9,0,1.5,0.7,1.5,1.5v34
						C681.6,284.3,677.9,287.9,677.3,288.4z"/>
					<path class="st63" d="M681.7,283.5l-4.8,4.8l-0.1-3.1c0-1,0.8-1.9,1.9-1.9L681.7,283.5z"/>
					<g>
						<g>
							<path class="st5" d="M656.5,249.3L656.5,249.3c-0.8,0-1.5-0.7-1.5-1.5v-4.6c0-0.8,0.7-1.5,1.5-1.5l0,0c0.8,0,1.5,0.7,1.5,1.5
								v4.6C658,248.6,657.3,249.3,656.5,249.3z"/>
							<path class="st64" d="M656.5,251.3L656.5,251.3c-0.8,0-1.5-0.7-1.5-1.5v-4.6c0-0.8,0.7-1.5,1.5-1.5l0,0
								c0.8,0,1.5,0.7,1.5,1.5v4.6C658,250.6,657.3,251.3,656.5,251.3z"/>
						</g>
						<g>
							<path class="st5" d="M666.2,249.3L666.2,249.3c-0.8,0-1.5-0.7-1.5-1.5v-4.6c0-0.8,0.7-1.5,1.5-1.5l0,0c0.8,0,1.5,0.7,1.5,1.5
								v4.6C667.7,248.6,667,249.3,666.2,249.3z"/>
							<path class="st64" d="M666.2,251.3L666.2,251.3c-0.8,0-1.5-0.7-1.5-1.5v-4.6c0-0.8,0.7-1.5,1.5-1.5l0,0
								c0.8,0,1.5,0.7,1.5,1.5v4.6C667.7,250.6,667,251.3,666.2,251.3z"/>
						</g>
						<g>
							<path class="st5" d="M675.8,249.3L675.8,249.3c-0.8,0-1.5-0.7-1.5-1.5v-4.6c0-0.8,0.7-1.5,1.5-1.5l0,0c0.8,0,1.5,0.7,1.5,1.5
								v4.6C677.3,248.6,676.7,249.3,675.8,249.3z"/>
							<path class="st64" d="M675.8,251.3L675.8,251.3c-0.8,0-1.5-0.7-1.5-1.5v-4.6c0-0.8,0.7-1.5,1.5-1.5l0,0
								c0.8,0,1.5,0.7,1.5,1.5v4.6C677.3,250.6,676.7,251.3,675.8,251.3z"/>
						</g>
					</g>
					<g>
						<path class="st65" d="M658.6,268.1c0,0.9-0.7,1.6-1.6,1.6c-0.9,0-1.6-0.7-1.6-1.6c0-0.9,0.7-1.6,1.6-1.6
							C657.9,266.6,658.6,267.3,658.6,268.1z"/>
						<path class="st65" d="M658.6,275c0,0.9-0.7,1.6-1.6,1.6c-0.9,0-1.6-0.7-1.6-1.6c0-0.9,0.7-1.6,1.6-1.6
							C657.9,273.4,658.6,274.1,658.6,275z"/>
						<path class="st65" d="M658.6,281.8c0,0.9-0.7,1.6-1.6,1.6c-0.9,0-1.6-0.7-1.6-1.6c0-0.9,0.7-1.6,1.6-1.6
							C657.9,280.3,658.6,281,658.6,281.8z"/>
						<g>
							<path class="st66" d="M675.5,268.7h-12.9c-0.4,0-0.7-0.3-0.7-0.7v0c0-0.4,0.3-0.7,0.7-0.7h12.9c0.4,0,0.7,0.3,0.7,0.7v0
								C676.1,268.4,675.8,268.7,675.5,268.7z"/>
							<path class="st66" d="M675.5,275.7h-12.9c-0.4,0-0.7-0.3-0.7-0.7v0c0-0.4,0.3-0.7,0.7-0.7h12.9c0.4,0,0.7,0.3,0.7,0.7v0
								C676.1,275.4,675.8,275.7,675.5,275.7z"/>
							<path class="st66" d="M675.5,282.7h-12.9c-0.4,0-0.7-0.3-0.7-0.7v0c0-0.4,0.3-0.7,0.7-0.7h12.9c0.4,0,0.7,0.3,0.7,0.7v0
								C676.1,282.4,675.8,282.7,675.5,282.7z"/>
						</g>
						<path class="st67" d="M657.1,268.8c-0.1,0-0.2,0-0.3-0.1l-1.7-1.9c-0.2-0.2-0.2-0.5,0-0.6c0.2-0.2,0.4-0.2,0.5,0l1.4,1.6
							l2.4-2.8c0.2-0.2,0.4-0.2,0.5,0c0.2,0.2,0.2,0.5,0,0.6l-2.7,3.1C657.3,268.8,657.2,268.8,657.1,268.8z"/>
						<path class="st67" d="M657.1,275.7c-0.1,0-0.2,0-0.3-0.1l-1.7-1.9c-0.2-0.2-0.2-0.5,0-0.6c0.2-0.2,0.4-0.2,0.5,0l1.4,1.6
							l2.4-2.8c0.2-0.2,0.4-0.2,0.5,0c0.2,0.2,0.2,0.5,0,0.6l-2.7,3.1C657.3,275.6,657.2,275.7,657.1,275.7z"/>
					</g>
				</g>
			</g>
			<g>
				<g>
					<g>
						
							<ellipse transform="matrix(0.973 -0.2309 0.2309 0.973 -43.6666 164.04)" class="st68" cx="679.1" cy="268.6" rx="11.2" ry="11.2"/>
						
							<ellipse transform="matrix(0.973 -0.2309 0.2309 0.973 -43.6666 164.04)" class="st69" cx="679.1" cy="268.6" rx="11.2" ry="11.2"/>
						<line class="st70" x1="687.3" y1="277" x2="696" y2="284.9"/>
					</g>
				</g>
			</g>
		</g>
	</g>
	<g>
		<g>
			<circle class="st71" cx="639.5" cy="182.1" r="17.4"/>
		</g>
		<g>
			<rect x="631.4" y="185.4" class="st72" width="6.3" height="6.3"/>
			<polyline class="st73" points="632.7,187.8 633.8,189.8 639.9,183 			"/>
		</g>
		<g>
			<rect x="631.4" y="172.9" class="st72" width="6.3" height="6.3"/>
			<polyline class="st73" points="632.7,175.2 633.8,177.2 639.9,170.5 			"/>
		</g>
		<g class="st74">
			<defs>
				<circle id="SVGID_9_" class="st74" cx="639.5" cy="182.1" r="17.4"/>
			</defs>
			<clipPath id="SVGID_10_">
				<use xlink:href="#SVGID_9_"  style="overflow:visible;"/>
			</clipPath>
			<path class="st75" d="M657.6,176.9h-14.7c-0.6,0-1.2-0.5-1.2-1.2l0,0c0-0.6,0.5-1.2,1.2-1.2h14.7c0.6,0,1.2,0.5,1.2,1.2l0,0
				C658.8,176.4,658.2,176.9,657.6,176.9z"/>
			<path class="st75" d="M658.7,189.4h-15.8c-0.7,0-1.2-0.5-1.2-1.2l0,0c0-0.7,0.5-1.2,1.2-1.2h15.8c0.7,0,1.2,0.5,1.2,1.2l0,0
				C659.9,188.9,659.4,189.4,658.7,189.4z"/>
		</g>
	</g>
</g>
<path class="st67" d="M460.8,172.4c-0.7,0-1.3-0.3-1.8-0.9l-11.1-12.7c-1-1.1-1-3,0-4.2c1-1.1,2.6-1.1,3.6,0l9.3,10.7l16.1-18.5
	c1-1.1,2.6-1.1,3.6,0c1,1.1,1,3,0,4.2l-17.9,20.6C462.2,172.1,461.5,172.4,460.8,172.4z"/>
<path class="st67" d="M460.8,276.3c-0.7,0-1.3-0.3-1.8-0.9l-11.1-12.7c-1-1.1-1-3,0-4.2c1-1.1,2.6-1.1,3.6,0l9.3,10.7l16.1-18.5
	c1-1.1,2.6-1.1,3.6,0c1,1.1,1,3,0,4.2l-17.9,20.6C462.2,276,461.5,276.3,460.8,276.3z"/>
</svg>
