<?xml version="1.0" encoding="utf-8"?>
<!-- Generator: Adobe Illustrator 24.3.0, SVG Export Plug-In . SVG Version: 6.00 Build 0)  -->
<svg version="1.1" id="Capa_1" xmlns="http://www.w3.org/2000/svg" xmlns:xlink="http://www.w3.org/1999/xlink" x="0px" y="0px"
	 viewBox="0 0 512 512" style="enable-background:new 0 0 512 512;" xml:space="preserve">
<style type="text/css">
	.st0{fill:#9CE8FF;}
	.st1{fill:#FFAF68;}
	.st2{fill:#CB7C52;}
	.st3{fill:#AB5436;}
	.st4{fill:#08375E;}
	.st5{fill:#63C3EA;}
	.st6{opacity:0.1;}
	.st7{fill:#231F20;}
	.st8{fill:#FF9F3D;}
	.st9{opacity:0.1;fill:#231F20;enable-background:new    ;}
	.st10{fill:#FFBB4A;}
	.st11{fill:#3EAF91;}
	.st12{fill:#FCC96C;}
	.st13{fill:#B1E8FF;}
	.st14{fill:#86D5B5;}
</style>
<path class="st0" d="M465,347.9v-14.3c0-2.5-2-4.5-4.5-4.5h-57.3c-2.5,0-4.5,2-4.5,4.5v14.3H465z"/>
<g>
	<path class="st1" d="M388.9,402.9v21.6c0,2.5,2,4.5,4.5,4.5h8.2c2.5,0,4.5-2,4.5-4.5v-21.6H388.9z"/>
	<path class="st1" d="M457.4,424.5c0,2.5,2,4.5,4.5,4.5h8.2c2.5,0,4.5-2,4.5-4.5v-21.6h-17.2L457.4,424.5L457.4,424.5z"/>
</g>
<rect x="388.9" y="383.6" class="st2" width="85.7" height="22.1"/>
<path class="st3" d="M470.1,345.2h-76.5c-2.5,0-4.6,2.1-4.6,4.6v36.7h85.7v-36.7C474.7,347.2,472.6,345.2,470.1,345.2z"/>
<path class="st2" d="M440.6,375.5H423c-3.6,0-6.6-3-6.6-6.6c0-3.6,3-6.6,6.6-6.6h17.5c3.6,0,6.6,3,6.6,6.6
	C447.2,372.5,444.2,375.5,440.6,375.5z"/>
<path class="st4" d="M79.5,411.2V226.5c0-3.5-2.9-6.4-6.4-6.4c-3.5,0-6.4,2.9-6.4,6.4v184.8H79.5z"/>
<path class="st5" d="M103.1,408.4H48.4c-2.4,0-4.4,2-4.4,4.4v11.9c0,2.4,2,4.4,4.4,4.4h54.7V408.4z"/>
<g class="st6">
	<path class="st7" d="M63.3,424.7v-11.9c0-2.4,2-4.4,4.4-4.4H48.4c-2.4,0-4.4,2-4.4,4.4v11.9c0,2.4,2,4.4,4.4,4.4h19.3
		C65.3,429.1,63.3,427.1,63.3,424.7z"/>
</g>
<path class="st8" d="M108.8,233.9c0,2.4-2,4.4-4.4,4.4H41.7c-2.4,0-4.4-2-4.4-4.4V154c0-2.4,2-4.4,4.4-4.4h62.7c2.4,0,4.4,2,4.4,4.4
	L108.8,233.9L108.8,233.9z"/>
<path class="st9" d="M56.2,233.9V154c0-2.4,2-4.4,4.4-4.4H41.7c-2.4,0-4.4,2-4.4,4.4v79.9c0,2.4,2,4.4,4.4,4.4h18.9
	C58.2,238.3,56.2,236.3,56.2,233.9z"/>
<path class="st10" d="M349.1,266.7H137.5c-4.8,0-8.8,4-8.8,8.8v89h229.1v-89C357.9,270.6,353.9,266.7,349.1,266.7z"/>
<path class="st9" d="M152.9,266.7h-15.4c-4.8,0-8.8,4-8.8,8.8v89h15.4v-89C144.1,270.6,148.1,266.7,152.9,266.7z"/>
<rect x="236.9" y="266.7" class="st8" width="12.8" height="97.8"/>
<g>
	<path class="st11" d="M212,360.1c0,2.4-2,4.4-4.4,4.4h-39.5c-2.4,0-4.4-2-4.4-4.4v-39.6c0-2.4,2-4.4,4.4-4.4h39.5
		c2.4,0,4.4,2,4.4,4.4V360.1z"/>
	<path class="st11" d="M326.6,360.1c0,2.4-2,4.4-4.4,4.4h-39.5c-2.4,0-4.4-2-4.4-4.4v-39.6c0-2.4,2-4.4,4.4-4.4h39.5
		c2.4,0,4.4,2,4.4,4.4V360.1z"/>
</g>
<rect x="128.7" y="361.2" class="st8" width="229.1" height="45.3"/>
<path class="st12" d="M127.8,328.1h-21.5c-4.9,0-9,4-9,9v87.5c0,2.5,2,4.5,4.5,4.5h30.4c2.5,0,4.5-2,4.5-4.5v-87.5
	C136.8,332.2,132.8,328.1,127.8,328.1z"/>
<path class="st9" d="M116.3,424.6v-87.5c0-4.9,4-9,9-9h-18.9c-4.9,0-9,4-9,9v87.5c0,2.5,2,4.5,4.5,4.5h18.9
	C118.3,429,116.3,427,116.3,424.6z"/>
<path class="st12" d="M380.3,328.1h-21.5c-4.9,0-9,4-9,9v87.5c0,2.5,2,4.5,4.5,4.5h30.4c2.5,0,4.5-2,4.5-4.5v-87.5
	C389.2,332.2,385.2,328.1,380.3,328.1z"/>
<path class="st9" d="M364.2,424.6v-87.5c0-4.9,4-9,9-9h-14.4c-4.9,0-9,4-9,9v87.5c0,2.5,2,4.5,4.5,4.5h14.4
	C366.2,429,364.2,427,364.2,424.6z"/>
<path class="st3" d="M342.2,103.2H144.4c-2.6,0-4.7,2.1-4.7,4.7V217c0,2.6,2.1,4.7,4.7,4.7h197.8c2.6,0,4.7-2.1,4.7-4.7V107.8
	C346.9,105.3,344.8,103.2,342.2,103.2z"/>
<path class="st13" d="M161,203c-1.4,0-2.6-1.2-2.6-2.6v-76.1c0-1.4,1.2-2.6,2.6-2.6h164.7c1.4,0,2.6,1.2,2.6,2.6v76.1
	c0,1.4-1.2,2.6-2.6,2.6H161z"/>
<g>
	<path class="st10" d="M391.4,266.6c-1,0-1.9-0.7-2.2-1.7c-3.7-11.9-6.2-14.5-18-18.2c-1-0.3-1.6-1.2-1.6-2.3c0-1,0.7-2,1.6-2.3
		c11.8-3.7,14.3-6.3,18-18.2c0.3-1,1.2-1.7,2.2-1.7c1,0,1.9,0.7,2.2,1.7c3.7,11.9,6.2,14.5,18,18.2c1,0.3,1.6,1.2,1.6,2.3
		c0,1-0.7,2-1.6,2.3c-11.8,3.7-14.3,6.3-18,18.2C393.3,265.9,392.4,266.6,391.4,266.6z"/>
	<path class="st10" d="M423.6,172.4c-1.1,0-2.1-0.7-2.5-1.8c-4.1-13.2-6.9-16-19.9-20.1c-1.1-0.3-1.8-1.4-1.8-2.5
		c0-1.1,0.7-2.2,1.8-2.5c13.1-4.1,15.8-6.9,19.9-20.1c0.3-1.1,1.3-1.8,2.5-1.8c1.1,0,2.1,0.7,2.5,1.8c4.1,13.2,6.9,16,19.9,20.1
		c1.1,0.3,1.8,1.4,1.8,2.5c0,1.2-0.7,2.2-1.8,2.5c-13.1,4.1-15.8,6.9-19.9,20.1C425.8,171.7,424.8,172.4,423.6,172.4z"/>
	<path class="st10" d="M98.5,119.5c-0.8,0-1.6-0.6-1.9-1.4c-3-9.9-5.1-12-14.9-15c-0.8-0.3-1.4-1-1.4-1.9c0-0.9,0.6-1.6,1.4-1.9
		c9.8-3.1,11.8-5.2,14.9-15c0.3-0.8,1-1.4,1.9-1.4c0.8,0,1.6,0.6,1.9,1.4c3,9.9,5.1,12,14.9,15c0.8,0.3,1.4,1,1.4,1.9
		c0,0.9-0.6,1.6-1.4,1.9c-9.8,3.1-11.8,5.2-14.9,15C100.1,118.9,99.3,119.5,98.5,119.5z"/>
</g>
<path class="st14" d="M294.9,160.7L267.2,203h58.4L298,160.7C297.1,159.4,295.7,159.4,294.9,160.7z"/>
<path class="st11" d="M241.5,139.9L200.2,203h85.6l-41.3-63.1C243.7,138.7,242.3,138.7,241.5,139.9z"/>
<path class="st14" d="M189.3,159.8L161,203h59.7l-28.3-43.3C191.5,158.5,190.1,158.5,189.3,159.8z"/>
<path class="st9" d="M161,121.8c-1.4,0-2.6,1.2-2.6,2.6v76.1c0,1.4,1.2,2.6,2.6,2.6h12.3v-81.2H161z"/>
<path class="st5" d="M465,324.7c0,2.5-2,4.5-4.5,4.5h-57.3c-2.5,0-4.5-2-4.5-4.5v-10.3c0-2.5,2-4.5,4.5-4.5h57.3
	c2.5,0,4.5,2,4.5,4.5V324.7z"/>
</svg>
