<?xml version="1.0" encoding="utf-8"?>
<!-- Generator: Adobe Illustrator 24.3.0, SVG Export Plug-In . SVG Version: 6.00 Build 0)  -->
<svg version="1.1" id="Capa_1" xmlns="http://www.w3.org/2000/svg" xmlns:xlink="http://www.w3.org/1999/xlink" x="0px" y="0px"
	 viewBox="0 0 512 512" style="enable-background:new 0 0 512 512;" xml:space="preserve">
<style type="text/css">
	.st0{fill:#091A59;}
	.st1{fill:#5FD6FF;}
	.st2{fill:#052D9E;}
	.st3{fill:#00A9F4;}
</style>
<path class="st0" d="M446.2,81.6l-24.4-48.2c-2-3.9-6.8-5.5-10.8-3.5c-3.9,2-5.5,6.8-3.5,10.7l7.5,14.9C370,19.6,314.5,0,256,0
	C187.6,0,123.3,26.6,75,75S0,187.6,0,256s26.6,132.7,75,181c1.6,1.6,3.6,2.3,5.7,2.3s4.1-0.8,5.7-2.3c3.1-3.1,3.1-8.2,0-11.3
	C41,380.4,16,320.1,16,256S41,131.6,86.3,86.3S191.9,16,256,16c54.8,0,106.8,18.3,149.1,51.9l-16.3-4.3c-4.3-1.1-8.6,1.4-9.8,5.7
	s1.4,8.6,5.7,9.8L437,92.9c0.7,0.2,1.4,0.3,2,0.3c2.4,0,4.7-1.1,6.2-3C447.2,87.8,447.6,84.4,446.2,81.6z"/>
<g>
	<path class="st1" d="M124.6,474.4c-1.5,0-2.9-0.4-4.2-1.2c-4.7-2.9-9.2-6-13.7-9.2c-3.6-2.6-4.4-7.6-1.8-11.2
		c2.6-3.6,7.6-4.4,11.2-1.8c4.2,3,8.5,5.9,12.9,8.6c3.7,2.4,4.9,7.3,2.5,11C129.9,473.1,127.3,474.4,124.6,474.4z"/>
	<path class="st1" d="M492.5,338.9c-0.8,0-1.6-0.1-2.4-0.4c-4.2-1.3-6.5-5.8-5.2-10c1.5-4.9,2.9-9.9,4.2-14.9
		c1.1-4.3,5.4-6.9,9.7-5.9c4.3,1.1,6.9,5.4,5.9,9.7c-1.3,5.4-2.8,10.7-4.5,15.9C499,336.8,495.9,338.9,492.5,338.9z"/>
	<path class="st1" d="M502.9,288.1c-0.2,0-0.5,0-0.8,0c-4.4-0.4-7.6-4.3-7.2-8.7c0.5-5.1,0.8-10.2,1-15.5c0.1-4.4,3.9-8.1,8.2-7.7
		c4.4,0.1,7.9,3.8,7.7,8.2c-0.2,5.5-0.5,11-1,16.5C510.4,285,506.9,288.1,502.9,288.1z"/>
	<path class="st1" d="M502.5,236.2c-4,0-7.5-3-7.9-7.1c-0.6-5.1-1.3-10.2-2.2-15.3c-0.8-4.4,2.1-8.5,6.5-9.3
		c4.4-0.8,8.5,2.1,9.3,6.5c1,5.5,1.8,11,2.4,16.4c0.5,4.4-2.7,8.3-7.1,8.8C503,236.2,502.7,236.2,502.5,236.2z"/>
	<path class="st1" d="M491.3,185.5c-3.4,0-6.5-2.1-7.6-5.5c-1.6-4.9-3.4-9.7-5.4-14.5c-1.7-4.1,0.3-8.8,4.4-10.4
		c4.1-1.7,8.8,0.3,10.4,4.4c2.1,5.1,4,10.3,5.7,15.5c1.4,4.2-0.9,8.7-5.1,10.1C493,185.4,492.2,185.5,491.3,185.5z"/>
	<path class="st1" d="M469.8,138.3c-2.7,0-5.4-1.4-6.9-3.9c-2.6-4.4-5.4-8.8-8.3-13.1c-2.5-3.7-1.5-8.6,2.1-11.1
		c3.7-2.5,8.6-1.5,11.1,2.1c3.1,4.5,6,9.2,8.8,13.9c2.2,3.8,1,8.7-2.8,11C472.6,137.9,471.2,138.3,469.8,138.3z"/>
</g>
<path class="st2" d="M446.2,81.6l-24.4-48.2c-2-3.9-6.8-5.5-10.8-3.5c-3.9,2-5.5,6.8-3.5,10.7l7.5,14.9C370,19.6,314.5,0,256,0
	c-10.1,0-20.2,0.7-30.1,1.9c-4.8,0.6-7.9,5.4-6.6,10c0,0.1,0,0.1,0,0.2c1.1,3.8,4.7,6.2,8.7,5.7c9.2-1.1,18.5-1.7,27.9-1.7
	c54.8,0,106.8,18.3,149.1,51.9l-16.3-4.3c-4.3-1.1-8.6,1.4-9.8,5.7s1.4,8.6,5.7,9.8L437,92.9c0.7,0.2,1.4,0.3,2,0.3
	c2.4,0,4.7-1.1,6.2-3C447.2,87.8,447.6,84.4,446.2,81.6z"/>
<g>
	<path class="st2" d="M407.8,512c-25.1,0-45.4-20.4-45.4-45.4v-50.5c0-25.1,20.4-45.4,45.4-45.4c25.1,0,45.4,20.4,45.4,45.4v50.5
		C453.3,491.6,432.9,512,407.8,512z M407.8,390.8c-13.9,0-25.2,11.3-25.2,25.2v50.5c0,13.9,11.3,25.2,25.2,25.2s25.2-11.3,25.2-25.2
		v-50.5C433.1,402.2,421.8,390.8,407.8,390.8z"/>
	<path class="st2" d="M306.9,421.1c-9.3,0-18,2.8-25.2,7.7v-12.7c0-13.9,11.3-25.2,25.2-25.2c6.7,0,12.9,2.6,17.7,7.2
		c4,3.9,10.4,3.9,14.3-0.1c3.9-4,3.9-10.4-0.1-14.3c-8.5-8.4-19.8-13-31.8-13c-25.1,0-45.4,20.4-45.4,45.4v50.5
		c0,25.1,20.4,45.4,45.4,45.4c25.1,0,45.4-20.4,45.4-45.4C352.3,441.5,331.9,421.1,306.9,421.1z M306.9,491.8
		c-13.9,0-25.2-11.3-25.2-25.2s11.3-25.2,25.2-25.2s25.2,11.3,25.2,25.2S320.8,491.8,306.9,491.8z"/>
	<path class="st2" d="M205.9,441.3c-5.6,0-10.1-4.5-10.1-10.1s4.5-10.1,10.1-10.1c8.4,0,15.1-6.8,15.1-15.1
		c0-8.4-6.8-15.1-15.1-15.1c-3.3,0-6.4,1-9.1,3c-4.5,3.4-10.8,2.5-14.1-2c-3.4-4.5-2.5-10.8,2-14.1c6.2-4.6,13.5-7.1,21.2-7.1
		c19.5,0,35.3,15.9,35.3,35.3S225.4,441.3,205.9,441.3z"/>
</g>
<g>
	<path class="st0" d="M205.9,512c-17.5,0-33.6-10.2-41.1-26c-2.4-5-0.2-11.1,4.8-13.4c5.1-2.4,11.1-0.2,13.4,4.8
		c4.2,8.8,13.1,14.4,22.8,14.4c13.9,0,25.2-11.3,25.2-25.2s-11.3-25.2-25.2-25.2c-5.6,0-10.1-4.5-10.1-10.1s4.5-10.1,10.1-10.1
		c25.1,0,45.4,20.4,45.4,45.4C251.3,491.6,230.9,512,205.9,512z"/>
	<path class="st0" d="M407.8,512c-25.1,0-45.4-20.4-45.4-45.4v-35.3c0-5.6,4.5-10.1,10.1-10.1s10.1,4.5,10.1,10.1v35.3
		c0,13.9,11.3,25.2,25.2,25.2s25.2-11.3,25.2-25.2v-35.3c0-5.6,4.5-10.1,10.1-10.1s10.1,4.5,10.1,10.1v35.3
		C453.3,491.6,432.9,512,407.8,512z"/>
	<path class="st0" d="M306.9,421.1c-9.5,0-18.4,3-25.7,8c-1-4.5-4.8-8-9.7-8c-5.6,0-10.1,4.5-10.1,10.1v35.3
		c0,25.1,20.4,45.4,45.4,45.4c25.1,0,45.4-20.4,45.4-45.4C352.3,441.5,331.9,421.1,306.9,421.1z M306.9,491.8
		c-13.9,0-25.2-11.3-25.2-25.2s11.3-25.2,25.2-25.2s25.2,11.3,25.2,25.2S320.8,491.8,306.9,491.8z"/>
</g>
<path class="st1" d="M488,408c-13.2,0-24-10.8-24-24s10.8-24,24-24s24,10.8,24,24S501.2,408,488,408z M488,376c-4.4,0-8,3.6-8,8
	s3.6,8,8,8s8-3.6,8-8S492.4,376,488,376z"/>
<path class="st1" d="M350,241.9l-142.4-77.1C197,159,184,166.7,184,178.9v154.3c0,12.1,13,19.8,23.6,14.1L350,270.1
	C361.2,264,361.2,248,350,241.9z"/>
<path class="st3" d="M350,241.9l-8.3-4.5l-58.6,31.8c-26.7,14.4-59.1-4.9-59.1-35.2v-60.3l-16.4-8.9C197,159,184,166.7,184,178.9
	v154.3c0,12.1,13,19.8,23.6,14.1L350,270.1C361.2,264,361.2,248,350,241.9z"/>
</svg>
