<svg id="Capa_1" enable-background="new 0 0 512 512" height="512" viewBox="0 0 512 512" width="512" xmlns="http://www.w3.org/2000/svg"><g><g><ellipse cx="256" cy="319.23" fill="#efe2dd" rx="248.466" ry="153.471"/></g><g><path d="m504.47 319.231c0 84.755-111.246 153.468-248.47 153.468-61.811 0-118.348-13.943-161.826-37.018 39.409 16.244 86.765 25.707 137.696 25.707 137.224 0 248.46-68.712 248.46-153.468 0-46.592-33.613-88.332-86.674-116.47 66.804 27.505 110.814 74.469 110.814 127.781z" fill="#e1d3ce"/></g><g><ellipse cx="256" cy="319.23" fill="#87e0ec" rx="208.157" ry="116.513"/></g><g><path d="m464.156 319.231c0 64.343-93.194 116.51-208.156 116.51-76.397 0-143.181-23.035-179.396-57.381 37.772 21.548 90.391 34.919 148.586 34.919 114.963 0 208.156-52.167 208.156-116.51 0-21.588-10.488-41.8-28.761-59.139 36.848 21.016 59.571 49.827 59.571 81.601z" fill="#2dd2e3"/></g><g><g><g><path d="m206.06 237.489h-33.077v-185.293c0-7.122 5.774-12.896 12.896-12.896h7.285c7.122 0 12.896 5.774 12.896 12.896z" fill="#babac0"/></g><g><path d="m339.016 237.489h-33.077v-185.293c0-7.122 5.774-12.896 12.896-12.896h7.285c7.122 0 12.896 5.774 12.896 12.896z" fill="#babac0"/></g><g><path d="m339.016 237.489h-16.538v-198.189h3.643c7.122 0 12.896 5.774 12.896 12.896v185.293z" fill="#aaaaad"/></g><g><path d="m206.06 237.489h-16.538v-198.189h3.643c7.122 0 12.896 5.774 12.896 12.896v185.293z" fill="#aaaaad"/></g></g><g><path d="m243.448 57.232h25.136v99.911h-25.136z" fill="#babac0" transform="matrix(0 1 -1 0 363.203 -148.828)"/></g><g><path d="m280.835 94.62h25.136v25.136h-25.136z" fill="#aaaaad" transform="matrix(0 1 -1 0 400.591 -186.215)"/></g><g><path d="m243.448 107.251h25.136v99.911h-25.136z" fill="#babac0" transform="matrix(0 1 -1 0 413.222 -98.81)"/></g><g><path d="m280.835 144.638h25.136v25.136h-25.136z" fill="#aaaaad" transform="matrix(0 1 -1 0 450.609 -136.197)"/></g><g><path d="m243.448 157.269h25.136v99.911h-25.136z" fill="#babac0" transform="matrix(0 1 -1 0 463.24 -48.792)"/></g><g><path d="m280.835 194.656h25.136v25.136h-25.136z" fill="#aaaaad" transform="matrix(0 1 -1 0 500.627 -86.179)"/></g><g><path d="m219.836 293.026c-6.469 0-10.038 2.763-12.399 4.59-1.574 1.217-1.857 1.437-3.175 1.437s-1.602-.22-3.176-1.437c-2.361-1.828-5.93-4.59-12.398-4.59s-10.036 2.763-12.397 4.59c-1.574 1.217-1.857 1.437-3.175 1.437-1.317 0-1.6-.22-3.174-1.437-2.36-1.828-5.929-4.59-12.397-4.59s-10.035 2.763-12.396 4.591c-1.571 1.216-1.854 1.436-3.169 1.436-1.318 0-1.6-.22-3.173-1.437-2.361-1.828-5.929-4.59-12.397-4.59-4.161 0-7.534 3.373-7.534 7.534 0 4.162 3.373 7.534 7.534 7.534 1.317 0 1.6.22 3.172 1.436 2.361 1.829 5.929 4.591 12.398 4.591 6.468 0 10.035-2.763 12.396-4.591 1.571-1.216 1.854-1.436 3.169-1.436 1.318 0 1.6.22 3.173 1.437 2.361 1.828 5.93 4.59 12.398 4.59 6.469 0 10.037-2.763 12.398-4.59 1.574-1.217 1.856-1.437 3.174-1.437s1.601.22 3.175 1.437c2.361 1.828 5.93 4.59 12.399 4.59 6.468 0 10.037-2.763 12.398-4.59 1.574-1.217 1.857-1.437 3.176-1.437 4.161 0 7.534-3.373 7.534-7.534s-3.373-7.534-7.534-7.534z"/><path d="m221.685 369.945c-2.361-1.828-5.929-4.59-12.397-4.59-4.161 0-7.534 3.373-7.534 7.534s3.373 7.534 7.534 7.534c1.317 0 1.6.22 3.172 1.436 2.361 1.829 5.929 4.591 12.398 4.591 6.468 0 10.035-2.763 12.396-4.591 1.571-1.216 1.854-1.436 3.169-1.436 1.318 0 1.6.22 3.173 1.437 2.361 1.828 5.93 4.59 12.398 4.59 6.469 0 10.037-2.763 12.398-4.59 1.573-1.217 1.856-1.437 3.174-1.437s1.601.22 3.175 1.437c2.361 1.828 5.93 4.59 12.399 4.59 6.468 0 10.037-2.763 12.398-4.59 1.573-1.217 1.857-1.437 3.176-1.437 4.161 0 7.534-3.373 7.534-7.534s-3.373-7.534-7.534-7.534c-6.469 0-10.038 2.763-12.399 4.59-1.573 1.217-1.857 1.437-3.175 1.437s-1.602-.22-3.176-1.437c-2.361-1.828-5.93-4.59-12.398-4.59s-10.036 2.763-12.397 4.59c-1.573 1.217-1.857 1.437-3.175 1.437s-1.6-.22-3.174-1.437c-2.36-1.828-5.929-4.59-12.397-4.59s-10.035 2.763-12.396 4.591c-1.571 1.216-1.854 1.436-3.169 1.436-1.318 0-1.601-.22-3.173-1.437z"/><path d="m328.989 325.187c2.361 1.829 5.929 4.591 12.398 4.591 6.468 0 10.035-2.763 12.396-4.591 1.571-1.216 1.854-1.436 3.169-1.436 1.318 0 1.6.22 3.173 1.437 2.361 1.828 5.93 4.59 12.398 4.59 6.469 0 10.037-2.763 12.398-4.59 1.574-1.217 1.856-1.437 3.174-1.437s1.601.22 3.175 1.437c2.361 1.828 5.93 4.59 12.399 4.59 6.468 0 10.037-2.763 12.398-4.59 1.574-1.217 1.857-1.437 3.176-1.437 4.161 0 7.534-3.373 7.534-7.534s-3.373-7.534-7.534-7.534c-6.469 0-10.038 2.763-12.399 4.59-1.574 1.217-1.857 1.437-3.175 1.437s-1.602-.22-3.176-1.437c-2.361-1.828-5.93-4.59-12.398-4.59s-10.036 2.763-12.397 4.59c-1.573 1.217-1.857 1.437-3.175 1.437-1.317 0-1.6-.22-3.174-1.437-2.36-1.828-5.929-4.59-12.397-4.59s-10.035 2.763-12.396 4.591c-1.571 1.216-1.854 1.436-3.169 1.436-1.317 0-1.6-.22-3.173-1.437-2.361-1.828-5.929-4.59-12.397-4.59-4.161 0-7.534 3.373-7.534 7.534s3.373 7.534 7.534 7.534c1.317-.001 1.6.219 3.172 1.436z"/><path d="m435.442 204.171c-3.542-2.183-8.184-1.082-10.366 2.461-2.183 3.542-1.081 8.184 2.461 10.366 44.749 27.579 69.395 63.884 69.395 102.231 0 38.283-24.575 74.547-69.199 102.11-45.756 28.262-106.745 43.827-171.733 43.827s-125.977-15.565-171.732-43.826c-44.624-27.563-69.199-63.826-69.199-102.11s24.575-74.547 69.199-102.111c23.536-14.537 51.111-25.703 81.181-33.13v22.489c-22.098 5.826-42.493 13.813-60.318 23.79-41.801 23.397-64.822 54.991-64.822 88.961 0 7.306 1.092 14.623 3.245 21.75 1.205 3.983 5.406 6.231 9.392 5.033 3.983-1.204 6.236-5.408 5.033-9.392-1.727-5.712-2.602-11.563-2.602-17.391 0-28.273 20.284-55.197 57.113-75.813 15.712-8.795 33.585-15.96 52.959-21.354v15.426c0 4.161 3.373 7.534 7.534 7.534h33.077c4.161 0 7.534-3.373 7.534-7.534v-10.162h84.811v10.162c0 4.161 3.373 7.534 7.534 7.534h33.077c4.162 0 7.534-3.373 7.534-7.534v-15.415c19.372 5.393 37.249 12.55 52.96 21.344 36.83 20.615 57.113 47.539 57.113 75.813 0 28.273-20.284 55.197-57.113 75.813-38.21 21.387-89.176 33.165-143.51 33.165-71.482 0-138.234-21.193-174.207-55.31-3.02-2.861-7.787-2.738-10.652.283-2.863 3.02-2.736 7.788.282 10.651 18.894 17.918 45.682 32.878 77.47 43.262 32.412 10.587 69.449 16.183 107.106 16.183 56.868 0 110.448-12.46 150.87-35.085 41.801-23.397 64.822-54.991 64.822-88.961s-23.021-65.564-64.822-88.961c-17.828-9.979-38.219-17.974-60.319-23.8v-22.42c13.832 3.419 27.182 7.621 39.864 12.603 3.873 1.523 8.245-.385 9.767-4.258 1.521-3.872-.385-8.245-4.258-9.767-14.396-5.656-29.603-10.344-45.373-14.065v-116.368c0-11.265-9.165-20.43-20.43-20.43h-7.285c-11.265 0-20.431 9.165-20.431 20.43v34.89h-84.811v-34.89c0-11.265-9.165-20.43-20.43-20.43h-7.285c-11.265 0-20.431 9.165-20.431 20.43v116.303c-33.003 7.791-63.311 19.872-89.099 35.801-49.233 30.412-76.348 71.228-76.348 114.931s27.115 84.519 76.349 114.93c48.103 29.712 111.903 46.075 179.651 46.075s131.548-16.362 179.651-46.075c49.234-30.411 76.349-71.227 76.349-114.93 0-43.772-27.189-84.635-76.558-115.059zm-121.969-151.976c0-2.956 2.405-5.361 5.362-5.361h7.285c2.956 0 5.361 2.405 5.361 5.361v177.759h-18.009v-177.759zm-99.879 49.959h84.811v10.067h-84.811zm0 25.136h84.811v9.814h-84.811zm0 24.882h84.811v10.067h-84.811zm0 25.136h84.811v9.814h-84.811zm0 24.883h84.811v10.067h-84.811zm-33.077-149.996c0-2.956 2.406-5.361 5.362-5.361h7.285c2.956 0 5.361 2.405 5.361 5.361v177.759h-18.009v-177.759z"/></g></g></g></svg>